M48
; DRILL file {KiCad 5.1.12-84ad8e8a86~92~ubuntu20.04.1} date mar. 16 nov. 2021 23:53:47
; FORMAT={-:-/ absolute / metric / decimal}
; #@! TF.CreationDate,2021-11-16T23:53:47+01:00
; #@! TF.GenerationSoftware,Kicad,Pcbnew,5.1.12-84ad8e8a86~92~ubuntu20.04.1
; #@! TF.FileFunction,NonPlated,1,2,NPTH
FMAT,2
METRIC
T1C1.000
T2C1.200
T3C2.000
T4C2.200
T5C2.500
T6C5.300
%
G90
G05
T1
X81.123Y-128.629
X90.4Y-119.352
X102.334Y-110.188
X103.871Y-151.377
X113.148Y-142.1
X113.696Y-103.628
X118.419Y-138.048
X124.39Y-37.84
X124.39Y-50.96
X124.39Y-56.89
X124.39Y-70.01
X124.39Y-75.94
X124.39Y-89.06
X124.39Y-94.99
X124.39Y-108.11
X129.781Y-131.488
X132.541Y-116.271
X135.936Y-128.944
X137.51Y-37.84
X137.51Y-50.96
X137.51Y-56.89
X137.51Y-70.01
X137.51Y-75.94
X137.51Y-89.06
X137.51Y-94.99
X137.51Y-108.11
X143.44Y-35.34
X143.44Y-48.46
X143.44Y-54.39
X143.44Y-67.51
X143.44Y-73.44
X143.44Y-86.56
X143.44Y-92.49
X143.44Y-105.61
X145.214Y-112.876
X148.609Y-125.549
X155.2Y-111.56
X155.2Y-124.68
X156.56Y-35.34
X156.56Y-48.46
X156.56Y-54.39
X156.56Y-67.51
X156.56Y-73.44
X156.56Y-86.56
X156.56Y-92.49
X156.56Y-105.61
X162.49Y-28.84
X162.49Y-41.96
X162.49Y-47.89
X162.49Y-61.01
X162.49Y-66.94
X162.49Y-80.06
X162.49Y-85.99
X162.49Y-99.11
X168.32Y-111.56
X168.32Y-124.68
X174.25Y-111.56
X174.25Y-124.68
X175.61Y-28.84
X175.61Y-41.96
X175.61Y-47.89
X175.61Y-61.01
X175.61Y-66.94
X175.61Y-80.06
X175.61Y-85.99
X175.61Y-99.11
X181.54Y-34.84
X181.54Y-47.96
X181.54Y-53.89
X181.54Y-67.01
X181.54Y-72.94
X181.54Y-86.06
X181.54Y-91.99
X181.54Y-105.11
X187.37Y-111.56
X187.37Y-124.68
X194.66Y-34.84
X194.66Y-47.96
X194.66Y-53.89
X194.66Y-67.01
X194.66Y-72.94
X194.66Y-86.06
X194.66Y-91.99
X194.66Y-105.11
X200.59Y-46.84
X200.59Y-59.96
X200.59Y-65.89
X200.59Y-79.01
X200.59Y-84.94
X200.59Y-98.06
X200.59Y-103.99
X200.59Y-117.11
X213.71Y-46.84
X213.71Y-59.96
X213.71Y-65.89
X213.71Y-79.01
X213.71Y-84.94
X213.71Y-98.06
X213.71Y-103.99
X213.71Y-117.11
X219.64Y-46.84
X219.64Y-59.96
X219.64Y-65.89
X219.64Y-79.01
X219.64Y-84.94
X219.64Y-98.06
X219.64Y-103.99
X219.64Y-117.11
X232.76Y-46.84
X232.76Y-59.96
X232.76Y-65.89
X232.76Y-79.01
X232.76Y-84.94
X232.76Y-98.06
X232.76Y-103.99
X232.76Y-117.11
T2
X204.769Y-34.256
X209.531Y-39.019
T3
X103.756Y-30.157
X103.756Y-67.912
X103.756Y-84.581
X105.5Y-99.0
X120.044Y-30.157
X120.044Y-67.912
X120.044Y-84.581
X131.422Y-113.502
X133.167Y-130.063
X147.983Y-111.757
X149.728Y-128.318
X152.235Y-111.196
X154.836Y-127.645
X157.144Y-21.659
X168.684Y-108.595
X169.05Y-104.05
X171.285Y-125.044
X171.285Y-125.044
X173.886Y-108.595
X187.734Y-127.645
X190.335Y-111.196
X216.675Y-60.324
X216.675Y-79.374
X216.675Y-98.424
X216.675Y-117.474
X219.276Y-43.875
X219.276Y-62.925
X219.276Y-81.975
X219.276Y-101.025
X233.124Y-62.925
X233.124Y-81.975
X233.124Y-101.025
X233.124Y-120.075
X235.725Y-46.476
X235.725Y-65.526
X235.725Y-84.576
X235.725Y-103.626
T4
X79.616Y-125.556
X87.323Y-117.849
X93.086Y-139.027
X93.475Y-139.416
X100.794Y-131.319
X101.183Y-131.708
X101.681Y-106.832
X106.945Y-152.886
X109.613Y-129.272
X111.12Y-101.382
X111.481Y-123.806
X114.653Y-145.179
X115.063Y-138.712
X120.92Y-118.356
X126.587Y-119.472
X129.694Y-118.185
X132.037Y-128.912
X132.515Y-128.714
X148.626Y-113.113
X151.448Y-123.641
T5
X207.15Y-36.637
T6
X98.639Y-34.932
X98.639Y-159.529
X232.22Y-37.929
X232.22Y-136.74
T0
M30
