%TF.GenerationSoftware,KiCad,Pcbnew,5.1.12-84ad8e8a86~92~ubuntu20.04.1*%
%TF.CreationDate,2021-11-16T23:53:40+01:00*%
%TF.ProjectId,LergoTopPlate_Alu,4c657267-6f54-46f7-9050-6c6174655f41,v1.A*%
%TF.SameCoordinates,Original*%
%TF.FileFunction,Profile,NP*%
%FSLAX46Y46*%
G04 Gerber Fmt 4.6, Leading zero omitted, Abs format (unit mm)*
G04 Created by KiCad (PCBNEW 5.1.12-84ad8e8a86~92~ubuntu20.04.1) date 2021-11-16 23:53:40*
%MOMM*%
%LPD*%
G01*
G04 APERTURE LIST*
%TA.AperFunction,Profile*%
%ADD10C,0.120000*%
%TD*%
%TA.AperFunction,Profile*%
%ADD11C,0.100000*%
%TD*%
%TA.AperFunction,Profile*%
%ADD12C,0.150000*%
%TD*%
G04 APERTURE END LIST*
D10*
X73524848Y-127344018D02*
G75*
G02*
X73524848Y-125929804I707107J707107D01*
G01*
D11*
X95103365Y-148922535D02*
G75*
G02*
X95103365Y-155993603I-3535534J-3535534D01*
G01*
X102174433Y-163064671D02*
G75*
G02*
X95103365Y-155993603I-3535534J3535534D01*
G01*
X98641295Y-39932170D02*
G75*
G02*
X101614896Y-42905771I0J-2973601D01*
G01*
X98641295Y-39932170D02*
G75*
G02*
X96852971Y-30262004I-2396J4999999D01*
G01*
X222220381Y-131740000D02*
G75*
G02*
X227220381Y-136740000I0J-5000000D01*
G01*
X237220381Y-136740000D02*
G75*
G02*
X227220381Y-136740000I-5000000J0D01*
G01*
X101614896Y-101696929D02*
G75*
G02*
X101143092Y-102545766I-1000000J286D01*
G01*
X101614896Y-42905771D02*
X101614896Y-101696929D01*
X234214126Y-33343544D02*
G75*
G02*
X237220381Y-37928844I-1993745J-4585300D01*
G01*
X96852971Y-30262005D02*
G75*
G02*
X234214126Y-33343544I64907410J-169731595D01*
G01*
X80612709Y-118841943D02*
G75*
G02*
X101143092Y-102545766I81147672J-81151657D01*
G01*
X73524848Y-125929804D02*
X80612709Y-118841943D01*
X95103365Y-148922535D02*
X73524848Y-127344018D01*
X113500343Y-151733562D02*
X102174433Y-163064671D01*
X113500343Y-151733562D02*
G75*
G02*
X161760381Y-131743600I48260038J-48260038D01*
G01*
X161760381Y-131743600D02*
X222220381Y-131740000D01*
X237220381Y-37928844D02*
X237220381Y-136740000D01*
D10*
X118400000Y-67527500D02*
G75*
G02*
X117600000Y-68327500I-800000J0D01*
G01*
X105400000Y-30127500D02*
G75*
G02*
X106200000Y-29327500I800000J0D01*
G01*
X106200000Y-68327500D02*
G75*
G02*
X105400000Y-67527500I0J800000D01*
G01*
X117600000Y-29327500D02*
G75*
G02*
X118400000Y-30127500I0J-800000D01*
G01*
X106200000Y-29327500D02*
X117600000Y-29327500D01*
X118400000Y-30127500D02*
X118400000Y-67527500D01*
X117600000Y-68327500D02*
X106200000Y-68327500D01*
X105400000Y-67527500D02*
X105400000Y-30127500D01*
D12*
X102133166Y-110719906D02*
G75*
G02*
X102425987Y-109627085I692821J400000D01*
G01*
X113164703Y-103427086D02*
G75*
G02*
X114257523Y-103719906I400000J-692820D01*
G01*
X129982524Y-130956404D02*
G75*
G02*
X129689703Y-132049225I-692821J-400000D01*
G01*
X118950987Y-138249224D02*
G75*
G02*
X117858167Y-137956404I-400000J692820D01*
G01*
X102133167Y-110719906D02*
X109995667Y-124338155D01*
X113164703Y-103427085D02*
X102425987Y-109627085D01*
X122120023Y-117338155D02*
X114257523Y-103719906D01*
X109995667Y-124338155D02*
X117858167Y-137956404D01*
X118950987Y-138249225D02*
X129689703Y-132049225D01*
X129982523Y-130956404D02*
X122120023Y-117338155D01*
X81066411Y-129195141D02*
G75*
G02*
X81066411Y-128063769I565686J565686D01*
G01*
X89834535Y-119295646D02*
G75*
G02*
X90965906Y-119295645I565686J-565685D01*
G01*
X113204415Y-141534153D02*
G75*
G02*
X113204415Y-142665525I-565686J-565686D01*
G01*
X104436291Y-151433648D02*
G75*
G02*
X103304920Y-151433649I-565686J565685D01*
G01*
X81066411Y-129195140D02*
X92185666Y-140314394D01*
X89834535Y-119295645D02*
X81066411Y-128063769D01*
X102085160Y-130414900D02*
X90965906Y-119295645D01*
X92185666Y-140314394D02*
X103304920Y-151433649D01*
X104436291Y-151433649D02*
X113204415Y-142665525D01*
X113204415Y-141534154D02*
X102085160Y-130414900D01*
X174610000Y-125120000D02*
G75*
G02*
X173810000Y-124320000I0J800000D01*
G01*
X187010000Y-111120000D02*
G75*
G02*
X187810000Y-111920000I0J-800000D01*
G01*
X187810000Y-124320000D02*
G75*
G02*
X187010000Y-125120000I-800000J0D01*
G01*
X173810000Y-111920000D02*
G75*
G02*
X174610000Y-111120000I800000J0D01*
G01*
X173810000Y-111920000D02*
X173810000Y-124320000D01*
X187810000Y-124320000D02*
X187810000Y-111920000D01*
X187010000Y-111120000D02*
X174610000Y-111120000D01*
X174610000Y-125120000D02*
X187010000Y-125120000D01*
X155560000Y-111120000D02*
G75*
G03*
X154760000Y-111920000I0J-800000D01*
G01*
X167960000Y-125120000D02*
G75*
G03*
X168760000Y-124320000I0J800000D01*
G01*
X168760000Y-111920000D02*
G75*
G03*
X167960000Y-111120000I-800000J0D01*
G01*
X154760000Y-124320000D02*
G75*
G03*
X155560000Y-125120000I800000J0D01*
G01*
X154760000Y-124320000D02*
X154760000Y-111920000D01*
X168760000Y-111920000D02*
X168760000Y-124320000D01*
X167960000Y-125120000D02*
X155560000Y-125120000D01*
X155560000Y-111120000D02*
X167960000Y-111120000D01*
X136397993Y-129276159D02*
G75*
G02*
X135418197Y-128710473I-207055J772741D01*
G01*
X144752007Y-112543841D02*
G75*
G02*
X145731803Y-113109527I207055J-772741D01*
G01*
X148941159Y-125087007D02*
G75*
G02*
X148375473Y-126066803I-772741J-207055D01*
G01*
X132208841Y-116732993D02*
G75*
G02*
X132774527Y-115753197I772741J207055D01*
G01*
X132208841Y-116732993D02*
X135418197Y-128710473D01*
X148941159Y-125087007D02*
X145731803Y-113109527D01*
X144752007Y-112543841D02*
X132774527Y-115753197D01*
X136397993Y-129276159D02*
X148375473Y-126066803D01*
X220000000Y-117550000D02*
G75*
G02*
X219200000Y-116750000I0J800000D01*
G01*
X232400000Y-103550000D02*
G75*
G02*
X233200000Y-104350000I0J-800000D01*
G01*
X233200000Y-116750000D02*
G75*
G02*
X232400000Y-117550000I-800000J0D01*
G01*
X219200000Y-104350000D02*
G75*
G02*
X220000000Y-103550000I800000J0D01*
G01*
X219200000Y-104350000D02*
X219200000Y-116750000D01*
X233200000Y-116750000D02*
X233200000Y-104350000D01*
X232400000Y-103550000D02*
X220000000Y-103550000D01*
X220000000Y-117550000D02*
X232400000Y-117550000D01*
X220000000Y-98500000D02*
G75*
G02*
X219200000Y-97700000I0J800000D01*
G01*
X232400000Y-84500000D02*
G75*
G02*
X233200000Y-85300000I0J-800000D01*
G01*
X233200000Y-97700000D02*
G75*
G02*
X232400000Y-98500000I-800000J0D01*
G01*
X219200000Y-85300000D02*
G75*
G02*
X220000000Y-84500000I800000J0D01*
G01*
X219200000Y-85300000D02*
X219200000Y-97700000D01*
X233200000Y-97700000D02*
X233200000Y-85300000D01*
X232400000Y-84500000D02*
X220000000Y-84500000D01*
X220000000Y-98500000D02*
X232400000Y-98500000D01*
X220000000Y-79450000D02*
G75*
G02*
X219200000Y-78650000I0J800000D01*
G01*
X232400000Y-65450000D02*
G75*
G02*
X233200000Y-66250000I0J-800000D01*
G01*
X233200000Y-78650000D02*
G75*
G02*
X232400000Y-79450000I-800000J0D01*
G01*
X219200000Y-66250000D02*
G75*
G02*
X220000000Y-65450000I800000J0D01*
G01*
X219200000Y-66250000D02*
X219200000Y-78650000D01*
X233200000Y-78650000D02*
X233200000Y-66250000D01*
X232400000Y-65450000D02*
X220000000Y-65450000D01*
X220000000Y-79450000D02*
X232400000Y-79450000D01*
X220000000Y-60400000D02*
G75*
G02*
X219200000Y-59600000I0J800000D01*
G01*
X232400000Y-46400000D02*
G75*
G02*
X233200000Y-47200000I0J-800000D01*
G01*
X233200000Y-59600000D02*
G75*
G02*
X232400000Y-60400000I-800000J0D01*
G01*
X219200000Y-47200000D02*
G75*
G02*
X220000000Y-46400000I800000J0D01*
G01*
X219200000Y-47200000D02*
X219200000Y-59600000D01*
X233200000Y-59600000D02*
X233200000Y-47200000D01*
X232400000Y-46400000D02*
X220000000Y-46400000D01*
X220000000Y-60400000D02*
X232400000Y-60400000D01*
X156200000Y-53950000D02*
G75*
G02*
X157000000Y-54750000I0J-800000D01*
G01*
X143800000Y-67950000D02*
G75*
G02*
X143000000Y-67150000I0J800000D01*
G01*
X157000000Y-67150000D02*
G75*
G02*
X156200000Y-67950000I-800000J0D01*
G01*
X143000000Y-54750000D02*
G75*
G02*
X143800000Y-53950000I800000J0D01*
G01*
X143000000Y-54750000D02*
X143000000Y-67150000D01*
X143800000Y-67950000D02*
X156200000Y-67950000D01*
X157000000Y-67150000D02*
X157000000Y-54750000D01*
X156200000Y-53950000D02*
X143800000Y-53950000D01*
X213350000Y-65450000D02*
G75*
G02*
X214150000Y-66250000I0J-800000D01*
G01*
X200950000Y-79450000D02*
G75*
G02*
X200150000Y-78650000I0J800000D01*
G01*
X214150000Y-78650000D02*
G75*
G02*
X213350000Y-79450000I-800000J0D01*
G01*
X200150000Y-66250000D02*
G75*
G02*
X200950000Y-65450000I800000J0D01*
G01*
X200150000Y-66250000D02*
X200150000Y-78650000D01*
X200950000Y-79450000D02*
X213350000Y-79450000D01*
X214150000Y-78650000D02*
X214150000Y-66250000D01*
X213350000Y-65450000D02*
X200950000Y-65450000D01*
X213350000Y-84500000D02*
G75*
G02*
X214150000Y-85300000I0J-800000D01*
G01*
X200950000Y-98500000D02*
G75*
G02*
X200150000Y-97700000I0J800000D01*
G01*
X214150000Y-97700000D02*
G75*
G02*
X213350000Y-98500000I-800000J0D01*
G01*
X200150000Y-85300000D02*
G75*
G02*
X200950000Y-84500000I800000J0D01*
G01*
X200150000Y-85300000D02*
X200150000Y-97700000D01*
X200950000Y-98500000D02*
X213350000Y-98500000D01*
X214150000Y-97700000D02*
X214150000Y-85300000D01*
X213350000Y-84500000D02*
X200950000Y-84500000D01*
X194300000Y-72500000D02*
G75*
G02*
X195100000Y-73300000I0J-800000D01*
G01*
X181900000Y-86500000D02*
G75*
G02*
X181100000Y-85700000I0J800000D01*
G01*
X195100000Y-85700000D02*
G75*
G02*
X194300000Y-86500000I-800000J0D01*
G01*
X181100000Y-73300000D02*
G75*
G02*
X181900000Y-72500000I800000J0D01*
G01*
X181100000Y-73300000D02*
X181100000Y-85700000D01*
X181900000Y-86500000D02*
X194300000Y-86500000D01*
X195100000Y-85700000D02*
X195100000Y-73300000D01*
X194300000Y-72500000D02*
X181900000Y-72500000D01*
X175250000Y-66500000D02*
G75*
G02*
X176050000Y-67300000I0J-800000D01*
G01*
X162850000Y-80500000D02*
G75*
G02*
X162050000Y-79700000I0J800000D01*
G01*
X176050000Y-79700000D02*
G75*
G02*
X175250000Y-80500000I-800000J0D01*
G01*
X162050000Y-67300000D02*
G75*
G02*
X162850000Y-66500000I800000J0D01*
G01*
X162050000Y-67300000D02*
X162050000Y-79700000D01*
X162850000Y-80500000D02*
X175250000Y-80500000D01*
X176050000Y-79700000D02*
X176050000Y-67300000D01*
X175250000Y-66500000D02*
X162850000Y-66500000D01*
X137150000Y-75500000D02*
G75*
G02*
X137950000Y-76300000I0J-800000D01*
G01*
X124750000Y-89500000D02*
G75*
G02*
X123950000Y-88700000I0J800000D01*
G01*
X137950000Y-88700000D02*
G75*
G02*
X137150000Y-89500000I-800000J0D01*
G01*
X123950000Y-76300000D02*
G75*
G02*
X124750000Y-75500000I800000J0D01*
G01*
X123950000Y-76300000D02*
X123950000Y-88700000D01*
X124750000Y-89500000D02*
X137150000Y-89500000D01*
X137950000Y-88700000D02*
X137950000Y-76300000D01*
X137150000Y-75500000D02*
X124750000Y-75500000D01*
X156200000Y-73000000D02*
G75*
G02*
X157000000Y-73800000I0J-800000D01*
G01*
X143800000Y-87000000D02*
G75*
G02*
X143000000Y-86200000I0J800000D01*
G01*
X157000000Y-86200000D02*
G75*
G02*
X156200000Y-87000000I-800000J0D01*
G01*
X143000000Y-73800000D02*
G75*
G02*
X143800000Y-73000000I800000J0D01*
G01*
X143000000Y-73800000D02*
X143000000Y-86200000D01*
X143800000Y-87000000D02*
X156200000Y-87000000D01*
X157000000Y-86200000D02*
X157000000Y-73800000D01*
X156200000Y-73000000D02*
X143800000Y-73000000D01*
X137150000Y-94550000D02*
G75*
G02*
X137950000Y-95350000I0J-800000D01*
G01*
X124750000Y-108550000D02*
G75*
G02*
X123950000Y-107750000I0J800000D01*
G01*
X137950000Y-107750000D02*
G75*
G02*
X137150000Y-108550000I-800000J0D01*
G01*
X123950000Y-95350000D02*
G75*
G02*
X124750000Y-94550000I800000J0D01*
G01*
X123950000Y-95350000D02*
X123950000Y-107750000D01*
X124750000Y-108550000D02*
X137150000Y-108550000D01*
X137950000Y-107750000D02*
X137950000Y-95350000D01*
X137150000Y-94550000D02*
X124750000Y-94550000D01*
X137150000Y-56450000D02*
G75*
G02*
X137950000Y-57250000I0J-800000D01*
G01*
X124750000Y-70450000D02*
G75*
G02*
X123950000Y-69650000I0J800000D01*
G01*
X137950000Y-69650000D02*
G75*
G02*
X137150000Y-70450000I-800000J0D01*
G01*
X123950000Y-57250000D02*
G75*
G02*
X124750000Y-56450000I800000J0D01*
G01*
X123950000Y-57250000D02*
X123950000Y-69650000D01*
X124750000Y-70450000D02*
X137150000Y-70450000D01*
X137950000Y-69650000D02*
X137950000Y-57250000D01*
X137150000Y-56450000D02*
X124750000Y-56450000D01*
X156200000Y-34900000D02*
G75*
G02*
X157000000Y-35700000I0J-800000D01*
G01*
X143800000Y-48900000D02*
G75*
G02*
X143000000Y-48100000I0J800000D01*
G01*
X157000000Y-48100000D02*
G75*
G02*
X156200000Y-48900000I-800000J0D01*
G01*
X143000000Y-35700000D02*
G75*
G02*
X143800000Y-34900000I800000J0D01*
G01*
X143000000Y-35700000D02*
X143000000Y-48100000D01*
X143800000Y-48900000D02*
X156200000Y-48900000D01*
X157000000Y-48100000D02*
X157000000Y-35700000D01*
X156200000Y-34900000D02*
X143800000Y-34900000D01*
X175250000Y-85550000D02*
G75*
G02*
X176050000Y-86350000I0J-800000D01*
G01*
X162850000Y-99550000D02*
G75*
G02*
X162050000Y-98750000I0J800000D01*
G01*
X176050000Y-98750000D02*
G75*
G02*
X175250000Y-99550000I-800000J0D01*
G01*
X162050000Y-86350000D02*
G75*
G02*
X162850000Y-85550000I800000J0D01*
G01*
X162050000Y-86350000D02*
X162050000Y-98750000D01*
X162850000Y-99550000D02*
X175250000Y-99550000D01*
X176050000Y-98750000D02*
X176050000Y-86350000D01*
X175250000Y-85550000D02*
X162850000Y-85550000D01*
X175250000Y-47450000D02*
G75*
G02*
X176050000Y-48250000I0J-800000D01*
G01*
X162850000Y-61450000D02*
G75*
G02*
X162050000Y-60650000I0J800000D01*
G01*
X176050000Y-60650000D02*
G75*
G02*
X175250000Y-61450000I-800000J0D01*
G01*
X162050000Y-48250000D02*
G75*
G02*
X162850000Y-47450000I800000J0D01*
G01*
X162050000Y-48250000D02*
X162050000Y-60650000D01*
X162850000Y-61450000D02*
X175250000Y-61450000D01*
X176050000Y-60650000D02*
X176050000Y-48250000D01*
X175250000Y-47450000D02*
X162850000Y-47450000D01*
X175250000Y-28400000D02*
G75*
G02*
X176050000Y-29200000I0J-800000D01*
G01*
X162850000Y-42400000D02*
G75*
G02*
X162050000Y-41600000I0J800000D01*
G01*
X176050000Y-41600000D02*
G75*
G02*
X175250000Y-42400000I-800000J0D01*
G01*
X162050000Y-29200000D02*
G75*
G02*
X162850000Y-28400000I800000J0D01*
G01*
X162050000Y-29200000D02*
X162050000Y-41600000D01*
X162850000Y-42400000D02*
X175250000Y-42400000D01*
X176050000Y-41600000D02*
X176050000Y-29200000D01*
X175250000Y-28400000D02*
X162850000Y-28400000D01*
X194300000Y-91550000D02*
G75*
G02*
X195100000Y-92350000I0J-800000D01*
G01*
X181900000Y-105550000D02*
G75*
G02*
X181100000Y-104750000I0J800000D01*
G01*
X195100000Y-104750000D02*
G75*
G02*
X194300000Y-105550000I-800000J0D01*
G01*
X181100000Y-92350000D02*
G75*
G02*
X181900000Y-91550000I800000J0D01*
G01*
X181100000Y-92350000D02*
X181100000Y-104750000D01*
X181900000Y-105550000D02*
X194300000Y-105550000D01*
X195100000Y-104750000D02*
X195100000Y-92350000D01*
X194300000Y-91550000D02*
X181900000Y-91550000D01*
X194300000Y-53450000D02*
G75*
G02*
X195100000Y-54250000I0J-800000D01*
G01*
X181900000Y-67450000D02*
G75*
G02*
X181100000Y-66650000I0J800000D01*
G01*
X195100000Y-66650000D02*
G75*
G02*
X194300000Y-67450000I-800000J0D01*
G01*
X181100000Y-54250000D02*
G75*
G02*
X181900000Y-53450000I800000J0D01*
G01*
X181100000Y-54250000D02*
X181100000Y-66650000D01*
X181900000Y-67450000D02*
X194300000Y-67450000D01*
X195100000Y-66650000D02*
X195100000Y-54250000D01*
X194300000Y-53450000D02*
X181900000Y-53450000D01*
X194300000Y-34400000D02*
G75*
G02*
X195100000Y-35200000I0J-800000D01*
G01*
X181900000Y-48400000D02*
G75*
G02*
X181100000Y-47600000I0J800000D01*
G01*
X195100000Y-47600000D02*
G75*
G02*
X194300000Y-48400000I-800000J0D01*
G01*
X181100000Y-35200000D02*
G75*
G02*
X181900000Y-34400000I800000J0D01*
G01*
X181100000Y-35200000D02*
X181100000Y-47600000D01*
X181900000Y-48400000D02*
X194300000Y-48400000D01*
X195100000Y-47600000D02*
X195100000Y-35200000D01*
X194300000Y-34400000D02*
X181900000Y-34400000D01*
X213350000Y-103550000D02*
G75*
G02*
X214150000Y-104350000I0J-800000D01*
G01*
X200950000Y-117550000D02*
G75*
G02*
X200150000Y-116750000I0J800000D01*
G01*
X214150000Y-116750000D02*
G75*
G02*
X213350000Y-117550000I-800000J0D01*
G01*
X200150000Y-104350000D02*
G75*
G02*
X200950000Y-103550000I800000J0D01*
G01*
X200150000Y-104350000D02*
X200150000Y-116750000D01*
X200950000Y-117550000D02*
X213350000Y-117550000D01*
X214150000Y-116750000D02*
X214150000Y-104350000D01*
X213350000Y-103550000D02*
X200950000Y-103550000D01*
X213350000Y-46400000D02*
G75*
G02*
X214150000Y-47200000I0J-800000D01*
G01*
X200950000Y-60400000D02*
G75*
G02*
X200150000Y-59600000I0J800000D01*
G01*
X214150000Y-59600000D02*
G75*
G02*
X213350000Y-60400000I-800000J0D01*
G01*
X200150000Y-47200000D02*
G75*
G02*
X200950000Y-46400000I800000J0D01*
G01*
X200150000Y-47200000D02*
X200150000Y-59600000D01*
X200950000Y-60400000D02*
X213350000Y-60400000D01*
X214150000Y-59600000D02*
X214150000Y-47200000D01*
X213350000Y-46400000D02*
X200950000Y-46400000D01*
X137150000Y-37400000D02*
G75*
G02*
X137950000Y-38200000I0J-800000D01*
G01*
X124750000Y-51400000D02*
G75*
G02*
X123950000Y-50600000I0J800000D01*
G01*
X137950000Y-50600000D02*
G75*
G02*
X137150000Y-51400000I-800000J0D01*
G01*
X123950000Y-38200000D02*
G75*
G02*
X124750000Y-37400000I800000J0D01*
G01*
X123950000Y-38200000D02*
X123950000Y-50600000D01*
X124750000Y-51400000D02*
X137150000Y-51400000D01*
X137950000Y-50600000D02*
X137950000Y-38200000D01*
X137150000Y-37400000D02*
X124750000Y-37400000D01*
X156200000Y-92050000D02*
G75*
G02*
X157000000Y-92850000I0J-800000D01*
G01*
X143800000Y-106050000D02*
G75*
G02*
X143000000Y-105250000I0J800000D01*
G01*
X157000000Y-105250000D02*
G75*
G02*
X156200000Y-106050000I-800000J0D01*
G01*
X143000000Y-92850000D02*
G75*
G02*
X143800000Y-92050000I800000J0D01*
G01*
X143000000Y-92850000D02*
X143000000Y-105250000D01*
X143800000Y-106050000D02*
X156200000Y-106050000D01*
X157000000Y-105250000D02*
X157000000Y-92850000D01*
X156200000Y-92050000D02*
X143800000Y-92050000D01*
M02*
