%TF.GenerationSoftware,KiCad,Pcbnew,5.1.12-84ad8e8a86~92~ubuntu20.04.1*%
%TF.CreationDate,2021-11-17T01:01:51+01:00*%
%TF.ProjectId,LergoTopPlate_Alu_Rails,4c657267-6f54-46f7-9050-6c6174655f41,v1.A*%
%TF.SameCoordinates,Original*%
%TF.FileFunction,Legend,Top*%
%TF.FilePolarity,Positive*%
%FSLAX46Y46*%
G04 Gerber Fmt 4.6, Leading zero omitted, Abs format (unit mm)*
G04 Created by KiCad (PCBNEW 5.1.12-84ad8e8a86~92~ubuntu20.04.1) date 2021-11-17 01:01:51*
%MOMM*%
%LPD*%
G01*
G04 APERTURE LIST*
%ADD10C,0.150000*%
%ADD11C,0.500000*%
%ADD12C,2.000000*%
%ADD13C,2.200000*%
%ADD14C,1.000000*%
%ADD15C,5.300000*%
%ADD16C,1.200000*%
%ADD17C,2.500000*%
G04 APERTURE END LIST*
D10*
X197625000Y-125043750D02*
X197625000Y-108595000D01*
X141915117Y-130076376D02*
G75*
G02*
X168683749Y-127645001I19845264J-69917224D01*
G01*
X138601923Y-111306885D02*
G75*
G02*
X154836250Y-108595000I23158458J-88686715D01*
G01*
X154836250Y-108595000D02*
X219276250Y-108595000D01*
X233123750Y-127645000D02*
X168683750Y-127645000D01*
X216675000Y-44276250D02*
X216675000Y-125043750D01*
X235725000Y-125043750D02*
X235725000Y-44276250D01*
D11*
X103804761Y-93155952D02*
X102614285Y-93155952D01*
X102614285Y-90655952D01*
X105590476Y-93036904D02*
X105352380Y-93155952D01*
X104876190Y-93155952D01*
X104638095Y-93036904D01*
X104519047Y-92798809D01*
X104519047Y-91846428D01*
X104638095Y-91608333D01*
X104876190Y-91489285D01*
X105352380Y-91489285D01*
X105590476Y-91608333D01*
X105709523Y-91846428D01*
X105709523Y-92084523D01*
X104519047Y-92322619D01*
X106780952Y-93155952D02*
X106780952Y-91489285D01*
X106780952Y-91965476D02*
X106900000Y-91727380D01*
X107019047Y-91608333D01*
X107257142Y-91489285D01*
X107495238Y-91489285D01*
X109400000Y-91489285D02*
X109400000Y-93513095D01*
X109280952Y-93751190D01*
X109161904Y-93870238D01*
X108923809Y-93989285D01*
X108566666Y-93989285D01*
X108328571Y-93870238D01*
X109400000Y-93036904D02*
X109161904Y-93155952D01*
X108685714Y-93155952D01*
X108447619Y-93036904D01*
X108328571Y-92917857D01*
X108209523Y-92679761D01*
X108209523Y-91965476D01*
X108328571Y-91727380D01*
X108447619Y-91608333D01*
X108685714Y-91489285D01*
X109161904Y-91489285D01*
X109400000Y-91608333D01*
X110947619Y-93155952D02*
X110709523Y-93036904D01*
X110590476Y-92917857D01*
X110471428Y-92679761D01*
X110471428Y-91965476D01*
X110590476Y-91727380D01*
X110709523Y-91608333D01*
X110947619Y-91489285D01*
X111304761Y-91489285D01*
X111542857Y-91608333D01*
X111661904Y-91727380D01*
X111780952Y-91965476D01*
X111780952Y-92679761D01*
X111661904Y-92917857D01*
X111542857Y-93036904D01*
X111304761Y-93155952D01*
X110947619Y-93155952D01*
X114519047Y-91489285D02*
X115114285Y-93155952D01*
X115709523Y-91489285D01*
X117971428Y-93155952D02*
X116542857Y-93155952D01*
X117257142Y-93155952D02*
X117257142Y-90655952D01*
X117019047Y-91013095D01*
X116780952Y-91251190D01*
X116542857Y-91370238D01*
X119042857Y-92917857D02*
X119161904Y-93036904D01*
X119042857Y-93155952D01*
X118923809Y-93036904D01*
X119042857Y-92917857D01*
X119042857Y-93155952D01*
X120114285Y-92441666D02*
X121304761Y-92441666D01*
X119876190Y-93155952D02*
X120709523Y-90655952D01*
X121542857Y-93155952D01*
D10*
X197186904Y-85670238D02*
X197758333Y-85670238D01*
X197872619Y-85708333D01*
X197948809Y-85784523D01*
X197986904Y-85898809D01*
X197986904Y-85975000D01*
X197986904Y-84908333D02*
X197986904Y-85289285D01*
X197186904Y-85289285D01*
X197910714Y-84184523D02*
X197948809Y-84222619D01*
X197986904Y-84336904D01*
X197986904Y-84413095D01*
X197948809Y-84527380D01*
X197872619Y-84603571D01*
X197796428Y-84641666D01*
X197644047Y-84679761D01*
X197529761Y-84679761D01*
X197377380Y-84641666D01*
X197301190Y-84603571D01*
X197225000Y-84527380D01*
X197186904Y-84413095D01*
X197186904Y-84336904D01*
X197225000Y-84222619D01*
X197263095Y-84184523D01*
X197186904Y-83613095D02*
X197758333Y-83613095D01*
X197872619Y-83651190D01*
X197948809Y-83727380D01*
X197986904Y-83841666D01*
X197986904Y-83917857D01*
X197986904Y-82851190D02*
X197986904Y-83232142D01*
X197186904Y-83232142D01*
X197910714Y-82127380D02*
X197948809Y-82165476D01*
X197986904Y-82279761D01*
X197986904Y-82355952D01*
X197948809Y-82470238D01*
X197872619Y-82546428D01*
X197796428Y-82584523D01*
X197644047Y-82622619D01*
X197529761Y-82622619D01*
X197377380Y-82584523D01*
X197301190Y-82546428D01*
X197225000Y-82470238D01*
X197186904Y-82355952D01*
X197186904Y-82279761D01*
X197225000Y-82165476D01*
X197263095Y-82127380D01*
X197186904Y-81555952D02*
X197758333Y-81555952D01*
X197872619Y-81594047D01*
X197948809Y-81670238D01*
X197986904Y-81784523D01*
X197986904Y-81860714D01*
X197986904Y-80794047D02*
X197986904Y-81175000D01*
X197186904Y-81175000D01*
X197910714Y-80070238D02*
X197948809Y-80108333D01*
X197986904Y-80222619D01*
X197986904Y-80298809D01*
X197948809Y-80413095D01*
X197872619Y-80489285D01*
X197796428Y-80527380D01*
X197644047Y-80565476D01*
X197529761Y-80565476D01*
X197377380Y-80527380D01*
X197301190Y-80489285D01*
X197225000Y-80413095D01*
X197186904Y-80298809D01*
X197186904Y-80222619D01*
X197225000Y-80108333D01*
X197263095Y-80070238D01*
X197186904Y-79498809D02*
X197758333Y-79498809D01*
X197872619Y-79536904D01*
X197948809Y-79613095D01*
X197986904Y-79727380D01*
X197986904Y-79803571D01*
X197986904Y-78736904D02*
X197986904Y-79117857D01*
X197186904Y-79117857D01*
X197910714Y-78013095D02*
X197948809Y-78051190D01*
X197986904Y-78165476D01*
X197986904Y-78241666D01*
X197948809Y-78355952D01*
X197872619Y-78432142D01*
X197796428Y-78470238D01*
X197644047Y-78508333D01*
X197529761Y-78508333D01*
X197377380Y-78470238D01*
X197301190Y-78432142D01*
X197225000Y-78355952D01*
X197186904Y-78241666D01*
X197186904Y-78165476D01*
X197225000Y-78051190D01*
X197263095Y-78013095D01*
%LPC*%
D12*
X103756250Y-84581250D03*
X120043750Y-30157500D03*
X120043750Y-67912500D03*
X103756250Y-67912500D03*
X103756250Y-30157500D03*
X120043750Y-84581250D03*
D13*
X138917245Y-131422627D03*
X134142390Y-112413135D03*
X149488850Y-128767223D03*
D14*
X144713995Y-109757730D03*
D13*
X121005544Y-140304150D03*
X111205544Y-123330052D03*
X130445220Y-134854150D03*
X120645220Y-117880052D03*
X106945463Y-152886146D03*
X93086171Y-139026854D03*
X114652927Y-145178682D03*
X100793635Y-131319390D03*
X93475079Y-139415762D03*
X79615787Y-125556470D03*
X101182543Y-131708298D03*
X87323251Y-117849006D03*
X111480544Y-123806366D03*
X101680544Y-106832268D03*
X120920220Y-118356366D03*
X111120220Y-101382268D03*
D12*
X156923750Y-108575000D03*
D15*
X98638899Y-34932171D03*
X98638899Y-159529137D03*
X232220381Y-136740000D03*
X232220381Y-37928844D03*
D12*
X175973750Y-108595000D03*
X144793444Y-109920811D03*
X105500000Y-99000000D03*
X157143750Y-21659375D03*
D16*
X223818750Y-38103125D03*
X219056250Y-33340625D03*
D17*
X221437500Y-35721875D03*
M02*
