M48
; DRILL file {KiCad 5.1.12-84ad8e8a86~92~ubuntu20.04.1} date mer. 17 nov. 2021 01:01:52
; FORMAT={-:-/ absolute / metric / decimal}
; #@! TF.CreationDate,2021-11-17T01:01:52+01:00
; #@! TF.GenerationSoftware,Kicad,Pcbnew,5.1.12-84ad8e8a86~92~ubuntu20.04.1
; #@! TF.FileFunction,NonPlated,1,2,NPTH
FMAT,2
METRIC
T1C1.000
T2C1.200
T3C2.000
T4C2.200
T5C2.500
T6C5.300
%
G90
G05
T1
X81.123Y-128.629
X103.871Y-151.377
X124.39Y-29.3
X137.51Y-29.3
X143.44Y-26.3
X143.44Y-105.61
X156.56Y-26.3
X156.56Y-105.61
X162.49Y-25.34
X162.49Y-105.63
X175.61Y-25.34
X175.61Y-105.63
X181.54Y-26.38
X194.66Y-26.38
X194.66Y-124.68
X200.59Y-29.46
X200.59Y-124.68
X213.71Y-29.46
X213.71Y-124.68
X219.64Y-44.64
X219.64Y-124.68
X232.76Y-44.64
X232.76Y-124.68
T2
X219.056Y-33.341
X223.819Y-38.103
T3
X103.756Y-30.157
X103.756Y-67.912
X103.756Y-84.581
X105.5Y-99.0
X120.044Y-30.157
X120.044Y-67.912
X120.044Y-84.581
X144.793Y-109.921
X156.924Y-108.575
X157.144Y-21.659
X175.974Y-108.595
T4
X79.616Y-125.556
X87.323Y-117.849
X93.086Y-139.027
X93.475Y-139.416
X100.794Y-131.319
X101.183Y-131.708
X101.681Y-106.832
X106.945Y-152.886
X111.12Y-101.382
X111.206Y-123.33
X111.481Y-123.806
X114.653Y-145.179
X120.645Y-117.88
X120.92Y-118.356
X121.006Y-140.304
X130.445Y-134.854
X134.142Y-112.413
X138.917Y-131.423
X149.489Y-128.767
T5
X221.438Y-35.722
T6
X98.639Y-34.932
X98.639Y-159.529
X232.22Y-37.929
X232.22Y-136.74
T0
M30
