%FSLAX45Y45*%
G04 Gerber Fmt 4.5, Leading zero omitted, Abs format (unit mm)*
G04 Created by KiCad (PCBNEW 5.1.12-84ad8e8a86~92~ubuntu20.04.1) date 2021-11-17 01:01:53*
%MOMM*%
%LPD*%
G01*
G04 APERTURE LIST*
%TA.AperFunction,Profile*%
%ADD10C,0.150000*%
%TD*%
%TA.AperFunction,Profile*%
%ADD11C,0.120000*%
%TD*%
%TA.AperFunction,Profile*%
%ADD12C,0.100000*%
%TD*%
%ADD13C,0.200000*%
%ADD14C,0.300000*%
G04 APERTURE END LIST*
D10*
X13795000Y-10934236D02*
X13944459Y-11368295D01*
X8102923Y-12802634D02*
G75*
G02*
X12395000Y-9866650I8073115J-7196726D01*
G01*
X15476000Y-11112000D02*
X18110000Y-11112000D01*
X19510000Y-12462000D02*
G75*
G02*
X19460000Y-12512000I-50000J0D01*
G01*
X13944459Y-11368296D02*
G75*
G02*
X15476000Y-11112000I2231579J-8631064D01*
G01*
X16176000Y-12512000D02*
X19460000Y-12512000D01*
X10881874Y-14704798D02*
G75*
G02*
X16176000Y-12512000I5294164J-5294562D01*
G01*
X12395000Y-3586000D02*
X12395000Y-9866650D01*
X13795000Y-10934236D02*
X13795000Y-3586000D01*
X14300000Y-3286000D02*
X14300000Y-9905000D01*
X15700000Y-9905000D02*
X15700000Y-3286000D01*
X16205000Y-3190000D02*
X16205000Y-9907000D01*
X17605000Y-9907000D02*
X17605000Y-3190000D01*
X18110000Y-3294000D02*
X18110000Y-11112000D01*
X19510000Y-12462000D02*
X19510000Y-3294000D01*
X20015000Y-3602000D02*
X20015000Y-11812000D01*
X21415000Y-11812000D02*
X21415000Y-3602000D01*
X21920000Y-5120000D02*
X21920000Y-11812000D01*
X23320000Y-11812000D02*
X23320000Y-5120000D01*
D11*
X7352485Y-12734402D02*
G75*
G02*
X7352485Y-12592980I70711J70711D01*
G01*
D12*
X9510337Y-14892253D02*
G75*
G02*
X9510337Y-15599360I-353553J-353553D01*
G01*
X10217443Y-16306467D02*
G75*
G02*
X9510337Y-15599360I-353553J353553D01*
G01*
X9864130Y-3993217D02*
G75*
G02*
X10161490Y-4290577I0J-297360D01*
G01*
X9864130Y-3993217D02*
G75*
G02*
X9685297Y-3026200I-240J500000D01*
G01*
X22222038Y-13174000D02*
G75*
G02*
X22722038Y-13674000I0J-500000D01*
G01*
X23722038Y-13674000D02*
G75*
G02*
X22722038Y-13674000I-500000J0D01*
G01*
X10161490Y-10169693D02*
G75*
G02*
X10114309Y-10254577I-100000J29D01*
G01*
X10161490Y-4290577D02*
X10161490Y-10169693D01*
X23421413Y-3334354D02*
G75*
G02*
X23722038Y-3792884I-199375J-458530D01*
G01*
X9685297Y-3026200D02*
G75*
G02*
X23421413Y-3334354I6490741J-16973160D01*
G01*
X8061271Y-11884194D02*
G75*
G02*
X10114309Y-10254577I8114767J-8115166D01*
G01*
X7352485Y-12592980D02*
X8061271Y-11884194D01*
X9510337Y-14892253D02*
X7352485Y-12734402D01*
X11350034Y-15173356D02*
X10217443Y-16306467D01*
X11350034Y-15173356D02*
G75*
G02*
X16176038Y-13174360I4826004J-4826004D01*
G01*
X16176038Y-13174360D02*
X22222038Y-13174000D01*
X23722038Y-3792884D02*
X23722038Y-13674000D01*
D13*
D14*
X7603624Y-16923628D02*
X7603624Y-16623628D01*
X7675052Y-16623628D01*
X7717910Y-16637914D01*
X7746481Y-16666485D01*
X7760767Y-16695057D01*
X7775052Y-16752199D01*
X7775052Y-16795057D01*
X7760767Y-16852200D01*
X7746481Y-16880771D01*
X7717910Y-16909342D01*
X7675052Y-16923628D01*
X7603624Y-16923628D01*
X7903624Y-16923628D02*
X7903624Y-16723628D01*
X7903624Y-16780771D02*
X7917910Y-16752199D01*
X7932195Y-16737914D01*
X7960767Y-16723628D01*
X7989338Y-16723628D01*
X8089338Y-16923628D02*
X8089338Y-16723628D01*
X8089338Y-16623628D02*
X8075052Y-16637914D01*
X8089338Y-16652199D01*
X8103624Y-16637914D01*
X8089338Y-16623628D01*
X8089338Y-16652199D01*
X8275052Y-16923628D02*
X8246481Y-16909342D01*
X8232195Y-16880771D01*
X8232195Y-16623628D01*
X8432195Y-16923628D02*
X8403624Y-16909342D01*
X8389338Y-16880771D01*
X8389338Y-16623628D01*
X8775053Y-16923628D02*
X8775053Y-16623628D01*
X8875053Y-16837914D01*
X8975053Y-16623628D01*
X8975053Y-16923628D01*
X9246481Y-16923628D02*
X9246481Y-16766485D01*
X9232195Y-16737914D01*
X9203624Y-16723628D01*
X9146481Y-16723628D01*
X9117910Y-16737914D01*
X9246481Y-16909342D02*
X9217910Y-16923628D01*
X9146481Y-16923628D01*
X9117910Y-16909342D01*
X9103624Y-16880771D01*
X9103624Y-16852200D01*
X9117910Y-16823628D01*
X9146481Y-16809342D01*
X9217910Y-16809342D01*
X9246481Y-16795057D01*
X9389338Y-16723628D02*
X9389338Y-17023628D01*
X9389338Y-16737914D02*
X9417910Y-16723628D01*
X9475053Y-16723628D01*
X9503624Y-16737914D01*
X9517910Y-16752199D01*
X9532195Y-16780771D01*
X9532195Y-16866485D01*
X9517910Y-16895057D01*
X9503624Y-16909342D01*
X9475053Y-16923628D01*
X9417910Y-16923628D01*
X9389338Y-16909342D01*
X9660767Y-16895057D02*
X9675053Y-16909342D01*
X9660767Y-16923628D01*
X9646481Y-16909342D01*
X9660767Y-16895057D01*
X9660767Y-16923628D01*
X9660767Y-16737914D02*
X9675053Y-16752199D01*
X9660767Y-16766485D01*
X9646481Y-16752199D01*
X9660767Y-16737914D01*
X9660767Y-16766485D01*
M02*
