%TF.GenerationSoftware,KiCad,Pcbnew,5.1.12-84ad8e8a86~92~ubuntu20.04.1*%
%TF.CreationDate,2021-11-17T01:01:51+01:00*%
%TF.ProjectId,LergoTopPlate_Alu_Rails,4c657267-6f54-46f7-9050-6c6174655f41,v1.A*%
%TF.SameCoordinates,Original*%
%TF.FileFunction,Copper,L1,Top*%
%TF.FilePolarity,Positive*%
%FSLAX46Y46*%
G04 Gerber Fmt 4.6, Leading zero omitted, Abs format (unit mm)*
G04 Created by KiCad (PCBNEW 5.1.12-84ad8e8a86~92~ubuntu20.04.1) date 2021-11-17 01:01:51*
%MOMM*%
%LPD*%
G01*
G04 APERTURE LIST*
%TA.AperFunction,SMDPad,CuDef*%
%ADD10C,1.000000*%
%TD*%
%TA.AperFunction,NonConductor*%
%ADD11C,0.254000*%
%TD*%
%TA.AperFunction,NonConductor*%
%ADD12C,0.150000*%
%TD*%
G04 APERTURE END LIST*
D10*
X144713995Y-109757730D03*
D11*
X166420503Y-18711548D02*
X171480350Y-18912344D01*
X176532638Y-19254342D01*
X181573464Y-19737281D01*
X186598760Y-20360769D01*
X191604700Y-21124330D01*
X196587416Y-22027377D01*
X201542920Y-23069185D01*
X206467462Y-24248967D01*
X211357086Y-25565776D01*
X216208069Y-27018607D01*
X221016579Y-28606314D01*
X225778876Y-30327660D01*
X230491834Y-32181533D01*
X231961377Y-32801844D01*
X231715416Y-32801844D01*
X230724890Y-32998872D01*
X229791836Y-33385356D01*
X228952109Y-33946443D01*
X228237980Y-34660572D01*
X227676893Y-35500299D01*
X227290409Y-36433353D01*
X227093381Y-37423879D01*
X227093381Y-38433809D01*
X227290409Y-39424335D01*
X227676893Y-40357389D01*
X228237980Y-41197116D01*
X228952109Y-41911245D01*
X229791836Y-42472332D01*
X230724890Y-42858816D01*
X231715416Y-43055844D01*
X232725346Y-43055844D01*
X233715872Y-42858816D01*
X234648926Y-42472332D01*
X235488653Y-41911245D01*
X236202782Y-41197116D01*
X236763869Y-40357389D01*
X236843381Y-40165430D01*
X236843382Y-134503416D01*
X236763869Y-134311455D01*
X236202782Y-133471728D01*
X235488653Y-132757599D01*
X234648926Y-132196512D01*
X233715872Y-131810028D01*
X232725346Y-131613000D01*
X231715416Y-131613000D01*
X230724890Y-131810028D01*
X229791836Y-132196512D01*
X228952109Y-132757599D01*
X228237980Y-133471728D01*
X227676893Y-134311455D01*
X227341287Y-135121678D01*
X227325806Y-135057194D01*
X227322024Y-135045955D01*
X227319557Y-135034349D01*
X227304428Y-134993668D01*
X226947119Y-134179697D01*
X226941404Y-134169301D01*
X226936923Y-134158321D01*
X226914829Y-134120962D01*
X226419026Y-133383128D01*
X226411560Y-133373909D01*
X226405205Y-133363894D01*
X226376845Y-133331039D01*
X225758218Y-132692666D01*
X225749242Y-132684918D01*
X225741210Y-132676183D01*
X225707479Y-132648869D01*
X224985583Y-132130135D01*
X224975379Y-132124100D01*
X224965925Y-132116924D01*
X224927891Y-132096015D01*
X224125544Y-131713315D01*
X224114427Y-131709181D01*
X224103857Y-131703795D01*
X224062721Y-131689952D01*
X223205285Y-131455384D01*
X223193616Y-131453284D01*
X223182255Y-131449854D01*
X223139318Y-131443514D01*
X222255611Y-131364646D01*
X222238877Y-131362999D01*
X161741840Y-131366602D01*
X161738903Y-131366891D01*
X159610675Y-131400324D01*
X159609200Y-131400382D01*
X159607715Y-131400382D01*
X159595881Y-131400847D01*
X156384832Y-131577562D01*
X156381909Y-131577792D01*
X156378922Y-131577933D01*
X156367123Y-131578955D01*
X153167963Y-131906734D01*
X153165024Y-131907105D01*
X153162077Y-131907384D01*
X153150338Y-131908961D01*
X149970170Y-132387078D01*
X149967261Y-132387586D01*
X149964322Y-132388004D01*
X149952671Y-132390132D01*
X146798556Y-133017525D01*
X146795670Y-133018170D01*
X146792757Y-133018726D01*
X146781219Y-133021400D01*
X143660160Y-133796675D01*
X143657300Y-133797457D01*
X143654424Y-133798148D01*
X143643025Y-133801362D01*
X140561951Y-134722800D01*
X140559133Y-134723715D01*
X140556292Y-134724541D01*
X140545057Y-134728289D01*
X137510809Y-135793841D01*
X137508040Y-135794887D01*
X137505237Y-135795847D01*
X137494191Y-135800120D01*
X134513505Y-137007422D01*
X134510791Y-137008596D01*
X134508034Y-137009688D01*
X134497202Y-137014477D01*
X131576698Y-138360848D01*
X131574051Y-138362145D01*
X131571340Y-138363369D01*
X131560746Y-138368663D01*
X128706906Y-139851114D01*
X128704318Y-139852537D01*
X128701672Y-139853885D01*
X128691339Y-139859672D01*
X125910500Y-141474912D01*
X125907966Y-141476465D01*
X125905403Y-141477927D01*
X125895353Y-141484194D01*
X123193690Y-143228636D01*
X123191255Y-143230291D01*
X123188740Y-143231887D01*
X123178997Y-143238621D01*
X120562507Y-145108392D01*
X120560157Y-145110157D01*
X120557716Y-145111872D01*
X120548301Y-145119058D01*
X118022796Y-147110007D01*
X118020528Y-147111883D01*
X118018174Y-147113709D01*
X118009108Y-147121330D01*
X115580191Y-149229037D01*
X115578005Y-149231026D01*
X115575749Y-149232953D01*
X115567052Y-149240992D01*
X113250259Y-151451102D01*
X113246794Y-151453947D01*
X103489872Y-161215347D01*
X103568871Y-161024628D01*
X103765899Y-160034102D01*
X103765899Y-159024172D01*
X103568871Y-158033646D01*
X103182387Y-157100592D01*
X102621300Y-156260865D01*
X101907171Y-155546736D01*
X101067444Y-154985649D01*
X100134390Y-154599165D01*
X99143864Y-154402137D01*
X98133934Y-154402137D01*
X97143408Y-154599165D01*
X96333185Y-154934771D01*
X96367835Y-154878227D01*
X96373107Y-154867607D01*
X96379570Y-154857655D01*
X96397638Y-154818191D01*
X96720548Y-153989971D01*
X96723858Y-153978578D01*
X96728454Y-153967645D01*
X96739239Y-153925636D01*
X96739248Y-153925606D01*
X96739249Y-153925595D01*
X96910388Y-153053291D01*
X96911628Y-153041499D01*
X96914216Y-153029919D01*
X96917392Y-152986661D01*
X96917395Y-152986632D01*
X96917394Y-152986621D01*
X96921180Y-152745599D01*
X105518463Y-152745599D01*
X105518463Y-153026693D01*
X105573301Y-153302387D01*
X105680872Y-153562084D01*
X105837039Y-153795806D01*
X106035803Y-153994570D01*
X106269525Y-154150737D01*
X106529222Y-154258308D01*
X106804916Y-154313146D01*
X107086010Y-154313146D01*
X107361704Y-154258308D01*
X107621401Y-154150737D01*
X107855123Y-153994570D01*
X108053887Y-153795806D01*
X108210054Y-153562084D01*
X108317625Y-153302387D01*
X108372463Y-153026693D01*
X108372463Y-152745599D01*
X108317625Y-152469905D01*
X108210054Y-152210208D01*
X108053887Y-151976486D01*
X107855123Y-151777722D01*
X107621401Y-151621555D01*
X107361704Y-151513984D01*
X107086010Y-151459146D01*
X106804916Y-151459146D01*
X106529222Y-151513984D01*
X106269525Y-151621555D01*
X106035803Y-151777722D01*
X105837039Y-151976486D01*
X105680872Y-152210208D01*
X105573301Y-152469905D01*
X105518463Y-152745599D01*
X96921180Y-152745599D01*
X96931357Y-152097799D01*
X96930489Y-152085975D01*
X96930986Y-152074119D01*
X96926449Y-152030954D01*
X96782792Y-151153695D01*
X96779841Y-151142203D01*
X96778232Y-151130454D01*
X96766123Y-151088775D01*
X96469388Y-150250820D01*
X96464451Y-150240037D01*
X96460785Y-150228753D01*
X96441486Y-150189877D01*
X96001051Y-149417713D01*
X95994284Y-149407977D01*
X95988677Y-149397519D01*
X95962809Y-149362690D01*
X95962798Y-149362674D01*
X95962793Y-149362669D01*
X95393694Y-148682034D01*
X95383038Y-148669050D01*
X75261991Y-128548003D01*
X80295980Y-128548003D01*
X80295980Y-128710907D01*
X80327762Y-128870682D01*
X80390103Y-129021186D01*
X80480608Y-129156636D01*
X80595799Y-129271827D01*
X80611287Y-129282176D01*
X80613631Y-129285785D01*
X80617162Y-129290145D01*
X80617165Y-129290149D01*
X80617169Y-129290153D01*
X80716266Y-129410797D01*
X80716279Y-129410810D01*
X80728685Y-129425927D01*
X91887446Y-140584687D01*
X103034626Y-151731869D01*
X103048103Y-151742929D01*
X103051558Y-151746433D01*
X103055896Y-151749996D01*
X103177233Y-151848254D01*
X103201503Y-151864257D01*
X103228233Y-151904261D01*
X103343424Y-152019452D01*
X103478874Y-152109957D01*
X103629378Y-152172298D01*
X103789153Y-152204080D01*
X103952057Y-152204080D01*
X104111832Y-152172298D01*
X104262336Y-152109957D01*
X104397786Y-152019452D01*
X104512977Y-151904261D01*
X104539676Y-151864303D01*
X104566441Y-151846922D01*
X104570801Y-151843391D01*
X104570805Y-151843388D01*
X104570809Y-151843384D01*
X104691453Y-151744287D01*
X104691456Y-151744284D01*
X104706584Y-151731869D01*
X109118573Y-147319881D01*
X109127632Y-147308842D01*
X111503969Y-145038135D01*
X113225927Y-145038135D01*
X113225927Y-145319229D01*
X113280765Y-145594923D01*
X113388336Y-145854620D01*
X113544503Y-146088342D01*
X113743267Y-146287106D01*
X113976989Y-146443273D01*
X114236686Y-146550844D01*
X114512380Y-146605682D01*
X114793474Y-146605682D01*
X115069168Y-146550844D01*
X115328865Y-146443273D01*
X115562587Y-146287106D01*
X115761351Y-146088342D01*
X115917518Y-145854620D01*
X116025089Y-145594923D01*
X116079927Y-145319229D01*
X116079927Y-145038135D01*
X116025089Y-144762441D01*
X115917518Y-144502744D01*
X115761351Y-144269022D01*
X115562587Y-144070258D01*
X115328865Y-143914091D01*
X115069168Y-143806520D01*
X114793474Y-143751682D01*
X114512380Y-143751682D01*
X114236686Y-143806520D01*
X113976989Y-143914091D01*
X113743267Y-144070258D01*
X113544503Y-144269022D01*
X113388336Y-144502744D01*
X113280765Y-144762441D01*
X113225927Y-145038135D01*
X111503969Y-145038135D01*
X111546152Y-144997828D01*
X114092607Y-142776583D01*
X116737213Y-140673132D01*
X117441155Y-140163603D01*
X119578544Y-140163603D01*
X119578544Y-140444697D01*
X119633382Y-140720391D01*
X119740953Y-140980088D01*
X119897120Y-141213810D01*
X120095884Y-141412574D01*
X120329606Y-141568741D01*
X120589303Y-141676312D01*
X120864997Y-141731150D01*
X121146091Y-141731150D01*
X121421785Y-141676312D01*
X121681482Y-141568741D01*
X121915204Y-141412574D01*
X122113968Y-141213810D01*
X122270135Y-140980088D01*
X122377706Y-140720391D01*
X122432544Y-140444697D01*
X122432544Y-140163603D01*
X122377706Y-139887909D01*
X122270135Y-139628212D01*
X122113968Y-139394490D01*
X121915204Y-139195726D01*
X121681482Y-139039559D01*
X121421785Y-138931988D01*
X121146091Y-138877150D01*
X120864997Y-138877150D01*
X120589303Y-138931988D01*
X120329606Y-139039559D01*
X120095884Y-139195726D01*
X119897120Y-139394490D01*
X119740953Y-139628212D01*
X119633382Y-139887909D01*
X119578544Y-140163603D01*
X117441155Y-140163603D01*
X119474506Y-138691819D01*
X122298882Y-136836702D01*
X125204484Y-135111629D01*
X125949988Y-134713603D01*
X129018220Y-134713603D01*
X129018220Y-134994697D01*
X129073058Y-135270391D01*
X129180629Y-135530088D01*
X129336796Y-135763810D01*
X129535560Y-135962574D01*
X129769282Y-136118741D01*
X130028979Y-136226312D01*
X130304673Y-136281150D01*
X130585767Y-136281150D01*
X130861461Y-136226312D01*
X131121158Y-136118741D01*
X131354880Y-135962574D01*
X131553644Y-135763810D01*
X131709811Y-135530088D01*
X131817382Y-135270391D01*
X131872220Y-134994697D01*
X131872220Y-134713603D01*
X131817382Y-134437909D01*
X131709811Y-134178212D01*
X131553644Y-133944490D01*
X131354880Y-133745726D01*
X131121158Y-133589559D01*
X130861461Y-133481988D01*
X130585767Y-133427150D01*
X130304673Y-133427150D01*
X130028979Y-133481988D01*
X129769282Y-133589559D01*
X129535560Y-133745726D01*
X129336796Y-133944490D01*
X129180629Y-134178212D01*
X129073058Y-134437909D01*
X129018220Y-134713603D01*
X125949988Y-134713603D01*
X128185356Y-133520137D01*
X131235359Y-132065500D01*
X133090169Y-131282080D01*
X137490245Y-131282080D01*
X137490245Y-131563174D01*
X137545083Y-131838868D01*
X137652654Y-132098565D01*
X137808821Y-132332287D01*
X138007585Y-132531051D01*
X138241307Y-132687218D01*
X138501004Y-132794789D01*
X138776698Y-132849627D01*
X139057792Y-132849627D01*
X139333486Y-132794789D01*
X139593183Y-132687218D01*
X139826905Y-132531051D01*
X140025669Y-132332287D01*
X140181836Y-132098565D01*
X140289407Y-131838868D01*
X140344245Y-131563174D01*
X140344245Y-131282080D01*
X140289407Y-131006386D01*
X140181836Y-130746689D01*
X140025669Y-130512967D01*
X139826905Y-130314203D01*
X139593183Y-130158036D01*
X139333486Y-130050465D01*
X139057792Y-129995627D01*
X138776698Y-129995627D01*
X138501004Y-130050465D01*
X138241307Y-130158036D01*
X138007585Y-130314203D01*
X137808821Y-130512967D01*
X137652654Y-130746689D01*
X137545083Y-131006386D01*
X137490245Y-131282080D01*
X133090169Y-131282080D01*
X134348186Y-130750729D01*
X137517462Y-129578513D01*
X140500348Y-128626676D01*
X148061850Y-128626676D01*
X148061850Y-128907770D01*
X148116688Y-129183464D01*
X148224259Y-129443161D01*
X148380426Y-129676883D01*
X148579190Y-129875647D01*
X148812912Y-130031814D01*
X149072609Y-130139385D01*
X149348303Y-130194223D01*
X149629397Y-130194223D01*
X149905091Y-130139385D01*
X150164788Y-130031814D01*
X150398510Y-129875647D01*
X150597274Y-129676883D01*
X150753441Y-129443161D01*
X150861012Y-129183464D01*
X150915850Y-128907770D01*
X150915850Y-128626676D01*
X150861012Y-128350982D01*
X150753441Y-128091285D01*
X150597274Y-127857563D01*
X150398510Y-127658799D01*
X150164788Y-127502632D01*
X149905091Y-127395061D01*
X149629397Y-127340223D01*
X149348303Y-127340223D01*
X149072609Y-127395061D01*
X148812912Y-127502632D01*
X148579190Y-127658799D01*
X148380426Y-127857563D01*
X148224259Y-128091285D01*
X148116688Y-128350982D01*
X148061850Y-128626676D01*
X140500348Y-128626676D01*
X140736689Y-128551260D01*
X143999165Y-127671108D01*
X147298191Y-126939862D01*
X150627053Y-126359011D01*
X153978799Y-125929772D01*
X157346526Y-125653022D01*
X160726583Y-125529208D01*
X161761365Y-125522001D01*
X194619747Y-125521999D01*
X194636869Y-125520313D01*
X194639924Y-125520334D01*
X194645511Y-125519786D01*
X194742559Y-125509586D01*
X194778245Y-125502261D01*
X194814040Y-125495433D01*
X194819413Y-125493810D01*
X194840363Y-125487325D01*
X194901227Y-125475218D01*
X195051731Y-125412877D01*
X195187181Y-125322372D01*
X195302372Y-125207181D01*
X195392877Y-125071731D01*
X195455218Y-124921227D01*
X195467659Y-124858682D01*
X195475320Y-124833309D01*
X195482397Y-124797568D01*
X195489973Y-124761926D01*
X195490560Y-124756344D01*
X195500082Y-124659226D01*
X195500082Y-124659220D01*
X195502000Y-124639747D01*
X195502000Y-29800254D01*
X199748000Y-29800254D01*
X199748001Y-36000244D01*
X199748000Y-36000254D01*
X199748001Y-118100244D01*
X199748000Y-118100254D01*
X199748001Y-124339747D01*
X199749708Y-124357073D01*
X199749673Y-124362021D01*
X199750221Y-124367607D01*
X199766542Y-124522884D01*
X199772387Y-124551357D01*
X199763000Y-124598548D01*
X199763000Y-124761452D01*
X199794782Y-124921227D01*
X199857123Y-125071731D01*
X199947628Y-125207181D01*
X200062819Y-125322372D01*
X200198269Y-125412877D01*
X200348773Y-125475218D01*
X200508548Y-125507000D01*
X200671452Y-125507000D01*
X200718588Y-125497624D01*
X200749802Y-125504259D01*
X200755378Y-125504844D01*
X200755386Y-125504846D01*
X200755394Y-125504846D01*
X200910487Y-125520053D01*
X200930253Y-125522000D01*
X213369747Y-125522000D01*
X213387083Y-125520293D01*
X213392021Y-125520327D01*
X213397607Y-125519779D01*
X213552884Y-125503458D01*
X213581357Y-125497613D01*
X213628548Y-125507000D01*
X213791452Y-125507000D01*
X213951227Y-125475218D01*
X214101731Y-125412877D01*
X214237181Y-125322372D01*
X214352372Y-125207181D01*
X214442877Y-125071731D01*
X214505218Y-124921227D01*
X214537000Y-124761452D01*
X214537000Y-124598548D01*
X214527624Y-124551412D01*
X214534259Y-124520198D01*
X214534844Y-124514622D01*
X214534846Y-124514614D01*
X214534846Y-124514606D01*
X214550081Y-124359229D01*
X214552000Y-124339747D01*
X214552000Y-44980254D01*
X218798000Y-44980254D01*
X218798001Y-51180244D01*
X218798000Y-51180254D01*
X218798001Y-118100244D01*
X218798000Y-118100254D01*
X218798001Y-124339747D01*
X218799708Y-124357073D01*
X218799673Y-124362021D01*
X218800221Y-124367607D01*
X218816542Y-124522884D01*
X218822387Y-124551357D01*
X218813000Y-124598548D01*
X218813000Y-124761452D01*
X218844782Y-124921227D01*
X218907123Y-125071731D01*
X218997628Y-125207181D01*
X219112819Y-125322372D01*
X219248269Y-125412877D01*
X219398773Y-125475218D01*
X219558548Y-125507000D01*
X219721452Y-125507000D01*
X219768588Y-125497624D01*
X219799802Y-125504259D01*
X219805378Y-125504844D01*
X219805386Y-125504846D01*
X219805394Y-125504846D01*
X219960487Y-125520053D01*
X219980253Y-125522000D01*
X232419747Y-125522000D01*
X232437083Y-125520293D01*
X232442021Y-125520327D01*
X232447607Y-125519779D01*
X232602884Y-125503458D01*
X232631357Y-125497613D01*
X232678548Y-125507000D01*
X232841452Y-125507000D01*
X233001227Y-125475218D01*
X233151731Y-125412877D01*
X233287181Y-125322372D01*
X233402372Y-125207181D01*
X233492877Y-125071731D01*
X233555218Y-124921227D01*
X233587000Y-124761452D01*
X233587000Y-124598548D01*
X233577624Y-124551412D01*
X233584259Y-124520198D01*
X233584844Y-124514622D01*
X233584846Y-124514614D01*
X233584846Y-124514606D01*
X233600081Y-124359229D01*
X233602000Y-124339747D01*
X233602000Y-44980253D01*
X233600293Y-44962917D01*
X233600327Y-44957979D01*
X233599779Y-44952392D01*
X233583458Y-44797116D01*
X233577613Y-44768643D01*
X233587000Y-44721452D01*
X233587000Y-44558548D01*
X233555218Y-44398773D01*
X233492877Y-44248269D01*
X233402372Y-44112819D01*
X233287181Y-43997628D01*
X233151731Y-43907123D01*
X233001227Y-43844782D01*
X232841452Y-43813000D01*
X232678548Y-43813000D01*
X232631412Y-43822376D01*
X232600198Y-43815741D01*
X232594616Y-43815155D01*
X232439513Y-43799947D01*
X232419747Y-43798000D01*
X219980253Y-43798000D01*
X219962917Y-43799707D01*
X219957979Y-43799673D01*
X219952392Y-43800221D01*
X219797116Y-43816542D01*
X219768643Y-43822387D01*
X219721452Y-43813000D01*
X219558548Y-43813000D01*
X219398773Y-43844782D01*
X219248269Y-43907123D01*
X219112819Y-43997628D01*
X218997628Y-44112819D01*
X218907123Y-44248269D01*
X218844782Y-44398773D01*
X218813000Y-44558548D01*
X218813000Y-44721452D01*
X218822376Y-44768588D01*
X218815741Y-44799802D01*
X218815155Y-44805384D01*
X218799925Y-44960709D01*
X218798000Y-44980254D01*
X214552000Y-44980254D01*
X214552000Y-37942880D01*
X222191750Y-37942880D01*
X222191750Y-38263370D01*
X222254275Y-38577703D01*
X222376922Y-38873798D01*
X222554977Y-39140277D01*
X222781598Y-39366898D01*
X223048077Y-39544953D01*
X223344172Y-39667600D01*
X223658505Y-39730125D01*
X223978995Y-39730125D01*
X224293328Y-39667600D01*
X224589423Y-39544953D01*
X224855902Y-39366898D01*
X225082523Y-39140277D01*
X225260578Y-38873798D01*
X225383225Y-38577703D01*
X225445750Y-38263370D01*
X225445750Y-37942880D01*
X225383225Y-37628547D01*
X225260578Y-37332452D01*
X225082523Y-37065973D01*
X224855902Y-36839352D01*
X224589423Y-36661297D01*
X224293328Y-36538650D01*
X223978995Y-36476125D01*
X223658505Y-36476125D01*
X223344172Y-36538650D01*
X223048077Y-36661297D01*
X222781598Y-36839352D01*
X222554977Y-37065973D01*
X222376922Y-37332452D01*
X222254275Y-37628547D01*
X222191750Y-37942880D01*
X214552000Y-37942880D01*
X214552000Y-35566554D01*
X219860500Y-35566554D01*
X219860500Y-35877196D01*
X219921104Y-36181869D01*
X220039981Y-36468864D01*
X220212564Y-36727154D01*
X220432221Y-36946811D01*
X220690511Y-37119394D01*
X220977506Y-37238271D01*
X221282179Y-37298875D01*
X221592821Y-37298875D01*
X221897494Y-37238271D01*
X222184489Y-37119394D01*
X222442779Y-36946811D01*
X222662436Y-36727154D01*
X222835019Y-36468864D01*
X222953896Y-36181869D01*
X223014500Y-35877196D01*
X223014500Y-35566554D01*
X222953896Y-35261881D01*
X222835019Y-34974886D01*
X222662436Y-34716596D01*
X222442779Y-34496939D01*
X222184489Y-34324356D01*
X221897494Y-34205479D01*
X221592821Y-34144875D01*
X221282179Y-34144875D01*
X220977506Y-34205479D01*
X220690511Y-34324356D01*
X220432221Y-34496939D01*
X220212564Y-34716596D01*
X220039981Y-34974886D01*
X219921104Y-35261881D01*
X219860500Y-35566554D01*
X214552000Y-35566554D01*
X214552000Y-33180380D01*
X217429250Y-33180380D01*
X217429250Y-33500870D01*
X217491775Y-33815203D01*
X217614422Y-34111298D01*
X217792477Y-34377777D01*
X218019098Y-34604398D01*
X218285577Y-34782453D01*
X218581672Y-34905100D01*
X218896005Y-34967625D01*
X219216495Y-34967625D01*
X219530828Y-34905100D01*
X219826923Y-34782453D01*
X220093402Y-34604398D01*
X220320023Y-34377777D01*
X220498078Y-34111298D01*
X220620725Y-33815203D01*
X220683250Y-33500870D01*
X220683250Y-33180380D01*
X220620725Y-32866047D01*
X220498078Y-32569952D01*
X220320023Y-32303473D01*
X220093402Y-32076852D01*
X219826923Y-31898797D01*
X219530828Y-31776150D01*
X219216495Y-31713625D01*
X218896005Y-31713625D01*
X218581672Y-31776150D01*
X218285577Y-31898797D01*
X218019098Y-32076852D01*
X217792477Y-32303473D01*
X217614422Y-32569952D01*
X217491775Y-32866047D01*
X217429250Y-33180380D01*
X214552000Y-33180380D01*
X214552000Y-29800253D01*
X214550293Y-29782917D01*
X214550327Y-29777979D01*
X214549779Y-29772392D01*
X214533458Y-29617116D01*
X214527613Y-29588643D01*
X214537000Y-29541452D01*
X214537000Y-29378548D01*
X214505218Y-29218773D01*
X214442877Y-29068269D01*
X214352372Y-28932819D01*
X214237181Y-28817628D01*
X214101731Y-28727123D01*
X213951227Y-28664782D01*
X213791452Y-28633000D01*
X213628548Y-28633000D01*
X213581412Y-28642376D01*
X213550198Y-28635741D01*
X213544616Y-28635155D01*
X213389513Y-28619947D01*
X213369747Y-28618000D01*
X200930253Y-28618000D01*
X200912917Y-28619707D01*
X200907979Y-28619673D01*
X200902392Y-28620221D01*
X200747116Y-28636542D01*
X200718643Y-28642387D01*
X200671452Y-28633000D01*
X200508548Y-28633000D01*
X200348773Y-28664782D01*
X200198269Y-28727123D01*
X200062819Y-28817628D01*
X199947628Y-28932819D01*
X199857123Y-29068269D01*
X199794782Y-29218773D01*
X199763000Y-29378548D01*
X199763000Y-29541452D01*
X199772376Y-29588588D01*
X199765741Y-29619802D01*
X199765155Y-29625384D01*
X199749925Y-29780709D01*
X199748000Y-29800254D01*
X195502000Y-29800254D01*
X195502000Y-26720253D01*
X195500293Y-26702917D01*
X195500327Y-26697979D01*
X195499779Y-26692392D01*
X195483458Y-26537116D01*
X195477613Y-26508643D01*
X195487000Y-26461452D01*
X195487000Y-26298548D01*
X195455218Y-26138773D01*
X195392877Y-25988269D01*
X195302372Y-25852819D01*
X195187181Y-25737628D01*
X195051731Y-25647123D01*
X194901227Y-25584782D01*
X194741452Y-25553000D01*
X194578548Y-25553000D01*
X194531412Y-25562376D01*
X194500198Y-25555741D01*
X194494616Y-25555155D01*
X194339513Y-25539947D01*
X194319747Y-25538000D01*
X181880253Y-25538000D01*
X181862917Y-25539707D01*
X181857979Y-25539673D01*
X181852392Y-25540221D01*
X181697116Y-25556542D01*
X181668643Y-25562387D01*
X181621452Y-25553000D01*
X181458548Y-25553000D01*
X181298773Y-25584782D01*
X181148269Y-25647123D01*
X181012819Y-25737628D01*
X180897628Y-25852819D01*
X180807123Y-25988269D01*
X180744782Y-26138773D01*
X180713000Y-26298548D01*
X180713000Y-26461452D01*
X180722376Y-26508588D01*
X180715741Y-26539802D01*
X180715155Y-26545384D01*
X180699925Y-26700709D01*
X180698000Y-26720254D01*
X180698001Y-32920244D01*
X180698000Y-32920254D01*
X180698001Y-110718000D01*
X176667806Y-110718000D01*
X177028630Y-110568542D01*
X177393380Y-110324824D01*
X177703574Y-110014630D01*
X177947292Y-109649880D01*
X178115168Y-109244592D01*
X178200750Y-108814340D01*
X178200750Y-108375660D01*
X178115168Y-107945408D01*
X177947292Y-107540120D01*
X177703574Y-107175370D01*
X177393380Y-106865176D01*
X177028630Y-106621458D01*
X176623342Y-106453582D01*
X176193090Y-106368000D01*
X175989363Y-106368000D01*
X176001731Y-106362877D01*
X176137181Y-106272372D01*
X176252372Y-106157181D01*
X176342877Y-106021731D01*
X176405218Y-105871227D01*
X176437000Y-105711452D01*
X176437000Y-105548548D01*
X176427624Y-105501412D01*
X176434259Y-105470198D01*
X176434844Y-105464622D01*
X176434846Y-105464614D01*
X176434846Y-105464606D01*
X176450081Y-105309229D01*
X176452000Y-105289747D01*
X176452000Y-25680253D01*
X176450293Y-25662917D01*
X176450327Y-25657979D01*
X176449779Y-25652392D01*
X176433458Y-25497116D01*
X176427613Y-25468643D01*
X176437000Y-25421452D01*
X176437000Y-25258548D01*
X176405218Y-25098773D01*
X176342877Y-24948269D01*
X176252372Y-24812819D01*
X176137181Y-24697628D01*
X176001731Y-24607123D01*
X175851227Y-24544782D01*
X175691452Y-24513000D01*
X175528548Y-24513000D01*
X175481412Y-24522376D01*
X175450198Y-24515741D01*
X175444616Y-24515155D01*
X175289513Y-24499947D01*
X175269747Y-24498000D01*
X162830253Y-24498000D01*
X162812917Y-24499707D01*
X162807979Y-24499673D01*
X162802392Y-24500221D01*
X162647116Y-24516542D01*
X162618643Y-24522387D01*
X162571452Y-24513000D01*
X162408548Y-24513000D01*
X162248773Y-24544782D01*
X162098269Y-24607123D01*
X161962819Y-24697628D01*
X161847628Y-24812819D01*
X161757123Y-24948269D01*
X161694782Y-25098773D01*
X161663000Y-25258548D01*
X161663000Y-25421452D01*
X161672376Y-25468588D01*
X161665741Y-25499802D01*
X161665155Y-25505384D01*
X161649925Y-25660709D01*
X161648000Y-25680254D01*
X161648001Y-31880244D01*
X161648000Y-31880254D01*
X161648001Y-99050244D01*
X161648000Y-99050254D01*
X161648001Y-105289747D01*
X161649708Y-105307073D01*
X161649673Y-105312021D01*
X161650221Y-105317607D01*
X161666542Y-105472884D01*
X161672387Y-105501357D01*
X161663000Y-105548548D01*
X161663000Y-105711452D01*
X161694782Y-105871227D01*
X161757123Y-106021731D01*
X161847628Y-106157181D01*
X161962819Y-106272372D01*
X162098269Y-106362877D01*
X162248773Y-106425218D01*
X162408548Y-106457000D01*
X162571452Y-106457000D01*
X162618588Y-106447624D01*
X162649802Y-106454259D01*
X162655378Y-106454844D01*
X162655386Y-106454846D01*
X162655394Y-106454846D01*
X162810487Y-106470053D01*
X162830253Y-106472000D01*
X175269747Y-106472000D01*
X175282796Y-106470715D01*
X174918870Y-106621458D01*
X174554120Y-106865176D01*
X174243926Y-107175370D01*
X174000208Y-107540120D01*
X173832332Y-107945408D01*
X173746750Y-108375660D01*
X173746750Y-108814340D01*
X173832332Y-109244592D01*
X174000208Y-109649880D01*
X174243926Y-110014630D01*
X174554120Y-110324824D01*
X174918870Y-110568542D01*
X175279694Y-110718000D01*
X157565380Y-110718002D01*
X157573342Y-110716418D01*
X157978630Y-110548542D01*
X158343380Y-110304824D01*
X158653574Y-109994630D01*
X158897292Y-109629880D01*
X159065168Y-109224592D01*
X159150750Y-108794340D01*
X159150750Y-108355660D01*
X159065168Y-107925408D01*
X158897292Y-107520120D01*
X158653574Y-107155370D01*
X158343380Y-106845176D01*
X157978630Y-106601458D01*
X157573342Y-106433582D01*
X157143090Y-106348000D01*
X156939363Y-106348000D01*
X156951731Y-106342877D01*
X157087181Y-106252372D01*
X157202372Y-106137181D01*
X157292877Y-106001731D01*
X157355218Y-105851227D01*
X157387000Y-105691452D01*
X157387000Y-105528548D01*
X157377624Y-105481412D01*
X157384259Y-105450198D01*
X157384844Y-105444622D01*
X157384846Y-105444614D01*
X157384846Y-105444606D01*
X157400081Y-105289229D01*
X157402000Y-105269747D01*
X157402000Y-26640253D01*
X157400293Y-26622917D01*
X157400327Y-26617979D01*
X157399779Y-26612392D01*
X157383458Y-26457116D01*
X157377613Y-26428643D01*
X157387000Y-26381452D01*
X157387000Y-26218548D01*
X157355218Y-26058773D01*
X157292877Y-25908269D01*
X157202372Y-25772819D01*
X157087181Y-25657628D01*
X156951731Y-25567123D01*
X156801227Y-25504782D01*
X156641452Y-25473000D01*
X156478548Y-25473000D01*
X156431412Y-25482376D01*
X156400198Y-25475741D01*
X156394616Y-25475155D01*
X156239513Y-25459947D01*
X156219747Y-25458000D01*
X143780253Y-25458000D01*
X143762917Y-25459707D01*
X143757979Y-25459673D01*
X143752392Y-25460221D01*
X143597116Y-25476542D01*
X143568643Y-25482387D01*
X143521452Y-25473000D01*
X143358548Y-25473000D01*
X143198773Y-25504782D01*
X143048269Y-25567123D01*
X142912819Y-25657628D01*
X142797628Y-25772819D01*
X142707123Y-25908269D01*
X142644782Y-26058773D01*
X142613000Y-26218548D01*
X142613000Y-26381452D01*
X142622376Y-26428587D01*
X142615741Y-26459802D01*
X142615155Y-26465384D01*
X142599956Y-26620393D01*
X142598000Y-26640254D01*
X142598001Y-32840244D01*
X142598000Y-32840254D01*
X142598001Y-99030244D01*
X142598000Y-99030254D01*
X142598001Y-105269747D01*
X142599708Y-105287073D01*
X142599673Y-105292021D01*
X142600221Y-105297607D01*
X142616542Y-105452884D01*
X142622387Y-105481357D01*
X142613000Y-105528548D01*
X142613000Y-105691452D01*
X142644782Y-105851227D01*
X142707123Y-106001731D01*
X142797628Y-106137181D01*
X142912819Y-106252372D01*
X143048269Y-106342877D01*
X143198773Y-106405218D01*
X143358548Y-106437000D01*
X143521452Y-106437000D01*
X143568588Y-106427624D01*
X143599802Y-106434259D01*
X143605378Y-106434844D01*
X143605386Y-106434846D01*
X143605394Y-106434846D01*
X143760487Y-106450053D01*
X143780253Y-106452000D01*
X156219747Y-106452000D01*
X156232796Y-106450715D01*
X155868870Y-106601458D01*
X155504120Y-106845176D01*
X155193926Y-107155370D01*
X154950208Y-107520120D01*
X154782332Y-107925408D01*
X154696750Y-108355660D01*
X154696750Y-108794340D01*
X154782332Y-109224592D01*
X154950208Y-109629880D01*
X155193926Y-109994630D01*
X155504120Y-110304824D01*
X155868870Y-110548542D01*
X156274158Y-110716418D01*
X156282121Y-110718002D01*
X154740254Y-110718002D01*
X154723894Y-110719613D01*
X154118075Y-110769422D01*
X154113181Y-110769928D01*
X154108322Y-110770344D01*
X150395453Y-111166905D01*
X150380291Y-111168846D01*
X150378752Y-111169043D01*
X146685746Y-111720734D01*
X146669149Y-111723570D01*
X145875169Y-111876416D01*
X146213074Y-111650635D01*
X146523268Y-111340441D01*
X146766986Y-110975691D01*
X146934862Y-110570403D01*
X147020444Y-110140151D01*
X147020444Y-109701471D01*
X146934862Y-109271219D01*
X146766986Y-108865931D01*
X146523268Y-108501181D01*
X146213074Y-108190987D01*
X145848324Y-107947269D01*
X145443036Y-107779393D01*
X145012784Y-107693811D01*
X144574104Y-107693811D01*
X144143852Y-107779393D01*
X143738564Y-107947269D01*
X143373814Y-108190987D01*
X143063620Y-108501181D01*
X142819902Y-108865931D01*
X142652026Y-109271219D01*
X142566444Y-109701471D01*
X142566444Y-110140151D01*
X142652026Y-110570403D01*
X142819902Y-110975691D01*
X143063620Y-111340441D01*
X143373814Y-111650635D01*
X143738564Y-111894353D01*
X144143852Y-112062229D01*
X144520626Y-112137174D01*
X143002485Y-112429425D01*
X142986021Y-112432953D01*
X139706228Y-113208050D01*
X138352000Y-109275088D01*
X138352000Y-29640253D01*
X138350293Y-29622917D01*
X138350327Y-29617979D01*
X138349779Y-29612392D01*
X138333458Y-29457116D01*
X138327613Y-29428643D01*
X138337000Y-29381452D01*
X138337000Y-29218548D01*
X138305218Y-29058773D01*
X138242877Y-28908269D01*
X138152372Y-28772819D01*
X138037181Y-28657628D01*
X137901731Y-28567123D01*
X137751227Y-28504782D01*
X137591452Y-28473000D01*
X137428548Y-28473000D01*
X137381412Y-28482376D01*
X137350198Y-28475741D01*
X137344616Y-28475155D01*
X137189513Y-28459947D01*
X137169747Y-28458000D01*
X124730253Y-28458000D01*
X124712917Y-28459707D01*
X124707979Y-28459673D01*
X124702392Y-28460221D01*
X124547116Y-28476542D01*
X124518643Y-28482387D01*
X124471452Y-28473000D01*
X124308548Y-28473000D01*
X124148773Y-28504782D01*
X123998269Y-28567123D01*
X123862819Y-28657628D01*
X123747628Y-28772819D01*
X123657123Y-28908269D01*
X123594782Y-29058773D01*
X123563000Y-29218548D01*
X123563000Y-29381452D01*
X123572376Y-29428588D01*
X123565741Y-29459802D01*
X123565155Y-29465384D01*
X123550014Y-29619802D01*
X123548000Y-29640254D01*
X123548001Y-35840244D01*
X123548000Y-35840254D01*
X123548001Y-98391115D01*
X121302515Y-99260907D01*
X121302491Y-99260917D01*
X121302444Y-99260934D01*
X121290742Y-99265683D01*
X117467939Y-100887169D01*
X117466658Y-100887742D01*
X117465359Y-100888274D01*
X117453848Y-100893468D01*
X113696107Y-102660509D01*
X113694857Y-102661126D01*
X113693571Y-102661712D01*
X113682268Y-102667344D01*
X109995130Y-104577334D01*
X109993905Y-104577999D01*
X109992643Y-104578633D01*
X109981564Y-104584695D01*
X106370465Y-106634818D01*
X106369262Y-106635532D01*
X106368029Y-106636212D01*
X106357191Y-106642695D01*
X102827452Y-108829929D01*
X102826292Y-108830679D01*
X102825071Y-108831415D01*
X102814491Y-108838309D01*
X99371318Y-111159430D01*
X99370172Y-111160235D01*
X99368996Y-111161007D01*
X99358820Y-111168208D01*
X99358687Y-111168302D01*
X99358663Y-111168321D01*
X96007155Y-113619888D01*
X96006044Y-113620734D01*
X96004895Y-113621553D01*
X95994874Y-113629238D01*
X92739922Y-116207675D01*
X92738847Y-116208561D01*
X92737728Y-116209425D01*
X92728176Y-116217352D01*
X92728010Y-116217489D01*
X92727980Y-116217515D01*
X89574438Y-118918977D01*
X89573409Y-118919893D01*
X89572312Y-118920810D01*
X89562911Y-118929241D01*
X86515368Y-121749795D01*
X86514361Y-121750764D01*
X86513315Y-121751708D01*
X86504525Y-121760223D01*
X86504243Y-121760494D01*
X86504192Y-121760547D01*
X83567221Y-124695959D01*
X83566259Y-124696958D01*
X83565243Y-124697949D01*
X83556516Y-124707077D01*
X80759753Y-127725700D01*
X80745625Y-127737060D01*
X80741642Y-127741015D01*
X80737707Y-127744979D01*
X80726620Y-127758575D01*
X80714120Y-127770901D01*
X80710558Y-127775239D01*
X80612300Y-127896577D01*
X80592250Y-127926984D01*
X80571763Y-127957130D01*
X80569110Y-127962077D01*
X80511458Y-128071424D01*
X80480608Y-128102274D01*
X80390103Y-128237724D01*
X80327762Y-128388228D01*
X80295980Y-128548003D01*
X75261991Y-128548003D01*
X73847175Y-127133187D01*
X73827296Y-127102576D01*
X73823896Y-127098377D01*
X73724105Y-126976891D01*
X73667740Y-126871771D01*
X73632869Y-126757711D01*
X73620814Y-126639041D01*
X73632039Y-126520299D01*
X73666113Y-126405998D01*
X73721743Y-126300487D01*
X73820684Y-126178305D01*
X73827025Y-126168689D01*
X73847200Y-126143949D01*
X73850990Y-126136820D01*
X74571887Y-125415923D01*
X78188787Y-125415923D01*
X78188787Y-125697017D01*
X78243625Y-125972711D01*
X78351196Y-126232408D01*
X78507363Y-126466130D01*
X78706127Y-126664894D01*
X78939849Y-126821061D01*
X79199546Y-126928632D01*
X79475240Y-126983470D01*
X79756334Y-126983470D01*
X80032028Y-126928632D01*
X80291725Y-126821061D01*
X80525447Y-126664894D01*
X80724211Y-126466130D01*
X80880378Y-126232408D01*
X80987949Y-125972711D01*
X81042787Y-125697017D01*
X81042787Y-125415923D01*
X80987949Y-125140229D01*
X80880378Y-124880532D01*
X80724211Y-124646810D01*
X80525447Y-124448046D01*
X80291725Y-124291879D01*
X80032028Y-124184308D01*
X79756334Y-124129470D01*
X79475240Y-124129470D01*
X79199546Y-124184308D01*
X78939849Y-124291879D01*
X78706127Y-124448046D01*
X78507363Y-124646810D01*
X78351196Y-124880532D01*
X78243625Y-125140229D01*
X78188787Y-125415923D01*
X74571887Y-125415923D01*
X80876849Y-119110962D01*
X82331793Y-117708459D01*
X85896251Y-117708459D01*
X85896251Y-117989553D01*
X85951089Y-118265247D01*
X86058660Y-118524944D01*
X86214827Y-118758666D01*
X86413591Y-118957430D01*
X86647313Y-119113597D01*
X86907010Y-119221168D01*
X87182704Y-119276006D01*
X87463798Y-119276006D01*
X87739492Y-119221168D01*
X87999189Y-119113597D01*
X88232911Y-118957430D01*
X88431675Y-118758666D01*
X88587842Y-118524944D01*
X88695413Y-118265247D01*
X88750251Y-117989553D01*
X88750251Y-117708459D01*
X88695413Y-117432765D01*
X88587842Y-117173068D01*
X88431675Y-116939346D01*
X88232911Y-116740582D01*
X87999189Y-116584415D01*
X87739492Y-116476844D01*
X87463798Y-116422006D01*
X87182704Y-116422006D01*
X86907010Y-116476844D01*
X86647313Y-116584415D01*
X86413591Y-116740582D01*
X86214827Y-116939346D01*
X86058660Y-117173068D01*
X85951089Y-117432765D01*
X85896251Y-117708459D01*
X82331793Y-117708459D01*
X83897581Y-116199108D01*
X87020414Y-113402204D01*
X90243640Y-110721611D01*
X93562920Y-108160932D01*
X95618987Y-106691721D01*
X100253544Y-106691721D01*
X100253544Y-106972815D01*
X100308382Y-107248509D01*
X100415953Y-107508206D01*
X100572120Y-107741928D01*
X100770884Y-107940692D01*
X101004606Y-108096859D01*
X101264303Y-108204430D01*
X101539997Y-108259268D01*
X101821091Y-108259268D01*
X102096785Y-108204430D01*
X102356482Y-108096859D01*
X102590204Y-107940692D01*
X102788968Y-107741928D01*
X102945135Y-107508206D01*
X103052706Y-107248509D01*
X103107544Y-106972815D01*
X103107544Y-106691721D01*
X103052706Y-106416027D01*
X102945135Y-106156330D01*
X102788968Y-105922608D01*
X102590204Y-105723844D01*
X102356482Y-105567677D01*
X102096785Y-105460106D01*
X101821091Y-105405268D01*
X101539997Y-105405268D01*
X101264303Y-105460106D01*
X101004606Y-105567677D01*
X100770884Y-105723844D01*
X100572120Y-105922608D01*
X100415953Y-106156330D01*
X100308382Y-106416027D01*
X100253544Y-106691721D01*
X95618987Y-106691721D01*
X96973819Y-105723595D01*
X100473895Y-103411458D01*
X101343658Y-102864987D01*
X101343685Y-102864970D01*
X101348053Y-102862183D01*
X101378813Y-102842258D01*
X101393880Y-102830259D01*
X101409998Y-102819718D01*
X101414079Y-102816392D01*
X101564492Y-102692031D01*
X101588575Y-102667793D01*
X101612994Y-102643894D01*
X101616345Y-102639845D01*
X101616352Y-102639838D01*
X101616357Y-102639830D01*
X101739745Y-102488632D01*
X101758663Y-102460176D01*
X101777974Y-102431989D01*
X101780480Y-102427359D01*
X101872154Y-102255064D01*
X101885173Y-102223502D01*
X101898653Y-102192075D01*
X101900211Y-102187047D01*
X101956674Y-102000227D01*
X101963320Y-101966711D01*
X101970434Y-101933288D01*
X101970986Y-101928053D01*
X101990086Y-101733824D01*
X101991896Y-101715448D01*
X101991896Y-101241721D01*
X109693220Y-101241721D01*
X109693220Y-101522815D01*
X109748058Y-101798509D01*
X109855629Y-102058206D01*
X110011796Y-102291928D01*
X110210560Y-102490692D01*
X110444282Y-102646859D01*
X110703979Y-102754430D01*
X110979673Y-102809268D01*
X111260767Y-102809268D01*
X111536461Y-102754430D01*
X111796158Y-102646859D01*
X112029880Y-102490692D01*
X112228644Y-102291928D01*
X112384811Y-102058206D01*
X112492382Y-101798509D01*
X112547220Y-101522815D01*
X112547220Y-101241721D01*
X112492382Y-100966027D01*
X112384811Y-100706330D01*
X112228644Y-100472608D01*
X112029880Y-100273844D01*
X111796158Y-100117677D01*
X111536461Y-100010106D01*
X111260767Y-99955268D01*
X110979673Y-99955268D01*
X110703979Y-100010106D01*
X110444282Y-100117677D01*
X110210560Y-100273844D01*
X110011796Y-100472608D01*
X109855629Y-100706330D01*
X109748058Y-100966027D01*
X109693220Y-101241721D01*
X101991896Y-101241721D01*
X101991896Y-98780660D01*
X103273000Y-98780660D01*
X103273000Y-99219340D01*
X103358582Y-99649592D01*
X103526458Y-100054880D01*
X103770176Y-100419630D01*
X104080370Y-100729824D01*
X104445120Y-100973542D01*
X104850408Y-101141418D01*
X105280660Y-101227000D01*
X105719340Y-101227000D01*
X106149592Y-101141418D01*
X106554880Y-100973542D01*
X106919630Y-100729824D01*
X107229824Y-100419630D01*
X107473542Y-100054880D01*
X107641418Y-99649592D01*
X107727000Y-99219340D01*
X107727000Y-98780660D01*
X107641418Y-98350408D01*
X107473542Y-97945120D01*
X107229824Y-97580370D01*
X106919630Y-97270176D01*
X106554880Y-97026458D01*
X106149592Y-96858582D01*
X105719340Y-96773000D01*
X105280660Y-96773000D01*
X104850408Y-96858582D01*
X104445120Y-97026458D01*
X104080370Y-97270176D01*
X103770176Y-97580370D01*
X103526458Y-97945120D01*
X103358582Y-98350408D01*
X103273000Y-98780660D01*
X101991896Y-98780660D01*
X101991896Y-85949202D01*
X102026426Y-86000880D01*
X102336620Y-86311074D01*
X102701370Y-86554792D01*
X103106658Y-86722668D01*
X103536910Y-86808250D01*
X103975590Y-86808250D01*
X104405842Y-86722668D01*
X104811130Y-86554792D01*
X105175880Y-86311074D01*
X105486074Y-86000880D01*
X105729792Y-85636130D01*
X105897668Y-85230842D01*
X105983250Y-84800590D01*
X105983250Y-84361910D01*
X117816750Y-84361910D01*
X117816750Y-84800590D01*
X117902332Y-85230842D01*
X118070208Y-85636130D01*
X118313926Y-86000880D01*
X118624120Y-86311074D01*
X118988870Y-86554792D01*
X119394158Y-86722668D01*
X119824410Y-86808250D01*
X120263090Y-86808250D01*
X120693342Y-86722668D01*
X121098630Y-86554792D01*
X121463380Y-86311074D01*
X121773574Y-86000880D01*
X122017292Y-85636130D01*
X122185168Y-85230842D01*
X122270750Y-84800590D01*
X122270750Y-84361910D01*
X122185168Y-83931658D01*
X122017292Y-83526370D01*
X121773574Y-83161620D01*
X121463380Y-82851426D01*
X121098630Y-82607708D01*
X120693342Y-82439832D01*
X120263090Y-82354250D01*
X119824410Y-82354250D01*
X119394158Y-82439832D01*
X118988870Y-82607708D01*
X118624120Y-82851426D01*
X118313926Y-83161620D01*
X118070208Y-83526370D01*
X117902332Y-83931658D01*
X117816750Y-84361910D01*
X105983250Y-84361910D01*
X105897668Y-83931658D01*
X105729792Y-83526370D01*
X105486074Y-83161620D01*
X105175880Y-82851426D01*
X104811130Y-82607708D01*
X104405842Y-82439832D01*
X103975590Y-82354250D01*
X103536910Y-82354250D01*
X103106658Y-82439832D01*
X102701370Y-82607708D01*
X102336620Y-82851426D01*
X102026426Y-83161620D01*
X101991896Y-83213298D01*
X101991896Y-69280452D01*
X102026426Y-69332130D01*
X102336620Y-69642324D01*
X102701370Y-69886042D01*
X103106658Y-70053918D01*
X103536910Y-70139500D01*
X103975590Y-70139500D01*
X104405842Y-70053918D01*
X104811130Y-69886042D01*
X105175880Y-69642324D01*
X105486074Y-69332130D01*
X105729792Y-68967380D01*
X105857147Y-68659919D01*
X105932759Y-68682747D01*
X105967181Y-68689563D01*
X106001474Y-68696852D01*
X106006841Y-68697416D01*
X106006850Y-68697418D01*
X106006858Y-68697418D01*
X106162235Y-68712653D01*
X106162240Y-68712653D01*
X106180993Y-68714500D01*
X117619007Y-68714500D01*
X117635724Y-68712854D01*
X117640662Y-68712888D01*
X117646039Y-68712361D01*
X117801316Y-68696040D01*
X117835717Y-68688979D01*
X117870127Y-68682415D01*
X117875294Y-68680855D01*
X117875303Y-68680853D01*
X117875311Y-68680849D01*
X117942862Y-68659939D01*
X118070208Y-68967380D01*
X118313926Y-69332130D01*
X118624120Y-69642324D01*
X118988870Y-69886042D01*
X119394158Y-70053918D01*
X119824410Y-70139500D01*
X120263090Y-70139500D01*
X120693342Y-70053918D01*
X121098630Y-69886042D01*
X121463380Y-69642324D01*
X121773574Y-69332130D01*
X122017292Y-68967380D01*
X122185168Y-68562092D01*
X122270750Y-68131840D01*
X122270750Y-67693160D01*
X122185168Y-67262908D01*
X122017292Y-66857620D01*
X121773574Y-66492870D01*
X121463380Y-66182676D01*
X121098630Y-65938958D01*
X120693342Y-65771082D01*
X120263090Y-65685500D01*
X119824410Y-65685500D01*
X119394158Y-65771082D01*
X118988870Y-65938958D01*
X118787000Y-66073843D01*
X118787000Y-31996157D01*
X118988870Y-32131042D01*
X119394158Y-32298918D01*
X119824410Y-32384500D01*
X120263090Y-32384500D01*
X120693342Y-32298918D01*
X121098630Y-32131042D01*
X121463380Y-31887324D01*
X121773574Y-31577130D01*
X122017292Y-31212380D01*
X122185168Y-30807092D01*
X122270750Y-30376840D01*
X122270750Y-29938160D01*
X122185168Y-29507908D01*
X122017292Y-29102620D01*
X121773574Y-28737870D01*
X121463380Y-28427676D01*
X121098630Y-28183958D01*
X120693342Y-28016082D01*
X120263090Y-27930500D01*
X119824410Y-27930500D01*
X119394158Y-28016082D01*
X118988870Y-28183958D01*
X118624120Y-28427676D01*
X118313926Y-28737870D01*
X118102325Y-29054554D01*
X118086542Y-29046162D01*
X118054082Y-29032783D01*
X118021872Y-29018978D01*
X118016711Y-29017380D01*
X117867242Y-28972253D01*
X117832798Y-28965433D01*
X117798525Y-28958148D01*
X117793161Y-28957584D01*
X117793151Y-28957582D01*
X117793142Y-28957582D01*
X117637765Y-28942347D01*
X117637760Y-28942347D01*
X117619007Y-28940500D01*
X106180993Y-28940500D01*
X106164276Y-28942146D01*
X106159338Y-28942112D01*
X106153960Y-28942639D01*
X105998684Y-28958960D01*
X105964246Y-28966029D01*
X105929873Y-28972586D01*
X105924706Y-28974145D01*
X105924697Y-28974147D01*
X105924689Y-28974151D01*
X105775550Y-29020316D01*
X105743186Y-29033920D01*
X105710691Y-29047049D01*
X105705926Y-29049582D01*
X105705922Y-29049584D01*
X105705921Y-29049585D01*
X105697425Y-29054179D01*
X105486074Y-28737870D01*
X105175880Y-28427676D01*
X104811130Y-28183958D01*
X104405842Y-28016082D01*
X104336409Y-28002271D01*
X106543664Y-27262557D01*
X111388132Y-25788160D01*
X116271858Y-24449607D01*
X121191068Y-23247936D01*
X126141909Y-22184086D01*
X130145739Y-21440035D01*
X154916750Y-21440035D01*
X154916750Y-21878715D01*
X155002332Y-22308967D01*
X155170208Y-22714255D01*
X155413926Y-23079005D01*
X155724120Y-23389199D01*
X156088870Y-23632917D01*
X156494158Y-23800793D01*
X156924410Y-23886375D01*
X157363090Y-23886375D01*
X157793342Y-23800793D01*
X158198630Y-23632917D01*
X158563380Y-23389199D01*
X158873574Y-23079005D01*
X159117292Y-22714255D01*
X159285168Y-22308967D01*
X159370750Y-21878715D01*
X159370750Y-21440035D01*
X159285168Y-21009783D01*
X159117292Y-20604495D01*
X158873574Y-20239745D01*
X158563380Y-19929551D01*
X158198630Y-19685833D01*
X157793342Y-19517957D01*
X157363090Y-19432375D01*
X156924410Y-19432375D01*
X156494158Y-19517957D01*
X156088870Y-19685833D01*
X155724120Y-19929551D01*
X155413926Y-20239745D01*
X155170208Y-20604495D01*
X155002332Y-21009783D01*
X154916750Y-21440035D01*
X130145739Y-21440035D01*
X131120530Y-21258885D01*
X136123054Y-20473055D01*
X141145539Y-19827213D01*
X146184135Y-19321855D01*
X151234853Y-18957382D01*
X156293760Y-18734076D01*
X161356993Y-18652110D01*
X166420503Y-18711548D01*
%TA.AperFunction,NonConductor*%
D12*
G36*
X166420503Y-18711548D02*
G01*
X171480350Y-18912344D01*
X176532638Y-19254342D01*
X181573464Y-19737281D01*
X186598760Y-20360769D01*
X191604700Y-21124330D01*
X196587416Y-22027377D01*
X201542920Y-23069185D01*
X206467462Y-24248967D01*
X211357086Y-25565776D01*
X216208069Y-27018607D01*
X221016579Y-28606314D01*
X225778876Y-30327660D01*
X230491834Y-32181533D01*
X231961377Y-32801844D01*
X231715416Y-32801844D01*
X230724890Y-32998872D01*
X229791836Y-33385356D01*
X228952109Y-33946443D01*
X228237980Y-34660572D01*
X227676893Y-35500299D01*
X227290409Y-36433353D01*
X227093381Y-37423879D01*
X227093381Y-38433809D01*
X227290409Y-39424335D01*
X227676893Y-40357389D01*
X228237980Y-41197116D01*
X228952109Y-41911245D01*
X229791836Y-42472332D01*
X230724890Y-42858816D01*
X231715416Y-43055844D01*
X232725346Y-43055844D01*
X233715872Y-42858816D01*
X234648926Y-42472332D01*
X235488653Y-41911245D01*
X236202782Y-41197116D01*
X236763869Y-40357389D01*
X236843381Y-40165430D01*
X236843382Y-134503416D01*
X236763869Y-134311455D01*
X236202782Y-133471728D01*
X235488653Y-132757599D01*
X234648926Y-132196512D01*
X233715872Y-131810028D01*
X232725346Y-131613000D01*
X231715416Y-131613000D01*
X230724890Y-131810028D01*
X229791836Y-132196512D01*
X228952109Y-132757599D01*
X228237980Y-133471728D01*
X227676893Y-134311455D01*
X227341287Y-135121678D01*
X227325806Y-135057194D01*
X227322024Y-135045955D01*
X227319557Y-135034349D01*
X227304428Y-134993668D01*
X226947119Y-134179697D01*
X226941404Y-134169301D01*
X226936923Y-134158321D01*
X226914829Y-134120962D01*
X226419026Y-133383128D01*
X226411560Y-133373909D01*
X226405205Y-133363894D01*
X226376845Y-133331039D01*
X225758218Y-132692666D01*
X225749242Y-132684918D01*
X225741210Y-132676183D01*
X225707479Y-132648869D01*
X224985583Y-132130135D01*
X224975379Y-132124100D01*
X224965925Y-132116924D01*
X224927891Y-132096015D01*
X224125544Y-131713315D01*
X224114427Y-131709181D01*
X224103857Y-131703795D01*
X224062721Y-131689952D01*
X223205285Y-131455384D01*
X223193616Y-131453284D01*
X223182255Y-131449854D01*
X223139318Y-131443514D01*
X222255611Y-131364646D01*
X222238877Y-131362999D01*
X161741840Y-131366602D01*
X161738903Y-131366891D01*
X159610675Y-131400324D01*
X159609200Y-131400382D01*
X159607715Y-131400382D01*
X159595881Y-131400847D01*
X156384832Y-131577562D01*
X156381909Y-131577792D01*
X156378922Y-131577933D01*
X156367123Y-131578955D01*
X153167963Y-131906734D01*
X153165024Y-131907105D01*
X153162077Y-131907384D01*
X153150338Y-131908961D01*
X149970170Y-132387078D01*
X149967261Y-132387586D01*
X149964322Y-132388004D01*
X149952671Y-132390132D01*
X146798556Y-133017525D01*
X146795670Y-133018170D01*
X146792757Y-133018726D01*
X146781219Y-133021400D01*
X143660160Y-133796675D01*
X143657300Y-133797457D01*
X143654424Y-133798148D01*
X143643025Y-133801362D01*
X140561951Y-134722800D01*
X140559133Y-134723715D01*
X140556292Y-134724541D01*
X140545057Y-134728289D01*
X137510809Y-135793841D01*
X137508040Y-135794887D01*
X137505237Y-135795847D01*
X137494191Y-135800120D01*
X134513505Y-137007422D01*
X134510791Y-137008596D01*
X134508034Y-137009688D01*
X134497202Y-137014477D01*
X131576698Y-138360848D01*
X131574051Y-138362145D01*
X131571340Y-138363369D01*
X131560746Y-138368663D01*
X128706906Y-139851114D01*
X128704318Y-139852537D01*
X128701672Y-139853885D01*
X128691339Y-139859672D01*
X125910500Y-141474912D01*
X125907966Y-141476465D01*
X125905403Y-141477927D01*
X125895353Y-141484194D01*
X123193690Y-143228636D01*
X123191255Y-143230291D01*
X123188740Y-143231887D01*
X123178997Y-143238621D01*
X120562507Y-145108392D01*
X120560157Y-145110157D01*
X120557716Y-145111872D01*
X120548301Y-145119058D01*
X118022796Y-147110007D01*
X118020528Y-147111883D01*
X118018174Y-147113709D01*
X118009108Y-147121330D01*
X115580191Y-149229037D01*
X115578005Y-149231026D01*
X115575749Y-149232953D01*
X115567052Y-149240992D01*
X113250259Y-151451102D01*
X113246794Y-151453947D01*
X103489872Y-161215347D01*
X103568871Y-161024628D01*
X103765899Y-160034102D01*
X103765899Y-159024172D01*
X103568871Y-158033646D01*
X103182387Y-157100592D01*
X102621300Y-156260865D01*
X101907171Y-155546736D01*
X101067444Y-154985649D01*
X100134390Y-154599165D01*
X99143864Y-154402137D01*
X98133934Y-154402137D01*
X97143408Y-154599165D01*
X96333185Y-154934771D01*
X96367835Y-154878227D01*
X96373107Y-154867607D01*
X96379570Y-154857655D01*
X96397638Y-154818191D01*
X96720548Y-153989971D01*
X96723858Y-153978578D01*
X96728454Y-153967645D01*
X96739239Y-153925636D01*
X96739248Y-153925606D01*
X96739249Y-153925595D01*
X96910388Y-153053291D01*
X96911628Y-153041499D01*
X96914216Y-153029919D01*
X96917392Y-152986661D01*
X96917395Y-152986632D01*
X96917394Y-152986621D01*
X96921180Y-152745599D01*
X105518463Y-152745599D01*
X105518463Y-153026693D01*
X105573301Y-153302387D01*
X105680872Y-153562084D01*
X105837039Y-153795806D01*
X106035803Y-153994570D01*
X106269525Y-154150737D01*
X106529222Y-154258308D01*
X106804916Y-154313146D01*
X107086010Y-154313146D01*
X107361704Y-154258308D01*
X107621401Y-154150737D01*
X107855123Y-153994570D01*
X108053887Y-153795806D01*
X108210054Y-153562084D01*
X108317625Y-153302387D01*
X108372463Y-153026693D01*
X108372463Y-152745599D01*
X108317625Y-152469905D01*
X108210054Y-152210208D01*
X108053887Y-151976486D01*
X107855123Y-151777722D01*
X107621401Y-151621555D01*
X107361704Y-151513984D01*
X107086010Y-151459146D01*
X106804916Y-151459146D01*
X106529222Y-151513984D01*
X106269525Y-151621555D01*
X106035803Y-151777722D01*
X105837039Y-151976486D01*
X105680872Y-152210208D01*
X105573301Y-152469905D01*
X105518463Y-152745599D01*
X96921180Y-152745599D01*
X96931357Y-152097799D01*
X96930489Y-152085975D01*
X96930986Y-152074119D01*
X96926449Y-152030954D01*
X96782792Y-151153695D01*
X96779841Y-151142203D01*
X96778232Y-151130454D01*
X96766123Y-151088775D01*
X96469388Y-150250820D01*
X96464451Y-150240037D01*
X96460785Y-150228753D01*
X96441486Y-150189877D01*
X96001051Y-149417713D01*
X95994284Y-149407977D01*
X95988677Y-149397519D01*
X95962809Y-149362690D01*
X95962798Y-149362674D01*
X95962793Y-149362669D01*
X95393694Y-148682034D01*
X95383038Y-148669050D01*
X75261991Y-128548003D01*
X80295980Y-128548003D01*
X80295980Y-128710907D01*
X80327762Y-128870682D01*
X80390103Y-129021186D01*
X80480608Y-129156636D01*
X80595799Y-129271827D01*
X80611287Y-129282176D01*
X80613631Y-129285785D01*
X80617162Y-129290145D01*
X80617165Y-129290149D01*
X80617169Y-129290153D01*
X80716266Y-129410797D01*
X80716279Y-129410810D01*
X80728685Y-129425927D01*
X91887446Y-140584687D01*
X103034626Y-151731869D01*
X103048103Y-151742929D01*
X103051558Y-151746433D01*
X103055896Y-151749996D01*
X103177233Y-151848254D01*
X103201503Y-151864257D01*
X103228233Y-151904261D01*
X103343424Y-152019452D01*
X103478874Y-152109957D01*
X103629378Y-152172298D01*
X103789153Y-152204080D01*
X103952057Y-152204080D01*
X104111832Y-152172298D01*
X104262336Y-152109957D01*
X104397786Y-152019452D01*
X104512977Y-151904261D01*
X104539676Y-151864303D01*
X104566441Y-151846922D01*
X104570801Y-151843391D01*
X104570805Y-151843388D01*
X104570809Y-151843384D01*
X104691453Y-151744287D01*
X104691456Y-151744284D01*
X104706584Y-151731869D01*
X109118573Y-147319881D01*
X109127632Y-147308842D01*
X111503969Y-145038135D01*
X113225927Y-145038135D01*
X113225927Y-145319229D01*
X113280765Y-145594923D01*
X113388336Y-145854620D01*
X113544503Y-146088342D01*
X113743267Y-146287106D01*
X113976989Y-146443273D01*
X114236686Y-146550844D01*
X114512380Y-146605682D01*
X114793474Y-146605682D01*
X115069168Y-146550844D01*
X115328865Y-146443273D01*
X115562587Y-146287106D01*
X115761351Y-146088342D01*
X115917518Y-145854620D01*
X116025089Y-145594923D01*
X116079927Y-145319229D01*
X116079927Y-145038135D01*
X116025089Y-144762441D01*
X115917518Y-144502744D01*
X115761351Y-144269022D01*
X115562587Y-144070258D01*
X115328865Y-143914091D01*
X115069168Y-143806520D01*
X114793474Y-143751682D01*
X114512380Y-143751682D01*
X114236686Y-143806520D01*
X113976989Y-143914091D01*
X113743267Y-144070258D01*
X113544503Y-144269022D01*
X113388336Y-144502744D01*
X113280765Y-144762441D01*
X113225927Y-145038135D01*
X111503969Y-145038135D01*
X111546152Y-144997828D01*
X114092607Y-142776583D01*
X116737213Y-140673132D01*
X117441155Y-140163603D01*
X119578544Y-140163603D01*
X119578544Y-140444697D01*
X119633382Y-140720391D01*
X119740953Y-140980088D01*
X119897120Y-141213810D01*
X120095884Y-141412574D01*
X120329606Y-141568741D01*
X120589303Y-141676312D01*
X120864997Y-141731150D01*
X121146091Y-141731150D01*
X121421785Y-141676312D01*
X121681482Y-141568741D01*
X121915204Y-141412574D01*
X122113968Y-141213810D01*
X122270135Y-140980088D01*
X122377706Y-140720391D01*
X122432544Y-140444697D01*
X122432544Y-140163603D01*
X122377706Y-139887909D01*
X122270135Y-139628212D01*
X122113968Y-139394490D01*
X121915204Y-139195726D01*
X121681482Y-139039559D01*
X121421785Y-138931988D01*
X121146091Y-138877150D01*
X120864997Y-138877150D01*
X120589303Y-138931988D01*
X120329606Y-139039559D01*
X120095884Y-139195726D01*
X119897120Y-139394490D01*
X119740953Y-139628212D01*
X119633382Y-139887909D01*
X119578544Y-140163603D01*
X117441155Y-140163603D01*
X119474506Y-138691819D01*
X122298882Y-136836702D01*
X125204484Y-135111629D01*
X125949988Y-134713603D01*
X129018220Y-134713603D01*
X129018220Y-134994697D01*
X129073058Y-135270391D01*
X129180629Y-135530088D01*
X129336796Y-135763810D01*
X129535560Y-135962574D01*
X129769282Y-136118741D01*
X130028979Y-136226312D01*
X130304673Y-136281150D01*
X130585767Y-136281150D01*
X130861461Y-136226312D01*
X131121158Y-136118741D01*
X131354880Y-135962574D01*
X131553644Y-135763810D01*
X131709811Y-135530088D01*
X131817382Y-135270391D01*
X131872220Y-134994697D01*
X131872220Y-134713603D01*
X131817382Y-134437909D01*
X131709811Y-134178212D01*
X131553644Y-133944490D01*
X131354880Y-133745726D01*
X131121158Y-133589559D01*
X130861461Y-133481988D01*
X130585767Y-133427150D01*
X130304673Y-133427150D01*
X130028979Y-133481988D01*
X129769282Y-133589559D01*
X129535560Y-133745726D01*
X129336796Y-133944490D01*
X129180629Y-134178212D01*
X129073058Y-134437909D01*
X129018220Y-134713603D01*
X125949988Y-134713603D01*
X128185356Y-133520137D01*
X131235359Y-132065500D01*
X133090169Y-131282080D01*
X137490245Y-131282080D01*
X137490245Y-131563174D01*
X137545083Y-131838868D01*
X137652654Y-132098565D01*
X137808821Y-132332287D01*
X138007585Y-132531051D01*
X138241307Y-132687218D01*
X138501004Y-132794789D01*
X138776698Y-132849627D01*
X139057792Y-132849627D01*
X139333486Y-132794789D01*
X139593183Y-132687218D01*
X139826905Y-132531051D01*
X140025669Y-132332287D01*
X140181836Y-132098565D01*
X140289407Y-131838868D01*
X140344245Y-131563174D01*
X140344245Y-131282080D01*
X140289407Y-131006386D01*
X140181836Y-130746689D01*
X140025669Y-130512967D01*
X139826905Y-130314203D01*
X139593183Y-130158036D01*
X139333486Y-130050465D01*
X139057792Y-129995627D01*
X138776698Y-129995627D01*
X138501004Y-130050465D01*
X138241307Y-130158036D01*
X138007585Y-130314203D01*
X137808821Y-130512967D01*
X137652654Y-130746689D01*
X137545083Y-131006386D01*
X137490245Y-131282080D01*
X133090169Y-131282080D01*
X134348186Y-130750729D01*
X137517462Y-129578513D01*
X140500348Y-128626676D01*
X148061850Y-128626676D01*
X148061850Y-128907770D01*
X148116688Y-129183464D01*
X148224259Y-129443161D01*
X148380426Y-129676883D01*
X148579190Y-129875647D01*
X148812912Y-130031814D01*
X149072609Y-130139385D01*
X149348303Y-130194223D01*
X149629397Y-130194223D01*
X149905091Y-130139385D01*
X150164788Y-130031814D01*
X150398510Y-129875647D01*
X150597274Y-129676883D01*
X150753441Y-129443161D01*
X150861012Y-129183464D01*
X150915850Y-128907770D01*
X150915850Y-128626676D01*
X150861012Y-128350982D01*
X150753441Y-128091285D01*
X150597274Y-127857563D01*
X150398510Y-127658799D01*
X150164788Y-127502632D01*
X149905091Y-127395061D01*
X149629397Y-127340223D01*
X149348303Y-127340223D01*
X149072609Y-127395061D01*
X148812912Y-127502632D01*
X148579190Y-127658799D01*
X148380426Y-127857563D01*
X148224259Y-128091285D01*
X148116688Y-128350982D01*
X148061850Y-128626676D01*
X140500348Y-128626676D01*
X140736689Y-128551260D01*
X143999165Y-127671108D01*
X147298191Y-126939862D01*
X150627053Y-126359011D01*
X153978799Y-125929772D01*
X157346526Y-125653022D01*
X160726583Y-125529208D01*
X161761365Y-125522001D01*
X194619747Y-125521999D01*
X194636869Y-125520313D01*
X194639924Y-125520334D01*
X194645511Y-125519786D01*
X194742559Y-125509586D01*
X194778245Y-125502261D01*
X194814040Y-125495433D01*
X194819413Y-125493810D01*
X194840363Y-125487325D01*
X194901227Y-125475218D01*
X195051731Y-125412877D01*
X195187181Y-125322372D01*
X195302372Y-125207181D01*
X195392877Y-125071731D01*
X195455218Y-124921227D01*
X195467659Y-124858682D01*
X195475320Y-124833309D01*
X195482397Y-124797568D01*
X195489973Y-124761926D01*
X195490560Y-124756344D01*
X195500082Y-124659226D01*
X195500082Y-124659220D01*
X195502000Y-124639747D01*
X195502000Y-29800254D01*
X199748000Y-29800254D01*
X199748001Y-36000244D01*
X199748000Y-36000254D01*
X199748001Y-118100244D01*
X199748000Y-118100254D01*
X199748001Y-124339747D01*
X199749708Y-124357073D01*
X199749673Y-124362021D01*
X199750221Y-124367607D01*
X199766542Y-124522884D01*
X199772387Y-124551357D01*
X199763000Y-124598548D01*
X199763000Y-124761452D01*
X199794782Y-124921227D01*
X199857123Y-125071731D01*
X199947628Y-125207181D01*
X200062819Y-125322372D01*
X200198269Y-125412877D01*
X200348773Y-125475218D01*
X200508548Y-125507000D01*
X200671452Y-125507000D01*
X200718588Y-125497624D01*
X200749802Y-125504259D01*
X200755378Y-125504844D01*
X200755386Y-125504846D01*
X200755394Y-125504846D01*
X200910487Y-125520053D01*
X200930253Y-125522000D01*
X213369747Y-125522000D01*
X213387083Y-125520293D01*
X213392021Y-125520327D01*
X213397607Y-125519779D01*
X213552884Y-125503458D01*
X213581357Y-125497613D01*
X213628548Y-125507000D01*
X213791452Y-125507000D01*
X213951227Y-125475218D01*
X214101731Y-125412877D01*
X214237181Y-125322372D01*
X214352372Y-125207181D01*
X214442877Y-125071731D01*
X214505218Y-124921227D01*
X214537000Y-124761452D01*
X214537000Y-124598548D01*
X214527624Y-124551412D01*
X214534259Y-124520198D01*
X214534844Y-124514622D01*
X214534846Y-124514614D01*
X214534846Y-124514606D01*
X214550081Y-124359229D01*
X214552000Y-124339747D01*
X214552000Y-44980254D01*
X218798000Y-44980254D01*
X218798001Y-51180244D01*
X218798000Y-51180254D01*
X218798001Y-118100244D01*
X218798000Y-118100254D01*
X218798001Y-124339747D01*
X218799708Y-124357073D01*
X218799673Y-124362021D01*
X218800221Y-124367607D01*
X218816542Y-124522884D01*
X218822387Y-124551357D01*
X218813000Y-124598548D01*
X218813000Y-124761452D01*
X218844782Y-124921227D01*
X218907123Y-125071731D01*
X218997628Y-125207181D01*
X219112819Y-125322372D01*
X219248269Y-125412877D01*
X219398773Y-125475218D01*
X219558548Y-125507000D01*
X219721452Y-125507000D01*
X219768588Y-125497624D01*
X219799802Y-125504259D01*
X219805378Y-125504844D01*
X219805386Y-125504846D01*
X219805394Y-125504846D01*
X219960487Y-125520053D01*
X219980253Y-125522000D01*
X232419747Y-125522000D01*
X232437083Y-125520293D01*
X232442021Y-125520327D01*
X232447607Y-125519779D01*
X232602884Y-125503458D01*
X232631357Y-125497613D01*
X232678548Y-125507000D01*
X232841452Y-125507000D01*
X233001227Y-125475218D01*
X233151731Y-125412877D01*
X233287181Y-125322372D01*
X233402372Y-125207181D01*
X233492877Y-125071731D01*
X233555218Y-124921227D01*
X233587000Y-124761452D01*
X233587000Y-124598548D01*
X233577624Y-124551412D01*
X233584259Y-124520198D01*
X233584844Y-124514622D01*
X233584846Y-124514614D01*
X233584846Y-124514606D01*
X233600081Y-124359229D01*
X233602000Y-124339747D01*
X233602000Y-44980253D01*
X233600293Y-44962917D01*
X233600327Y-44957979D01*
X233599779Y-44952392D01*
X233583458Y-44797116D01*
X233577613Y-44768643D01*
X233587000Y-44721452D01*
X233587000Y-44558548D01*
X233555218Y-44398773D01*
X233492877Y-44248269D01*
X233402372Y-44112819D01*
X233287181Y-43997628D01*
X233151731Y-43907123D01*
X233001227Y-43844782D01*
X232841452Y-43813000D01*
X232678548Y-43813000D01*
X232631412Y-43822376D01*
X232600198Y-43815741D01*
X232594616Y-43815155D01*
X232439513Y-43799947D01*
X232419747Y-43798000D01*
X219980253Y-43798000D01*
X219962917Y-43799707D01*
X219957979Y-43799673D01*
X219952392Y-43800221D01*
X219797116Y-43816542D01*
X219768643Y-43822387D01*
X219721452Y-43813000D01*
X219558548Y-43813000D01*
X219398773Y-43844782D01*
X219248269Y-43907123D01*
X219112819Y-43997628D01*
X218997628Y-44112819D01*
X218907123Y-44248269D01*
X218844782Y-44398773D01*
X218813000Y-44558548D01*
X218813000Y-44721452D01*
X218822376Y-44768588D01*
X218815741Y-44799802D01*
X218815155Y-44805384D01*
X218799925Y-44960709D01*
X218798000Y-44980254D01*
X214552000Y-44980254D01*
X214552000Y-37942880D01*
X222191750Y-37942880D01*
X222191750Y-38263370D01*
X222254275Y-38577703D01*
X222376922Y-38873798D01*
X222554977Y-39140277D01*
X222781598Y-39366898D01*
X223048077Y-39544953D01*
X223344172Y-39667600D01*
X223658505Y-39730125D01*
X223978995Y-39730125D01*
X224293328Y-39667600D01*
X224589423Y-39544953D01*
X224855902Y-39366898D01*
X225082523Y-39140277D01*
X225260578Y-38873798D01*
X225383225Y-38577703D01*
X225445750Y-38263370D01*
X225445750Y-37942880D01*
X225383225Y-37628547D01*
X225260578Y-37332452D01*
X225082523Y-37065973D01*
X224855902Y-36839352D01*
X224589423Y-36661297D01*
X224293328Y-36538650D01*
X223978995Y-36476125D01*
X223658505Y-36476125D01*
X223344172Y-36538650D01*
X223048077Y-36661297D01*
X222781598Y-36839352D01*
X222554977Y-37065973D01*
X222376922Y-37332452D01*
X222254275Y-37628547D01*
X222191750Y-37942880D01*
X214552000Y-37942880D01*
X214552000Y-35566554D01*
X219860500Y-35566554D01*
X219860500Y-35877196D01*
X219921104Y-36181869D01*
X220039981Y-36468864D01*
X220212564Y-36727154D01*
X220432221Y-36946811D01*
X220690511Y-37119394D01*
X220977506Y-37238271D01*
X221282179Y-37298875D01*
X221592821Y-37298875D01*
X221897494Y-37238271D01*
X222184489Y-37119394D01*
X222442779Y-36946811D01*
X222662436Y-36727154D01*
X222835019Y-36468864D01*
X222953896Y-36181869D01*
X223014500Y-35877196D01*
X223014500Y-35566554D01*
X222953896Y-35261881D01*
X222835019Y-34974886D01*
X222662436Y-34716596D01*
X222442779Y-34496939D01*
X222184489Y-34324356D01*
X221897494Y-34205479D01*
X221592821Y-34144875D01*
X221282179Y-34144875D01*
X220977506Y-34205479D01*
X220690511Y-34324356D01*
X220432221Y-34496939D01*
X220212564Y-34716596D01*
X220039981Y-34974886D01*
X219921104Y-35261881D01*
X219860500Y-35566554D01*
X214552000Y-35566554D01*
X214552000Y-33180380D01*
X217429250Y-33180380D01*
X217429250Y-33500870D01*
X217491775Y-33815203D01*
X217614422Y-34111298D01*
X217792477Y-34377777D01*
X218019098Y-34604398D01*
X218285577Y-34782453D01*
X218581672Y-34905100D01*
X218896005Y-34967625D01*
X219216495Y-34967625D01*
X219530828Y-34905100D01*
X219826923Y-34782453D01*
X220093402Y-34604398D01*
X220320023Y-34377777D01*
X220498078Y-34111298D01*
X220620725Y-33815203D01*
X220683250Y-33500870D01*
X220683250Y-33180380D01*
X220620725Y-32866047D01*
X220498078Y-32569952D01*
X220320023Y-32303473D01*
X220093402Y-32076852D01*
X219826923Y-31898797D01*
X219530828Y-31776150D01*
X219216495Y-31713625D01*
X218896005Y-31713625D01*
X218581672Y-31776150D01*
X218285577Y-31898797D01*
X218019098Y-32076852D01*
X217792477Y-32303473D01*
X217614422Y-32569952D01*
X217491775Y-32866047D01*
X217429250Y-33180380D01*
X214552000Y-33180380D01*
X214552000Y-29800253D01*
X214550293Y-29782917D01*
X214550327Y-29777979D01*
X214549779Y-29772392D01*
X214533458Y-29617116D01*
X214527613Y-29588643D01*
X214537000Y-29541452D01*
X214537000Y-29378548D01*
X214505218Y-29218773D01*
X214442877Y-29068269D01*
X214352372Y-28932819D01*
X214237181Y-28817628D01*
X214101731Y-28727123D01*
X213951227Y-28664782D01*
X213791452Y-28633000D01*
X213628548Y-28633000D01*
X213581412Y-28642376D01*
X213550198Y-28635741D01*
X213544616Y-28635155D01*
X213389513Y-28619947D01*
X213369747Y-28618000D01*
X200930253Y-28618000D01*
X200912917Y-28619707D01*
X200907979Y-28619673D01*
X200902392Y-28620221D01*
X200747116Y-28636542D01*
X200718643Y-28642387D01*
X200671452Y-28633000D01*
X200508548Y-28633000D01*
X200348773Y-28664782D01*
X200198269Y-28727123D01*
X200062819Y-28817628D01*
X199947628Y-28932819D01*
X199857123Y-29068269D01*
X199794782Y-29218773D01*
X199763000Y-29378548D01*
X199763000Y-29541452D01*
X199772376Y-29588588D01*
X199765741Y-29619802D01*
X199765155Y-29625384D01*
X199749925Y-29780709D01*
X199748000Y-29800254D01*
X195502000Y-29800254D01*
X195502000Y-26720253D01*
X195500293Y-26702917D01*
X195500327Y-26697979D01*
X195499779Y-26692392D01*
X195483458Y-26537116D01*
X195477613Y-26508643D01*
X195487000Y-26461452D01*
X195487000Y-26298548D01*
X195455218Y-26138773D01*
X195392877Y-25988269D01*
X195302372Y-25852819D01*
X195187181Y-25737628D01*
X195051731Y-25647123D01*
X194901227Y-25584782D01*
X194741452Y-25553000D01*
X194578548Y-25553000D01*
X194531412Y-25562376D01*
X194500198Y-25555741D01*
X194494616Y-25555155D01*
X194339513Y-25539947D01*
X194319747Y-25538000D01*
X181880253Y-25538000D01*
X181862917Y-25539707D01*
X181857979Y-25539673D01*
X181852392Y-25540221D01*
X181697116Y-25556542D01*
X181668643Y-25562387D01*
X181621452Y-25553000D01*
X181458548Y-25553000D01*
X181298773Y-25584782D01*
X181148269Y-25647123D01*
X181012819Y-25737628D01*
X180897628Y-25852819D01*
X180807123Y-25988269D01*
X180744782Y-26138773D01*
X180713000Y-26298548D01*
X180713000Y-26461452D01*
X180722376Y-26508588D01*
X180715741Y-26539802D01*
X180715155Y-26545384D01*
X180699925Y-26700709D01*
X180698000Y-26720254D01*
X180698001Y-32920244D01*
X180698000Y-32920254D01*
X180698001Y-110718000D01*
X176667806Y-110718000D01*
X177028630Y-110568542D01*
X177393380Y-110324824D01*
X177703574Y-110014630D01*
X177947292Y-109649880D01*
X178115168Y-109244592D01*
X178200750Y-108814340D01*
X178200750Y-108375660D01*
X178115168Y-107945408D01*
X177947292Y-107540120D01*
X177703574Y-107175370D01*
X177393380Y-106865176D01*
X177028630Y-106621458D01*
X176623342Y-106453582D01*
X176193090Y-106368000D01*
X175989363Y-106368000D01*
X176001731Y-106362877D01*
X176137181Y-106272372D01*
X176252372Y-106157181D01*
X176342877Y-106021731D01*
X176405218Y-105871227D01*
X176437000Y-105711452D01*
X176437000Y-105548548D01*
X176427624Y-105501412D01*
X176434259Y-105470198D01*
X176434844Y-105464622D01*
X176434846Y-105464614D01*
X176434846Y-105464606D01*
X176450081Y-105309229D01*
X176452000Y-105289747D01*
X176452000Y-25680253D01*
X176450293Y-25662917D01*
X176450327Y-25657979D01*
X176449779Y-25652392D01*
X176433458Y-25497116D01*
X176427613Y-25468643D01*
X176437000Y-25421452D01*
X176437000Y-25258548D01*
X176405218Y-25098773D01*
X176342877Y-24948269D01*
X176252372Y-24812819D01*
X176137181Y-24697628D01*
X176001731Y-24607123D01*
X175851227Y-24544782D01*
X175691452Y-24513000D01*
X175528548Y-24513000D01*
X175481412Y-24522376D01*
X175450198Y-24515741D01*
X175444616Y-24515155D01*
X175289513Y-24499947D01*
X175269747Y-24498000D01*
X162830253Y-24498000D01*
X162812917Y-24499707D01*
X162807979Y-24499673D01*
X162802392Y-24500221D01*
X162647116Y-24516542D01*
X162618643Y-24522387D01*
X162571452Y-24513000D01*
X162408548Y-24513000D01*
X162248773Y-24544782D01*
X162098269Y-24607123D01*
X161962819Y-24697628D01*
X161847628Y-24812819D01*
X161757123Y-24948269D01*
X161694782Y-25098773D01*
X161663000Y-25258548D01*
X161663000Y-25421452D01*
X161672376Y-25468588D01*
X161665741Y-25499802D01*
X161665155Y-25505384D01*
X161649925Y-25660709D01*
X161648000Y-25680254D01*
X161648001Y-31880244D01*
X161648000Y-31880254D01*
X161648001Y-99050244D01*
X161648000Y-99050254D01*
X161648001Y-105289747D01*
X161649708Y-105307073D01*
X161649673Y-105312021D01*
X161650221Y-105317607D01*
X161666542Y-105472884D01*
X161672387Y-105501357D01*
X161663000Y-105548548D01*
X161663000Y-105711452D01*
X161694782Y-105871227D01*
X161757123Y-106021731D01*
X161847628Y-106157181D01*
X161962819Y-106272372D01*
X162098269Y-106362877D01*
X162248773Y-106425218D01*
X162408548Y-106457000D01*
X162571452Y-106457000D01*
X162618588Y-106447624D01*
X162649802Y-106454259D01*
X162655378Y-106454844D01*
X162655386Y-106454846D01*
X162655394Y-106454846D01*
X162810487Y-106470053D01*
X162830253Y-106472000D01*
X175269747Y-106472000D01*
X175282796Y-106470715D01*
X174918870Y-106621458D01*
X174554120Y-106865176D01*
X174243926Y-107175370D01*
X174000208Y-107540120D01*
X173832332Y-107945408D01*
X173746750Y-108375660D01*
X173746750Y-108814340D01*
X173832332Y-109244592D01*
X174000208Y-109649880D01*
X174243926Y-110014630D01*
X174554120Y-110324824D01*
X174918870Y-110568542D01*
X175279694Y-110718000D01*
X157565380Y-110718002D01*
X157573342Y-110716418D01*
X157978630Y-110548542D01*
X158343380Y-110304824D01*
X158653574Y-109994630D01*
X158897292Y-109629880D01*
X159065168Y-109224592D01*
X159150750Y-108794340D01*
X159150750Y-108355660D01*
X159065168Y-107925408D01*
X158897292Y-107520120D01*
X158653574Y-107155370D01*
X158343380Y-106845176D01*
X157978630Y-106601458D01*
X157573342Y-106433582D01*
X157143090Y-106348000D01*
X156939363Y-106348000D01*
X156951731Y-106342877D01*
X157087181Y-106252372D01*
X157202372Y-106137181D01*
X157292877Y-106001731D01*
X157355218Y-105851227D01*
X157387000Y-105691452D01*
X157387000Y-105528548D01*
X157377624Y-105481412D01*
X157384259Y-105450198D01*
X157384844Y-105444622D01*
X157384846Y-105444614D01*
X157384846Y-105444606D01*
X157400081Y-105289229D01*
X157402000Y-105269747D01*
X157402000Y-26640253D01*
X157400293Y-26622917D01*
X157400327Y-26617979D01*
X157399779Y-26612392D01*
X157383458Y-26457116D01*
X157377613Y-26428643D01*
X157387000Y-26381452D01*
X157387000Y-26218548D01*
X157355218Y-26058773D01*
X157292877Y-25908269D01*
X157202372Y-25772819D01*
X157087181Y-25657628D01*
X156951731Y-25567123D01*
X156801227Y-25504782D01*
X156641452Y-25473000D01*
X156478548Y-25473000D01*
X156431412Y-25482376D01*
X156400198Y-25475741D01*
X156394616Y-25475155D01*
X156239513Y-25459947D01*
X156219747Y-25458000D01*
X143780253Y-25458000D01*
X143762917Y-25459707D01*
X143757979Y-25459673D01*
X143752392Y-25460221D01*
X143597116Y-25476542D01*
X143568643Y-25482387D01*
X143521452Y-25473000D01*
X143358548Y-25473000D01*
X143198773Y-25504782D01*
X143048269Y-25567123D01*
X142912819Y-25657628D01*
X142797628Y-25772819D01*
X142707123Y-25908269D01*
X142644782Y-26058773D01*
X142613000Y-26218548D01*
X142613000Y-26381452D01*
X142622376Y-26428587D01*
X142615741Y-26459802D01*
X142615155Y-26465384D01*
X142599956Y-26620393D01*
X142598000Y-26640254D01*
X142598001Y-32840244D01*
X142598000Y-32840254D01*
X142598001Y-99030244D01*
X142598000Y-99030254D01*
X142598001Y-105269747D01*
X142599708Y-105287073D01*
X142599673Y-105292021D01*
X142600221Y-105297607D01*
X142616542Y-105452884D01*
X142622387Y-105481357D01*
X142613000Y-105528548D01*
X142613000Y-105691452D01*
X142644782Y-105851227D01*
X142707123Y-106001731D01*
X142797628Y-106137181D01*
X142912819Y-106252372D01*
X143048269Y-106342877D01*
X143198773Y-106405218D01*
X143358548Y-106437000D01*
X143521452Y-106437000D01*
X143568588Y-106427624D01*
X143599802Y-106434259D01*
X143605378Y-106434844D01*
X143605386Y-106434846D01*
X143605394Y-106434846D01*
X143760487Y-106450053D01*
X143780253Y-106452000D01*
X156219747Y-106452000D01*
X156232796Y-106450715D01*
X155868870Y-106601458D01*
X155504120Y-106845176D01*
X155193926Y-107155370D01*
X154950208Y-107520120D01*
X154782332Y-107925408D01*
X154696750Y-108355660D01*
X154696750Y-108794340D01*
X154782332Y-109224592D01*
X154950208Y-109629880D01*
X155193926Y-109994630D01*
X155504120Y-110304824D01*
X155868870Y-110548542D01*
X156274158Y-110716418D01*
X156282121Y-110718002D01*
X154740254Y-110718002D01*
X154723894Y-110719613D01*
X154118075Y-110769422D01*
X154113181Y-110769928D01*
X154108322Y-110770344D01*
X150395453Y-111166905D01*
X150380291Y-111168846D01*
X150378752Y-111169043D01*
X146685746Y-111720734D01*
X146669149Y-111723570D01*
X145875169Y-111876416D01*
X146213074Y-111650635D01*
X146523268Y-111340441D01*
X146766986Y-110975691D01*
X146934862Y-110570403D01*
X147020444Y-110140151D01*
X147020444Y-109701471D01*
X146934862Y-109271219D01*
X146766986Y-108865931D01*
X146523268Y-108501181D01*
X146213074Y-108190987D01*
X145848324Y-107947269D01*
X145443036Y-107779393D01*
X145012784Y-107693811D01*
X144574104Y-107693811D01*
X144143852Y-107779393D01*
X143738564Y-107947269D01*
X143373814Y-108190987D01*
X143063620Y-108501181D01*
X142819902Y-108865931D01*
X142652026Y-109271219D01*
X142566444Y-109701471D01*
X142566444Y-110140151D01*
X142652026Y-110570403D01*
X142819902Y-110975691D01*
X143063620Y-111340441D01*
X143373814Y-111650635D01*
X143738564Y-111894353D01*
X144143852Y-112062229D01*
X144520626Y-112137174D01*
X143002485Y-112429425D01*
X142986021Y-112432953D01*
X139706228Y-113208050D01*
X138352000Y-109275088D01*
X138352000Y-29640253D01*
X138350293Y-29622917D01*
X138350327Y-29617979D01*
X138349779Y-29612392D01*
X138333458Y-29457116D01*
X138327613Y-29428643D01*
X138337000Y-29381452D01*
X138337000Y-29218548D01*
X138305218Y-29058773D01*
X138242877Y-28908269D01*
X138152372Y-28772819D01*
X138037181Y-28657628D01*
X137901731Y-28567123D01*
X137751227Y-28504782D01*
X137591452Y-28473000D01*
X137428548Y-28473000D01*
X137381412Y-28482376D01*
X137350198Y-28475741D01*
X137344616Y-28475155D01*
X137189513Y-28459947D01*
X137169747Y-28458000D01*
X124730253Y-28458000D01*
X124712917Y-28459707D01*
X124707979Y-28459673D01*
X124702392Y-28460221D01*
X124547116Y-28476542D01*
X124518643Y-28482387D01*
X124471452Y-28473000D01*
X124308548Y-28473000D01*
X124148773Y-28504782D01*
X123998269Y-28567123D01*
X123862819Y-28657628D01*
X123747628Y-28772819D01*
X123657123Y-28908269D01*
X123594782Y-29058773D01*
X123563000Y-29218548D01*
X123563000Y-29381452D01*
X123572376Y-29428588D01*
X123565741Y-29459802D01*
X123565155Y-29465384D01*
X123550014Y-29619802D01*
X123548000Y-29640254D01*
X123548001Y-35840244D01*
X123548000Y-35840254D01*
X123548001Y-98391115D01*
X121302515Y-99260907D01*
X121302491Y-99260917D01*
X121302444Y-99260934D01*
X121290742Y-99265683D01*
X117467939Y-100887169D01*
X117466658Y-100887742D01*
X117465359Y-100888274D01*
X117453848Y-100893468D01*
X113696107Y-102660509D01*
X113694857Y-102661126D01*
X113693571Y-102661712D01*
X113682268Y-102667344D01*
X109995130Y-104577334D01*
X109993905Y-104577999D01*
X109992643Y-104578633D01*
X109981564Y-104584695D01*
X106370465Y-106634818D01*
X106369262Y-106635532D01*
X106368029Y-106636212D01*
X106357191Y-106642695D01*
X102827452Y-108829929D01*
X102826292Y-108830679D01*
X102825071Y-108831415D01*
X102814491Y-108838309D01*
X99371318Y-111159430D01*
X99370172Y-111160235D01*
X99368996Y-111161007D01*
X99358820Y-111168208D01*
X99358687Y-111168302D01*
X99358663Y-111168321D01*
X96007155Y-113619888D01*
X96006044Y-113620734D01*
X96004895Y-113621553D01*
X95994874Y-113629238D01*
X92739922Y-116207675D01*
X92738847Y-116208561D01*
X92737728Y-116209425D01*
X92728176Y-116217352D01*
X92728010Y-116217489D01*
X92727980Y-116217515D01*
X89574438Y-118918977D01*
X89573409Y-118919893D01*
X89572312Y-118920810D01*
X89562911Y-118929241D01*
X86515368Y-121749795D01*
X86514361Y-121750764D01*
X86513315Y-121751708D01*
X86504525Y-121760223D01*
X86504243Y-121760494D01*
X86504192Y-121760547D01*
X83567221Y-124695959D01*
X83566259Y-124696958D01*
X83565243Y-124697949D01*
X83556516Y-124707077D01*
X80759753Y-127725700D01*
X80745625Y-127737060D01*
X80741642Y-127741015D01*
X80737707Y-127744979D01*
X80726620Y-127758575D01*
X80714120Y-127770901D01*
X80710558Y-127775239D01*
X80612300Y-127896577D01*
X80592250Y-127926984D01*
X80571763Y-127957130D01*
X80569110Y-127962077D01*
X80511458Y-128071424D01*
X80480608Y-128102274D01*
X80390103Y-128237724D01*
X80327762Y-128388228D01*
X80295980Y-128548003D01*
X75261991Y-128548003D01*
X73847175Y-127133187D01*
X73827296Y-127102576D01*
X73823896Y-127098377D01*
X73724105Y-126976891D01*
X73667740Y-126871771D01*
X73632869Y-126757711D01*
X73620814Y-126639041D01*
X73632039Y-126520299D01*
X73666113Y-126405998D01*
X73721743Y-126300487D01*
X73820684Y-126178305D01*
X73827025Y-126168689D01*
X73847200Y-126143949D01*
X73850990Y-126136820D01*
X74571887Y-125415923D01*
X78188787Y-125415923D01*
X78188787Y-125697017D01*
X78243625Y-125972711D01*
X78351196Y-126232408D01*
X78507363Y-126466130D01*
X78706127Y-126664894D01*
X78939849Y-126821061D01*
X79199546Y-126928632D01*
X79475240Y-126983470D01*
X79756334Y-126983470D01*
X80032028Y-126928632D01*
X80291725Y-126821061D01*
X80525447Y-126664894D01*
X80724211Y-126466130D01*
X80880378Y-126232408D01*
X80987949Y-125972711D01*
X81042787Y-125697017D01*
X81042787Y-125415923D01*
X80987949Y-125140229D01*
X80880378Y-124880532D01*
X80724211Y-124646810D01*
X80525447Y-124448046D01*
X80291725Y-124291879D01*
X80032028Y-124184308D01*
X79756334Y-124129470D01*
X79475240Y-124129470D01*
X79199546Y-124184308D01*
X78939849Y-124291879D01*
X78706127Y-124448046D01*
X78507363Y-124646810D01*
X78351196Y-124880532D01*
X78243625Y-125140229D01*
X78188787Y-125415923D01*
X74571887Y-125415923D01*
X80876849Y-119110962D01*
X82331793Y-117708459D01*
X85896251Y-117708459D01*
X85896251Y-117989553D01*
X85951089Y-118265247D01*
X86058660Y-118524944D01*
X86214827Y-118758666D01*
X86413591Y-118957430D01*
X86647313Y-119113597D01*
X86907010Y-119221168D01*
X87182704Y-119276006D01*
X87463798Y-119276006D01*
X87739492Y-119221168D01*
X87999189Y-119113597D01*
X88232911Y-118957430D01*
X88431675Y-118758666D01*
X88587842Y-118524944D01*
X88695413Y-118265247D01*
X88750251Y-117989553D01*
X88750251Y-117708459D01*
X88695413Y-117432765D01*
X88587842Y-117173068D01*
X88431675Y-116939346D01*
X88232911Y-116740582D01*
X87999189Y-116584415D01*
X87739492Y-116476844D01*
X87463798Y-116422006D01*
X87182704Y-116422006D01*
X86907010Y-116476844D01*
X86647313Y-116584415D01*
X86413591Y-116740582D01*
X86214827Y-116939346D01*
X86058660Y-117173068D01*
X85951089Y-117432765D01*
X85896251Y-117708459D01*
X82331793Y-117708459D01*
X83897581Y-116199108D01*
X87020414Y-113402204D01*
X90243640Y-110721611D01*
X93562920Y-108160932D01*
X95618987Y-106691721D01*
X100253544Y-106691721D01*
X100253544Y-106972815D01*
X100308382Y-107248509D01*
X100415953Y-107508206D01*
X100572120Y-107741928D01*
X100770884Y-107940692D01*
X101004606Y-108096859D01*
X101264303Y-108204430D01*
X101539997Y-108259268D01*
X101821091Y-108259268D01*
X102096785Y-108204430D01*
X102356482Y-108096859D01*
X102590204Y-107940692D01*
X102788968Y-107741928D01*
X102945135Y-107508206D01*
X103052706Y-107248509D01*
X103107544Y-106972815D01*
X103107544Y-106691721D01*
X103052706Y-106416027D01*
X102945135Y-106156330D01*
X102788968Y-105922608D01*
X102590204Y-105723844D01*
X102356482Y-105567677D01*
X102096785Y-105460106D01*
X101821091Y-105405268D01*
X101539997Y-105405268D01*
X101264303Y-105460106D01*
X101004606Y-105567677D01*
X100770884Y-105723844D01*
X100572120Y-105922608D01*
X100415953Y-106156330D01*
X100308382Y-106416027D01*
X100253544Y-106691721D01*
X95618987Y-106691721D01*
X96973819Y-105723595D01*
X100473895Y-103411458D01*
X101343658Y-102864987D01*
X101343685Y-102864970D01*
X101348053Y-102862183D01*
X101378813Y-102842258D01*
X101393880Y-102830259D01*
X101409998Y-102819718D01*
X101414079Y-102816392D01*
X101564492Y-102692031D01*
X101588575Y-102667793D01*
X101612994Y-102643894D01*
X101616345Y-102639845D01*
X101616352Y-102639838D01*
X101616357Y-102639830D01*
X101739745Y-102488632D01*
X101758663Y-102460176D01*
X101777974Y-102431989D01*
X101780480Y-102427359D01*
X101872154Y-102255064D01*
X101885173Y-102223502D01*
X101898653Y-102192075D01*
X101900211Y-102187047D01*
X101956674Y-102000227D01*
X101963320Y-101966711D01*
X101970434Y-101933288D01*
X101970986Y-101928053D01*
X101990086Y-101733824D01*
X101991896Y-101715448D01*
X101991896Y-101241721D01*
X109693220Y-101241721D01*
X109693220Y-101522815D01*
X109748058Y-101798509D01*
X109855629Y-102058206D01*
X110011796Y-102291928D01*
X110210560Y-102490692D01*
X110444282Y-102646859D01*
X110703979Y-102754430D01*
X110979673Y-102809268D01*
X111260767Y-102809268D01*
X111536461Y-102754430D01*
X111796158Y-102646859D01*
X112029880Y-102490692D01*
X112228644Y-102291928D01*
X112384811Y-102058206D01*
X112492382Y-101798509D01*
X112547220Y-101522815D01*
X112547220Y-101241721D01*
X112492382Y-100966027D01*
X112384811Y-100706330D01*
X112228644Y-100472608D01*
X112029880Y-100273844D01*
X111796158Y-100117677D01*
X111536461Y-100010106D01*
X111260767Y-99955268D01*
X110979673Y-99955268D01*
X110703979Y-100010106D01*
X110444282Y-100117677D01*
X110210560Y-100273844D01*
X110011796Y-100472608D01*
X109855629Y-100706330D01*
X109748058Y-100966027D01*
X109693220Y-101241721D01*
X101991896Y-101241721D01*
X101991896Y-98780660D01*
X103273000Y-98780660D01*
X103273000Y-99219340D01*
X103358582Y-99649592D01*
X103526458Y-100054880D01*
X103770176Y-100419630D01*
X104080370Y-100729824D01*
X104445120Y-100973542D01*
X104850408Y-101141418D01*
X105280660Y-101227000D01*
X105719340Y-101227000D01*
X106149592Y-101141418D01*
X106554880Y-100973542D01*
X106919630Y-100729824D01*
X107229824Y-100419630D01*
X107473542Y-100054880D01*
X107641418Y-99649592D01*
X107727000Y-99219340D01*
X107727000Y-98780660D01*
X107641418Y-98350408D01*
X107473542Y-97945120D01*
X107229824Y-97580370D01*
X106919630Y-97270176D01*
X106554880Y-97026458D01*
X106149592Y-96858582D01*
X105719340Y-96773000D01*
X105280660Y-96773000D01*
X104850408Y-96858582D01*
X104445120Y-97026458D01*
X104080370Y-97270176D01*
X103770176Y-97580370D01*
X103526458Y-97945120D01*
X103358582Y-98350408D01*
X103273000Y-98780660D01*
X101991896Y-98780660D01*
X101991896Y-85949202D01*
X102026426Y-86000880D01*
X102336620Y-86311074D01*
X102701370Y-86554792D01*
X103106658Y-86722668D01*
X103536910Y-86808250D01*
X103975590Y-86808250D01*
X104405842Y-86722668D01*
X104811130Y-86554792D01*
X105175880Y-86311074D01*
X105486074Y-86000880D01*
X105729792Y-85636130D01*
X105897668Y-85230842D01*
X105983250Y-84800590D01*
X105983250Y-84361910D01*
X117816750Y-84361910D01*
X117816750Y-84800590D01*
X117902332Y-85230842D01*
X118070208Y-85636130D01*
X118313926Y-86000880D01*
X118624120Y-86311074D01*
X118988870Y-86554792D01*
X119394158Y-86722668D01*
X119824410Y-86808250D01*
X120263090Y-86808250D01*
X120693342Y-86722668D01*
X121098630Y-86554792D01*
X121463380Y-86311074D01*
X121773574Y-86000880D01*
X122017292Y-85636130D01*
X122185168Y-85230842D01*
X122270750Y-84800590D01*
X122270750Y-84361910D01*
X122185168Y-83931658D01*
X122017292Y-83526370D01*
X121773574Y-83161620D01*
X121463380Y-82851426D01*
X121098630Y-82607708D01*
X120693342Y-82439832D01*
X120263090Y-82354250D01*
X119824410Y-82354250D01*
X119394158Y-82439832D01*
X118988870Y-82607708D01*
X118624120Y-82851426D01*
X118313926Y-83161620D01*
X118070208Y-83526370D01*
X117902332Y-83931658D01*
X117816750Y-84361910D01*
X105983250Y-84361910D01*
X105897668Y-83931658D01*
X105729792Y-83526370D01*
X105486074Y-83161620D01*
X105175880Y-82851426D01*
X104811130Y-82607708D01*
X104405842Y-82439832D01*
X103975590Y-82354250D01*
X103536910Y-82354250D01*
X103106658Y-82439832D01*
X102701370Y-82607708D01*
X102336620Y-82851426D01*
X102026426Y-83161620D01*
X101991896Y-83213298D01*
X101991896Y-69280452D01*
X102026426Y-69332130D01*
X102336620Y-69642324D01*
X102701370Y-69886042D01*
X103106658Y-70053918D01*
X103536910Y-70139500D01*
X103975590Y-70139500D01*
X104405842Y-70053918D01*
X104811130Y-69886042D01*
X105175880Y-69642324D01*
X105486074Y-69332130D01*
X105729792Y-68967380D01*
X105857147Y-68659919D01*
X105932759Y-68682747D01*
X105967181Y-68689563D01*
X106001474Y-68696852D01*
X106006841Y-68697416D01*
X106006850Y-68697418D01*
X106006858Y-68697418D01*
X106162235Y-68712653D01*
X106162240Y-68712653D01*
X106180993Y-68714500D01*
X117619007Y-68714500D01*
X117635724Y-68712854D01*
X117640662Y-68712888D01*
X117646039Y-68712361D01*
X117801316Y-68696040D01*
X117835717Y-68688979D01*
X117870127Y-68682415D01*
X117875294Y-68680855D01*
X117875303Y-68680853D01*
X117875311Y-68680849D01*
X117942862Y-68659939D01*
X118070208Y-68967380D01*
X118313926Y-69332130D01*
X118624120Y-69642324D01*
X118988870Y-69886042D01*
X119394158Y-70053918D01*
X119824410Y-70139500D01*
X120263090Y-70139500D01*
X120693342Y-70053918D01*
X121098630Y-69886042D01*
X121463380Y-69642324D01*
X121773574Y-69332130D01*
X122017292Y-68967380D01*
X122185168Y-68562092D01*
X122270750Y-68131840D01*
X122270750Y-67693160D01*
X122185168Y-67262908D01*
X122017292Y-66857620D01*
X121773574Y-66492870D01*
X121463380Y-66182676D01*
X121098630Y-65938958D01*
X120693342Y-65771082D01*
X120263090Y-65685500D01*
X119824410Y-65685500D01*
X119394158Y-65771082D01*
X118988870Y-65938958D01*
X118787000Y-66073843D01*
X118787000Y-31996157D01*
X118988870Y-32131042D01*
X119394158Y-32298918D01*
X119824410Y-32384500D01*
X120263090Y-32384500D01*
X120693342Y-32298918D01*
X121098630Y-32131042D01*
X121463380Y-31887324D01*
X121773574Y-31577130D01*
X122017292Y-31212380D01*
X122185168Y-30807092D01*
X122270750Y-30376840D01*
X122270750Y-29938160D01*
X122185168Y-29507908D01*
X122017292Y-29102620D01*
X121773574Y-28737870D01*
X121463380Y-28427676D01*
X121098630Y-28183958D01*
X120693342Y-28016082D01*
X120263090Y-27930500D01*
X119824410Y-27930500D01*
X119394158Y-28016082D01*
X118988870Y-28183958D01*
X118624120Y-28427676D01*
X118313926Y-28737870D01*
X118102325Y-29054554D01*
X118086542Y-29046162D01*
X118054082Y-29032783D01*
X118021872Y-29018978D01*
X118016711Y-29017380D01*
X117867242Y-28972253D01*
X117832798Y-28965433D01*
X117798525Y-28958148D01*
X117793161Y-28957584D01*
X117793151Y-28957582D01*
X117793142Y-28957582D01*
X117637765Y-28942347D01*
X117637760Y-28942347D01*
X117619007Y-28940500D01*
X106180993Y-28940500D01*
X106164276Y-28942146D01*
X106159338Y-28942112D01*
X106153960Y-28942639D01*
X105998684Y-28958960D01*
X105964246Y-28966029D01*
X105929873Y-28972586D01*
X105924706Y-28974145D01*
X105924697Y-28974147D01*
X105924689Y-28974151D01*
X105775550Y-29020316D01*
X105743186Y-29033920D01*
X105710691Y-29047049D01*
X105705926Y-29049582D01*
X105705922Y-29049584D01*
X105705921Y-29049585D01*
X105697425Y-29054179D01*
X105486074Y-28737870D01*
X105175880Y-28427676D01*
X104811130Y-28183958D01*
X104405842Y-28016082D01*
X104336409Y-28002271D01*
X106543664Y-27262557D01*
X111388132Y-25788160D01*
X116271858Y-24449607D01*
X121191068Y-23247936D01*
X126141909Y-22184086D01*
X130145739Y-21440035D01*
X154916750Y-21440035D01*
X154916750Y-21878715D01*
X155002332Y-22308967D01*
X155170208Y-22714255D01*
X155413926Y-23079005D01*
X155724120Y-23389199D01*
X156088870Y-23632917D01*
X156494158Y-23800793D01*
X156924410Y-23886375D01*
X157363090Y-23886375D01*
X157793342Y-23800793D01*
X158198630Y-23632917D01*
X158563380Y-23389199D01*
X158873574Y-23079005D01*
X159117292Y-22714255D01*
X159285168Y-22308967D01*
X159370750Y-21878715D01*
X159370750Y-21440035D01*
X159285168Y-21009783D01*
X159117292Y-20604495D01*
X158873574Y-20239745D01*
X158563380Y-19929551D01*
X158198630Y-19685833D01*
X157793342Y-19517957D01*
X157363090Y-19432375D01*
X156924410Y-19432375D01*
X156494158Y-19517957D01*
X156088870Y-19685833D01*
X155724120Y-19929551D01*
X155413926Y-20239745D01*
X155170208Y-20604495D01*
X155002332Y-21009783D01*
X154916750Y-21440035D01*
X130145739Y-21440035D01*
X131120530Y-21258885D01*
X136123054Y-20473055D01*
X141145539Y-19827213D01*
X146184135Y-19321855D01*
X151234853Y-18957382D01*
X156293760Y-18734076D01*
X161356993Y-18652110D01*
X166420503Y-18711548D01*
G37*
%TD.AperFunction*%
D11*
X105013000Y-66073843D02*
X104811130Y-65938958D01*
X104405842Y-65771082D01*
X103975590Y-65685500D01*
X103536910Y-65685500D01*
X103106658Y-65771082D01*
X102701370Y-65938958D01*
X102336620Y-66182676D01*
X102026426Y-66492870D01*
X101991896Y-66544548D01*
X101991896Y-42887252D01*
X101991832Y-42886603D01*
X101991822Y-42883704D01*
X101990157Y-42867311D01*
X101990272Y-42850843D01*
X101989759Y-42845604D01*
X101929096Y-42268438D01*
X101922225Y-42234967D01*
X101915822Y-42201402D01*
X101914301Y-42196363D01*
X101742688Y-41641972D01*
X101729462Y-41610510D01*
X101716647Y-41578792D01*
X101714175Y-41574144D01*
X101438150Y-41063644D01*
X101419032Y-41035300D01*
X101400332Y-41006725D01*
X101397005Y-41002645D01*
X101027079Y-40555482D01*
X101002845Y-40531417D01*
X100978927Y-40506993D01*
X100974871Y-40503637D01*
X100525136Y-40136842D01*
X100496669Y-40117928D01*
X100468482Y-40098629D01*
X100463852Y-40096125D01*
X100053905Y-39878152D01*
X100134390Y-39862143D01*
X101067444Y-39475659D01*
X101907171Y-38914572D01*
X102621300Y-38200443D01*
X103182387Y-37360716D01*
X103568871Y-36427662D01*
X103765899Y-35437136D01*
X103765899Y-34427206D01*
X103568871Y-33436680D01*
X103182387Y-32503626D01*
X103022242Y-32263952D01*
X103106658Y-32298918D01*
X103536910Y-32384500D01*
X103975590Y-32384500D01*
X104405842Y-32298918D01*
X104811130Y-32131042D01*
X105013001Y-31996156D01*
X105013000Y-66073843D01*
%TA.AperFunction,NonConductor*%
D12*
G36*
X105013000Y-66073843D02*
G01*
X104811130Y-65938958D01*
X104405842Y-65771082D01*
X103975590Y-65685500D01*
X103536910Y-65685500D01*
X103106658Y-65771082D01*
X102701370Y-65938958D01*
X102336620Y-66182676D01*
X102026426Y-66492870D01*
X101991896Y-66544548D01*
X101991896Y-42887252D01*
X101991832Y-42886603D01*
X101991822Y-42883704D01*
X101990157Y-42867311D01*
X101990272Y-42850843D01*
X101989759Y-42845604D01*
X101929096Y-42268438D01*
X101922225Y-42234967D01*
X101915822Y-42201402D01*
X101914301Y-42196363D01*
X101742688Y-41641972D01*
X101729462Y-41610510D01*
X101716647Y-41578792D01*
X101714175Y-41574144D01*
X101438150Y-41063644D01*
X101419032Y-41035300D01*
X101400332Y-41006725D01*
X101397005Y-41002645D01*
X101027079Y-40555482D01*
X101002845Y-40531417D01*
X100978927Y-40506993D01*
X100974871Y-40503637D01*
X100525136Y-40136842D01*
X100496669Y-40117928D01*
X100468482Y-40098629D01*
X100463852Y-40096125D01*
X100053905Y-39878152D01*
X100134390Y-39862143D01*
X101067444Y-39475659D01*
X101907171Y-38914572D01*
X102621300Y-38200443D01*
X103182387Y-37360716D01*
X103568871Y-36427662D01*
X103765899Y-35437136D01*
X103765899Y-34427206D01*
X103568871Y-33436680D01*
X103182387Y-32503626D01*
X103022242Y-32263952D01*
X103106658Y-32298918D01*
X103536910Y-32384500D01*
X103975590Y-32384500D01*
X104405842Y-32298918D01*
X104811130Y-32131042D01*
X105013001Y-31996156D01*
X105013000Y-66073843D01*
G37*
%TD.AperFunction*%
M02*
