%FSLAX45Y45*%
G04 Gerber Fmt 4.5, Leading zero omitted, Abs format (unit mm)*
G04 Created by KiCad (PCBNEW 5.1.12-84ad8e8a86~92~ubuntu20.04.1) date 2021-11-17 01:50:05*
%MOMM*%
%LPD*%
G01*
G04 APERTURE LIST*
%TA.AperFunction,Profile*%
%ADD10C,0.150000*%
%TD*%
%TA.AperFunction,Profile*%
%ADD11C,0.120000*%
%TD*%
%TA.AperFunction,Profile*%
%ADD12C,0.100000*%
%TD*%
%ADD13C,0.200000*%
%ADD14C,0.300000*%
G04 APERTURE END LIST*
D10*
X13795000Y-10934236D02*
X13944459Y-11368295D01*
X8082945Y-12825108D02*
G75*
G02*
X12395000Y-9866650I8093093J-7174252D01*
G01*
X15476000Y-11112000D02*
X18110000Y-11112000D01*
X19510000Y-12462000D02*
G75*
G02*
X19460000Y-12512000I-50000J0D01*
G01*
X13944459Y-11368296D02*
G75*
G02*
X15476000Y-11112000I2231579J-8631064D01*
G01*
X16176000Y-12512000D02*
X19460000Y-12512000D01*
X10881874Y-14704798D02*
G75*
G02*
X16176000Y-12512000I5294164J-5294562D01*
G01*
X12395000Y-3586000D02*
X12395000Y-9866650D01*
X13795000Y-10934236D02*
X13795000Y-3586000D01*
X14300000Y-3286000D02*
X14300000Y-9905000D01*
X15700000Y-9905000D02*
X15700000Y-3286000D01*
X16205000Y-3190000D02*
X16205000Y-9907000D01*
X17605000Y-9907000D02*
X17605000Y-3190000D01*
X18110000Y-3294000D02*
X18110000Y-11112000D01*
X19510000Y-12462000D02*
X19510000Y-3294000D01*
X20015000Y-3602000D02*
X20015000Y-11812000D01*
X21415000Y-11812000D02*
X21415000Y-3602000D01*
X21920000Y-5120000D02*
X21920000Y-11812000D01*
X23320000Y-11812000D02*
X23320000Y-5120000D01*
D11*
X7352485Y-12734402D02*
G75*
G02*
X7352485Y-12592980I70711J70711D01*
G01*
D12*
X9510337Y-14892253D02*
G75*
G02*
X9510337Y-15599360I-353553J-353553D01*
G01*
X10217443Y-16306467D02*
G75*
G02*
X9510337Y-15599360I-353553J353553D01*
G01*
X9864130Y-3993217D02*
G75*
G02*
X10161490Y-4290577I0J-297360D01*
G01*
X9864130Y-3993217D02*
G75*
G02*
X9685297Y-3026200I-240J500000D01*
G01*
X22222038Y-13174000D02*
G75*
G02*
X22722038Y-13674000I0J-500000D01*
G01*
X23722038Y-13674000D02*
G75*
G02*
X22722038Y-13674000I-500000J0D01*
G01*
X10161490Y-10169693D02*
G75*
G02*
X10114309Y-10254577I-100000J29D01*
G01*
X10161490Y-4290577D02*
X10161490Y-10169693D01*
X23421413Y-3334354D02*
G75*
G02*
X23722038Y-3792884I-199375J-458530D01*
G01*
X9685297Y-3026200D02*
G75*
G02*
X23421413Y-3334354I6490741J-16973160D01*
G01*
X8061271Y-11884194D02*
G75*
G02*
X10114309Y-10254577I8114767J-8115166D01*
G01*
X7352485Y-12592980D02*
X8061271Y-11884194D01*
X9510337Y-14892253D02*
X7352485Y-12734402D01*
X11350034Y-15173356D02*
X10217443Y-16306467D01*
X11350034Y-15173356D02*
G75*
G02*
X16176038Y-13174360I4826004J-4826004D01*
G01*
X16176038Y-13174360D02*
X22222038Y-13174000D01*
X23722038Y-3792884D02*
X23722038Y-13674000D01*
D13*
X8062499Y-12832945D02*
X8122499Y-12892945D01*
X8122499Y-12832945D02*
X8062499Y-12892945D01*
X10357061Y-15127507D02*
X10417061Y-15187507D01*
X10417061Y-15127507D02*
X10357061Y-15187507D01*
X12395000Y-2886000D02*
X12455000Y-2946000D01*
X12455000Y-2886000D02*
X12395000Y-2946000D01*
X13735000Y-2886000D02*
X13795000Y-2946000D01*
X13795000Y-2886000D02*
X13735000Y-2946000D01*
X14300000Y-2586000D02*
X14360000Y-2646000D01*
X14360000Y-2586000D02*
X14300000Y-2646000D01*
X14300000Y-10545000D02*
X14360000Y-10605000D01*
X14360000Y-10545000D02*
X14300000Y-10605000D01*
X15640000Y-2586000D02*
X15700000Y-2646000D01*
X15700000Y-2586000D02*
X15640000Y-2646000D01*
X15640000Y-10545000D02*
X15700000Y-10605000D01*
X15700000Y-10545000D02*
X15640000Y-10605000D01*
X16205000Y-2490000D02*
X16265000Y-2550000D01*
X16265000Y-2490000D02*
X16205000Y-2550000D01*
X16205000Y-10547000D02*
X16265000Y-10607000D01*
X16265000Y-10547000D02*
X16205000Y-10607000D01*
X17545000Y-2490000D02*
X17605000Y-2550000D01*
X17605000Y-2490000D02*
X17545000Y-2550000D01*
X17545000Y-10547000D02*
X17605000Y-10607000D01*
X17605000Y-10547000D02*
X17545000Y-10607000D01*
X18110000Y-2594000D02*
X18170000Y-2654000D01*
X18170000Y-2594000D02*
X18110000Y-2654000D01*
X19450000Y-2594000D02*
X19510000Y-2654000D01*
X19510000Y-2594000D02*
X19450000Y-2654000D01*
X19450000Y-12452000D02*
X19510000Y-12512000D01*
X19510000Y-12452000D02*
X19450000Y-12512000D01*
X20015000Y-2902000D02*
X20075000Y-2962000D01*
X20075000Y-2902000D02*
X20015000Y-2962000D01*
X20015000Y-12452000D02*
X20075000Y-12512000D01*
X20075000Y-12452000D02*
X20015000Y-12512000D01*
X21355000Y-2902000D02*
X21415000Y-2962000D01*
X21415000Y-2902000D02*
X21355000Y-2962000D01*
X21355000Y-12452000D02*
X21415000Y-12512000D01*
X21415000Y-12452000D02*
X21355000Y-12512000D01*
X21920000Y-4420000D02*
X21980000Y-4480000D01*
X21980000Y-4420000D02*
X21920000Y-4480000D01*
X21920000Y-12452000D02*
X21980000Y-12512000D01*
X21980000Y-12452000D02*
X21920000Y-12512000D01*
X23260000Y-4420000D02*
X23320000Y-4480000D01*
X23320000Y-4420000D02*
X23260000Y-4480000D01*
X23260000Y-12452000D02*
X23320000Y-12512000D01*
X23320000Y-12452000D02*
X23260000Y-12512000D01*
X21965625Y-3334062D02*
G75*
G03*
X21965625Y-3334062I-60000J0D01*
G01*
X22441875Y-3810312D02*
G75*
G03*
X22441875Y-3810312I-60000J0D01*
G01*
X10375625Y-2915750D02*
X10375625Y-3115750D01*
X10275625Y-3015750D02*
X10475625Y-3015750D01*
X10375625Y-6691250D02*
X10375625Y-6891250D01*
X10275625Y-6791250D02*
X10475625Y-6791250D01*
X10375625Y-8358125D02*
X10375625Y-8558125D01*
X10275625Y-8458125D02*
X10475625Y-8458125D01*
X10550000Y-9800000D02*
X10550000Y-10000000D01*
X10450000Y-9900000D02*
X10650000Y-9900000D01*
X12004375Y-2915750D02*
X12004375Y-3115750D01*
X11904375Y-3015750D02*
X12104375Y-3015750D01*
X12004375Y-6691250D02*
X12004375Y-6891250D01*
X11904375Y-6791250D02*
X12104375Y-6791250D01*
X12004375Y-8358125D02*
X12004375Y-8558125D01*
X11904375Y-8458125D02*
X12104375Y-8458125D01*
X14479344Y-10892081D02*
X14479344Y-11092081D01*
X14379344Y-10992081D02*
X14579344Y-10992081D01*
X15692375Y-10757500D02*
X15692375Y-10957500D01*
X15592375Y-10857500D02*
X15792375Y-10857500D01*
X15714375Y-2065937D02*
X15714375Y-2265938D01*
X15614375Y-2165938D02*
X15814375Y-2165938D01*
X17597375Y-10759500D02*
X17597375Y-10959500D01*
X17497375Y-10859500D02*
X17697375Y-10859500D01*
X8039361Y-12633429D02*
X8039361Y-12477864D01*
X7883796Y-12477864D01*
X7883796Y-12633429D01*
X8039361Y-12633429D01*
X8810108Y-11862683D02*
X8810108Y-11707118D01*
X8654543Y-11707118D01*
X8654543Y-11862683D01*
X8810108Y-11862683D01*
X9386400Y-13980468D02*
X9386400Y-13824903D01*
X9230835Y-13824903D01*
X9230835Y-13980468D01*
X9386400Y-13980468D01*
X9425290Y-14019359D02*
X9425290Y-13863794D01*
X9269725Y-13863794D01*
X9269725Y-14019359D01*
X9425290Y-14019359D01*
X10157146Y-13209721D02*
X10157146Y-13054156D01*
X10001581Y-13054156D01*
X10001581Y-13209721D01*
X10157146Y-13209721D01*
X10196037Y-13248612D02*
X10196037Y-13093047D01*
X10040472Y-13093047D01*
X10040472Y-13248612D01*
X10196037Y-13248612D01*
X10245837Y-10761009D02*
X10245837Y-10605444D01*
X10090272Y-10605444D01*
X10090272Y-10761009D01*
X10245837Y-10761009D01*
X10772329Y-15366397D02*
X10772329Y-15210832D01*
X10616764Y-15210832D01*
X10616764Y-15366397D01*
X10772329Y-15366397D01*
X11189804Y-10216009D02*
X11189804Y-10060444D01*
X11034240Y-10060444D01*
X11034240Y-10216009D01*
X11189804Y-10216009D01*
X11198337Y-12410788D02*
X11198337Y-12255223D01*
X11042772Y-12255223D01*
X11042772Y-12410788D01*
X11198337Y-12410788D01*
X11225837Y-12458419D02*
X11225837Y-12302854D01*
X11070272Y-12302854D01*
X11070272Y-12458419D01*
X11225837Y-12458419D01*
X11543075Y-14595651D02*
X11543075Y-14440086D01*
X11387510Y-14440086D01*
X11387510Y-14595651D01*
X11543075Y-14595651D01*
X12142304Y-11865788D02*
X12142304Y-11710223D01*
X11986739Y-11710223D01*
X11986739Y-11865788D01*
X12142304Y-11865788D01*
X12169804Y-11913419D02*
X12169804Y-11757854D01*
X12014239Y-11757854D01*
X12014239Y-11913419D01*
X12169804Y-11913419D01*
X12178337Y-14108197D02*
X12178337Y-13952632D01*
X12022772Y-13952632D01*
X12022772Y-14108197D01*
X12178337Y-14108197D01*
X13122304Y-13563197D02*
X13122304Y-13407632D01*
X12966739Y-13407632D01*
X12966739Y-13563197D01*
X13122304Y-13563197D01*
X13492021Y-11319096D02*
X13492021Y-11163531D01*
X13336456Y-11163531D01*
X13336456Y-11319096D01*
X13492021Y-11319096D01*
X13969507Y-13220045D02*
X13969507Y-13064480D01*
X13813942Y-13064480D01*
X13813942Y-13220045D01*
X13969507Y-13220045D01*
X15026667Y-12954505D02*
X15026667Y-12798940D01*
X14871102Y-12798940D01*
X14871102Y-12954505D01*
X15026667Y-12954505D01*
X22143750Y-3697187D02*
X22268750Y-3572187D01*
X22143750Y-3447187D01*
X22018750Y-3572187D01*
X22143750Y-3697187D01*
X9598890Y-3228217D02*
X10128890Y-3758217D01*
X10128890Y-3228217D02*
X9598890Y-3758217D01*
X10128890Y-3493217D02*
G75*
G03*
X10128890Y-3493217I-265000J0D01*
G01*
X9598890Y-15687914D02*
X10128890Y-16217914D01*
X10128890Y-15687914D02*
X9598890Y-16217914D01*
X10128890Y-15952914D02*
G75*
G03*
X10128890Y-15952914I-265000J0D01*
G01*
X22957038Y-3527884D02*
X23487038Y-4057884D01*
X23487038Y-3527884D02*
X22957038Y-4057884D01*
X23487038Y-3792884D02*
G75*
G03*
X23487038Y-3792884I-265000J0D01*
G01*
X22957038Y-13409000D02*
X23487038Y-13939000D01*
X23487038Y-13409000D02*
X22957038Y-13939000D01*
X23487038Y-13674000D02*
G75*
G03*
X23487038Y-13674000I-265000J0D01*
G01*
D14*
X7603624Y-16923628D02*
X7603624Y-16623628D01*
X7675052Y-16623628D01*
X7717910Y-16637914D01*
X7746481Y-16666485D01*
X7760767Y-16695057D01*
X7775052Y-16752199D01*
X7775052Y-16795057D01*
X7760767Y-16852200D01*
X7746481Y-16880771D01*
X7717910Y-16909342D01*
X7675052Y-16923628D01*
X7603624Y-16923628D01*
X7903624Y-16923628D02*
X7903624Y-16723628D01*
X7903624Y-16780771D02*
X7917910Y-16752199D01*
X7932195Y-16737914D01*
X7960767Y-16723628D01*
X7989338Y-16723628D01*
X8089338Y-16923628D02*
X8089338Y-16723628D01*
X8089338Y-16623628D02*
X8075052Y-16637914D01*
X8089338Y-16652199D01*
X8103624Y-16637914D01*
X8089338Y-16623628D01*
X8089338Y-16652199D01*
X8275052Y-16923628D02*
X8246481Y-16909342D01*
X8232195Y-16880771D01*
X8232195Y-16623628D01*
X8432195Y-16923628D02*
X8403624Y-16909342D01*
X8389338Y-16880771D01*
X8389338Y-16623628D01*
X8775053Y-16923628D02*
X8775053Y-16623628D01*
X8875053Y-16837914D01*
X8975053Y-16623628D01*
X8975053Y-16923628D01*
X9246481Y-16923628D02*
X9246481Y-16766485D01*
X9232195Y-16737914D01*
X9203624Y-16723628D01*
X9146481Y-16723628D01*
X9117910Y-16737914D01*
X9246481Y-16909342D02*
X9217910Y-16923628D01*
X9146481Y-16923628D01*
X9117910Y-16909342D01*
X9103624Y-16880771D01*
X9103624Y-16852200D01*
X9117910Y-16823628D01*
X9146481Y-16809342D01*
X9217910Y-16809342D01*
X9246481Y-16795057D01*
X9389338Y-16723628D02*
X9389338Y-17023628D01*
X9389338Y-16737914D02*
X9417910Y-16723628D01*
X9475053Y-16723628D01*
X9503624Y-16737914D01*
X9517910Y-16752199D01*
X9532195Y-16780771D01*
X9532195Y-16866485D01*
X9517910Y-16895057D01*
X9503624Y-16909342D01*
X9475053Y-16923628D01*
X9417910Y-16923628D01*
X9389338Y-16909342D01*
X9660767Y-16895057D02*
X9675053Y-16909342D01*
X9660767Y-16923628D01*
X9646481Y-16909342D01*
X9660767Y-16895057D01*
X9660767Y-16923628D01*
X9660767Y-16737914D02*
X9675053Y-16752199D01*
X9660767Y-16766485D01*
X9646481Y-16752199D01*
X9660767Y-16737914D01*
X9660767Y-16766485D01*
X7257195Y-17387914D02*
X7317195Y-17447914D01*
X7317195Y-17387914D02*
X7257195Y-17447914D01*
X7660767Y-17253628D02*
X7689338Y-17253628D01*
X7717910Y-17267914D01*
X7732195Y-17282200D01*
X7746481Y-17310771D01*
X7760767Y-17367914D01*
X7760767Y-17439342D01*
X7746481Y-17496485D01*
X7732195Y-17525057D01*
X7717910Y-17539342D01*
X7689338Y-17553628D01*
X7660767Y-17553628D01*
X7632195Y-17539342D01*
X7617910Y-17525057D01*
X7603624Y-17496485D01*
X7589338Y-17439342D01*
X7589338Y-17367914D01*
X7603624Y-17310771D01*
X7617910Y-17282200D01*
X7632195Y-17267914D01*
X7660767Y-17253628D01*
X7889338Y-17525057D02*
X7903624Y-17539342D01*
X7889338Y-17553628D01*
X7875052Y-17539342D01*
X7889338Y-17525057D01*
X7889338Y-17553628D01*
X8160767Y-17253628D02*
X8103624Y-17253628D01*
X8075052Y-17267914D01*
X8060767Y-17282200D01*
X8032195Y-17325057D01*
X8017910Y-17382200D01*
X8017910Y-17496485D01*
X8032195Y-17525057D01*
X8046481Y-17539342D01*
X8075052Y-17553628D01*
X8132195Y-17553628D01*
X8160767Y-17539342D01*
X8175052Y-17525057D01*
X8189338Y-17496485D01*
X8189338Y-17425057D01*
X8175052Y-17396485D01*
X8160767Y-17382200D01*
X8132195Y-17367914D01*
X8075052Y-17367914D01*
X8046481Y-17382200D01*
X8032195Y-17396485D01*
X8017910Y-17425057D01*
X8375052Y-17253628D02*
X8403624Y-17253628D01*
X8432195Y-17267914D01*
X8446481Y-17282200D01*
X8460767Y-17310771D01*
X8475053Y-17367914D01*
X8475053Y-17439342D01*
X8460767Y-17496485D01*
X8446481Y-17525057D01*
X8432195Y-17539342D01*
X8403624Y-17553628D01*
X8375052Y-17553628D01*
X8346481Y-17539342D01*
X8332195Y-17525057D01*
X8317910Y-17496485D01*
X8303624Y-17439342D01*
X8303624Y-17367914D01*
X8317910Y-17310771D01*
X8332195Y-17282200D01*
X8346481Y-17267914D01*
X8375052Y-17253628D01*
X8660767Y-17253628D02*
X8689338Y-17253628D01*
X8717910Y-17267914D01*
X8732195Y-17282200D01*
X8746481Y-17310771D01*
X8760767Y-17367914D01*
X8760767Y-17439342D01*
X8746481Y-17496485D01*
X8732195Y-17525057D01*
X8717910Y-17539342D01*
X8689338Y-17553628D01*
X8660767Y-17553628D01*
X8632195Y-17539342D01*
X8617910Y-17525057D01*
X8603624Y-17496485D01*
X8589338Y-17439342D01*
X8589338Y-17367914D01*
X8603624Y-17310771D01*
X8617910Y-17282200D01*
X8632195Y-17267914D01*
X8660767Y-17253628D01*
X8889338Y-17553628D02*
X8889338Y-17353628D01*
X8889338Y-17382200D02*
X8903624Y-17367914D01*
X8932195Y-17353628D01*
X8975053Y-17353628D01*
X9003624Y-17367914D01*
X9017910Y-17396485D01*
X9017910Y-17553628D01*
X9017910Y-17396485D02*
X9032195Y-17367914D01*
X9060767Y-17353628D01*
X9103624Y-17353628D01*
X9132195Y-17367914D01*
X9146481Y-17396485D01*
X9146481Y-17553628D01*
X9289338Y-17553628D02*
X9289338Y-17353628D01*
X9289338Y-17382200D02*
X9303624Y-17367914D01*
X9332195Y-17353628D01*
X9375053Y-17353628D01*
X9403624Y-17367914D01*
X9417910Y-17396485D01*
X9417910Y-17553628D01*
X9417910Y-17396485D02*
X9432195Y-17367914D01*
X9460767Y-17353628D01*
X9503624Y-17353628D01*
X9532195Y-17367914D01*
X9546481Y-17396485D01*
X9546481Y-17553628D01*
X10132195Y-17239342D02*
X9875053Y-17625057D01*
X10517910Y-17253628D02*
X10546481Y-17253628D01*
X10575053Y-17267914D01*
X10589338Y-17282200D01*
X10603624Y-17310771D01*
X10617910Y-17367914D01*
X10617910Y-17439342D01*
X10603624Y-17496485D01*
X10589338Y-17525057D01*
X10575053Y-17539342D01*
X10546481Y-17553628D01*
X10517910Y-17553628D01*
X10489338Y-17539342D01*
X10475053Y-17525057D01*
X10460767Y-17496485D01*
X10446481Y-17439342D01*
X10446481Y-17367914D01*
X10460767Y-17310771D01*
X10475053Y-17282200D01*
X10489338Y-17267914D01*
X10517910Y-17253628D01*
X10746481Y-17525057D02*
X10760767Y-17539342D01*
X10746481Y-17553628D01*
X10732195Y-17539342D01*
X10746481Y-17525057D01*
X10746481Y-17553628D01*
X10946481Y-17253628D02*
X10975053Y-17253628D01*
X11003624Y-17267914D01*
X11017910Y-17282200D01*
X11032195Y-17310771D01*
X11046481Y-17367914D01*
X11046481Y-17439342D01*
X11032195Y-17496485D01*
X11017910Y-17525057D01*
X11003624Y-17539342D01*
X10975053Y-17553628D01*
X10946481Y-17553628D01*
X10917910Y-17539342D01*
X10903624Y-17525057D01*
X10889338Y-17496485D01*
X10875053Y-17439342D01*
X10875053Y-17367914D01*
X10889338Y-17310771D01*
X10903624Y-17282200D01*
X10917910Y-17267914D01*
X10946481Y-17253628D01*
X11160767Y-17282200D02*
X11175053Y-17267914D01*
X11203624Y-17253628D01*
X11275052Y-17253628D01*
X11303624Y-17267914D01*
X11317910Y-17282200D01*
X11332195Y-17310771D01*
X11332195Y-17339342D01*
X11317910Y-17382200D01*
X11146481Y-17553628D01*
X11332195Y-17553628D01*
X11432195Y-17253628D02*
X11617910Y-17253628D01*
X11517910Y-17367914D01*
X11560767Y-17367914D01*
X11589338Y-17382200D01*
X11603624Y-17396485D01*
X11617910Y-17425057D01*
X11617910Y-17496485D01*
X11603624Y-17525057D01*
X11589338Y-17539342D01*
X11560767Y-17553628D01*
X11475052Y-17553628D01*
X11446481Y-17539342D01*
X11432195Y-17525057D01*
X11875052Y-17253628D02*
X11817910Y-17253628D01*
X11789338Y-17267914D01*
X11775052Y-17282200D01*
X11746481Y-17325057D01*
X11732195Y-17382200D01*
X11732195Y-17496485D01*
X11746481Y-17525057D01*
X11760767Y-17539342D01*
X11789338Y-17553628D01*
X11846481Y-17553628D01*
X11875052Y-17539342D01*
X11889338Y-17525057D01*
X11903624Y-17496485D01*
X11903624Y-17425057D01*
X11889338Y-17396485D01*
X11875052Y-17382200D01*
X11846481Y-17367914D01*
X11789338Y-17367914D01*
X11760767Y-17382200D01*
X11746481Y-17396485D01*
X11732195Y-17425057D01*
X12017910Y-17253628D02*
X12017910Y-17310771D01*
X12132195Y-17253628D02*
X12132195Y-17310771D01*
X12575052Y-17667914D02*
X12560767Y-17653628D01*
X12532195Y-17610771D01*
X12517910Y-17582200D01*
X12503624Y-17539342D01*
X12489338Y-17467914D01*
X12489338Y-17410771D01*
X12503624Y-17339342D01*
X12517910Y-17296485D01*
X12532195Y-17267914D01*
X12560767Y-17225057D01*
X12575052Y-17210771D01*
X12675052Y-17282200D02*
X12689338Y-17267914D01*
X12717910Y-17253628D01*
X12789338Y-17253628D01*
X12817910Y-17267914D01*
X12832195Y-17282200D01*
X12846481Y-17310771D01*
X12846481Y-17339342D01*
X12832195Y-17382200D01*
X12660767Y-17553628D01*
X12846481Y-17553628D01*
X12946481Y-17253628D02*
X13132195Y-17253628D01*
X13032195Y-17367914D01*
X13075052Y-17367914D01*
X13103624Y-17382200D01*
X13117910Y-17396485D01*
X13132195Y-17425057D01*
X13132195Y-17496485D01*
X13117910Y-17525057D01*
X13103624Y-17539342D01*
X13075052Y-17553628D01*
X12989338Y-17553628D01*
X12960767Y-17539342D01*
X12946481Y-17525057D01*
X13489338Y-17553628D02*
X13489338Y-17253628D01*
X13617910Y-17553628D02*
X13617910Y-17396485D01*
X13603624Y-17367914D01*
X13575052Y-17353628D01*
X13532195Y-17353628D01*
X13503624Y-17367914D01*
X13489338Y-17382200D01*
X13803624Y-17553628D02*
X13775052Y-17539342D01*
X13760767Y-17525057D01*
X13746481Y-17496485D01*
X13746481Y-17410771D01*
X13760767Y-17382200D01*
X13775052Y-17367914D01*
X13803624Y-17353628D01*
X13846481Y-17353628D01*
X13875052Y-17367914D01*
X13889338Y-17382200D01*
X13903624Y-17410771D01*
X13903624Y-17496485D01*
X13889338Y-17525057D01*
X13875052Y-17539342D01*
X13846481Y-17553628D01*
X13803624Y-17553628D01*
X14075052Y-17553628D02*
X14046481Y-17539342D01*
X14032195Y-17510771D01*
X14032195Y-17253628D01*
X14303624Y-17539342D02*
X14275052Y-17553628D01*
X14217910Y-17553628D01*
X14189338Y-17539342D01*
X14175052Y-17510771D01*
X14175052Y-17396485D01*
X14189338Y-17367914D01*
X14217910Y-17353628D01*
X14275052Y-17353628D01*
X14303624Y-17367914D01*
X14317910Y-17396485D01*
X14317910Y-17425057D01*
X14175052Y-17453628D01*
X14432195Y-17539342D02*
X14460767Y-17553628D01*
X14517910Y-17553628D01*
X14546481Y-17539342D01*
X14560767Y-17510771D01*
X14560767Y-17496485D01*
X14546481Y-17467914D01*
X14517910Y-17453628D01*
X14475052Y-17453628D01*
X14446481Y-17439342D01*
X14432195Y-17410771D01*
X14432195Y-17396485D01*
X14446481Y-17367914D01*
X14475052Y-17353628D01*
X14517910Y-17353628D01*
X14546481Y-17367914D01*
X14660767Y-17667914D02*
X14675052Y-17653628D01*
X14703624Y-17610771D01*
X14717910Y-17582200D01*
X14732195Y-17539342D01*
X14746481Y-17467914D01*
X14746481Y-17410771D01*
X14732195Y-17339342D01*
X14717910Y-17296485D01*
X14703624Y-17267914D01*
X14675052Y-17225057D01*
X14660767Y-17210771D01*
X15203624Y-17667914D02*
X15189338Y-17653628D01*
X15160767Y-17610771D01*
X15146481Y-17582200D01*
X15132195Y-17539342D01*
X15117910Y-17467914D01*
X15117910Y-17410771D01*
X15132195Y-17339342D01*
X15146481Y-17296485D01*
X15160767Y-17267914D01*
X15189338Y-17225057D01*
X15203624Y-17210771D01*
X15317910Y-17353628D02*
X15317910Y-17553628D01*
X15317910Y-17382200D02*
X15332195Y-17367914D01*
X15360767Y-17353628D01*
X15403624Y-17353628D01*
X15432195Y-17367914D01*
X15446481Y-17396485D01*
X15446481Y-17553628D01*
X15632195Y-17553628D02*
X15603624Y-17539342D01*
X15589338Y-17525057D01*
X15575052Y-17496485D01*
X15575052Y-17410771D01*
X15589338Y-17382200D01*
X15603624Y-17367914D01*
X15632195Y-17353628D01*
X15675052Y-17353628D01*
X15703624Y-17367914D01*
X15717910Y-17382200D01*
X15732195Y-17410771D01*
X15732195Y-17496485D01*
X15717910Y-17525057D01*
X15703624Y-17539342D01*
X15675052Y-17553628D01*
X15632195Y-17553628D01*
X15817910Y-17353628D02*
X15932195Y-17353628D01*
X15860767Y-17253628D02*
X15860767Y-17510771D01*
X15875052Y-17539342D01*
X15903624Y-17553628D01*
X15932195Y-17553628D01*
X16260767Y-17353628D02*
X16260767Y-17653628D01*
X16260767Y-17367914D02*
X16289338Y-17353628D01*
X16346481Y-17353628D01*
X16375052Y-17367914D01*
X16389338Y-17382200D01*
X16403624Y-17410771D01*
X16403624Y-17496485D01*
X16389338Y-17525057D01*
X16375052Y-17539342D01*
X16346481Y-17553628D01*
X16289338Y-17553628D01*
X16260767Y-17539342D01*
X16575052Y-17553628D02*
X16546481Y-17539342D01*
X16532195Y-17510771D01*
X16532195Y-17253628D01*
X16817910Y-17553628D02*
X16817910Y-17396485D01*
X16803624Y-17367914D01*
X16775052Y-17353628D01*
X16717910Y-17353628D01*
X16689338Y-17367914D01*
X16817910Y-17539342D02*
X16789338Y-17553628D01*
X16717910Y-17553628D01*
X16689338Y-17539342D01*
X16675052Y-17510771D01*
X16675052Y-17482200D01*
X16689338Y-17453628D01*
X16717910Y-17439342D01*
X16789338Y-17439342D01*
X16817910Y-17425057D01*
X16917910Y-17353628D02*
X17032195Y-17353628D01*
X16960767Y-17253628D02*
X16960767Y-17510771D01*
X16975053Y-17539342D01*
X17003624Y-17553628D01*
X17032195Y-17553628D01*
X17246481Y-17539342D02*
X17217910Y-17553628D01*
X17160767Y-17553628D01*
X17132195Y-17539342D01*
X17117910Y-17510771D01*
X17117910Y-17396485D01*
X17132195Y-17367914D01*
X17160767Y-17353628D01*
X17217910Y-17353628D01*
X17246481Y-17367914D01*
X17260767Y-17396485D01*
X17260767Y-17425057D01*
X17117910Y-17453628D01*
X17517910Y-17553628D02*
X17517910Y-17253628D01*
X17517910Y-17539342D02*
X17489338Y-17553628D01*
X17432195Y-17553628D01*
X17403624Y-17539342D01*
X17389338Y-17525057D01*
X17375053Y-17496485D01*
X17375053Y-17410771D01*
X17389338Y-17382200D01*
X17403624Y-17367914D01*
X17432195Y-17353628D01*
X17489338Y-17353628D01*
X17517910Y-17367914D01*
X17632195Y-17667914D02*
X17646481Y-17653628D01*
X17675053Y-17610771D01*
X17689338Y-17582200D01*
X17703624Y-17539342D01*
X17717910Y-17467914D01*
X17717910Y-17410771D01*
X17703624Y-17339342D01*
X17689338Y-17296485D01*
X17675053Y-17267914D01*
X17646481Y-17225057D01*
X17632195Y-17210771D01*
X7317195Y-17813914D02*
G75*
G03*
X7317195Y-17813914I-60000J0D01*
G01*
X7760767Y-17949628D02*
X7589338Y-17949628D01*
X7675052Y-17949628D02*
X7675052Y-17649628D01*
X7646481Y-17692485D01*
X7617910Y-17721057D01*
X7589338Y-17735342D01*
X7889338Y-17921057D02*
X7903624Y-17935342D01*
X7889338Y-17949628D01*
X7875052Y-17935342D01*
X7889338Y-17921057D01*
X7889338Y-17949628D01*
X8017910Y-17678200D02*
X8032195Y-17663914D01*
X8060767Y-17649628D01*
X8132195Y-17649628D01*
X8160767Y-17663914D01*
X8175052Y-17678200D01*
X8189338Y-17706771D01*
X8189338Y-17735342D01*
X8175052Y-17778200D01*
X8003624Y-17949628D01*
X8189338Y-17949628D01*
X8375052Y-17649628D02*
X8403624Y-17649628D01*
X8432195Y-17663914D01*
X8446481Y-17678200D01*
X8460767Y-17706771D01*
X8475053Y-17763914D01*
X8475053Y-17835342D01*
X8460767Y-17892485D01*
X8446481Y-17921057D01*
X8432195Y-17935342D01*
X8403624Y-17949628D01*
X8375052Y-17949628D01*
X8346481Y-17935342D01*
X8332195Y-17921057D01*
X8317910Y-17892485D01*
X8303624Y-17835342D01*
X8303624Y-17763914D01*
X8317910Y-17706771D01*
X8332195Y-17678200D01*
X8346481Y-17663914D01*
X8375052Y-17649628D01*
X8660767Y-17649628D02*
X8689338Y-17649628D01*
X8717910Y-17663914D01*
X8732195Y-17678200D01*
X8746481Y-17706771D01*
X8760767Y-17763914D01*
X8760767Y-17835342D01*
X8746481Y-17892485D01*
X8732195Y-17921057D01*
X8717910Y-17935342D01*
X8689338Y-17949628D01*
X8660767Y-17949628D01*
X8632195Y-17935342D01*
X8617910Y-17921057D01*
X8603624Y-17892485D01*
X8589338Y-17835342D01*
X8589338Y-17763914D01*
X8603624Y-17706771D01*
X8617910Y-17678200D01*
X8632195Y-17663914D01*
X8660767Y-17649628D01*
X8889338Y-17949628D02*
X8889338Y-17749628D01*
X8889338Y-17778200D02*
X8903624Y-17763914D01*
X8932195Y-17749628D01*
X8975053Y-17749628D01*
X9003624Y-17763914D01*
X9017910Y-17792485D01*
X9017910Y-17949628D01*
X9017910Y-17792485D02*
X9032195Y-17763914D01*
X9060767Y-17749628D01*
X9103624Y-17749628D01*
X9132195Y-17763914D01*
X9146481Y-17792485D01*
X9146481Y-17949628D01*
X9289338Y-17949628D02*
X9289338Y-17749628D01*
X9289338Y-17778200D02*
X9303624Y-17763914D01*
X9332195Y-17749628D01*
X9375053Y-17749628D01*
X9403624Y-17763914D01*
X9417910Y-17792485D01*
X9417910Y-17949628D01*
X9417910Y-17792485D02*
X9432195Y-17763914D01*
X9460767Y-17749628D01*
X9503624Y-17749628D01*
X9532195Y-17763914D01*
X9546481Y-17792485D01*
X9546481Y-17949628D01*
X10132195Y-17635342D02*
X9875053Y-18021057D01*
X10517910Y-17649628D02*
X10546481Y-17649628D01*
X10575053Y-17663914D01*
X10589338Y-17678200D01*
X10603624Y-17706771D01*
X10617910Y-17763914D01*
X10617910Y-17835342D01*
X10603624Y-17892485D01*
X10589338Y-17921057D01*
X10575053Y-17935342D01*
X10546481Y-17949628D01*
X10517910Y-17949628D01*
X10489338Y-17935342D01*
X10475053Y-17921057D01*
X10460767Y-17892485D01*
X10446481Y-17835342D01*
X10446481Y-17763914D01*
X10460767Y-17706771D01*
X10475053Y-17678200D01*
X10489338Y-17663914D01*
X10517910Y-17649628D01*
X10746481Y-17921057D02*
X10760767Y-17935342D01*
X10746481Y-17949628D01*
X10732195Y-17935342D01*
X10746481Y-17921057D01*
X10746481Y-17949628D01*
X10946481Y-17649628D02*
X10975053Y-17649628D01*
X11003624Y-17663914D01*
X11017910Y-17678200D01*
X11032195Y-17706771D01*
X11046481Y-17763914D01*
X11046481Y-17835342D01*
X11032195Y-17892485D01*
X11017910Y-17921057D01*
X11003624Y-17935342D01*
X10975053Y-17949628D01*
X10946481Y-17949628D01*
X10917910Y-17935342D01*
X10903624Y-17921057D01*
X10889338Y-17892485D01*
X10875053Y-17835342D01*
X10875053Y-17763914D01*
X10889338Y-17706771D01*
X10903624Y-17678200D01*
X10917910Y-17663914D01*
X10946481Y-17649628D01*
X11303624Y-17749628D02*
X11303624Y-17949628D01*
X11232195Y-17635342D02*
X11160767Y-17849628D01*
X11346481Y-17849628D01*
X11432195Y-17649628D02*
X11632195Y-17649628D01*
X11503624Y-17949628D01*
X11732195Y-17678200D02*
X11746481Y-17663914D01*
X11775052Y-17649628D01*
X11846481Y-17649628D01*
X11875052Y-17663914D01*
X11889338Y-17678200D01*
X11903624Y-17706771D01*
X11903624Y-17735342D01*
X11889338Y-17778200D01*
X11717910Y-17949628D01*
X11903624Y-17949628D01*
X12017910Y-17649628D02*
X12017910Y-17706771D01*
X12132195Y-17649628D02*
X12132195Y-17706771D01*
X12575052Y-18063914D02*
X12560767Y-18049628D01*
X12532195Y-18006771D01*
X12517910Y-17978200D01*
X12503624Y-17935342D01*
X12489338Y-17863914D01*
X12489338Y-17806771D01*
X12503624Y-17735342D01*
X12517910Y-17692485D01*
X12532195Y-17663914D01*
X12560767Y-17621057D01*
X12575052Y-17606771D01*
X12675052Y-17678200D02*
X12689338Y-17663914D01*
X12717910Y-17649628D01*
X12789338Y-17649628D01*
X12817910Y-17663914D01*
X12832195Y-17678200D01*
X12846481Y-17706771D01*
X12846481Y-17735342D01*
X12832195Y-17778200D01*
X12660767Y-17949628D01*
X12846481Y-17949628D01*
X13203624Y-17949628D02*
X13203624Y-17649628D01*
X13332195Y-17949628D02*
X13332195Y-17792485D01*
X13317910Y-17763914D01*
X13289338Y-17749628D01*
X13246481Y-17749628D01*
X13217910Y-17763914D01*
X13203624Y-17778200D01*
X13517910Y-17949628D02*
X13489338Y-17935342D01*
X13475052Y-17921057D01*
X13460767Y-17892485D01*
X13460767Y-17806771D01*
X13475052Y-17778200D01*
X13489338Y-17763914D01*
X13517910Y-17749628D01*
X13560767Y-17749628D01*
X13589338Y-17763914D01*
X13603624Y-17778200D01*
X13617910Y-17806771D01*
X13617910Y-17892485D01*
X13603624Y-17921057D01*
X13589338Y-17935342D01*
X13560767Y-17949628D01*
X13517910Y-17949628D01*
X13789338Y-17949628D02*
X13760767Y-17935342D01*
X13746481Y-17906771D01*
X13746481Y-17649628D01*
X14017910Y-17935342D02*
X13989338Y-17949628D01*
X13932195Y-17949628D01*
X13903624Y-17935342D01*
X13889338Y-17906771D01*
X13889338Y-17792485D01*
X13903624Y-17763914D01*
X13932195Y-17749628D01*
X13989338Y-17749628D01*
X14017910Y-17763914D01*
X14032195Y-17792485D01*
X14032195Y-17821057D01*
X13889338Y-17849628D01*
X14146481Y-17935342D02*
X14175052Y-17949628D01*
X14232195Y-17949628D01*
X14260767Y-17935342D01*
X14275052Y-17906771D01*
X14275052Y-17892485D01*
X14260767Y-17863914D01*
X14232195Y-17849628D01*
X14189338Y-17849628D01*
X14160767Y-17835342D01*
X14146481Y-17806771D01*
X14146481Y-17792485D01*
X14160767Y-17763914D01*
X14189338Y-17749628D01*
X14232195Y-17749628D01*
X14260767Y-17763914D01*
X14375052Y-18063914D02*
X14389338Y-18049628D01*
X14417910Y-18006771D01*
X14432195Y-17978200D01*
X14446481Y-17935342D01*
X14460767Y-17863914D01*
X14460767Y-17806771D01*
X14446481Y-17735342D01*
X14432195Y-17692485D01*
X14417910Y-17663914D01*
X14389338Y-17621057D01*
X14375052Y-17606771D01*
X14917910Y-18063914D02*
X14903624Y-18049628D01*
X14875052Y-18006771D01*
X14860767Y-17978200D01*
X14846481Y-17935342D01*
X14832195Y-17863914D01*
X14832195Y-17806771D01*
X14846481Y-17735342D01*
X14860767Y-17692485D01*
X14875052Y-17663914D01*
X14903624Y-17621057D01*
X14917910Y-17606771D01*
X15032195Y-17749628D02*
X15032195Y-17949628D01*
X15032195Y-17778200D02*
X15046481Y-17763914D01*
X15075052Y-17749628D01*
X15117910Y-17749628D01*
X15146481Y-17763914D01*
X15160767Y-17792485D01*
X15160767Y-17949628D01*
X15346481Y-17949628D02*
X15317910Y-17935342D01*
X15303624Y-17921057D01*
X15289338Y-17892485D01*
X15289338Y-17806771D01*
X15303624Y-17778200D01*
X15317910Y-17763914D01*
X15346481Y-17749628D01*
X15389338Y-17749628D01*
X15417910Y-17763914D01*
X15432195Y-17778200D01*
X15446481Y-17806771D01*
X15446481Y-17892485D01*
X15432195Y-17921057D01*
X15417910Y-17935342D01*
X15389338Y-17949628D01*
X15346481Y-17949628D01*
X15532195Y-17749628D02*
X15646481Y-17749628D01*
X15575052Y-17649628D02*
X15575052Y-17906771D01*
X15589338Y-17935342D01*
X15617910Y-17949628D01*
X15646481Y-17949628D01*
X15975052Y-17749628D02*
X15975052Y-18049628D01*
X15975052Y-17763914D02*
X16003624Y-17749628D01*
X16060767Y-17749628D01*
X16089338Y-17763914D01*
X16103624Y-17778200D01*
X16117910Y-17806771D01*
X16117910Y-17892485D01*
X16103624Y-17921057D01*
X16089338Y-17935342D01*
X16060767Y-17949628D01*
X16003624Y-17949628D01*
X15975052Y-17935342D01*
X16289338Y-17949628D02*
X16260767Y-17935342D01*
X16246481Y-17906771D01*
X16246481Y-17649628D01*
X16532195Y-17949628D02*
X16532195Y-17792485D01*
X16517910Y-17763914D01*
X16489338Y-17749628D01*
X16432195Y-17749628D01*
X16403624Y-17763914D01*
X16532195Y-17935342D02*
X16503624Y-17949628D01*
X16432195Y-17949628D01*
X16403624Y-17935342D01*
X16389338Y-17906771D01*
X16389338Y-17878200D01*
X16403624Y-17849628D01*
X16432195Y-17835342D01*
X16503624Y-17835342D01*
X16532195Y-17821057D01*
X16632195Y-17749628D02*
X16746481Y-17749628D01*
X16675052Y-17649628D02*
X16675052Y-17906771D01*
X16689338Y-17935342D01*
X16717910Y-17949628D01*
X16746481Y-17949628D01*
X16960767Y-17935342D02*
X16932195Y-17949628D01*
X16875053Y-17949628D01*
X16846481Y-17935342D01*
X16832195Y-17906771D01*
X16832195Y-17792485D01*
X16846481Y-17763914D01*
X16875053Y-17749628D01*
X16932195Y-17749628D01*
X16960767Y-17763914D01*
X16975053Y-17792485D01*
X16975053Y-17821057D01*
X16832195Y-17849628D01*
X17232195Y-17949628D02*
X17232195Y-17649628D01*
X17232195Y-17935342D02*
X17203624Y-17949628D01*
X17146481Y-17949628D01*
X17117910Y-17935342D01*
X17103624Y-17921057D01*
X17089338Y-17892485D01*
X17089338Y-17806771D01*
X17103624Y-17778200D01*
X17117910Y-17763914D01*
X17146481Y-17749628D01*
X17203624Y-17749628D01*
X17232195Y-17763914D01*
X17346481Y-18063914D02*
X17360767Y-18049628D01*
X17389338Y-18006771D01*
X17403624Y-17978200D01*
X17417910Y-17935342D01*
X17432195Y-17863914D01*
X17432195Y-17806771D01*
X17417910Y-17735342D01*
X17403624Y-17692485D01*
X17389338Y-17663914D01*
X17360767Y-17621057D01*
X17346481Y-17606771D01*
X7217195Y-18109914D02*
X7217195Y-18309914D01*
X7117195Y-18209914D02*
X7317195Y-18209914D01*
X7589338Y-18074200D02*
X7603624Y-18059914D01*
X7632195Y-18045628D01*
X7703624Y-18045628D01*
X7732195Y-18059914D01*
X7746481Y-18074200D01*
X7760767Y-18102771D01*
X7760767Y-18131342D01*
X7746481Y-18174200D01*
X7575052Y-18345628D01*
X7760767Y-18345628D01*
X7889338Y-18317057D02*
X7903624Y-18331342D01*
X7889338Y-18345628D01*
X7875052Y-18331342D01*
X7889338Y-18317057D01*
X7889338Y-18345628D01*
X8089338Y-18045628D02*
X8117910Y-18045628D01*
X8146481Y-18059914D01*
X8160767Y-18074200D01*
X8175052Y-18102771D01*
X8189338Y-18159914D01*
X8189338Y-18231342D01*
X8175052Y-18288485D01*
X8160767Y-18317057D01*
X8146481Y-18331342D01*
X8117910Y-18345628D01*
X8089338Y-18345628D01*
X8060767Y-18331342D01*
X8046481Y-18317057D01*
X8032195Y-18288485D01*
X8017910Y-18231342D01*
X8017910Y-18159914D01*
X8032195Y-18102771D01*
X8046481Y-18074200D01*
X8060767Y-18059914D01*
X8089338Y-18045628D01*
X8375052Y-18045628D02*
X8403624Y-18045628D01*
X8432195Y-18059914D01*
X8446481Y-18074200D01*
X8460767Y-18102771D01*
X8475053Y-18159914D01*
X8475053Y-18231342D01*
X8460767Y-18288485D01*
X8446481Y-18317057D01*
X8432195Y-18331342D01*
X8403624Y-18345628D01*
X8375052Y-18345628D01*
X8346481Y-18331342D01*
X8332195Y-18317057D01*
X8317910Y-18288485D01*
X8303624Y-18231342D01*
X8303624Y-18159914D01*
X8317910Y-18102771D01*
X8332195Y-18074200D01*
X8346481Y-18059914D01*
X8375052Y-18045628D01*
X8660767Y-18045628D02*
X8689338Y-18045628D01*
X8717910Y-18059914D01*
X8732195Y-18074200D01*
X8746481Y-18102771D01*
X8760767Y-18159914D01*
X8760767Y-18231342D01*
X8746481Y-18288485D01*
X8732195Y-18317057D01*
X8717910Y-18331342D01*
X8689338Y-18345628D01*
X8660767Y-18345628D01*
X8632195Y-18331342D01*
X8617910Y-18317057D01*
X8603624Y-18288485D01*
X8589338Y-18231342D01*
X8589338Y-18159914D01*
X8603624Y-18102771D01*
X8617910Y-18074200D01*
X8632195Y-18059914D01*
X8660767Y-18045628D01*
X8889338Y-18345628D02*
X8889338Y-18145628D01*
X8889338Y-18174200D02*
X8903624Y-18159914D01*
X8932195Y-18145628D01*
X8975053Y-18145628D01*
X9003624Y-18159914D01*
X9017910Y-18188485D01*
X9017910Y-18345628D01*
X9017910Y-18188485D02*
X9032195Y-18159914D01*
X9060767Y-18145628D01*
X9103624Y-18145628D01*
X9132195Y-18159914D01*
X9146481Y-18188485D01*
X9146481Y-18345628D01*
X9289338Y-18345628D02*
X9289338Y-18145628D01*
X9289338Y-18174200D02*
X9303624Y-18159914D01*
X9332195Y-18145628D01*
X9375053Y-18145628D01*
X9403624Y-18159914D01*
X9417910Y-18188485D01*
X9417910Y-18345628D01*
X9417910Y-18188485D02*
X9432195Y-18159914D01*
X9460767Y-18145628D01*
X9503624Y-18145628D01*
X9532195Y-18159914D01*
X9546481Y-18188485D01*
X9546481Y-18345628D01*
X10132195Y-18031342D02*
X9875053Y-18417057D01*
X10517910Y-18045628D02*
X10546481Y-18045628D01*
X10575053Y-18059914D01*
X10589338Y-18074200D01*
X10603624Y-18102771D01*
X10617910Y-18159914D01*
X10617910Y-18231342D01*
X10603624Y-18288485D01*
X10589338Y-18317057D01*
X10575053Y-18331342D01*
X10546481Y-18345628D01*
X10517910Y-18345628D01*
X10489338Y-18331342D01*
X10475053Y-18317057D01*
X10460767Y-18288485D01*
X10446481Y-18231342D01*
X10446481Y-18159914D01*
X10460767Y-18102771D01*
X10475053Y-18074200D01*
X10489338Y-18059914D01*
X10517910Y-18045628D01*
X10746481Y-18317057D02*
X10760767Y-18331342D01*
X10746481Y-18345628D01*
X10732195Y-18331342D01*
X10746481Y-18317057D01*
X10746481Y-18345628D01*
X10946481Y-18045628D02*
X10975053Y-18045628D01*
X11003624Y-18059914D01*
X11017910Y-18074200D01*
X11032195Y-18102771D01*
X11046481Y-18159914D01*
X11046481Y-18231342D01*
X11032195Y-18288485D01*
X11017910Y-18317057D01*
X11003624Y-18331342D01*
X10975053Y-18345628D01*
X10946481Y-18345628D01*
X10917910Y-18331342D01*
X10903624Y-18317057D01*
X10889338Y-18288485D01*
X10875053Y-18231342D01*
X10875053Y-18159914D01*
X10889338Y-18102771D01*
X10903624Y-18074200D01*
X10917910Y-18059914D01*
X10946481Y-18045628D01*
X11146481Y-18045628D02*
X11346481Y-18045628D01*
X11217910Y-18345628D01*
X11503624Y-18174200D02*
X11475052Y-18159914D01*
X11460767Y-18145628D01*
X11446481Y-18117057D01*
X11446481Y-18102771D01*
X11460767Y-18074200D01*
X11475052Y-18059914D01*
X11503624Y-18045628D01*
X11560767Y-18045628D01*
X11589338Y-18059914D01*
X11603624Y-18074200D01*
X11617910Y-18102771D01*
X11617910Y-18117057D01*
X11603624Y-18145628D01*
X11589338Y-18159914D01*
X11560767Y-18174200D01*
X11503624Y-18174200D01*
X11475052Y-18188485D01*
X11460767Y-18202771D01*
X11446481Y-18231342D01*
X11446481Y-18288485D01*
X11460767Y-18317057D01*
X11475052Y-18331342D01*
X11503624Y-18345628D01*
X11560767Y-18345628D01*
X11589338Y-18331342D01*
X11603624Y-18317057D01*
X11617910Y-18288485D01*
X11617910Y-18231342D01*
X11603624Y-18202771D01*
X11589338Y-18188485D01*
X11560767Y-18174200D01*
X11717910Y-18045628D02*
X11917910Y-18045628D01*
X11789338Y-18345628D01*
X12017910Y-18045628D02*
X12017910Y-18102771D01*
X12132195Y-18045628D02*
X12132195Y-18102771D01*
X12575052Y-18459914D02*
X12560767Y-18445628D01*
X12532195Y-18402771D01*
X12517910Y-18374200D01*
X12503624Y-18331342D01*
X12489338Y-18259914D01*
X12489338Y-18202771D01*
X12503624Y-18131342D01*
X12517910Y-18088485D01*
X12532195Y-18059914D01*
X12560767Y-18017057D01*
X12575052Y-18002771D01*
X12846481Y-18345628D02*
X12675052Y-18345628D01*
X12760767Y-18345628D02*
X12760767Y-18045628D01*
X12732195Y-18088485D01*
X12703624Y-18117057D01*
X12675052Y-18131342D01*
X13132195Y-18345628D02*
X12960767Y-18345628D01*
X13046481Y-18345628D02*
X13046481Y-18045628D01*
X13017910Y-18088485D01*
X12989338Y-18117057D01*
X12960767Y-18131342D01*
X13489338Y-18345628D02*
X13489338Y-18045628D01*
X13617910Y-18345628D02*
X13617910Y-18188485D01*
X13603624Y-18159914D01*
X13575052Y-18145628D01*
X13532195Y-18145628D01*
X13503624Y-18159914D01*
X13489338Y-18174200D01*
X13803624Y-18345628D02*
X13775052Y-18331342D01*
X13760767Y-18317057D01*
X13746481Y-18288485D01*
X13746481Y-18202771D01*
X13760767Y-18174200D01*
X13775052Y-18159914D01*
X13803624Y-18145628D01*
X13846481Y-18145628D01*
X13875052Y-18159914D01*
X13889338Y-18174200D01*
X13903624Y-18202771D01*
X13903624Y-18288485D01*
X13889338Y-18317057D01*
X13875052Y-18331342D01*
X13846481Y-18345628D01*
X13803624Y-18345628D01*
X14075052Y-18345628D02*
X14046481Y-18331342D01*
X14032195Y-18302771D01*
X14032195Y-18045628D01*
X14303624Y-18331342D02*
X14275052Y-18345628D01*
X14217910Y-18345628D01*
X14189338Y-18331342D01*
X14175052Y-18302771D01*
X14175052Y-18188485D01*
X14189338Y-18159914D01*
X14217910Y-18145628D01*
X14275052Y-18145628D01*
X14303624Y-18159914D01*
X14317910Y-18188485D01*
X14317910Y-18217057D01*
X14175052Y-18245628D01*
X14432195Y-18331342D02*
X14460767Y-18345628D01*
X14517910Y-18345628D01*
X14546481Y-18331342D01*
X14560767Y-18302771D01*
X14560767Y-18288485D01*
X14546481Y-18259914D01*
X14517910Y-18245628D01*
X14475052Y-18245628D01*
X14446481Y-18231342D01*
X14432195Y-18202771D01*
X14432195Y-18188485D01*
X14446481Y-18159914D01*
X14475052Y-18145628D01*
X14517910Y-18145628D01*
X14546481Y-18159914D01*
X14660767Y-18459914D02*
X14675052Y-18445628D01*
X14703624Y-18402771D01*
X14717910Y-18374200D01*
X14732195Y-18331342D01*
X14746481Y-18259914D01*
X14746481Y-18202771D01*
X14732195Y-18131342D01*
X14717910Y-18088485D01*
X14703624Y-18059914D01*
X14675052Y-18017057D01*
X14660767Y-18002771D01*
X15203624Y-18459914D02*
X15189338Y-18445628D01*
X15160767Y-18402771D01*
X15146481Y-18374200D01*
X15132195Y-18331342D01*
X15117910Y-18259914D01*
X15117910Y-18202771D01*
X15132195Y-18131342D01*
X15146481Y-18088485D01*
X15160767Y-18059914D01*
X15189338Y-18017057D01*
X15203624Y-18002771D01*
X15317910Y-18145628D02*
X15317910Y-18345628D01*
X15317910Y-18174200D02*
X15332195Y-18159914D01*
X15360767Y-18145628D01*
X15403624Y-18145628D01*
X15432195Y-18159914D01*
X15446481Y-18188485D01*
X15446481Y-18345628D01*
X15632195Y-18345628D02*
X15603624Y-18331342D01*
X15589338Y-18317057D01*
X15575052Y-18288485D01*
X15575052Y-18202771D01*
X15589338Y-18174200D01*
X15603624Y-18159914D01*
X15632195Y-18145628D01*
X15675052Y-18145628D01*
X15703624Y-18159914D01*
X15717910Y-18174200D01*
X15732195Y-18202771D01*
X15732195Y-18288485D01*
X15717910Y-18317057D01*
X15703624Y-18331342D01*
X15675052Y-18345628D01*
X15632195Y-18345628D01*
X15817910Y-18145628D02*
X15932195Y-18145628D01*
X15860767Y-18045628D02*
X15860767Y-18302771D01*
X15875052Y-18331342D01*
X15903624Y-18345628D01*
X15932195Y-18345628D01*
X16260767Y-18145628D02*
X16260767Y-18445628D01*
X16260767Y-18159914D02*
X16289338Y-18145628D01*
X16346481Y-18145628D01*
X16375052Y-18159914D01*
X16389338Y-18174200D01*
X16403624Y-18202771D01*
X16403624Y-18288485D01*
X16389338Y-18317057D01*
X16375052Y-18331342D01*
X16346481Y-18345628D01*
X16289338Y-18345628D01*
X16260767Y-18331342D01*
X16575052Y-18345628D02*
X16546481Y-18331342D01*
X16532195Y-18302771D01*
X16532195Y-18045628D01*
X16817910Y-18345628D02*
X16817910Y-18188485D01*
X16803624Y-18159914D01*
X16775052Y-18145628D01*
X16717910Y-18145628D01*
X16689338Y-18159914D01*
X16817910Y-18331342D02*
X16789338Y-18345628D01*
X16717910Y-18345628D01*
X16689338Y-18331342D01*
X16675052Y-18302771D01*
X16675052Y-18274200D01*
X16689338Y-18245628D01*
X16717910Y-18231342D01*
X16789338Y-18231342D01*
X16817910Y-18217057D01*
X16917910Y-18145628D02*
X17032195Y-18145628D01*
X16960767Y-18045628D02*
X16960767Y-18302771D01*
X16975053Y-18331342D01*
X17003624Y-18345628D01*
X17032195Y-18345628D01*
X17246481Y-18331342D02*
X17217910Y-18345628D01*
X17160767Y-18345628D01*
X17132195Y-18331342D01*
X17117910Y-18302771D01*
X17117910Y-18188485D01*
X17132195Y-18159914D01*
X17160767Y-18145628D01*
X17217910Y-18145628D01*
X17246481Y-18159914D01*
X17260767Y-18188485D01*
X17260767Y-18217057D01*
X17117910Y-18245628D01*
X17517910Y-18345628D02*
X17517910Y-18045628D01*
X17517910Y-18331342D02*
X17489338Y-18345628D01*
X17432195Y-18345628D01*
X17403624Y-18331342D01*
X17389338Y-18317057D01*
X17375053Y-18288485D01*
X17375053Y-18202771D01*
X17389338Y-18174200D01*
X17403624Y-18159914D01*
X17432195Y-18145628D01*
X17489338Y-18145628D01*
X17517910Y-18159914D01*
X17632195Y-18459914D02*
X17646481Y-18445628D01*
X17675053Y-18402771D01*
X17689338Y-18374200D01*
X17703624Y-18331342D01*
X17717910Y-18259914D01*
X17717910Y-18202771D01*
X17703624Y-18131342D01*
X17689338Y-18088485D01*
X17675053Y-18059914D01*
X17646481Y-18017057D01*
X17632195Y-18002771D01*
X7284978Y-18683696D02*
X7284978Y-18528131D01*
X7129413Y-18528131D01*
X7129413Y-18683696D01*
X7284978Y-18683696D01*
X7589338Y-18470200D02*
X7603624Y-18455914D01*
X7632195Y-18441628D01*
X7703624Y-18441628D01*
X7732195Y-18455914D01*
X7746481Y-18470200D01*
X7760767Y-18498771D01*
X7760767Y-18527342D01*
X7746481Y-18570200D01*
X7575052Y-18741628D01*
X7760767Y-18741628D01*
X7889338Y-18713057D02*
X7903624Y-18727342D01*
X7889338Y-18741628D01*
X7875052Y-18727342D01*
X7889338Y-18713057D01*
X7889338Y-18741628D01*
X8017910Y-18470200D02*
X8032195Y-18455914D01*
X8060767Y-18441628D01*
X8132195Y-18441628D01*
X8160767Y-18455914D01*
X8175052Y-18470200D01*
X8189338Y-18498771D01*
X8189338Y-18527342D01*
X8175052Y-18570200D01*
X8003624Y-18741628D01*
X8189338Y-18741628D01*
X8375052Y-18441628D02*
X8403624Y-18441628D01*
X8432195Y-18455914D01*
X8446481Y-18470200D01*
X8460767Y-18498771D01*
X8475053Y-18555914D01*
X8475053Y-18627342D01*
X8460767Y-18684485D01*
X8446481Y-18713057D01*
X8432195Y-18727342D01*
X8403624Y-18741628D01*
X8375052Y-18741628D01*
X8346481Y-18727342D01*
X8332195Y-18713057D01*
X8317910Y-18684485D01*
X8303624Y-18627342D01*
X8303624Y-18555914D01*
X8317910Y-18498771D01*
X8332195Y-18470200D01*
X8346481Y-18455914D01*
X8375052Y-18441628D01*
X8660767Y-18441628D02*
X8689338Y-18441628D01*
X8717910Y-18455914D01*
X8732195Y-18470200D01*
X8746481Y-18498771D01*
X8760767Y-18555914D01*
X8760767Y-18627342D01*
X8746481Y-18684485D01*
X8732195Y-18713057D01*
X8717910Y-18727342D01*
X8689338Y-18741628D01*
X8660767Y-18741628D01*
X8632195Y-18727342D01*
X8617910Y-18713057D01*
X8603624Y-18684485D01*
X8589338Y-18627342D01*
X8589338Y-18555914D01*
X8603624Y-18498771D01*
X8617910Y-18470200D01*
X8632195Y-18455914D01*
X8660767Y-18441628D01*
X8889338Y-18741628D02*
X8889338Y-18541628D01*
X8889338Y-18570200D02*
X8903624Y-18555914D01*
X8932195Y-18541628D01*
X8975053Y-18541628D01*
X9003624Y-18555914D01*
X9017910Y-18584485D01*
X9017910Y-18741628D01*
X9017910Y-18584485D02*
X9032195Y-18555914D01*
X9060767Y-18541628D01*
X9103624Y-18541628D01*
X9132195Y-18555914D01*
X9146481Y-18584485D01*
X9146481Y-18741628D01*
X9289338Y-18741628D02*
X9289338Y-18541628D01*
X9289338Y-18570200D02*
X9303624Y-18555914D01*
X9332195Y-18541628D01*
X9375053Y-18541628D01*
X9403624Y-18555914D01*
X9417910Y-18584485D01*
X9417910Y-18741628D01*
X9417910Y-18584485D02*
X9432195Y-18555914D01*
X9460767Y-18541628D01*
X9503624Y-18541628D01*
X9532195Y-18555914D01*
X9546481Y-18584485D01*
X9546481Y-18741628D01*
X10132195Y-18427342D02*
X9875053Y-18813057D01*
X10517910Y-18441628D02*
X10546481Y-18441628D01*
X10575053Y-18455914D01*
X10589338Y-18470200D01*
X10603624Y-18498771D01*
X10617910Y-18555914D01*
X10617910Y-18627342D01*
X10603624Y-18684485D01*
X10589338Y-18713057D01*
X10575053Y-18727342D01*
X10546481Y-18741628D01*
X10517910Y-18741628D01*
X10489338Y-18727342D01*
X10475053Y-18713057D01*
X10460767Y-18684485D01*
X10446481Y-18627342D01*
X10446481Y-18555914D01*
X10460767Y-18498771D01*
X10475053Y-18470200D01*
X10489338Y-18455914D01*
X10517910Y-18441628D01*
X10746481Y-18713057D02*
X10760767Y-18727342D01*
X10746481Y-18741628D01*
X10732195Y-18727342D01*
X10746481Y-18713057D01*
X10746481Y-18741628D01*
X10946481Y-18441628D02*
X10975053Y-18441628D01*
X11003624Y-18455914D01*
X11017910Y-18470200D01*
X11032195Y-18498771D01*
X11046481Y-18555914D01*
X11046481Y-18627342D01*
X11032195Y-18684485D01*
X11017910Y-18713057D01*
X11003624Y-18727342D01*
X10975053Y-18741628D01*
X10946481Y-18741628D01*
X10917910Y-18727342D01*
X10903624Y-18713057D01*
X10889338Y-18684485D01*
X10875053Y-18627342D01*
X10875053Y-18555914D01*
X10889338Y-18498771D01*
X10903624Y-18470200D01*
X10917910Y-18455914D01*
X10946481Y-18441628D01*
X11217910Y-18570200D02*
X11189338Y-18555914D01*
X11175053Y-18541628D01*
X11160767Y-18513057D01*
X11160767Y-18498771D01*
X11175053Y-18470200D01*
X11189338Y-18455914D01*
X11217910Y-18441628D01*
X11275052Y-18441628D01*
X11303624Y-18455914D01*
X11317910Y-18470200D01*
X11332195Y-18498771D01*
X11332195Y-18513057D01*
X11317910Y-18541628D01*
X11303624Y-18555914D01*
X11275052Y-18570200D01*
X11217910Y-18570200D01*
X11189338Y-18584485D01*
X11175053Y-18598771D01*
X11160767Y-18627342D01*
X11160767Y-18684485D01*
X11175053Y-18713057D01*
X11189338Y-18727342D01*
X11217910Y-18741628D01*
X11275052Y-18741628D01*
X11303624Y-18727342D01*
X11317910Y-18713057D01*
X11332195Y-18684485D01*
X11332195Y-18627342D01*
X11317910Y-18598771D01*
X11303624Y-18584485D01*
X11275052Y-18570200D01*
X11589338Y-18441628D02*
X11532195Y-18441628D01*
X11503624Y-18455914D01*
X11489338Y-18470200D01*
X11460767Y-18513057D01*
X11446481Y-18570200D01*
X11446481Y-18684485D01*
X11460767Y-18713057D01*
X11475052Y-18727342D01*
X11503624Y-18741628D01*
X11560767Y-18741628D01*
X11589338Y-18727342D01*
X11603624Y-18713057D01*
X11617910Y-18684485D01*
X11617910Y-18613057D01*
X11603624Y-18584485D01*
X11589338Y-18570200D01*
X11560767Y-18555914D01*
X11503624Y-18555914D01*
X11475052Y-18570200D01*
X11460767Y-18584485D01*
X11446481Y-18613057D01*
X11875052Y-18441628D02*
X11817910Y-18441628D01*
X11789338Y-18455914D01*
X11775052Y-18470200D01*
X11746481Y-18513057D01*
X11732195Y-18570200D01*
X11732195Y-18684485D01*
X11746481Y-18713057D01*
X11760767Y-18727342D01*
X11789338Y-18741628D01*
X11846481Y-18741628D01*
X11875052Y-18727342D01*
X11889338Y-18713057D01*
X11903624Y-18684485D01*
X11903624Y-18613057D01*
X11889338Y-18584485D01*
X11875052Y-18570200D01*
X11846481Y-18555914D01*
X11789338Y-18555914D01*
X11760767Y-18570200D01*
X11746481Y-18584485D01*
X11732195Y-18613057D01*
X12017910Y-18441628D02*
X12017910Y-18498771D01*
X12132195Y-18441628D02*
X12132195Y-18498771D01*
X12575052Y-18855914D02*
X12560767Y-18841628D01*
X12532195Y-18798771D01*
X12517910Y-18770200D01*
X12503624Y-18727342D01*
X12489338Y-18655914D01*
X12489338Y-18598771D01*
X12503624Y-18527342D01*
X12517910Y-18484485D01*
X12532195Y-18455914D01*
X12560767Y-18413057D01*
X12575052Y-18398771D01*
X12846481Y-18741628D02*
X12675052Y-18741628D01*
X12760767Y-18741628D02*
X12760767Y-18441628D01*
X12732195Y-18484485D01*
X12703624Y-18513057D01*
X12675052Y-18527342D01*
X12989338Y-18741628D02*
X13046481Y-18741628D01*
X13075052Y-18727342D01*
X13089338Y-18713057D01*
X13117910Y-18670200D01*
X13132195Y-18613057D01*
X13132195Y-18498771D01*
X13117910Y-18470200D01*
X13103624Y-18455914D01*
X13075052Y-18441628D01*
X13017910Y-18441628D01*
X12989338Y-18455914D01*
X12975052Y-18470200D01*
X12960767Y-18498771D01*
X12960767Y-18570200D01*
X12975052Y-18598771D01*
X12989338Y-18613057D01*
X13017910Y-18627342D01*
X13075052Y-18627342D01*
X13103624Y-18613057D01*
X13117910Y-18598771D01*
X13132195Y-18570200D01*
X13489338Y-18741628D02*
X13489338Y-18441628D01*
X13617910Y-18741628D02*
X13617910Y-18584485D01*
X13603624Y-18555914D01*
X13575052Y-18541628D01*
X13532195Y-18541628D01*
X13503624Y-18555914D01*
X13489338Y-18570200D01*
X13803624Y-18741628D02*
X13775052Y-18727342D01*
X13760767Y-18713057D01*
X13746481Y-18684485D01*
X13746481Y-18598771D01*
X13760767Y-18570200D01*
X13775052Y-18555914D01*
X13803624Y-18541628D01*
X13846481Y-18541628D01*
X13875052Y-18555914D01*
X13889338Y-18570200D01*
X13903624Y-18598771D01*
X13903624Y-18684485D01*
X13889338Y-18713057D01*
X13875052Y-18727342D01*
X13846481Y-18741628D01*
X13803624Y-18741628D01*
X14075052Y-18741628D02*
X14046481Y-18727342D01*
X14032195Y-18698771D01*
X14032195Y-18441628D01*
X14303624Y-18727342D02*
X14275052Y-18741628D01*
X14217910Y-18741628D01*
X14189338Y-18727342D01*
X14175052Y-18698771D01*
X14175052Y-18584485D01*
X14189338Y-18555914D01*
X14217910Y-18541628D01*
X14275052Y-18541628D01*
X14303624Y-18555914D01*
X14317910Y-18584485D01*
X14317910Y-18613057D01*
X14175052Y-18641628D01*
X14432195Y-18727342D02*
X14460767Y-18741628D01*
X14517910Y-18741628D01*
X14546481Y-18727342D01*
X14560767Y-18698771D01*
X14560767Y-18684485D01*
X14546481Y-18655914D01*
X14517910Y-18641628D01*
X14475052Y-18641628D01*
X14446481Y-18627342D01*
X14432195Y-18598771D01*
X14432195Y-18584485D01*
X14446481Y-18555914D01*
X14475052Y-18541628D01*
X14517910Y-18541628D01*
X14546481Y-18555914D01*
X14660767Y-18855914D02*
X14675052Y-18841628D01*
X14703624Y-18798771D01*
X14717910Y-18770200D01*
X14732195Y-18727342D01*
X14746481Y-18655914D01*
X14746481Y-18598771D01*
X14732195Y-18527342D01*
X14717910Y-18484485D01*
X14703624Y-18455914D01*
X14675052Y-18413057D01*
X14660767Y-18398771D01*
X15203624Y-18855914D02*
X15189338Y-18841628D01*
X15160767Y-18798771D01*
X15146481Y-18770200D01*
X15132195Y-18727342D01*
X15117910Y-18655914D01*
X15117910Y-18598771D01*
X15132195Y-18527342D01*
X15146481Y-18484485D01*
X15160767Y-18455914D01*
X15189338Y-18413057D01*
X15203624Y-18398771D01*
X15317910Y-18541628D02*
X15317910Y-18741628D01*
X15317910Y-18570200D02*
X15332195Y-18555914D01*
X15360767Y-18541628D01*
X15403624Y-18541628D01*
X15432195Y-18555914D01*
X15446481Y-18584485D01*
X15446481Y-18741628D01*
X15632195Y-18741628D02*
X15603624Y-18727342D01*
X15589338Y-18713057D01*
X15575052Y-18684485D01*
X15575052Y-18598771D01*
X15589338Y-18570200D01*
X15603624Y-18555914D01*
X15632195Y-18541628D01*
X15675052Y-18541628D01*
X15703624Y-18555914D01*
X15717910Y-18570200D01*
X15732195Y-18598771D01*
X15732195Y-18684485D01*
X15717910Y-18713057D01*
X15703624Y-18727342D01*
X15675052Y-18741628D01*
X15632195Y-18741628D01*
X15817910Y-18541628D02*
X15932195Y-18541628D01*
X15860767Y-18441628D02*
X15860767Y-18698771D01*
X15875052Y-18727342D01*
X15903624Y-18741628D01*
X15932195Y-18741628D01*
X16260767Y-18541628D02*
X16260767Y-18841628D01*
X16260767Y-18555914D02*
X16289338Y-18541628D01*
X16346481Y-18541628D01*
X16375052Y-18555914D01*
X16389338Y-18570200D01*
X16403624Y-18598771D01*
X16403624Y-18684485D01*
X16389338Y-18713057D01*
X16375052Y-18727342D01*
X16346481Y-18741628D01*
X16289338Y-18741628D01*
X16260767Y-18727342D01*
X16575052Y-18741628D02*
X16546481Y-18727342D01*
X16532195Y-18698771D01*
X16532195Y-18441628D01*
X16817910Y-18741628D02*
X16817910Y-18584485D01*
X16803624Y-18555914D01*
X16775052Y-18541628D01*
X16717910Y-18541628D01*
X16689338Y-18555914D01*
X16817910Y-18727342D02*
X16789338Y-18741628D01*
X16717910Y-18741628D01*
X16689338Y-18727342D01*
X16675052Y-18698771D01*
X16675052Y-18670200D01*
X16689338Y-18641628D01*
X16717910Y-18627342D01*
X16789338Y-18627342D01*
X16817910Y-18613057D01*
X16917910Y-18541628D02*
X17032195Y-18541628D01*
X16960767Y-18441628D02*
X16960767Y-18698771D01*
X16975053Y-18727342D01*
X17003624Y-18741628D01*
X17032195Y-18741628D01*
X17246481Y-18727342D02*
X17217910Y-18741628D01*
X17160767Y-18741628D01*
X17132195Y-18727342D01*
X17117910Y-18698771D01*
X17117910Y-18584485D01*
X17132195Y-18555914D01*
X17160767Y-18541628D01*
X17217910Y-18541628D01*
X17246481Y-18555914D01*
X17260767Y-18584485D01*
X17260767Y-18613057D01*
X17117910Y-18641628D01*
X17517910Y-18741628D02*
X17517910Y-18441628D01*
X17517910Y-18727342D02*
X17489338Y-18741628D01*
X17432195Y-18741628D01*
X17403624Y-18727342D01*
X17389338Y-18713057D01*
X17375053Y-18684485D01*
X17375053Y-18598771D01*
X17389338Y-18570200D01*
X17403624Y-18555914D01*
X17432195Y-18541628D01*
X17489338Y-18541628D01*
X17517910Y-18555914D01*
X17632195Y-18855914D02*
X17646481Y-18841628D01*
X17675053Y-18798771D01*
X17689338Y-18770200D01*
X17703624Y-18727342D01*
X17717910Y-18655914D01*
X17717910Y-18598771D01*
X17703624Y-18527342D01*
X17689338Y-18484485D01*
X17675053Y-18455914D01*
X17646481Y-18413057D01*
X17632195Y-18398771D01*
X7192195Y-19126914D02*
X7317195Y-19001914D01*
X7192195Y-18876914D01*
X7067195Y-19001914D01*
X7192195Y-19126914D01*
X7589338Y-18866200D02*
X7603624Y-18851914D01*
X7632195Y-18837628D01*
X7703624Y-18837628D01*
X7732195Y-18851914D01*
X7746481Y-18866200D01*
X7760767Y-18894771D01*
X7760767Y-18923342D01*
X7746481Y-18966200D01*
X7575052Y-19137628D01*
X7760767Y-19137628D01*
X7889338Y-19109057D02*
X7903624Y-19123342D01*
X7889338Y-19137628D01*
X7875052Y-19123342D01*
X7889338Y-19109057D01*
X7889338Y-19137628D01*
X8175052Y-18837628D02*
X8032195Y-18837628D01*
X8017910Y-18980485D01*
X8032195Y-18966200D01*
X8060767Y-18951914D01*
X8132195Y-18951914D01*
X8160767Y-18966200D01*
X8175052Y-18980485D01*
X8189338Y-19009057D01*
X8189338Y-19080485D01*
X8175052Y-19109057D01*
X8160767Y-19123342D01*
X8132195Y-19137628D01*
X8060767Y-19137628D01*
X8032195Y-19123342D01*
X8017910Y-19109057D01*
X8375052Y-18837628D02*
X8403624Y-18837628D01*
X8432195Y-18851914D01*
X8446481Y-18866200D01*
X8460767Y-18894771D01*
X8475053Y-18951914D01*
X8475053Y-19023342D01*
X8460767Y-19080485D01*
X8446481Y-19109057D01*
X8432195Y-19123342D01*
X8403624Y-19137628D01*
X8375052Y-19137628D01*
X8346481Y-19123342D01*
X8332195Y-19109057D01*
X8317910Y-19080485D01*
X8303624Y-19023342D01*
X8303624Y-18951914D01*
X8317910Y-18894771D01*
X8332195Y-18866200D01*
X8346481Y-18851914D01*
X8375052Y-18837628D01*
X8660767Y-18837628D02*
X8689338Y-18837628D01*
X8717910Y-18851914D01*
X8732195Y-18866200D01*
X8746481Y-18894771D01*
X8760767Y-18951914D01*
X8760767Y-19023342D01*
X8746481Y-19080485D01*
X8732195Y-19109057D01*
X8717910Y-19123342D01*
X8689338Y-19137628D01*
X8660767Y-19137628D01*
X8632195Y-19123342D01*
X8617910Y-19109057D01*
X8603624Y-19080485D01*
X8589338Y-19023342D01*
X8589338Y-18951914D01*
X8603624Y-18894771D01*
X8617910Y-18866200D01*
X8632195Y-18851914D01*
X8660767Y-18837628D01*
X8889338Y-19137628D02*
X8889338Y-18937628D01*
X8889338Y-18966200D02*
X8903624Y-18951914D01*
X8932195Y-18937628D01*
X8975053Y-18937628D01*
X9003624Y-18951914D01*
X9017910Y-18980485D01*
X9017910Y-19137628D01*
X9017910Y-18980485D02*
X9032195Y-18951914D01*
X9060767Y-18937628D01*
X9103624Y-18937628D01*
X9132195Y-18951914D01*
X9146481Y-18980485D01*
X9146481Y-19137628D01*
X9289338Y-19137628D02*
X9289338Y-18937628D01*
X9289338Y-18966200D02*
X9303624Y-18951914D01*
X9332195Y-18937628D01*
X9375053Y-18937628D01*
X9403624Y-18951914D01*
X9417910Y-18980485D01*
X9417910Y-19137628D01*
X9417910Y-18980485D02*
X9432195Y-18951914D01*
X9460767Y-18937628D01*
X9503624Y-18937628D01*
X9532195Y-18951914D01*
X9546481Y-18980485D01*
X9546481Y-19137628D01*
X10132195Y-18823342D02*
X9875053Y-19209057D01*
X10517910Y-18837628D02*
X10546481Y-18837628D01*
X10575053Y-18851914D01*
X10589338Y-18866200D01*
X10603624Y-18894771D01*
X10617910Y-18951914D01*
X10617910Y-19023342D01*
X10603624Y-19080485D01*
X10589338Y-19109057D01*
X10575053Y-19123342D01*
X10546481Y-19137628D01*
X10517910Y-19137628D01*
X10489338Y-19123342D01*
X10475053Y-19109057D01*
X10460767Y-19080485D01*
X10446481Y-19023342D01*
X10446481Y-18951914D01*
X10460767Y-18894771D01*
X10475053Y-18866200D01*
X10489338Y-18851914D01*
X10517910Y-18837628D01*
X10746481Y-19109057D02*
X10760767Y-19123342D01*
X10746481Y-19137628D01*
X10732195Y-19123342D01*
X10746481Y-19109057D01*
X10746481Y-19137628D01*
X10946481Y-18837628D02*
X10975053Y-18837628D01*
X11003624Y-18851914D01*
X11017910Y-18866200D01*
X11032195Y-18894771D01*
X11046481Y-18951914D01*
X11046481Y-19023342D01*
X11032195Y-19080485D01*
X11017910Y-19109057D01*
X11003624Y-19123342D01*
X10975053Y-19137628D01*
X10946481Y-19137628D01*
X10917910Y-19123342D01*
X10903624Y-19109057D01*
X10889338Y-19080485D01*
X10875053Y-19023342D01*
X10875053Y-18951914D01*
X10889338Y-18894771D01*
X10903624Y-18866200D01*
X10917910Y-18851914D01*
X10946481Y-18837628D01*
X11189338Y-19137628D02*
X11246481Y-19137628D01*
X11275052Y-19123342D01*
X11289338Y-19109057D01*
X11317910Y-19066200D01*
X11332195Y-19009057D01*
X11332195Y-18894771D01*
X11317910Y-18866200D01*
X11303624Y-18851914D01*
X11275052Y-18837628D01*
X11217910Y-18837628D01*
X11189338Y-18851914D01*
X11175053Y-18866200D01*
X11160767Y-18894771D01*
X11160767Y-18966200D01*
X11175053Y-18994771D01*
X11189338Y-19009057D01*
X11217910Y-19023342D01*
X11275052Y-19023342D01*
X11303624Y-19009057D01*
X11317910Y-18994771D01*
X11332195Y-18966200D01*
X11503624Y-18966200D02*
X11475052Y-18951914D01*
X11460767Y-18937628D01*
X11446481Y-18909057D01*
X11446481Y-18894771D01*
X11460767Y-18866200D01*
X11475052Y-18851914D01*
X11503624Y-18837628D01*
X11560767Y-18837628D01*
X11589338Y-18851914D01*
X11603624Y-18866200D01*
X11617910Y-18894771D01*
X11617910Y-18909057D01*
X11603624Y-18937628D01*
X11589338Y-18951914D01*
X11560767Y-18966200D01*
X11503624Y-18966200D01*
X11475052Y-18980485D01*
X11460767Y-18994771D01*
X11446481Y-19023342D01*
X11446481Y-19080485D01*
X11460767Y-19109057D01*
X11475052Y-19123342D01*
X11503624Y-19137628D01*
X11560767Y-19137628D01*
X11589338Y-19123342D01*
X11603624Y-19109057D01*
X11617910Y-19080485D01*
X11617910Y-19023342D01*
X11603624Y-18994771D01*
X11589338Y-18980485D01*
X11560767Y-18966200D01*
X11875052Y-18937628D02*
X11875052Y-19137628D01*
X11803624Y-18823342D02*
X11732195Y-19037628D01*
X11917910Y-19037628D01*
X12017910Y-18837628D02*
X12017910Y-18894771D01*
X12132195Y-18837628D02*
X12132195Y-18894771D01*
X12575052Y-19251914D02*
X12560767Y-19237628D01*
X12532195Y-19194771D01*
X12517910Y-19166200D01*
X12503624Y-19123342D01*
X12489338Y-19051914D01*
X12489338Y-18994771D01*
X12503624Y-18923342D01*
X12517910Y-18880485D01*
X12532195Y-18851914D01*
X12560767Y-18809057D01*
X12575052Y-18794771D01*
X12846481Y-19137628D02*
X12675052Y-19137628D01*
X12760767Y-19137628D02*
X12760767Y-18837628D01*
X12732195Y-18880485D01*
X12703624Y-18909057D01*
X12675052Y-18923342D01*
X13203624Y-19137628D02*
X13203624Y-18837628D01*
X13332195Y-19137628D02*
X13332195Y-18980485D01*
X13317910Y-18951914D01*
X13289338Y-18937628D01*
X13246481Y-18937628D01*
X13217910Y-18951914D01*
X13203624Y-18966200D01*
X13517910Y-19137628D02*
X13489338Y-19123342D01*
X13475052Y-19109057D01*
X13460767Y-19080485D01*
X13460767Y-18994771D01*
X13475052Y-18966200D01*
X13489338Y-18951914D01*
X13517910Y-18937628D01*
X13560767Y-18937628D01*
X13589338Y-18951914D01*
X13603624Y-18966200D01*
X13617910Y-18994771D01*
X13617910Y-19080485D01*
X13603624Y-19109057D01*
X13589338Y-19123342D01*
X13560767Y-19137628D01*
X13517910Y-19137628D01*
X13789338Y-19137628D02*
X13760767Y-19123342D01*
X13746481Y-19094771D01*
X13746481Y-18837628D01*
X14017910Y-19123342D02*
X13989338Y-19137628D01*
X13932195Y-19137628D01*
X13903624Y-19123342D01*
X13889338Y-19094771D01*
X13889338Y-18980485D01*
X13903624Y-18951914D01*
X13932195Y-18937628D01*
X13989338Y-18937628D01*
X14017910Y-18951914D01*
X14032195Y-18980485D01*
X14032195Y-19009057D01*
X13889338Y-19037628D01*
X14132195Y-19251914D02*
X14146481Y-19237628D01*
X14175052Y-19194771D01*
X14189338Y-19166200D01*
X14203624Y-19123342D01*
X14217910Y-19051914D01*
X14217910Y-18994771D01*
X14203624Y-18923342D01*
X14189338Y-18880485D01*
X14175052Y-18851914D01*
X14146481Y-18809057D01*
X14132195Y-18794771D01*
X14675052Y-19251914D02*
X14660767Y-19237628D01*
X14632195Y-19194771D01*
X14617910Y-19166200D01*
X14603624Y-19123342D01*
X14589338Y-19051914D01*
X14589338Y-18994771D01*
X14603624Y-18923342D01*
X14617910Y-18880485D01*
X14632195Y-18851914D01*
X14660767Y-18809057D01*
X14675052Y-18794771D01*
X14789338Y-18937628D02*
X14789338Y-19137628D01*
X14789338Y-18966200D02*
X14803624Y-18951914D01*
X14832195Y-18937628D01*
X14875052Y-18937628D01*
X14903624Y-18951914D01*
X14917910Y-18980485D01*
X14917910Y-19137628D01*
X15103624Y-19137628D02*
X15075052Y-19123342D01*
X15060767Y-19109057D01*
X15046481Y-19080485D01*
X15046481Y-18994771D01*
X15060767Y-18966200D01*
X15075052Y-18951914D01*
X15103624Y-18937628D01*
X15146481Y-18937628D01*
X15175052Y-18951914D01*
X15189338Y-18966200D01*
X15203624Y-18994771D01*
X15203624Y-19080485D01*
X15189338Y-19109057D01*
X15175052Y-19123342D01*
X15146481Y-19137628D01*
X15103624Y-19137628D01*
X15289338Y-18937628D02*
X15403624Y-18937628D01*
X15332195Y-18837628D02*
X15332195Y-19094771D01*
X15346481Y-19123342D01*
X15375052Y-19137628D01*
X15403624Y-19137628D01*
X15732195Y-18937628D02*
X15732195Y-19237628D01*
X15732195Y-18951914D02*
X15760767Y-18937628D01*
X15817910Y-18937628D01*
X15846481Y-18951914D01*
X15860767Y-18966200D01*
X15875052Y-18994771D01*
X15875052Y-19080485D01*
X15860767Y-19109057D01*
X15846481Y-19123342D01*
X15817910Y-19137628D01*
X15760767Y-19137628D01*
X15732195Y-19123342D01*
X16046481Y-19137628D02*
X16017910Y-19123342D01*
X16003624Y-19094771D01*
X16003624Y-18837628D01*
X16289338Y-19137628D02*
X16289338Y-18980485D01*
X16275052Y-18951914D01*
X16246481Y-18937628D01*
X16189338Y-18937628D01*
X16160767Y-18951914D01*
X16289338Y-19123342D02*
X16260767Y-19137628D01*
X16189338Y-19137628D01*
X16160767Y-19123342D01*
X16146481Y-19094771D01*
X16146481Y-19066200D01*
X16160767Y-19037628D01*
X16189338Y-19023342D01*
X16260767Y-19023342D01*
X16289338Y-19009057D01*
X16389338Y-18937628D02*
X16503624Y-18937628D01*
X16432195Y-18837628D02*
X16432195Y-19094771D01*
X16446481Y-19123342D01*
X16475052Y-19137628D01*
X16503624Y-19137628D01*
X16717910Y-19123342D02*
X16689338Y-19137628D01*
X16632195Y-19137628D01*
X16603624Y-19123342D01*
X16589338Y-19094771D01*
X16589338Y-18980485D01*
X16603624Y-18951914D01*
X16632195Y-18937628D01*
X16689338Y-18937628D01*
X16717910Y-18951914D01*
X16732195Y-18980485D01*
X16732195Y-19009057D01*
X16589338Y-19037628D01*
X16989338Y-19137628D02*
X16989338Y-18837628D01*
X16989338Y-19123342D02*
X16960767Y-19137628D01*
X16903624Y-19137628D01*
X16875053Y-19123342D01*
X16860767Y-19109057D01*
X16846481Y-19080485D01*
X16846481Y-18994771D01*
X16860767Y-18966200D01*
X16875053Y-18951914D01*
X16903624Y-18937628D01*
X16960767Y-18937628D01*
X16989338Y-18951914D01*
X17103624Y-19251914D02*
X17117910Y-19237628D01*
X17146481Y-19194771D01*
X17160767Y-19166200D01*
X17175053Y-19123342D01*
X17189338Y-19051914D01*
X17189338Y-18994771D01*
X17175053Y-18923342D01*
X17160767Y-18880485D01*
X17146481Y-18851914D01*
X17117910Y-18809057D01*
X17103624Y-18794771D01*
X6787195Y-19132914D02*
X7317195Y-19662914D01*
X7317195Y-19132914D02*
X6787195Y-19662914D01*
X7317195Y-19397914D02*
G75*
G03*
X7317195Y-19397914I-265000J0D01*
G01*
X7746481Y-19233628D02*
X7603624Y-19233628D01*
X7589338Y-19376485D01*
X7603624Y-19362200D01*
X7632195Y-19347914D01*
X7703624Y-19347914D01*
X7732195Y-19362200D01*
X7746481Y-19376485D01*
X7760767Y-19405057D01*
X7760767Y-19476485D01*
X7746481Y-19505057D01*
X7732195Y-19519342D01*
X7703624Y-19533628D01*
X7632195Y-19533628D01*
X7603624Y-19519342D01*
X7589338Y-19505057D01*
X7889338Y-19505057D02*
X7903624Y-19519342D01*
X7889338Y-19533628D01*
X7875052Y-19519342D01*
X7889338Y-19505057D01*
X7889338Y-19533628D01*
X8003624Y-19233628D02*
X8189338Y-19233628D01*
X8089338Y-19347914D01*
X8132195Y-19347914D01*
X8160767Y-19362200D01*
X8175052Y-19376485D01*
X8189338Y-19405057D01*
X8189338Y-19476485D01*
X8175052Y-19505057D01*
X8160767Y-19519342D01*
X8132195Y-19533628D01*
X8046481Y-19533628D01*
X8017910Y-19519342D01*
X8003624Y-19505057D01*
X8375052Y-19233628D02*
X8403624Y-19233628D01*
X8432195Y-19247914D01*
X8446481Y-19262200D01*
X8460767Y-19290771D01*
X8475053Y-19347914D01*
X8475053Y-19419342D01*
X8460767Y-19476485D01*
X8446481Y-19505057D01*
X8432195Y-19519342D01*
X8403624Y-19533628D01*
X8375052Y-19533628D01*
X8346481Y-19519342D01*
X8332195Y-19505057D01*
X8317910Y-19476485D01*
X8303624Y-19419342D01*
X8303624Y-19347914D01*
X8317910Y-19290771D01*
X8332195Y-19262200D01*
X8346481Y-19247914D01*
X8375052Y-19233628D01*
X8660767Y-19233628D02*
X8689338Y-19233628D01*
X8717910Y-19247914D01*
X8732195Y-19262200D01*
X8746481Y-19290771D01*
X8760767Y-19347914D01*
X8760767Y-19419342D01*
X8746481Y-19476485D01*
X8732195Y-19505057D01*
X8717910Y-19519342D01*
X8689338Y-19533628D01*
X8660767Y-19533628D01*
X8632195Y-19519342D01*
X8617910Y-19505057D01*
X8603624Y-19476485D01*
X8589338Y-19419342D01*
X8589338Y-19347914D01*
X8603624Y-19290771D01*
X8617910Y-19262200D01*
X8632195Y-19247914D01*
X8660767Y-19233628D01*
X8889338Y-19533628D02*
X8889338Y-19333628D01*
X8889338Y-19362200D02*
X8903624Y-19347914D01*
X8932195Y-19333628D01*
X8975053Y-19333628D01*
X9003624Y-19347914D01*
X9017910Y-19376485D01*
X9017910Y-19533628D01*
X9017910Y-19376485D02*
X9032195Y-19347914D01*
X9060767Y-19333628D01*
X9103624Y-19333628D01*
X9132195Y-19347914D01*
X9146481Y-19376485D01*
X9146481Y-19533628D01*
X9289338Y-19533628D02*
X9289338Y-19333628D01*
X9289338Y-19362200D02*
X9303624Y-19347914D01*
X9332195Y-19333628D01*
X9375053Y-19333628D01*
X9403624Y-19347914D01*
X9417910Y-19376485D01*
X9417910Y-19533628D01*
X9417910Y-19376485D02*
X9432195Y-19347914D01*
X9460767Y-19333628D01*
X9503624Y-19333628D01*
X9532195Y-19347914D01*
X9546481Y-19376485D01*
X9546481Y-19533628D01*
X10132195Y-19219342D02*
X9875053Y-19605057D01*
X10517910Y-19233628D02*
X10546481Y-19233628D01*
X10575053Y-19247914D01*
X10589338Y-19262200D01*
X10603624Y-19290771D01*
X10617910Y-19347914D01*
X10617910Y-19419342D01*
X10603624Y-19476485D01*
X10589338Y-19505057D01*
X10575053Y-19519342D01*
X10546481Y-19533628D01*
X10517910Y-19533628D01*
X10489338Y-19519342D01*
X10475053Y-19505057D01*
X10460767Y-19476485D01*
X10446481Y-19419342D01*
X10446481Y-19347914D01*
X10460767Y-19290771D01*
X10475053Y-19262200D01*
X10489338Y-19247914D01*
X10517910Y-19233628D01*
X10746481Y-19505057D02*
X10760767Y-19519342D01*
X10746481Y-19533628D01*
X10732195Y-19519342D01*
X10746481Y-19505057D01*
X10746481Y-19533628D01*
X10875053Y-19262200D02*
X10889338Y-19247914D01*
X10917910Y-19233628D01*
X10989338Y-19233628D01*
X11017910Y-19247914D01*
X11032195Y-19262200D01*
X11046481Y-19290771D01*
X11046481Y-19319342D01*
X11032195Y-19362200D01*
X10860767Y-19533628D01*
X11046481Y-19533628D01*
X11232195Y-19233628D02*
X11260767Y-19233628D01*
X11289338Y-19247914D01*
X11303624Y-19262200D01*
X11317910Y-19290771D01*
X11332195Y-19347914D01*
X11332195Y-19419342D01*
X11317910Y-19476485D01*
X11303624Y-19505057D01*
X11289338Y-19519342D01*
X11260767Y-19533628D01*
X11232195Y-19533628D01*
X11203624Y-19519342D01*
X11189338Y-19505057D01*
X11175053Y-19476485D01*
X11160767Y-19419342D01*
X11160767Y-19347914D01*
X11175053Y-19290771D01*
X11189338Y-19262200D01*
X11203624Y-19247914D01*
X11232195Y-19233628D01*
X11503624Y-19362200D02*
X11475052Y-19347914D01*
X11460767Y-19333628D01*
X11446481Y-19305057D01*
X11446481Y-19290771D01*
X11460767Y-19262200D01*
X11475052Y-19247914D01*
X11503624Y-19233628D01*
X11560767Y-19233628D01*
X11589338Y-19247914D01*
X11603624Y-19262200D01*
X11617910Y-19290771D01*
X11617910Y-19305057D01*
X11603624Y-19333628D01*
X11589338Y-19347914D01*
X11560767Y-19362200D01*
X11503624Y-19362200D01*
X11475052Y-19376485D01*
X11460767Y-19390771D01*
X11446481Y-19419342D01*
X11446481Y-19476485D01*
X11460767Y-19505057D01*
X11475052Y-19519342D01*
X11503624Y-19533628D01*
X11560767Y-19533628D01*
X11589338Y-19519342D01*
X11603624Y-19505057D01*
X11617910Y-19476485D01*
X11617910Y-19419342D01*
X11603624Y-19390771D01*
X11589338Y-19376485D01*
X11560767Y-19362200D01*
X11717910Y-19233628D02*
X11917910Y-19233628D01*
X11789338Y-19533628D01*
X12017910Y-19233628D02*
X12017910Y-19290771D01*
X12132195Y-19233628D02*
X12132195Y-19290771D01*
X12575052Y-19647914D02*
X12560767Y-19633628D01*
X12532195Y-19590771D01*
X12517910Y-19562200D01*
X12503624Y-19519342D01*
X12489338Y-19447914D01*
X12489338Y-19390771D01*
X12503624Y-19319342D01*
X12517910Y-19276485D01*
X12532195Y-19247914D01*
X12560767Y-19205057D01*
X12575052Y-19190771D01*
X12817910Y-19333628D02*
X12817910Y-19533628D01*
X12746481Y-19219342D02*
X12675052Y-19433628D01*
X12860767Y-19433628D01*
X13203624Y-19533628D02*
X13203624Y-19233628D01*
X13332195Y-19533628D02*
X13332195Y-19376485D01*
X13317910Y-19347914D01*
X13289338Y-19333628D01*
X13246481Y-19333628D01*
X13217910Y-19347914D01*
X13203624Y-19362200D01*
X13517910Y-19533628D02*
X13489338Y-19519342D01*
X13475052Y-19505057D01*
X13460767Y-19476485D01*
X13460767Y-19390771D01*
X13475052Y-19362200D01*
X13489338Y-19347914D01*
X13517910Y-19333628D01*
X13560767Y-19333628D01*
X13589338Y-19347914D01*
X13603624Y-19362200D01*
X13617910Y-19390771D01*
X13617910Y-19476485D01*
X13603624Y-19505057D01*
X13589338Y-19519342D01*
X13560767Y-19533628D01*
X13517910Y-19533628D01*
X13789338Y-19533628D02*
X13760767Y-19519342D01*
X13746481Y-19490771D01*
X13746481Y-19233628D01*
X14017910Y-19519342D02*
X13989338Y-19533628D01*
X13932195Y-19533628D01*
X13903624Y-19519342D01*
X13889338Y-19490771D01*
X13889338Y-19376485D01*
X13903624Y-19347914D01*
X13932195Y-19333628D01*
X13989338Y-19333628D01*
X14017910Y-19347914D01*
X14032195Y-19376485D01*
X14032195Y-19405057D01*
X13889338Y-19433628D01*
X14146481Y-19519342D02*
X14175052Y-19533628D01*
X14232195Y-19533628D01*
X14260767Y-19519342D01*
X14275052Y-19490771D01*
X14275052Y-19476485D01*
X14260767Y-19447914D01*
X14232195Y-19433628D01*
X14189338Y-19433628D01*
X14160767Y-19419342D01*
X14146481Y-19390771D01*
X14146481Y-19376485D01*
X14160767Y-19347914D01*
X14189338Y-19333628D01*
X14232195Y-19333628D01*
X14260767Y-19347914D01*
X14375052Y-19647914D02*
X14389338Y-19633628D01*
X14417910Y-19590771D01*
X14432195Y-19562200D01*
X14446481Y-19519342D01*
X14460767Y-19447914D01*
X14460767Y-19390771D01*
X14446481Y-19319342D01*
X14432195Y-19276485D01*
X14417910Y-19247914D01*
X14389338Y-19205057D01*
X14375052Y-19190771D01*
X14917910Y-19647914D02*
X14903624Y-19633628D01*
X14875052Y-19590771D01*
X14860767Y-19562200D01*
X14846481Y-19519342D01*
X14832195Y-19447914D01*
X14832195Y-19390771D01*
X14846481Y-19319342D01*
X14860767Y-19276485D01*
X14875052Y-19247914D01*
X14903624Y-19205057D01*
X14917910Y-19190771D01*
X15032195Y-19333628D02*
X15032195Y-19533628D01*
X15032195Y-19362200D02*
X15046481Y-19347914D01*
X15075052Y-19333628D01*
X15117910Y-19333628D01*
X15146481Y-19347914D01*
X15160767Y-19376485D01*
X15160767Y-19533628D01*
X15346481Y-19533628D02*
X15317910Y-19519342D01*
X15303624Y-19505057D01*
X15289338Y-19476485D01*
X15289338Y-19390771D01*
X15303624Y-19362200D01*
X15317910Y-19347914D01*
X15346481Y-19333628D01*
X15389338Y-19333628D01*
X15417910Y-19347914D01*
X15432195Y-19362200D01*
X15446481Y-19390771D01*
X15446481Y-19476485D01*
X15432195Y-19505057D01*
X15417910Y-19519342D01*
X15389338Y-19533628D01*
X15346481Y-19533628D01*
X15532195Y-19333628D02*
X15646481Y-19333628D01*
X15575052Y-19233628D02*
X15575052Y-19490771D01*
X15589338Y-19519342D01*
X15617910Y-19533628D01*
X15646481Y-19533628D01*
X15975052Y-19333628D02*
X15975052Y-19633628D01*
X15975052Y-19347914D02*
X16003624Y-19333628D01*
X16060767Y-19333628D01*
X16089338Y-19347914D01*
X16103624Y-19362200D01*
X16117910Y-19390771D01*
X16117910Y-19476485D01*
X16103624Y-19505057D01*
X16089338Y-19519342D01*
X16060767Y-19533628D01*
X16003624Y-19533628D01*
X15975052Y-19519342D01*
X16289338Y-19533628D02*
X16260767Y-19519342D01*
X16246481Y-19490771D01*
X16246481Y-19233628D01*
X16532195Y-19533628D02*
X16532195Y-19376485D01*
X16517910Y-19347914D01*
X16489338Y-19333628D01*
X16432195Y-19333628D01*
X16403624Y-19347914D01*
X16532195Y-19519342D02*
X16503624Y-19533628D01*
X16432195Y-19533628D01*
X16403624Y-19519342D01*
X16389338Y-19490771D01*
X16389338Y-19462200D01*
X16403624Y-19433628D01*
X16432195Y-19419342D01*
X16503624Y-19419342D01*
X16532195Y-19405057D01*
X16632195Y-19333628D02*
X16746481Y-19333628D01*
X16675052Y-19233628D02*
X16675052Y-19490771D01*
X16689338Y-19519342D01*
X16717910Y-19533628D01*
X16746481Y-19533628D01*
X16960767Y-19519342D02*
X16932195Y-19533628D01*
X16875053Y-19533628D01*
X16846481Y-19519342D01*
X16832195Y-19490771D01*
X16832195Y-19376485D01*
X16846481Y-19347914D01*
X16875053Y-19333628D01*
X16932195Y-19333628D01*
X16960767Y-19347914D01*
X16975053Y-19376485D01*
X16975053Y-19405057D01*
X16832195Y-19433628D01*
X17232195Y-19533628D02*
X17232195Y-19233628D01*
X17232195Y-19519342D02*
X17203624Y-19533628D01*
X17146481Y-19533628D01*
X17117910Y-19519342D01*
X17103624Y-19505057D01*
X17089338Y-19476485D01*
X17089338Y-19390771D01*
X17103624Y-19362200D01*
X17117910Y-19347914D01*
X17146481Y-19333628D01*
X17203624Y-19333628D01*
X17232195Y-19347914D01*
X17346481Y-19647914D02*
X17360767Y-19633628D01*
X17389338Y-19590771D01*
X17403624Y-19562200D01*
X17417910Y-19519342D01*
X17432195Y-19447914D01*
X17432195Y-19390771D01*
X17417910Y-19319342D01*
X17403624Y-19276485D01*
X17389338Y-19247914D01*
X17360767Y-19205057D01*
X17346481Y-19190771D01*
M02*
