%TF.GenerationSoftware,KiCad,Pcbnew,5.1.12-84ad8e8a86~92~ubuntu20.04.1*%
%TF.CreationDate,2021-11-17T00:51:57+01:00*%
%TF.ProjectId,LergoTopPlate_FR4_Rails,4c657267-6f54-46f7-9050-6c6174655f46,v1.A*%
%TF.SameCoordinates,Original*%
%TF.FileFunction,Profile,NP*%
%FSLAX46Y46*%
G04 Gerber Fmt 4.6, Leading zero omitted, Abs format (unit mm)*
G04 Created by KiCad (PCBNEW 5.1.12-84ad8e8a86~92~ubuntu20.04.1) date 2021-11-17 00:51:57*
%MOMM*%
%LPD*%
G01*
G04 APERTURE LIST*
%TA.AperFunction,Profile*%
%ADD10C,0.150000*%
%TD*%
%TA.AperFunction,Profile*%
%ADD11C,0.120000*%
%TD*%
%TA.AperFunction,Profile*%
%ADD12C,0.100000*%
%TD*%
G04 APERTURE END LIST*
D10*
X137950000Y-109342358D02*
X139444588Y-113682955D01*
X80830670Y-128249700D02*
X80854279Y-128275902D01*
X80830670Y-128249700D02*
G75*
G02*
X123950000Y-98666504I80929711J-71743900D01*
G01*
X154760001Y-111120001D02*
X181100000Y-111120000D01*
X195100000Y-124620000D02*
G75*
G02*
X194600000Y-125120000I-500000J0D01*
G01*
X139444588Y-113682956D02*
G75*
G02*
X154760001Y-111120001I22315793J-86310644D01*
G01*
X161760001Y-125120001D02*
X194600000Y-125120000D01*
X108818744Y-147047978D02*
G75*
G02*
X161760001Y-125120001I52941637J-52945622D01*
G01*
X123950000Y-35860000D02*
X123950000Y-98666504D01*
X137950000Y-109342358D02*
X137950000Y-35860000D01*
X143000000Y-32860000D02*
X143000000Y-99050000D01*
X157000000Y-99050000D02*
X157000000Y-32860000D01*
X162050000Y-31900000D02*
X162050000Y-99070000D01*
X176050000Y-99070000D02*
X176050000Y-31900000D01*
X181100000Y-32940000D02*
X181100000Y-111120000D01*
X195100000Y-124620000D02*
X195100000Y-32940000D01*
X200150000Y-36020000D02*
X200150000Y-118120000D01*
X214150000Y-118120000D02*
X214150000Y-36020000D01*
X219200000Y-51200000D02*
X219200000Y-118120000D01*
X233200000Y-118120000D02*
X233200000Y-51200000D01*
D11*
X73524848Y-127344018D02*
G75*
G02*
X73524848Y-125929804I707107J707107D01*
G01*
D12*
X95103365Y-148922535D02*
G75*
G02*
X95103365Y-155993603I-3535534J-3535534D01*
G01*
X102174433Y-163064671D02*
G75*
G02*
X95103365Y-155993603I-3535534J3535534D01*
G01*
X98641295Y-39932170D02*
G75*
G02*
X101614896Y-42905771I0J-2973601D01*
G01*
X98641295Y-39932170D02*
G75*
G02*
X96852971Y-30262004I-2396J4999999D01*
G01*
X222220381Y-131740000D02*
G75*
G02*
X227220381Y-136740000I0J-5000000D01*
G01*
X237220381Y-136740000D02*
G75*
G02*
X227220381Y-136740000I-5000000J0D01*
G01*
X101614896Y-101696929D02*
G75*
G02*
X101143092Y-102545766I-1000000J286D01*
G01*
X101614896Y-42905771D02*
X101614896Y-101696929D01*
X234214126Y-33343544D02*
G75*
G02*
X237220381Y-37928844I-1993745J-4585300D01*
G01*
X96852971Y-30262005D02*
G75*
G02*
X234214126Y-33343544I64907410J-169731595D01*
G01*
X80612709Y-118841943D02*
G75*
G02*
X101143092Y-102545766I81147672J-81151657D01*
G01*
X73524848Y-125929804D02*
X80612709Y-118841943D01*
X95103365Y-148922535D02*
X73524848Y-127344018D01*
X113500343Y-151733562D02*
X102174433Y-163064671D01*
X113500343Y-151733562D02*
G75*
G02*
X161760381Y-131743600I48260038J-48260038D01*
G01*
X161760381Y-131743600D02*
X222220381Y-131740000D01*
X237220381Y-37928844D02*
X237220381Y-136740000D01*
D10*
X104224158Y-151645781D02*
X108820353Y-147049587D01*
X92185666Y-140314394D02*
X103517052Y-151645781D01*
X80854279Y-128983008D02*
X92185666Y-140314394D01*
X104224159Y-151645780D02*
G75*
G02*
X103517052Y-151645781I-353554J353553D01*
G01*
X80854280Y-128983009D02*
G75*
G02*
X80854279Y-128275902I353553J353554D01*
G01*
D11*
X105900000Y-29327500D02*
X117900000Y-29327500D01*
X118400000Y-29827500D02*
X118400000Y-67827500D01*
X117900000Y-68327500D02*
X105900000Y-68327500D01*
X105400000Y-67827500D02*
X105400000Y-29827500D01*
X118400000Y-67827500D02*
G75*
G02*
X117900000Y-68327500I-500000J0D01*
G01*
X105900000Y-68327500D02*
G75*
G02*
X105400000Y-67827500I0J500000D01*
G01*
X105400000Y-29827500D02*
G75*
G02*
X105900000Y-29327500I500000J0D01*
G01*
X117900000Y-29327500D02*
G75*
G02*
X118400000Y-29827500I0J-500000D01*
G01*
D10*
X157000000Y-105550000D02*
X157000000Y-99050000D01*
X143000000Y-99050000D02*
X143000000Y-105550000D01*
X143500000Y-106050000D02*
X156500000Y-106050000D01*
X143500000Y-106050000D02*
G75*
G02*
X143000000Y-105550000I0J500000D01*
G01*
X157000000Y-105550000D02*
G75*
G02*
X156500000Y-106050000I-500000J0D01*
G01*
X123950000Y-29360000D02*
X123950000Y-35860000D01*
X137950000Y-35860000D02*
X137950000Y-29360000D01*
X137450000Y-28860000D02*
X124450000Y-28860000D01*
X137450000Y-28860000D02*
G75*
G02*
X137950000Y-29360000I0J-500000D01*
G01*
X123950000Y-29360000D02*
G75*
G02*
X124450000Y-28860000I500000J0D01*
G01*
X200150000Y-29520000D02*
X200150000Y-36020000D01*
X214150000Y-36020000D02*
X214150000Y-29520000D01*
X213650000Y-29020000D02*
X200650000Y-29020000D01*
X213650000Y-29020000D02*
G75*
G02*
X214150000Y-29520000I0J-500000D01*
G01*
X200150000Y-29520000D02*
G75*
G02*
X200650000Y-29020000I500000J0D01*
G01*
X181100000Y-26440000D02*
X181100000Y-32940000D01*
X195100000Y-32940000D02*
X195100000Y-26440000D01*
X194600000Y-25940000D02*
X181600000Y-25940000D01*
X194600000Y-25940000D02*
G75*
G02*
X195100000Y-26440000I0J-500000D01*
G01*
X181100000Y-26440000D02*
G75*
G02*
X181600000Y-25940000I500000J0D01*
G01*
X162050000Y-25400000D02*
X162050000Y-31900000D01*
X176050000Y-31900000D02*
X176050000Y-25400000D01*
X175550000Y-24900000D02*
X162550000Y-24900000D01*
X175550000Y-24900000D02*
G75*
G02*
X176050000Y-25400000I0J-500000D01*
G01*
X162050000Y-25400000D02*
G75*
G02*
X162550000Y-24900000I500000J0D01*
G01*
X176050000Y-105570000D02*
X176050000Y-99070000D01*
X162050000Y-99070000D02*
X162050000Y-105570000D01*
X162550000Y-106070000D02*
X175550000Y-106070000D01*
X162550000Y-106070000D02*
G75*
G02*
X162050000Y-105570000I0J500000D01*
G01*
X176050000Y-105570000D02*
G75*
G02*
X175550000Y-106070000I-500000J0D01*
G01*
X143000000Y-26360000D02*
X143000000Y-32860000D01*
X157000000Y-32860000D02*
X157000000Y-26360000D01*
X156500000Y-25860000D02*
X143500000Y-25860000D01*
X156500000Y-25860000D02*
G75*
G02*
X157000000Y-26360000I0J-500000D01*
G01*
X143000000Y-26360000D02*
G75*
G02*
X143500000Y-25860000I500000J0D01*
G01*
X219200000Y-44700000D02*
X219200000Y-51200000D01*
X233200000Y-51200000D02*
X233200000Y-44700000D01*
X232700000Y-44200000D02*
X219700000Y-44200000D01*
X232700000Y-44200000D02*
G75*
G02*
X233200000Y-44700000I0J-500000D01*
G01*
X219200000Y-44700000D02*
G75*
G02*
X219700000Y-44200000I500000J0D01*
G01*
X233200000Y-124620000D02*
X233200000Y-118120000D01*
X219200000Y-118120000D02*
X219200000Y-124620000D01*
X219700000Y-125120000D02*
X232700000Y-125120000D01*
X219700000Y-125120000D02*
G75*
G02*
X219200000Y-124620000I0J500000D01*
G01*
X233200000Y-124620000D02*
G75*
G02*
X232700000Y-125120000I-500000J0D01*
G01*
X214150000Y-124620000D02*
X214150000Y-118120000D01*
X200150000Y-118120000D02*
X200150000Y-124620000D01*
X200650000Y-125120000D02*
X213650000Y-125120000D01*
X200650000Y-125120000D02*
G75*
G02*
X200150000Y-124620000I0J500000D01*
G01*
X214150000Y-124620000D02*
G75*
G02*
X213650000Y-125120000I-500000J0D01*
G01*
M02*
