%TF.GenerationSoftware,KiCad,Pcbnew,5.1.12-84ad8e8a86~92~ubuntu20.04.1*%
%TF.CreationDate,2021-11-14T20:34:32+01:00*%
%TF.ProjectId,LergoBottomPlate,4c657267-6f42-46f7-9474-6f6d506c6174,v1.A*%
%TF.SameCoordinates,Original*%
%TF.FileFunction,Legend,Top*%
%TF.FilePolarity,Positive*%
%FSLAX46Y46*%
G04 Gerber Fmt 4.6, Leading zero omitted, Abs format (unit mm)*
G04 Created by KiCad (PCBNEW 5.1.12-84ad8e8a86~92~ubuntu20.04.1) date 2021-11-14 20:34:32*
%MOMM*%
%LPD*%
G01*
G04 APERTURE LIST*
%ADD10C,0.153000*%
%ADD11C,0.150000*%
%ADD12C,0.300000*%
%ADD13C,1.000000*%
%ADD14C,0.250000*%
%ADD15C,0.500000*%
%ADD16C,2.500000*%
%ADD17C,5.300000*%
%ADD18C,2.000000*%
%ADD19C,1.200000*%
G04 APERTURE END LIST*
D10*
X124026250Y-99070000D02*
X126526250Y-99070000D01*
D11*
X127338035Y-99477142D02*
X127338035Y-98577142D01*
X127638035Y-99220000D01*
X127938035Y-98577142D01*
X127938035Y-99477142D01*
X128366607Y-99477142D02*
X128366607Y-98877142D01*
X128366607Y-98577142D02*
X128323750Y-98620000D01*
X128366607Y-98662857D01*
X128409464Y-98620000D01*
X128366607Y-98577142D01*
X128366607Y-98662857D01*
X128795178Y-98877142D02*
X128795178Y-99477142D01*
X128795178Y-98962857D02*
X128838035Y-98920000D01*
X128923750Y-98877142D01*
X129052321Y-98877142D01*
X129138035Y-98920000D01*
X129180892Y-99005714D01*
X129180892Y-99477142D01*
X129609464Y-99391428D02*
X129652321Y-99434285D01*
X129609464Y-99477142D01*
X129566607Y-99434285D01*
X129609464Y-99391428D01*
X129609464Y-99477142D01*
X129609464Y-98920000D02*
X129652321Y-98962857D01*
X129609464Y-99005714D01*
X129566607Y-98962857D01*
X129609464Y-98920000D01*
X129609464Y-99005714D01*
X130723750Y-99134285D02*
X131409464Y-99134285D01*
X131752321Y-98577142D02*
X132352321Y-98577142D01*
X131966607Y-99477142D01*
X132695178Y-99477142D02*
X132695178Y-98877142D01*
X132695178Y-98962857D02*
X132738035Y-98920000D01*
X132823750Y-98877142D01*
X132952321Y-98877142D01*
X133038035Y-98920000D01*
X133080892Y-99005714D01*
X133080892Y-99477142D01*
X133080892Y-99005714D02*
X133123750Y-98920000D01*
X133209464Y-98877142D01*
X133338035Y-98877142D01*
X133423750Y-98920000D01*
X133466607Y-99005714D01*
X133466607Y-99477142D01*
X133895178Y-99477142D02*
X133895178Y-98877142D01*
X133895178Y-98962857D02*
X133938035Y-98920000D01*
X134023750Y-98877142D01*
X134152321Y-98877142D01*
X134238035Y-98920000D01*
X134280892Y-99005714D01*
X134280892Y-99477142D01*
X134280892Y-99005714D02*
X134323750Y-98920000D01*
X134409464Y-98877142D01*
X134538035Y-98877142D01*
X134623750Y-98920000D01*
X134666607Y-99005714D01*
X134666607Y-99477142D01*
D10*
X154923750Y-104395000D02*
X153923750Y-104395000D01*
X154923750Y-103395000D02*
X154923750Y-104395000D01*
X193023750Y-123445000D02*
X193023750Y-122445000D01*
X192023750Y-123445000D02*
X193023750Y-123445000D01*
X156923750Y-103395000D02*
X154923750Y-103395000D01*
X173973750Y-100895000D02*
X172973750Y-100895000D01*
X173973750Y-103395000D02*
X173973750Y-100895000D01*
X175973750Y-103395000D02*
X173973750Y-103395000D01*
X195023750Y-122445000D02*
X193023750Y-122445000D01*
X214073750Y-127643750D02*
X211073750Y-127643750D01*
X233123750Y-127643750D02*
X230123750Y-127643750D01*
D11*
X144497678Y-104802142D02*
X144497678Y-103902142D01*
X144797678Y-104545000D01*
X145097678Y-103902142D01*
X145097678Y-104802142D01*
X145526250Y-104802142D02*
X145526250Y-104202142D01*
X145526250Y-103902142D02*
X145483392Y-103945000D01*
X145526250Y-103987857D01*
X145569107Y-103945000D01*
X145526250Y-103902142D01*
X145526250Y-103987857D01*
X145954821Y-104202142D02*
X145954821Y-104802142D01*
X145954821Y-104287857D02*
X145997678Y-104245000D01*
X146083392Y-104202142D01*
X146211964Y-104202142D01*
X146297678Y-104245000D01*
X146340535Y-104330714D01*
X146340535Y-104802142D01*
X146769107Y-104716428D02*
X146811964Y-104759285D01*
X146769107Y-104802142D01*
X146726250Y-104759285D01*
X146769107Y-104716428D01*
X146769107Y-104802142D01*
X146769107Y-104245000D02*
X146811964Y-104287857D01*
X146769107Y-104330714D01*
X146726250Y-104287857D01*
X146769107Y-104245000D01*
X146769107Y-104330714D01*
X147883392Y-104459285D02*
X148569107Y-104459285D01*
X148226250Y-104802142D02*
X148226250Y-104116428D01*
X149426250Y-103902142D02*
X148997678Y-103902142D01*
X148954821Y-104330714D01*
X148997678Y-104287857D01*
X149083392Y-104245000D01*
X149297678Y-104245000D01*
X149383392Y-104287857D01*
X149426250Y-104330714D01*
X149469107Y-104416428D01*
X149469107Y-104630714D01*
X149426250Y-104716428D01*
X149383392Y-104759285D01*
X149297678Y-104802142D01*
X149083392Y-104802142D01*
X148997678Y-104759285D01*
X148954821Y-104716428D01*
X149854821Y-104716428D02*
X149897678Y-104759285D01*
X149854821Y-104802142D01*
X149811964Y-104759285D01*
X149854821Y-104716428D01*
X149854821Y-104802142D01*
X150240535Y-103987857D02*
X150283392Y-103945000D01*
X150369107Y-103902142D01*
X150583392Y-103902142D01*
X150669107Y-103945000D01*
X150711964Y-103987857D01*
X150754821Y-104073571D01*
X150754821Y-104159285D01*
X150711964Y-104287857D01*
X150197678Y-104802142D01*
X150754821Y-104802142D01*
X151140535Y-104802142D02*
X151140535Y-104202142D01*
X151140535Y-104287857D02*
X151183392Y-104245000D01*
X151269107Y-104202142D01*
X151397678Y-104202142D01*
X151483392Y-104245000D01*
X151526250Y-104330714D01*
X151526250Y-104802142D01*
X151526250Y-104330714D02*
X151569107Y-104245000D01*
X151654821Y-104202142D01*
X151783392Y-104202142D01*
X151869107Y-104245000D01*
X151911964Y-104330714D01*
X151911964Y-104802142D01*
X152340535Y-104802142D02*
X152340535Y-104202142D01*
X152340535Y-104287857D02*
X152383392Y-104245000D01*
X152469107Y-104202142D01*
X152597678Y-104202142D01*
X152683392Y-104245000D01*
X152726250Y-104330714D01*
X152726250Y-104802142D01*
X152726250Y-104330714D02*
X152769107Y-104245000D01*
X152854821Y-104202142D01*
X152983392Y-104202142D01*
X153069107Y-104245000D01*
X153111964Y-104330714D01*
X153111964Y-104802142D01*
X163547678Y-101302142D02*
X163547678Y-100402142D01*
X163847678Y-101045000D01*
X164147678Y-100402142D01*
X164147678Y-101302142D01*
X164576250Y-101302142D02*
X164576250Y-100702142D01*
X164576250Y-100402142D02*
X164533392Y-100445000D01*
X164576250Y-100487857D01*
X164619107Y-100445000D01*
X164576250Y-100402142D01*
X164576250Y-100487857D01*
X165004821Y-100702142D02*
X165004821Y-101302142D01*
X165004821Y-100787857D02*
X165047678Y-100745000D01*
X165133392Y-100702142D01*
X165261964Y-100702142D01*
X165347678Y-100745000D01*
X165390535Y-100830714D01*
X165390535Y-101302142D01*
X165819107Y-101216428D02*
X165861964Y-101259285D01*
X165819107Y-101302142D01*
X165776250Y-101259285D01*
X165819107Y-101216428D01*
X165819107Y-101302142D01*
X165819107Y-100745000D02*
X165861964Y-100787857D01*
X165819107Y-100830714D01*
X165776250Y-100787857D01*
X165819107Y-100745000D01*
X165819107Y-100830714D01*
X166933392Y-100959285D02*
X167619107Y-100959285D01*
X168519107Y-101302142D02*
X168004821Y-101302142D01*
X168261964Y-101302142D02*
X168261964Y-100402142D01*
X168176250Y-100530714D01*
X168090535Y-100616428D01*
X168004821Y-100659285D01*
X168904821Y-101216428D02*
X168947678Y-101259285D01*
X168904821Y-101302142D01*
X168861964Y-101259285D01*
X168904821Y-101216428D01*
X168904821Y-101302142D01*
X169247678Y-100402142D02*
X169804821Y-100402142D01*
X169504821Y-100745000D01*
X169633392Y-100745000D01*
X169719107Y-100787857D01*
X169761964Y-100830714D01*
X169804821Y-100916428D01*
X169804821Y-101130714D01*
X169761964Y-101216428D01*
X169719107Y-101259285D01*
X169633392Y-101302142D01*
X169376250Y-101302142D01*
X169290535Y-101259285D01*
X169247678Y-101216428D01*
X170190535Y-101302142D02*
X170190535Y-100702142D01*
X170190535Y-100787857D02*
X170233392Y-100745000D01*
X170319107Y-100702142D01*
X170447678Y-100702142D01*
X170533392Y-100745000D01*
X170576250Y-100830714D01*
X170576250Y-101302142D01*
X170576250Y-100830714D02*
X170619107Y-100745000D01*
X170704821Y-100702142D01*
X170833392Y-100702142D01*
X170919107Y-100745000D01*
X170961964Y-100830714D01*
X170961964Y-101302142D01*
X171390535Y-101302142D02*
X171390535Y-100702142D01*
X171390535Y-100787857D02*
X171433392Y-100745000D01*
X171519107Y-100702142D01*
X171647678Y-100702142D01*
X171733392Y-100745000D01*
X171776250Y-100830714D01*
X171776250Y-101302142D01*
X171776250Y-100830714D02*
X171819107Y-100745000D01*
X171904821Y-100702142D01*
X172033392Y-100702142D01*
X172119107Y-100745000D01*
X172161964Y-100830714D01*
X172161964Y-101302142D01*
X181740535Y-123852142D02*
X181740535Y-122952142D01*
X182040535Y-123595000D01*
X182340535Y-122952142D01*
X182340535Y-123852142D01*
X182769107Y-123852142D02*
X182769107Y-123252142D01*
X182769107Y-122952142D02*
X182726250Y-122995000D01*
X182769107Y-123037857D01*
X182811964Y-122995000D01*
X182769107Y-122952142D01*
X182769107Y-123037857D01*
X183197678Y-123252142D02*
X183197678Y-123852142D01*
X183197678Y-123337857D02*
X183240535Y-123295000D01*
X183326250Y-123252142D01*
X183454821Y-123252142D01*
X183540535Y-123295000D01*
X183583392Y-123380714D01*
X183583392Y-123852142D01*
X184011964Y-123766428D02*
X184054821Y-123809285D01*
X184011964Y-123852142D01*
X183969107Y-123809285D01*
X184011964Y-123766428D01*
X184011964Y-123852142D01*
X184011964Y-123295000D02*
X184054821Y-123337857D01*
X184011964Y-123380714D01*
X183969107Y-123337857D01*
X184011964Y-123295000D01*
X184011964Y-123380714D01*
X185126250Y-123509285D02*
X185811964Y-123509285D01*
X186711964Y-123852142D02*
X186197678Y-123852142D01*
X186454821Y-123852142D02*
X186454821Y-122952142D01*
X186369107Y-123080714D01*
X186283392Y-123166428D01*
X186197678Y-123209285D01*
X187483392Y-123252142D02*
X187483392Y-123852142D01*
X187269107Y-122909285D02*
X187054821Y-123552142D01*
X187611964Y-123552142D01*
X187954821Y-123766428D02*
X187997678Y-123809285D01*
X187954821Y-123852142D01*
X187911964Y-123809285D01*
X187954821Y-123766428D01*
X187954821Y-123852142D01*
X188769107Y-123252142D02*
X188769107Y-123852142D01*
X188554821Y-122909285D02*
X188340535Y-123552142D01*
X188897678Y-123552142D01*
X189240535Y-123852142D02*
X189240535Y-123252142D01*
X189240535Y-123337857D02*
X189283392Y-123295000D01*
X189369107Y-123252142D01*
X189497678Y-123252142D01*
X189583392Y-123295000D01*
X189626250Y-123380714D01*
X189626250Y-123852142D01*
X189626250Y-123380714D02*
X189669107Y-123295000D01*
X189754821Y-123252142D01*
X189883392Y-123252142D01*
X189969107Y-123295000D01*
X190011964Y-123380714D01*
X190011964Y-123852142D01*
X190440535Y-123852142D02*
X190440535Y-123252142D01*
X190440535Y-123337857D02*
X190483392Y-123295000D01*
X190569107Y-123252142D01*
X190697678Y-123252142D01*
X190783392Y-123295000D01*
X190826250Y-123380714D01*
X190826250Y-123852142D01*
X190826250Y-123380714D02*
X190869107Y-123295000D01*
X190954821Y-123252142D01*
X191083392Y-123252142D01*
X191169107Y-123295000D01*
X191211964Y-123380714D01*
X191211964Y-123852142D01*
X201647678Y-128050892D02*
X201647678Y-127150892D01*
X201947678Y-127793750D01*
X202247678Y-127150892D01*
X202247678Y-128050892D01*
X202676250Y-128050892D02*
X202676250Y-127450892D01*
X202676250Y-127150892D02*
X202633392Y-127193750D01*
X202676250Y-127236607D01*
X202719107Y-127193750D01*
X202676250Y-127150892D01*
X202676250Y-127236607D01*
X203104821Y-127450892D02*
X203104821Y-128050892D01*
X203104821Y-127536607D02*
X203147678Y-127493750D01*
X203233392Y-127450892D01*
X203361964Y-127450892D01*
X203447678Y-127493750D01*
X203490535Y-127579464D01*
X203490535Y-128050892D01*
X203919107Y-127965178D02*
X203961964Y-128008035D01*
X203919107Y-128050892D01*
X203876250Y-128008035D01*
X203919107Y-127965178D01*
X203919107Y-128050892D01*
X203919107Y-127493750D02*
X203961964Y-127536607D01*
X203919107Y-127579464D01*
X203876250Y-127536607D01*
X203919107Y-127493750D01*
X203919107Y-127579464D01*
X205033392Y-127708035D02*
X205719107Y-127708035D01*
X206061964Y-127150892D02*
X206661964Y-127150892D01*
X206276250Y-128050892D01*
X207004821Y-127965178D02*
X207047678Y-128008035D01*
X207004821Y-128050892D01*
X206961964Y-128008035D01*
X207004821Y-127965178D01*
X207004821Y-128050892D01*
X207819107Y-127150892D02*
X207647678Y-127150892D01*
X207561964Y-127193750D01*
X207519107Y-127236607D01*
X207433392Y-127365178D01*
X207390535Y-127536607D01*
X207390535Y-127879464D01*
X207433392Y-127965178D01*
X207476250Y-128008035D01*
X207561964Y-128050892D01*
X207733392Y-128050892D01*
X207819107Y-128008035D01*
X207861964Y-127965178D01*
X207904821Y-127879464D01*
X207904821Y-127665178D01*
X207861964Y-127579464D01*
X207819107Y-127536607D01*
X207733392Y-127493750D01*
X207561964Y-127493750D01*
X207476250Y-127536607D01*
X207433392Y-127579464D01*
X207390535Y-127665178D01*
X208290535Y-128050892D02*
X208290535Y-127450892D01*
X208290535Y-127536607D02*
X208333392Y-127493750D01*
X208419107Y-127450892D01*
X208547678Y-127450892D01*
X208633392Y-127493750D01*
X208676250Y-127579464D01*
X208676250Y-128050892D01*
X208676250Y-127579464D02*
X208719107Y-127493750D01*
X208804821Y-127450892D01*
X208933392Y-127450892D01*
X209019107Y-127493750D01*
X209061964Y-127579464D01*
X209061964Y-128050892D01*
X209490535Y-128050892D02*
X209490535Y-127450892D01*
X209490535Y-127536607D02*
X209533392Y-127493750D01*
X209619107Y-127450892D01*
X209747678Y-127450892D01*
X209833392Y-127493750D01*
X209876250Y-127579464D01*
X209876250Y-128050892D01*
X209876250Y-127579464D02*
X209919107Y-127493750D01*
X210004821Y-127450892D01*
X210133392Y-127450892D01*
X210219107Y-127493750D01*
X210261964Y-127579464D01*
X210261964Y-128050892D01*
X220697678Y-128050892D02*
X220697678Y-127150892D01*
X220997678Y-127793750D01*
X221297678Y-127150892D01*
X221297678Y-128050892D01*
X221726250Y-128050892D02*
X221726250Y-127450892D01*
X221726250Y-127150892D02*
X221683392Y-127193750D01*
X221726250Y-127236607D01*
X221769107Y-127193750D01*
X221726250Y-127150892D01*
X221726250Y-127236607D01*
X222154821Y-127450892D02*
X222154821Y-128050892D01*
X222154821Y-127536607D02*
X222197678Y-127493750D01*
X222283392Y-127450892D01*
X222411964Y-127450892D01*
X222497678Y-127493750D01*
X222540535Y-127579464D01*
X222540535Y-128050892D01*
X222969107Y-127965178D02*
X223011964Y-128008035D01*
X222969107Y-128050892D01*
X222926250Y-128008035D01*
X222969107Y-127965178D01*
X222969107Y-128050892D01*
X222969107Y-127493750D02*
X223011964Y-127536607D01*
X222969107Y-127579464D01*
X222926250Y-127536607D01*
X222969107Y-127493750D01*
X222969107Y-127579464D01*
X224083392Y-127708035D02*
X224769107Y-127708035D01*
X225111964Y-127150892D02*
X225711964Y-127150892D01*
X225326250Y-128050892D01*
X226054821Y-127965178D02*
X226097678Y-128008035D01*
X226054821Y-128050892D01*
X226011964Y-128008035D01*
X226054821Y-127965178D01*
X226054821Y-128050892D01*
X226869107Y-127150892D02*
X226697678Y-127150892D01*
X226611964Y-127193750D01*
X226569107Y-127236607D01*
X226483392Y-127365178D01*
X226440535Y-127536607D01*
X226440535Y-127879464D01*
X226483392Y-127965178D01*
X226526250Y-128008035D01*
X226611964Y-128050892D01*
X226783392Y-128050892D01*
X226869107Y-128008035D01*
X226911964Y-127965178D01*
X226954821Y-127879464D01*
X226954821Y-127665178D01*
X226911964Y-127579464D01*
X226869107Y-127536607D01*
X226783392Y-127493750D01*
X226611964Y-127493750D01*
X226526250Y-127536607D01*
X226483392Y-127579464D01*
X226440535Y-127665178D01*
X227340535Y-128050892D02*
X227340535Y-127450892D01*
X227340535Y-127536607D02*
X227383392Y-127493750D01*
X227469107Y-127450892D01*
X227597678Y-127450892D01*
X227683392Y-127493750D01*
X227726250Y-127579464D01*
X227726250Y-128050892D01*
X227726250Y-127579464D02*
X227769107Y-127493750D01*
X227854821Y-127450892D01*
X227983392Y-127450892D01*
X228069107Y-127493750D01*
X228111964Y-127579464D01*
X228111964Y-128050892D01*
X228540535Y-128050892D02*
X228540535Y-127450892D01*
X228540535Y-127536607D02*
X228583392Y-127493750D01*
X228669107Y-127450892D01*
X228797678Y-127450892D01*
X228883392Y-127493750D01*
X228926250Y-127579464D01*
X228926250Y-128050892D01*
X228926250Y-127579464D02*
X228969107Y-127493750D01*
X229054821Y-127450892D01*
X229183392Y-127450892D01*
X229269107Y-127493750D01*
X229311964Y-127579464D01*
X229311964Y-128050892D01*
D10*
X221776250Y-53816945D02*
X219276250Y-53816945D01*
X221276250Y-34216945D02*
X221776250Y-34216945D01*
X221276250Y-31716945D02*
X221276250Y-34216945D01*
X221276250Y-31716945D02*
X219276250Y-31716945D01*
X217776250Y-41125000D02*
X215776250Y-41125000D01*
X217776250Y-41125000D02*
X217776250Y-43875000D01*
X217776250Y-43875000D02*
X219276250Y-43875000D01*
X215776250Y-39875000D02*
X217276250Y-39875000D01*
X217276250Y-37275000D02*
X217276250Y-39875000D01*
X217276250Y-37275000D02*
X219276250Y-37275000D01*
X216276250Y-36875000D02*
X215776250Y-36875000D01*
X216276250Y-36875000D02*
X216276250Y-37137500D01*
X216276250Y-37137500D02*
X219276250Y-37137500D01*
X217276250Y-35375000D02*
X217276250Y-35552540D01*
X217276250Y-35375000D02*
X215776250Y-35375000D01*
X217276250Y-35552540D02*
X219276250Y-35552540D01*
D11*
X222588035Y-53002659D02*
X222888035Y-53002659D01*
X223016607Y-53474087D02*
X222588035Y-53474087D01*
X222588035Y-52574087D01*
X223016607Y-52574087D01*
X223530892Y-53474087D02*
X223445178Y-53431230D01*
X223402321Y-53345516D01*
X223402321Y-52574087D01*
X224216607Y-53431230D02*
X224130892Y-53474087D01*
X223959464Y-53474087D01*
X223873750Y-53431230D01*
X223830892Y-53345516D01*
X223830892Y-53002659D01*
X223873750Y-52916945D01*
X223959464Y-52874087D01*
X224130892Y-52874087D01*
X224216607Y-52916945D01*
X224259464Y-53002659D01*
X224259464Y-53088373D01*
X223830892Y-53174087D01*
X224645178Y-52874087D02*
X224645178Y-53774087D01*
X224645178Y-52916945D02*
X224730892Y-52874087D01*
X224902321Y-52874087D01*
X224988035Y-52916945D01*
X225030892Y-52959802D01*
X225073750Y-53045516D01*
X225073750Y-53302659D01*
X225030892Y-53388373D01*
X224988035Y-53431230D01*
X224902321Y-53474087D01*
X224730892Y-53474087D01*
X224645178Y-53431230D01*
X225459464Y-53474087D02*
X225459464Y-52574087D01*
X225845178Y-53474087D02*
X225845178Y-53002659D01*
X225802321Y-52916945D01*
X225716607Y-52874087D01*
X225588035Y-52874087D01*
X225502321Y-52916945D01*
X225459464Y-52959802D01*
X226659464Y-53474087D02*
X226659464Y-53002659D01*
X226616607Y-52916945D01*
X226530892Y-52874087D01*
X226359464Y-52874087D01*
X226273750Y-52916945D01*
X226659464Y-53431230D02*
X226573750Y-53474087D01*
X226359464Y-53474087D01*
X226273750Y-53431230D01*
X226230892Y-53345516D01*
X226230892Y-53259802D01*
X226273750Y-53174087D01*
X226359464Y-53131230D01*
X226573750Y-53131230D01*
X226659464Y-53088373D01*
X227088035Y-52874087D02*
X227088035Y-53474087D01*
X227088035Y-52959802D02*
X227130892Y-52916945D01*
X227216607Y-52874087D01*
X227345178Y-52874087D01*
X227430892Y-52916945D01*
X227473750Y-53002659D01*
X227473750Y-53474087D01*
X227773750Y-52874087D02*
X228116607Y-52874087D01*
X227902321Y-52574087D02*
X227902321Y-53345516D01*
X227945178Y-53431230D01*
X228030892Y-53474087D01*
X228116607Y-53474087D01*
X228802321Y-52874087D02*
X228802321Y-53474087D01*
X228588035Y-52531230D02*
X228373750Y-53174087D01*
X228930892Y-53174087D01*
X229230892Y-52659802D02*
X229273750Y-52616945D01*
X229359464Y-52574087D01*
X229573750Y-52574087D01*
X229659464Y-52616945D01*
X229702321Y-52659802D01*
X229745178Y-52745516D01*
X229745178Y-52831230D01*
X229702321Y-52959802D01*
X229188035Y-53474087D01*
X229745178Y-53474087D01*
X230130892Y-53388373D02*
X230173750Y-53431230D01*
X230130892Y-53474087D01*
X230088035Y-53431230D01*
X230130892Y-53388373D01*
X230130892Y-53474087D01*
X230130892Y-52916945D02*
X230173750Y-52959802D01*
X230130892Y-53002659D01*
X230088035Y-52959802D01*
X230130892Y-52916945D01*
X230130892Y-53002659D01*
X222588035Y-54631230D02*
X223273750Y-54631230D01*
X223659464Y-54159802D02*
X223702321Y-54116945D01*
X223788035Y-54074087D01*
X224002321Y-54074087D01*
X224088035Y-54116945D01*
X224130892Y-54159802D01*
X224173750Y-54245516D01*
X224173750Y-54331230D01*
X224130892Y-54459802D01*
X223616607Y-54974087D01*
X224173750Y-54974087D01*
X225030892Y-54974087D02*
X224516607Y-54974087D01*
X224773750Y-54974087D02*
X224773750Y-54074087D01*
X224688035Y-54202659D01*
X224602321Y-54288373D01*
X224516607Y-54331230D01*
X225416607Y-54888373D02*
X225459464Y-54931230D01*
X225416607Y-54974087D01*
X225373750Y-54931230D01*
X225416607Y-54888373D01*
X225416607Y-54974087D01*
X226230892Y-54374087D02*
X226230892Y-54974087D01*
X226016607Y-54031230D02*
X225802321Y-54674087D01*
X226359464Y-54674087D01*
X226702321Y-54974087D02*
X226702321Y-54374087D01*
X226702321Y-54459802D02*
X226745178Y-54416945D01*
X226830892Y-54374087D01*
X226959464Y-54374087D01*
X227045178Y-54416945D01*
X227088035Y-54502659D01*
X227088035Y-54974087D01*
X227088035Y-54502659D02*
X227130892Y-54416945D01*
X227216607Y-54374087D01*
X227345178Y-54374087D01*
X227430892Y-54416945D01*
X227473750Y-54502659D01*
X227473750Y-54974087D01*
X227902321Y-54974087D02*
X227902321Y-54374087D01*
X227902321Y-54459802D02*
X227945178Y-54416945D01*
X228030892Y-54374087D01*
X228159464Y-54374087D01*
X228245178Y-54416945D01*
X228288035Y-54502659D01*
X228288035Y-54974087D01*
X228288035Y-54502659D02*
X228330892Y-54416945D01*
X228416607Y-54374087D01*
X228545178Y-54374087D01*
X228630892Y-54416945D01*
X228673750Y-54502659D01*
X228673750Y-54974087D01*
D10*
X185176250Y-31875000D02*
X181176250Y-31875000D01*
X166126250Y-25875000D02*
X162126250Y-25875000D01*
D11*
X128838035Y-26742699D02*
X128838035Y-25842699D01*
X129138035Y-26485557D01*
X129438035Y-25842699D01*
X129438035Y-26742699D01*
X130252321Y-26742699D02*
X130252321Y-26271271D01*
X130209464Y-26185557D01*
X130123750Y-26142699D01*
X129952321Y-26142699D01*
X129866607Y-26185557D01*
X130252321Y-26699842D02*
X130166607Y-26742699D01*
X129952321Y-26742699D01*
X129866607Y-26699842D01*
X129823750Y-26614128D01*
X129823750Y-26528414D01*
X129866607Y-26442699D01*
X129952321Y-26399842D01*
X130166607Y-26399842D01*
X130252321Y-26356985D01*
X130595178Y-26742699D02*
X131066607Y-26142699D01*
X130595178Y-26142699D02*
X131066607Y-26742699D01*
X131409464Y-26656985D02*
X131452321Y-26699842D01*
X131409464Y-26742699D01*
X131366607Y-26699842D01*
X131409464Y-26656985D01*
X131409464Y-26742699D01*
X131409464Y-26185557D02*
X131452321Y-26228414D01*
X131409464Y-26271271D01*
X131366607Y-26228414D01*
X131409464Y-26185557D01*
X131409464Y-26271271D01*
X132523750Y-26399842D02*
X133209464Y-26399842D01*
X132866607Y-26742699D02*
X132866607Y-26056985D01*
X134023750Y-25842699D02*
X133852321Y-25842699D01*
X133766607Y-25885557D01*
X133723750Y-25928414D01*
X133638035Y-26056985D01*
X133595178Y-26228414D01*
X133595178Y-26571271D01*
X133638035Y-26656985D01*
X133680892Y-26699842D01*
X133766607Y-26742699D01*
X133938035Y-26742699D01*
X134023750Y-26699842D01*
X134066607Y-26656985D01*
X134109464Y-26571271D01*
X134109464Y-26356985D01*
X134066607Y-26271271D01*
X134023750Y-26228414D01*
X133938035Y-26185557D01*
X133766607Y-26185557D01*
X133680892Y-26228414D01*
X133638035Y-26271271D01*
X133595178Y-26356985D01*
X134495178Y-26742699D02*
X134495178Y-26142699D01*
X134495178Y-26228414D02*
X134538035Y-26185557D01*
X134623750Y-26142699D01*
X134752321Y-26142699D01*
X134838035Y-26185557D01*
X134880892Y-26271271D01*
X134880892Y-26742699D01*
X134880892Y-26271271D02*
X134923750Y-26185557D01*
X135009464Y-26142699D01*
X135138035Y-26142699D01*
X135223750Y-26185557D01*
X135266607Y-26271271D01*
X135266607Y-26742699D01*
X135695178Y-26742699D02*
X135695178Y-26142699D01*
X135695178Y-26228414D02*
X135738035Y-26185557D01*
X135823750Y-26142699D01*
X135952321Y-26142699D01*
X136038035Y-26185557D01*
X136080892Y-26271271D01*
X136080892Y-26742699D01*
X136080892Y-26271271D02*
X136123750Y-26185557D01*
X136209464Y-26142699D01*
X136338035Y-26142699D01*
X136423750Y-26185557D01*
X136466607Y-26271271D01*
X136466607Y-26742699D01*
X128838035Y-27810714D02*
X129138035Y-27810714D01*
X129266607Y-28282142D02*
X128838035Y-28282142D01*
X128838035Y-27382142D01*
X129266607Y-27382142D01*
X129652321Y-28282142D02*
X129652321Y-27682142D01*
X129652321Y-27853571D02*
X129695178Y-27767857D01*
X129738035Y-27725000D01*
X129823750Y-27682142D01*
X129909464Y-27682142D01*
X130595178Y-27682142D02*
X130595178Y-28410714D01*
X130552321Y-28496428D01*
X130509464Y-28539285D01*
X130423750Y-28582142D01*
X130295178Y-28582142D01*
X130209464Y-28539285D01*
X130595178Y-28239285D02*
X130509464Y-28282142D01*
X130338035Y-28282142D01*
X130252321Y-28239285D01*
X130209464Y-28196428D01*
X130166607Y-28110714D01*
X130166607Y-27853571D01*
X130209464Y-27767857D01*
X130252321Y-27725000D01*
X130338035Y-27682142D01*
X130509464Y-27682142D01*
X130595178Y-27725000D01*
X131152321Y-28282142D02*
X131066607Y-28239285D01*
X131023750Y-28196428D01*
X130980892Y-28110714D01*
X130980892Y-27853571D01*
X131023750Y-27767857D01*
X131066607Y-27725000D01*
X131152321Y-27682142D01*
X131280892Y-27682142D01*
X131366607Y-27725000D01*
X131409464Y-27767857D01*
X131452321Y-27853571D01*
X131452321Y-28110714D01*
X131409464Y-28196428D01*
X131366607Y-28239285D01*
X131280892Y-28282142D01*
X131152321Y-28282142D01*
X131838035Y-28282142D02*
X131838035Y-27382142D01*
X132052321Y-27382142D01*
X132180892Y-27425000D01*
X132266607Y-27510714D01*
X132309464Y-27596428D01*
X132352321Y-27767857D01*
X132352321Y-27896428D01*
X132309464Y-28067857D01*
X132266607Y-28153571D01*
X132180892Y-28239285D01*
X132052321Y-28282142D01*
X131838035Y-28282142D01*
X132866607Y-28282142D02*
X132780892Y-28239285D01*
X132738035Y-28196428D01*
X132695178Y-28110714D01*
X132695178Y-27853571D01*
X132738035Y-27767857D01*
X132780892Y-27725000D01*
X132866607Y-27682142D01*
X132995178Y-27682142D01*
X133080892Y-27725000D01*
X133123750Y-27767857D01*
X133166607Y-27853571D01*
X133166607Y-28110714D01*
X133123750Y-28196428D01*
X133080892Y-28239285D01*
X132995178Y-28282142D01*
X132866607Y-28282142D01*
X133466607Y-28282142D02*
X133938035Y-27682142D01*
X133466607Y-27682142D02*
X133938035Y-28282142D01*
X134280892Y-28196428D02*
X134323750Y-28239285D01*
X134280892Y-28282142D01*
X134238035Y-28239285D01*
X134280892Y-28196428D01*
X134280892Y-28282142D01*
X134280892Y-27725000D02*
X134323750Y-27767857D01*
X134280892Y-27810714D01*
X134238035Y-27767857D01*
X134280892Y-27725000D01*
X134280892Y-27810714D01*
X135395178Y-27939285D02*
X136080892Y-27939285D01*
X136980892Y-28282142D02*
X136466607Y-28282142D01*
X136723750Y-28282142D02*
X136723750Y-27382142D01*
X136638035Y-27510714D01*
X136552321Y-27596428D01*
X136466607Y-27639285D01*
X138009464Y-27339285D02*
X137238035Y-28496428D01*
X138780892Y-28282142D02*
X138266607Y-28282142D01*
X138523750Y-28282142D02*
X138523750Y-27382142D01*
X138438035Y-27510714D01*
X138352321Y-27596428D01*
X138266607Y-27639285D01*
X139595178Y-27382142D02*
X139166607Y-27382142D01*
X139123750Y-27810714D01*
X139166607Y-27767857D01*
X139252321Y-27725000D01*
X139466607Y-27725000D01*
X139552321Y-27767857D01*
X139595178Y-27810714D01*
X139638035Y-27896428D01*
X139638035Y-28110714D01*
X139595178Y-28196428D01*
X139552321Y-28239285D01*
X139466607Y-28282142D01*
X139252321Y-28282142D01*
X139166607Y-28239285D01*
X139123750Y-28196428D01*
X140409464Y-27682142D02*
X140409464Y-28282142D01*
X140023750Y-27682142D02*
X140023750Y-28153571D01*
X140066607Y-28239285D01*
X140152321Y-28282142D01*
X140280892Y-28282142D01*
X140366607Y-28239285D01*
X140409464Y-28196428D01*
X129352321Y-31696428D02*
X129309464Y-31739285D01*
X129180892Y-31782142D01*
X129095178Y-31782142D01*
X128966607Y-31739285D01*
X128880892Y-31653571D01*
X128838035Y-31567857D01*
X128795178Y-31396428D01*
X128795178Y-31267857D01*
X128838035Y-31096428D01*
X128880892Y-31010714D01*
X128966607Y-30925000D01*
X129095178Y-30882142D01*
X129180892Y-30882142D01*
X129309464Y-30925000D01*
X129352321Y-30967857D01*
X129866607Y-31782142D02*
X129780892Y-31739285D01*
X129738035Y-31696428D01*
X129695178Y-31610714D01*
X129695178Y-31353571D01*
X129738035Y-31267857D01*
X129780892Y-31225000D01*
X129866607Y-31182142D01*
X129995178Y-31182142D01*
X130080892Y-31225000D01*
X130123750Y-31267857D01*
X130166607Y-31353571D01*
X130166607Y-31610714D01*
X130123750Y-31696428D01*
X130080892Y-31739285D01*
X129995178Y-31782142D01*
X129866607Y-31782142D01*
X130552321Y-31782142D02*
X130552321Y-31182142D01*
X130552321Y-31353571D02*
X130595178Y-31267857D01*
X130638035Y-31225000D01*
X130723750Y-31182142D01*
X130809464Y-31182142D01*
X131109464Y-31182142D02*
X131109464Y-31782142D01*
X131109464Y-31267857D02*
X131152321Y-31225000D01*
X131238035Y-31182142D01*
X131366607Y-31182142D01*
X131452321Y-31225000D01*
X131495178Y-31310714D01*
X131495178Y-31782142D01*
X132266607Y-31739285D02*
X132180892Y-31782142D01*
X132009464Y-31782142D01*
X131923750Y-31739285D01*
X131880892Y-31653571D01*
X131880892Y-31310714D01*
X131923750Y-31225000D01*
X132009464Y-31182142D01*
X132180892Y-31182142D01*
X132266607Y-31225000D01*
X132309464Y-31310714D01*
X132309464Y-31396428D01*
X131880892Y-31482142D01*
X132695178Y-31696428D02*
X132738035Y-31739285D01*
X132695178Y-31782142D01*
X132652321Y-31739285D01*
X132695178Y-31696428D01*
X132695178Y-31782142D01*
X132695178Y-31225000D02*
X132738035Y-31267857D01*
X132695178Y-31310714D01*
X132652321Y-31267857D01*
X132695178Y-31225000D01*
X132695178Y-31310714D01*
X133809464Y-31439285D02*
X134495178Y-31439285D01*
X135395178Y-31782142D02*
X134880892Y-31782142D01*
X135138035Y-31782142D02*
X135138035Y-30882142D01*
X135052321Y-31010714D01*
X134966607Y-31096428D01*
X134880892Y-31139285D01*
X136423750Y-30839285D02*
X135652321Y-31996428D01*
X136852321Y-31267857D02*
X136766607Y-31225000D01*
X136723750Y-31182142D01*
X136680892Y-31096428D01*
X136680892Y-31053571D01*
X136723750Y-30967857D01*
X136766607Y-30925000D01*
X136852321Y-30882142D01*
X137023750Y-30882142D01*
X137109464Y-30925000D01*
X137152321Y-30967857D01*
X137195178Y-31053571D01*
X137195178Y-31096428D01*
X137152321Y-31182142D01*
X137109464Y-31225000D01*
X137023750Y-31267857D01*
X136852321Y-31267857D01*
X136766607Y-31310714D01*
X136723750Y-31353571D01*
X136680892Y-31439285D01*
X136680892Y-31610714D01*
X136723750Y-31696428D01*
X136766607Y-31739285D01*
X136852321Y-31782142D01*
X137023750Y-31782142D01*
X137109464Y-31739285D01*
X137152321Y-31696428D01*
X137195178Y-31610714D01*
X137195178Y-31439285D01*
X137152321Y-31353571D01*
X137109464Y-31310714D01*
X137023750Y-31267857D01*
X137966607Y-31182142D02*
X137966607Y-31782142D01*
X137580892Y-31182142D02*
X137580892Y-31653571D01*
X137623750Y-31739285D01*
X137709464Y-31782142D01*
X137838035Y-31782142D01*
X137923750Y-31739285D01*
X137966607Y-31696428D01*
X129266607Y-33763393D02*
X128838035Y-33763393D01*
X128838035Y-32863393D01*
X129566607Y-33763393D02*
X129566607Y-33163393D01*
X129566607Y-32863393D02*
X129523750Y-32906251D01*
X129566607Y-32949108D01*
X129609464Y-32906251D01*
X129566607Y-32863393D01*
X129566607Y-32949108D01*
X130123750Y-33763393D02*
X130038035Y-33720536D01*
X129995178Y-33634822D01*
X129995178Y-32863393D01*
X130380892Y-33163393D02*
X130595178Y-33763393D01*
X130809464Y-33163393D02*
X130595178Y-33763393D01*
X130509464Y-33977679D01*
X130466607Y-34020536D01*
X130380892Y-34063393D01*
X131580892Y-32863393D02*
X131152321Y-32863393D01*
X131109464Y-33291965D01*
X131152321Y-33249108D01*
X131238035Y-33206251D01*
X131452321Y-33206251D01*
X131538035Y-33249108D01*
X131580892Y-33291965D01*
X131623750Y-33377679D01*
X131623750Y-33591965D01*
X131580892Y-33677679D01*
X131538035Y-33720536D01*
X131452321Y-33763393D01*
X131238035Y-33763393D01*
X131152321Y-33720536D01*
X131109464Y-33677679D01*
X132138035Y-33249108D02*
X132052321Y-33206251D01*
X132009464Y-33163393D01*
X131966607Y-33077679D01*
X131966607Y-33034822D01*
X132009464Y-32949108D01*
X132052321Y-32906251D01*
X132138035Y-32863393D01*
X132309464Y-32863393D01*
X132395178Y-32906251D01*
X132438035Y-32949108D01*
X132480892Y-33034822D01*
X132480892Y-33077679D01*
X132438035Y-33163393D01*
X132395178Y-33206251D01*
X132309464Y-33249108D01*
X132138035Y-33249108D01*
X132052321Y-33291965D01*
X132009464Y-33334822D01*
X131966607Y-33420536D01*
X131966607Y-33591965D01*
X132009464Y-33677679D01*
X132052321Y-33720536D01*
X132138035Y-33763393D01*
X132309464Y-33763393D01*
X132395178Y-33720536D01*
X132438035Y-33677679D01*
X132480892Y-33591965D01*
X132480892Y-33420536D01*
X132438035Y-33334822D01*
X132395178Y-33291965D01*
X132309464Y-33249108D01*
X132866607Y-33677679D02*
X132909464Y-33720536D01*
X132866607Y-33763393D01*
X132823750Y-33720536D01*
X132866607Y-33677679D01*
X132866607Y-33763393D01*
X132866607Y-33206251D02*
X132909464Y-33249108D01*
X132866607Y-33291965D01*
X132823750Y-33249108D01*
X132866607Y-33206251D01*
X132866607Y-33291965D01*
X133980892Y-33420536D02*
X134666607Y-33420536D01*
X135052321Y-32949108D02*
X135095178Y-32906251D01*
X135180892Y-32863393D01*
X135395178Y-32863393D01*
X135480892Y-32906251D01*
X135523750Y-32949108D01*
X135566607Y-33034822D01*
X135566607Y-33120536D01*
X135523750Y-33249108D01*
X135009464Y-33763393D01*
X135566607Y-33763393D01*
X135952321Y-33677679D02*
X135995178Y-33720536D01*
X135952321Y-33763393D01*
X135909464Y-33720536D01*
X135952321Y-33677679D01*
X135952321Y-33763393D01*
X136766607Y-33163393D02*
X136766607Y-33763393D01*
X136552321Y-32820536D02*
X136338035Y-33463393D01*
X136895178Y-33463393D01*
X137238035Y-33763393D02*
X137238035Y-33163393D01*
X137238035Y-33249108D02*
X137280892Y-33206251D01*
X137366607Y-33163393D01*
X137495178Y-33163393D01*
X137580892Y-33206251D01*
X137623750Y-33291965D01*
X137623750Y-33763393D01*
X137623750Y-33291965D02*
X137666607Y-33206251D01*
X137752321Y-33163393D01*
X137880892Y-33163393D01*
X137966607Y-33206251D01*
X138009464Y-33291965D01*
X138009464Y-33763393D01*
X138438035Y-33763393D02*
X138438035Y-33163393D01*
X138438035Y-33249108D02*
X138480892Y-33206251D01*
X138566607Y-33163393D01*
X138695178Y-33163393D01*
X138780892Y-33206251D01*
X138823750Y-33291965D01*
X138823750Y-33763393D01*
X138823750Y-33291965D02*
X138866607Y-33206251D01*
X138952321Y-33163393D01*
X139080892Y-33163393D01*
X139166607Y-33206251D01*
X139209464Y-33291965D01*
X139209464Y-33763393D01*
X128838035Y-35282142D02*
X128838035Y-34382142D01*
X129352321Y-35282142D02*
X128966607Y-34767857D01*
X129352321Y-34382142D02*
X128838035Y-34896428D01*
X129652321Y-34682142D02*
X129866607Y-35282142D01*
X130080892Y-34682142D02*
X129866607Y-35282142D01*
X129780892Y-35496428D01*
X129738035Y-35539285D01*
X129652321Y-35582142D01*
X130423750Y-35282142D02*
X130423750Y-34682142D01*
X130423750Y-34853571D02*
X130466607Y-34767857D01*
X130509464Y-34725000D01*
X130595178Y-34682142D01*
X130680892Y-34682142D01*
X130980892Y-35282142D02*
X130980892Y-34682142D01*
X130980892Y-34382142D02*
X130938035Y-34425000D01*
X130980892Y-34467857D01*
X131023750Y-34425000D01*
X130980892Y-34382142D01*
X130980892Y-34467857D01*
X131795178Y-35282142D02*
X131795178Y-34810714D01*
X131752321Y-34725000D01*
X131666607Y-34682142D01*
X131495178Y-34682142D01*
X131409464Y-34725000D01*
X131795178Y-35239285D02*
X131709464Y-35282142D01*
X131495178Y-35282142D01*
X131409464Y-35239285D01*
X131366607Y-35153571D01*
X131366607Y-35067857D01*
X131409464Y-34982142D01*
X131495178Y-34939285D01*
X131709464Y-34939285D01*
X131795178Y-34896428D01*
X132223750Y-35196428D02*
X132266607Y-35239285D01*
X132223750Y-35282142D01*
X132180892Y-35239285D01*
X132223750Y-35196428D01*
X132223750Y-35282142D01*
X132223750Y-34725000D02*
X132266607Y-34767857D01*
X132223750Y-34810714D01*
X132180892Y-34767857D01*
X132223750Y-34725000D01*
X132223750Y-34810714D01*
X133338035Y-34939285D02*
X134023750Y-34939285D01*
X134409464Y-34467857D02*
X134452321Y-34425000D01*
X134538035Y-34382142D01*
X134752321Y-34382142D01*
X134838035Y-34425000D01*
X134880892Y-34467857D01*
X134923750Y-34553571D01*
X134923750Y-34639285D01*
X134880892Y-34767857D01*
X134366607Y-35282142D01*
X134923750Y-35282142D01*
X135309464Y-35196428D02*
X135352321Y-35239285D01*
X135309464Y-35282142D01*
X135266607Y-35239285D01*
X135309464Y-35196428D01*
X135309464Y-35282142D01*
X136166607Y-34382142D02*
X135738035Y-34382142D01*
X135695178Y-34810714D01*
X135738035Y-34767857D01*
X135823750Y-34725000D01*
X136038035Y-34725000D01*
X136123750Y-34767857D01*
X136166607Y-34810714D01*
X136209464Y-34896428D01*
X136209464Y-35110714D01*
X136166607Y-35196428D01*
X136123750Y-35239285D01*
X136038035Y-35282142D01*
X135823750Y-35282142D01*
X135738035Y-35239285D01*
X135695178Y-35196428D01*
X136595178Y-35282142D02*
X136595178Y-34682142D01*
X136595178Y-34767857D02*
X136638035Y-34725000D01*
X136723750Y-34682142D01*
X136852321Y-34682142D01*
X136938035Y-34725000D01*
X136980892Y-34810714D01*
X136980892Y-35282142D01*
X136980892Y-34810714D02*
X137023750Y-34725000D01*
X137109464Y-34682142D01*
X137238035Y-34682142D01*
X137323750Y-34725000D01*
X137366607Y-34810714D01*
X137366607Y-35282142D01*
X137795178Y-35282142D02*
X137795178Y-34682142D01*
X137795178Y-34767857D02*
X137838035Y-34725000D01*
X137923750Y-34682142D01*
X138052321Y-34682142D01*
X138138035Y-34725000D01*
X138180892Y-34810714D01*
X138180892Y-35282142D01*
X138180892Y-34810714D02*
X138223750Y-34725000D01*
X138309464Y-34682142D01*
X138438035Y-34682142D01*
X138523750Y-34725000D01*
X138566607Y-34810714D01*
X138566607Y-35282142D01*
X128795178Y-36739285D02*
X128923750Y-36782142D01*
X129138035Y-36782142D01*
X129223750Y-36739285D01*
X129266607Y-36696428D01*
X129309464Y-36610714D01*
X129309464Y-36525000D01*
X129266607Y-36439285D01*
X129223750Y-36396428D01*
X129138035Y-36353571D01*
X128966607Y-36310714D01*
X128880892Y-36267857D01*
X128838035Y-36225000D01*
X128795178Y-36139285D01*
X128795178Y-36053571D01*
X128838035Y-35967857D01*
X128880892Y-35925000D01*
X128966607Y-35882142D01*
X129180892Y-35882142D01*
X129309464Y-35925000D01*
X129823750Y-36782142D02*
X129738035Y-36739285D01*
X129695178Y-36696428D01*
X129652321Y-36610714D01*
X129652321Y-36353571D01*
X129695178Y-36267857D01*
X129738035Y-36225000D01*
X129823750Y-36182142D01*
X129952321Y-36182142D01*
X130038035Y-36225000D01*
X130080892Y-36267857D01*
X130123750Y-36353571D01*
X130123750Y-36610714D01*
X130080892Y-36696428D01*
X130038035Y-36739285D01*
X129952321Y-36782142D01*
X129823750Y-36782142D01*
X130380892Y-36182142D02*
X130723750Y-36182142D01*
X130509464Y-36782142D02*
X130509464Y-36010714D01*
X130552321Y-35925000D01*
X130638035Y-35882142D01*
X130723750Y-35882142D01*
X131152321Y-36782142D02*
X131066607Y-36739285D01*
X131023750Y-36653571D01*
X131023750Y-35882142D01*
X131838035Y-36739285D02*
X131752321Y-36782142D01*
X131580892Y-36782142D01*
X131495178Y-36739285D01*
X131452321Y-36653571D01*
X131452321Y-36310714D01*
X131495178Y-36225000D01*
X131580892Y-36182142D01*
X131752321Y-36182142D01*
X131838035Y-36225000D01*
X131880892Y-36310714D01*
X131880892Y-36396428D01*
X131452321Y-36482142D01*
X132266607Y-36696428D02*
X132309464Y-36739285D01*
X132266607Y-36782142D01*
X132223750Y-36739285D01*
X132266607Y-36696428D01*
X132266607Y-36782142D01*
X132266607Y-36225000D02*
X132309464Y-36267857D01*
X132266607Y-36310714D01*
X132223750Y-36267857D01*
X132266607Y-36225000D01*
X132266607Y-36310714D01*
X133380892Y-36439285D02*
X134066607Y-36439285D01*
X134452321Y-35967857D02*
X134495178Y-35925000D01*
X134580892Y-35882142D01*
X134795178Y-35882142D01*
X134880892Y-35925000D01*
X134923750Y-35967857D01*
X134966607Y-36053571D01*
X134966607Y-36139285D01*
X134923750Y-36267857D01*
X134409464Y-36782142D01*
X134966607Y-36782142D01*
X135352321Y-36696428D02*
X135395178Y-36739285D01*
X135352321Y-36782142D01*
X135309464Y-36739285D01*
X135352321Y-36696428D01*
X135352321Y-36782142D01*
X136209464Y-35882142D02*
X135780892Y-35882142D01*
X135738035Y-36310714D01*
X135780892Y-36267857D01*
X135866607Y-36225000D01*
X136080892Y-36225000D01*
X136166607Y-36267857D01*
X136209464Y-36310714D01*
X136252321Y-36396428D01*
X136252321Y-36610714D01*
X136209464Y-36696428D01*
X136166607Y-36739285D01*
X136080892Y-36782142D01*
X135866607Y-36782142D01*
X135780892Y-36739285D01*
X135738035Y-36696428D01*
X136638035Y-36782142D02*
X136638035Y-36182142D01*
X136638035Y-36267857D02*
X136680892Y-36225000D01*
X136766607Y-36182142D01*
X136895178Y-36182142D01*
X136980892Y-36225000D01*
X137023750Y-36310714D01*
X137023750Y-36782142D01*
X137023750Y-36310714D02*
X137066607Y-36225000D01*
X137152321Y-36182142D01*
X137280892Y-36182142D01*
X137366607Y-36225000D01*
X137409464Y-36310714D01*
X137409464Y-36782142D01*
X137838035Y-36782142D02*
X137838035Y-36182142D01*
X137838035Y-36267857D02*
X137880892Y-36225000D01*
X137966607Y-36182142D01*
X138095178Y-36182142D01*
X138180892Y-36225000D01*
X138223750Y-36310714D01*
X138223750Y-36782142D01*
X138223750Y-36310714D02*
X138266607Y-36225000D01*
X138352321Y-36182142D01*
X138480892Y-36182142D01*
X138566607Y-36225000D01*
X138609464Y-36310714D01*
X138609464Y-36782142D01*
X129138035Y-37810714D02*
X128838035Y-37810714D01*
X128838035Y-38282142D02*
X128838035Y-37382142D01*
X129266607Y-37382142D01*
X129952321Y-38239285D02*
X129866607Y-38282142D01*
X129695178Y-38282142D01*
X129609464Y-38239285D01*
X129566607Y-38153571D01*
X129566607Y-37810714D01*
X129609464Y-37725000D01*
X129695178Y-37682142D01*
X129866607Y-37682142D01*
X129952321Y-37725000D01*
X129995178Y-37810714D01*
X129995178Y-37896428D01*
X129566607Y-37982142D01*
X130380892Y-38282142D02*
X130380892Y-37682142D01*
X130380892Y-37853571D02*
X130423750Y-37767857D01*
X130466607Y-37725000D01*
X130552321Y-37682142D01*
X130638035Y-37682142D01*
X130938035Y-38282142D02*
X130938035Y-37682142D01*
X130938035Y-37853571D02*
X130980892Y-37767857D01*
X131023750Y-37725000D01*
X131109464Y-37682142D01*
X131195178Y-37682142D01*
X131495178Y-38282142D02*
X131495178Y-37682142D01*
X131495178Y-37382142D02*
X131452321Y-37425000D01*
X131495178Y-37467857D01*
X131538035Y-37425000D01*
X131495178Y-37382142D01*
X131495178Y-37467857D01*
X131880892Y-38239285D02*
X131966607Y-38282142D01*
X132138035Y-38282142D01*
X132223750Y-38239285D01*
X132266607Y-38153571D01*
X132266607Y-38110714D01*
X132223750Y-38025000D01*
X132138035Y-37982142D01*
X132009464Y-37982142D01*
X131923750Y-37939285D01*
X131880892Y-37853571D01*
X131880892Y-37810714D01*
X131923750Y-37725000D01*
X132009464Y-37682142D01*
X132138035Y-37682142D01*
X132223750Y-37725000D01*
X132652321Y-38196428D02*
X132695178Y-38239285D01*
X132652321Y-38282142D01*
X132609464Y-38239285D01*
X132652321Y-38196428D01*
X132652321Y-38282142D01*
X132652321Y-37725000D02*
X132695178Y-37767857D01*
X132652321Y-37810714D01*
X132609464Y-37767857D01*
X132652321Y-37725000D01*
X132652321Y-37810714D01*
X133766607Y-37939285D02*
X134452321Y-37939285D01*
X134838035Y-37467857D02*
X134880892Y-37425000D01*
X134966607Y-37382142D01*
X135180892Y-37382142D01*
X135266607Y-37425000D01*
X135309464Y-37467857D01*
X135352321Y-37553571D01*
X135352321Y-37639285D01*
X135309464Y-37767857D01*
X134795178Y-38282142D01*
X135352321Y-38282142D01*
X135738035Y-38196428D02*
X135780892Y-38239285D01*
X135738035Y-38282142D01*
X135695178Y-38239285D01*
X135738035Y-38196428D01*
X135738035Y-38282142D01*
X136595178Y-37382142D02*
X136166607Y-37382142D01*
X136123750Y-37810714D01*
X136166607Y-37767857D01*
X136252321Y-37725000D01*
X136466607Y-37725000D01*
X136552321Y-37767857D01*
X136595178Y-37810714D01*
X136638035Y-37896428D01*
X136638035Y-38110714D01*
X136595178Y-38196428D01*
X136552321Y-38239285D01*
X136466607Y-38282142D01*
X136252321Y-38282142D01*
X136166607Y-38239285D01*
X136123750Y-38196428D01*
X137023750Y-38282142D02*
X137023750Y-37682142D01*
X137023750Y-37767857D02*
X137066607Y-37725000D01*
X137152321Y-37682142D01*
X137280892Y-37682142D01*
X137366607Y-37725000D01*
X137409464Y-37810714D01*
X137409464Y-38282142D01*
X137409464Y-37810714D02*
X137452321Y-37725000D01*
X137538035Y-37682142D01*
X137666607Y-37682142D01*
X137752321Y-37725000D01*
X137795178Y-37810714D01*
X137795178Y-38282142D01*
X138223750Y-38282142D02*
X138223750Y-37682142D01*
X138223750Y-37767857D02*
X138266607Y-37725000D01*
X138352321Y-37682142D01*
X138480892Y-37682142D01*
X138566607Y-37725000D01*
X138609464Y-37810714D01*
X138609464Y-38282142D01*
X138609464Y-37810714D02*
X138652321Y-37725000D01*
X138738035Y-37682142D01*
X138866607Y-37682142D01*
X138952321Y-37725000D01*
X138995178Y-37810714D01*
X138995178Y-38282142D01*
X129009464Y-39353571D02*
X129009464Y-39782142D01*
X128709464Y-38882142D02*
X129009464Y-39353571D01*
X129309464Y-38882142D01*
X129566607Y-39525000D02*
X129995178Y-39525000D01*
X129480892Y-39782142D02*
X129780892Y-38882142D01*
X130080892Y-39782142D01*
X130380892Y-39310714D02*
X130680892Y-39310714D01*
X130809464Y-39782142D02*
X130380892Y-39782142D01*
X130380892Y-38882142D01*
X130809464Y-38882142D01*
X131195178Y-39782142D02*
X131195178Y-38882142D01*
X131495178Y-39525000D01*
X131795178Y-38882142D01*
X131795178Y-39782142D01*
X132223750Y-39782142D02*
X132223750Y-38882142D01*
X132738035Y-39782142D02*
X132352321Y-39267857D01*
X132738035Y-38882142D02*
X132223750Y-39396428D01*
X133123750Y-39696428D02*
X133166607Y-39739285D01*
X133123750Y-39782142D01*
X133080892Y-39739285D01*
X133123750Y-39696428D01*
X133123750Y-39782142D01*
X133123750Y-39225000D02*
X133166607Y-39267857D01*
X133123750Y-39310714D01*
X133080892Y-39267857D01*
X133123750Y-39225000D01*
X133123750Y-39310714D01*
X134238035Y-39439285D02*
X134923750Y-39439285D01*
X135266607Y-38882142D02*
X135823750Y-38882142D01*
X135523750Y-39225000D01*
X135652321Y-39225000D01*
X135738035Y-39267857D01*
X135780892Y-39310714D01*
X135823750Y-39396428D01*
X135823750Y-39610714D01*
X135780892Y-39696428D01*
X135738035Y-39739285D01*
X135652321Y-39782142D01*
X135395178Y-39782142D01*
X135309464Y-39739285D01*
X135266607Y-39696428D01*
X136852321Y-38839285D02*
X136080892Y-39996428D01*
X137109464Y-38967857D02*
X137152321Y-38925000D01*
X137238035Y-38882142D01*
X137452321Y-38882142D01*
X137538035Y-38925000D01*
X137580892Y-38967857D01*
X137623750Y-39053571D01*
X137623750Y-39139285D01*
X137580892Y-39267857D01*
X137066607Y-39782142D01*
X137623750Y-39782142D01*
X138180892Y-38882142D02*
X138266607Y-38882142D01*
X138352321Y-38925000D01*
X138395178Y-38967857D01*
X138438035Y-39053571D01*
X138480892Y-39225000D01*
X138480892Y-39439285D01*
X138438035Y-39610714D01*
X138395178Y-39696428D01*
X138352321Y-39739285D01*
X138266607Y-39782142D01*
X138180892Y-39782142D01*
X138095178Y-39739285D01*
X138052321Y-39696428D01*
X138009464Y-39610714D01*
X137966607Y-39439285D01*
X137966607Y-39225000D01*
X138009464Y-39053571D01*
X138052321Y-38967857D01*
X138095178Y-38925000D01*
X138180892Y-38882142D01*
X139252321Y-39182142D02*
X139252321Y-39782142D01*
X138866607Y-39182142D02*
X138866607Y-39653571D01*
X138909464Y-39739285D01*
X138995178Y-39782142D01*
X139123750Y-39782142D01*
X139209464Y-39739285D01*
X139252321Y-39696428D01*
X127338035Y-40810714D02*
X127638035Y-40810714D01*
X127766607Y-41282142D02*
X127338035Y-41282142D01*
X127338035Y-40382142D01*
X127766607Y-40382142D01*
X128280892Y-41282142D02*
X128195178Y-41239285D01*
X128152321Y-41153571D01*
X128152321Y-40382142D01*
X128966607Y-41239285D02*
X128880892Y-41282142D01*
X128709464Y-41282142D01*
X128623750Y-41239285D01*
X128580892Y-41153571D01*
X128580892Y-40810714D01*
X128623750Y-40725000D01*
X128709464Y-40682142D01*
X128880892Y-40682142D01*
X128966607Y-40725000D01*
X129009464Y-40810714D01*
X129009464Y-40896428D01*
X128580892Y-40982142D01*
X129395178Y-40682142D02*
X129395178Y-41582142D01*
X129395178Y-40725000D02*
X129480892Y-40682142D01*
X129652321Y-40682142D01*
X129738035Y-40725000D01*
X129780892Y-40767857D01*
X129823750Y-40853571D01*
X129823750Y-41110714D01*
X129780892Y-41196428D01*
X129738035Y-41239285D01*
X129652321Y-41282142D01*
X129480892Y-41282142D01*
X129395178Y-41239285D01*
X130209464Y-41282142D02*
X130209464Y-40382142D01*
X130595178Y-41282142D02*
X130595178Y-40810714D01*
X130552321Y-40725000D01*
X130466607Y-40682142D01*
X130338035Y-40682142D01*
X130252321Y-40725000D01*
X130209464Y-40767857D01*
X131409464Y-41282142D02*
X131409464Y-40810714D01*
X131366607Y-40725000D01*
X131280892Y-40682142D01*
X131109464Y-40682142D01*
X131023750Y-40725000D01*
X131409464Y-41239285D02*
X131323750Y-41282142D01*
X131109464Y-41282142D01*
X131023750Y-41239285D01*
X130980892Y-41153571D01*
X130980892Y-41067857D01*
X131023750Y-40982142D01*
X131109464Y-40939285D01*
X131323750Y-40939285D01*
X131409464Y-40896428D01*
X131838035Y-40682142D02*
X131838035Y-41282142D01*
X131838035Y-40767857D02*
X131880892Y-40725000D01*
X131966607Y-40682142D01*
X132095178Y-40682142D01*
X132180892Y-40725000D01*
X132223750Y-40810714D01*
X132223750Y-41282142D01*
X132523750Y-40682142D02*
X132866607Y-40682142D01*
X132652321Y-40382142D02*
X132652321Y-41153571D01*
X132695178Y-41239285D01*
X132780892Y-41282142D01*
X132866607Y-41282142D01*
X133552321Y-40682142D02*
X133552321Y-41282142D01*
X133338035Y-40339285D02*
X133123750Y-40982142D01*
X133680892Y-40982142D01*
X133980892Y-40467857D02*
X134023750Y-40425000D01*
X134109464Y-40382142D01*
X134323750Y-40382142D01*
X134409464Y-40425000D01*
X134452321Y-40467857D01*
X134495178Y-40553571D01*
X134495178Y-40639285D01*
X134452321Y-40767857D01*
X133938035Y-41282142D01*
X134495178Y-41282142D01*
X134880892Y-41196428D02*
X134923750Y-41239285D01*
X134880892Y-41282142D01*
X134838035Y-41239285D01*
X134880892Y-41196428D01*
X134880892Y-41282142D01*
X134880892Y-40725000D02*
X134923750Y-40767857D01*
X134880892Y-40810714D01*
X134838035Y-40767857D01*
X134880892Y-40725000D01*
X134880892Y-40810714D01*
X135995178Y-40939285D02*
X136680892Y-40939285D01*
X137495178Y-40682142D02*
X137495178Y-41282142D01*
X137280892Y-40339285D02*
X137066607Y-40982142D01*
X137623750Y-40982142D01*
X137966607Y-41196428D02*
X138009464Y-41239285D01*
X137966607Y-41282142D01*
X137923750Y-41239285D01*
X137966607Y-41196428D01*
X137966607Y-41282142D01*
X138523750Y-40767857D02*
X138438035Y-40725000D01*
X138395178Y-40682142D01*
X138352321Y-40596428D01*
X138352321Y-40553571D01*
X138395178Y-40467857D01*
X138438035Y-40425000D01*
X138523750Y-40382142D01*
X138695178Y-40382142D01*
X138780892Y-40425000D01*
X138823750Y-40467857D01*
X138866607Y-40553571D01*
X138866607Y-40596428D01*
X138823750Y-40682142D01*
X138780892Y-40725000D01*
X138695178Y-40767857D01*
X138523750Y-40767857D01*
X138438035Y-40810714D01*
X138395178Y-40853571D01*
X138352321Y-40939285D01*
X138352321Y-41110714D01*
X138395178Y-41196428D01*
X138438035Y-41239285D01*
X138523750Y-41282142D01*
X138695178Y-41282142D01*
X138780892Y-41239285D01*
X138823750Y-41196428D01*
X138866607Y-41110714D01*
X138866607Y-40939285D01*
X138823750Y-40853571D01*
X138780892Y-40810714D01*
X138695178Y-40767857D01*
X139252321Y-41282142D02*
X139252321Y-40682142D01*
X139252321Y-40767857D02*
X139295178Y-40725000D01*
X139380892Y-40682142D01*
X139509464Y-40682142D01*
X139595178Y-40725000D01*
X139638035Y-40810714D01*
X139638035Y-41282142D01*
X139638035Y-40810714D02*
X139680892Y-40725000D01*
X139766607Y-40682142D01*
X139895178Y-40682142D01*
X139980892Y-40725000D01*
X140023750Y-40810714D01*
X140023750Y-41282142D01*
X140452321Y-41282142D02*
X140452321Y-40682142D01*
X140452321Y-40767857D02*
X140495178Y-40725000D01*
X140580892Y-40682142D01*
X140709464Y-40682142D01*
X140795178Y-40725000D01*
X140838035Y-40810714D01*
X140838035Y-41282142D01*
X140838035Y-40810714D02*
X140880892Y-40725000D01*
X140966607Y-40682142D01*
X141095178Y-40682142D01*
X141180892Y-40725000D01*
X141223750Y-40810714D01*
X141223750Y-41282142D01*
D10*
X124026250Y-34875000D02*
X127026250Y-34875000D01*
X143076250Y-68093750D02*
X145076250Y-68093750D01*
X200226250Y-43875000D02*
X201726250Y-43875000D01*
X201726250Y-41125000D02*
X201726250Y-43875000D01*
X202476250Y-41125000D02*
X201726250Y-41125000D01*
D11*
X203038035Y-42505714D02*
X203338035Y-42505714D01*
X203466607Y-42977142D02*
X203038035Y-42977142D01*
X203038035Y-42077142D01*
X203466607Y-42077142D01*
X203980892Y-42977142D02*
X203895178Y-42934285D01*
X203852321Y-42848571D01*
X203852321Y-42077142D01*
X204666607Y-42934285D02*
X204580892Y-42977142D01*
X204409464Y-42977142D01*
X204323750Y-42934285D01*
X204280892Y-42848571D01*
X204280892Y-42505714D01*
X204323750Y-42420000D01*
X204409464Y-42377142D01*
X204580892Y-42377142D01*
X204666607Y-42420000D01*
X204709464Y-42505714D01*
X204709464Y-42591428D01*
X204280892Y-42677142D01*
X205095178Y-42377142D02*
X205095178Y-43277142D01*
X205095178Y-42420000D02*
X205180892Y-42377142D01*
X205352321Y-42377142D01*
X205438035Y-42420000D01*
X205480892Y-42462857D01*
X205523750Y-42548571D01*
X205523750Y-42805714D01*
X205480892Y-42891428D01*
X205438035Y-42934285D01*
X205352321Y-42977142D01*
X205180892Y-42977142D01*
X205095178Y-42934285D01*
X205909464Y-42977142D02*
X205909464Y-42077142D01*
X206295178Y-42977142D02*
X206295178Y-42505714D01*
X206252321Y-42420000D01*
X206166607Y-42377142D01*
X206038035Y-42377142D01*
X205952321Y-42420000D01*
X205909464Y-42462857D01*
X207109464Y-42977142D02*
X207109464Y-42505714D01*
X207066607Y-42420000D01*
X206980892Y-42377142D01*
X206809464Y-42377142D01*
X206723750Y-42420000D01*
X207109464Y-42934285D02*
X207023750Y-42977142D01*
X206809464Y-42977142D01*
X206723750Y-42934285D01*
X206680892Y-42848571D01*
X206680892Y-42762857D01*
X206723750Y-42677142D01*
X206809464Y-42634285D01*
X207023750Y-42634285D01*
X207109464Y-42591428D01*
X207538035Y-42377142D02*
X207538035Y-42977142D01*
X207538035Y-42462857D02*
X207580892Y-42420000D01*
X207666607Y-42377142D01*
X207795178Y-42377142D01*
X207880892Y-42420000D01*
X207923750Y-42505714D01*
X207923750Y-42977142D01*
X208223750Y-42377142D02*
X208566607Y-42377142D01*
X208352321Y-42077142D02*
X208352321Y-42848571D01*
X208395178Y-42934285D01*
X208480892Y-42977142D01*
X208566607Y-42977142D01*
X209252321Y-42377142D02*
X209252321Y-42977142D01*
X209038035Y-42034285D02*
X208823750Y-42677142D01*
X209380892Y-42677142D01*
X209680892Y-42162857D02*
X209723750Y-42120000D01*
X209809464Y-42077142D01*
X210023750Y-42077142D01*
X210109464Y-42120000D01*
X210152321Y-42162857D01*
X210195178Y-42248571D01*
X210195178Y-42334285D01*
X210152321Y-42462857D01*
X209638035Y-42977142D01*
X210195178Y-42977142D01*
X210580892Y-42891428D02*
X210623750Y-42934285D01*
X210580892Y-42977142D01*
X210538035Y-42934285D01*
X210580892Y-42891428D01*
X210580892Y-42977142D01*
X210580892Y-42420000D02*
X210623750Y-42462857D01*
X210580892Y-42505714D01*
X210538035Y-42462857D01*
X210580892Y-42420000D01*
X210580892Y-42505714D01*
X211695178Y-42634285D02*
X212380892Y-42634285D01*
X213280892Y-42977142D02*
X212766607Y-42977142D01*
X213023750Y-42977142D02*
X213023750Y-42077142D01*
X212938035Y-42205714D01*
X212852321Y-42291428D01*
X212766607Y-42334285D01*
X214138035Y-42977142D02*
X213623750Y-42977142D01*
X213880892Y-42977142D02*
X213880892Y-42077142D01*
X213795178Y-42205714D01*
X213709464Y-42291428D01*
X213623750Y-42334285D01*
X214523750Y-42891428D02*
X214566607Y-42934285D01*
X214523750Y-42977142D01*
X214480892Y-42934285D01*
X214523750Y-42891428D01*
X214523750Y-42977142D01*
X214995178Y-42977142D02*
X215166607Y-42977142D01*
X215252321Y-42934285D01*
X215295178Y-42891428D01*
X215380892Y-42762857D01*
X215423750Y-42591428D01*
X215423750Y-42248571D01*
X215380892Y-42162857D01*
X215338035Y-42120000D01*
X215252321Y-42077142D01*
X215080892Y-42077142D01*
X214995178Y-42120000D01*
X214952321Y-42162857D01*
X214909464Y-42248571D01*
X214909464Y-42462857D01*
X214952321Y-42548571D01*
X214995178Y-42591428D01*
X215080892Y-42634285D01*
X215252321Y-42634285D01*
X215338035Y-42591428D01*
X215380892Y-42548571D01*
X215423750Y-42462857D01*
X215809464Y-42977142D02*
X215809464Y-42377142D01*
X215809464Y-42462857D02*
X215852321Y-42420000D01*
X215938035Y-42377142D01*
X216066607Y-42377142D01*
X216152321Y-42420000D01*
X216195178Y-42505714D01*
X216195178Y-42977142D01*
X216195178Y-42505714D02*
X216238035Y-42420000D01*
X216323750Y-42377142D01*
X216452321Y-42377142D01*
X216538035Y-42420000D01*
X216580892Y-42505714D01*
X216580892Y-42977142D01*
X217009464Y-42977142D02*
X217009464Y-42377142D01*
X217009464Y-42462857D02*
X217052321Y-42420000D01*
X217138035Y-42377142D01*
X217266607Y-42377142D01*
X217352321Y-42420000D01*
X217395178Y-42505714D01*
X217395178Y-42977142D01*
X217395178Y-42505714D02*
X217438035Y-42420000D01*
X217523750Y-42377142D01*
X217652321Y-42377142D01*
X217738035Y-42420000D01*
X217780892Y-42505714D01*
X217780892Y-42977142D01*
D10*
X200226250Y-44285000D02*
X202226250Y-44285000D01*
X125776250Y-40875000D02*
X126526250Y-40875000D01*
X125776250Y-37135000D02*
X125776250Y-40875000D01*
X124026250Y-37135000D02*
X125776250Y-37135000D01*
D11*
X204038035Y-26899606D02*
X204038035Y-25999606D01*
X204338035Y-26642464D01*
X204638035Y-25999606D01*
X204638035Y-26899606D01*
X205452321Y-26899606D02*
X205452321Y-26428178D01*
X205409464Y-26342464D01*
X205323750Y-26299606D01*
X205152321Y-26299606D01*
X205066607Y-26342464D01*
X205452321Y-26856749D02*
X205366607Y-26899606D01*
X205152321Y-26899606D01*
X205066607Y-26856749D01*
X205023750Y-26771035D01*
X205023750Y-26685321D01*
X205066607Y-26599606D01*
X205152321Y-26556749D01*
X205366607Y-26556749D01*
X205452321Y-26513892D01*
X205795178Y-26899606D02*
X206266607Y-26299606D01*
X205795178Y-26299606D02*
X206266607Y-26899606D01*
X206609464Y-26813892D02*
X206652321Y-26856749D01*
X206609464Y-26899606D01*
X206566607Y-26856749D01*
X206609464Y-26813892D01*
X206609464Y-26899606D01*
X206609464Y-26342464D02*
X206652321Y-26385321D01*
X206609464Y-26428178D01*
X206566607Y-26385321D01*
X206609464Y-26342464D01*
X206609464Y-26428178D01*
X207723750Y-26556749D02*
X208409464Y-26556749D01*
X208066607Y-26899606D02*
X208066607Y-26213892D01*
X209266607Y-25999606D02*
X208838035Y-25999606D01*
X208795178Y-26428178D01*
X208838035Y-26385321D01*
X208923750Y-26342464D01*
X209138035Y-26342464D01*
X209223750Y-26385321D01*
X209266607Y-26428178D01*
X209309464Y-26513892D01*
X209309464Y-26728178D01*
X209266607Y-26813892D01*
X209223750Y-26856749D01*
X209138035Y-26899606D01*
X208923750Y-26899606D01*
X208838035Y-26856749D01*
X208795178Y-26813892D01*
X209695178Y-26813892D02*
X209738035Y-26856749D01*
X209695178Y-26899606D01*
X209652321Y-26856749D01*
X209695178Y-26813892D01*
X209695178Y-26899606D01*
X210166607Y-26899606D02*
X210338035Y-26899606D01*
X210423750Y-26856749D01*
X210466607Y-26813892D01*
X210552321Y-26685321D01*
X210595178Y-26513892D01*
X210595178Y-26171035D01*
X210552321Y-26085321D01*
X210509464Y-26042464D01*
X210423750Y-25999606D01*
X210252321Y-25999606D01*
X210166607Y-26042464D01*
X210123750Y-26085321D01*
X210080892Y-26171035D01*
X210080892Y-26385321D01*
X210123750Y-26471035D01*
X210166607Y-26513892D01*
X210252321Y-26556749D01*
X210423750Y-26556749D01*
X210509464Y-26513892D01*
X210552321Y-26471035D01*
X210595178Y-26385321D01*
X210980892Y-26899606D02*
X210980892Y-26299606D01*
X210980892Y-26385321D02*
X211023750Y-26342464D01*
X211109464Y-26299606D01*
X211238035Y-26299606D01*
X211323750Y-26342464D01*
X211366607Y-26428178D01*
X211366607Y-26899606D01*
X211366607Y-26428178D02*
X211409464Y-26342464D01*
X211495178Y-26299606D01*
X211623750Y-26299606D01*
X211709464Y-26342464D01*
X211752321Y-26428178D01*
X211752321Y-26899606D01*
X212180892Y-26899606D02*
X212180892Y-26299606D01*
X212180892Y-26385321D02*
X212223750Y-26342464D01*
X212309464Y-26299606D01*
X212438035Y-26299606D01*
X212523750Y-26342464D01*
X212566607Y-26428178D01*
X212566607Y-26899606D01*
X212566607Y-26428178D02*
X212609464Y-26342464D01*
X212695178Y-26299606D01*
X212823750Y-26299606D01*
X212909464Y-26342464D01*
X212952321Y-26428178D01*
X212952321Y-26899606D01*
D10*
X200226250Y-26492464D02*
X203226250Y-26492464D01*
X181176250Y-23414850D02*
X186176250Y-23414850D01*
X164126250Y-22875000D02*
X162126250Y-22875000D01*
D11*
X183988035Y-27550214D02*
X184288035Y-27550214D01*
X184416607Y-28021642D02*
X183988035Y-28021642D01*
X183988035Y-27121642D01*
X184416607Y-27121642D01*
X184930892Y-28021642D02*
X184845178Y-27978785D01*
X184802321Y-27893071D01*
X184802321Y-27121642D01*
X185616607Y-27978785D02*
X185530892Y-28021642D01*
X185359464Y-28021642D01*
X185273750Y-27978785D01*
X185230892Y-27893071D01*
X185230892Y-27550214D01*
X185273750Y-27464500D01*
X185359464Y-27421642D01*
X185530892Y-27421642D01*
X185616607Y-27464500D01*
X185659464Y-27550214D01*
X185659464Y-27635928D01*
X185230892Y-27721642D01*
X186045178Y-27421642D02*
X186045178Y-28321642D01*
X186045178Y-27464500D02*
X186130892Y-27421642D01*
X186302321Y-27421642D01*
X186388035Y-27464500D01*
X186430892Y-27507357D01*
X186473750Y-27593071D01*
X186473750Y-27850214D01*
X186430892Y-27935928D01*
X186388035Y-27978785D01*
X186302321Y-28021642D01*
X186130892Y-28021642D01*
X186045178Y-27978785D01*
X186859464Y-28021642D02*
X186859464Y-27121642D01*
X187245178Y-28021642D02*
X187245178Y-27550214D01*
X187202321Y-27464500D01*
X187116607Y-27421642D01*
X186988035Y-27421642D01*
X186902321Y-27464500D01*
X186859464Y-27507357D01*
X188059464Y-28021642D02*
X188059464Y-27550214D01*
X188016607Y-27464500D01*
X187930892Y-27421642D01*
X187759464Y-27421642D01*
X187673750Y-27464500D01*
X188059464Y-27978785D02*
X187973750Y-28021642D01*
X187759464Y-28021642D01*
X187673750Y-27978785D01*
X187630892Y-27893071D01*
X187630892Y-27807357D01*
X187673750Y-27721642D01*
X187759464Y-27678785D01*
X187973750Y-27678785D01*
X188059464Y-27635928D01*
X188488035Y-27421642D02*
X188488035Y-28021642D01*
X188488035Y-27507357D02*
X188530892Y-27464500D01*
X188616607Y-27421642D01*
X188745178Y-27421642D01*
X188830892Y-27464500D01*
X188873750Y-27550214D01*
X188873750Y-28021642D01*
X189173750Y-27421642D02*
X189516607Y-27421642D01*
X189302321Y-27121642D02*
X189302321Y-27893071D01*
X189345178Y-27978785D01*
X189430892Y-28021642D01*
X189516607Y-28021642D01*
X190202321Y-27421642D02*
X190202321Y-28021642D01*
X189988035Y-27078785D02*
X189773750Y-27721642D01*
X190330892Y-27721642D01*
X190630892Y-27207357D02*
X190673750Y-27164500D01*
X190759464Y-27121642D01*
X190973750Y-27121642D01*
X191059464Y-27164500D01*
X191102321Y-27207357D01*
X191145178Y-27293071D01*
X191145178Y-27378785D01*
X191102321Y-27507357D01*
X190588035Y-28021642D01*
X191145178Y-28021642D01*
X191530892Y-27935928D02*
X191573750Y-27978785D01*
X191530892Y-28021642D01*
X191488035Y-27978785D01*
X191530892Y-27935928D01*
X191530892Y-28021642D01*
X191530892Y-27464500D02*
X191573750Y-27507357D01*
X191530892Y-27550214D01*
X191488035Y-27507357D01*
X191530892Y-27464500D01*
X191530892Y-27550214D01*
X192645178Y-27678785D02*
X193330892Y-27678785D01*
X192988035Y-28021642D02*
X192988035Y-27335928D01*
X194145178Y-27421642D02*
X194145178Y-28021642D01*
X193930892Y-27078785D02*
X193716607Y-27721642D01*
X194273750Y-27721642D01*
X194616607Y-27935928D02*
X194659464Y-27978785D01*
X194616607Y-28021642D01*
X194573750Y-27978785D01*
X194616607Y-27935928D01*
X194616607Y-28021642D01*
X195173750Y-27507357D02*
X195088035Y-27464500D01*
X195045178Y-27421642D01*
X195002321Y-27335928D01*
X195002321Y-27293071D01*
X195045178Y-27207357D01*
X195088035Y-27164500D01*
X195173750Y-27121642D01*
X195345178Y-27121642D01*
X195430892Y-27164500D01*
X195473750Y-27207357D01*
X195516607Y-27293071D01*
X195516607Y-27335928D01*
X195473750Y-27421642D01*
X195430892Y-27464500D01*
X195345178Y-27507357D01*
X195173750Y-27507357D01*
X195088035Y-27550214D01*
X195045178Y-27593071D01*
X195002321Y-27678785D01*
X195002321Y-27850214D01*
X195045178Y-27935928D01*
X195088035Y-27978785D01*
X195173750Y-28021642D01*
X195345178Y-28021642D01*
X195430892Y-27978785D01*
X195473750Y-27935928D01*
X195516607Y-27850214D01*
X195516607Y-27678785D01*
X195473750Y-27593071D01*
X195430892Y-27550214D01*
X195345178Y-27507357D01*
X195902321Y-28021642D02*
X195902321Y-27421642D01*
X195902321Y-27507357D02*
X195945178Y-27464500D01*
X196030892Y-27421642D01*
X196159464Y-27421642D01*
X196245178Y-27464500D01*
X196288035Y-27550214D01*
X196288035Y-28021642D01*
X196288035Y-27550214D02*
X196330892Y-27464500D01*
X196416607Y-27421642D01*
X196545178Y-27421642D01*
X196630892Y-27464500D01*
X196673750Y-27550214D01*
X196673750Y-28021642D01*
X197102321Y-28021642D02*
X197102321Y-27421642D01*
X197102321Y-27507357D02*
X197145178Y-27464500D01*
X197230892Y-27421642D01*
X197359464Y-27421642D01*
X197445178Y-27464500D01*
X197488035Y-27550214D01*
X197488035Y-28021642D01*
X197488035Y-27550214D02*
X197530892Y-27464500D01*
X197616607Y-27421642D01*
X197745178Y-27421642D01*
X197830892Y-27464500D01*
X197873750Y-27550214D01*
X197873750Y-28021642D01*
X165688035Y-23810714D02*
X165988035Y-23810714D01*
X166116607Y-24282142D02*
X165688035Y-24282142D01*
X165688035Y-23382142D01*
X166116607Y-23382142D01*
X166630892Y-24282142D02*
X166545178Y-24239285D01*
X166502321Y-24153571D01*
X166502321Y-23382142D01*
X167316607Y-24239285D02*
X167230892Y-24282142D01*
X167059464Y-24282142D01*
X166973750Y-24239285D01*
X166930892Y-24153571D01*
X166930892Y-23810714D01*
X166973750Y-23725000D01*
X167059464Y-23682142D01*
X167230892Y-23682142D01*
X167316607Y-23725000D01*
X167359464Y-23810714D01*
X167359464Y-23896428D01*
X166930892Y-23982142D01*
X167745178Y-23682142D02*
X167745178Y-24582142D01*
X167745178Y-23725000D02*
X167830892Y-23682142D01*
X168002321Y-23682142D01*
X168088035Y-23725000D01*
X168130892Y-23767857D01*
X168173750Y-23853571D01*
X168173750Y-24110714D01*
X168130892Y-24196428D01*
X168088035Y-24239285D01*
X168002321Y-24282142D01*
X167830892Y-24282142D01*
X167745178Y-24239285D01*
X168559464Y-24282142D02*
X168559464Y-23382142D01*
X168945178Y-24282142D02*
X168945178Y-23810714D01*
X168902321Y-23725000D01*
X168816607Y-23682142D01*
X168688035Y-23682142D01*
X168602321Y-23725000D01*
X168559464Y-23767857D01*
X169759464Y-24282142D02*
X169759464Y-23810714D01*
X169716607Y-23725000D01*
X169630892Y-23682142D01*
X169459464Y-23682142D01*
X169373750Y-23725000D01*
X169759464Y-24239285D02*
X169673750Y-24282142D01*
X169459464Y-24282142D01*
X169373750Y-24239285D01*
X169330892Y-24153571D01*
X169330892Y-24067857D01*
X169373750Y-23982142D01*
X169459464Y-23939285D01*
X169673750Y-23939285D01*
X169759464Y-23896428D01*
X170188035Y-23682142D02*
X170188035Y-24282142D01*
X170188035Y-23767857D02*
X170230892Y-23725000D01*
X170316607Y-23682142D01*
X170445178Y-23682142D01*
X170530892Y-23725000D01*
X170573750Y-23810714D01*
X170573750Y-24282142D01*
X170873750Y-23682142D02*
X171216607Y-23682142D01*
X171002321Y-23382142D02*
X171002321Y-24153571D01*
X171045178Y-24239285D01*
X171130892Y-24282142D01*
X171216607Y-24282142D01*
X171902321Y-23682142D02*
X171902321Y-24282142D01*
X171688035Y-23339285D02*
X171473750Y-23982142D01*
X172030892Y-23982142D01*
X172330892Y-23467857D02*
X172373750Y-23425000D01*
X172459464Y-23382142D01*
X172673750Y-23382142D01*
X172759464Y-23425000D01*
X172802321Y-23467857D01*
X172845178Y-23553571D01*
X172845178Y-23639285D01*
X172802321Y-23767857D01*
X172288035Y-24282142D01*
X172845178Y-24282142D01*
X173230892Y-24196428D02*
X173273750Y-24239285D01*
X173230892Y-24282142D01*
X173188035Y-24239285D01*
X173230892Y-24196428D01*
X173230892Y-24282142D01*
X173230892Y-23725000D02*
X173273750Y-23767857D01*
X173230892Y-23810714D01*
X173188035Y-23767857D01*
X173230892Y-23725000D01*
X173230892Y-23810714D01*
X174345178Y-23939285D02*
X175030892Y-23939285D01*
X174688035Y-24282142D02*
X174688035Y-23596428D01*
X175502321Y-24282142D02*
X175673750Y-24282142D01*
X175759464Y-24239285D01*
X175802321Y-24196428D01*
X175888035Y-24067857D01*
X175930892Y-23896428D01*
X175930892Y-23553571D01*
X175888035Y-23467857D01*
X175845178Y-23425000D01*
X175759464Y-23382142D01*
X175588035Y-23382142D01*
X175502321Y-23425000D01*
X175459464Y-23467857D01*
X175416607Y-23553571D01*
X175416607Y-23767857D01*
X175459464Y-23853571D01*
X175502321Y-23896428D01*
X175588035Y-23939285D01*
X175759464Y-23939285D01*
X175845178Y-23896428D01*
X175888035Y-23853571D01*
X175930892Y-23767857D01*
X176316607Y-24196428D02*
X176359464Y-24239285D01*
X176316607Y-24282142D01*
X176273750Y-24239285D01*
X176316607Y-24196428D01*
X176316607Y-24282142D01*
X177173750Y-23382142D02*
X176745178Y-23382142D01*
X176702321Y-23810714D01*
X176745178Y-23767857D01*
X176830892Y-23725000D01*
X177045178Y-23725000D01*
X177130892Y-23767857D01*
X177173750Y-23810714D01*
X177216607Y-23896428D01*
X177216607Y-24110714D01*
X177173750Y-24196428D01*
X177130892Y-24239285D01*
X177045178Y-24282142D01*
X176830892Y-24282142D01*
X176745178Y-24239285D01*
X176702321Y-24196428D01*
X177602321Y-24282142D02*
X177602321Y-23682142D01*
X177602321Y-23767857D02*
X177645178Y-23725000D01*
X177730892Y-23682142D01*
X177859464Y-23682142D01*
X177945178Y-23725000D01*
X177988035Y-23810714D01*
X177988035Y-24282142D01*
X177988035Y-23810714D02*
X178030892Y-23725000D01*
X178116607Y-23682142D01*
X178245178Y-23682142D01*
X178330892Y-23725000D01*
X178373750Y-23810714D01*
X178373750Y-24282142D01*
X178802321Y-24282142D02*
X178802321Y-23682142D01*
X178802321Y-23767857D02*
X178845178Y-23725000D01*
X178930892Y-23682142D01*
X179059464Y-23682142D01*
X179145178Y-23725000D01*
X179188035Y-23810714D01*
X179188035Y-24282142D01*
X179188035Y-23810714D02*
X179230892Y-23725000D01*
X179316607Y-23682142D01*
X179445178Y-23682142D01*
X179530892Y-23725000D01*
X179573750Y-23810714D01*
X179573750Y-24282142D01*
X148910476Y-89596428D02*
X149672380Y-89596428D01*
X150672380Y-89977380D02*
X150100952Y-89977380D01*
X150386666Y-89977380D02*
X150386666Y-88977380D01*
X150291428Y-89120238D01*
X150196190Y-89215476D01*
X150100952Y-89263095D01*
X151529523Y-89310714D02*
X151529523Y-89977380D01*
X151100952Y-89310714D02*
X151100952Y-89834523D01*
X151148571Y-89929761D01*
X151243809Y-89977380D01*
X151386666Y-89977380D01*
X151481904Y-89929761D01*
X151529523Y-89882142D01*
X148910476Y-51496428D02*
X149672380Y-51496428D01*
X149291428Y-51877380D02*
X149291428Y-51115476D01*
X150672380Y-51877380D02*
X150100952Y-51877380D01*
X150386666Y-51877380D02*
X150386666Y-50877380D01*
X150291428Y-51020238D01*
X150196190Y-51115476D01*
X150100952Y-51163095D01*
X151529523Y-51210714D02*
X151529523Y-51877380D01*
X151100952Y-51210714D02*
X151100952Y-51734523D01*
X151148571Y-51829761D01*
X151243809Y-51877380D01*
X151386666Y-51877380D01*
X151481904Y-51829761D01*
X151529523Y-51782142D01*
D12*
X195856250Y-32375000D02*
X229856250Y-32375000D01*
X155076250Y-32375000D02*
X166076250Y-32375000D01*
X147076250Y-32375000D02*
X121356250Y-32375000D01*
D10*
X221276250Y-43175000D02*
X221276250Y-38675000D01*
X221776250Y-43175000D02*
X221276250Y-43175000D01*
D11*
X222588035Y-34582142D02*
X222588035Y-33682142D01*
X222888035Y-34325000D01*
X223188035Y-33682142D01*
X223188035Y-34582142D01*
X224002321Y-34582142D02*
X224002321Y-34110714D01*
X223959464Y-34025000D01*
X223873750Y-33982142D01*
X223702321Y-33982142D01*
X223616607Y-34025000D01*
X224002321Y-34539285D02*
X223916607Y-34582142D01*
X223702321Y-34582142D01*
X223616607Y-34539285D01*
X223573750Y-34453571D01*
X223573750Y-34367857D01*
X223616607Y-34282142D01*
X223702321Y-34239285D01*
X223916607Y-34239285D01*
X224002321Y-34196428D01*
X224345178Y-34582142D02*
X224816607Y-33982142D01*
X224345178Y-33982142D02*
X224816607Y-34582142D01*
X225159464Y-34496428D02*
X225202321Y-34539285D01*
X225159464Y-34582142D01*
X225116607Y-34539285D01*
X225159464Y-34496428D01*
X225159464Y-34582142D01*
X225159464Y-34025000D02*
X225202321Y-34067857D01*
X225159464Y-34110714D01*
X225116607Y-34067857D01*
X225159464Y-34025000D01*
X225159464Y-34110714D01*
X226273750Y-34239285D02*
X226959464Y-34239285D01*
X226616607Y-34582142D02*
X226616607Y-33896428D01*
X227559464Y-33682142D02*
X227645178Y-33682142D01*
X227730892Y-33725000D01*
X227773750Y-33767857D01*
X227816607Y-33853571D01*
X227859464Y-34025000D01*
X227859464Y-34239285D01*
X227816607Y-34410714D01*
X227773750Y-34496428D01*
X227730892Y-34539285D01*
X227645178Y-34582142D01*
X227559464Y-34582142D01*
X227473750Y-34539285D01*
X227430892Y-34496428D01*
X227388035Y-34410714D01*
X227345178Y-34239285D01*
X227345178Y-34025000D01*
X227388035Y-33853571D01*
X227430892Y-33767857D01*
X227473750Y-33725000D01*
X227559464Y-33682142D01*
X228245178Y-34496428D02*
X228288035Y-34539285D01*
X228245178Y-34582142D01*
X228202321Y-34539285D01*
X228245178Y-34496428D01*
X228245178Y-34582142D01*
X228588035Y-33682142D02*
X229188035Y-33682142D01*
X228802321Y-34582142D01*
X229530892Y-34582142D02*
X229530892Y-33982142D01*
X229530892Y-34067857D02*
X229573750Y-34025000D01*
X229659464Y-33982142D01*
X229788035Y-33982142D01*
X229873750Y-34025000D01*
X229916607Y-34110714D01*
X229916607Y-34582142D01*
X229916607Y-34110714D02*
X229959464Y-34025000D01*
X230045178Y-33982142D01*
X230173750Y-33982142D01*
X230259464Y-34025000D01*
X230302321Y-34110714D01*
X230302321Y-34582142D01*
X230730892Y-34582142D02*
X230730892Y-33982142D01*
X230730892Y-34067857D02*
X230773750Y-34025000D01*
X230859464Y-33982142D01*
X230988035Y-33982142D01*
X231073750Y-34025000D01*
X231116607Y-34110714D01*
X231116607Y-34582142D01*
X231116607Y-34110714D02*
X231159464Y-34025000D01*
X231245178Y-33982142D01*
X231373750Y-33982142D01*
X231459464Y-34025000D01*
X231502321Y-34110714D01*
X231502321Y-34582142D01*
X223016607Y-43582142D02*
X222588035Y-43582142D01*
X222588035Y-42682142D01*
X223316607Y-43582142D02*
X223316607Y-42982142D01*
X223316607Y-42682142D02*
X223273750Y-42725000D01*
X223316607Y-42767857D01*
X223359464Y-42725000D01*
X223316607Y-42682142D01*
X223316607Y-42767857D01*
X223873750Y-43582142D02*
X223788035Y-43539285D01*
X223745178Y-43453571D01*
X223745178Y-42682142D01*
X224130892Y-42982142D02*
X224345178Y-43582142D01*
X224559464Y-42982142D02*
X224345178Y-43582142D01*
X224259464Y-43796428D01*
X224216607Y-43839285D01*
X224130892Y-43882142D01*
X225330892Y-42682142D02*
X224902321Y-42682142D01*
X224859464Y-43110714D01*
X224902321Y-43067857D01*
X224988035Y-43025000D01*
X225202321Y-43025000D01*
X225288035Y-43067857D01*
X225330892Y-43110714D01*
X225373750Y-43196428D01*
X225373750Y-43410714D01*
X225330892Y-43496428D01*
X225288035Y-43539285D01*
X225202321Y-43582142D01*
X224988035Y-43582142D01*
X224902321Y-43539285D01*
X224859464Y-43496428D01*
X225888035Y-43067857D02*
X225802321Y-43025000D01*
X225759464Y-42982142D01*
X225716607Y-42896428D01*
X225716607Y-42853571D01*
X225759464Y-42767857D01*
X225802321Y-42725000D01*
X225888035Y-42682142D01*
X226059464Y-42682142D01*
X226145178Y-42725000D01*
X226188035Y-42767857D01*
X226230892Y-42853571D01*
X226230892Y-42896428D01*
X226188035Y-42982142D01*
X226145178Y-43025000D01*
X226059464Y-43067857D01*
X225888035Y-43067857D01*
X225802321Y-43110714D01*
X225759464Y-43153571D01*
X225716607Y-43239285D01*
X225716607Y-43410714D01*
X225759464Y-43496428D01*
X225802321Y-43539285D01*
X225888035Y-43582142D01*
X226059464Y-43582142D01*
X226145178Y-43539285D01*
X226188035Y-43496428D01*
X226230892Y-43410714D01*
X226230892Y-43239285D01*
X226188035Y-43153571D01*
X226145178Y-43110714D01*
X226059464Y-43067857D01*
X226616607Y-43496428D02*
X226659464Y-43539285D01*
X226616607Y-43582142D01*
X226573750Y-43539285D01*
X226616607Y-43496428D01*
X226616607Y-43582142D01*
X226616607Y-43025000D02*
X226659464Y-43067857D01*
X226616607Y-43110714D01*
X226573750Y-43067857D01*
X226616607Y-43025000D01*
X226616607Y-43110714D01*
X227730892Y-43239285D02*
X228416607Y-43239285D01*
X229230892Y-42682142D02*
X229059464Y-42682142D01*
X228973750Y-42725000D01*
X228930892Y-42767857D01*
X228845178Y-42896428D01*
X228802321Y-43067857D01*
X228802321Y-43410714D01*
X228845178Y-43496428D01*
X228888035Y-43539285D01*
X228973750Y-43582142D01*
X229145178Y-43582142D01*
X229230892Y-43539285D01*
X229273750Y-43496428D01*
X229316607Y-43410714D01*
X229316607Y-43196428D01*
X229273750Y-43110714D01*
X229230892Y-43067857D01*
X229145178Y-43025000D01*
X228973750Y-43025000D01*
X228888035Y-43067857D01*
X228845178Y-43110714D01*
X228802321Y-43196428D01*
X229702321Y-43496428D02*
X229745178Y-43539285D01*
X229702321Y-43582142D01*
X229659464Y-43539285D01*
X229702321Y-43496428D01*
X229702321Y-43582142D01*
X230045178Y-42682142D02*
X230602321Y-42682142D01*
X230302321Y-43025000D01*
X230430892Y-43025000D01*
X230516607Y-43067857D01*
X230559464Y-43110714D01*
X230602321Y-43196428D01*
X230602321Y-43410714D01*
X230559464Y-43496428D01*
X230516607Y-43539285D01*
X230430892Y-43582142D01*
X230173750Y-43582142D01*
X230088035Y-43539285D01*
X230045178Y-43496428D01*
X230988035Y-43582142D02*
X230988035Y-42982142D01*
X230988035Y-43067857D02*
X231030892Y-43025000D01*
X231116607Y-42982142D01*
X231245178Y-42982142D01*
X231330892Y-43025000D01*
X231373750Y-43110714D01*
X231373750Y-43582142D01*
X231373750Y-43110714D02*
X231416607Y-43025000D01*
X231502321Y-42982142D01*
X231630892Y-42982142D01*
X231716607Y-43025000D01*
X231759464Y-43110714D01*
X231759464Y-43582142D01*
X232188035Y-43582142D02*
X232188035Y-42982142D01*
X232188035Y-43067857D02*
X232230892Y-43025000D01*
X232316607Y-42982142D01*
X232445178Y-42982142D01*
X232530892Y-43025000D01*
X232573750Y-43110714D01*
X232573750Y-43582142D01*
X232573750Y-43110714D02*
X232616607Y-43025000D01*
X232702321Y-42982142D01*
X232830892Y-42982142D01*
X232916607Y-43025000D01*
X232959464Y-43110714D01*
X232959464Y-43582142D01*
D10*
X221276250Y-38675000D02*
X219276250Y-38675000D01*
X221776250Y-48072200D02*
X219276250Y-48072200D01*
D11*
X222759464Y-48050771D02*
X222759464Y-48479342D01*
X222459464Y-47579342D02*
X222759464Y-48050771D01*
X223059464Y-47579342D01*
X223316607Y-48222200D02*
X223745178Y-48222200D01*
X223230892Y-48479342D02*
X223530892Y-47579342D01*
X223830892Y-48479342D01*
X224130892Y-48007914D02*
X224430892Y-48007914D01*
X224559464Y-48479342D02*
X224130892Y-48479342D01*
X224130892Y-47579342D01*
X224559464Y-47579342D01*
X224945178Y-48479342D02*
X224945178Y-47579342D01*
X225245178Y-48222200D01*
X225545178Y-47579342D01*
X225545178Y-48479342D01*
X225973750Y-48479342D02*
X225973750Y-47579342D01*
X226488035Y-48479342D02*
X226102321Y-47965057D01*
X226488035Y-47579342D02*
X225973750Y-48093628D01*
X226873750Y-48393628D02*
X226916607Y-48436485D01*
X226873750Y-48479342D01*
X226830892Y-48436485D01*
X226873750Y-48393628D01*
X226873750Y-48479342D01*
X226873750Y-47922200D02*
X226916607Y-47965057D01*
X226873750Y-48007914D01*
X226830892Y-47965057D01*
X226873750Y-47922200D01*
X226873750Y-48007914D01*
X227988035Y-48136485D02*
X228673750Y-48136485D01*
X229573750Y-48479342D02*
X229059464Y-48479342D01*
X229316607Y-48479342D02*
X229316607Y-47579342D01*
X229230892Y-47707914D01*
X229145178Y-47793628D01*
X229059464Y-47836485D01*
X230130892Y-47579342D02*
X230216607Y-47579342D01*
X230302321Y-47622200D01*
X230345178Y-47665057D01*
X230388035Y-47750771D01*
X230430892Y-47922200D01*
X230430892Y-48136485D01*
X230388035Y-48307914D01*
X230345178Y-48393628D01*
X230302321Y-48436485D01*
X230216607Y-48479342D01*
X230130892Y-48479342D01*
X230045178Y-48436485D01*
X230002321Y-48393628D01*
X229959464Y-48307914D01*
X229916607Y-48136485D01*
X229916607Y-47922200D01*
X229959464Y-47750771D01*
X230002321Y-47665057D01*
X230045178Y-47622200D01*
X230130892Y-47579342D01*
X230730892Y-47579342D02*
X231288035Y-47579342D01*
X230988035Y-47922200D01*
X231116607Y-47922200D01*
X231202321Y-47965057D01*
X231245178Y-48007914D01*
X231288035Y-48093628D01*
X231288035Y-48307914D01*
X231245178Y-48393628D01*
X231202321Y-48436485D01*
X231116607Y-48479342D01*
X230859464Y-48479342D01*
X230773750Y-48436485D01*
X230730892Y-48393628D01*
X232316607Y-47536485D02*
X231545178Y-48693628D01*
X233088035Y-48479342D02*
X232573750Y-48479342D01*
X232830892Y-48479342D02*
X232830892Y-47579342D01*
X232745178Y-47707914D01*
X232659464Y-47793628D01*
X232573750Y-47836485D01*
X233430892Y-47665057D02*
X233473750Y-47622200D01*
X233559464Y-47579342D01*
X233773750Y-47579342D01*
X233859464Y-47622200D01*
X233902321Y-47665057D01*
X233945178Y-47750771D01*
X233945178Y-47836485D01*
X233902321Y-47965057D01*
X233388035Y-48479342D01*
X233945178Y-48479342D01*
X234759464Y-47579342D02*
X234330892Y-47579342D01*
X234288035Y-48007914D01*
X234330892Y-47965057D01*
X234416607Y-47922200D01*
X234630892Y-47922200D01*
X234716607Y-47965057D01*
X234759464Y-48007914D01*
X234802321Y-48093628D01*
X234802321Y-48307914D01*
X234759464Y-48393628D01*
X234716607Y-48436485D01*
X234630892Y-48479342D01*
X234416607Y-48479342D01*
X234330892Y-48436485D01*
X234288035Y-48393628D01*
X235573750Y-47879342D02*
X235573750Y-48479342D01*
X235188035Y-47879342D02*
X235188035Y-48350771D01*
X235230892Y-48436485D01*
X235316607Y-48479342D01*
X235445178Y-48479342D01*
X235530892Y-48436485D01*
X235573750Y-48393628D01*
D10*
X124026250Y-26335557D02*
X128026250Y-26335557D01*
D11*
X147888035Y-23744857D02*
X147888035Y-22844857D01*
X148188035Y-23487715D01*
X148488035Y-22844857D01*
X148488035Y-23744857D01*
X149302321Y-23744857D02*
X149302321Y-23273429D01*
X149259464Y-23187715D01*
X149173750Y-23144857D01*
X149002321Y-23144857D01*
X148916607Y-23187715D01*
X149302321Y-23702000D02*
X149216607Y-23744857D01*
X149002321Y-23744857D01*
X148916607Y-23702000D01*
X148873750Y-23616286D01*
X148873750Y-23530572D01*
X148916607Y-23444857D01*
X149002321Y-23402000D01*
X149216607Y-23402000D01*
X149302321Y-23359143D01*
X149645178Y-23744857D02*
X150116607Y-23144857D01*
X149645178Y-23144857D02*
X150116607Y-23744857D01*
X150459464Y-23659143D02*
X150502321Y-23702000D01*
X150459464Y-23744857D01*
X150416607Y-23702000D01*
X150459464Y-23659143D01*
X150459464Y-23744857D01*
X150459464Y-23187715D02*
X150502321Y-23230572D01*
X150459464Y-23273429D01*
X150416607Y-23230572D01*
X150459464Y-23187715D01*
X150459464Y-23273429D01*
X151573750Y-23402000D02*
X152259464Y-23402000D01*
X151916607Y-23744857D02*
X151916607Y-23059143D01*
X152730892Y-23744857D02*
X152902321Y-23744857D01*
X152988035Y-23702000D01*
X153030892Y-23659143D01*
X153116607Y-23530572D01*
X153159464Y-23359143D01*
X153159464Y-23016286D01*
X153116607Y-22930572D01*
X153073750Y-22887715D01*
X152988035Y-22844857D01*
X152816607Y-22844857D01*
X152730892Y-22887715D01*
X152688035Y-22930572D01*
X152645178Y-23016286D01*
X152645178Y-23230572D01*
X152688035Y-23316286D01*
X152730892Y-23359143D01*
X152816607Y-23402000D01*
X152988035Y-23402000D01*
X153073750Y-23359143D01*
X153116607Y-23316286D01*
X153159464Y-23230572D01*
X153545178Y-23744857D02*
X153545178Y-23144857D01*
X153545178Y-23230572D02*
X153588035Y-23187715D01*
X153673750Y-23144857D01*
X153802321Y-23144857D01*
X153888035Y-23187715D01*
X153930892Y-23273429D01*
X153930892Y-23744857D01*
X153930892Y-23273429D02*
X153973750Y-23187715D01*
X154059464Y-23144857D01*
X154188035Y-23144857D01*
X154273750Y-23187715D01*
X154316607Y-23273429D01*
X154316607Y-23744857D01*
X154745178Y-23744857D02*
X154745178Y-23144857D01*
X154745178Y-23230572D02*
X154788035Y-23187715D01*
X154873750Y-23144857D01*
X155002321Y-23144857D01*
X155088035Y-23187715D01*
X155130892Y-23273429D01*
X155130892Y-23744857D01*
X155130892Y-23273429D02*
X155173750Y-23187715D01*
X155259464Y-23144857D01*
X155388035Y-23144857D01*
X155473750Y-23187715D01*
X155516607Y-23273429D01*
X155516607Y-23744857D01*
D10*
X147076250Y-23337715D02*
X143076250Y-23337715D01*
X164126250Y-22875000D02*
X164126250Y-23875000D01*
X164876250Y-23875000D02*
X164126250Y-23875000D01*
D11*
X166938035Y-22782142D02*
X166938035Y-21882142D01*
X167238035Y-22525000D01*
X167538035Y-21882142D01*
X167538035Y-22782142D01*
X168352321Y-22782142D02*
X168352321Y-22310714D01*
X168309464Y-22225000D01*
X168223750Y-22182142D01*
X168052321Y-22182142D01*
X167966607Y-22225000D01*
X168352321Y-22739285D02*
X168266607Y-22782142D01*
X168052321Y-22782142D01*
X167966607Y-22739285D01*
X167923750Y-22653571D01*
X167923750Y-22567857D01*
X167966607Y-22482142D01*
X168052321Y-22439285D01*
X168266607Y-22439285D01*
X168352321Y-22396428D01*
X168695178Y-22782142D02*
X169166607Y-22182142D01*
X168695178Y-22182142D02*
X169166607Y-22782142D01*
X169509464Y-22696428D02*
X169552321Y-22739285D01*
X169509464Y-22782142D01*
X169466607Y-22739285D01*
X169509464Y-22696428D01*
X169509464Y-22782142D01*
X169509464Y-22225000D02*
X169552321Y-22267857D01*
X169509464Y-22310714D01*
X169466607Y-22267857D01*
X169509464Y-22225000D01*
X169509464Y-22310714D01*
X170623750Y-22439285D02*
X171309464Y-22439285D01*
X170966607Y-22782142D02*
X170966607Y-22096428D01*
X172209464Y-22782142D02*
X171695178Y-22782142D01*
X171952321Y-22782142D02*
X171952321Y-21882142D01*
X171866607Y-22010714D01*
X171780892Y-22096428D01*
X171695178Y-22139285D01*
X172766607Y-21882142D02*
X172852321Y-21882142D01*
X172938035Y-21925000D01*
X172980892Y-21967857D01*
X173023750Y-22053571D01*
X173066607Y-22225000D01*
X173066607Y-22439285D01*
X173023750Y-22610714D01*
X172980892Y-22696428D01*
X172938035Y-22739285D01*
X172852321Y-22782142D01*
X172766607Y-22782142D01*
X172680892Y-22739285D01*
X172638035Y-22696428D01*
X172595178Y-22610714D01*
X172552321Y-22439285D01*
X172552321Y-22225000D01*
X172595178Y-22053571D01*
X172638035Y-21967857D01*
X172680892Y-21925000D01*
X172766607Y-21882142D01*
X173452321Y-22782142D02*
X173452321Y-22182142D01*
X173452321Y-22267857D02*
X173495178Y-22225000D01*
X173580892Y-22182142D01*
X173709464Y-22182142D01*
X173795178Y-22225000D01*
X173838035Y-22310714D01*
X173838035Y-22782142D01*
X173838035Y-22310714D02*
X173880892Y-22225000D01*
X173966607Y-22182142D01*
X174095178Y-22182142D01*
X174180892Y-22225000D01*
X174223750Y-22310714D01*
X174223750Y-22782142D01*
X174652321Y-22782142D02*
X174652321Y-22182142D01*
X174652321Y-22267857D02*
X174695178Y-22225000D01*
X174780892Y-22182142D01*
X174909464Y-22182142D01*
X174995178Y-22225000D01*
X175038035Y-22310714D01*
X175038035Y-22782142D01*
X175038035Y-22310714D02*
X175080892Y-22225000D01*
X175166607Y-22182142D01*
X175295178Y-22182142D01*
X175380892Y-22225000D01*
X175423750Y-22310714D01*
X175423750Y-22782142D01*
D10*
X166126250Y-22375000D02*
X162126250Y-22375000D01*
D11*
X186988035Y-23821992D02*
X186988035Y-22921992D01*
X187288035Y-23564850D01*
X187588035Y-22921992D01*
X187588035Y-23821992D01*
X188402321Y-23821992D02*
X188402321Y-23350564D01*
X188359464Y-23264850D01*
X188273750Y-23221992D01*
X188102321Y-23221992D01*
X188016607Y-23264850D01*
X188402321Y-23779135D02*
X188316607Y-23821992D01*
X188102321Y-23821992D01*
X188016607Y-23779135D01*
X187973750Y-23693421D01*
X187973750Y-23607707D01*
X188016607Y-23521992D01*
X188102321Y-23479135D01*
X188316607Y-23479135D01*
X188402321Y-23436278D01*
X188745178Y-23821992D02*
X189216607Y-23221992D01*
X188745178Y-23221992D02*
X189216607Y-23821992D01*
X189559464Y-23736278D02*
X189602321Y-23779135D01*
X189559464Y-23821992D01*
X189516607Y-23779135D01*
X189559464Y-23736278D01*
X189559464Y-23821992D01*
X189559464Y-23264850D02*
X189602321Y-23307707D01*
X189559464Y-23350564D01*
X189516607Y-23307707D01*
X189559464Y-23264850D01*
X189559464Y-23350564D01*
X190673750Y-23479135D02*
X191359464Y-23479135D01*
X191016607Y-23821992D02*
X191016607Y-23136278D01*
X191830892Y-23821992D02*
X192002321Y-23821992D01*
X192088035Y-23779135D01*
X192130892Y-23736278D01*
X192216607Y-23607707D01*
X192259464Y-23436278D01*
X192259464Y-23093421D01*
X192216607Y-23007707D01*
X192173750Y-22964850D01*
X192088035Y-22921992D01*
X191916607Y-22921992D01*
X191830892Y-22964850D01*
X191788035Y-23007707D01*
X191745178Y-23093421D01*
X191745178Y-23307707D01*
X191788035Y-23393421D01*
X191830892Y-23436278D01*
X191916607Y-23479135D01*
X192088035Y-23479135D01*
X192173750Y-23436278D01*
X192216607Y-23393421D01*
X192259464Y-23307707D01*
X192645178Y-23821992D02*
X192645178Y-23221992D01*
X192645178Y-23307707D02*
X192688035Y-23264850D01*
X192773750Y-23221992D01*
X192902321Y-23221992D01*
X192988035Y-23264850D01*
X193030892Y-23350564D01*
X193030892Y-23821992D01*
X193030892Y-23350564D02*
X193073750Y-23264850D01*
X193159464Y-23221992D01*
X193288035Y-23221992D01*
X193373750Y-23264850D01*
X193416607Y-23350564D01*
X193416607Y-23821992D01*
X193845178Y-23821992D02*
X193845178Y-23221992D01*
X193845178Y-23307707D02*
X193888035Y-23264850D01*
X193973750Y-23221992D01*
X194102321Y-23221992D01*
X194188035Y-23264850D01*
X194230892Y-23350564D01*
X194230892Y-23821992D01*
X194230892Y-23350564D02*
X194273750Y-23264850D01*
X194359464Y-23221992D01*
X194488035Y-23221992D01*
X194573750Y-23264850D01*
X194616607Y-23350564D01*
X194616607Y-23821992D01*
D10*
X181176250Y-27614500D02*
X183176250Y-27614500D01*
X202726250Y-43875000D02*
X202726250Y-44875000D01*
X203226250Y-43875000D02*
X202726250Y-43875000D01*
X202226250Y-42570000D02*
X202226250Y-44285000D01*
X202476250Y-42570000D02*
X202226250Y-42570000D01*
X202226250Y-39875000D02*
X203726250Y-39875000D01*
X202226250Y-37275000D02*
X202226250Y-39875000D01*
X203226250Y-38375000D02*
X203726250Y-38375000D01*
X203226250Y-36875000D02*
X203226250Y-38375000D01*
X203726250Y-36875000D02*
X203226250Y-36875000D01*
X202226250Y-35375000D02*
X202226250Y-35552540D01*
X203726250Y-35375000D02*
X202226250Y-35375000D01*
X200226250Y-45964000D02*
X202476250Y-45964000D01*
X202726250Y-44875000D02*
X200226250Y-44875000D01*
D11*
X203209464Y-45853571D02*
X203209464Y-46282142D01*
X202909464Y-45382142D02*
X203209464Y-45853571D01*
X203509464Y-45382142D01*
X203766607Y-46025000D02*
X204195178Y-46025000D01*
X203680892Y-46282142D02*
X203980892Y-45382142D01*
X204280892Y-46282142D01*
X204580892Y-45810714D02*
X204880892Y-45810714D01*
X205009464Y-46282142D02*
X204580892Y-46282142D01*
X204580892Y-45382142D01*
X205009464Y-45382142D01*
X205395178Y-46282142D02*
X205395178Y-45382142D01*
X205695178Y-46025000D01*
X205995178Y-45382142D01*
X205995178Y-46282142D01*
X206423750Y-46282142D02*
X206423750Y-45382142D01*
X206938035Y-46282142D02*
X206552321Y-45767857D01*
X206938035Y-45382142D02*
X206423750Y-45896428D01*
X207323750Y-46196428D02*
X207366607Y-46239285D01*
X207323750Y-46282142D01*
X207280892Y-46239285D01*
X207323750Y-46196428D01*
X207323750Y-46282142D01*
X207323750Y-45725000D02*
X207366607Y-45767857D01*
X207323750Y-45810714D01*
X207280892Y-45767857D01*
X207323750Y-45725000D01*
X207323750Y-45810714D01*
X208438035Y-45939285D02*
X209123750Y-45939285D01*
X209980892Y-45382142D02*
X209552321Y-45382142D01*
X209509464Y-45810714D01*
X209552321Y-45767857D01*
X209638035Y-45725000D01*
X209852321Y-45725000D01*
X209938035Y-45767857D01*
X209980892Y-45810714D01*
X210023750Y-45896428D01*
X210023750Y-46110714D01*
X209980892Y-46196428D01*
X209938035Y-46239285D01*
X209852321Y-46282142D01*
X209638035Y-46282142D01*
X209552321Y-46239285D01*
X209509464Y-46196428D01*
X211052321Y-45339285D02*
X210280892Y-46496428D01*
X211266607Y-45382142D02*
X211866607Y-45382142D01*
X211480892Y-46282142D01*
X212595178Y-45682142D02*
X212595178Y-46282142D01*
X212209464Y-45682142D02*
X212209464Y-46153571D01*
X212252321Y-46239285D01*
X212338035Y-46282142D01*
X212466607Y-46282142D01*
X212552321Y-46239285D01*
X212595178Y-46196428D01*
X204088035Y-43810714D02*
X203788035Y-43810714D01*
X203788035Y-44282142D02*
X203788035Y-43382142D01*
X204216607Y-43382142D01*
X204902321Y-44239285D02*
X204816607Y-44282142D01*
X204645178Y-44282142D01*
X204559464Y-44239285D01*
X204516607Y-44153571D01*
X204516607Y-43810714D01*
X204559464Y-43725000D01*
X204645178Y-43682142D01*
X204816607Y-43682142D01*
X204902321Y-43725000D01*
X204945178Y-43810714D01*
X204945178Y-43896428D01*
X204516607Y-43982142D01*
X205330892Y-44282142D02*
X205330892Y-43682142D01*
X205330892Y-43853571D02*
X205373750Y-43767857D01*
X205416607Y-43725000D01*
X205502321Y-43682142D01*
X205588035Y-43682142D01*
X205888035Y-44282142D02*
X205888035Y-43682142D01*
X205888035Y-43853571D02*
X205930892Y-43767857D01*
X205973750Y-43725000D01*
X206059464Y-43682142D01*
X206145178Y-43682142D01*
X206445178Y-44282142D02*
X206445178Y-43682142D01*
X206445178Y-43382142D02*
X206402321Y-43425000D01*
X206445178Y-43467857D01*
X206488035Y-43425000D01*
X206445178Y-43382142D01*
X206445178Y-43467857D01*
X206830892Y-44239285D02*
X206916607Y-44282142D01*
X207088035Y-44282142D01*
X207173750Y-44239285D01*
X207216607Y-44153571D01*
X207216607Y-44110714D01*
X207173750Y-44025000D01*
X207088035Y-43982142D01*
X206959464Y-43982142D01*
X206873750Y-43939285D01*
X206830892Y-43853571D01*
X206830892Y-43810714D01*
X206873750Y-43725000D01*
X206959464Y-43682142D01*
X207088035Y-43682142D01*
X207173750Y-43725000D01*
X207602321Y-44196428D02*
X207645178Y-44239285D01*
X207602321Y-44282142D01*
X207559464Y-44239285D01*
X207602321Y-44196428D01*
X207602321Y-44282142D01*
X207602321Y-43725000D02*
X207645178Y-43767857D01*
X207602321Y-43810714D01*
X207559464Y-43767857D01*
X207602321Y-43725000D01*
X207602321Y-43810714D01*
X208716607Y-43939285D02*
X209402321Y-43939285D01*
X210302321Y-44282142D02*
X209788035Y-44282142D01*
X210045178Y-44282142D02*
X210045178Y-43382142D01*
X209959464Y-43510714D01*
X209873750Y-43596428D01*
X209788035Y-43639285D01*
X210645178Y-43467857D02*
X210688035Y-43425000D01*
X210773750Y-43382142D01*
X210988035Y-43382142D01*
X211073750Y-43425000D01*
X211116607Y-43467857D01*
X211159464Y-43553571D01*
X211159464Y-43639285D01*
X211116607Y-43767857D01*
X210602321Y-44282142D01*
X211159464Y-44282142D01*
X211545178Y-44196428D02*
X211588035Y-44239285D01*
X211545178Y-44282142D01*
X211502321Y-44239285D01*
X211545178Y-44196428D01*
X211545178Y-44282142D01*
X212402321Y-43382142D02*
X211973750Y-43382142D01*
X211930892Y-43810714D01*
X211973750Y-43767857D01*
X212059464Y-43725000D01*
X212273750Y-43725000D01*
X212359464Y-43767857D01*
X212402321Y-43810714D01*
X212445178Y-43896428D01*
X212445178Y-44110714D01*
X212402321Y-44196428D01*
X212359464Y-44239285D01*
X212273750Y-44282142D01*
X212059464Y-44282142D01*
X211973750Y-44239285D01*
X211930892Y-44196428D01*
X212830892Y-44282142D02*
X212830892Y-43682142D01*
X212830892Y-43767857D02*
X212873750Y-43725000D01*
X212959464Y-43682142D01*
X213088035Y-43682142D01*
X213173750Y-43725000D01*
X213216607Y-43810714D01*
X213216607Y-44282142D01*
X213216607Y-43810714D02*
X213259464Y-43725000D01*
X213345178Y-43682142D01*
X213473750Y-43682142D01*
X213559464Y-43725000D01*
X213602321Y-43810714D01*
X213602321Y-44282142D01*
X214030892Y-44282142D02*
X214030892Y-43682142D01*
X214030892Y-43767857D02*
X214073750Y-43725000D01*
X214159464Y-43682142D01*
X214288035Y-43682142D01*
X214373750Y-43725000D01*
X214416607Y-43810714D01*
X214416607Y-44282142D01*
X214416607Y-43810714D02*
X214459464Y-43725000D01*
X214545178Y-43682142D01*
X214673750Y-43682142D01*
X214759464Y-43725000D01*
X214802321Y-43810714D01*
X214802321Y-44282142D01*
X204966607Y-38782142D02*
X204538035Y-38782142D01*
X204538035Y-37882142D01*
X205266607Y-38782142D02*
X205266607Y-38182142D01*
X205266607Y-37882142D02*
X205223750Y-37925000D01*
X205266607Y-37967857D01*
X205309464Y-37925000D01*
X205266607Y-37882142D01*
X205266607Y-37967857D01*
X205823750Y-38782142D02*
X205738035Y-38739285D01*
X205695178Y-38653571D01*
X205695178Y-37882142D01*
X206080892Y-38182142D02*
X206295178Y-38782142D01*
X206509464Y-38182142D02*
X206295178Y-38782142D01*
X206209464Y-38996428D01*
X206166607Y-39039285D01*
X206080892Y-39082142D01*
X207280892Y-37882142D02*
X206852321Y-37882142D01*
X206809464Y-38310714D01*
X206852321Y-38267857D01*
X206938035Y-38225000D01*
X207152321Y-38225000D01*
X207238035Y-38267857D01*
X207280892Y-38310714D01*
X207323750Y-38396428D01*
X207323750Y-38610714D01*
X207280892Y-38696428D01*
X207238035Y-38739285D01*
X207152321Y-38782142D01*
X206938035Y-38782142D01*
X206852321Y-38739285D01*
X206809464Y-38696428D01*
X207838035Y-38267857D02*
X207752321Y-38225000D01*
X207709464Y-38182142D01*
X207666607Y-38096428D01*
X207666607Y-38053571D01*
X207709464Y-37967857D01*
X207752321Y-37925000D01*
X207838035Y-37882142D01*
X208009464Y-37882142D01*
X208095178Y-37925000D01*
X208138035Y-37967857D01*
X208180892Y-38053571D01*
X208180892Y-38096428D01*
X208138035Y-38182142D01*
X208095178Y-38225000D01*
X208009464Y-38267857D01*
X207838035Y-38267857D01*
X207752321Y-38310714D01*
X207709464Y-38353571D01*
X207666607Y-38439285D01*
X207666607Y-38610714D01*
X207709464Y-38696428D01*
X207752321Y-38739285D01*
X207838035Y-38782142D01*
X208009464Y-38782142D01*
X208095178Y-38739285D01*
X208138035Y-38696428D01*
X208180892Y-38610714D01*
X208180892Y-38439285D01*
X208138035Y-38353571D01*
X208095178Y-38310714D01*
X208009464Y-38267857D01*
X208566607Y-38696428D02*
X208609464Y-38739285D01*
X208566607Y-38782142D01*
X208523750Y-38739285D01*
X208566607Y-38696428D01*
X208566607Y-38782142D01*
X208566607Y-38225000D02*
X208609464Y-38267857D01*
X208566607Y-38310714D01*
X208523750Y-38267857D01*
X208566607Y-38225000D01*
X208566607Y-38310714D01*
X209680892Y-38439285D02*
X210366607Y-38439285D01*
X211180892Y-38182142D02*
X211180892Y-38782142D01*
X210966607Y-37839285D02*
X210752321Y-38482142D01*
X211309464Y-38482142D01*
X211652321Y-38696428D02*
X211695178Y-38739285D01*
X211652321Y-38782142D01*
X211609464Y-38739285D01*
X211652321Y-38696428D01*
X211652321Y-38782142D01*
X212209464Y-38267857D02*
X212123750Y-38225000D01*
X212080892Y-38182142D01*
X212038035Y-38096428D01*
X212038035Y-38053571D01*
X212080892Y-37967857D01*
X212123750Y-37925000D01*
X212209464Y-37882142D01*
X212380892Y-37882142D01*
X212466607Y-37925000D01*
X212509464Y-37967857D01*
X212552321Y-38053571D01*
X212552321Y-38096428D01*
X212509464Y-38182142D01*
X212466607Y-38225000D01*
X212380892Y-38267857D01*
X212209464Y-38267857D01*
X212123750Y-38310714D01*
X212080892Y-38353571D01*
X212038035Y-38439285D01*
X212038035Y-38610714D01*
X212080892Y-38696428D01*
X212123750Y-38739285D01*
X212209464Y-38782142D01*
X212380892Y-38782142D01*
X212466607Y-38739285D01*
X212509464Y-38696428D01*
X212552321Y-38610714D01*
X212552321Y-38439285D01*
X212509464Y-38353571D01*
X212466607Y-38310714D01*
X212380892Y-38267857D01*
X212938035Y-38782142D02*
X212938035Y-38182142D01*
X212938035Y-38267857D02*
X212980892Y-38225000D01*
X213066607Y-38182142D01*
X213195178Y-38182142D01*
X213280892Y-38225000D01*
X213323750Y-38310714D01*
X213323750Y-38782142D01*
X213323750Y-38310714D02*
X213366607Y-38225000D01*
X213452321Y-38182142D01*
X213580892Y-38182142D01*
X213666607Y-38225000D01*
X213709464Y-38310714D01*
X213709464Y-38782142D01*
X214138035Y-38782142D02*
X214138035Y-38182142D01*
X214138035Y-38267857D02*
X214180892Y-38225000D01*
X214266607Y-38182142D01*
X214395178Y-38182142D01*
X214480892Y-38225000D01*
X214523750Y-38310714D01*
X214523750Y-38782142D01*
X214523750Y-38310714D02*
X214566607Y-38225000D01*
X214652321Y-38182142D01*
X214780892Y-38182142D01*
X214866607Y-38225000D01*
X214909464Y-38310714D01*
X214909464Y-38782142D01*
D10*
X183176250Y-39875000D02*
X183176250Y-35423000D01*
X186176250Y-39875000D02*
X183176250Y-39875000D01*
X183176250Y-35423000D02*
X181176250Y-35423000D01*
X184176250Y-32875000D02*
X181176250Y-32875000D01*
X184176250Y-38375000D02*
X184176250Y-32875000D01*
X186176250Y-38375000D02*
X184176250Y-38375000D01*
X185176250Y-30875000D02*
X186176250Y-30875000D01*
X185176250Y-31875000D02*
X185176250Y-30875000D01*
D11*
X187159464Y-39853571D02*
X187159464Y-40282142D01*
X186859464Y-39382142D02*
X187159464Y-39853571D01*
X187459464Y-39382142D01*
X187716607Y-40025000D02*
X188145178Y-40025000D01*
X187630892Y-40282142D02*
X187930892Y-39382142D01*
X188230892Y-40282142D01*
X188530892Y-39810714D02*
X188830892Y-39810714D01*
X188959464Y-40282142D02*
X188530892Y-40282142D01*
X188530892Y-39382142D01*
X188959464Y-39382142D01*
X189345178Y-40282142D02*
X189345178Y-39382142D01*
X189645178Y-40025000D01*
X189945178Y-39382142D01*
X189945178Y-40282142D01*
X190373750Y-40282142D02*
X190373750Y-39382142D01*
X190888035Y-40282142D02*
X190502321Y-39767857D01*
X190888035Y-39382142D02*
X190373750Y-39896428D01*
X191273750Y-40196428D02*
X191316607Y-40239285D01*
X191273750Y-40282142D01*
X191230892Y-40239285D01*
X191273750Y-40196428D01*
X191273750Y-40282142D01*
X191273750Y-39725000D02*
X191316607Y-39767857D01*
X191273750Y-39810714D01*
X191230892Y-39767857D01*
X191273750Y-39725000D01*
X191273750Y-39810714D01*
X192388035Y-39939285D02*
X193073750Y-39939285D01*
X193888035Y-39682142D02*
X193888035Y-40282142D01*
X193673750Y-39339285D02*
X193459464Y-39982142D01*
X194016607Y-39982142D01*
X195002321Y-39339285D02*
X194230892Y-40496428D01*
X195259464Y-39467857D02*
X195302321Y-39425000D01*
X195388035Y-39382142D01*
X195602321Y-39382142D01*
X195688035Y-39425000D01*
X195730892Y-39467857D01*
X195773750Y-39553571D01*
X195773750Y-39639285D01*
X195730892Y-39767857D01*
X195216607Y-40282142D01*
X195773750Y-40282142D01*
X196588035Y-39382142D02*
X196159464Y-39382142D01*
X196116607Y-39810714D01*
X196159464Y-39767857D01*
X196245178Y-39725000D01*
X196459464Y-39725000D01*
X196545178Y-39767857D01*
X196588035Y-39810714D01*
X196630892Y-39896428D01*
X196630892Y-40110714D01*
X196588035Y-40196428D01*
X196545178Y-40239285D01*
X196459464Y-40282142D01*
X196245178Y-40282142D01*
X196159464Y-40239285D01*
X196116607Y-40196428D01*
X197402321Y-39682142D02*
X197402321Y-40282142D01*
X197016607Y-39682142D02*
X197016607Y-40153571D01*
X197059464Y-40239285D01*
X197145178Y-40282142D01*
X197273750Y-40282142D01*
X197359464Y-40239285D01*
X197402321Y-40196428D01*
X187288035Y-38310714D02*
X186988035Y-38310714D01*
X186988035Y-38782142D02*
X186988035Y-37882142D01*
X187416607Y-37882142D01*
X188102321Y-38739285D02*
X188016607Y-38782142D01*
X187845178Y-38782142D01*
X187759464Y-38739285D01*
X187716607Y-38653571D01*
X187716607Y-38310714D01*
X187759464Y-38225000D01*
X187845178Y-38182142D01*
X188016607Y-38182142D01*
X188102321Y-38225000D01*
X188145178Y-38310714D01*
X188145178Y-38396428D01*
X187716607Y-38482142D01*
X188530892Y-38782142D02*
X188530892Y-38182142D01*
X188530892Y-38353571D02*
X188573750Y-38267857D01*
X188616607Y-38225000D01*
X188702321Y-38182142D01*
X188788035Y-38182142D01*
X189088035Y-38782142D02*
X189088035Y-38182142D01*
X189088035Y-38353571D02*
X189130892Y-38267857D01*
X189173750Y-38225000D01*
X189259464Y-38182142D01*
X189345178Y-38182142D01*
X189645178Y-38782142D02*
X189645178Y-38182142D01*
X189645178Y-37882142D02*
X189602321Y-37925000D01*
X189645178Y-37967857D01*
X189688035Y-37925000D01*
X189645178Y-37882142D01*
X189645178Y-37967857D01*
X190030892Y-38739285D02*
X190116607Y-38782142D01*
X190288035Y-38782142D01*
X190373750Y-38739285D01*
X190416607Y-38653571D01*
X190416607Y-38610714D01*
X190373750Y-38525000D01*
X190288035Y-38482142D01*
X190159464Y-38482142D01*
X190073750Y-38439285D01*
X190030892Y-38353571D01*
X190030892Y-38310714D01*
X190073750Y-38225000D01*
X190159464Y-38182142D01*
X190288035Y-38182142D01*
X190373750Y-38225000D01*
X190802321Y-38696428D02*
X190845178Y-38739285D01*
X190802321Y-38782142D01*
X190759464Y-38739285D01*
X190802321Y-38696428D01*
X190802321Y-38782142D01*
X190802321Y-38225000D02*
X190845178Y-38267857D01*
X190802321Y-38310714D01*
X190759464Y-38267857D01*
X190802321Y-38225000D01*
X190802321Y-38310714D01*
X191916607Y-38439285D02*
X192602321Y-38439285D01*
X193202321Y-37882142D02*
X193288035Y-37882142D01*
X193373750Y-37925000D01*
X193416607Y-37967857D01*
X193459464Y-38053571D01*
X193502321Y-38225000D01*
X193502321Y-38439285D01*
X193459464Y-38610714D01*
X193416607Y-38696428D01*
X193373750Y-38739285D01*
X193288035Y-38782142D01*
X193202321Y-38782142D01*
X193116607Y-38739285D01*
X193073750Y-38696428D01*
X193030892Y-38610714D01*
X192988035Y-38439285D01*
X192988035Y-38225000D01*
X193030892Y-38053571D01*
X193073750Y-37967857D01*
X193116607Y-37925000D01*
X193202321Y-37882142D01*
X193888035Y-38696428D02*
X193930892Y-38739285D01*
X193888035Y-38782142D01*
X193845178Y-38739285D01*
X193888035Y-38696428D01*
X193888035Y-38782142D01*
X194745178Y-37882142D02*
X194316607Y-37882142D01*
X194273750Y-38310714D01*
X194316607Y-38267857D01*
X194402321Y-38225000D01*
X194616607Y-38225000D01*
X194702321Y-38267857D01*
X194745178Y-38310714D01*
X194788035Y-38396428D01*
X194788035Y-38610714D01*
X194745178Y-38696428D01*
X194702321Y-38739285D01*
X194616607Y-38782142D01*
X194402321Y-38782142D01*
X194316607Y-38739285D01*
X194273750Y-38696428D01*
X195173750Y-38782142D02*
X195173750Y-38182142D01*
X195173750Y-38267857D02*
X195216607Y-38225000D01*
X195302321Y-38182142D01*
X195430892Y-38182142D01*
X195516607Y-38225000D01*
X195559464Y-38310714D01*
X195559464Y-38782142D01*
X195559464Y-38310714D02*
X195602321Y-38225000D01*
X195688035Y-38182142D01*
X195816607Y-38182142D01*
X195902321Y-38225000D01*
X195945178Y-38310714D01*
X195945178Y-38782142D01*
X196373750Y-38782142D02*
X196373750Y-38182142D01*
X196373750Y-38267857D02*
X196416607Y-38225000D01*
X196502321Y-38182142D01*
X196630892Y-38182142D01*
X196716607Y-38225000D01*
X196759464Y-38310714D01*
X196759464Y-38782142D01*
X196759464Y-38310714D02*
X196802321Y-38225000D01*
X196888035Y-38182142D01*
X197016607Y-38182142D01*
X197102321Y-38225000D01*
X197145178Y-38310714D01*
X197145178Y-38782142D01*
X187416607Y-35782142D02*
X186988035Y-35782142D01*
X186988035Y-34882142D01*
X187716607Y-35782142D02*
X187716607Y-35182142D01*
X187716607Y-34882142D02*
X187673750Y-34925000D01*
X187716607Y-34967857D01*
X187759464Y-34925000D01*
X187716607Y-34882142D01*
X187716607Y-34967857D01*
X188273750Y-35782142D02*
X188188035Y-35739285D01*
X188145178Y-35653571D01*
X188145178Y-34882142D01*
X188530892Y-35182142D02*
X188745178Y-35782142D01*
X188959464Y-35182142D02*
X188745178Y-35782142D01*
X188659464Y-35996428D01*
X188616607Y-36039285D01*
X188530892Y-36082142D01*
X189730892Y-34882142D02*
X189302321Y-34882142D01*
X189259464Y-35310714D01*
X189302321Y-35267857D01*
X189388035Y-35225000D01*
X189602321Y-35225000D01*
X189688035Y-35267857D01*
X189730892Y-35310714D01*
X189773750Y-35396428D01*
X189773750Y-35610714D01*
X189730892Y-35696428D01*
X189688035Y-35739285D01*
X189602321Y-35782142D01*
X189388035Y-35782142D01*
X189302321Y-35739285D01*
X189259464Y-35696428D01*
X190288035Y-35267857D02*
X190202321Y-35225000D01*
X190159464Y-35182142D01*
X190116607Y-35096428D01*
X190116607Y-35053571D01*
X190159464Y-34967857D01*
X190202321Y-34925000D01*
X190288035Y-34882142D01*
X190459464Y-34882142D01*
X190545178Y-34925000D01*
X190588035Y-34967857D01*
X190630892Y-35053571D01*
X190630892Y-35096428D01*
X190588035Y-35182142D01*
X190545178Y-35225000D01*
X190459464Y-35267857D01*
X190288035Y-35267857D01*
X190202321Y-35310714D01*
X190159464Y-35353571D01*
X190116607Y-35439285D01*
X190116607Y-35610714D01*
X190159464Y-35696428D01*
X190202321Y-35739285D01*
X190288035Y-35782142D01*
X190459464Y-35782142D01*
X190545178Y-35739285D01*
X190588035Y-35696428D01*
X190630892Y-35610714D01*
X190630892Y-35439285D01*
X190588035Y-35353571D01*
X190545178Y-35310714D01*
X190459464Y-35267857D01*
X191016607Y-35696428D02*
X191059464Y-35739285D01*
X191016607Y-35782142D01*
X190973750Y-35739285D01*
X191016607Y-35696428D01*
X191016607Y-35782142D01*
X191016607Y-35225000D02*
X191059464Y-35267857D01*
X191016607Y-35310714D01*
X190973750Y-35267857D01*
X191016607Y-35225000D01*
X191016607Y-35310714D01*
X192130892Y-35439285D02*
X192816607Y-35439285D01*
X192473750Y-35782142D02*
X192473750Y-35096428D01*
X193416607Y-34882142D02*
X193502321Y-34882142D01*
X193588035Y-34925000D01*
X193630892Y-34967857D01*
X193673750Y-35053571D01*
X193716607Y-35225000D01*
X193716607Y-35439285D01*
X193673750Y-35610714D01*
X193630892Y-35696428D01*
X193588035Y-35739285D01*
X193502321Y-35782142D01*
X193416607Y-35782142D01*
X193330892Y-35739285D01*
X193288035Y-35696428D01*
X193245178Y-35610714D01*
X193202321Y-35439285D01*
X193202321Y-35225000D01*
X193245178Y-35053571D01*
X193288035Y-34967857D01*
X193330892Y-34925000D01*
X193416607Y-34882142D01*
X194102321Y-35782142D02*
X194102321Y-35182142D01*
X194102321Y-35267857D02*
X194145178Y-35225000D01*
X194230892Y-35182142D01*
X194359464Y-35182142D01*
X194445178Y-35225000D01*
X194488035Y-35310714D01*
X194488035Y-35782142D01*
X194488035Y-35310714D02*
X194530892Y-35225000D01*
X194616607Y-35182142D01*
X194745178Y-35182142D01*
X194830892Y-35225000D01*
X194873750Y-35310714D01*
X194873750Y-35782142D01*
X195302321Y-35782142D02*
X195302321Y-35182142D01*
X195302321Y-35267857D02*
X195345178Y-35225000D01*
X195430892Y-35182142D01*
X195559464Y-35182142D01*
X195645178Y-35225000D01*
X195688035Y-35310714D01*
X195688035Y-35782142D01*
X195688035Y-35310714D02*
X195730892Y-35225000D01*
X195816607Y-35182142D01*
X195945178Y-35182142D01*
X196030892Y-35225000D01*
X196073750Y-35310714D01*
X196073750Y-35782142D01*
D12*
X176356250Y-32375000D02*
X185856250Y-32375000D01*
D10*
X165126250Y-27375000D02*
X166126250Y-27375000D01*
X165126250Y-26875000D02*
X165126250Y-27375000D01*
X162126250Y-26875000D02*
X165126250Y-26875000D01*
X164126250Y-28875000D02*
X164126250Y-27612500D01*
X166126250Y-28875000D02*
X164126250Y-28875000D01*
X162126250Y-27612500D02*
X164126250Y-27612500D01*
X162126250Y-30975000D02*
X164126250Y-30975000D01*
X164126250Y-34875000D02*
X164126250Y-30975000D01*
X166126250Y-34875000D02*
X164126250Y-34875000D01*
X165626250Y-30375000D02*
X166126250Y-30375000D01*
X165626250Y-29875000D02*
X165626250Y-30375000D01*
D11*
X167109464Y-28853571D02*
X167109464Y-29282142D01*
X166809464Y-28382142D02*
X167109464Y-28853571D01*
X167409464Y-28382142D01*
X167666607Y-29025000D02*
X168095178Y-29025000D01*
X167580892Y-29282142D02*
X167880892Y-28382142D01*
X168180892Y-29282142D01*
X168480892Y-28810714D02*
X168780892Y-28810714D01*
X168909464Y-29282142D02*
X168480892Y-29282142D01*
X168480892Y-28382142D01*
X168909464Y-28382142D01*
X169295178Y-29282142D02*
X169295178Y-28382142D01*
X169595178Y-29025000D01*
X169895178Y-28382142D01*
X169895178Y-29282142D01*
X170323750Y-29282142D02*
X170323750Y-28382142D01*
X170838035Y-29282142D02*
X170452321Y-28767857D01*
X170838035Y-28382142D02*
X170323750Y-28896428D01*
X171223750Y-29196428D02*
X171266607Y-29239285D01*
X171223750Y-29282142D01*
X171180892Y-29239285D01*
X171223750Y-29196428D01*
X171223750Y-29282142D01*
X171223750Y-28725000D02*
X171266607Y-28767857D01*
X171223750Y-28810714D01*
X171180892Y-28767857D01*
X171223750Y-28725000D01*
X171223750Y-28810714D01*
X172338035Y-28939285D02*
X173023750Y-28939285D01*
X172680892Y-29282142D02*
X172680892Y-28596428D01*
X173923750Y-29282142D02*
X173409464Y-29282142D01*
X173666607Y-29282142D02*
X173666607Y-28382142D01*
X173580892Y-28510714D01*
X173495178Y-28596428D01*
X173409464Y-28639285D01*
X174952321Y-28339285D02*
X174180892Y-29496428D01*
X175638035Y-28682142D02*
X175638035Y-29282142D01*
X175423750Y-28339285D02*
X175209464Y-28982142D01*
X175766607Y-28982142D01*
X176495178Y-28682142D02*
X176495178Y-29282142D01*
X176109464Y-28682142D02*
X176109464Y-29153571D01*
X176152321Y-29239285D01*
X176238035Y-29282142D01*
X176366607Y-29282142D01*
X176452321Y-29239285D01*
X176495178Y-29196428D01*
X167238035Y-27310714D02*
X166938035Y-27310714D01*
X166938035Y-27782142D02*
X166938035Y-26882142D01*
X167366607Y-26882142D01*
X168052321Y-27739285D02*
X167966607Y-27782142D01*
X167795178Y-27782142D01*
X167709464Y-27739285D01*
X167666607Y-27653571D01*
X167666607Y-27310714D01*
X167709464Y-27225000D01*
X167795178Y-27182142D01*
X167966607Y-27182142D01*
X168052321Y-27225000D01*
X168095178Y-27310714D01*
X168095178Y-27396428D01*
X167666607Y-27482142D01*
X168480892Y-27782142D02*
X168480892Y-27182142D01*
X168480892Y-27353571D02*
X168523750Y-27267857D01*
X168566607Y-27225000D01*
X168652321Y-27182142D01*
X168738035Y-27182142D01*
X169038035Y-27782142D02*
X169038035Y-27182142D01*
X169038035Y-27353571D02*
X169080892Y-27267857D01*
X169123750Y-27225000D01*
X169209464Y-27182142D01*
X169295178Y-27182142D01*
X169595178Y-27782142D02*
X169595178Y-27182142D01*
X169595178Y-26882142D02*
X169552321Y-26925000D01*
X169595178Y-26967857D01*
X169638035Y-26925000D01*
X169595178Y-26882142D01*
X169595178Y-26967857D01*
X169980892Y-27739285D02*
X170066607Y-27782142D01*
X170238035Y-27782142D01*
X170323750Y-27739285D01*
X170366607Y-27653571D01*
X170366607Y-27610714D01*
X170323750Y-27525000D01*
X170238035Y-27482142D01*
X170109464Y-27482142D01*
X170023750Y-27439285D01*
X169980892Y-27353571D01*
X169980892Y-27310714D01*
X170023750Y-27225000D01*
X170109464Y-27182142D01*
X170238035Y-27182142D01*
X170323750Y-27225000D01*
X170752321Y-27696428D02*
X170795178Y-27739285D01*
X170752321Y-27782142D01*
X170709464Y-27739285D01*
X170752321Y-27696428D01*
X170752321Y-27782142D01*
X170752321Y-27225000D02*
X170795178Y-27267857D01*
X170752321Y-27310714D01*
X170709464Y-27267857D01*
X170752321Y-27225000D01*
X170752321Y-27310714D01*
X171866607Y-27439285D02*
X172552321Y-27439285D01*
X172209464Y-27782142D02*
X172209464Y-27096428D01*
X173409464Y-26882142D02*
X172980892Y-26882142D01*
X172938035Y-27310714D01*
X172980892Y-27267857D01*
X173066607Y-27225000D01*
X173280892Y-27225000D01*
X173366607Y-27267857D01*
X173409464Y-27310714D01*
X173452321Y-27396428D01*
X173452321Y-27610714D01*
X173409464Y-27696428D01*
X173366607Y-27739285D01*
X173280892Y-27782142D01*
X173066607Y-27782142D01*
X172980892Y-27739285D01*
X172938035Y-27696428D01*
X173838035Y-27696428D02*
X173880892Y-27739285D01*
X173838035Y-27782142D01*
X173795178Y-27739285D01*
X173838035Y-27696428D01*
X173838035Y-27782142D01*
X174695178Y-26882142D02*
X174266607Y-26882142D01*
X174223750Y-27310714D01*
X174266607Y-27267857D01*
X174352321Y-27225000D01*
X174566607Y-27225000D01*
X174652321Y-27267857D01*
X174695178Y-27310714D01*
X174738035Y-27396428D01*
X174738035Y-27610714D01*
X174695178Y-27696428D01*
X174652321Y-27739285D01*
X174566607Y-27782142D01*
X174352321Y-27782142D01*
X174266607Y-27739285D01*
X174223750Y-27696428D01*
X175123750Y-27782142D02*
X175123750Y-27182142D01*
X175123750Y-27267857D02*
X175166607Y-27225000D01*
X175252321Y-27182142D01*
X175380892Y-27182142D01*
X175466607Y-27225000D01*
X175509464Y-27310714D01*
X175509464Y-27782142D01*
X175509464Y-27310714D02*
X175552321Y-27225000D01*
X175638035Y-27182142D01*
X175766607Y-27182142D01*
X175852321Y-27225000D01*
X175895178Y-27310714D01*
X175895178Y-27782142D01*
X176323750Y-27782142D02*
X176323750Y-27182142D01*
X176323750Y-27267857D02*
X176366607Y-27225000D01*
X176452321Y-27182142D01*
X176580892Y-27182142D01*
X176666607Y-27225000D01*
X176709464Y-27310714D01*
X176709464Y-27782142D01*
X176709464Y-27310714D02*
X176752321Y-27225000D01*
X176838035Y-27182142D01*
X176966607Y-27182142D01*
X177052321Y-27225000D01*
X177095178Y-27310714D01*
X177095178Y-27782142D01*
X167366607Y-35282142D02*
X166938035Y-35282142D01*
X166938035Y-34382142D01*
X167666607Y-35282142D02*
X167666607Y-34682142D01*
X167666607Y-34382142D02*
X167623750Y-34425000D01*
X167666607Y-34467857D01*
X167709464Y-34425000D01*
X167666607Y-34382142D01*
X167666607Y-34467857D01*
X168223750Y-35282142D02*
X168138035Y-35239285D01*
X168095178Y-35153571D01*
X168095178Y-34382142D01*
X168480892Y-34682142D02*
X168695178Y-35282142D01*
X168909464Y-34682142D02*
X168695178Y-35282142D01*
X168609464Y-35496428D01*
X168566607Y-35539285D01*
X168480892Y-35582142D01*
X169680892Y-34382142D02*
X169252321Y-34382142D01*
X169209464Y-34810714D01*
X169252321Y-34767857D01*
X169338035Y-34725000D01*
X169552321Y-34725000D01*
X169638035Y-34767857D01*
X169680892Y-34810714D01*
X169723750Y-34896428D01*
X169723750Y-35110714D01*
X169680892Y-35196428D01*
X169638035Y-35239285D01*
X169552321Y-35282142D01*
X169338035Y-35282142D01*
X169252321Y-35239285D01*
X169209464Y-35196428D01*
X170238035Y-34767857D02*
X170152321Y-34725000D01*
X170109464Y-34682142D01*
X170066607Y-34596428D01*
X170066607Y-34553571D01*
X170109464Y-34467857D01*
X170152321Y-34425000D01*
X170238035Y-34382142D01*
X170409464Y-34382142D01*
X170495178Y-34425000D01*
X170538035Y-34467857D01*
X170580892Y-34553571D01*
X170580892Y-34596428D01*
X170538035Y-34682142D01*
X170495178Y-34725000D01*
X170409464Y-34767857D01*
X170238035Y-34767857D01*
X170152321Y-34810714D01*
X170109464Y-34853571D01*
X170066607Y-34939285D01*
X170066607Y-35110714D01*
X170109464Y-35196428D01*
X170152321Y-35239285D01*
X170238035Y-35282142D01*
X170409464Y-35282142D01*
X170495178Y-35239285D01*
X170538035Y-35196428D01*
X170580892Y-35110714D01*
X170580892Y-34939285D01*
X170538035Y-34853571D01*
X170495178Y-34810714D01*
X170409464Y-34767857D01*
X170966607Y-35196428D02*
X171009464Y-35239285D01*
X170966607Y-35282142D01*
X170923750Y-35239285D01*
X170966607Y-35196428D01*
X170966607Y-35282142D01*
X170966607Y-34725000D02*
X171009464Y-34767857D01*
X170966607Y-34810714D01*
X170923750Y-34767857D01*
X170966607Y-34725000D01*
X170966607Y-34810714D01*
X172080892Y-34939285D02*
X172766607Y-34939285D01*
X172423750Y-35282142D02*
X172423750Y-34596428D01*
X173666607Y-35282142D02*
X173152321Y-35282142D01*
X173409464Y-35282142D02*
X173409464Y-34382142D01*
X173323750Y-34510714D01*
X173238035Y-34596428D01*
X173152321Y-34639285D01*
X174052321Y-35196428D02*
X174095178Y-35239285D01*
X174052321Y-35282142D01*
X174009464Y-35239285D01*
X174052321Y-35196428D01*
X174052321Y-35282142D01*
X174866607Y-34682142D02*
X174866607Y-35282142D01*
X174652321Y-34339285D02*
X174438035Y-34982142D01*
X174995178Y-34982142D01*
X175338035Y-35282142D02*
X175338035Y-34682142D01*
X175338035Y-34767857D02*
X175380892Y-34725000D01*
X175466607Y-34682142D01*
X175595178Y-34682142D01*
X175680892Y-34725000D01*
X175723750Y-34810714D01*
X175723750Y-35282142D01*
X175723750Y-34810714D02*
X175766607Y-34725000D01*
X175852321Y-34682142D01*
X175980892Y-34682142D01*
X176066607Y-34725000D01*
X176109464Y-34810714D01*
X176109464Y-35282142D01*
X176538035Y-35282142D02*
X176538035Y-34682142D01*
X176538035Y-34767857D02*
X176580892Y-34725000D01*
X176666607Y-34682142D01*
X176795178Y-34682142D01*
X176880892Y-34725000D01*
X176923750Y-34810714D01*
X176923750Y-35282142D01*
X176923750Y-34810714D02*
X176966607Y-34725000D01*
X177052321Y-34682142D01*
X177180892Y-34682142D01*
X177266607Y-34725000D01*
X177309464Y-34810714D01*
X177309464Y-35282142D01*
D10*
X126276250Y-39375000D02*
X126276250Y-35232500D01*
X128026250Y-39375000D02*
X126276250Y-39375000D01*
X124026250Y-35232500D02*
X126276250Y-35232500D01*
X128026250Y-37875000D02*
X127026250Y-37875000D01*
X128026250Y-31375000D02*
X126526250Y-31375000D01*
X200226250Y-35552540D02*
X202226250Y-35552540D01*
D11*
X204538035Y-35310714D02*
X204838035Y-35310714D01*
X204966607Y-35782142D02*
X204538035Y-35782142D01*
X204538035Y-34882142D01*
X204966607Y-34882142D01*
X205352321Y-35782142D02*
X205352321Y-35182142D01*
X205352321Y-35353571D02*
X205395178Y-35267857D01*
X205438035Y-35225000D01*
X205523750Y-35182142D01*
X205609464Y-35182142D01*
X206295178Y-35182142D02*
X206295178Y-35910714D01*
X206252321Y-35996428D01*
X206209464Y-36039285D01*
X206123750Y-36082142D01*
X205995178Y-36082142D01*
X205909464Y-36039285D01*
X206295178Y-35739285D02*
X206209464Y-35782142D01*
X206038035Y-35782142D01*
X205952321Y-35739285D01*
X205909464Y-35696428D01*
X205866607Y-35610714D01*
X205866607Y-35353571D01*
X205909464Y-35267857D01*
X205952321Y-35225000D01*
X206038035Y-35182142D01*
X206209464Y-35182142D01*
X206295178Y-35225000D01*
X206852321Y-35782142D02*
X206766607Y-35739285D01*
X206723750Y-35696428D01*
X206680892Y-35610714D01*
X206680892Y-35353571D01*
X206723750Y-35267857D01*
X206766607Y-35225000D01*
X206852321Y-35182142D01*
X206980892Y-35182142D01*
X207066607Y-35225000D01*
X207109464Y-35267857D01*
X207152321Y-35353571D01*
X207152321Y-35610714D01*
X207109464Y-35696428D01*
X207066607Y-35739285D01*
X206980892Y-35782142D01*
X206852321Y-35782142D01*
X207538035Y-35782142D02*
X207538035Y-34882142D01*
X207752321Y-34882142D01*
X207880892Y-34925000D01*
X207966607Y-35010714D01*
X208009464Y-35096428D01*
X208052321Y-35267857D01*
X208052321Y-35396428D01*
X208009464Y-35567857D01*
X207966607Y-35653571D01*
X207880892Y-35739285D01*
X207752321Y-35782142D01*
X207538035Y-35782142D01*
X208566607Y-35782142D02*
X208480892Y-35739285D01*
X208438035Y-35696428D01*
X208395178Y-35610714D01*
X208395178Y-35353571D01*
X208438035Y-35267857D01*
X208480892Y-35225000D01*
X208566607Y-35182142D01*
X208695178Y-35182142D01*
X208780892Y-35225000D01*
X208823750Y-35267857D01*
X208866607Y-35353571D01*
X208866607Y-35610714D01*
X208823750Y-35696428D01*
X208780892Y-35739285D01*
X208695178Y-35782142D01*
X208566607Y-35782142D01*
X209166607Y-35782142D02*
X209638035Y-35182142D01*
X209166607Y-35182142D02*
X209638035Y-35782142D01*
X209980892Y-35696428D02*
X210023750Y-35739285D01*
X209980892Y-35782142D01*
X209938035Y-35739285D01*
X209980892Y-35696428D01*
X209980892Y-35782142D01*
X209980892Y-35225000D02*
X210023750Y-35267857D01*
X209980892Y-35310714D01*
X209938035Y-35267857D01*
X209980892Y-35225000D01*
X209980892Y-35310714D01*
X211095178Y-35439285D02*
X211780892Y-35439285D01*
X212680892Y-35782142D02*
X212166607Y-35782142D01*
X212423750Y-35782142D02*
X212423750Y-34882142D01*
X212338035Y-35010714D01*
X212252321Y-35096428D01*
X212166607Y-35139285D01*
X213709464Y-34839285D02*
X212938035Y-35996428D01*
X214395178Y-34882142D02*
X214223750Y-34882142D01*
X214138035Y-34925000D01*
X214095178Y-34967857D01*
X214009464Y-35096428D01*
X213966607Y-35267857D01*
X213966607Y-35610714D01*
X214009464Y-35696428D01*
X214052321Y-35739285D01*
X214138035Y-35782142D01*
X214309464Y-35782142D01*
X214395178Y-35739285D01*
X214438035Y-35696428D01*
X214480892Y-35610714D01*
X214480892Y-35396428D01*
X214438035Y-35310714D01*
X214395178Y-35267857D01*
X214309464Y-35225000D01*
X214138035Y-35225000D01*
X214052321Y-35267857D01*
X214009464Y-35310714D01*
X213966607Y-35396428D01*
X215252321Y-35182142D02*
X215252321Y-35782142D01*
X214866607Y-35182142D02*
X214866607Y-35653571D01*
X214909464Y-35739285D01*
X214995178Y-35782142D01*
X215123750Y-35782142D01*
X215209464Y-35739285D01*
X215252321Y-35696428D01*
D10*
X186176250Y-36875000D02*
X185176250Y-36875000D01*
D11*
X186988035Y-36810714D02*
X187288035Y-36810714D01*
X187416607Y-37282142D02*
X186988035Y-37282142D01*
X186988035Y-36382142D01*
X187416607Y-36382142D01*
X187802321Y-37282142D02*
X187802321Y-36682142D01*
X187802321Y-36853571D02*
X187845178Y-36767857D01*
X187888035Y-36725000D01*
X187973750Y-36682142D01*
X188059464Y-36682142D01*
X188745178Y-36682142D02*
X188745178Y-37410714D01*
X188702321Y-37496428D01*
X188659464Y-37539285D01*
X188573750Y-37582142D01*
X188445178Y-37582142D01*
X188359464Y-37539285D01*
X188745178Y-37239285D02*
X188659464Y-37282142D01*
X188488035Y-37282142D01*
X188402321Y-37239285D01*
X188359464Y-37196428D01*
X188316607Y-37110714D01*
X188316607Y-36853571D01*
X188359464Y-36767857D01*
X188402321Y-36725000D01*
X188488035Y-36682142D01*
X188659464Y-36682142D01*
X188745178Y-36725000D01*
X189302321Y-37282142D02*
X189216607Y-37239285D01*
X189173750Y-37196428D01*
X189130892Y-37110714D01*
X189130892Y-36853571D01*
X189173750Y-36767857D01*
X189216607Y-36725000D01*
X189302321Y-36682142D01*
X189430892Y-36682142D01*
X189516607Y-36725000D01*
X189559464Y-36767857D01*
X189602321Y-36853571D01*
X189602321Y-37110714D01*
X189559464Y-37196428D01*
X189516607Y-37239285D01*
X189430892Y-37282142D01*
X189302321Y-37282142D01*
X189988035Y-37282142D02*
X189988035Y-36382142D01*
X190202321Y-36382142D01*
X190330892Y-36425000D01*
X190416607Y-36510714D01*
X190459464Y-36596428D01*
X190502321Y-36767857D01*
X190502321Y-36896428D01*
X190459464Y-37067857D01*
X190416607Y-37153571D01*
X190330892Y-37239285D01*
X190202321Y-37282142D01*
X189988035Y-37282142D01*
X191016607Y-37282142D02*
X190930892Y-37239285D01*
X190888035Y-37196428D01*
X190845178Y-37110714D01*
X190845178Y-36853571D01*
X190888035Y-36767857D01*
X190930892Y-36725000D01*
X191016607Y-36682142D01*
X191145178Y-36682142D01*
X191230892Y-36725000D01*
X191273750Y-36767857D01*
X191316607Y-36853571D01*
X191316607Y-37110714D01*
X191273750Y-37196428D01*
X191230892Y-37239285D01*
X191145178Y-37282142D01*
X191016607Y-37282142D01*
X191616607Y-37282142D02*
X192088035Y-36682142D01*
X191616607Y-36682142D02*
X192088035Y-37282142D01*
X192430892Y-37196428D02*
X192473750Y-37239285D01*
X192430892Y-37282142D01*
X192388035Y-37239285D01*
X192430892Y-37196428D01*
X192430892Y-37282142D01*
X192430892Y-36725000D02*
X192473750Y-36767857D01*
X192430892Y-36810714D01*
X192388035Y-36767857D01*
X192430892Y-36725000D01*
X192430892Y-36810714D01*
X193545178Y-36939285D02*
X194230892Y-36939285D01*
X193888035Y-37282142D02*
X193888035Y-36596428D01*
X194830892Y-36382142D02*
X194916607Y-36382142D01*
X195002321Y-36425000D01*
X195045178Y-36467857D01*
X195088035Y-36553571D01*
X195130892Y-36725000D01*
X195130892Y-36939285D01*
X195088035Y-37110714D01*
X195045178Y-37196428D01*
X195002321Y-37239285D01*
X194916607Y-37282142D01*
X194830892Y-37282142D01*
X194745178Y-37239285D01*
X194702321Y-37196428D01*
X194659464Y-37110714D01*
X194616607Y-36939285D01*
X194616607Y-36725000D01*
X194659464Y-36553571D01*
X194702321Y-36467857D01*
X194745178Y-36425000D01*
X194830892Y-36382142D01*
X195902321Y-36682142D02*
X195902321Y-37282142D01*
X195516607Y-36682142D02*
X195516607Y-37153571D01*
X195559464Y-37239285D01*
X195645178Y-37282142D01*
X195773750Y-37282142D01*
X195859464Y-37239285D01*
X195902321Y-37196428D01*
D10*
X166126250Y-33375000D02*
X164626250Y-33375000D01*
D11*
X166938035Y-33310714D02*
X167238035Y-33310714D01*
X167366607Y-33782142D02*
X166938035Y-33782142D01*
X166938035Y-32882142D01*
X167366607Y-32882142D01*
X167752321Y-33782142D02*
X167752321Y-33182142D01*
X167752321Y-33353571D02*
X167795178Y-33267857D01*
X167838035Y-33225000D01*
X167923750Y-33182142D01*
X168009464Y-33182142D01*
X168695178Y-33182142D02*
X168695178Y-33910714D01*
X168652321Y-33996428D01*
X168609464Y-34039285D01*
X168523750Y-34082142D01*
X168395178Y-34082142D01*
X168309464Y-34039285D01*
X168695178Y-33739285D02*
X168609464Y-33782142D01*
X168438035Y-33782142D01*
X168352321Y-33739285D01*
X168309464Y-33696428D01*
X168266607Y-33610714D01*
X168266607Y-33353571D01*
X168309464Y-33267857D01*
X168352321Y-33225000D01*
X168438035Y-33182142D01*
X168609464Y-33182142D01*
X168695178Y-33225000D01*
X169252321Y-33782142D02*
X169166607Y-33739285D01*
X169123750Y-33696428D01*
X169080892Y-33610714D01*
X169080892Y-33353571D01*
X169123750Y-33267857D01*
X169166607Y-33225000D01*
X169252321Y-33182142D01*
X169380892Y-33182142D01*
X169466607Y-33225000D01*
X169509464Y-33267857D01*
X169552321Y-33353571D01*
X169552321Y-33610714D01*
X169509464Y-33696428D01*
X169466607Y-33739285D01*
X169380892Y-33782142D01*
X169252321Y-33782142D01*
X169938035Y-33782142D02*
X169938035Y-32882142D01*
X170152321Y-32882142D01*
X170280892Y-32925000D01*
X170366607Y-33010714D01*
X170409464Y-33096428D01*
X170452321Y-33267857D01*
X170452321Y-33396428D01*
X170409464Y-33567857D01*
X170366607Y-33653571D01*
X170280892Y-33739285D01*
X170152321Y-33782142D01*
X169938035Y-33782142D01*
X170966607Y-33782142D02*
X170880892Y-33739285D01*
X170838035Y-33696428D01*
X170795178Y-33610714D01*
X170795178Y-33353571D01*
X170838035Y-33267857D01*
X170880892Y-33225000D01*
X170966607Y-33182142D01*
X171095178Y-33182142D01*
X171180892Y-33225000D01*
X171223750Y-33267857D01*
X171266607Y-33353571D01*
X171266607Y-33610714D01*
X171223750Y-33696428D01*
X171180892Y-33739285D01*
X171095178Y-33782142D01*
X170966607Y-33782142D01*
X171566607Y-33782142D02*
X172038035Y-33182142D01*
X171566607Y-33182142D02*
X172038035Y-33782142D01*
X172380892Y-33696428D02*
X172423750Y-33739285D01*
X172380892Y-33782142D01*
X172338035Y-33739285D01*
X172380892Y-33696428D01*
X172380892Y-33782142D01*
X172380892Y-33225000D02*
X172423750Y-33267857D01*
X172380892Y-33310714D01*
X172338035Y-33267857D01*
X172380892Y-33225000D01*
X172380892Y-33310714D01*
X173495178Y-33439285D02*
X174180892Y-33439285D01*
X173838035Y-33782142D02*
X173838035Y-33096428D01*
X175080892Y-33782142D02*
X174566607Y-33782142D01*
X174823750Y-33782142D02*
X174823750Y-32882142D01*
X174738035Y-33010714D01*
X174652321Y-33096428D01*
X174566607Y-33139285D01*
X176109464Y-32839285D02*
X175338035Y-33996428D01*
X176880892Y-33782142D02*
X176366607Y-33782142D01*
X176623750Y-33782142D02*
X176623750Y-32882142D01*
X176538035Y-33010714D01*
X176452321Y-33096428D01*
X176366607Y-33139285D01*
X177223750Y-32967857D02*
X177266607Y-32925000D01*
X177352321Y-32882142D01*
X177566607Y-32882142D01*
X177652321Y-32925000D01*
X177695178Y-32967857D01*
X177738035Y-33053571D01*
X177738035Y-33139285D01*
X177695178Y-33267857D01*
X177180892Y-33782142D01*
X177738035Y-33782142D01*
X178509464Y-33182142D02*
X178509464Y-33782142D01*
X178123750Y-33182142D02*
X178123750Y-33653571D01*
X178166607Y-33739285D01*
X178252321Y-33782142D01*
X178380892Y-33782142D01*
X178466607Y-33739285D01*
X178509464Y-33696428D01*
D10*
X164626250Y-30775000D02*
X164626250Y-33375000D01*
X162126250Y-30775000D02*
X164626250Y-30775000D01*
X126026250Y-27875000D02*
X128026250Y-27875000D01*
X126026250Y-33645000D02*
X126026250Y-27875000D01*
X124026250Y-33645000D02*
X126026250Y-33645000D01*
X200226250Y-37137500D02*
X203226250Y-37137500D01*
D11*
X205052321Y-37196428D02*
X205009464Y-37239285D01*
X204880892Y-37282142D01*
X204795178Y-37282142D01*
X204666607Y-37239285D01*
X204580892Y-37153571D01*
X204538035Y-37067857D01*
X204495178Y-36896428D01*
X204495178Y-36767857D01*
X204538035Y-36596428D01*
X204580892Y-36510714D01*
X204666607Y-36425000D01*
X204795178Y-36382142D01*
X204880892Y-36382142D01*
X205009464Y-36425000D01*
X205052321Y-36467857D01*
X205566607Y-37282142D02*
X205480892Y-37239285D01*
X205438035Y-37196428D01*
X205395178Y-37110714D01*
X205395178Y-36853571D01*
X205438035Y-36767857D01*
X205480892Y-36725000D01*
X205566607Y-36682142D01*
X205695178Y-36682142D01*
X205780892Y-36725000D01*
X205823750Y-36767857D01*
X205866607Y-36853571D01*
X205866607Y-37110714D01*
X205823750Y-37196428D01*
X205780892Y-37239285D01*
X205695178Y-37282142D01*
X205566607Y-37282142D01*
X206252321Y-37282142D02*
X206252321Y-36682142D01*
X206252321Y-36853571D02*
X206295178Y-36767857D01*
X206338035Y-36725000D01*
X206423750Y-36682142D01*
X206509464Y-36682142D01*
X206809464Y-36682142D02*
X206809464Y-37282142D01*
X206809464Y-36767857D02*
X206852321Y-36725000D01*
X206938035Y-36682142D01*
X207066607Y-36682142D01*
X207152321Y-36725000D01*
X207195178Y-36810714D01*
X207195178Y-37282142D01*
X207966607Y-37239285D02*
X207880892Y-37282142D01*
X207709464Y-37282142D01*
X207623750Y-37239285D01*
X207580892Y-37153571D01*
X207580892Y-36810714D01*
X207623750Y-36725000D01*
X207709464Y-36682142D01*
X207880892Y-36682142D01*
X207966607Y-36725000D01*
X208009464Y-36810714D01*
X208009464Y-36896428D01*
X207580892Y-36982142D01*
X208395178Y-37196428D02*
X208438035Y-37239285D01*
X208395178Y-37282142D01*
X208352321Y-37239285D01*
X208395178Y-37196428D01*
X208395178Y-37282142D01*
X208395178Y-36725000D02*
X208438035Y-36767857D01*
X208395178Y-36810714D01*
X208352321Y-36767857D01*
X208395178Y-36725000D01*
X208395178Y-36810714D01*
X209509464Y-36939285D02*
X210195178Y-36939285D01*
X211095178Y-37282142D02*
X210580892Y-37282142D01*
X210838035Y-37282142D02*
X210838035Y-36382142D01*
X210752321Y-36510714D01*
X210666607Y-36596428D01*
X210580892Y-36639285D01*
X212123750Y-36339285D02*
X211352321Y-37496428D01*
X212809464Y-36682142D02*
X212809464Y-37282142D01*
X212595178Y-36339285D02*
X212380892Y-36982142D01*
X212938035Y-36982142D01*
X213666607Y-36682142D02*
X213666607Y-37282142D01*
X213280892Y-36682142D02*
X213280892Y-37153571D01*
X213323750Y-37239285D01*
X213409464Y-37282142D01*
X213538035Y-37282142D01*
X213623750Y-37239285D01*
X213666607Y-37196428D01*
D10*
X165126250Y-31875000D02*
X165126250Y-29993750D01*
X162126250Y-29993750D02*
X165126250Y-29993750D01*
X166026250Y-31875000D02*
X165126250Y-31875000D01*
D11*
X167352321Y-32196428D02*
X167309464Y-32239285D01*
X167180892Y-32282142D01*
X167095178Y-32282142D01*
X166966607Y-32239285D01*
X166880892Y-32153571D01*
X166838035Y-32067857D01*
X166795178Y-31896428D01*
X166795178Y-31767857D01*
X166838035Y-31596428D01*
X166880892Y-31510714D01*
X166966607Y-31425000D01*
X167095178Y-31382142D01*
X167180892Y-31382142D01*
X167309464Y-31425000D01*
X167352321Y-31467857D01*
X167866607Y-32282142D02*
X167780892Y-32239285D01*
X167738035Y-32196428D01*
X167695178Y-32110714D01*
X167695178Y-31853571D01*
X167738035Y-31767857D01*
X167780892Y-31725000D01*
X167866607Y-31682142D01*
X167995178Y-31682142D01*
X168080892Y-31725000D01*
X168123750Y-31767857D01*
X168166607Y-31853571D01*
X168166607Y-32110714D01*
X168123750Y-32196428D01*
X168080892Y-32239285D01*
X167995178Y-32282142D01*
X167866607Y-32282142D01*
X168552321Y-32282142D02*
X168552321Y-31682142D01*
X168552321Y-31853571D02*
X168595178Y-31767857D01*
X168638035Y-31725000D01*
X168723750Y-31682142D01*
X168809464Y-31682142D01*
X169109464Y-31682142D02*
X169109464Y-32282142D01*
X169109464Y-31767857D02*
X169152321Y-31725000D01*
X169238035Y-31682142D01*
X169366607Y-31682142D01*
X169452321Y-31725000D01*
X169495178Y-31810714D01*
X169495178Y-32282142D01*
X170266607Y-32239285D02*
X170180892Y-32282142D01*
X170009464Y-32282142D01*
X169923750Y-32239285D01*
X169880892Y-32153571D01*
X169880892Y-31810714D01*
X169923750Y-31725000D01*
X170009464Y-31682142D01*
X170180892Y-31682142D01*
X170266607Y-31725000D01*
X170309464Y-31810714D01*
X170309464Y-31896428D01*
X169880892Y-31982142D01*
X170695178Y-32196428D02*
X170738035Y-32239285D01*
X170695178Y-32282142D01*
X170652321Y-32239285D01*
X170695178Y-32196428D01*
X170695178Y-32282142D01*
X170695178Y-31725000D02*
X170738035Y-31767857D01*
X170695178Y-31810714D01*
X170652321Y-31767857D01*
X170695178Y-31725000D01*
X170695178Y-31810714D01*
X171809464Y-31939285D02*
X172495178Y-31939285D01*
X172152321Y-32282142D02*
X172152321Y-31596428D01*
X173395178Y-32282142D02*
X172880892Y-32282142D01*
X173138035Y-32282142D02*
X173138035Y-31382142D01*
X173052321Y-31510714D01*
X172966607Y-31596428D01*
X172880892Y-31639285D01*
X174423750Y-31339285D02*
X173652321Y-32496428D01*
X174852321Y-31767857D02*
X174766607Y-31725000D01*
X174723750Y-31682142D01*
X174680892Y-31596428D01*
X174680892Y-31553571D01*
X174723750Y-31467857D01*
X174766607Y-31425000D01*
X174852321Y-31382142D01*
X175023750Y-31382142D01*
X175109464Y-31425000D01*
X175152321Y-31467857D01*
X175195178Y-31553571D01*
X175195178Y-31596428D01*
X175152321Y-31682142D01*
X175109464Y-31725000D01*
X175023750Y-31767857D01*
X174852321Y-31767857D01*
X174766607Y-31810714D01*
X174723750Y-31853571D01*
X174680892Y-31939285D01*
X174680892Y-32110714D01*
X174723750Y-32196428D01*
X174766607Y-32239285D01*
X174852321Y-32282142D01*
X175023750Y-32282142D01*
X175109464Y-32239285D01*
X175152321Y-32196428D01*
X175195178Y-32110714D01*
X175195178Y-31939285D01*
X175152321Y-31853571D01*
X175109464Y-31810714D01*
X175023750Y-31767857D01*
X175966607Y-31682142D02*
X175966607Y-32282142D01*
X175580892Y-31682142D02*
X175580892Y-32153571D01*
X175623750Y-32239285D01*
X175709464Y-32282142D01*
X175838035Y-32282142D01*
X175923750Y-32239285D01*
X175966607Y-32196428D01*
D10*
X186176250Y-35375000D02*
X185176250Y-35375000D01*
D11*
X187502321Y-34196428D02*
X187459464Y-34239285D01*
X187330892Y-34282142D01*
X187245178Y-34282142D01*
X187116607Y-34239285D01*
X187030892Y-34153571D01*
X186988035Y-34067857D01*
X186945178Y-33896428D01*
X186945178Y-33767857D01*
X186988035Y-33596428D01*
X187030892Y-33510714D01*
X187116607Y-33425000D01*
X187245178Y-33382142D01*
X187330892Y-33382142D01*
X187459464Y-33425000D01*
X187502321Y-33467857D01*
X188016607Y-34282142D02*
X187930892Y-34239285D01*
X187888035Y-34196428D01*
X187845178Y-34110714D01*
X187845178Y-33853571D01*
X187888035Y-33767857D01*
X187930892Y-33725000D01*
X188016607Y-33682142D01*
X188145178Y-33682142D01*
X188230892Y-33725000D01*
X188273750Y-33767857D01*
X188316607Y-33853571D01*
X188316607Y-34110714D01*
X188273750Y-34196428D01*
X188230892Y-34239285D01*
X188145178Y-34282142D01*
X188016607Y-34282142D01*
X188702321Y-34282142D02*
X188702321Y-33682142D01*
X188702321Y-33853571D02*
X188745178Y-33767857D01*
X188788035Y-33725000D01*
X188873750Y-33682142D01*
X188959464Y-33682142D01*
X189259464Y-33682142D02*
X189259464Y-34282142D01*
X189259464Y-33767857D02*
X189302321Y-33725000D01*
X189388035Y-33682142D01*
X189516607Y-33682142D01*
X189602321Y-33725000D01*
X189645178Y-33810714D01*
X189645178Y-34282142D01*
X190416607Y-34239285D02*
X190330892Y-34282142D01*
X190159464Y-34282142D01*
X190073750Y-34239285D01*
X190030892Y-34153571D01*
X190030892Y-33810714D01*
X190073750Y-33725000D01*
X190159464Y-33682142D01*
X190330892Y-33682142D01*
X190416607Y-33725000D01*
X190459464Y-33810714D01*
X190459464Y-33896428D01*
X190030892Y-33982142D01*
X190845178Y-34196428D02*
X190888035Y-34239285D01*
X190845178Y-34282142D01*
X190802321Y-34239285D01*
X190845178Y-34196428D01*
X190845178Y-34282142D01*
X190845178Y-33725000D02*
X190888035Y-33767857D01*
X190845178Y-33810714D01*
X190802321Y-33767857D01*
X190845178Y-33725000D01*
X190845178Y-33810714D01*
X191959464Y-33939285D02*
X192645178Y-33939285D01*
X192302321Y-34282142D02*
X192302321Y-33596428D01*
X193245178Y-33382142D02*
X193330892Y-33382142D01*
X193416607Y-33425000D01*
X193459464Y-33467857D01*
X193502321Y-33553571D01*
X193545178Y-33725000D01*
X193545178Y-33939285D01*
X193502321Y-34110714D01*
X193459464Y-34196428D01*
X193416607Y-34239285D01*
X193330892Y-34282142D01*
X193245178Y-34282142D01*
X193159464Y-34239285D01*
X193116607Y-34196428D01*
X193073750Y-34110714D01*
X193030892Y-33939285D01*
X193030892Y-33725000D01*
X193073750Y-33553571D01*
X193116607Y-33467857D01*
X193159464Y-33425000D01*
X193245178Y-33382142D01*
X194316607Y-33682142D02*
X194316607Y-34282142D01*
X193930892Y-33682142D02*
X193930892Y-34153571D01*
X193973750Y-34239285D01*
X194059464Y-34282142D01*
X194188035Y-34282142D01*
X194273750Y-34239285D01*
X194316607Y-34196428D01*
D10*
X126526250Y-31375000D02*
X126526250Y-34756250D01*
X128026250Y-33356251D02*
X126526250Y-33356251D01*
X124026250Y-34756250D02*
X126526250Y-34756250D01*
X127026250Y-37875000D02*
X127026250Y-34875000D01*
X128026250Y-36375000D02*
X127026250Y-36375000D01*
D11*
X204495178Y-40239285D02*
X204623750Y-40282142D01*
X204838035Y-40282142D01*
X204923750Y-40239285D01*
X204966607Y-40196428D01*
X205009464Y-40110714D01*
X205009464Y-40025000D01*
X204966607Y-39939285D01*
X204923750Y-39896428D01*
X204838035Y-39853571D01*
X204666607Y-39810714D01*
X204580892Y-39767857D01*
X204538035Y-39725000D01*
X204495178Y-39639285D01*
X204495178Y-39553571D01*
X204538035Y-39467857D01*
X204580892Y-39425000D01*
X204666607Y-39382142D01*
X204880892Y-39382142D01*
X205009464Y-39425000D01*
X205523750Y-40282142D02*
X205438035Y-40239285D01*
X205395178Y-40196428D01*
X205352321Y-40110714D01*
X205352321Y-39853571D01*
X205395178Y-39767857D01*
X205438035Y-39725000D01*
X205523750Y-39682142D01*
X205652321Y-39682142D01*
X205738035Y-39725000D01*
X205780892Y-39767857D01*
X205823750Y-39853571D01*
X205823750Y-40110714D01*
X205780892Y-40196428D01*
X205738035Y-40239285D01*
X205652321Y-40282142D01*
X205523750Y-40282142D01*
X206080892Y-39682142D02*
X206423750Y-39682142D01*
X206209464Y-40282142D02*
X206209464Y-39510714D01*
X206252321Y-39425000D01*
X206338035Y-39382142D01*
X206423750Y-39382142D01*
X206852321Y-40282142D02*
X206766607Y-40239285D01*
X206723750Y-40153571D01*
X206723750Y-39382142D01*
X207538035Y-40239285D02*
X207452321Y-40282142D01*
X207280892Y-40282142D01*
X207195178Y-40239285D01*
X207152321Y-40153571D01*
X207152321Y-39810714D01*
X207195178Y-39725000D01*
X207280892Y-39682142D01*
X207452321Y-39682142D01*
X207538035Y-39725000D01*
X207580892Y-39810714D01*
X207580892Y-39896428D01*
X207152321Y-39982142D01*
X207966607Y-40196428D02*
X208009464Y-40239285D01*
X207966607Y-40282142D01*
X207923750Y-40239285D01*
X207966607Y-40196428D01*
X207966607Y-40282142D01*
X207966607Y-39725000D02*
X208009464Y-39767857D01*
X207966607Y-39810714D01*
X207923750Y-39767857D01*
X207966607Y-39725000D01*
X207966607Y-39810714D01*
X209080892Y-39939285D02*
X209766607Y-39939285D01*
X210580892Y-39682142D02*
X210580892Y-40282142D01*
X210366607Y-39339285D02*
X210152321Y-39982142D01*
X210709464Y-39982142D01*
X211052321Y-40196428D02*
X211095178Y-40239285D01*
X211052321Y-40282142D01*
X211009464Y-40239285D01*
X211052321Y-40196428D01*
X211052321Y-40282142D01*
X211523750Y-40282142D02*
X211695178Y-40282142D01*
X211780892Y-40239285D01*
X211823750Y-40196428D01*
X211909464Y-40067857D01*
X211952321Y-39896428D01*
X211952321Y-39553571D01*
X211909464Y-39467857D01*
X211866607Y-39425000D01*
X211780892Y-39382142D01*
X211609464Y-39382142D01*
X211523750Y-39425000D01*
X211480892Y-39467857D01*
X211438035Y-39553571D01*
X211438035Y-39767857D01*
X211480892Y-39853571D01*
X211523750Y-39896428D01*
X211609464Y-39939285D01*
X211780892Y-39939285D01*
X211866607Y-39896428D01*
X211909464Y-39853571D01*
X211952321Y-39767857D01*
X212338035Y-40282142D02*
X212338035Y-39682142D01*
X212338035Y-39767857D02*
X212380892Y-39725000D01*
X212466607Y-39682142D01*
X212595178Y-39682142D01*
X212680892Y-39725000D01*
X212723750Y-39810714D01*
X212723750Y-40282142D01*
X212723750Y-39810714D02*
X212766607Y-39725000D01*
X212852321Y-39682142D01*
X212980892Y-39682142D01*
X213066607Y-39725000D01*
X213109464Y-39810714D01*
X213109464Y-40282142D01*
X213538035Y-40282142D02*
X213538035Y-39682142D01*
X213538035Y-39767857D02*
X213580892Y-39725000D01*
X213666607Y-39682142D01*
X213795178Y-39682142D01*
X213880892Y-39725000D01*
X213923750Y-39810714D01*
X213923750Y-40282142D01*
X213923750Y-39810714D02*
X213966607Y-39725000D01*
X214052321Y-39682142D01*
X214180892Y-39682142D01*
X214266607Y-39725000D01*
X214309464Y-39810714D01*
X214309464Y-40282142D01*
D10*
X185176250Y-36875000D02*
X185176250Y-32375000D01*
X186176250Y-33875000D02*
X185176250Y-33875000D01*
D11*
X186945178Y-32739285D02*
X187073750Y-32782142D01*
X187288035Y-32782142D01*
X187373750Y-32739285D01*
X187416607Y-32696428D01*
X187459464Y-32610714D01*
X187459464Y-32525000D01*
X187416607Y-32439285D01*
X187373750Y-32396428D01*
X187288035Y-32353571D01*
X187116607Y-32310714D01*
X187030892Y-32267857D01*
X186988035Y-32225000D01*
X186945178Y-32139285D01*
X186945178Y-32053571D01*
X186988035Y-31967857D01*
X187030892Y-31925000D01*
X187116607Y-31882142D01*
X187330892Y-31882142D01*
X187459464Y-31925000D01*
X187973750Y-32782142D02*
X187888035Y-32739285D01*
X187845178Y-32696428D01*
X187802321Y-32610714D01*
X187802321Y-32353571D01*
X187845178Y-32267857D01*
X187888035Y-32225000D01*
X187973750Y-32182142D01*
X188102321Y-32182142D01*
X188188035Y-32225000D01*
X188230892Y-32267857D01*
X188273750Y-32353571D01*
X188273750Y-32610714D01*
X188230892Y-32696428D01*
X188188035Y-32739285D01*
X188102321Y-32782142D01*
X187973750Y-32782142D01*
X188530892Y-32182142D02*
X188873750Y-32182142D01*
X188659464Y-32782142D02*
X188659464Y-32010714D01*
X188702321Y-31925000D01*
X188788035Y-31882142D01*
X188873750Y-31882142D01*
X189302321Y-32782142D02*
X189216607Y-32739285D01*
X189173750Y-32653571D01*
X189173750Y-31882142D01*
X189988035Y-32739285D02*
X189902321Y-32782142D01*
X189730892Y-32782142D01*
X189645178Y-32739285D01*
X189602321Y-32653571D01*
X189602321Y-32310714D01*
X189645178Y-32225000D01*
X189730892Y-32182142D01*
X189902321Y-32182142D01*
X189988035Y-32225000D01*
X190030892Y-32310714D01*
X190030892Y-32396428D01*
X189602321Y-32482142D01*
X190416607Y-32696428D02*
X190459464Y-32739285D01*
X190416607Y-32782142D01*
X190373750Y-32739285D01*
X190416607Y-32696428D01*
X190416607Y-32782142D01*
X190416607Y-32225000D02*
X190459464Y-32267857D01*
X190416607Y-32310714D01*
X190373750Y-32267857D01*
X190416607Y-32225000D01*
X190416607Y-32310714D01*
X191530892Y-32439285D02*
X192216607Y-32439285D01*
X191873750Y-32782142D02*
X191873750Y-32096428D01*
X192816607Y-31882142D02*
X192902321Y-31882142D01*
X192988035Y-31925000D01*
X193030892Y-31967857D01*
X193073750Y-32053571D01*
X193116607Y-32225000D01*
X193116607Y-32439285D01*
X193073750Y-32610714D01*
X193030892Y-32696428D01*
X192988035Y-32739285D01*
X192902321Y-32782142D01*
X192816607Y-32782142D01*
X192730892Y-32739285D01*
X192688035Y-32696428D01*
X192645178Y-32610714D01*
X192602321Y-32439285D01*
X192602321Y-32225000D01*
X192645178Y-32053571D01*
X192688035Y-31967857D01*
X192730892Y-31925000D01*
X192816607Y-31882142D01*
X193502321Y-32782142D02*
X193502321Y-32182142D01*
X193502321Y-32267857D02*
X193545178Y-32225000D01*
X193630892Y-32182142D01*
X193759464Y-32182142D01*
X193845178Y-32225000D01*
X193888035Y-32310714D01*
X193888035Y-32782142D01*
X193888035Y-32310714D02*
X193930892Y-32225000D01*
X194016607Y-32182142D01*
X194145178Y-32182142D01*
X194230892Y-32225000D01*
X194273750Y-32310714D01*
X194273750Y-32782142D01*
X194702321Y-32782142D02*
X194702321Y-32182142D01*
X194702321Y-32267857D02*
X194745178Y-32225000D01*
X194830892Y-32182142D01*
X194959464Y-32182142D01*
X195045178Y-32225000D01*
X195088035Y-32310714D01*
X195088035Y-32782142D01*
X195088035Y-32310714D02*
X195130892Y-32225000D01*
X195216607Y-32182142D01*
X195345178Y-32182142D01*
X195430892Y-32225000D01*
X195473750Y-32310714D01*
X195473750Y-32782142D01*
X166795178Y-30739285D02*
X166923750Y-30782142D01*
X167138035Y-30782142D01*
X167223750Y-30739285D01*
X167266607Y-30696428D01*
X167309464Y-30610714D01*
X167309464Y-30525000D01*
X167266607Y-30439285D01*
X167223750Y-30396428D01*
X167138035Y-30353571D01*
X166966607Y-30310714D01*
X166880892Y-30267857D01*
X166838035Y-30225000D01*
X166795178Y-30139285D01*
X166795178Y-30053571D01*
X166838035Y-29967857D01*
X166880892Y-29925000D01*
X166966607Y-29882142D01*
X167180892Y-29882142D01*
X167309464Y-29925000D01*
X167823750Y-30782142D02*
X167738035Y-30739285D01*
X167695178Y-30696428D01*
X167652321Y-30610714D01*
X167652321Y-30353571D01*
X167695178Y-30267857D01*
X167738035Y-30225000D01*
X167823750Y-30182142D01*
X167952321Y-30182142D01*
X168038035Y-30225000D01*
X168080892Y-30267857D01*
X168123750Y-30353571D01*
X168123750Y-30610714D01*
X168080892Y-30696428D01*
X168038035Y-30739285D01*
X167952321Y-30782142D01*
X167823750Y-30782142D01*
X168380892Y-30182142D02*
X168723750Y-30182142D01*
X168509464Y-30782142D02*
X168509464Y-30010714D01*
X168552321Y-29925000D01*
X168638035Y-29882142D01*
X168723750Y-29882142D01*
X169152321Y-30782142D02*
X169066607Y-30739285D01*
X169023750Y-30653571D01*
X169023750Y-29882142D01*
X169838035Y-30739285D02*
X169752321Y-30782142D01*
X169580892Y-30782142D01*
X169495178Y-30739285D01*
X169452321Y-30653571D01*
X169452321Y-30310714D01*
X169495178Y-30225000D01*
X169580892Y-30182142D01*
X169752321Y-30182142D01*
X169838035Y-30225000D01*
X169880892Y-30310714D01*
X169880892Y-30396428D01*
X169452321Y-30482142D01*
X170266607Y-30696428D02*
X170309464Y-30739285D01*
X170266607Y-30782142D01*
X170223750Y-30739285D01*
X170266607Y-30696428D01*
X170266607Y-30782142D01*
X170266607Y-30225000D02*
X170309464Y-30267857D01*
X170266607Y-30310714D01*
X170223750Y-30267857D01*
X170266607Y-30225000D01*
X170266607Y-30310714D01*
X171380892Y-30439285D02*
X172066607Y-30439285D01*
X171723750Y-30782142D02*
X171723750Y-30096428D01*
X172452321Y-29967857D02*
X172495178Y-29925000D01*
X172580892Y-29882142D01*
X172795178Y-29882142D01*
X172880892Y-29925000D01*
X172923750Y-29967857D01*
X172966607Y-30053571D01*
X172966607Y-30139285D01*
X172923750Y-30267857D01*
X172409464Y-30782142D01*
X172966607Y-30782142D01*
X173352321Y-30696428D02*
X173395178Y-30739285D01*
X173352321Y-30782142D01*
X173309464Y-30739285D01*
X173352321Y-30696428D01*
X173352321Y-30782142D01*
X174209464Y-29882142D02*
X173780892Y-29882142D01*
X173738035Y-30310714D01*
X173780892Y-30267857D01*
X173866607Y-30225000D01*
X174080892Y-30225000D01*
X174166607Y-30267857D01*
X174209464Y-30310714D01*
X174252321Y-30396428D01*
X174252321Y-30610714D01*
X174209464Y-30696428D01*
X174166607Y-30739285D01*
X174080892Y-30782142D01*
X173866607Y-30782142D01*
X173780892Y-30739285D01*
X173738035Y-30696428D01*
X174638035Y-30782142D02*
X174638035Y-30182142D01*
X174638035Y-30267857D02*
X174680892Y-30225000D01*
X174766607Y-30182142D01*
X174895178Y-30182142D01*
X174980892Y-30225000D01*
X175023750Y-30310714D01*
X175023750Y-30782142D01*
X175023750Y-30310714D02*
X175066607Y-30225000D01*
X175152321Y-30182142D01*
X175280892Y-30182142D01*
X175366607Y-30225000D01*
X175409464Y-30310714D01*
X175409464Y-30782142D01*
X175838035Y-30782142D02*
X175838035Y-30182142D01*
X175838035Y-30267857D02*
X175880892Y-30225000D01*
X175966607Y-30182142D01*
X176095178Y-30182142D01*
X176180892Y-30225000D01*
X176223750Y-30310714D01*
X176223750Y-30782142D01*
X176223750Y-30310714D02*
X176266607Y-30225000D01*
X176352321Y-30182142D01*
X176480892Y-30182142D01*
X176566607Y-30225000D01*
X176609464Y-30310714D01*
X176609464Y-30782142D01*
D10*
X200226250Y-37275000D02*
X202226250Y-37275000D01*
X181176250Y-32375000D02*
X186176250Y-32375000D01*
X162126250Y-29875000D02*
X165626250Y-29875000D01*
D11*
X203038035Y-41532142D02*
X203038035Y-40632142D01*
X203552321Y-41532142D02*
X203166607Y-41017857D01*
X203552321Y-40632142D02*
X203038035Y-41146428D01*
X203852321Y-40932142D02*
X204066607Y-41532142D01*
X204280892Y-40932142D02*
X204066607Y-41532142D01*
X203980892Y-41746428D01*
X203938035Y-41789285D01*
X203852321Y-41832142D01*
X204623750Y-41532142D02*
X204623750Y-40932142D01*
X204623750Y-41103571D02*
X204666607Y-41017857D01*
X204709464Y-40975000D01*
X204795178Y-40932142D01*
X204880892Y-40932142D01*
X205180892Y-41532142D02*
X205180892Y-40932142D01*
X205180892Y-40632142D02*
X205138035Y-40675000D01*
X205180892Y-40717857D01*
X205223750Y-40675000D01*
X205180892Y-40632142D01*
X205180892Y-40717857D01*
X205995178Y-41532142D02*
X205995178Y-41060714D01*
X205952321Y-40975000D01*
X205866607Y-40932142D01*
X205695178Y-40932142D01*
X205609464Y-40975000D01*
X205995178Y-41489285D02*
X205909464Y-41532142D01*
X205695178Y-41532142D01*
X205609464Y-41489285D01*
X205566607Y-41403571D01*
X205566607Y-41317857D01*
X205609464Y-41232142D01*
X205695178Y-41189285D01*
X205909464Y-41189285D01*
X205995178Y-41146428D01*
X206423750Y-41446428D02*
X206466607Y-41489285D01*
X206423750Y-41532142D01*
X206380892Y-41489285D01*
X206423750Y-41446428D01*
X206423750Y-41532142D01*
X206423750Y-40975000D02*
X206466607Y-41017857D01*
X206423750Y-41060714D01*
X206380892Y-41017857D01*
X206423750Y-40975000D01*
X206423750Y-41060714D01*
X207538035Y-41189285D02*
X208223750Y-41189285D01*
X209123750Y-41532142D02*
X208609464Y-41532142D01*
X208866607Y-41532142D02*
X208866607Y-40632142D01*
X208780892Y-40760714D01*
X208695178Y-40846428D01*
X208609464Y-40889285D01*
X209980892Y-41532142D02*
X209466607Y-41532142D01*
X209723750Y-41532142D02*
X209723750Y-40632142D01*
X209638035Y-40760714D01*
X209552321Y-40846428D01*
X209466607Y-40889285D01*
X210366607Y-41446428D02*
X210409464Y-41489285D01*
X210366607Y-41532142D01*
X210323750Y-41489285D01*
X210366607Y-41446428D01*
X210366607Y-41532142D01*
X211223750Y-40632142D02*
X210795178Y-40632142D01*
X210752321Y-41060714D01*
X210795178Y-41017857D01*
X210880892Y-40975000D01*
X211095178Y-40975000D01*
X211180892Y-41017857D01*
X211223750Y-41060714D01*
X211266607Y-41146428D01*
X211266607Y-41360714D01*
X211223750Y-41446428D01*
X211180892Y-41489285D01*
X211095178Y-41532142D01*
X210880892Y-41532142D01*
X210795178Y-41489285D01*
X210752321Y-41446428D01*
X211652321Y-41532142D02*
X211652321Y-40932142D01*
X211652321Y-41017857D02*
X211695178Y-40975000D01*
X211780892Y-40932142D01*
X211909464Y-40932142D01*
X211995178Y-40975000D01*
X212038035Y-41060714D01*
X212038035Y-41532142D01*
X212038035Y-41060714D02*
X212080892Y-40975000D01*
X212166607Y-40932142D01*
X212295178Y-40932142D01*
X212380892Y-40975000D01*
X212423750Y-41060714D01*
X212423750Y-41532142D01*
X212852321Y-41532142D02*
X212852321Y-40932142D01*
X212852321Y-41017857D02*
X212895178Y-40975000D01*
X212980892Y-40932142D01*
X213109464Y-40932142D01*
X213195178Y-40975000D01*
X213238035Y-41060714D01*
X213238035Y-41532142D01*
X213238035Y-41060714D02*
X213280892Y-40975000D01*
X213366607Y-40932142D01*
X213495178Y-40932142D01*
X213580892Y-40975000D01*
X213623750Y-41060714D01*
X213623750Y-41532142D01*
X186988035Y-31282142D02*
X186988035Y-30382142D01*
X187502321Y-31282142D02*
X187116607Y-30767857D01*
X187502321Y-30382142D02*
X186988035Y-30896428D01*
X187802321Y-30682142D02*
X188016607Y-31282142D01*
X188230892Y-30682142D02*
X188016607Y-31282142D01*
X187930892Y-31496428D01*
X187888035Y-31539285D01*
X187802321Y-31582142D01*
X188573750Y-31282142D02*
X188573750Y-30682142D01*
X188573750Y-30853571D02*
X188616607Y-30767857D01*
X188659464Y-30725000D01*
X188745178Y-30682142D01*
X188830892Y-30682142D01*
X189130892Y-31282142D02*
X189130892Y-30682142D01*
X189130892Y-30382142D02*
X189088035Y-30425000D01*
X189130892Y-30467857D01*
X189173750Y-30425000D01*
X189130892Y-30382142D01*
X189130892Y-30467857D01*
X189945178Y-31282142D02*
X189945178Y-30810714D01*
X189902321Y-30725000D01*
X189816607Y-30682142D01*
X189645178Y-30682142D01*
X189559464Y-30725000D01*
X189945178Y-31239285D02*
X189859464Y-31282142D01*
X189645178Y-31282142D01*
X189559464Y-31239285D01*
X189516607Y-31153571D01*
X189516607Y-31067857D01*
X189559464Y-30982142D01*
X189645178Y-30939285D01*
X189859464Y-30939285D01*
X189945178Y-30896428D01*
X190373750Y-31196428D02*
X190416607Y-31239285D01*
X190373750Y-31282142D01*
X190330892Y-31239285D01*
X190373750Y-31196428D01*
X190373750Y-31282142D01*
X190373750Y-30725000D02*
X190416607Y-30767857D01*
X190373750Y-30810714D01*
X190330892Y-30767857D01*
X190373750Y-30725000D01*
X190373750Y-30810714D01*
X191488035Y-30939285D02*
X192173750Y-30939285D01*
X191830892Y-31282142D02*
X191830892Y-30596428D01*
X192773750Y-30382142D02*
X192859464Y-30382142D01*
X192945178Y-30425000D01*
X192988035Y-30467857D01*
X193030892Y-30553571D01*
X193073750Y-30725000D01*
X193073750Y-30939285D01*
X193030892Y-31110714D01*
X192988035Y-31196428D01*
X192945178Y-31239285D01*
X192859464Y-31282142D01*
X192773750Y-31282142D01*
X192688035Y-31239285D01*
X192645178Y-31196428D01*
X192602321Y-31110714D01*
X192559464Y-30939285D01*
X192559464Y-30725000D01*
X192602321Y-30553571D01*
X192645178Y-30467857D01*
X192688035Y-30425000D01*
X192773750Y-30382142D01*
X193459464Y-31196428D02*
X193502321Y-31239285D01*
X193459464Y-31282142D01*
X193416607Y-31239285D01*
X193459464Y-31196428D01*
X193459464Y-31282142D01*
X194316607Y-30382142D02*
X193888035Y-30382142D01*
X193845178Y-30810714D01*
X193888035Y-30767857D01*
X193973750Y-30725000D01*
X194188035Y-30725000D01*
X194273750Y-30767857D01*
X194316607Y-30810714D01*
X194359464Y-30896428D01*
X194359464Y-31110714D01*
X194316607Y-31196428D01*
X194273750Y-31239285D01*
X194188035Y-31282142D01*
X193973750Y-31282142D01*
X193888035Y-31239285D01*
X193845178Y-31196428D01*
X194745178Y-31282142D02*
X194745178Y-30682142D01*
X194745178Y-30767857D02*
X194788035Y-30725000D01*
X194873750Y-30682142D01*
X195002321Y-30682142D01*
X195088035Y-30725000D01*
X195130892Y-30810714D01*
X195130892Y-31282142D01*
X195130892Y-30810714D02*
X195173750Y-30725000D01*
X195259464Y-30682142D01*
X195388035Y-30682142D01*
X195473750Y-30725000D01*
X195516607Y-30810714D01*
X195516607Y-31282142D01*
X195945178Y-31282142D02*
X195945178Y-30682142D01*
X195945178Y-30767857D02*
X195988035Y-30725000D01*
X196073750Y-30682142D01*
X196202321Y-30682142D01*
X196288035Y-30725000D01*
X196330892Y-30810714D01*
X196330892Y-31282142D01*
X196330892Y-30810714D02*
X196373750Y-30725000D01*
X196459464Y-30682142D01*
X196588035Y-30682142D01*
X196673750Y-30725000D01*
X196716607Y-30810714D01*
X196716607Y-31282142D01*
X166938035Y-26282142D02*
X166938035Y-25382142D01*
X167452321Y-26282142D02*
X167066607Y-25767857D01*
X167452321Y-25382142D02*
X166938035Y-25896428D01*
X167752321Y-25682142D02*
X167966607Y-26282142D01*
X168180892Y-25682142D02*
X167966607Y-26282142D01*
X167880892Y-26496428D01*
X167838035Y-26539285D01*
X167752321Y-26582142D01*
X168523750Y-26282142D02*
X168523750Y-25682142D01*
X168523750Y-25853571D02*
X168566607Y-25767857D01*
X168609464Y-25725000D01*
X168695178Y-25682142D01*
X168780892Y-25682142D01*
X169080892Y-26282142D02*
X169080892Y-25682142D01*
X169080892Y-25382142D02*
X169038035Y-25425000D01*
X169080892Y-25467857D01*
X169123750Y-25425000D01*
X169080892Y-25382142D01*
X169080892Y-25467857D01*
X169895178Y-26282142D02*
X169895178Y-25810714D01*
X169852321Y-25725000D01*
X169766607Y-25682142D01*
X169595178Y-25682142D01*
X169509464Y-25725000D01*
X169895178Y-26239285D02*
X169809464Y-26282142D01*
X169595178Y-26282142D01*
X169509464Y-26239285D01*
X169466607Y-26153571D01*
X169466607Y-26067857D01*
X169509464Y-25982142D01*
X169595178Y-25939285D01*
X169809464Y-25939285D01*
X169895178Y-25896428D01*
X170323750Y-26196428D02*
X170366607Y-26239285D01*
X170323750Y-26282142D01*
X170280892Y-26239285D01*
X170323750Y-26196428D01*
X170323750Y-26282142D01*
X170323750Y-25725000D02*
X170366607Y-25767857D01*
X170323750Y-25810714D01*
X170280892Y-25767857D01*
X170323750Y-25725000D01*
X170323750Y-25810714D01*
X171438035Y-25939285D02*
X172123750Y-25939285D01*
X171780892Y-26282142D02*
X171780892Y-25596428D01*
X172938035Y-25382142D02*
X172766607Y-25382142D01*
X172680892Y-25425000D01*
X172638035Y-25467857D01*
X172552321Y-25596428D01*
X172509464Y-25767857D01*
X172509464Y-26110714D01*
X172552321Y-26196428D01*
X172595178Y-26239285D01*
X172680892Y-26282142D01*
X172852321Y-26282142D01*
X172938035Y-26239285D01*
X172980892Y-26196428D01*
X173023750Y-26110714D01*
X173023750Y-25896428D01*
X172980892Y-25810714D01*
X172938035Y-25767857D01*
X172852321Y-25725000D01*
X172680892Y-25725000D01*
X172595178Y-25767857D01*
X172552321Y-25810714D01*
X172509464Y-25896428D01*
X173409464Y-26196428D02*
X173452321Y-26239285D01*
X173409464Y-26282142D01*
X173366607Y-26239285D01*
X173409464Y-26196428D01*
X173409464Y-26282142D01*
X174266607Y-25382142D02*
X173838035Y-25382142D01*
X173795178Y-25810714D01*
X173838035Y-25767857D01*
X173923750Y-25725000D01*
X174138035Y-25725000D01*
X174223750Y-25767857D01*
X174266607Y-25810714D01*
X174309464Y-25896428D01*
X174309464Y-26110714D01*
X174266607Y-26196428D01*
X174223750Y-26239285D01*
X174138035Y-26282142D01*
X173923750Y-26282142D01*
X173838035Y-26239285D01*
X173795178Y-26196428D01*
X174695178Y-26282142D02*
X174695178Y-25682142D01*
X174695178Y-25767857D02*
X174738035Y-25725000D01*
X174823750Y-25682142D01*
X174952321Y-25682142D01*
X175038035Y-25725000D01*
X175080892Y-25810714D01*
X175080892Y-26282142D01*
X175080892Y-25810714D02*
X175123750Y-25725000D01*
X175209464Y-25682142D01*
X175338035Y-25682142D01*
X175423750Y-25725000D01*
X175466607Y-25810714D01*
X175466607Y-26282142D01*
X175895178Y-26282142D02*
X175895178Y-25682142D01*
X175895178Y-25767857D02*
X175938035Y-25725000D01*
X176023750Y-25682142D01*
X176152321Y-25682142D01*
X176238035Y-25725000D01*
X176280892Y-25810714D01*
X176280892Y-26282142D01*
X176280892Y-25810714D02*
X176323750Y-25725000D01*
X176409464Y-25682142D01*
X176538035Y-25682142D01*
X176623750Y-25725000D01*
X176666607Y-25810714D01*
X176666607Y-26282142D01*
X148483392Y-32032142D02*
X148183392Y-31603571D01*
X147969107Y-32032142D02*
X147969107Y-31132142D01*
X148311964Y-31132142D01*
X148397678Y-31175000D01*
X148440535Y-31217857D01*
X148483392Y-31303571D01*
X148483392Y-31432142D01*
X148440535Y-31517857D01*
X148397678Y-31560714D01*
X148311964Y-31603571D01*
X147969107Y-31603571D01*
X149211964Y-31989285D02*
X149126250Y-32032142D01*
X148954821Y-32032142D01*
X148869107Y-31989285D01*
X148826250Y-31903571D01*
X148826250Y-31560714D01*
X148869107Y-31475000D01*
X148954821Y-31432142D01*
X149126250Y-31432142D01*
X149211964Y-31475000D01*
X149254821Y-31560714D01*
X149254821Y-31646428D01*
X148826250Y-31732142D01*
X149511964Y-31432142D02*
X149854821Y-31432142D01*
X149640535Y-32032142D02*
X149640535Y-31260714D01*
X149683392Y-31175000D01*
X149769107Y-31132142D01*
X149854821Y-31132142D01*
X150497678Y-31989285D02*
X150411964Y-32032142D01*
X150240535Y-32032142D01*
X150154821Y-31989285D01*
X150111964Y-31903571D01*
X150111964Y-31560714D01*
X150154821Y-31475000D01*
X150240535Y-31432142D01*
X150411964Y-31432142D01*
X150497678Y-31475000D01*
X150540535Y-31560714D01*
X150540535Y-31646428D01*
X150111964Y-31732142D01*
X150926250Y-32032142D02*
X150926250Y-31432142D01*
X150926250Y-31603571D02*
X150969107Y-31517857D01*
X151011964Y-31475000D01*
X151097678Y-31432142D01*
X151183392Y-31432142D01*
X151826250Y-31989285D02*
X151740535Y-32032142D01*
X151569107Y-32032142D01*
X151483392Y-31989285D01*
X151440535Y-31903571D01*
X151440535Y-31560714D01*
X151483392Y-31475000D01*
X151569107Y-31432142D01*
X151740535Y-31432142D01*
X151826250Y-31475000D01*
X151869107Y-31560714D01*
X151869107Y-31646428D01*
X151440535Y-31732142D01*
X152254821Y-31432142D02*
X152254821Y-32032142D01*
X152254821Y-31517857D02*
X152297678Y-31475000D01*
X152383392Y-31432142D01*
X152511964Y-31432142D01*
X152597678Y-31475000D01*
X152640535Y-31560714D01*
X152640535Y-32032142D01*
X153454821Y-31989285D02*
X153369107Y-32032142D01*
X153197678Y-32032142D01*
X153111964Y-31989285D01*
X153069107Y-31946428D01*
X153026250Y-31860714D01*
X153026250Y-31603571D01*
X153069107Y-31517857D01*
X153111964Y-31475000D01*
X153197678Y-31432142D01*
X153369107Y-31432142D01*
X153454821Y-31475000D01*
X154183392Y-31989285D02*
X154097678Y-32032142D01*
X153926250Y-32032142D01*
X153840535Y-31989285D01*
X153797678Y-31903571D01*
X153797678Y-31560714D01*
X153840535Y-31475000D01*
X153926250Y-31432142D01*
X154097678Y-31432142D01*
X154183392Y-31475000D01*
X154226250Y-31560714D01*
X154226250Y-31646428D01*
X153797678Y-31732142D01*
X149169107Y-33875000D02*
X149126250Y-33832142D01*
X149040535Y-33703571D01*
X148997678Y-33617857D01*
X148954821Y-33489285D01*
X148911964Y-33275000D01*
X148911964Y-33103571D01*
X148954821Y-32889285D01*
X148997678Y-32760714D01*
X149040535Y-32675000D01*
X149126250Y-32546428D01*
X149169107Y-32503571D01*
X149511964Y-33532142D02*
X149511964Y-32632142D01*
X149940535Y-32932142D02*
X149940535Y-33532142D01*
X149940535Y-33017857D02*
X149983392Y-32975000D01*
X150069107Y-32932142D01*
X150197678Y-32932142D01*
X150283392Y-32975000D01*
X150326250Y-33060714D01*
X150326250Y-33532142D01*
X151140535Y-33532142D02*
X151140535Y-32632142D01*
X151140535Y-33489285D02*
X151054821Y-33532142D01*
X150883392Y-33532142D01*
X150797678Y-33489285D01*
X150754821Y-33446428D01*
X150711964Y-33360714D01*
X150711964Y-33103571D01*
X150754821Y-33017857D01*
X150797678Y-32975000D01*
X150883392Y-32932142D01*
X151054821Y-32932142D01*
X151140535Y-32975000D01*
X151911964Y-33489285D02*
X151826250Y-33532142D01*
X151654821Y-33532142D01*
X151569107Y-33489285D01*
X151526250Y-33403571D01*
X151526250Y-33060714D01*
X151569107Y-32975000D01*
X151654821Y-32932142D01*
X151826250Y-32932142D01*
X151911964Y-32975000D01*
X151954821Y-33060714D01*
X151954821Y-33146428D01*
X151526250Y-33232142D01*
X152254821Y-33532142D02*
X152726250Y-32932142D01*
X152254821Y-32932142D02*
X152726250Y-33532142D01*
X152983392Y-33875000D02*
X153026250Y-33832142D01*
X153111964Y-33703571D01*
X153154821Y-33617857D01*
X153197678Y-33489285D01*
X153240535Y-33275000D01*
X153240535Y-33103571D01*
X153197678Y-32889285D01*
X153154821Y-32760714D01*
X153111964Y-32675000D01*
X153026250Y-32546428D01*
X152983392Y-32503571D01*
X147910476Y-87215178D02*
X148672380Y-87215178D01*
X149053333Y-86596130D02*
X149720000Y-86596130D01*
X149291428Y-87596130D01*
X150815238Y-86548511D02*
X149958095Y-87834226D01*
X151291428Y-87024702D02*
X151196190Y-86977083D01*
X151148571Y-86929464D01*
X151100952Y-86834226D01*
X151100952Y-86786607D01*
X151148571Y-86691369D01*
X151196190Y-86643750D01*
X151291428Y-86596130D01*
X151481904Y-86596130D01*
X151577142Y-86643750D01*
X151624761Y-86691369D01*
X151672380Y-86786607D01*
X151672380Y-86834226D01*
X151624761Y-86929464D01*
X151577142Y-86977083D01*
X151481904Y-87024702D01*
X151291428Y-87024702D01*
X151196190Y-87072321D01*
X151148571Y-87119940D01*
X151100952Y-87215178D01*
X151100952Y-87405654D01*
X151148571Y-87500892D01*
X151196190Y-87548511D01*
X151291428Y-87596130D01*
X151481904Y-87596130D01*
X151577142Y-87548511D01*
X151624761Y-87500892D01*
X151672380Y-87405654D01*
X151672380Y-87215178D01*
X151624761Y-87119940D01*
X151577142Y-87072321D01*
X151481904Y-87024702D01*
X152529523Y-86929464D02*
X152529523Y-87596130D01*
X152100952Y-86929464D02*
X152100952Y-87453273D01*
X152148571Y-87548511D01*
X152243809Y-87596130D01*
X152386666Y-87596130D01*
X152481904Y-87548511D01*
X152529523Y-87500892D01*
X147910476Y-84833928D02*
X148672380Y-84833928D01*
X149053333Y-84214880D02*
X149672380Y-84214880D01*
X149339047Y-84595833D01*
X149481904Y-84595833D01*
X149577142Y-84643452D01*
X149624761Y-84691071D01*
X149672380Y-84786309D01*
X149672380Y-85024404D01*
X149624761Y-85119642D01*
X149577142Y-85167261D01*
X149481904Y-85214880D01*
X149196190Y-85214880D01*
X149100952Y-85167261D01*
X149053333Y-85119642D01*
X150815238Y-84167261D02*
X149958095Y-85452976D01*
X151577142Y-84548214D02*
X151577142Y-85214880D01*
X151339047Y-84167261D02*
X151100952Y-84881547D01*
X151720000Y-84881547D01*
X152529523Y-84548214D02*
X152529523Y-85214880D01*
X152100952Y-84548214D02*
X152100952Y-85072023D01*
X152148571Y-85167261D01*
X152243809Y-85214880D01*
X152386666Y-85214880D01*
X152481904Y-85167261D01*
X152529523Y-85119642D01*
X147910476Y-82452678D02*
X148672380Y-82452678D01*
X149624761Y-81833630D02*
X149148571Y-81833630D01*
X149100952Y-82309821D01*
X149148571Y-82262202D01*
X149243809Y-82214583D01*
X149481904Y-82214583D01*
X149577142Y-82262202D01*
X149624761Y-82309821D01*
X149672380Y-82405059D01*
X149672380Y-82643154D01*
X149624761Y-82738392D01*
X149577142Y-82786011D01*
X149481904Y-82833630D01*
X149243809Y-82833630D01*
X149148571Y-82786011D01*
X149100952Y-82738392D01*
X150815238Y-81786011D02*
X149958095Y-83071726D01*
X151291428Y-82262202D02*
X151196190Y-82214583D01*
X151148571Y-82166964D01*
X151100952Y-82071726D01*
X151100952Y-82024107D01*
X151148571Y-81928869D01*
X151196190Y-81881250D01*
X151291428Y-81833630D01*
X151481904Y-81833630D01*
X151577142Y-81881250D01*
X151624761Y-81928869D01*
X151672380Y-82024107D01*
X151672380Y-82071726D01*
X151624761Y-82166964D01*
X151577142Y-82214583D01*
X151481904Y-82262202D01*
X151291428Y-82262202D01*
X151196190Y-82309821D01*
X151148571Y-82357440D01*
X151100952Y-82452678D01*
X151100952Y-82643154D01*
X151148571Y-82738392D01*
X151196190Y-82786011D01*
X151291428Y-82833630D01*
X151481904Y-82833630D01*
X151577142Y-82786011D01*
X151624761Y-82738392D01*
X151672380Y-82643154D01*
X151672380Y-82452678D01*
X151624761Y-82357440D01*
X151577142Y-82309821D01*
X151481904Y-82262202D01*
X152529523Y-82166964D02*
X152529523Y-82833630D01*
X152100952Y-82166964D02*
X152100952Y-82690773D01*
X152148571Y-82786011D01*
X152243809Y-82833630D01*
X152386666Y-82833630D01*
X152481904Y-82786011D01*
X152529523Y-82738392D01*
X147910476Y-80071428D02*
X148672380Y-80071428D01*
X149672380Y-80452380D02*
X149100952Y-80452380D01*
X149386666Y-80452380D02*
X149386666Y-79452380D01*
X149291428Y-79595238D01*
X149196190Y-79690476D01*
X149100952Y-79738095D01*
X150815238Y-79404761D02*
X149958095Y-80690476D01*
X151100952Y-79547619D02*
X151148571Y-79500000D01*
X151243809Y-79452380D01*
X151481904Y-79452380D01*
X151577142Y-79500000D01*
X151624761Y-79547619D01*
X151672380Y-79642857D01*
X151672380Y-79738095D01*
X151624761Y-79880952D01*
X151053333Y-80452380D01*
X151672380Y-80452380D01*
X152529523Y-79785714D02*
X152529523Y-80452380D01*
X152100952Y-79785714D02*
X152100952Y-80309523D01*
X152148571Y-80404761D01*
X152243809Y-80452380D01*
X152386666Y-80452380D01*
X152481904Y-80404761D01*
X152529523Y-80357142D01*
X147910476Y-77690178D02*
X148672380Y-77690178D01*
X149053333Y-77071130D02*
X149672380Y-77071130D01*
X149339047Y-77452083D01*
X149481904Y-77452083D01*
X149577142Y-77499702D01*
X149624761Y-77547321D01*
X149672380Y-77642559D01*
X149672380Y-77880654D01*
X149624761Y-77975892D01*
X149577142Y-78023511D01*
X149481904Y-78071130D01*
X149196190Y-78071130D01*
X149100952Y-78023511D01*
X149053333Y-77975892D01*
X150815238Y-77023511D02*
X149958095Y-78309226D01*
X151291428Y-77499702D02*
X151196190Y-77452083D01*
X151148571Y-77404464D01*
X151100952Y-77309226D01*
X151100952Y-77261607D01*
X151148571Y-77166369D01*
X151196190Y-77118750D01*
X151291428Y-77071130D01*
X151481904Y-77071130D01*
X151577142Y-77118750D01*
X151624761Y-77166369D01*
X151672380Y-77261607D01*
X151672380Y-77309226D01*
X151624761Y-77404464D01*
X151577142Y-77452083D01*
X151481904Y-77499702D01*
X151291428Y-77499702D01*
X151196190Y-77547321D01*
X151148571Y-77594940D01*
X151100952Y-77690178D01*
X151100952Y-77880654D01*
X151148571Y-77975892D01*
X151196190Y-78023511D01*
X151291428Y-78071130D01*
X151481904Y-78071130D01*
X151577142Y-78023511D01*
X151624761Y-77975892D01*
X151672380Y-77880654D01*
X151672380Y-77690178D01*
X151624761Y-77594940D01*
X151577142Y-77547321D01*
X151481904Y-77499702D01*
X152529523Y-77404464D02*
X152529523Y-78071130D01*
X152100952Y-77404464D02*
X152100952Y-77928273D01*
X152148571Y-78023511D01*
X152243809Y-78071130D01*
X152386666Y-78071130D01*
X152481904Y-78023511D01*
X152529523Y-77975892D01*
X147910476Y-75308928D02*
X148672380Y-75308928D01*
X149672380Y-75689880D02*
X149100952Y-75689880D01*
X149386666Y-75689880D02*
X149386666Y-74689880D01*
X149291428Y-74832738D01*
X149196190Y-74927976D01*
X149100952Y-74975595D01*
X150815238Y-74642261D02*
X149958095Y-75927976D01*
X151577142Y-75023214D02*
X151577142Y-75689880D01*
X151339047Y-74642261D02*
X151100952Y-75356547D01*
X151720000Y-75356547D01*
X152529523Y-75023214D02*
X152529523Y-75689880D01*
X152100952Y-75023214D02*
X152100952Y-75547023D01*
X152148571Y-75642261D01*
X152243809Y-75689880D01*
X152386666Y-75689880D01*
X152481904Y-75642261D01*
X152529523Y-75594642D01*
X147910476Y-72927678D02*
X148672380Y-72927678D01*
X149672380Y-73308630D02*
X149100952Y-73308630D01*
X149386666Y-73308630D02*
X149386666Y-72308630D01*
X149291428Y-72451488D01*
X149196190Y-72546726D01*
X149100952Y-72594345D01*
X150815238Y-72261011D02*
X149958095Y-73546726D01*
X151291428Y-72737202D02*
X151196190Y-72689583D01*
X151148571Y-72641964D01*
X151100952Y-72546726D01*
X151100952Y-72499107D01*
X151148571Y-72403869D01*
X151196190Y-72356250D01*
X151291428Y-72308630D01*
X151481904Y-72308630D01*
X151577142Y-72356250D01*
X151624761Y-72403869D01*
X151672380Y-72499107D01*
X151672380Y-72546726D01*
X151624761Y-72641964D01*
X151577142Y-72689583D01*
X151481904Y-72737202D01*
X151291428Y-72737202D01*
X151196190Y-72784821D01*
X151148571Y-72832440D01*
X151100952Y-72927678D01*
X151100952Y-73118154D01*
X151148571Y-73213392D01*
X151196190Y-73261011D01*
X151291428Y-73308630D01*
X151481904Y-73308630D01*
X151577142Y-73261011D01*
X151624761Y-73213392D01*
X151672380Y-73118154D01*
X151672380Y-72927678D01*
X151624761Y-72832440D01*
X151577142Y-72784821D01*
X151481904Y-72737202D01*
X152529523Y-72641964D02*
X152529523Y-73308630D01*
X152100952Y-72641964D02*
X152100952Y-73165773D01*
X152148571Y-73261011D01*
X152243809Y-73308630D01*
X152386666Y-73308630D01*
X152481904Y-73261011D01*
X152529523Y-73213392D01*
X149648571Y-70927380D02*
X149315238Y-70451190D01*
X149077142Y-70927380D02*
X149077142Y-69927380D01*
X149458095Y-69927380D01*
X149553333Y-69975000D01*
X149600952Y-70022619D01*
X149648571Y-70117857D01*
X149648571Y-70260714D01*
X149600952Y-70355952D01*
X149553333Y-70403571D01*
X149458095Y-70451190D01*
X149077142Y-70451190D01*
X150077142Y-70403571D02*
X150410476Y-70403571D01*
X150553333Y-70927380D02*
X150077142Y-70927380D01*
X150077142Y-69927380D01*
X150553333Y-69927380D01*
X151315238Y-70403571D02*
X150981904Y-70403571D01*
X150981904Y-70927380D02*
X150981904Y-69927380D01*
X151458095Y-69927380D01*
D13*
X143076250Y-70475000D02*
X148076250Y-70475000D01*
D11*
X147910476Y-53877678D02*
X148672380Y-53877678D01*
X148291428Y-54258630D02*
X148291428Y-53496726D01*
X149053333Y-53258630D02*
X149720000Y-53258630D01*
X149291428Y-54258630D01*
X150815238Y-53211011D02*
X149958095Y-54496726D01*
X151291428Y-53687202D02*
X151196190Y-53639583D01*
X151148571Y-53591964D01*
X151100952Y-53496726D01*
X151100952Y-53449107D01*
X151148571Y-53353869D01*
X151196190Y-53306250D01*
X151291428Y-53258630D01*
X151481904Y-53258630D01*
X151577142Y-53306250D01*
X151624761Y-53353869D01*
X151672380Y-53449107D01*
X151672380Y-53496726D01*
X151624761Y-53591964D01*
X151577142Y-53639583D01*
X151481904Y-53687202D01*
X151291428Y-53687202D01*
X151196190Y-53734821D01*
X151148571Y-53782440D01*
X151100952Y-53877678D01*
X151100952Y-54068154D01*
X151148571Y-54163392D01*
X151196190Y-54211011D01*
X151291428Y-54258630D01*
X151481904Y-54258630D01*
X151577142Y-54211011D01*
X151624761Y-54163392D01*
X151672380Y-54068154D01*
X151672380Y-53877678D01*
X151624761Y-53782440D01*
X151577142Y-53734821D01*
X151481904Y-53687202D01*
X152529523Y-53591964D02*
X152529523Y-54258630D01*
X152100952Y-53591964D02*
X152100952Y-54115773D01*
X152148571Y-54211011D01*
X152243809Y-54258630D01*
X152386666Y-54258630D01*
X152481904Y-54211011D01*
X152529523Y-54163392D01*
X147910476Y-58640178D02*
X148672380Y-58640178D01*
X148291428Y-59021130D02*
X148291428Y-58259226D01*
X149624761Y-58021130D02*
X149148571Y-58021130D01*
X149100952Y-58497321D01*
X149148571Y-58449702D01*
X149243809Y-58402083D01*
X149481904Y-58402083D01*
X149577142Y-58449702D01*
X149624761Y-58497321D01*
X149672380Y-58592559D01*
X149672380Y-58830654D01*
X149624761Y-58925892D01*
X149577142Y-58973511D01*
X149481904Y-59021130D01*
X149243809Y-59021130D01*
X149148571Y-58973511D01*
X149100952Y-58925892D01*
X150815238Y-57973511D02*
X149958095Y-59259226D01*
X151291428Y-58449702D02*
X151196190Y-58402083D01*
X151148571Y-58354464D01*
X151100952Y-58259226D01*
X151100952Y-58211607D01*
X151148571Y-58116369D01*
X151196190Y-58068750D01*
X151291428Y-58021130D01*
X151481904Y-58021130D01*
X151577142Y-58068750D01*
X151624761Y-58116369D01*
X151672380Y-58211607D01*
X151672380Y-58259226D01*
X151624761Y-58354464D01*
X151577142Y-58402083D01*
X151481904Y-58449702D01*
X151291428Y-58449702D01*
X151196190Y-58497321D01*
X151148571Y-58544940D01*
X151100952Y-58640178D01*
X151100952Y-58830654D01*
X151148571Y-58925892D01*
X151196190Y-58973511D01*
X151291428Y-59021130D01*
X151481904Y-59021130D01*
X151577142Y-58973511D01*
X151624761Y-58925892D01*
X151672380Y-58830654D01*
X151672380Y-58640178D01*
X151624761Y-58544940D01*
X151577142Y-58497321D01*
X151481904Y-58449702D01*
X152529523Y-58354464D02*
X152529523Y-59021130D01*
X152100952Y-58354464D02*
X152100952Y-58878273D01*
X152148571Y-58973511D01*
X152243809Y-59021130D01*
X152386666Y-59021130D01*
X152481904Y-58973511D01*
X152529523Y-58925892D01*
X147910476Y-63402678D02*
X148672380Y-63402678D01*
X148291428Y-63783630D02*
X148291428Y-63021726D01*
X149053333Y-62783630D02*
X149672380Y-62783630D01*
X149339047Y-63164583D01*
X149481904Y-63164583D01*
X149577142Y-63212202D01*
X149624761Y-63259821D01*
X149672380Y-63355059D01*
X149672380Y-63593154D01*
X149624761Y-63688392D01*
X149577142Y-63736011D01*
X149481904Y-63783630D01*
X149196190Y-63783630D01*
X149100952Y-63736011D01*
X149053333Y-63688392D01*
X150815238Y-62736011D02*
X149958095Y-64021726D01*
X151291428Y-63212202D02*
X151196190Y-63164583D01*
X151148571Y-63116964D01*
X151100952Y-63021726D01*
X151100952Y-62974107D01*
X151148571Y-62878869D01*
X151196190Y-62831250D01*
X151291428Y-62783630D01*
X151481904Y-62783630D01*
X151577142Y-62831250D01*
X151624761Y-62878869D01*
X151672380Y-62974107D01*
X151672380Y-63021726D01*
X151624761Y-63116964D01*
X151577142Y-63164583D01*
X151481904Y-63212202D01*
X151291428Y-63212202D01*
X151196190Y-63259821D01*
X151148571Y-63307440D01*
X151100952Y-63402678D01*
X151100952Y-63593154D01*
X151148571Y-63688392D01*
X151196190Y-63736011D01*
X151291428Y-63783630D01*
X151481904Y-63783630D01*
X151577142Y-63736011D01*
X151624761Y-63688392D01*
X151672380Y-63593154D01*
X151672380Y-63402678D01*
X151624761Y-63307440D01*
X151577142Y-63259821D01*
X151481904Y-63212202D01*
X152529523Y-63116964D02*
X152529523Y-63783630D01*
X152100952Y-63116964D02*
X152100952Y-63640773D01*
X152148571Y-63736011D01*
X152243809Y-63783630D01*
X152386666Y-63783630D01*
X152481904Y-63736011D01*
X152529523Y-63688392D01*
X147910476Y-68165178D02*
X148672380Y-68165178D01*
X148291428Y-68546130D02*
X148291428Y-67784226D01*
X149672380Y-68546130D02*
X149100952Y-68546130D01*
X149386666Y-68546130D02*
X149386666Y-67546130D01*
X149291428Y-67688988D01*
X149196190Y-67784226D01*
X149100952Y-67831845D01*
X150815238Y-67498511D02*
X149958095Y-68784226D01*
X151291428Y-67974702D02*
X151196190Y-67927083D01*
X151148571Y-67879464D01*
X151100952Y-67784226D01*
X151100952Y-67736607D01*
X151148571Y-67641369D01*
X151196190Y-67593750D01*
X151291428Y-67546130D01*
X151481904Y-67546130D01*
X151577142Y-67593750D01*
X151624761Y-67641369D01*
X151672380Y-67736607D01*
X151672380Y-67784226D01*
X151624761Y-67879464D01*
X151577142Y-67927083D01*
X151481904Y-67974702D01*
X151291428Y-67974702D01*
X151196190Y-68022321D01*
X151148571Y-68069940D01*
X151100952Y-68165178D01*
X151100952Y-68355654D01*
X151148571Y-68450892D01*
X151196190Y-68498511D01*
X151291428Y-68546130D01*
X151481904Y-68546130D01*
X151577142Y-68498511D01*
X151624761Y-68450892D01*
X151672380Y-68355654D01*
X151672380Y-68165178D01*
X151624761Y-68069940D01*
X151577142Y-68022321D01*
X151481904Y-67974702D01*
X152529523Y-67879464D02*
X152529523Y-68546130D01*
X152100952Y-67879464D02*
X152100952Y-68403273D01*
X152148571Y-68498511D01*
X152243809Y-68546130D01*
X152386666Y-68546130D01*
X152481904Y-68498511D01*
X152529523Y-68450892D01*
X147910476Y-65783928D02*
X148672380Y-65783928D01*
X148291428Y-66164880D02*
X148291428Y-65402976D01*
X149672380Y-66164880D02*
X149100952Y-66164880D01*
X149386666Y-66164880D02*
X149386666Y-65164880D01*
X149291428Y-65307738D01*
X149196190Y-65402976D01*
X149100952Y-65450595D01*
X150815238Y-65117261D02*
X149958095Y-66402976D01*
X151577142Y-65498214D02*
X151577142Y-66164880D01*
X151339047Y-65117261D02*
X151100952Y-65831547D01*
X151720000Y-65831547D01*
X152529523Y-65498214D02*
X152529523Y-66164880D01*
X152100952Y-65498214D02*
X152100952Y-66022023D01*
X152148571Y-66117261D01*
X152243809Y-66164880D01*
X152386666Y-66164880D01*
X152481904Y-66117261D01*
X152529523Y-66069642D01*
X147910476Y-56258928D02*
X148672380Y-56258928D01*
X148291428Y-56639880D02*
X148291428Y-55877976D01*
X149053333Y-55639880D02*
X149672380Y-55639880D01*
X149339047Y-56020833D01*
X149481904Y-56020833D01*
X149577142Y-56068452D01*
X149624761Y-56116071D01*
X149672380Y-56211309D01*
X149672380Y-56449404D01*
X149624761Y-56544642D01*
X149577142Y-56592261D01*
X149481904Y-56639880D01*
X149196190Y-56639880D01*
X149100952Y-56592261D01*
X149053333Y-56544642D01*
X150815238Y-55592261D02*
X149958095Y-56877976D01*
X151577142Y-55973214D02*
X151577142Y-56639880D01*
X151339047Y-55592261D02*
X151100952Y-56306547D01*
X151720000Y-56306547D01*
X152529523Y-55973214D02*
X152529523Y-56639880D01*
X152100952Y-55973214D02*
X152100952Y-56497023D01*
X152148571Y-56592261D01*
X152243809Y-56639880D01*
X152386666Y-56639880D01*
X152481904Y-56592261D01*
X152529523Y-56544642D01*
X147910476Y-61021428D02*
X148672380Y-61021428D01*
X148291428Y-61402380D02*
X148291428Y-60640476D01*
X149672380Y-61402380D02*
X149100952Y-61402380D01*
X149386666Y-61402380D02*
X149386666Y-60402380D01*
X149291428Y-60545238D01*
X149196190Y-60640476D01*
X149100952Y-60688095D01*
X150815238Y-60354761D02*
X149958095Y-61640476D01*
X151100952Y-60497619D02*
X151148571Y-60450000D01*
X151243809Y-60402380D01*
X151481904Y-60402380D01*
X151577142Y-60450000D01*
X151624761Y-60497619D01*
X151672380Y-60592857D01*
X151672380Y-60688095D01*
X151624761Y-60830952D01*
X151053333Y-61402380D01*
X151672380Y-61402380D01*
X152529523Y-60735714D02*
X152529523Y-61402380D01*
X152100952Y-60735714D02*
X152100952Y-61259523D01*
X152148571Y-61354761D01*
X152243809Y-61402380D01*
X152386666Y-61402380D01*
X152481904Y-61354761D01*
X152529523Y-61307142D01*
D13*
X148076250Y-51425000D02*
X143076250Y-51425000D01*
D10*
X145076250Y-53806250D02*
X143076250Y-53806250D01*
D14*
X146076250Y-56187500D02*
X143076250Y-56187500D01*
D10*
X145076250Y-58568750D02*
X143076250Y-58568750D01*
D15*
X143076250Y-60950000D02*
X147076250Y-60950000D01*
D10*
X145076250Y-63331250D02*
X143076250Y-63331250D01*
D14*
X143076250Y-65712500D02*
X146076250Y-65712500D01*
D10*
X145076250Y-72856250D02*
X143076250Y-72856250D01*
D14*
X146076250Y-75237500D02*
X143076250Y-75237500D01*
D10*
X145076250Y-77618750D02*
X143076250Y-77618750D01*
D15*
X143076250Y-80000000D02*
X147076250Y-80000000D01*
D10*
X145076250Y-82381250D02*
X143076250Y-82381250D01*
D14*
X143076250Y-84762500D02*
X146076250Y-84762500D01*
D10*
X145076250Y-87143750D02*
X143076250Y-87143750D01*
D13*
X148076250Y-89525000D02*
X143076250Y-89525000D01*
D15*
X103804761Y-93155952D02*
X102614285Y-93155952D01*
X102614285Y-90655952D01*
X105590476Y-93036904D02*
X105352380Y-93155952D01*
X104876190Y-93155952D01*
X104638095Y-93036904D01*
X104519047Y-92798809D01*
X104519047Y-91846428D01*
X104638095Y-91608333D01*
X104876190Y-91489285D01*
X105352380Y-91489285D01*
X105590476Y-91608333D01*
X105709523Y-91846428D01*
X105709523Y-92084523D01*
X104519047Y-92322619D01*
X106780952Y-93155952D02*
X106780952Y-91489285D01*
X106780952Y-91965476D02*
X106900000Y-91727380D01*
X107019047Y-91608333D01*
X107257142Y-91489285D01*
X107495238Y-91489285D01*
X109400000Y-91489285D02*
X109400000Y-93513095D01*
X109280952Y-93751190D01*
X109161904Y-93870238D01*
X108923809Y-93989285D01*
X108566666Y-93989285D01*
X108328571Y-93870238D01*
X109400000Y-93036904D02*
X109161904Y-93155952D01*
X108685714Y-93155952D01*
X108447619Y-93036904D01*
X108328571Y-92917857D01*
X108209523Y-92679761D01*
X108209523Y-91965476D01*
X108328571Y-91727380D01*
X108447619Y-91608333D01*
X108685714Y-91489285D01*
X109161904Y-91489285D01*
X109400000Y-91608333D01*
X110947619Y-93155952D02*
X110709523Y-93036904D01*
X110590476Y-92917857D01*
X110471428Y-92679761D01*
X110471428Y-91965476D01*
X110590476Y-91727380D01*
X110709523Y-91608333D01*
X110947619Y-91489285D01*
X111304761Y-91489285D01*
X111542857Y-91608333D01*
X111661904Y-91727380D01*
X111780952Y-91965476D01*
X111780952Y-92679761D01*
X111661904Y-92917857D01*
X111542857Y-93036904D01*
X111304761Y-93155952D01*
X110947619Y-93155952D01*
X114519047Y-91489285D02*
X115114285Y-93155952D01*
X115709523Y-91489285D01*
X117971428Y-93155952D02*
X116542857Y-93155952D01*
X117257142Y-93155952D02*
X117257142Y-90655952D01*
X117019047Y-91013095D01*
X116780952Y-91251190D01*
X116542857Y-91370238D01*
X119042857Y-92917857D02*
X119161904Y-93036904D01*
X119042857Y-93155952D01*
X118923809Y-93036904D01*
X119042857Y-92917857D01*
X119042857Y-93155952D01*
X120114285Y-92441666D02*
X121304761Y-92441666D01*
X119876190Y-93155952D02*
X120709523Y-90655952D01*
X121542857Y-93155952D01*
D10*
X114794521Y-143232094D02*
X113155146Y-141250430D01*
X79476305Y-127497200D02*
X81405497Y-129198012D01*
X84797284Y-132818179D02*
X82859213Y-131127492D01*
X109473542Y-137911115D02*
X111130148Y-139878398D01*
X115078834Y-133589255D02*
X116557675Y-135693434D01*
X90940354Y-126365021D02*
X89157011Y-124511854D01*
X86103377Y-120600537D02*
X87876992Y-122463016D01*
X119915811Y-139353739D02*
X118455388Y-137236735D01*
X121043991Y-129773379D02*
X122333814Y-131998441D01*
X97626999Y-120472829D02*
X96011957Y-118471285D01*
X93310836Y-114308709D02*
X94915376Y-116318683D01*
X125360154Y-135937499D02*
X124089797Y-133701266D01*
X133856178Y-123769855D02*
X134740027Y-126185089D01*
X112409966Y-110544283D02*
X111167024Y-108292698D01*
X109229764Y-103724317D02*
X110460899Y-105982379D01*
X137036380Y-130589821D02*
X136173641Y-128166967D01*
X141976591Y-121270633D02*
X142603138Y-123765024D01*
X122030313Y-105875773D02*
X121029535Y-103506599D01*
X119580413Y-98760745D02*
X120568772Y-101135127D01*
X144426491Y-128385661D02*
X143821735Y-125885898D01*
X127316488Y-126491197D02*
X128407476Y-128820208D01*
X104799202Y-115185113D02*
X103364751Y-113050425D01*
X101036702Y-108668271D02*
X102459955Y-110810441D01*
X131078988Y-133008039D02*
X130008366Y-130669597D01*
X162265347Y-126324256D02*
X162283302Y-123752444D01*
X155842718Y-126560580D02*
X155636457Y-123996989D01*
X149469261Y-127352519D02*
X149040353Y-124816661D01*
D11*
X111485135Y-140834845D02*
X111912768Y-141346288D01*
X111058114Y-140695318D02*
X111333634Y-141396019D01*
X111808546Y-140998931D01*
X112038483Y-139937674D02*
X111673166Y-140243126D01*
X111942087Y-140638988D01*
X111948073Y-140571911D01*
X111990592Y-140474289D01*
X112173250Y-140321563D01*
X112276858Y-140297004D01*
X112343935Y-140302990D01*
X112441558Y-140345509D01*
X112594284Y-140528167D01*
X112618842Y-140631776D01*
X112612856Y-140698852D01*
X112570338Y-140796475D01*
X112387679Y-140949201D01*
X112284071Y-140973759D01*
X112216994Y-140967773D01*
X112513395Y-139540586D02*
X112470877Y-139638208D01*
X112495436Y-139741817D01*
X112593058Y-139784335D01*
X112696666Y-139759776D01*
X112739184Y-139662154D01*
X112714626Y-139558545D01*
X112617004Y-139516027D01*
X112513395Y-139540586D01*
X81535807Y-130517102D02*
X82036650Y-130957103D01*
X81092468Y-130444546D02*
X81471942Y-131094848D01*
X81880515Y-130629779D01*
X81945388Y-129545838D02*
X81631101Y-129903582D01*
X81957417Y-130253643D01*
X81953071Y-130186440D01*
X81980154Y-130083463D01*
X82137297Y-129904590D01*
X82235929Y-129864470D01*
X82303132Y-129860124D01*
X82406110Y-129887207D01*
X82584982Y-130044350D01*
X82625103Y-130142982D01*
X82629449Y-130210185D01*
X82602366Y-130313163D01*
X82445222Y-130492035D01*
X82346591Y-130532155D01*
X82279388Y-130536501D01*
X82353960Y-129080769D02*
X82326877Y-129183747D01*
X82366997Y-129282379D01*
X82469975Y-129309462D01*
X82568607Y-129269341D01*
X82595690Y-129166364D01*
X82555569Y-129067732D01*
X82452592Y-129040649D01*
X82353960Y-129080769D01*
X225786904Y-85645238D02*
X226358333Y-85645238D01*
X226472619Y-85683333D01*
X226548809Y-85759523D01*
X226586904Y-85873809D01*
X226586904Y-85950000D01*
X226586904Y-84883333D02*
X226586904Y-85264285D01*
X225786904Y-85264285D01*
X226510714Y-84159523D02*
X226548809Y-84197619D01*
X226586904Y-84311904D01*
X226586904Y-84388095D01*
X226548809Y-84502380D01*
X226472619Y-84578571D01*
X226396428Y-84616666D01*
X226244047Y-84654761D01*
X226129761Y-84654761D01*
X225977380Y-84616666D01*
X225901190Y-84578571D01*
X225825000Y-84502380D01*
X225786904Y-84388095D01*
X225786904Y-84311904D01*
X225825000Y-84197619D01*
X225863095Y-84159523D01*
X225786904Y-83588095D02*
X226358333Y-83588095D01*
X226472619Y-83626190D01*
X226548809Y-83702380D01*
X226586904Y-83816666D01*
X226586904Y-83892857D01*
X226586904Y-82826190D02*
X226586904Y-83207142D01*
X225786904Y-83207142D01*
X226510714Y-82102380D02*
X226548809Y-82140476D01*
X226586904Y-82254761D01*
X226586904Y-82330952D01*
X226548809Y-82445238D01*
X226472619Y-82521428D01*
X226396428Y-82559523D01*
X226244047Y-82597619D01*
X226129761Y-82597619D01*
X225977380Y-82559523D01*
X225901190Y-82521428D01*
X225825000Y-82445238D01*
X225786904Y-82330952D01*
X225786904Y-82254761D01*
X225825000Y-82140476D01*
X225863095Y-82102380D01*
X225786904Y-81530952D02*
X226358333Y-81530952D01*
X226472619Y-81569047D01*
X226548809Y-81645238D01*
X226586904Y-81759523D01*
X226586904Y-81835714D01*
X226586904Y-80769047D02*
X226586904Y-81150000D01*
X225786904Y-81150000D01*
X226510714Y-80045238D02*
X226548809Y-80083333D01*
X226586904Y-80197619D01*
X226586904Y-80273809D01*
X226548809Y-80388095D01*
X226472619Y-80464285D01*
X226396428Y-80502380D01*
X226244047Y-80540476D01*
X226129761Y-80540476D01*
X225977380Y-80502380D01*
X225901190Y-80464285D01*
X225825000Y-80388095D01*
X225786904Y-80273809D01*
X225786904Y-80197619D01*
X225825000Y-80083333D01*
X225863095Y-80045238D01*
X225786904Y-79473809D02*
X226358333Y-79473809D01*
X226472619Y-79511904D01*
X226548809Y-79588095D01*
X226586904Y-79702380D01*
X226586904Y-79778571D01*
X226586904Y-78711904D02*
X226586904Y-79092857D01*
X225786904Y-79092857D01*
X226510714Y-77988095D02*
X226548809Y-78026190D01*
X226586904Y-78140476D01*
X226586904Y-78216666D01*
X226548809Y-78330952D01*
X226472619Y-78407142D01*
X226396428Y-78445238D01*
X226244047Y-78483333D01*
X226129761Y-78483333D01*
X225977380Y-78445238D01*
X225901190Y-78407142D01*
X225825000Y-78330952D01*
X225786904Y-78216666D01*
X225786904Y-78140476D01*
X225825000Y-78026190D01*
X225863095Y-77988095D01*
X116827951Y-136677180D02*
X117209381Y-137223948D01*
X116414716Y-136500967D02*
X116628118Y-137223015D01*
X117135831Y-136868829D01*
X117223058Y-135995121D02*
X117301168Y-135940631D01*
X117406523Y-135925195D01*
X117472823Y-135937005D01*
X117566368Y-135987870D01*
X117714403Y-136116844D01*
X117850628Y-136312118D01*
X117920553Y-136495583D01*
X117935988Y-136600938D01*
X117924179Y-136667238D01*
X117873314Y-136760782D01*
X117795204Y-136815273D01*
X117689850Y-136830708D01*
X117623550Y-136818898D01*
X117530005Y-136768033D01*
X117381970Y-136639059D01*
X117245744Y-136443785D01*
X117175819Y-136260320D01*
X117160384Y-136154965D01*
X117172194Y-136088666D01*
X117223058Y-135995121D01*
X117965101Y-135477465D02*
X117914236Y-135571010D01*
X117929671Y-135676365D01*
X118023216Y-135727229D01*
X118128571Y-135711794D01*
X118179435Y-135618249D01*
X118164000Y-135512894D01*
X118070455Y-135462030D01*
X117965101Y-135477465D01*
X87891841Y-123788445D02*
X88352429Y-124270423D01*
X87456513Y-123677525D02*
X87777865Y-124358426D01*
X88225416Y-123930737D01*
X88177952Y-123053969D02*
X88246806Y-122988170D01*
X88348559Y-122956799D01*
X88415885Y-122958327D01*
X88516111Y-122994282D01*
X88682134Y-123099091D01*
X88846630Y-123271226D01*
X88943800Y-123441833D01*
X88975171Y-123543586D01*
X88973643Y-123610912D01*
X88937689Y-123711138D01*
X88868835Y-123776936D01*
X88767081Y-123808307D01*
X88699755Y-123806779D01*
X88599530Y-123770825D01*
X88433506Y-123666016D01*
X88269010Y-123493881D01*
X88171841Y-123323273D01*
X88140469Y-123221520D01*
X88141997Y-123154194D01*
X88177952Y-123053969D01*
X88832065Y-122428885D02*
X88796110Y-122529110D01*
X88827482Y-122630863D01*
X88927707Y-122666818D01*
X89029460Y-122635447D01*
X89065415Y-122535221D01*
X89034044Y-122433468D01*
X88933818Y-122397513D01*
X88832065Y-122428885D01*
X121897070Y-132974147D02*
X122433721Y-132665559D01*
X122334655Y-133161968D01*
X122458497Y-133090756D01*
X122564797Y-133084562D01*
X122629815Y-133102105D01*
X122718571Y-133160929D01*
X122837258Y-133367333D01*
X122843452Y-133473632D01*
X122825909Y-133538650D01*
X122767085Y-133627406D01*
X122519400Y-133769831D01*
X122413101Y-133776026D01*
X122348083Y-133758482D01*
X123218056Y-132214547D02*
X122805248Y-132451922D01*
X123001342Y-132888467D01*
X123018885Y-132823449D01*
X123077709Y-132734693D01*
X123284113Y-132616006D01*
X123390413Y-132609811D01*
X123455431Y-132627355D01*
X123544187Y-132686179D01*
X123662874Y-132892583D01*
X123669068Y-132998882D01*
X123651525Y-133063900D01*
X123592701Y-133152656D01*
X123386297Y-133271344D01*
X123279998Y-133277538D01*
X123214980Y-133259995D01*
X123754706Y-131905959D02*
X123695882Y-131994715D01*
X123702076Y-132101014D01*
X123790832Y-132159838D01*
X123897131Y-132153644D01*
X123955955Y-132064888D01*
X123949761Y-131958589D01*
X123861005Y-131899765D01*
X123754706Y-131905959D01*
X94197439Y-117707726D02*
X94680562Y-117320671D01*
X94658607Y-117826393D01*
X94770097Y-117737072D01*
X94874197Y-117714689D01*
X94941134Y-117722078D01*
X95037844Y-117766632D01*
X95186711Y-117952448D01*
X95209095Y-118056549D01*
X95201705Y-118123485D01*
X95157152Y-118220196D01*
X94934172Y-118398836D01*
X94830071Y-118421220D01*
X94763135Y-118413830D01*
X95386666Y-116754976D02*
X95015033Y-117052710D01*
X95275604Y-117454117D01*
X95282994Y-117387180D01*
X95327547Y-117290470D01*
X95513364Y-117141603D01*
X95617464Y-117119219D01*
X95684401Y-117126609D01*
X95781111Y-117171162D01*
X95929978Y-117356979D01*
X95952362Y-117461079D01*
X95944972Y-117528016D01*
X95900419Y-117624727D01*
X95714602Y-117773594D01*
X95610502Y-117795977D01*
X95543565Y-117788587D01*
X95869790Y-116367921D02*
X95825237Y-116464631D01*
X95847620Y-116568731D01*
X95944330Y-116613284D01*
X96048431Y-116590901D01*
X96092984Y-116494191D01*
X96070600Y-116390090D01*
X95973890Y-116345537D01*
X95869790Y-116367921D01*
X134217682Y-127143474D02*
X134246249Y-127082490D01*
X134319592Y-127005297D01*
X134543470Y-126924255D01*
X134649230Y-126936613D01*
X134710214Y-126965180D01*
X134787407Y-127038523D01*
X134819824Y-127128074D01*
X134823674Y-127278610D01*
X134480869Y-128010420D01*
X135062952Y-127799709D01*
X135573310Y-126551458D02*
X135125553Y-126713543D01*
X135242863Y-127177508D01*
X135271430Y-127116524D01*
X135344773Y-127039331D01*
X135568651Y-126958289D01*
X135674411Y-126970647D01*
X135735395Y-126999214D01*
X135812588Y-127072557D01*
X135893631Y-127296435D01*
X135881272Y-127402195D01*
X135852705Y-127463179D01*
X135779362Y-127540372D01*
X135555484Y-127621414D01*
X135449724Y-127609056D01*
X135388740Y-127580489D01*
X136155393Y-126340747D02*
X136082050Y-126417940D01*
X136069691Y-126523699D01*
X136146884Y-126597042D01*
X136252644Y-126609401D01*
X136325987Y-126532208D01*
X136338345Y-126426448D01*
X136261152Y-126353105D01*
X136155393Y-126340747D01*
X109600168Y-107286322D02*
X109619069Y-107221685D01*
X109679739Y-107134181D01*
X109888583Y-107019842D01*
X109994989Y-107015875D01*
X110059625Y-107034776D01*
X110147130Y-107095446D01*
X110192865Y-107178984D01*
X110219700Y-107327159D01*
X109992887Y-108102798D01*
X110535882Y-107805517D01*
X110849267Y-106493883D02*
X110431578Y-106722561D01*
X110618487Y-107163117D01*
X110637388Y-107098481D01*
X110698058Y-107010976D01*
X110906903Y-106896637D01*
X111013308Y-106892671D01*
X111077945Y-106911572D01*
X111165449Y-106972242D01*
X111279788Y-107181086D01*
X111283755Y-107287491D01*
X111264854Y-107352128D01*
X111204184Y-107439633D01*
X110995340Y-107553972D01*
X110888934Y-107557938D01*
X110824297Y-107539037D01*
X111392262Y-106196602D02*
X111331592Y-106284106D01*
X111335559Y-106390512D01*
X111423063Y-106451182D01*
X111529469Y-106447215D01*
X111590139Y-106359711D01*
X111586172Y-106253305D01*
X111498668Y-106192635D01*
X111392262Y-106196602D01*
X142755520Y-125404553D02*
X142200825Y-125541826D01*
X142478172Y-125473190D02*
X142237944Y-124502473D01*
X142179813Y-124664026D01*
X142110243Y-124779354D01*
X142029233Y-124848458D01*
X143217766Y-125290159D02*
X143402664Y-125244401D01*
X143483674Y-125175298D01*
X143518459Y-125117634D01*
X143576590Y-124956081D01*
X143577057Y-124759743D01*
X143485542Y-124389947D01*
X143416438Y-124308937D01*
X143358774Y-124274152D01*
X143254885Y-124250806D01*
X143069987Y-124296564D01*
X142988977Y-124365667D01*
X142954192Y-124423331D01*
X142930846Y-124527220D01*
X142988044Y-124758343D01*
X143057147Y-124839352D01*
X143114811Y-124874138D01*
X143218700Y-124897483D01*
X143403598Y-124851726D01*
X143484608Y-124782622D01*
X143519393Y-124724958D01*
X143542739Y-124621070D01*
X143994479Y-124067775D02*
X143913469Y-124136879D01*
X143890123Y-124240767D01*
X143959227Y-124321777D01*
X144063116Y-124345123D01*
X144144125Y-124276019D01*
X144167471Y-124172131D01*
X144098368Y-124091121D01*
X143994479Y-124067775D01*
X120452774Y-102956115D02*
X119925610Y-103176633D01*
X120189192Y-103066374D02*
X119803286Y-102143836D01*
X119770555Y-102312380D01*
X119719447Y-102436994D01*
X119649963Y-102517677D01*
X120892078Y-102772350D02*
X121067800Y-102698844D01*
X121137284Y-102618161D01*
X121162838Y-102555854D01*
X121195569Y-102387310D01*
X121165994Y-102193212D01*
X121018982Y-101841769D01*
X120938299Y-101772284D01*
X120875992Y-101746731D01*
X120769755Y-101739553D01*
X120594033Y-101813059D01*
X120524549Y-101893742D01*
X120498995Y-101956049D01*
X120491817Y-102062287D01*
X120583700Y-102281938D01*
X120664383Y-102351423D01*
X120726690Y-102376977D01*
X120832927Y-102384154D01*
X121008649Y-102310648D01*
X121078133Y-102229965D01*
X121103687Y-102167658D01*
X121110864Y-102061421D01*
X121472641Y-101445530D02*
X121403156Y-101526213D01*
X121395979Y-101632450D01*
X121476662Y-101701934D01*
X121582900Y-101709112D01*
X121652384Y-101628428D01*
X121659561Y-101522191D01*
X121578878Y-101452707D01*
X121472641Y-101445530D01*
X127887356Y-129754136D02*
X128448859Y-129493495D01*
X128306906Y-129979381D01*
X128436484Y-129919233D01*
X128542918Y-129922327D01*
X128606160Y-129945470D01*
X128689451Y-130011806D01*
X128789698Y-130227769D01*
X128786604Y-130334203D01*
X128763461Y-130397445D01*
X128697125Y-130480736D01*
X128437969Y-130601032D01*
X128331535Y-130597938D01*
X128268293Y-130574795D01*
X129010363Y-129232854D02*
X129096748Y-129192755D01*
X129203182Y-129195849D01*
X129266424Y-129218992D01*
X129349716Y-129285328D01*
X129473105Y-129438049D01*
X129573352Y-129654012D01*
X129610357Y-129846831D01*
X129607263Y-129953266D01*
X129584120Y-130016508D01*
X129517784Y-130099799D01*
X129431399Y-130139898D01*
X129324964Y-130136804D01*
X129261722Y-130113660D01*
X129178431Y-130047325D01*
X129055041Y-129894604D01*
X128954795Y-129678641D01*
X128917790Y-129485821D01*
X128920884Y-129379387D01*
X128944027Y-129316145D01*
X129010363Y-129232854D01*
X129831022Y-128851916D02*
X129764686Y-128935208D01*
X129761592Y-129041642D01*
X129844883Y-129107978D01*
X129951318Y-129111072D01*
X130017653Y-129027781D01*
X130020747Y-128921346D01*
X129937456Y-128855010D01*
X129831022Y-128851916D01*
X101623687Y-112131627D02*
X102138706Y-111788152D01*
X102072757Y-112290035D01*
X102191608Y-112210771D01*
X102297263Y-112197546D01*
X102363301Y-112210741D01*
X102455760Y-112263554D01*
X102587866Y-112461638D01*
X102601091Y-112567293D01*
X102587895Y-112633331D01*
X102535083Y-112725790D01*
X102297382Y-112884317D01*
X102191727Y-112897543D01*
X102125689Y-112884347D01*
X102653725Y-111444676D02*
X102732959Y-111391834D01*
X102838614Y-111378609D01*
X102904652Y-111391804D01*
X102997111Y-111444617D01*
X103142412Y-111576663D01*
X103274518Y-111774747D01*
X103340586Y-111959636D01*
X103353811Y-112065291D01*
X103340616Y-112131329D01*
X103287803Y-112223788D01*
X103208569Y-112276631D01*
X103102915Y-112289856D01*
X103036876Y-112276660D01*
X102944417Y-112223848D01*
X102799116Y-112091801D01*
X102667010Y-111893717D01*
X102600942Y-111708829D01*
X102587717Y-111603174D01*
X102600912Y-111537136D01*
X102653725Y-111444676D01*
X103406445Y-110942674D02*
X103353633Y-111035134D01*
X103366858Y-111140788D01*
X103459317Y-111193601D01*
X103564972Y-111180375D01*
X103617785Y-111087916D01*
X103604559Y-110982261D01*
X103512100Y-110929449D01*
X103406445Y-110942674D01*
X161795521Y-122028206D02*
X161319332Y-122027375D01*
X161270882Y-122503481D01*
X161318584Y-122455946D01*
X161413905Y-122408493D01*
X161652000Y-122408908D01*
X161747154Y-122456694D01*
X161794690Y-122504396D01*
X161842143Y-122599717D01*
X161841727Y-122837812D01*
X161793942Y-122932966D01*
X161746240Y-122980502D01*
X161650919Y-123027955D01*
X161412824Y-123027540D01*
X161317669Y-122979754D01*
X161270134Y-122932052D01*
X162414568Y-122029286D02*
X162319247Y-122076739D01*
X162271462Y-122171894D01*
X162318915Y-122267215D01*
X162414069Y-122315000D01*
X162509390Y-122267547D01*
X162557176Y-122172393D01*
X162509723Y-122077072D01*
X162414568Y-122029286D01*
X154658667Y-123354777D02*
X154089327Y-123403586D01*
X154373997Y-123379182D02*
X154288580Y-122382836D01*
X154205893Y-122533306D01*
X154119138Y-122636331D01*
X154028315Y-122691911D01*
X155190036Y-122305554D02*
X155284926Y-122297419D01*
X155383883Y-122336729D01*
X155435396Y-122380107D01*
X155490976Y-122470930D01*
X155554690Y-122656642D01*
X155575028Y-122893867D01*
X155543853Y-123087715D01*
X155504543Y-123186672D01*
X155461165Y-123238185D01*
X155370343Y-123293765D01*
X155275453Y-123301900D01*
X155176495Y-123262590D01*
X155124983Y-123219212D01*
X155069403Y-123128389D01*
X155005688Y-122942677D01*
X154985350Y-122705452D01*
X155016525Y-122511604D01*
X155055835Y-122412647D01*
X155099213Y-122361134D01*
X155190036Y-122305554D01*
X156091491Y-122228272D02*
X156000668Y-122283852D01*
X155961358Y-122382810D01*
X156016938Y-122473632D01*
X156115896Y-122512942D01*
X156206718Y-122457363D01*
X156246028Y-122358405D01*
X156190448Y-122267582D01*
X156091491Y-122228272D01*
X112807023Y-71936755D02*
X112473690Y-71460565D01*
X112235595Y-71936755D02*
X112235595Y-70936755D01*
X112616547Y-70936755D01*
X112711785Y-70984375D01*
X112759404Y-71031994D01*
X112807023Y-71127232D01*
X112807023Y-71270089D01*
X112759404Y-71365327D01*
X112711785Y-71412946D01*
X112616547Y-71460565D01*
X112235595Y-71460565D01*
X113235595Y-71412946D02*
X113568928Y-71412946D01*
X113711785Y-71936755D02*
X113235595Y-71936755D01*
X113235595Y-70936755D01*
X113711785Y-70936755D01*
X114092738Y-71889136D02*
X114235595Y-71936755D01*
X114473690Y-71936755D01*
X114568928Y-71889136D01*
X114616547Y-71841517D01*
X114664166Y-71746279D01*
X114664166Y-71651041D01*
X114616547Y-71555803D01*
X114568928Y-71508184D01*
X114473690Y-71460565D01*
X114283214Y-71412946D01*
X114187976Y-71365327D01*
X114140357Y-71317708D01*
X114092738Y-71222470D01*
X114092738Y-71127232D01*
X114140357Y-71031994D01*
X114187976Y-70984375D01*
X114283214Y-70936755D01*
X114521309Y-70936755D01*
X114664166Y-70984375D01*
X115092738Y-71412946D02*
X115426071Y-71412946D01*
X115568928Y-71936755D02*
X115092738Y-71936755D01*
X115092738Y-70936755D01*
X115568928Y-70936755D01*
X115854642Y-70936755D02*
X116426071Y-70936755D01*
X116140357Y-71936755D02*
X116140357Y-70936755D01*
X148010312Y-124262112D02*
X147447393Y-124360358D01*
X147728853Y-124311235D02*
X147556923Y-123326126D01*
X147487665Y-123483230D01*
X147410219Y-123593424D01*
X147324586Y-123656708D01*
X148729673Y-123121448D02*
X148260573Y-123203319D01*
X148295534Y-123680606D01*
X148334257Y-123625509D01*
X148419890Y-123562225D01*
X148654440Y-123521289D01*
X148756447Y-123551825D01*
X148811544Y-123590548D01*
X148874828Y-123676181D01*
X148915763Y-123910731D01*
X148885228Y-124012738D01*
X148846505Y-124067835D01*
X148760872Y-124131119D01*
X148526322Y-124172054D01*
X148424315Y-124141519D01*
X148369218Y-124102796D01*
X149339502Y-123015016D02*
X149253869Y-123078300D01*
X149223334Y-123180307D01*
X149286618Y-123265940D01*
X149388625Y-123296476D01*
X149474258Y-123233192D01*
X149504793Y-123131184D01*
X149441509Y-123045552D01*
X149339502Y-123015016D01*
%LPC*%
D16*
X105131100Y-43120000D03*
X105131100Y-61049700D03*
D17*
X232220381Y-136740000D03*
X98638899Y-159529137D03*
X232220381Y-37928844D03*
X98638899Y-34932171D03*
D18*
X124026250Y-111075000D03*
X169050000Y-104050000D03*
X105500000Y-99000000D03*
X157143750Y-21659375D03*
D19*
X171431250Y-47306250D03*
X166668750Y-42543750D03*
D16*
X169050000Y-44925000D03*
D19*
X228581250Y-103406250D03*
X223818750Y-98643750D03*
D16*
X226200000Y-101025000D03*
D19*
X190481250Y-120501250D03*
X185718750Y-115738750D03*
D16*
X188100000Y-118120000D03*
D19*
X209531250Y-65306250D03*
X204768750Y-60543750D03*
D16*
X207150000Y-62925000D03*
D19*
X152381250Y-101431250D03*
X147618750Y-96668750D03*
D16*
X150000000Y-99050000D03*
D19*
X133331250Y-56306250D03*
X128568750Y-51543750D03*
D16*
X130950000Y-53925000D03*
D19*
X113794605Y-137483384D03*
X109694479Y-132139996D03*
D16*
X111744542Y-134811690D03*
D18*
X103756250Y-67912500D03*
X103756250Y-30157500D03*
X103756250Y-84581250D03*
X120043750Y-84581250D03*
X120043750Y-67912500D03*
X120043750Y-30157500D03*
D16*
X109715000Y-71482500D03*
M02*
