%TF.GenerationSoftware,KiCad,Pcbnew,5.1.12-84ad8e8a86~92~ubuntu20.04.1*%
%TF.CreationDate,2021-11-14T20:34:32+01:00*%
%TF.ProjectId,LergoBottomPlate,4c657267-6f42-46f7-9474-6f6d506c6174,v1.A*%
%TF.SameCoordinates,Original*%
%TF.FileFunction,Profile,NP*%
%FSLAX46Y46*%
G04 Gerber Fmt 4.6, Leading zero omitted, Abs format (unit mm)*
G04 Created by KiCad (PCBNEW 5.1.12-84ad8e8a86~92~ubuntu20.04.1) date 2021-11-14 20:34:32*
%MOMM*%
%LPD*%
G01*
G04 APERTURE LIST*
%TA.AperFunction,Profile*%
%ADD10C,0.150000*%
%TD*%
G04 APERTURE END LIST*
D10*
X138873750Y-92025000D02*
X138873750Y-110206926D01*
X86208585Y-134229858D02*
X86211497Y-134232392D01*
X84794378Y-132815642D02*
X84797283Y-132818178D01*
X79473420Y-127494658D02*
X79476305Y-127497200D01*
X78062091Y-126082986D02*
X78059211Y-126080443D01*
X118929276Y-96869708D02*
G75*
G02*
X119580412Y-98760746I325568J-945519D01*
G01*
X133010941Y-121957239D02*
G75*
G02*
X133856177Y-123769855I422618J-906308D01*
G01*
X112409967Y-110544283D02*
G75*
G02*
X113255203Y-112356899I422618J-906308D01*
G01*
X108059329Y-136496902D02*
G75*
G03*
X109473543Y-137911116I707107J-707107D01*
G01*
X105002860Y-153023755D02*
G75*
G03*
X106417074Y-154437969I707107J-707107D01*
G01*
X91532475Y-139553371D02*
G75*
G03*
X92946689Y-140967585I707107J-707107D01*
G01*
X84797283Y-132818178D02*
G75*
G03*
X86211497Y-134232392I707107J-707107D01*
G01*
X78062091Y-126082986D02*
G75*
G03*
X79476305Y-127497200I707107J-707107D01*
G01*
X108057115Y-136494284D02*
G75*
G02*
X133010941Y-121957239I53703266J-63499316D01*
G01*
X109471338Y-137908498D02*
G75*
G02*
X133856177Y-123769855I52289043J-62085102D01*
G01*
X86208585Y-134229857D02*
G75*
G02*
X113255203Y-112356899I75551796J-65763743D01*
G01*
X84794377Y-132815642D02*
G75*
G02*
X112409967Y-110544283I76966004J-67177958D01*
G01*
X234214126Y-33343544D02*
G75*
G02*
X237220381Y-37928844I-1993745J-4585300D01*
G01*
X102174433Y-163064671D02*
G75*
G02*
X95103365Y-155993603I-3535534J3535534D01*
G01*
X73524849Y-127344017D02*
G75*
G02*
X73524848Y-125929806I707105J707106D01*
G01*
X196023750Y-122445000D02*
G75*
G02*
X194023750Y-122445000I-1000000J0D01*
G01*
X182176250Y-103395000D02*
G75*
G02*
X180176250Y-103395000I-1000000J0D01*
G01*
X194023750Y-89025000D02*
X194023750Y-122445000D01*
X180176250Y-89025000D02*
X180176250Y-103395000D01*
X182176250Y-103395000D02*
X182176250Y-89025000D01*
X196023750Y-122445000D02*
X196023750Y-89025000D01*
X218276250Y-62925000D02*
X218276250Y-31716945D01*
X220276250Y-62925000D02*
X220276250Y-31716945D01*
X232123750Y-62925000D02*
X232123750Y-50766945D01*
X234123750Y-62925000D02*
X234123750Y-50766945D01*
X199226250Y-62925000D02*
X199226250Y-26492464D01*
X201226250Y-62925000D02*
X201226250Y-26492464D01*
X213073750Y-62925000D02*
X213073750Y-45542464D01*
X215073750Y-62925000D02*
X215073750Y-45542464D01*
X232123750Y-127643750D02*
X232123750Y-101025000D01*
X234123750Y-101025000D02*
X234123750Y-127643750D01*
X213073750Y-127643750D02*
X213073750Y-101025000D01*
X215073750Y-101025000D02*
X215073750Y-127643750D01*
X218276250Y-108595000D02*
X218276250Y-101025000D01*
X220276250Y-101025000D02*
X220276250Y-108595000D01*
X199226250Y-108595000D02*
X199226250Y-101025000D01*
X201226250Y-101025000D02*
X201226250Y-108595000D01*
X220276250Y-108595000D02*
G75*
G02*
X218276250Y-108595000I-1000000J0D01*
G01*
X201226250Y-108595000D02*
G75*
G02*
X199226250Y-108595000I-1000000J0D01*
G01*
X234123750Y-127643750D02*
G75*
G02*
X232123750Y-127643750I-1000000J0D01*
G01*
X215073750Y-127643750D02*
G75*
G02*
X213073750Y-127643750I-1000000J0D01*
G01*
X78059211Y-126080443D02*
G75*
G02*
X118929276Y-96869708I83701170J-73913157D01*
G01*
X79473420Y-127494658D02*
G75*
G02*
X119580412Y-98760746I82286961J-72498942D01*
G01*
X136873750Y-92025000D02*
X136873753Y-110740587D01*
X91530575Y-139551736D02*
G75*
G02*
X136873753Y-110740587I70229806J-60441864D01*
G01*
X92944792Y-140965958D02*
G75*
G02*
X136873800Y-112812720I68815589J-59027642D01*
G01*
X138873750Y-118120000D02*
X138873750Y-112266453D01*
X136873750Y-118120000D02*
X136873800Y-112812720D01*
X125026250Y-99070000D02*
X125026250Y-92025000D01*
X123026250Y-92025000D02*
X123026250Y-99070000D01*
X136873750Y-45385557D02*
X136873750Y-53925000D01*
X138873750Y-53925000D02*
X138873750Y-45385557D01*
X123026250Y-53925000D02*
X123026250Y-26335557D01*
X125026250Y-26335557D02*
X125026250Y-53925000D01*
X142076250Y-23337715D02*
X142076250Y-51425000D01*
X144076250Y-51425000D02*
X144076250Y-23337715D01*
X155923750Y-42387715D02*
X155923750Y-51425000D01*
X157923750Y-51425000D02*
X157923750Y-42387715D01*
X180176250Y-23414850D02*
X180176250Y-50925000D01*
X182176250Y-50925000D02*
X182176250Y-23414850D01*
X194023750Y-50925000D02*
X194023750Y-42464850D01*
X196023750Y-50925000D02*
X196023750Y-42464850D01*
X161126250Y-44925000D02*
X161126250Y-22375000D01*
X163126250Y-44925000D02*
X163126250Y-22375000D01*
X174973750Y-44925000D02*
X174973750Y-41400750D01*
X176973750Y-44925000D02*
X176973750Y-41400750D01*
X142076250Y-70475000D02*
X142076250Y-89525000D01*
X144076250Y-70475000D02*
X144076250Y-89525000D01*
X155923750Y-70475000D02*
X155923750Y-103395000D01*
X157923750Y-103395000D02*
X157923750Y-70475000D01*
X157923750Y-103395000D02*
G75*
G02*
X155923750Y-103395000I-1000000J0D01*
G01*
X161126250Y-89545000D02*
X161126250Y-83025000D01*
X163126250Y-83025000D02*
X163126250Y-89545000D01*
X174973750Y-103395000D02*
X174973750Y-83025000D01*
X176973750Y-83025000D02*
X176973750Y-103395000D01*
X195023749Y-128645000D02*
X168683749Y-128645001D01*
X168683749Y-126645000D02*
X195023750Y-126645000D01*
X154836251Y-109595001D02*
X181176250Y-109595000D01*
X154836251Y-107595001D02*
X181176250Y-107595000D01*
X138873750Y-110206926D02*
G75*
G02*
X154836251Y-107595001I22886631J-89786674D01*
G01*
X138873750Y-112266453D02*
G75*
G02*
X154836251Y-109595001I22886631J-87727147D01*
G01*
X181176250Y-107595000D02*
G75*
G02*
X181176250Y-109595000I0J-1000000D01*
G01*
X195023750Y-126645000D02*
G75*
G02*
X195023749Y-128645000I0J-1000000D01*
G01*
X105000938Y-153022165D02*
G75*
G02*
X168683749Y-126645000I56759443J-46971435D01*
G01*
X106415144Y-154436380D02*
G75*
G02*
X168683749Y-128645001I55345237J-45557220D01*
G01*
X125026250Y-99070000D02*
G75*
G02*
X123026250Y-99070000I-1000000J0D01*
G01*
X138873750Y-118120000D02*
G75*
G02*
X136873750Y-118120000I-1000000J0D01*
G01*
X144076250Y-89525000D02*
G75*
G02*
X142076250Y-89525000I-1000000J0D01*
G01*
X163126250Y-89545000D02*
G75*
G02*
X161126250Y-89545000I-1000000J0D01*
G01*
X176973750Y-103395000D02*
G75*
G02*
X174973750Y-103395000I-1000000J0D01*
G01*
X232123750Y-50766945D02*
G75*
G02*
X234123750Y-50766945I1000000J0D01*
G01*
X218276250Y-31716945D02*
G75*
G02*
X220276250Y-31716945I1000000J0D01*
G01*
X213073750Y-45542464D02*
G75*
G02*
X215073750Y-45542464I1000000J0D01*
G01*
X199226250Y-26492464D02*
G75*
G02*
X201226250Y-26492464I1000000J0D01*
G01*
X194023750Y-42464850D02*
G75*
G02*
X196023750Y-42464850I1000000J0D01*
G01*
X180176250Y-23414850D02*
G75*
G02*
X182176250Y-23414850I1000000J0D01*
G01*
X174973750Y-41400750D02*
G75*
G02*
X176973750Y-41400750I1000000J0D01*
G01*
X161126250Y-22375000D02*
G75*
G02*
X163126250Y-22375000I1000000J0D01*
G01*
X155923750Y-42387715D02*
G75*
G02*
X157923750Y-42387715I1000000J0D01*
G01*
X142076250Y-23337715D02*
G75*
G02*
X144076250Y-23337715I1000000J0D01*
G01*
X136873750Y-45385557D02*
G75*
G02*
X138873750Y-45385557I1000000J0D01*
G01*
X123026250Y-26335557D02*
G75*
G02*
X125026250Y-26335557I1000000J0D01*
G01*
X95103365Y-148922535D02*
G75*
G02*
X95103365Y-155993603I-3535534J-3535534D01*
G01*
X98641295Y-39932170D02*
G75*
G02*
X101614896Y-42905771I0J-2973601D01*
G01*
X98641295Y-39932170D02*
G75*
G02*
X96852971Y-30262004I-2396J4999999D01*
G01*
X222220381Y-131740000D02*
G75*
G02*
X227220381Y-136740000I0J-5000000D01*
G01*
X237220381Y-136740000D02*
G75*
G02*
X227220381Y-136740000I-5000000J0D01*
G01*
X101614896Y-101696929D02*
G75*
G02*
X101143092Y-102545766I-1000000J286D01*
G01*
X101614896Y-42905771D02*
X101614896Y-101696929D01*
X96852971Y-30262005D02*
G75*
G02*
X234214126Y-33343544I64907410J-169731595D01*
G01*
X80612709Y-118841943D02*
G75*
G02*
X101143092Y-102545766I81147672J-81151657D01*
G01*
X73524848Y-125929806D02*
X80612709Y-118841943D01*
X95103365Y-148922535D02*
X73524849Y-127344017D01*
X113500343Y-151733562D02*
X102174433Y-163064671D01*
X113500343Y-151733562D02*
G75*
G02*
X161760381Y-131743600I48260038J-48260038D01*
G01*
X161760381Y-131743600D02*
X222220381Y-131740000D01*
X237220381Y-37928844D02*
X237220381Y-136740000D01*
X199226250Y-62925000D02*
X199226250Y-81975000D01*
X215073750Y-62925000D02*
X215073750Y-81975000D01*
X201226250Y-62925000D02*
X201226250Y-81975000D01*
X213073750Y-62925000D02*
X213073750Y-81975000D01*
X218276250Y-81975000D02*
X218276250Y-101025000D01*
X234123750Y-81975000D02*
X234123750Y-101025000D01*
X220276250Y-81975000D02*
X220276250Y-101025000D01*
X232123750Y-81975000D02*
X232123750Y-101025000D01*
X199226250Y-81975000D02*
X199226250Y-101025000D01*
X215073750Y-81975000D02*
X215073750Y-101025000D01*
X201226250Y-81975000D02*
X201226250Y-101025000D01*
X213073750Y-81975000D02*
X213073750Y-101025000D01*
X180176250Y-69975000D02*
X180176250Y-89025000D01*
X196023750Y-69975000D02*
X196023750Y-89025000D01*
X182176250Y-69975000D02*
X182176250Y-89025000D01*
X194023750Y-69975000D02*
X194023750Y-89025000D01*
X161126250Y-63975000D02*
X161126250Y-83025000D01*
X176973750Y-63975000D02*
X176973750Y-83025000D01*
X163126250Y-63975000D02*
X163126250Y-83025000D01*
X174973750Y-63975000D02*
X174973750Y-83025000D01*
X123026250Y-53925000D02*
X123026250Y-72975000D01*
X138873750Y-53925000D02*
X138873750Y-72975000D01*
X125026250Y-53925000D02*
X125026250Y-72975000D01*
X136873750Y-53925000D02*
X136873750Y-72975000D01*
X142076250Y-51425000D02*
X142076250Y-70475000D01*
X157923750Y-51425000D02*
X157923750Y-70475000D01*
X144076250Y-51425000D02*
X144076250Y-70475000D01*
X155923750Y-51425000D02*
X155923750Y-70475000D01*
X161126250Y-44925000D02*
X161126250Y-63975000D01*
X176973750Y-44925000D02*
X176973750Y-63975000D01*
X163126250Y-44925000D02*
X163126250Y-63975000D01*
X174973750Y-44925000D02*
X174973750Y-63975000D01*
X180176250Y-50925000D02*
X180176250Y-69975000D01*
X196023750Y-50925000D02*
X196023750Y-69975000D01*
X182176250Y-50925000D02*
X182176250Y-69975000D01*
X194023750Y-50925000D02*
X194023750Y-69975000D01*
X218276250Y-62925000D02*
X218276250Y-81975000D01*
X234123750Y-62925000D02*
X234123750Y-81975000D01*
X220276250Y-62925000D02*
X220276250Y-81975000D01*
X232123750Y-62925000D02*
X232123750Y-81975000D01*
X123026250Y-72975000D02*
X123026250Y-92025000D01*
X138873750Y-72975000D02*
X138873750Y-92025000D01*
X125026250Y-72975000D02*
X125026250Y-92025000D01*
X136873750Y-72975000D02*
X136873750Y-92025000D01*
M02*
