M48
; DRILL file {KiCad 5.1.12-84ad8e8a86~92~ubuntu20.04.1} date dim. 14 nov. 2021 19:57:36
; FORMAT={-:-/ absolute / metric / decimal}
; #@! TF.CreationDate,2021-11-14T19:57:36+01:00
; #@! TF.GenerationSoftware,Kicad,Pcbnew,5.1.12-84ad8e8a86~92~ubuntu20.04.1
; #@! TF.FileFunction,NonPlated,1,2,NPTH
FMAT,2
METRIC
T1C1.200
T2C2.000
T3C2.500
T4C5.300
%
G90
G05
T1
X109.694Y-132.14
X113.795Y-137.483
X128.569Y-51.544
X133.331Y-56.306
X147.619Y-96.669
X152.381Y-101.431
X166.669Y-42.544
X171.431Y-47.306
X185.719Y-115.739
X190.481Y-120.501
X204.769Y-60.544
X209.531Y-65.306
X223.819Y-98.644
X228.581Y-103.406
T2
X103.756Y-30.157
X103.756Y-67.912
X103.756Y-84.581
X105.5Y-99.0
X120.044Y-30.157
X120.044Y-67.912
X120.044Y-84.581
X124.026Y-111.075
X157.144Y-21.659
X169.05Y-104.05
T3
X105.131Y-43.12
X105.131Y-61.05
X109.715Y-71.483
X111.745Y-134.812
X130.95Y-53.925
X150.0Y-99.05
X169.05Y-44.925
X188.1Y-118.12
X207.15Y-62.925
X226.2Y-101.025
T4
X98.639Y-34.932
X98.639Y-159.529
X232.22Y-37.929
X232.22Y-136.74
T0
M30
