%FSLAX45Y45*%
G04 Gerber Fmt 4.5, Leading zero omitted, Abs format (unit mm)*
G04 Created by KiCad (PCBNEW 5.1.12-84ad8e8a86~92~ubuntu20.04.1) date 2021-11-14 19:57:37*
%MOMM*%
%LPD*%
G01*
G04 APERTURE LIST*
%TA.AperFunction,Profile*%
%ADD10C,0.150000*%
%TD*%
%ADD11C,0.200000*%
%ADD12C,0.300000*%
G04 APERTURE END LIST*
D10*
X13887375Y-9202500D02*
X13887375Y-11020693D01*
X8620859Y-13422986D02*
X8621150Y-13423239D01*
X8479438Y-13281564D02*
X8479728Y-13281818D01*
X7947342Y-12749466D02*
X7947630Y-12749720D01*
X7806209Y-12608299D02*
X7805921Y-12608044D01*
X11892928Y-9686971D02*
G75*
G02*
X11958041Y-9876075I32557J-94552D01*
G01*
X13301094Y-12195724D02*
G75*
G02*
X13385618Y-12376985I42262J-90631D01*
G01*
X11240997Y-11054428D02*
G75*
G02*
X11325520Y-11235690I42262J-90631D01*
G01*
X10805933Y-13649690D02*
G75*
G03*
X10947354Y-13791112I70711J-70711D01*
G01*
X10500286Y-15302375D02*
G75*
G03*
X10641707Y-15443797I70711J-70711D01*
G01*
X9153248Y-13955337D02*
G75*
G03*
X9294669Y-14096758I70711J-70711D01*
G01*
X8479728Y-13281818D02*
G75*
G03*
X8621150Y-13423239I70711J-70711D01*
G01*
X7806209Y-12608299D02*
G75*
G03*
X7947630Y-12749720I70711J-70711D01*
G01*
X10805712Y-13649428D02*
G75*
G02*
X13301094Y-12195724I5370327J-6349932D01*
G01*
X10947134Y-13790850D02*
G75*
G02*
X13385618Y-12376985I5228904J-6208510D01*
G01*
X8620859Y-13422986D02*
G75*
G02*
X11325520Y-11235690I7555180J-6576374D01*
G01*
X8479438Y-13281564D02*
G75*
G02*
X11240997Y-11054428I7696600J-6717796D01*
G01*
X23421413Y-3334354D02*
G75*
G02*
X23722038Y-3792884I-199375J-458530D01*
G01*
X10217443Y-16306467D02*
G75*
G02*
X9510337Y-15599360I-353553J353553D01*
G01*
X7352485Y-12734402D02*
G75*
G02*
X7352485Y-12592981I70711J70711D01*
G01*
X19602375Y-12244500D02*
G75*
G02*
X19402375Y-12244500I-100000J0D01*
G01*
X18217625Y-10339500D02*
G75*
G02*
X18017625Y-10339500I-100000J0D01*
G01*
X19402375Y-8902500D02*
X19402375Y-12244500D01*
X18017625Y-8902500D02*
X18017625Y-10339500D01*
X18217625Y-10339500D02*
X18217625Y-8902500D01*
X19602375Y-12244500D02*
X19602375Y-8902500D01*
X21827625Y-6292500D02*
X21827625Y-3171694D01*
X22027625Y-6292500D02*
X22027625Y-3171694D01*
X23212375Y-6292500D02*
X23212375Y-5076695D01*
X23412375Y-6292500D02*
X23412375Y-5076695D01*
X19922625Y-6292500D02*
X19922625Y-2649246D01*
X20122625Y-6292500D02*
X20122625Y-2649246D01*
X21307375Y-6292500D02*
X21307375Y-4554246D01*
X21507375Y-6292500D02*
X21507375Y-4554246D01*
X23212375Y-12764375D02*
X23212375Y-10102500D01*
X23412375Y-10102500D02*
X23412375Y-12764375D01*
X21307375Y-12764375D02*
X21307375Y-10102500D01*
X21507375Y-10102500D02*
X21507375Y-12764375D01*
X21827625Y-10859500D02*
X21827625Y-10102500D01*
X22027625Y-10102500D02*
X22027625Y-10859500D01*
X19922625Y-10859500D02*
X19922625Y-10102500D01*
X20122625Y-10102500D02*
X20122625Y-10859500D01*
X22027625Y-10859500D02*
G75*
G02*
X21827625Y-10859500I-100000J0D01*
G01*
X20122625Y-10859500D02*
G75*
G02*
X19922625Y-10859500I-100000J0D01*
G01*
X23412375Y-12764375D02*
G75*
G02*
X23212375Y-12764375I-100000J0D01*
G01*
X21507375Y-12764375D02*
G75*
G02*
X21307375Y-12764375I-100000J0D01*
G01*
X7805921Y-12608044D02*
G75*
G02*
X11892928Y-9686971I8370117J-7391316D01*
G01*
X7947342Y-12749466D02*
G75*
G02*
X11958041Y-9876075I8228696J-7249894D01*
G01*
X13687375Y-9202500D02*
X13687375Y-11074059D01*
X9153058Y-13955174D02*
G75*
G02*
X13687375Y-11074059I7022981J-6044186D01*
G01*
X9294479Y-14096596D02*
G75*
G02*
X13687380Y-11281272I6881559J-5902764D01*
G01*
X13887375Y-11812000D02*
X13887375Y-11226645D01*
X13687375Y-11812000D02*
X13687380Y-11281272D01*
X12502625Y-9907000D02*
X12502625Y-9202500D01*
X12302625Y-9202500D02*
X12302625Y-9907000D01*
X13687375Y-4538556D02*
X13687375Y-5392500D01*
X13887375Y-5392500D02*
X13887375Y-4538556D01*
X12302625Y-5392500D02*
X12302625Y-2633556D01*
X12502625Y-2633556D02*
X12502625Y-5392500D01*
X14207625Y-2333772D02*
X14207625Y-5142500D01*
X14407625Y-5142500D02*
X14407625Y-2333772D01*
X15592375Y-4238772D02*
X15592375Y-5142500D01*
X15792375Y-5142500D02*
X15792375Y-4238772D01*
X18017625Y-2341485D02*
X18017625Y-5092500D01*
X18217625Y-5092500D02*
X18217625Y-2341485D01*
X19402375Y-5092500D02*
X19402375Y-4246485D01*
X19602375Y-5092500D02*
X19602375Y-4246485D01*
X16112625Y-4492500D02*
X16112625Y-2237500D01*
X16312625Y-4492500D02*
X16312625Y-2237500D01*
X17497375Y-4492500D02*
X17497375Y-4140075D01*
X17697375Y-4492500D02*
X17697375Y-4140075D01*
X14207625Y-7047500D02*
X14207625Y-8952500D01*
X14407625Y-7047500D02*
X14407625Y-8952500D01*
X15592375Y-7047500D02*
X15592375Y-10339500D01*
X15792375Y-10339500D02*
X15792375Y-7047500D01*
X15792375Y-10339500D02*
G75*
G02*
X15592375Y-10339500I-100000J0D01*
G01*
X16112625Y-8954500D02*
X16112625Y-8302500D01*
X16312625Y-8302500D02*
X16312625Y-8954500D01*
X17497375Y-10339500D02*
X17497375Y-8302500D01*
X17697375Y-8302500D02*
X17697375Y-10339500D01*
X19502375Y-12864500D02*
X16868375Y-12864500D01*
X16868375Y-12664500D02*
X19502375Y-12664500D01*
X15483625Y-10959500D02*
X18117625Y-10959500D01*
X15483625Y-10759500D02*
X18117625Y-10759500D01*
X13887375Y-11020693D02*
G75*
G02*
X15483625Y-10759500I2288663J-8978667D01*
G01*
X13887375Y-11226645D02*
G75*
G02*
X15483625Y-10959500I2288663J-8772715D01*
G01*
X18117625Y-10759500D02*
G75*
G02*
X18117625Y-10959500I0J-100000D01*
G01*
X19502375Y-12664500D02*
G75*
G02*
X19502375Y-12864500I0J-100000D01*
G01*
X10500094Y-15302216D02*
G75*
G02*
X16868375Y-12664500I5675944J-4697144D01*
G01*
X10641514Y-15443638D02*
G75*
G02*
X16868375Y-12864500I5534524J-4555722D01*
G01*
X12502625Y-9907000D02*
G75*
G02*
X12302625Y-9907000I-100000J0D01*
G01*
X13887375Y-11812000D02*
G75*
G02*
X13687375Y-11812000I-100000J0D01*
G01*
X14407625Y-8952500D02*
G75*
G02*
X14207625Y-8952500I-100000J0D01*
G01*
X16312625Y-8954500D02*
G75*
G02*
X16112625Y-8954500I-100000J0D01*
G01*
X17697375Y-10339500D02*
G75*
G02*
X17497375Y-10339500I-100000J0D01*
G01*
X23212375Y-5076695D02*
G75*
G02*
X23412375Y-5076695I100000J0D01*
G01*
X21827625Y-3171694D02*
G75*
G02*
X22027625Y-3171694I100000J0D01*
G01*
X21307375Y-4554246D02*
G75*
G02*
X21507375Y-4554246I100000J0D01*
G01*
X19922625Y-2649246D02*
G75*
G02*
X20122625Y-2649246I100000J0D01*
G01*
X19402375Y-4246485D02*
G75*
G02*
X19602375Y-4246485I100000J0D01*
G01*
X18017625Y-2341485D02*
G75*
G02*
X18217625Y-2341485I100000J0D01*
G01*
X17497375Y-4140075D02*
G75*
G02*
X17697375Y-4140075I100000J0D01*
G01*
X16112625Y-2237500D02*
G75*
G02*
X16312625Y-2237500I100000J0D01*
G01*
X15592375Y-4238772D02*
G75*
G02*
X15792375Y-4238772I100000J0D01*
G01*
X14207625Y-2333772D02*
G75*
G02*
X14407625Y-2333772I100000J0D01*
G01*
X13687375Y-4538556D02*
G75*
G02*
X13887375Y-4538556I100000J0D01*
G01*
X12302625Y-2633556D02*
G75*
G02*
X12502625Y-2633556I100000J0D01*
G01*
X9510337Y-14892253D02*
G75*
G02*
X9510337Y-15599360I-353553J-353553D01*
G01*
X9864130Y-3993217D02*
G75*
G02*
X10161490Y-4290577I0J-297360D01*
G01*
X9864130Y-3993217D02*
G75*
G02*
X9685297Y-3026200I-240J500000D01*
G01*
X22222038Y-13174000D02*
G75*
G02*
X22722038Y-13674000I0J-500000D01*
G01*
X23722038Y-13674000D02*
G75*
G02*
X22722038Y-13674000I-500000J0D01*
G01*
X10161490Y-10169693D02*
G75*
G02*
X10114309Y-10254577I-100000J29D01*
G01*
X10161490Y-4290577D02*
X10161490Y-10169693D01*
X9685297Y-3026200D02*
G75*
G02*
X23421413Y-3334354I6490741J-16973160D01*
G01*
X8061271Y-11884194D02*
G75*
G02*
X10114309Y-10254577I8114767J-8115166D01*
G01*
X7352485Y-12592981D02*
X8061271Y-11884194D01*
X9510337Y-14892253D02*
X7352485Y-12734402D01*
X11350034Y-15173356D02*
X10217443Y-16306467D01*
X11350034Y-15173356D02*
G75*
G02*
X16176038Y-13174360I4826004J-4826004D01*
G01*
X16176038Y-13174360D02*
X22222038Y-13174000D01*
X23722038Y-3792884D02*
X23722038Y-13674000D01*
D11*
D12*
X7602124Y-16926128D02*
X7602124Y-16626128D01*
X7673553Y-16626128D01*
X7716410Y-16640414D01*
X7744981Y-16668985D01*
X7759267Y-16697557D01*
X7773553Y-16754699D01*
X7773553Y-16797557D01*
X7759267Y-16854700D01*
X7744981Y-16883271D01*
X7716410Y-16911842D01*
X7673553Y-16926128D01*
X7602124Y-16926128D01*
X7902124Y-16926128D02*
X7902124Y-16726128D01*
X7902124Y-16783271D02*
X7916410Y-16754699D01*
X7930695Y-16740414D01*
X7959267Y-16726128D01*
X7987838Y-16726128D01*
X8087838Y-16926128D02*
X8087838Y-16726128D01*
X8087838Y-16626128D02*
X8073553Y-16640414D01*
X8087838Y-16654699D01*
X8102124Y-16640414D01*
X8087838Y-16626128D01*
X8087838Y-16654699D01*
X8273553Y-16926128D02*
X8244981Y-16911842D01*
X8230695Y-16883271D01*
X8230695Y-16626128D01*
X8430696Y-16926128D02*
X8402124Y-16911842D01*
X8387838Y-16883271D01*
X8387838Y-16626128D01*
X8773553Y-16926128D02*
X8773553Y-16626128D01*
X8873553Y-16840414D01*
X8973553Y-16626128D01*
X8973553Y-16926128D01*
X9244981Y-16926128D02*
X9244981Y-16768985D01*
X9230696Y-16740414D01*
X9202124Y-16726128D01*
X9144981Y-16726128D01*
X9116410Y-16740414D01*
X9244981Y-16911842D02*
X9216410Y-16926128D01*
X9144981Y-16926128D01*
X9116410Y-16911842D01*
X9102124Y-16883271D01*
X9102124Y-16854700D01*
X9116410Y-16826128D01*
X9144981Y-16811842D01*
X9216410Y-16811842D01*
X9244981Y-16797557D01*
X9387838Y-16726128D02*
X9387838Y-17026128D01*
X9387838Y-16740414D02*
X9416410Y-16726128D01*
X9473553Y-16726128D01*
X9502124Y-16740414D01*
X9516410Y-16754699D01*
X9530696Y-16783271D01*
X9530696Y-16868985D01*
X9516410Y-16897557D01*
X9502124Y-16911842D01*
X9473553Y-16926128D01*
X9416410Y-16926128D01*
X9387838Y-16911842D01*
X9659267Y-16897557D02*
X9673553Y-16911842D01*
X9659267Y-16926128D01*
X9644981Y-16911842D01*
X9659267Y-16897557D01*
X9659267Y-16926128D01*
X9659267Y-16740414D02*
X9673553Y-16754699D01*
X9659267Y-16768985D01*
X9644981Y-16754699D01*
X9659267Y-16740414D01*
X9659267Y-16768985D01*
M02*
