%TF.GenerationSoftware,KiCad,Pcbnew,5.1.12-84ad8e8a86~92~ubuntu20.04.1*%
%TF.CreationDate,2021-11-14T23:56:41+01:00*%
%TF.ProjectId,LergoTopPlate_LessRouting,4c657267-6f54-46f7-9050-6c6174655f4c,v1.A*%
%TF.SameCoordinates,Original*%
%TF.FileFunction,Legend,Bot*%
%TF.FilePolarity,Positive*%
%FSLAX46Y46*%
G04 Gerber Fmt 4.6, Leading zero omitted, Abs format (unit mm)*
G04 Created by KiCad (PCBNEW 5.1.12-84ad8e8a86~92~ubuntu20.04.1) date 2021-11-14 23:56:41*
%MOMM*%
%LPD*%
G01*
G04 APERTURE LIST*
%ADD10C,0.200000*%
%ADD11C,2.000000*%
%ADD12C,0.500000*%
%ADD13C,2.200000*%
%ADD14C,5.300000*%
%ADD15C,1.200000*%
%ADD16C,2.500000*%
G04 APERTURE END LIST*
D10*
X154860000Y-119620000D02*
X154860000Y-116620000D01*
X168660000Y-119620000D02*
X168660000Y-116620000D01*
%LPC*%
D11*
X171285000Y-125043750D03*
X190335000Y-111196250D03*
D12*
X173560000Y-118120000D03*
X188060000Y-118120000D03*
D11*
X173886250Y-108595000D03*
X187733750Y-127645000D03*
X152235000Y-111196250D03*
X171285000Y-125043750D03*
D12*
X154510000Y-118120000D03*
X169010000Y-118120000D03*
D11*
X154836250Y-127645000D03*
X168683750Y-108595000D03*
X133166555Y-130063080D03*
X147983445Y-111756920D03*
D12*
X133572038Y-122786438D03*
X147577962Y-119033562D03*
D11*
X131421920Y-113501555D03*
X149728080Y-128318445D03*
X216675000Y-117473750D03*
X235725000Y-103626250D03*
D12*
X218950000Y-110550000D03*
X233450000Y-110550000D03*
D11*
X219276250Y-101025000D03*
X233123750Y-120075000D03*
X216675000Y-98423750D03*
X235725000Y-84576250D03*
D12*
X218950000Y-91500000D03*
X233450000Y-91500000D03*
D11*
X219276250Y-81975000D03*
X233123750Y-101025000D03*
X216675000Y-79373750D03*
X235725000Y-65526250D03*
D12*
X218950000Y-72450000D03*
X233450000Y-72450000D03*
D11*
X219276250Y-62925000D03*
X233123750Y-81975000D03*
X216675000Y-60323750D03*
X235725000Y-46476250D03*
D12*
X218950000Y-53400000D03*
X233450000Y-53400000D03*
D11*
X219276250Y-43875000D03*
X233123750Y-62925000D03*
D13*
X132515357Y-128713975D03*
X151447503Y-123641122D03*
X129694229Y-118185384D03*
X148626375Y-113112531D03*
X87323251Y-117849006D03*
X101182543Y-131708298D03*
X79615787Y-125556470D03*
X93475079Y-139415762D03*
X106945463Y-152886146D03*
X93086171Y-139026854D03*
X114652927Y-145178682D03*
X100793635Y-131319390D03*
X111480544Y-123806366D03*
X101680544Y-106832268D03*
X120920220Y-118356366D03*
X111120220Y-101382268D03*
X132037431Y-128911939D03*
X115063333Y-138711939D03*
X126587431Y-119472263D03*
X109613333Y-129272263D03*
D12*
X138200000Y-44400000D03*
X123700000Y-44400000D03*
X157250000Y-60950000D03*
X142750000Y-60950000D03*
X214400000Y-72450000D03*
X199900000Y-72450000D03*
X214400000Y-91500000D03*
X199900000Y-91500000D03*
X195350000Y-79500000D03*
X180850000Y-79500000D03*
X176300000Y-73500000D03*
X161800000Y-73500000D03*
X138200000Y-82500000D03*
X123700000Y-82500000D03*
X157250000Y-80000000D03*
X142750000Y-80000000D03*
X138200000Y-101550000D03*
X123700000Y-101550000D03*
X138200000Y-63450000D03*
X123700000Y-63450000D03*
X157250000Y-41900000D03*
X142750000Y-41900000D03*
X176300000Y-92550000D03*
X161800000Y-92550000D03*
X176300000Y-54450000D03*
X161800000Y-54450000D03*
X176300000Y-35400000D03*
X161800000Y-35400000D03*
X195350000Y-98550000D03*
X180850000Y-98550000D03*
X195350000Y-60450000D03*
X180850000Y-60450000D03*
X195350000Y-41400000D03*
X180850000Y-41400000D03*
X214400000Y-110550000D03*
X199900000Y-110550000D03*
X214400000Y-53400000D03*
X199900000Y-53400000D03*
X157250000Y-99050000D03*
X142750000Y-99050000D03*
D14*
X232220381Y-136740000D03*
X98638899Y-159529137D03*
X98638899Y-34932171D03*
X232220381Y-37928844D03*
D15*
X209531250Y-39018750D03*
X204768750Y-34256250D03*
D16*
X207150000Y-36637500D03*
D12*
X118650000Y-43387500D03*
X105150000Y-58387500D03*
D11*
X103756250Y-84581250D03*
X120043750Y-30157500D03*
X120043750Y-67912500D03*
X103756250Y-67912500D03*
X103756250Y-30157500D03*
X120043750Y-84581250D03*
X105500000Y-99000000D03*
X169050000Y-104050000D03*
X157143750Y-21659375D03*
M02*
