M48
; DRILL file {KiCad 5.1.12-84ad8e8a86~92~ubuntu20.04.1} date dim. 14 nov. 2021 23:48:09
; FORMAT={-:-/ absolute / metric / decimal}
; #@! TF.CreationDate,2021-11-14T23:48:09+01:00
; #@! TF.GenerationSoftware,Kicad,Pcbnew,5.1.12-84ad8e8a86~92~ubuntu20.04.1
; #@! TF.FileFunction,NonPlated,1,2,NPTH
FMAT,2
METRIC
T1C0.500
T2C0.600
T3C1.200
T4C2.000
T5C2.200
T6C2.500
T7C5.300
%
G90
G05
T1
X105.15Y-58.387
X118.65Y-43.387
X123.7Y-44.4
X123.7Y-63.45
X123.7Y-82.5
X123.7Y-101.55
X133.572Y-122.786
X138.2Y-44.4
X138.2Y-63.45
X138.2Y-82.5
X138.2Y-101.55
X142.75Y-41.9
X142.75Y-60.95
X142.75Y-80.0
X142.75Y-99.05
X147.578Y-119.034
X154.51Y-118.12
X157.25Y-41.9
X157.25Y-60.95
X157.25Y-80.0
X157.25Y-99.05
X161.8Y-35.4
X161.8Y-54.45
X161.8Y-73.5
X161.8Y-92.55
X169.01Y-118.12
X173.56Y-118.12
X176.3Y-35.4
X176.3Y-54.45
X176.3Y-73.5
X176.3Y-92.55
X180.85Y-41.4
X180.85Y-60.45
X180.85Y-79.5
X180.85Y-98.55
X188.06Y-118.12
X195.35Y-41.4
X195.35Y-60.45
X195.35Y-79.5
X195.35Y-98.55
X199.9Y-53.4
X199.9Y-72.45
X199.9Y-91.5
X199.9Y-110.55
X214.4Y-53.4
X214.4Y-72.45
X214.4Y-91.5
X214.4Y-110.55
X218.95Y-53.4
X218.95Y-72.45
X218.95Y-91.5
X218.95Y-110.55
X233.45Y-53.4
X233.45Y-72.45
X233.45Y-91.5
X233.45Y-110.55
T2
X80.925Y-128.629
X87.66Y-135.365
X90.4Y-119.154
X90.4Y-138.105
X94.395Y-142.1
X97.135Y-125.889
X97.135Y-144.84
X99.875Y-128.629
X102.143Y-110.137
X103.871Y-132.625
X103.871Y-151.575
X106.611Y-135.365
X106.905Y-118.386
X108.843Y-121.742
X111.668Y-126.635
X113.346Y-142.1
X113.605Y-129.991
X113.748Y-103.437
X118.368Y-138.239
X118.51Y-111.686
X120.448Y-115.042
X123.273Y-119.935
X124.25Y-37.7
X124.25Y-51.1
X124.25Y-56.75
X124.25Y-70.15
X124.25Y-75.8
X124.25Y-89.2
X124.25Y-94.85
X124.25Y-108.25
X125.21Y-123.291
X129.973Y-131.539
X132.369Y-116.172
X135.837Y-129.116
X137.65Y-37.7
X137.65Y-51.1
X137.65Y-56.75
X137.65Y-70.15
X137.65Y-75.8
X137.65Y-89.2
X137.65Y-94.85
X137.65Y-108.25
X143.3Y-35.2
X143.3Y-48.6
X143.3Y-54.25
X143.3Y-67.65
X143.3Y-73.3
X143.3Y-86.7
X143.3Y-92.35
X143.3Y-105.75
X145.313Y-112.704
X148.781Y-125.648
X155.06Y-111.42
X155.06Y-124.82
X156.7Y-35.2
X156.7Y-48.6
X156.7Y-54.25
X156.7Y-67.65
X156.7Y-73.3
X156.7Y-86.7
X156.7Y-92.35
X156.7Y-105.75
X162.35Y-28.7
X162.35Y-42.1
X162.35Y-47.75
X162.35Y-61.15
X162.35Y-66.8
X162.35Y-80.2
X162.35Y-85.85
X162.35Y-99.25
X168.46Y-111.42
X168.46Y-124.82
X174.11Y-111.42
X174.11Y-124.82
X175.75Y-28.7
X175.75Y-42.1
X175.75Y-47.75
X175.75Y-61.15
X175.75Y-66.8
X175.75Y-80.2
X175.75Y-85.85
X175.75Y-99.25
X181.4Y-34.7
X181.4Y-48.1
X181.4Y-53.75
X181.4Y-67.15
X181.4Y-72.8
X181.4Y-86.2
X181.4Y-91.85
X181.4Y-105.25
X187.51Y-111.42
X187.51Y-124.82
X194.8Y-34.7
X194.8Y-48.1
X194.8Y-53.75
X194.8Y-67.15
X194.8Y-72.8
X194.8Y-86.2
X194.8Y-91.85
X194.8Y-105.25
X200.45Y-46.7
X200.45Y-60.1
X200.45Y-65.75
X200.45Y-79.15
X200.45Y-84.8
X200.45Y-98.2
X200.45Y-103.85
X200.45Y-117.25
X213.85Y-46.7
X213.85Y-60.1
X213.85Y-65.75
X213.85Y-79.15
X213.85Y-84.8
X213.85Y-98.2
X213.85Y-103.85
X213.85Y-117.25
X219.5Y-46.7
X219.5Y-60.1
X219.5Y-65.75
X219.5Y-79.15
X219.5Y-84.8
X219.5Y-98.2
X219.5Y-103.85
X219.5Y-117.25
X232.9Y-46.7
X232.9Y-60.1
X232.9Y-65.75
X232.9Y-79.15
X232.9Y-84.8
X232.9Y-98.2
X232.9Y-103.85
X232.9Y-117.25
T3
X204.769Y-34.256
X209.531Y-39.019
T4
X103.756Y-30.157
X103.756Y-67.912
X103.756Y-84.581
X105.5Y-99.0
X120.044Y-30.157
X120.044Y-67.912
X120.044Y-84.581
X131.422Y-113.502
X133.167Y-130.063
X147.983Y-111.757
X149.728Y-128.318
X152.235Y-111.196
X154.836Y-127.645
X157.144Y-21.659
X168.684Y-108.595
X169.05Y-104.05
X171.285Y-125.044
X171.285Y-125.044
X173.886Y-108.595
X187.734Y-127.645
X190.335Y-111.196
X216.675Y-60.324
X216.675Y-79.374
X216.675Y-98.424
X216.675Y-117.474
X219.276Y-43.875
X219.276Y-62.925
X219.276Y-81.975
X219.276Y-101.025
X233.124Y-62.925
X233.124Y-81.975
X233.124Y-101.025
X233.124Y-120.075
X235.725Y-46.476
X235.725Y-65.526
X235.725Y-84.576
X235.725Y-103.626
T5
X79.616Y-125.556
X87.323Y-117.849
X93.086Y-139.027
X93.475Y-139.416
X100.794Y-131.319
X101.183Y-131.708
X101.681Y-106.832
X106.945Y-152.886
X109.613Y-129.272
X111.12Y-101.382
X111.481Y-123.806
X114.653Y-145.179
X115.063Y-138.712
X120.92Y-118.356
X126.587Y-119.472
X129.694Y-118.185
X132.037Y-128.912
X132.515Y-128.714
X148.626Y-113.113
X151.448Y-123.641
T6
X207.15Y-36.637
T7
X98.639Y-34.932
X98.639Y-159.529
X232.22Y-37.929
X232.22Y-136.74
T0
M30
