M48
; DRILL file {KiCad 5.1.12-84ad8e8a86~92~ubuntu20.04.1} date mar. 16 nov. 2021 23:39:14
; FORMAT={-:-/ absolute / metric / decimal}
; #@! TF.CreationDate,2021-11-16T23:39:14+01:00
; #@! TF.GenerationSoftware,Kicad,Pcbnew,5.1.12-84ad8e8a86~92~ubuntu20.04.1
; #@! TF.FileFunction,NonPlated,1,2,NPTH
FMAT,2
METRIC
T1C0.600
T2C1.200
T3C2.000
T4C2.200
T5C2.500
T6C5.300
%
G90
G05
T1
X80.925Y-128.629
X90.4Y-119.154
X102.143Y-110.137
X103.871Y-151.575
X113.346Y-142.1
X113.748Y-103.437
X118.368Y-138.239
X124.25Y-37.7
X124.25Y-51.1
X124.25Y-56.75
X124.25Y-70.15
X124.25Y-75.8
X124.25Y-89.2
X124.25Y-94.85
X124.25Y-108.25
X129.973Y-131.539
X132.369Y-116.172
X135.837Y-129.116
X137.65Y-37.7
X137.65Y-51.1
X137.65Y-56.75
X137.65Y-70.15
X137.65Y-75.8
X137.65Y-89.2
X137.65Y-94.85
X137.65Y-108.25
X143.3Y-35.2
X143.3Y-48.6
X143.3Y-54.25
X143.3Y-67.65
X143.3Y-73.3
X143.3Y-86.7
X143.3Y-92.35
X143.3Y-105.75
X145.313Y-112.704
X148.781Y-125.648
X155.06Y-111.42
X155.06Y-124.82
X156.7Y-35.2
X156.7Y-48.6
X156.7Y-54.25
X156.7Y-67.65
X156.7Y-73.3
X156.7Y-86.7
X156.7Y-92.35
X156.7Y-105.75
X162.35Y-28.7
X162.35Y-42.1
X162.35Y-47.75
X162.35Y-61.15
X162.35Y-66.8
X162.35Y-80.2
X162.35Y-85.85
X162.35Y-99.25
X168.46Y-111.42
X168.46Y-124.82
X174.11Y-111.42
X174.11Y-124.82
X175.75Y-28.7
X175.75Y-42.1
X175.75Y-47.75
X175.75Y-61.15
X175.75Y-66.8
X175.75Y-80.2
X175.75Y-85.85
X175.75Y-99.25
X181.4Y-34.7
X181.4Y-48.1
X181.4Y-53.75
X181.4Y-67.15
X181.4Y-72.8
X181.4Y-86.2
X181.4Y-91.85
X181.4Y-105.25
X187.51Y-111.42
X187.51Y-124.82
X194.8Y-34.7
X194.8Y-48.1
X194.8Y-53.75
X194.8Y-67.15
X194.8Y-72.8
X194.8Y-86.2
X194.8Y-91.85
X194.8Y-105.25
X200.45Y-46.7
X200.45Y-60.1
X200.45Y-65.75
X200.45Y-79.15
X200.45Y-84.8
X200.45Y-98.2
X200.45Y-103.85
X200.45Y-117.25
X213.85Y-46.7
X213.85Y-60.1
X213.85Y-65.75
X213.85Y-79.15
X213.85Y-84.8
X213.85Y-98.2
X213.85Y-103.85
X213.85Y-117.25
X219.5Y-46.7
X219.5Y-60.1
X219.5Y-65.75
X219.5Y-79.15
X219.5Y-84.8
X219.5Y-98.2
X219.5Y-103.85
X219.5Y-117.25
X232.9Y-46.7
X232.9Y-60.1
X232.9Y-65.75
X232.9Y-79.15
X232.9Y-84.8
X232.9Y-98.2
X232.9Y-103.85
X232.9Y-117.25
T2
X204.769Y-34.256
X209.531Y-39.019
T3
X103.756Y-30.157
X103.756Y-67.912
X103.756Y-84.581
X105.5Y-99.0
X120.044Y-30.157
X120.044Y-67.912
X120.044Y-84.581
X131.422Y-113.502
X133.167Y-130.063
X147.983Y-111.757
X149.728Y-128.318
X152.235Y-111.196
X154.836Y-127.645
X157.144Y-21.659
X168.684Y-108.595
X169.05Y-104.05
X171.285Y-125.044
X171.285Y-125.044
X173.886Y-108.595
X187.734Y-127.645
X190.335Y-111.196
X216.675Y-60.324
X216.675Y-79.374
X216.675Y-98.424
X216.675Y-117.474
X219.276Y-43.875
X219.276Y-62.925
X219.276Y-81.975
X219.276Y-101.025
X233.124Y-62.925
X233.124Y-81.975
X233.124Y-101.025
X233.124Y-120.075
X235.725Y-46.476
X235.725Y-65.526
X235.725Y-84.576
X235.725Y-103.626
T4
X79.616Y-125.556
X87.323Y-117.849
X93.086Y-139.027
X93.475Y-139.416
X100.794Y-131.319
X101.183Y-131.708
X101.681Y-106.832
X106.945Y-152.886
X109.613Y-129.272
X111.12Y-101.382
X111.481Y-123.806
X114.653Y-145.179
X115.063Y-138.712
X120.92Y-118.356
X126.587Y-119.472
X129.694Y-118.185
X132.037Y-128.912
X132.515Y-128.714
X148.626Y-113.113
X151.448Y-123.641
T5
X207.15Y-36.637
T6
X98.639Y-34.932
X98.639Y-159.529
X232.22Y-37.929
X232.22Y-136.74
T0
M30
