%TF.GenerationSoftware,KiCad,Pcbnew,5.1.12-84ad8e8a86~92~ubuntu20.04.1*%
%TF.CreationDate,2021-11-16T23:39:11+01:00*%
%TF.ProjectId,LergoTopPlate_FR4,4c657267-6f54-46f7-9050-6c6174655f46,v1.A*%
%TF.SameCoordinates,Original*%
%TF.FileFunction,Profile,NP*%
%FSLAX46Y46*%
G04 Gerber Fmt 4.6, Leading zero omitted, Abs format (unit mm)*
G04 Created by KiCad (PCBNEW 5.1.12-84ad8e8a86~92~ubuntu20.04.1) date 2021-11-16 23:39:11*
%MOMM*%
%LPD*%
G01*
G04 APERTURE LIST*
%TA.AperFunction,Profile*%
%ADD10C,0.120000*%
%TD*%
%TA.AperFunction,Profile*%
%ADD11C,0.100000*%
%TD*%
%TA.AperFunction,Profile*%
%ADD12C,0.150000*%
%TD*%
G04 APERTURE END LIST*
D10*
X73524848Y-127344018D02*
G75*
G02*
X73524848Y-125929804I707107J707107D01*
G01*
D11*
X95103365Y-148922535D02*
G75*
G02*
X95103365Y-155993603I-3535534J-3535534D01*
G01*
X102174433Y-163064671D02*
G75*
G02*
X95103365Y-155993603I-3535534J3535534D01*
G01*
X98641295Y-39932170D02*
G75*
G02*
X101614896Y-42905771I0J-2973601D01*
G01*
X98641295Y-39932170D02*
G75*
G02*
X96852971Y-30262004I-2396J4999999D01*
G01*
X222220381Y-131740000D02*
G75*
G02*
X227220381Y-136740000I0J-5000000D01*
G01*
X237220381Y-136740000D02*
G75*
G02*
X227220381Y-136740000I-5000000J0D01*
G01*
X101614896Y-101696929D02*
G75*
G02*
X101143092Y-102545766I-1000000J286D01*
G01*
X101614896Y-42905771D02*
X101614896Y-101696929D01*
X234214126Y-33343544D02*
G75*
G02*
X237220381Y-37928844I-1993745J-4585300D01*
G01*
X96852971Y-30262005D02*
G75*
G02*
X234214126Y-33343544I64907410J-169731595D01*
G01*
X80612709Y-118841943D02*
G75*
G02*
X101143092Y-102545766I81147672J-81151657D01*
G01*
X73524848Y-125929804D02*
X80612709Y-118841943D01*
X95103365Y-148922535D02*
X73524848Y-127344018D01*
X113500343Y-151733562D02*
X102174433Y-163064671D01*
X113500343Y-151733562D02*
G75*
G02*
X161760381Y-131743600I48260038J-48260038D01*
G01*
X161760381Y-131743600D02*
X222220381Y-131740000D01*
X237220381Y-37928844D02*
X237220381Y-136740000D01*
D12*
X187310000Y-111120000D02*
X174310000Y-111120000D01*
X174310000Y-125120000D02*
X187310000Y-125120000D01*
X173810000Y-111620000D02*
X173810000Y-124620000D01*
X187810000Y-124620000D02*
X187810000Y-111620000D01*
X174310000Y-125120000D02*
G75*
G02*
X173810000Y-124620000I0J500000D01*
G01*
X187310000Y-111120000D02*
G75*
G02*
X187810000Y-111620000I0J-500000D01*
G01*
X187810000Y-124620000D02*
G75*
G02*
X187310000Y-125120000I-500000J0D01*
G01*
X173810000Y-111620000D02*
G75*
G02*
X174310000Y-111120000I500000J0D01*
G01*
X168260000Y-125120000D02*
X155260000Y-125120000D01*
X155260000Y-111120000D02*
X168260000Y-111120000D01*
X154760000Y-124620000D02*
X154760000Y-111620000D01*
X168760000Y-111620000D02*
X168760000Y-124620000D01*
X155260000Y-111120000D02*
G75*
G03*
X154760000Y-111620000I0J-500000D01*
G01*
X168260000Y-125120000D02*
G75*
G03*
X168760000Y-124620000I0J500000D01*
G01*
X168760000Y-111620000D02*
G75*
G03*
X168260000Y-111120000I-500000J0D01*
G01*
X154760000Y-124620000D02*
G75*
G03*
X155260000Y-125120000I500000J0D01*
G01*
X145041785Y-112466195D02*
X132484749Y-115830843D01*
X136108215Y-129353805D02*
X148665251Y-125989157D01*
X132131195Y-116443215D02*
X135495843Y-129000251D01*
X149018805Y-125376785D02*
X145654157Y-112819749D01*
X136108215Y-129353805D02*
G75*
G02*
X135495843Y-129000251I-129409J482963D01*
G01*
X145041785Y-112466195D02*
G75*
G02*
X145654157Y-112819749I129409J-482963D01*
G01*
X149018805Y-125376785D02*
G75*
G02*
X148665251Y-125989157I-482963J-129409D01*
G01*
X132131195Y-116443215D02*
G75*
G02*
X132484749Y-115830843I482963J129409D01*
G01*
X232700000Y-103550000D02*
X219700000Y-103550000D01*
X219700000Y-117550000D02*
X232700000Y-117550000D01*
X219200000Y-104050000D02*
X219200000Y-117050000D01*
X233200000Y-117050000D02*
X233200000Y-104050000D01*
X219700000Y-117550000D02*
G75*
G02*
X219200000Y-117050000I0J500000D01*
G01*
X232700000Y-103550000D02*
G75*
G02*
X233200000Y-104050000I0J-500000D01*
G01*
X233200000Y-117050000D02*
G75*
G02*
X232700000Y-117550000I-500000J0D01*
G01*
X219200000Y-104050000D02*
G75*
G02*
X219700000Y-103550000I500000J0D01*
G01*
X232700000Y-84500000D02*
X219700000Y-84500000D01*
X219700000Y-98500000D02*
X232700000Y-98500000D01*
X219200000Y-85000000D02*
X219200000Y-98000000D01*
X233200000Y-98000000D02*
X233200000Y-85000000D01*
X219700000Y-98500000D02*
G75*
G02*
X219200000Y-98000000I0J500000D01*
G01*
X232700000Y-84500000D02*
G75*
G02*
X233200000Y-85000000I0J-500000D01*
G01*
X233200000Y-98000000D02*
G75*
G02*
X232700000Y-98500000I-500000J0D01*
G01*
X219200000Y-85000000D02*
G75*
G02*
X219700000Y-84500000I500000J0D01*
G01*
X232700000Y-65450000D02*
X219700000Y-65450000D01*
X219700000Y-79450000D02*
X232700000Y-79450000D01*
X219200000Y-65950000D02*
X219200000Y-78950000D01*
X233200000Y-78950000D02*
X233200000Y-65950000D01*
X219700000Y-79450000D02*
G75*
G02*
X219200000Y-78950000I0J500000D01*
G01*
X232700000Y-65450000D02*
G75*
G02*
X233200000Y-65950000I0J-500000D01*
G01*
X233200000Y-78950000D02*
G75*
G02*
X232700000Y-79450000I-500000J0D01*
G01*
X219200000Y-65950000D02*
G75*
G02*
X219700000Y-65450000I500000J0D01*
G01*
X232700000Y-46400000D02*
X219700000Y-46400000D01*
X219700000Y-60400000D02*
X232700000Y-60400000D01*
X219200000Y-46900000D02*
X219200000Y-59900000D01*
X233200000Y-59900000D02*
X233200000Y-46900000D01*
X219700000Y-60400000D02*
G75*
G02*
X219200000Y-59900000I0J500000D01*
G01*
X232700000Y-46400000D02*
G75*
G02*
X233200000Y-46900000I0J-500000D01*
G01*
X233200000Y-59900000D02*
G75*
G02*
X232700000Y-60400000I-500000J0D01*
G01*
X219200000Y-46900000D02*
G75*
G02*
X219700000Y-46400000I500000J0D01*
G01*
X130132523Y-131216212D02*
X122120023Y-117338155D01*
X118691180Y-138399225D02*
X129949510Y-131899225D01*
X109995667Y-124338155D02*
X118008167Y-138216212D01*
X122120023Y-117338155D02*
X114107523Y-103460098D01*
X113424510Y-103277085D02*
X102166180Y-109777085D01*
X101983167Y-110460098D02*
X109995667Y-124338155D01*
X118691180Y-138399225D02*
G75*
G02*
X118008167Y-138216212I-250000J433013D01*
G01*
X130132523Y-131216212D02*
G75*
G02*
X129949510Y-131899225I-433013J-250000D01*
G01*
X113424510Y-103277085D02*
G75*
G02*
X114107523Y-103460098I250000J-433013D01*
G01*
X101983167Y-110460098D02*
G75*
G02*
X102166180Y-109777085I433013J250000D01*
G01*
X113416547Y-141746286D02*
X102085160Y-130414900D01*
X104224158Y-151645781D02*
X113416547Y-142453392D01*
X92185666Y-140314394D02*
X103517052Y-151645781D01*
X102085160Y-130414900D02*
X90753774Y-119083513D01*
X90046668Y-119083513D02*
X80854279Y-128275902D01*
X80854279Y-128983008D02*
X92185666Y-140314394D01*
X104224159Y-151645780D02*
G75*
G02*
X103517052Y-151645781I-353554J353553D01*
G01*
X113416546Y-141746285D02*
G75*
G02*
X113416547Y-142453392I-353553J-353554D01*
G01*
X90046667Y-119083514D02*
G75*
G02*
X90753774Y-119083513I353554J-353553D01*
G01*
X80854280Y-128983009D02*
G75*
G02*
X80854279Y-128275902I353553J353554D01*
G01*
X156500000Y-53950000D02*
X143500000Y-53950000D01*
X157000000Y-67450000D02*
X157000000Y-54450000D01*
X143500000Y-67950000D02*
X156500000Y-67950000D01*
X143000000Y-54450000D02*
X143000000Y-67450000D01*
X157000000Y-67450000D02*
G75*
G02*
X156500000Y-67950000I-500000J0D01*
G01*
X143500000Y-67950000D02*
G75*
G02*
X143000000Y-67450000I0J500000D01*
G01*
X143000000Y-54450000D02*
G75*
G02*
X143500000Y-53950000I500000J0D01*
G01*
X156500000Y-53950000D02*
G75*
G02*
X157000000Y-54450000I0J-500000D01*
G01*
X213650000Y-65450000D02*
X200650000Y-65450000D01*
X214150000Y-78950000D02*
X214150000Y-65950000D01*
X200650000Y-79450000D02*
X213650000Y-79450000D01*
X200150000Y-65950000D02*
X200150000Y-78950000D01*
X214150000Y-78950000D02*
G75*
G02*
X213650000Y-79450000I-500000J0D01*
G01*
X200650000Y-79450000D02*
G75*
G02*
X200150000Y-78950000I0J500000D01*
G01*
X200150000Y-65950000D02*
G75*
G02*
X200650000Y-65450000I500000J0D01*
G01*
X213650000Y-65450000D02*
G75*
G02*
X214150000Y-65950000I0J-500000D01*
G01*
X213650000Y-84500000D02*
X200650000Y-84500000D01*
X214150000Y-98000000D02*
X214150000Y-85000000D01*
X200650000Y-98500000D02*
X213650000Y-98500000D01*
X200150000Y-85000000D02*
X200150000Y-98000000D01*
X214150000Y-98000000D02*
G75*
G02*
X213650000Y-98500000I-500000J0D01*
G01*
X200650000Y-98500000D02*
G75*
G02*
X200150000Y-98000000I0J500000D01*
G01*
X200150000Y-85000000D02*
G75*
G02*
X200650000Y-84500000I500000J0D01*
G01*
X213650000Y-84500000D02*
G75*
G02*
X214150000Y-85000000I0J-500000D01*
G01*
X194600000Y-72500000D02*
X181600000Y-72500000D01*
X195100000Y-86000000D02*
X195100000Y-73000000D01*
X181600000Y-86500000D02*
X194600000Y-86500000D01*
X181100000Y-73000000D02*
X181100000Y-86000000D01*
X195100000Y-86000000D02*
G75*
G02*
X194600000Y-86500000I-500000J0D01*
G01*
X181600000Y-86500000D02*
G75*
G02*
X181100000Y-86000000I0J500000D01*
G01*
X181100000Y-73000000D02*
G75*
G02*
X181600000Y-72500000I500000J0D01*
G01*
X194600000Y-72500000D02*
G75*
G02*
X195100000Y-73000000I0J-500000D01*
G01*
X175550000Y-66500000D02*
X162550000Y-66500000D01*
X176050000Y-80000000D02*
X176050000Y-67000000D01*
X162550000Y-80500000D02*
X175550000Y-80500000D01*
X162050000Y-67000000D02*
X162050000Y-80000000D01*
X176050000Y-80000000D02*
G75*
G02*
X175550000Y-80500000I-500000J0D01*
G01*
X162550000Y-80500000D02*
G75*
G02*
X162050000Y-80000000I0J500000D01*
G01*
X162050000Y-67000000D02*
G75*
G02*
X162550000Y-66500000I500000J0D01*
G01*
X175550000Y-66500000D02*
G75*
G02*
X176050000Y-67000000I0J-500000D01*
G01*
X137450000Y-75500000D02*
X124450000Y-75500000D01*
X137950000Y-89000000D02*
X137950000Y-76000000D01*
X124450000Y-89500000D02*
X137450000Y-89500000D01*
X123950000Y-76000000D02*
X123950000Y-89000000D01*
X137950000Y-89000000D02*
G75*
G02*
X137450000Y-89500000I-500000J0D01*
G01*
X124450000Y-89500000D02*
G75*
G02*
X123950000Y-89000000I0J500000D01*
G01*
X123950000Y-76000000D02*
G75*
G02*
X124450000Y-75500000I500000J0D01*
G01*
X137450000Y-75500000D02*
G75*
G02*
X137950000Y-76000000I0J-500000D01*
G01*
X156500000Y-73000000D02*
X143500000Y-73000000D01*
X157000000Y-86500000D02*
X157000000Y-73500000D01*
X143500000Y-87000000D02*
X156500000Y-87000000D01*
X143000000Y-73500000D02*
X143000000Y-86500000D01*
X157000000Y-86500000D02*
G75*
G02*
X156500000Y-87000000I-500000J0D01*
G01*
X143500000Y-87000000D02*
G75*
G02*
X143000000Y-86500000I0J500000D01*
G01*
X143000000Y-73500000D02*
G75*
G02*
X143500000Y-73000000I500000J0D01*
G01*
X156500000Y-73000000D02*
G75*
G02*
X157000000Y-73500000I0J-500000D01*
G01*
X137450000Y-94550000D02*
X124450000Y-94550000D01*
X137950000Y-108050000D02*
X137950000Y-95050000D01*
X124450000Y-108550000D02*
X137450000Y-108550000D01*
X123950000Y-95050000D02*
X123950000Y-108050000D01*
X137950000Y-108050000D02*
G75*
G02*
X137450000Y-108550000I-500000J0D01*
G01*
X124450000Y-108550000D02*
G75*
G02*
X123950000Y-108050000I0J500000D01*
G01*
X123950000Y-95050000D02*
G75*
G02*
X124450000Y-94550000I500000J0D01*
G01*
X137450000Y-94550000D02*
G75*
G02*
X137950000Y-95050000I0J-500000D01*
G01*
X137450000Y-56450000D02*
X124450000Y-56450000D01*
X137950000Y-69950000D02*
X137950000Y-56950000D01*
X124450000Y-70450000D02*
X137450000Y-70450000D01*
X123950000Y-56950000D02*
X123950000Y-69950000D01*
X137950000Y-69950000D02*
G75*
G02*
X137450000Y-70450000I-500000J0D01*
G01*
X124450000Y-70450000D02*
G75*
G02*
X123950000Y-69950000I0J500000D01*
G01*
X123950000Y-56950000D02*
G75*
G02*
X124450000Y-56450000I500000J0D01*
G01*
X137450000Y-56450000D02*
G75*
G02*
X137950000Y-56950000I0J-500000D01*
G01*
X156500000Y-34900000D02*
X143500000Y-34900000D01*
X157000000Y-48400000D02*
X157000000Y-35400000D01*
X143500000Y-48900000D02*
X156500000Y-48900000D01*
X143000000Y-35400000D02*
X143000000Y-48400000D01*
X157000000Y-48400000D02*
G75*
G02*
X156500000Y-48900000I-500000J0D01*
G01*
X143500000Y-48900000D02*
G75*
G02*
X143000000Y-48400000I0J500000D01*
G01*
X143000000Y-35400000D02*
G75*
G02*
X143500000Y-34900000I500000J0D01*
G01*
X156500000Y-34900000D02*
G75*
G02*
X157000000Y-35400000I0J-500000D01*
G01*
X175550000Y-85550000D02*
X162550000Y-85550000D01*
X176050000Y-99050000D02*
X176050000Y-86050000D01*
X162550000Y-99550000D02*
X175550000Y-99550000D01*
X162050000Y-86050000D02*
X162050000Y-99050000D01*
X176050000Y-99050000D02*
G75*
G02*
X175550000Y-99550000I-500000J0D01*
G01*
X162550000Y-99550000D02*
G75*
G02*
X162050000Y-99050000I0J500000D01*
G01*
X162050000Y-86050000D02*
G75*
G02*
X162550000Y-85550000I500000J0D01*
G01*
X175550000Y-85550000D02*
G75*
G02*
X176050000Y-86050000I0J-500000D01*
G01*
X175550000Y-47450000D02*
X162550000Y-47450000D01*
X176050000Y-60950000D02*
X176050000Y-47950000D01*
X162550000Y-61450000D02*
X175550000Y-61450000D01*
X162050000Y-47950000D02*
X162050000Y-60950000D01*
X176050000Y-60950000D02*
G75*
G02*
X175550000Y-61450000I-500000J0D01*
G01*
X162550000Y-61450000D02*
G75*
G02*
X162050000Y-60950000I0J500000D01*
G01*
X162050000Y-47950000D02*
G75*
G02*
X162550000Y-47450000I500000J0D01*
G01*
X175550000Y-47450000D02*
G75*
G02*
X176050000Y-47950000I0J-500000D01*
G01*
X175550000Y-28400000D02*
X162550000Y-28400000D01*
X176050000Y-41900000D02*
X176050000Y-28900000D01*
X162550000Y-42400000D02*
X175550000Y-42400000D01*
X162050000Y-28900000D02*
X162050000Y-41900000D01*
X176050000Y-41900000D02*
G75*
G02*
X175550000Y-42400000I-500000J0D01*
G01*
X162550000Y-42400000D02*
G75*
G02*
X162050000Y-41900000I0J500000D01*
G01*
X162050000Y-28900000D02*
G75*
G02*
X162550000Y-28400000I500000J0D01*
G01*
X175550000Y-28400000D02*
G75*
G02*
X176050000Y-28900000I0J-500000D01*
G01*
X194600000Y-91550000D02*
X181600000Y-91550000D01*
X195100000Y-105050000D02*
X195100000Y-92050000D01*
X181600000Y-105550000D02*
X194600000Y-105550000D01*
X181100000Y-92050000D02*
X181100000Y-105050000D01*
X195100000Y-105050000D02*
G75*
G02*
X194600000Y-105550000I-500000J0D01*
G01*
X181600000Y-105550000D02*
G75*
G02*
X181100000Y-105050000I0J500000D01*
G01*
X181100000Y-92050000D02*
G75*
G02*
X181600000Y-91550000I500000J0D01*
G01*
X194600000Y-91550000D02*
G75*
G02*
X195100000Y-92050000I0J-500000D01*
G01*
X194600000Y-53450000D02*
X181600000Y-53450000D01*
X195100000Y-66950000D02*
X195100000Y-53950000D01*
X181600000Y-67450000D02*
X194600000Y-67450000D01*
X181100000Y-53950000D02*
X181100000Y-66950000D01*
X195100000Y-66950000D02*
G75*
G02*
X194600000Y-67450000I-500000J0D01*
G01*
X181600000Y-67450000D02*
G75*
G02*
X181100000Y-66950000I0J500000D01*
G01*
X181100000Y-53950000D02*
G75*
G02*
X181600000Y-53450000I500000J0D01*
G01*
X194600000Y-53450000D02*
G75*
G02*
X195100000Y-53950000I0J-500000D01*
G01*
X194600000Y-34400000D02*
X181600000Y-34400000D01*
X195100000Y-47900000D02*
X195100000Y-34900000D01*
X181600000Y-48400000D02*
X194600000Y-48400000D01*
X181100000Y-34900000D02*
X181100000Y-47900000D01*
X195100000Y-47900000D02*
G75*
G02*
X194600000Y-48400000I-500000J0D01*
G01*
X181600000Y-48400000D02*
G75*
G02*
X181100000Y-47900000I0J500000D01*
G01*
X181100000Y-34900000D02*
G75*
G02*
X181600000Y-34400000I500000J0D01*
G01*
X194600000Y-34400000D02*
G75*
G02*
X195100000Y-34900000I0J-500000D01*
G01*
X213650000Y-103550000D02*
X200650000Y-103550000D01*
X214150000Y-117050000D02*
X214150000Y-104050000D01*
X200650000Y-117550000D02*
X213650000Y-117550000D01*
X200150000Y-104050000D02*
X200150000Y-117050000D01*
X214150000Y-117050000D02*
G75*
G02*
X213650000Y-117550000I-500000J0D01*
G01*
X200650000Y-117550000D02*
G75*
G02*
X200150000Y-117050000I0J500000D01*
G01*
X200150000Y-104050000D02*
G75*
G02*
X200650000Y-103550000I500000J0D01*
G01*
X213650000Y-103550000D02*
G75*
G02*
X214150000Y-104050000I0J-500000D01*
G01*
X213650000Y-46400000D02*
X200650000Y-46400000D01*
X214150000Y-59900000D02*
X214150000Y-46900000D01*
X200650000Y-60400000D02*
X213650000Y-60400000D01*
X200150000Y-46900000D02*
X200150000Y-59900000D01*
X214150000Y-59900000D02*
G75*
G02*
X213650000Y-60400000I-500000J0D01*
G01*
X200650000Y-60400000D02*
G75*
G02*
X200150000Y-59900000I0J500000D01*
G01*
X200150000Y-46900000D02*
G75*
G02*
X200650000Y-46400000I500000J0D01*
G01*
X213650000Y-46400000D02*
G75*
G02*
X214150000Y-46900000I0J-500000D01*
G01*
X137450000Y-37400000D02*
X124450000Y-37400000D01*
X137950000Y-50900000D02*
X137950000Y-37900000D01*
X124450000Y-51400000D02*
X137450000Y-51400000D01*
X123950000Y-37900000D02*
X123950000Y-50900000D01*
X137950000Y-50900000D02*
G75*
G02*
X137450000Y-51400000I-500000J0D01*
G01*
X124450000Y-51400000D02*
G75*
G02*
X123950000Y-50900000I0J500000D01*
G01*
X123950000Y-37900000D02*
G75*
G02*
X124450000Y-37400000I500000J0D01*
G01*
X137450000Y-37400000D02*
G75*
G02*
X137950000Y-37900000I0J-500000D01*
G01*
X156500000Y-92050000D02*
X143500000Y-92050000D01*
X157000000Y-105550000D02*
X157000000Y-92550000D01*
X143500000Y-106050000D02*
X156500000Y-106050000D01*
X143000000Y-92550000D02*
X143000000Y-105550000D01*
X157000000Y-105550000D02*
G75*
G02*
X156500000Y-106050000I-500000J0D01*
G01*
X143500000Y-106050000D02*
G75*
G02*
X143000000Y-105550000I0J500000D01*
G01*
X143000000Y-92550000D02*
G75*
G02*
X143500000Y-92050000I500000J0D01*
G01*
X156500000Y-92050000D02*
G75*
G02*
X157000000Y-92550000I0J-500000D01*
G01*
D10*
X105400000Y-67827500D02*
X105400000Y-29827500D01*
X117900000Y-68327500D02*
X105900000Y-68327500D01*
X118400000Y-29827500D02*
X118400000Y-67827500D01*
X105900000Y-29327500D02*
X117900000Y-29327500D01*
X118400000Y-67827500D02*
G75*
G02*
X117900000Y-68327500I-500000J0D01*
G01*
X105900000Y-68327500D02*
G75*
G02*
X105400000Y-67827500I0J500000D01*
G01*
X105400000Y-29827500D02*
G75*
G02*
X105900000Y-29327500I500000J0D01*
G01*
X117900000Y-29327500D02*
G75*
G02*
X118400000Y-29827500I0J-500000D01*
G01*
M02*
