%TF.GenerationSoftware,KiCad,Pcbnew,5.1.12-84ad8e8a86~92~ubuntu20.04.1*%
%TF.CreationDate,2021-11-16T23:39:11+01:00*%
%TF.ProjectId,LergoTopPlate_FR4,4c657267-6f54-46f7-9050-6c6174655f46,v1.A*%
%TF.SameCoordinates,Original*%
%TF.FileFunction,Soldermask,Top*%
%TF.FilePolarity,Negative*%
%FSLAX46Y46*%
G04 Gerber Fmt 4.6, Leading zero omitted, Abs format (unit mm)*
G04 Created by KiCad (PCBNEW 5.1.12-84ad8e8a86~92~ubuntu20.04.1) date 2021-11-16 23:39:11*
%MOMM*%
%LPD*%
G01*
G04 APERTURE LIST*
%ADD10C,2.000000*%
%ADD11C,2.200000*%
%ADD12C,5.300000*%
%ADD13C,1.200000*%
%ADD14C,2.500000*%
G04 APERTURE END LIST*
D10*
X171285000Y-125043750D03*
X190335000Y-111196250D03*
X187733750Y-127645000D03*
X173886250Y-108595000D03*
X152235000Y-111196250D03*
X171285000Y-125043750D03*
X168683750Y-108595000D03*
X154836250Y-127645000D03*
X133166555Y-130063080D03*
X147983445Y-111756920D03*
X149728080Y-128318445D03*
X131421920Y-113501555D03*
X216675000Y-117473750D03*
X235725000Y-103626250D03*
X233123750Y-120075000D03*
X219276250Y-101025000D03*
X216675000Y-98423750D03*
X235725000Y-84576250D03*
X233123750Y-101025000D03*
X219276250Y-81975000D03*
X216675000Y-79373750D03*
X235725000Y-65526250D03*
X233123750Y-81975000D03*
X219276250Y-62925000D03*
X216675000Y-60323750D03*
X235725000Y-46476250D03*
X233123750Y-62925000D03*
X219276250Y-43875000D03*
D11*
X93475079Y-139415762D03*
X79615787Y-125556470D03*
X101182543Y-131708298D03*
X87323251Y-117849006D03*
X111480544Y-123806366D03*
X101680544Y-106832268D03*
X120920220Y-118356366D03*
X111120220Y-101382268D03*
X106945463Y-152886146D03*
X93086171Y-139026854D03*
X114652927Y-145178682D03*
X100793635Y-131319390D03*
X109613333Y-129272263D03*
X126587431Y-119472263D03*
X115063333Y-138711939D03*
X132037431Y-128911939D03*
X151447503Y-123641122D03*
X132515357Y-128713975D03*
X148626375Y-113112531D03*
X129694229Y-118185384D03*
D12*
X232220381Y-136740000D03*
X98638899Y-159529137D03*
X98638899Y-34932171D03*
X232220381Y-37928844D03*
D13*
X209531250Y-39018750D03*
X204768750Y-34256250D03*
D14*
X207150000Y-36637500D03*
D10*
X120043750Y-84581250D03*
X103756250Y-30157500D03*
X103756250Y-67912500D03*
X120043750Y-67912500D03*
X120043750Y-30157500D03*
X103756250Y-84581250D03*
X105500000Y-99000000D03*
X169050000Y-104050000D03*
X157143750Y-21659375D03*
M02*
