%FSLAX45Y45*%
G04 Gerber Fmt 4.5, Leading zero omitted, Abs format (unit mm)*
G04 Created by KiCad (PCBNEW 5.1.12-84ad8e8a86~92~ubuntu20.04.1) date 2021-11-15 00:08:25*
%MOMM*%
%LPD*%
G01*
G04 APERTURE LIST*
%TA.AperFunction,Profile*%
%ADD10C,0.150000*%
%TD*%
%TA.AperFunction,Profile*%
%ADD11C,0.120000*%
%TD*%
%TA.AperFunction,Profile*%
%ADD12C,0.100000*%
%TD*%
%ADD13C,0.200000*%
%ADD14C,0.300000*%
G04 APERTURE END LIST*
D10*
X10948880Y-10645653D02*
G75*
G02*
X12495000Y-9936310I5227158J-9353707D01*
G01*
X12495000Y-9601000D02*
X12495000Y-9936310D01*
X9404119Y-11695542D02*
G75*
G02*
X10689135Y-10795764I6771920J-8303818D01*
G01*
X8186937Y-12858873D02*
X8191494Y-12862945D01*
X8186937Y-12858873D02*
G75*
G02*
X9174305Y-11888378I7989101J-7140487D01*
G01*
X8085428Y-12827590D02*
X8082908Y-12825356D01*
X8082907Y-12825356D02*
G75*
G02*
X9110026Y-11811774I8093131J-7174004D01*
G01*
X9339840Y-11618937D02*
G75*
G02*
X10639135Y-10709161I6836198J-8380423D01*
G01*
X10882035Y-14704959D02*
X10880713Y-14703636D01*
X10811325Y-14634248D02*
X10810017Y-14632940D01*
X13449876Y-13025939D02*
X13449278Y-13024410D01*
X13411601Y-12933533D02*
X13411010Y-12932022D01*
X13821559Y-11319106D02*
X13873552Y-11490171D01*
X13873552Y-11490171D02*
G75*
G02*
X15476000Y-11212000I2302486J-8509189D01*
G01*
X13411601Y-12933533D02*
G75*
G02*
X16176000Y-12412000I2764437J-7065827D01*
G01*
X10810017Y-14632940D02*
G75*
G02*
X11438058Y-14071106I5366022J-5366420D01*
G01*
X11676064Y-13888477D02*
G75*
G02*
X13133846Y-13046827I4499974J-6110883D01*
G01*
X11736940Y-13967813D02*
G75*
G02*
X13172114Y-13139215I4439098J-6031547D01*
G01*
X16476000Y-12412000D02*
X18660000Y-12412000D01*
X10880713Y-14703636D02*
G75*
G02*
X11498934Y-14150441I5295325J-5295724D01*
G01*
X13723889Y-11035451D02*
X13695000Y-10934236D01*
X13695000Y-7696000D02*
X13695000Y-10934236D01*
X13916111Y-11286549D02*
X13944459Y-11368296D01*
X13795000Y-7696000D02*
X13795000Y-10934236D01*
X13695000Y-7396000D02*
X13695000Y-3886000D01*
X13795000Y-3886000D02*
X13795000Y-7396000D01*
X12495000Y-5491000D02*
X12495000Y-3586000D01*
X12495000Y-9301000D02*
X12495000Y-5791000D01*
X12395000Y-9601000D02*
X12395000Y-9866650D01*
X12395000Y-5791000D02*
X12395000Y-9301000D01*
X12395000Y-3586000D02*
X12395000Y-5491000D01*
X18210000Y-9309000D02*
X18210000Y-11212000D01*
X15776000Y-11212000D02*
X18210000Y-11212000D01*
X19410000Y-11214000D02*
X19410000Y-12412000D01*
X18960000Y-12412000D02*
X19410000Y-12412000D01*
X18960000Y-12512000D02*
X19460000Y-12512000D01*
X18210000Y-5199000D02*
X18210000Y-3294000D01*
X18210000Y-9009000D02*
X18210000Y-5499000D01*
X18110000Y-9309000D02*
X18110000Y-11112000D01*
X18110000Y-5499000D02*
X18110000Y-9009000D01*
X18110000Y-3294000D02*
X18110000Y-5199000D01*
X19410000Y-7104000D02*
X19410000Y-3594000D01*
X19410000Y-10914000D02*
X19410000Y-7404000D01*
X19510000Y-11214000D02*
X19510000Y-12462000D01*
X19510000Y-7404000D02*
X19510000Y-10914000D01*
X19510000Y-3594000D02*
X19510000Y-7104000D01*
X15700000Y-7346000D02*
X15700000Y-9905000D01*
X15700000Y-3586000D02*
X15700000Y-7046000D01*
X15600000Y-7046000D02*
X15600000Y-3586000D01*
X15600000Y-9905000D02*
X15600000Y-7346000D01*
X14400000Y-9251000D02*
X14400000Y-9905000D01*
X14400000Y-5441000D02*
X14400000Y-8951000D01*
X14400000Y-3286000D02*
X14400000Y-5141000D01*
X14300000Y-5141000D02*
X14300000Y-3286000D01*
X14300000Y-8951000D02*
X14300000Y-5441000D01*
X14300000Y-9905000D02*
X14300000Y-9251000D01*
X17505000Y-6950000D02*
X17505000Y-3490000D01*
X17505000Y-9607000D02*
X17505000Y-7250000D01*
X17605000Y-7250000D02*
X17605000Y-9607000D01*
X17605000Y-3490000D02*
X17605000Y-6950000D01*
X16305000Y-3190000D02*
X16305000Y-5045000D01*
X16205000Y-5045000D02*
X16205000Y-3190000D01*
X16305000Y-5345000D02*
X16305000Y-8855000D01*
X16205000Y-8855000D02*
X16205000Y-5345000D01*
X16305000Y-9155000D02*
X16305000Y-9907000D01*
X16205000Y-9907000D02*
X16205000Y-9155000D01*
X21315000Y-7662000D02*
X21315000Y-11172000D01*
X21315000Y-3902000D02*
X21315000Y-7362000D01*
X21415000Y-7362000D02*
X21415000Y-3902000D01*
X21415000Y-11172000D02*
X21415000Y-7662000D01*
X21415000Y-11812000D02*
X21415000Y-11472000D01*
X21315000Y-11812000D02*
X21315000Y-11472000D01*
X20115000Y-9567000D02*
X20115000Y-11812000D01*
X20115000Y-5757000D02*
X20115000Y-9267000D01*
X20115000Y-3602000D02*
X20115000Y-5457000D01*
X20015000Y-5457000D02*
X20015000Y-3602000D01*
X20015000Y-9267000D02*
X20015000Y-5757000D01*
X20015000Y-11812000D02*
X20015000Y-9567000D01*
X23220000Y-11512000D02*
X23220000Y-9180000D01*
X23320000Y-8880000D02*
X23320000Y-5420000D01*
X23320000Y-11512000D02*
X23320000Y-9180000D01*
X21920000Y-11085000D02*
X21920000Y-11812000D01*
X21920000Y-7275000D02*
X21920000Y-10785000D01*
X21920000Y-5120000D02*
X21920000Y-6975000D01*
X22020000Y-6975000D02*
X22020000Y-5120000D01*
X22020000Y-10785000D02*
X22020000Y-7275000D01*
X22020000Y-11812000D02*
X22020000Y-11085000D01*
X23220000Y-5420000D02*
X23220000Y-8880000D01*
X13795000Y-10934236D02*
X13818441Y-11002894D01*
X10898875Y-10559042D02*
G75*
G02*
X12395000Y-9866650I5277163J-9440318D01*
G01*
X15776000Y-11112000D02*
X18110000Y-11112000D01*
X19510000Y-12462000D02*
G75*
G02*
X19460000Y-12512000I-50000J0D01*
G01*
X13944459Y-11368296D02*
G75*
G02*
X15476000Y-11112000I2231579J-8631064D01*
G01*
X16476000Y-12512000D02*
X18660000Y-12512000D01*
X13449876Y-13025939D02*
G75*
G02*
X16176000Y-12512000I2726162J-6973421D01*
G01*
D11*
X7352485Y-12734402D02*
G75*
G02*
X7352485Y-12592980I70711J70711D01*
G01*
D12*
X9510337Y-14892253D02*
G75*
G02*
X9510337Y-15599360I-353553J-353553D01*
G01*
X10217443Y-16306467D02*
G75*
G02*
X9510337Y-15599360I-353553J353553D01*
G01*
X9864130Y-3993217D02*
G75*
G02*
X10161490Y-4290577I0J-297360D01*
G01*
X9864130Y-3993217D02*
G75*
G02*
X9685297Y-3026200I-240J500000D01*
G01*
X22222038Y-13174000D02*
G75*
G02*
X22722038Y-13674000I0J-500000D01*
G01*
X23722038Y-13674000D02*
G75*
G02*
X22722038Y-13674000I-500000J0D01*
G01*
X10161490Y-10169693D02*
G75*
G02*
X10114309Y-10254577I-100000J29D01*
G01*
X10161490Y-4290577D02*
X10161490Y-10169693D01*
X23421413Y-3334354D02*
G75*
G02*
X23722038Y-3792884I-199375J-458530D01*
G01*
X9685297Y-3026200D02*
G75*
G02*
X23421413Y-3334354I6490741J-16973160D01*
G01*
X8061271Y-11884194D02*
G75*
G02*
X10114309Y-10254577I8114767J-8115166D01*
G01*
X7352485Y-12592980D02*
X8061271Y-11884194D01*
X9510337Y-14892253D02*
X7352485Y-12734402D01*
X11350034Y-15173356D02*
X10217443Y-16306467D01*
X11350034Y-15173356D02*
G75*
G02*
X16176038Y-13174360I4826004J-4826004D01*
G01*
X16176038Y-13174360D02*
X22222038Y-13174000D01*
X23722038Y-3792884D02*
X23722038Y-13674000D01*
D13*
X8645559Y-13493787D02*
X8695559Y-13543787D01*
X8695559Y-13493787D02*
X8645559Y-13543787D01*
X9183863Y-11671204D02*
X9233863Y-11721204D01*
X9233863Y-11671204D02*
X9183863Y-11721204D01*
X9706219Y-14554447D02*
X9756219Y-14604447D01*
X9756219Y-14554447D02*
X9706219Y-14604447D01*
X10490000Y-5813750D02*
X10540000Y-5863750D01*
X10540000Y-5813750D02*
X10490000Y-5863750D01*
X10731538Y-10587511D02*
X10781538Y-10637511D01*
X10781538Y-10587511D02*
X10731538Y-10637511D01*
X11608156Y-14053961D02*
X11658156Y-14103961D01*
X11658156Y-14053961D02*
X11608156Y-14103961D01*
X11840000Y-4313750D02*
X11890000Y-4363750D01*
X11890000Y-4313750D02*
X11840000Y-4363750D01*
X12345000Y-5616000D02*
X12395000Y-5666000D01*
X12395000Y-5616000D02*
X12345000Y-5666000D01*
X12345000Y-9426000D02*
X12395000Y-9476000D01*
X12395000Y-9426000D02*
X12345000Y-9476000D01*
X13295263Y-13079909D02*
X13345263Y-13129909D01*
X13345263Y-13079909D02*
X13295263Y-13129909D01*
X13795000Y-3711000D02*
X13845000Y-3761000D01*
X13845000Y-3711000D02*
X13795000Y-3761000D01*
X13795000Y-7521000D02*
X13845000Y-7571000D01*
X13845000Y-7521000D02*
X13795000Y-7571000D01*
X13865914Y-11111582D02*
X13915914Y-11161582D01*
X13915914Y-11111582D02*
X13865914Y-11161582D01*
X14250000Y-5266000D02*
X14300000Y-5316000D01*
X14300000Y-5266000D02*
X14250000Y-5316000D01*
X14250000Y-9076000D02*
X14300000Y-9126000D01*
X14300000Y-9076000D02*
X14250000Y-9126000D01*
X15601000Y-11062000D02*
X15651000Y-11112000D01*
X15651000Y-11062000D02*
X15601000Y-11112000D01*
X15700000Y-3411000D02*
X15750000Y-3461000D01*
X15750000Y-3411000D02*
X15700000Y-3461000D01*
X15700000Y-7171000D02*
X15750000Y-7221000D01*
X15750000Y-7171000D02*
X15700000Y-7221000D01*
X16155000Y-5170000D02*
X16205000Y-5220000D01*
X16205000Y-5170000D02*
X16155000Y-5220000D01*
X16155000Y-8980000D02*
X16205000Y-9030000D01*
X16205000Y-8980000D02*
X16155000Y-9030000D01*
X16301000Y-12512000D02*
X16351000Y-12562000D01*
X16351000Y-12512000D02*
X16301000Y-12562000D01*
X17605000Y-3315000D02*
X17655000Y-3365000D01*
X17655000Y-3315000D02*
X17605000Y-3365000D01*
X17605000Y-7075000D02*
X17655000Y-7125000D01*
X17655000Y-7075000D02*
X17605000Y-7125000D01*
X17605000Y-9732000D02*
X17655000Y-9782000D01*
X17655000Y-9732000D02*
X17605000Y-9782000D01*
X18060000Y-5324000D02*
X18110000Y-5374000D01*
X18110000Y-5324000D02*
X18060000Y-5374000D01*
X18060000Y-9134000D02*
X18110000Y-9184000D01*
X18110000Y-9134000D02*
X18060000Y-9184000D01*
X18785000Y-12512000D02*
X18835000Y-12562000D01*
X18835000Y-12512000D02*
X18785000Y-12562000D01*
X19510000Y-3419000D02*
X19560000Y-3469000D01*
X19560000Y-3419000D02*
X19510000Y-3469000D01*
X19510000Y-7229000D02*
X19560000Y-7279000D01*
X19560000Y-7229000D02*
X19510000Y-7279000D01*
X19510000Y-11039000D02*
X19560000Y-11089000D01*
X19560000Y-11039000D02*
X19510000Y-11089000D01*
X19965000Y-5582000D02*
X20015000Y-5632000D01*
X20015000Y-5582000D02*
X19965000Y-5632000D01*
X19965000Y-9392000D02*
X20015000Y-9442000D01*
X20015000Y-9392000D02*
X19965000Y-9442000D01*
X21415000Y-3727000D02*
X21465000Y-3777000D01*
X21465000Y-3727000D02*
X21415000Y-3777000D01*
X21415000Y-7487000D02*
X21465000Y-7537000D01*
X21465000Y-7487000D02*
X21415000Y-7537000D01*
X21415000Y-11297000D02*
X21465000Y-11347000D01*
X21465000Y-11297000D02*
X21415000Y-11347000D01*
X21870000Y-7100000D02*
X21920000Y-7150000D01*
X21920000Y-7100000D02*
X21870000Y-7150000D01*
X21870000Y-10910000D02*
X21920000Y-10960000D01*
X21920000Y-10910000D02*
X21870000Y-10960000D01*
X23320000Y-5245000D02*
X23370000Y-5295000D01*
X23370000Y-5245000D02*
X23320000Y-5295000D01*
X23320000Y-9005000D02*
X23370000Y-9055000D01*
X23370000Y-9005000D02*
X23320000Y-9055000D01*
X23320000Y-11637000D02*
X23370000Y-11687000D01*
X23370000Y-11637000D02*
X23320000Y-11687000D01*
X8122499Y-12862945D02*
G75*
G03*
X8122499Y-12862945I-30000J0D01*
G01*
X10417061Y-15157507D02*
G75*
G03*
X10417061Y-15157507I-30000J0D01*
G01*
X12455000Y-2916000D02*
G75*
G03*
X12455000Y-2916000I-30000J0D01*
G01*
X13795000Y-2916000D02*
G75*
G03*
X13795000Y-2916000I-30000J0D01*
G01*
X14360000Y-2616000D02*
G75*
G03*
X14360000Y-2616000I-30000J0D01*
G01*
X14360000Y-10575000D02*
G75*
G03*
X14360000Y-10575000I-30000J0D01*
G01*
X15700000Y-2616000D02*
G75*
G03*
X15700000Y-2616000I-30000J0D01*
G01*
X15700000Y-10575000D02*
G75*
G03*
X15700000Y-10575000I-30000J0D01*
G01*
X16265000Y-2520000D02*
G75*
G03*
X16265000Y-2520000I-30000J0D01*
G01*
X16265000Y-10577000D02*
G75*
G03*
X16265000Y-10577000I-30000J0D01*
G01*
X17605000Y-2520000D02*
G75*
G03*
X17605000Y-2520000I-30000J0D01*
G01*
X17605000Y-10577000D02*
G75*
G03*
X17605000Y-10577000I-30000J0D01*
G01*
X18170000Y-2624000D02*
G75*
G03*
X18170000Y-2624000I-30000J0D01*
G01*
X19510000Y-2624000D02*
G75*
G03*
X19510000Y-2624000I-30000J0D01*
G01*
X19510000Y-12482000D02*
G75*
G03*
X19510000Y-12482000I-30000J0D01*
G01*
X20075000Y-2932000D02*
G75*
G03*
X20075000Y-2932000I-30000J0D01*
G01*
X20075000Y-12482000D02*
G75*
G03*
X20075000Y-12482000I-30000J0D01*
G01*
X21415000Y-2932000D02*
G75*
G03*
X21415000Y-2932000I-30000J0D01*
G01*
X21415000Y-12482000D02*
G75*
G03*
X21415000Y-12482000I-30000J0D01*
G01*
X21980000Y-4450000D02*
G75*
G03*
X21980000Y-4450000I-30000J0D01*
G01*
X21980000Y-12482000D02*
G75*
G03*
X21980000Y-12482000I-30000J0D01*
G01*
X23320000Y-4450000D02*
G75*
G03*
X23320000Y-4450000I-30000J0D01*
G01*
X23320000Y-12482000D02*
G75*
G03*
X23320000Y-12482000I-30000J0D01*
G01*
X21905625Y-3274062D02*
X21905625Y-3394062D01*
X21845625Y-3334062D02*
X21965625Y-3334062D01*
X22381875Y-3750312D02*
X22381875Y-3870312D01*
X22321875Y-3810312D02*
X22441875Y-3810312D01*
X10446336Y-3086461D02*
X10446336Y-2945039D01*
X10304914Y-2945039D01*
X10304914Y-3086461D01*
X10446336Y-3086461D01*
X10446336Y-6861961D02*
X10446336Y-6720539D01*
X10304914Y-6720539D01*
X10304914Y-6861961D01*
X10446336Y-6861961D01*
X10446336Y-8528836D02*
X10446336Y-8387414D01*
X10304914Y-8387414D01*
X10304914Y-8528836D01*
X10446336Y-8528836D01*
X10620711Y-9970711D02*
X10620711Y-9829289D01*
X10479289Y-9829289D01*
X10479289Y-9970711D01*
X10620711Y-9970711D01*
X12075086Y-3086461D02*
X12075086Y-2945039D01*
X11933664Y-2945039D01*
X11933664Y-3086461D01*
X12075086Y-3086461D01*
X12075086Y-6861961D02*
X12075086Y-6720539D01*
X11933664Y-6720539D01*
X11933664Y-6861961D01*
X12075086Y-6861961D01*
X12075086Y-8528836D02*
X12075086Y-8387414D01*
X11933664Y-8387414D01*
X11933664Y-8528836D01*
X12075086Y-8528836D01*
X14550056Y-11062793D02*
X14550056Y-10921370D01*
X14408633Y-10921370D01*
X14408633Y-11062793D01*
X14550056Y-11062793D01*
X15763086Y-10928211D02*
X15763086Y-10786789D01*
X15621664Y-10786789D01*
X15621664Y-10928211D01*
X15763086Y-10928211D01*
X15785086Y-2236649D02*
X15785086Y-2095226D01*
X15643664Y-2095226D01*
X15643664Y-2236649D01*
X15785086Y-2236649D01*
X17668086Y-10930211D02*
X17668086Y-10788789D01*
X17526664Y-10788789D01*
X17526664Y-10930211D01*
X17668086Y-10930211D01*
X7961579Y-12665647D02*
X8071579Y-12555647D01*
X7961579Y-12445647D01*
X7851579Y-12555647D01*
X7961579Y-12665647D01*
X8732325Y-11894901D02*
X8842325Y-11784901D01*
X8732325Y-11674901D01*
X8622325Y-11784901D01*
X8732325Y-11894901D01*
X9308617Y-14012685D02*
X9418617Y-13902685D01*
X9308617Y-13792685D01*
X9198617Y-13902685D01*
X9308617Y-14012685D01*
X9347508Y-14051576D02*
X9457508Y-13941576D01*
X9347508Y-13831576D01*
X9237508Y-13941576D01*
X9347508Y-14051576D01*
X10079364Y-13241939D02*
X10189364Y-13131939D01*
X10079364Y-13021939D01*
X9969364Y-13131939D01*
X10079364Y-13241939D01*
X10118254Y-13280830D02*
X10228254Y-13170830D01*
X10118254Y-13060830D01*
X10008254Y-13170830D01*
X10118254Y-13280830D01*
X10168054Y-10793227D02*
X10278054Y-10683227D01*
X10168054Y-10573227D01*
X10058054Y-10683227D01*
X10168054Y-10793227D01*
X10694546Y-15398615D02*
X10804546Y-15288615D01*
X10694546Y-15178615D01*
X10584546Y-15288615D01*
X10694546Y-15398615D01*
X11112022Y-10248227D02*
X11222022Y-10138227D01*
X11112022Y-10028227D01*
X11002022Y-10138227D01*
X11112022Y-10248227D01*
X11120554Y-12443005D02*
X11230554Y-12333005D01*
X11120554Y-12223005D01*
X11010554Y-12333005D01*
X11120554Y-12443005D01*
X11148054Y-12490637D02*
X11258054Y-12380637D01*
X11148054Y-12270637D01*
X11038054Y-12380637D01*
X11148054Y-12490637D01*
X11465293Y-14627868D02*
X11575293Y-14517868D01*
X11465293Y-14407868D01*
X11355293Y-14517868D01*
X11465293Y-14627868D01*
X12064522Y-11898005D02*
X12174522Y-11788005D01*
X12064522Y-11678005D01*
X11954522Y-11788005D01*
X12064522Y-11898005D01*
X12092022Y-11945637D02*
X12202022Y-11835637D01*
X12092022Y-11725637D01*
X11982022Y-11835637D01*
X12092022Y-11945637D01*
X12100554Y-14140415D02*
X12210554Y-14030415D01*
X12100554Y-13920415D01*
X11990554Y-14030415D01*
X12100554Y-14140415D01*
X13044522Y-13595415D02*
X13154522Y-13485415D01*
X13044522Y-13375415D01*
X12934522Y-13485415D01*
X13044522Y-13595415D01*
X13414239Y-11351313D02*
X13524239Y-11241313D01*
X13414239Y-11131314D01*
X13304239Y-11241313D01*
X13414239Y-11351313D01*
X13891724Y-13252263D02*
X14001724Y-13142263D01*
X13891724Y-13032263D01*
X13781724Y-13142263D01*
X13891724Y-13252263D01*
X14948885Y-12986722D02*
X15058885Y-12876722D01*
X14948885Y-12766722D01*
X14838885Y-12876722D01*
X14948885Y-12986722D01*
X22018750Y-3447187D02*
X22268750Y-3697187D01*
X22268750Y-3447187D02*
X22018750Y-3697187D01*
X22268750Y-3572187D02*
G75*
G03*
X22268750Y-3572187I-125000J0D01*
G01*
X9598890Y-3228217D02*
X10128890Y-3758217D01*
X10128890Y-3228217D02*
X9598890Y-3758217D01*
X9863890Y-3228217D02*
X9863890Y-3758217D01*
X9598890Y-3493217D02*
X10128890Y-3493217D01*
X9598890Y-15687914D02*
X10128890Y-16217914D01*
X10128890Y-15687914D02*
X9598890Y-16217914D01*
X9863890Y-15687914D02*
X9863890Y-16217914D01*
X9598890Y-15952914D02*
X10128890Y-15952914D01*
X22957038Y-3527884D02*
X23487038Y-4057884D01*
X23487038Y-3527884D02*
X22957038Y-4057884D01*
X23222038Y-3527884D02*
X23222038Y-4057884D01*
X22957038Y-3792884D02*
X23487038Y-3792884D01*
X22957038Y-13409000D02*
X23487038Y-13939000D01*
X23487038Y-13409000D02*
X22957038Y-13939000D01*
X23222038Y-13409000D02*
X23222038Y-13939000D01*
X22957038Y-13674000D02*
X23487038Y-13674000D01*
D14*
X7603624Y-16923628D02*
X7603624Y-16623628D01*
X7675052Y-16623628D01*
X7717910Y-16637914D01*
X7746481Y-16666485D01*
X7760767Y-16695057D01*
X7775052Y-16752199D01*
X7775052Y-16795057D01*
X7760767Y-16852200D01*
X7746481Y-16880771D01*
X7717910Y-16909342D01*
X7675052Y-16923628D01*
X7603624Y-16923628D01*
X7903624Y-16923628D02*
X7903624Y-16723628D01*
X7903624Y-16780771D02*
X7917910Y-16752199D01*
X7932195Y-16737914D01*
X7960767Y-16723628D01*
X7989338Y-16723628D01*
X8089338Y-16923628D02*
X8089338Y-16723628D01*
X8089338Y-16623628D02*
X8075052Y-16637914D01*
X8089338Y-16652199D01*
X8103624Y-16637914D01*
X8089338Y-16623628D01*
X8089338Y-16652199D01*
X8275052Y-16923628D02*
X8246481Y-16909342D01*
X8232195Y-16880771D01*
X8232195Y-16623628D01*
X8432195Y-16923628D02*
X8403624Y-16909342D01*
X8389338Y-16880771D01*
X8389338Y-16623628D01*
X8775053Y-16923628D02*
X8775053Y-16623628D01*
X8875053Y-16837914D01*
X8975053Y-16623628D01*
X8975053Y-16923628D01*
X9246481Y-16923628D02*
X9246481Y-16766485D01*
X9232195Y-16737914D01*
X9203624Y-16723628D01*
X9146481Y-16723628D01*
X9117910Y-16737914D01*
X9246481Y-16909342D02*
X9217910Y-16923628D01*
X9146481Y-16923628D01*
X9117910Y-16909342D01*
X9103624Y-16880771D01*
X9103624Y-16852200D01*
X9117910Y-16823628D01*
X9146481Y-16809342D01*
X9217910Y-16809342D01*
X9246481Y-16795057D01*
X9389338Y-16723628D02*
X9389338Y-17023628D01*
X9389338Y-16737914D02*
X9417910Y-16723628D01*
X9475053Y-16723628D01*
X9503624Y-16737914D01*
X9517910Y-16752199D01*
X9532195Y-16780771D01*
X9532195Y-16866485D01*
X9517910Y-16895057D01*
X9503624Y-16909342D01*
X9475053Y-16923628D01*
X9417910Y-16923628D01*
X9389338Y-16909342D01*
X9660767Y-16895057D02*
X9675053Y-16909342D01*
X9660767Y-16923628D01*
X9646481Y-16909342D01*
X9660767Y-16895057D01*
X9660767Y-16923628D01*
X9660767Y-16737914D02*
X9675053Y-16752199D01*
X9660767Y-16766485D01*
X9646481Y-16752199D01*
X9660767Y-16737914D01*
X9660767Y-16766485D01*
X7267195Y-17392914D02*
X7317195Y-17442914D01*
X7317195Y-17392914D02*
X7267195Y-17442914D01*
X7660767Y-17253628D02*
X7689338Y-17253628D01*
X7717910Y-17267914D01*
X7732195Y-17282200D01*
X7746481Y-17310771D01*
X7760767Y-17367914D01*
X7760767Y-17439342D01*
X7746481Y-17496485D01*
X7732195Y-17525057D01*
X7717910Y-17539342D01*
X7689338Y-17553628D01*
X7660767Y-17553628D01*
X7632195Y-17539342D01*
X7617910Y-17525057D01*
X7603624Y-17496485D01*
X7589338Y-17439342D01*
X7589338Y-17367914D01*
X7603624Y-17310771D01*
X7617910Y-17282200D01*
X7632195Y-17267914D01*
X7660767Y-17253628D01*
X7889338Y-17525057D02*
X7903624Y-17539342D01*
X7889338Y-17553628D01*
X7875052Y-17539342D01*
X7889338Y-17525057D01*
X7889338Y-17553628D01*
X8175052Y-17253628D02*
X8032195Y-17253628D01*
X8017910Y-17396485D01*
X8032195Y-17382200D01*
X8060767Y-17367914D01*
X8132195Y-17367914D01*
X8160767Y-17382200D01*
X8175052Y-17396485D01*
X8189338Y-17425057D01*
X8189338Y-17496485D01*
X8175052Y-17525057D01*
X8160767Y-17539342D01*
X8132195Y-17553628D01*
X8060767Y-17553628D01*
X8032195Y-17539342D01*
X8017910Y-17525057D01*
X8375052Y-17253628D02*
X8403624Y-17253628D01*
X8432195Y-17267914D01*
X8446481Y-17282200D01*
X8460767Y-17310771D01*
X8475053Y-17367914D01*
X8475053Y-17439342D01*
X8460767Y-17496485D01*
X8446481Y-17525057D01*
X8432195Y-17539342D01*
X8403624Y-17553628D01*
X8375052Y-17553628D01*
X8346481Y-17539342D01*
X8332195Y-17525057D01*
X8317910Y-17496485D01*
X8303624Y-17439342D01*
X8303624Y-17367914D01*
X8317910Y-17310771D01*
X8332195Y-17282200D01*
X8346481Y-17267914D01*
X8375052Y-17253628D01*
X8660767Y-17253628D02*
X8689338Y-17253628D01*
X8717910Y-17267914D01*
X8732195Y-17282200D01*
X8746481Y-17310771D01*
X8760767Y-17367914D01*
X8760767Y-17439342D01*
X8746481Y-17496485D01*
X8732195Y-17525057D01*
X8717910Y-17539342D01*
X8689338Y-17553628D01*
X8660767Y-17553628D01*
X8632195Y-17539342D01*
X8617910Y-17525057D01*
X8603624Y-17496485D01*
X8589338Y-17439342D01*
X8589338Y-17367914D01*
X8603624Y-17310771D01*
X8617910Y-17282200D01*
X8632195Y-17267914D01*
X8660767Y-17253628D01*
X8889338Y-17553628D02*
X8889338Y-17353628D01*
X8889338Y-17382200D02*
X8903624Y-17367914D01*
X8932195Y-17353628D01*
X8975053Y-17353628D01*
X9003624Y-17367914D01*
X9017910Y-17396485D01*
X9017910Y-17553628D01*
X9017910Y-17396485D02*
X9032195Y-17367914D01*
X9060767Y-17353628D01*
X9103624Y-17353628D01*
X9132195Y-17367914D01*
X9146481Y-17396485D01*
X9146481Y-17553628D01*
X9289338Y-17553628D02*
X9289338Y-17353628D01*
X9289338Y-17382200D02*
X9303624Y-17367914D01*
X9332195Y-17353628D01*
X9375053Y-17353628D01*
X9403624Y-17367914D01*
X9417910Y-17396485D01*
X9417910Y-17553628D01*
X9417910Y-17396485D02*
X9432195Y-17367914D01*
X9460767Y-17353628D01*
X9503624Y-17353628D01*
X9532195Y-17367914D01*
X9546481Y-17396485D01*
X9546481Y-17553628D01*
X10132195Y-17239342D02*
X9875053Y-17625057D01*
X10517910Y-17253628D02*
X10546481Y-17253628D01*
X10575053Y-17267914D01*
X10589338Y-17282200D01*
X10603624Y-17310771D01*
X10617910Y-17367914D01*
X10617910Y-17439342D01*
X10603624Y-17496485D01*
X10589338Y-17525057D01*
X10575053Y-17539342D01*
X10546481Y-17553628D01*
X10517910Y-17553628D01*
X10489338Y-17539342D01*
X10475053Y-17525057D01*
X10460767Y-17496485D01*
X10446481Y-17439342D01*
X10446481Y-17367914D01*
X10460767Y-17310771D01*
X10475053Y-17282200D01*
X10489338Y-17267914D01*
X10517910Y-17253628D01*
X10746481Y-17525057D02*
X10760767Y-17539342D01*
X10746481Y-17553628D01*
X10732195Y-17539342D01*
X10746481Y-17525057D01*
X10746481Y-17553628D01*
X10946481Y-17253628D02*
X10975053Y-17253628D01*
X11003624Y-17267914D01*
X11017910Y-17282200D01*
X11032195Y-17310771D01*
X11046481Y-17367914D01*
X11046481Y-17439342D01*
X11032195Y-17496485D01*
X11017910Y-17525057D01*
X11003624Y-17539342D01*
X10975053Y-17553628D01*
X10946481Y-17553628D01*
X10917910Y-17539342D01*
X10903624Y-17525057D01*
X10889338Y-17496485D01*
X10875053Y-17439342D01*
X10875053Y-17367914D01*
X10889338Y-17310771D01*
X10903624Y-17282200D01*
X10917910Y-17267914D01*
X10946481Y-17253628D01*
X11332195Y-17553628D02*
X11160767Y-17553628D01*
X11246481Y-17553628D02*
X11246481Y-17253628D01*
X11217910Y-17296485D01*
X11189338Y-17325057D01*
X11160767Y-17339342D01*
X11475052Y-17553628D02*
X11532195Y-17553628D01*
X11560767Y-17539342D01*
X11575052Y-17525057D01*
X11603624Y-17482200D01*
X11617910Y-17425057D01*
X11617910Y-17310771D01*
X11603624Y-17282200D01*
X11589338Y-17267914D01*
X11560767Y-17253628D01*
X11503624Y-17253628D01*
X11475052Y-17267914D01*
X11460767Y-17282200D01*
X11446481Y-17310771D01*
X11446481Y-17382200D01*
X11460767Y-17410771D01*
X11475052Y-17425057D01*
X11503624Y-17439342D01*
X11560767Y-17439342D01*
X11589338Y-17425057D01*
X11603624Y-17410771D01*
X11617910Y-17382200D01*
X11717910Y-17253628D02*
X11917910Y-17253628D01*
X11789338Y-17553628D01*
X12017910Y-17253628D02*
X12017910Y-17310771D01*
X12132195Y-17253628D02*
X12132195Y-17310771D01*
X12575052Y-17667914D02*
X12560767Y-17653628D01*
X12532195Y-17610771D01*
X12517910Y-17582200D01*
X12503624Y-17539342D01*
X12489338Y-17467914D01*
X12489338Y-17410771D01*
X12503624Y-17339342D01*
X12517910Y-17296485D01*
X12532195Y-17267914D01*
X12560767Y-17225057D01*
X12575052Y-17210771D01*
X12817910Y-17353628D02*
X12817910Y-17553628D01*
X12746481Y-17239342D02*
X12675052Y-17453628D01*
X12860767Y-17453628D01*
X13032195Y-17253628D02*
X13060767Y-17253628D01*
X13089338Y-17267914D01*
X13103624Y-17282200D01*
X13117910Y-17310771D01*
X13132195Y-17367914D01*
X13132195Y-17439342D01*
X13117910Y-17496485D01*
X13103624Y-17525057D01*
X13089338Y-17539342D01*
X13060767Y-17553628D01*
X13032195Y-17553628D01*
X13003624Y-17539342D01*
X12989338Y-17525057D01*
X12975052Y-17496485D01*
X12960767Y-17439342D01*
X12960767Y-17367914D01*
X12975052Y-17310771D01*
X12989338Y-17282200D01*
X13003624Y-17267914D01*
X13032195Y-17253628D01*
X13489338Y-17553628D02*
X13489338Y-17253628D01*
X13617910Y-17553628D02*
X13617910Y-17396485D01*
X13603624Y-17367914D01*
X13575052Y-17353628D01*
X13532195Y-17353628D01*
X13503624Y-17367914D01*
X13489338Y-17382200D01*
X13803624Y-17553628D02*
X13775052Y-17539342D01*
X13760767Y-17525057D01*
X13746481Y-17496485D01*
X13746481Y-17410771D01*
X13760767Y-17382200D01*
X13775052Y-17367914D01*
X13803624Y-17353628D01*
X13846481Y-17353628D01*
X13875052Y-17367914D01*
X13889338Y-17382200D01*
X13903624Y-17410771D01*
X13903624Y-17496485D01*
X13889338Y-17525057D01*
X13875052Y-17539342D01*
X13846481Y-17553628D01*
X13803624Y-17553628D01*
X14075052Y-17553628D02*
X14046481Y-17539342D01*
X14032195Y-17510771D01*
X14032195Y-17253628D01*
X14303624Y-17539342D02*
X14275052Y-17553628D01*
X14217910Y-17553628D01*
X14189338Y-17539342D01*
X14175052Y-17510771D01*
X14175052Y-17396485D01*
X14189338Y-17367914D01*
X14217910Y-17353628D01*
X14275052Y-17353628D01*
X14303624Y-17367914D01*
X14317910Y-17396485D01*
X14317910Y-17425057D01*
X14175052Y-17453628D01*
X14432195Y-17539342D02*
X14460767Y-17553628D01*
X14517910Y-17553628D01*
X14546481Y-17539342D01*
X14560767Y-17510771D01*
X14560767Y-17496485D01*
X14546481Y-17467914D01*
X14517910Y-17453628D01*
X14475052Y-17453628D01*
X14446481Y-17439342D01*
X14432195Y-17410771D01*
X14432195Y-17396485D01*
X14446481Y-17367914D01*
X14475052Y-17353628D01*
X14517910Y-17353628D01*
X14546481Y-17367914D01*
X14660767Y-17667914D02*
X14675052Y-17653628D01*
X14703624Y-17610771D01*
X14717910Y-17582200D01*
X14732195Y-17539342D01*
X14746481Y-17467914D01*
X14746481Y-17410771D01*
X14732195Y-17339342D01*
X14717910Y-17296485D01*
X14703624Y-17267914D01*
X14675052Y-17225057D01*
X14660767Y-17210771D01*
X15203624Y-17667914D02*
X15189338Y-17653628D01*
X15160767Y-17610771D01*
X15146481Y-17582200D01*
X15132195Y-17539342D01*
X15117910Y-17467914D01*
X15117910Y-17410771D01*
X15132195Y-17339342D01*
X15146481Y-17296485D01*
X15160767Y-17267914D01*
X15189338Y-17225057D01*
X15203624Y-17210771D01*
X15317910Y-17353628D02*
X15317910Y-17553628D01*
X15317910Y-17382200D02*
X15332195Y-17367914D01*
X15360767Y-17353628D01*
X15403624Y-17353628D01*
X15432195Y-17367914D01*
X15446481Y-17396485D01*
X15446481Y-17553628D01*
X15632195Y-17553628D02*
X15603624Y-17539342D01*
X15589338Y-17525057D01*
X15575052Y-17496485D01*
X15575052Y-17410771D01*
X15589338Y-17382200D01*
X15603624Y-17367914D01*
X15632195Y-17353628D01*
X15675052Y-17353628D01*
X15703624Y-17367914D01*
X15717910Y-17382200D01*
X15732195Y-17410771D01*
X15732195Y-17496485D01*
X15717910Y-17525057D01*
X15703624Y-17539342D01*
X15675052Y-17553628D01*
X15632195Y-17553628D01*
X15817910Y-17353628D02*
X15932195Y-17353628D01*
X15860767Y-17253628D02*
X15860767Y-17510771D01*
X15875052Y-17539342D01*
X15903624Y-17553628D01*
X15932195Y-17553628D01*
X16260767Y-17353628D02*
X16260767Y-17653628D01*
X16260767Y-17367914D02*
X16289338Y-17353628D01*
X16346481Y-17353628D01*
X16375052Y-17367914D01*
X16389338Y-17382200D01*
X16403624Y-17410771D01*
X16403624Y-17496485D01*
X16389338Y-17525057D01*
X16375052Y-17539342D01*
X16346481Y-17553628D01*
X16289338Y-17553628D01*
X16260767Y-17539342D01*
X16575052Y-17553628D02*
X16546481Y-17539342D01*
X16532195Y-17510771D01*
X16532195Y-17253628D01*
X16817910Y-17553628D02*
X16817910Y-17396485D01*
X16803624Y-17367914D01*
X16775052Y-17353628D01*
X16717910Y-17353628D01*
X16689338Y-17367914D01*
X16817910Y-17539342D02*
X16789338Y-17553628D01*
X16717910Y-17553628D01*
X16689338Y-17539342D01*
X16675052Y-17510771D01*
X16675052Y-17482200D01*
X16689338Y-17453628D01*
X16717910Y-17439342D01*
X16789338Y-17439342D01*
X16817910Y-17425057D01*
X16917910Y-17353628D02*
X17032195Y-17353628D01*
X16960767Y-17253628D02*
X16960767Y-17510771D01*
X16975053Y-17539342D01*
X17003624Y-17553628D01*
X17032195Y-17553628D01*
X17246481Y-17539342D02*
X17217910Y-17553628D01*
X17160767Y-17553628D01*
X17132195Y-17539342D01*
X17117910Y-17510771D01*
X17117910Y-17396485D01*
X17132195Y-17367914D01*
X17160767Y-17353628D01*
X17217910Y-17353628D01*
X17246481Y-17367914D01*
X17260767Y-17396485D01*
X17260767Y-17425057D01*
X17117910Y-17453628D01*
X17517910Y-17553628D02*
X17517910Y-17253628D01*
X17517910Y-17539342D02*
X17489338Y-17553628D01*
X17432195Y-17553628D01*
X17403624Y-17539342D01*
X17389338Y-17525057D01*
X17375053Y-17496485D01*
X17375053Y-17410771D01*
X17389338Y-17382200D01*
X17403624Y-17367914D01*
X17432195Y-17353628D01*
X17489338Y-17353628D01*
X17517910Y-17367914D01*
X17632195Y-17667914D02*
X17646481Y-17653628D01*
X17675053Y-17610771D01*
X17689338Y-17582200D01*
X17703624Y-17539342D01*
X17717910Y-17467914D01*
X17717910Y-17410771D01*
X17703624Y-17339342D01*
X17689338Y-17296485D01*
X17675053Y-17267914D01*
X17646481Y-17225057D01*
X17632195Y-17210771D01*
X7317195Y-17813914D02*
G75*
G03*
X7317195Y-17813914I-30000J0D01*
G01*
X7660767Y-17649628D02*
X7689338Y-17649628D01*
X7717910Y-17663914D01*
X7732195Y-17678200D01*
X7746481Y-17706771D01*
X7760767Y-17763914D01*
X7760767Y-17835342D01*
X7746481Y-17892485D01*
X7732195Y-17921057D01*
X7717910Y-17935342D01*
X7689338Y-17949628D01*
X7660767Y-17949628D01*
X7632195Y-17935342D01*
X7617910Y-17921057D01*
X7603624Y-17892485D01*
X7589338Y-17835342D01*
X7589338Y-17763914D01*
X7603624Y-17706771D01*
X7617910Y-17678200D01*
X7632195Y-17663914D01*
X7660767Y-17649628D01*
X7889338Y-17921057D02*
X7903624Y-17935342D01*
X7889338Y-17949628D01*
X7875052Y-17935342D01*
X7889338Y-17921057D01*
X7889338Y-17949628D01*
X8160767Y-17649628D02*
X8103624Y-17649628D01*
X8075052Y-17663914D01*
X8060767Y-17678200D01*
X8032195Y-17721057D01*
X8017910Y-17778200D01*
X8017910Y-17892485D01*
X8032195Y-17921057D01*
X8046481Y-17935342D01*
X8075052Y-17949628D01*
X8132195Y-17949628D01*
X8160767Y-17935342D01*
X8175052Y-17921057D01*
X8189338Y-17892485D01*
X8189338Y-17821057D01*
X8175052Y-17792485D01*
X8160767Y-17778200D01*
X8132195Y-17763914D01*
X8075052Y-17763914D01*
X8046481Y-17778200D01*
X8032195Y-17792485D01*
X8017910Y-17821057D01*
X8375052Y-17649628D02*
X8403624Y-17649628D01*
X8432195Y-17663914D01*
X8446481Y-17678200D01*
X8460767Y-17706771D01*
X8475053Y-17763914D01*
X8475053Y-17835342D01*
X8460767Y-17892485D01*
X8446481Y-17921057D01*
X8432195Y-17935342D01*
X8403624Y-17949628D01*
X8375052Y-17949628D01*
X8346481Y-17935342D01*
X8332195Y-17921057D01*
X8317910Y-17892485D01*
X8303624Y-17835342D01*
X8303624Y-17763914D01*
X8317910Y-17706771D01*
X8332195Y-17678200D01*
X8346481Y-17663914D01*
X8375052Y-17649628D01*
X8660767Y-17649628D02*
X8689338Y-17649628D01*
X8717910Y-17663914D01*
X8732195Y-17678200D01*
X8746481Y-17706771D01*
X8760767Y-17763914D01*
X8760767Y-17835342D01*
X8746481Y-17892485D01*
X8732195Y-17921057D01*
X8717910Y-17935342D01*
X8689338Y-17949628D01*
X8660767Y-17949628D01*
X8632195Y-17935342D01*
X8617910Y-17921057D01*
X8603624Y-17892485D01*
X8589338Y-17835342D01*
X8589338Y-17763914D01*
X8603624Y-17706771D01*
X8617910Y-17678200D01*
X8632195Y-17663914D01*
X8660767Y-17649628D01*
X8889338Y-17949628D02*
X8889338Y-17749628D01*
X8889338Y-17778200D02*
X8903624Y-17763914D01*
X8932195Y-17749628D01*
X8975053Y-17749628D01*
X9003624Y-17763914D01*
X9017910Y-17792485D01*
X9017910Y-17949628D01*
X9017910Y-17792485D02*
X9032195Y-17763914D01*
X9060767Y-17749628D01*
X9103624Y-17749628D01*
X9132195Y-17763914D01*
X9146481Y-17792485D01*
X9146481Y-17949628D01*
X9289338Y-17949628D02*
X9289338Y-17749628D01*
X9289338Y-17778200D02*
X9303624Y-17763914D01*
X9332195Y-17749628D01*
X9375053Y-17749628D01*
X9403624Y-17763914D01*
X9417910Y-17792485D01*
X9417910Y-17949628D01*
X9417910Y-17792485D02*
X9432195Y-17763914D01*
X9460767Y-17749628D01*
X9503624Y-17749628D01*
X9532195Y-17763914D01*
X9546481Y-17792485D01*
X9546481Y-17949628D01*
X10132195Y-17635342D02*
X9875053Y-18021057D01*
X10517910Y-17649628D02*
X10546481Y-17649628D01*
X10575053Y-17663914D01*
X10589338Y-17678200D01*
X10603624Y-17706771D01*
X10617910Y-17763914D01*
X10617910Y-17835342D01*
X10603624Y-17892485D01*
X10589338Y-17921057D01*
X10575053Y-17935342D01*
X10546481Y-17949628D01*
X10517910Y-17949628D01*
X10489338Y-17935342D01*
X10475053Y-17921057D01*
X10460767Y-17892485D01*
X10446481Y-17835342D01*
X10446481Y-17763914D01*
X10460767Y-17706771D01*
X10475053Y-17678200D01*
X10489338Y-17663914D01*
X10517910Y-17649628D01*
X10746481Y-17921057D02*
X10760767Y-17935342D01*
X10746481Y-17949628D01*
X10732195Y-17935342D01*
X10746481Y-17921057D01*
X10746481Y-17949628D01*
X10946481Y-17649628D02*
X10975053Y-17649628D01*
X11003624Y-17663914D01*
X11017910Y-17678200D01*
X11032195Y-17706771D01*
X11046481Y-17763914D01*
X11046481Y-17835342D01*
X11032195Y-17892485D01*
X11017910Y-17921057D01*
X11003624Y-17935342D01*
X10975053Y-17949628D01*
X10946481Y-17949628D01*
X10917910Y-17935342D01*
X10903624Y-17921057D01*
X10889338Y-17892485D01*
X10875053Y-17835342D01*
X10875053Y-17763914D01*
X10889338Y-17706771D01*
X10903624Y-17678200D01*
X10917910Y-17663914D01*
X10946481Y-17649628D01*
X11160767Y-17678200D02*
X11175053Y-17663914D01*
X11203624Y-17649628D01*
X11275052Y-17649628D01*
X11303624Y-17663914D01*
X11317910Y-17678200D01*
X11332195Y-17706771D01*
X11332195Y-17735342D01*
X11317910Y-17778200D01*
X11146481Y-17949628D01*
X11332195Y-17949628D01*
X11432195Y-17649628D02*
X11617910Y-17649628D01*
X11517910Y-17763914D01*
X11560767Y-17763914D01*
X11589338Y-17778200D01*
X11603624Y-17792485D01*
X11617910Y-17821057D01*
X11617910Y-17892485D01*
X11603624Y-17921057D01*
X11589338Y-17935342D01*
X11560767Y-17949628D01*
X11475052Y-17949628D01*
X11446481Y-17935342D01*
X11432195Y-17921057D01*
X11875052Y-17649628D02*
X11817910Y-17649628D01*
X11789338Y-17663914D01*
X11775052Y-17678200D01*
X11746481Y-17721057D01*
X11732195Y-17778200D01*
X11732195Y-17892485D01*
X11746481Y-17921057D01*
X11760767Y-17935342D01*
X11789338Y-17949628D01*
X11846481Y-17949628D01*
X11875052Y-17935342D01*
X11889338Y-17921057D01*
X11903624Y-17892485D01*
X11903624Y-17821057D01*
X11889338Y-17792485D01*
X11875052Y-17778200D01*
X11846481Y-17763914D01*
X11789338Y-17763914D01*
X11760767Y-17778200D01*
X11746481Y-17792485D01*
X11732195Y-17821057D01*
X12017910Y-17649628D02*
X12017910Y-17706771D01*
X12132195Y-17649628D02*
X12132195Y-17706771D01*
X12575052Y-18063914D02*
X12560767Y-18049628D01*
X12532195Y-18006771D01*
X12517910Y-17978200D01*
X12503624Y-17935342D01*
X12489338Y-17863914D01*
X12489338Y-17806771D01*
X12503624Y-17735342D01*
X12517910Y-17692485D01*
X12532195Y-17663914D01*
X12560767Y-17621057D01*
X12575052Y-17606771D01*
X12675052Y-17678200D02*
X12689338Y-17663914D01*
X12717910Y-17649628D01*
X12789338Y-17649628D01*
X12817910Y-17663914D01*
X12832195Y-17678200D01*
X12846481Y-17706771D01*
X12846481Y-17735342D01*
X12832195Y-17778200D01*
X12660767Y-17949628D01*
X12846481Y-17949628D01*
X12946481Y-17649628D02*
X13132195Y-17649628D01*
X13032195Y-17763914D01*
X13075052Y-17763914D01*
X13103624Y-17778200D01*
X13117910Y-17792485D01*
X13132195Y-17821057D01*
X13132195Y-17892485D01*
X13117910Y-17921057D01*
X13103624Y-17935342D01*
X13075052Y-17949628D01*
X12989338Y-17949628D01*
X12960767Y-17935342D01*
X12946481Y-17921057D01*
X13489338Y-17949628D02*
X13489338Y-17649628D01*
X13617910Y-17949628D02*
X13617910Y-17792485D01*
X13603624Y-17763914D01*
X13575052Y-17749628D01*
X13532195Y-17749628D01*
X13503624Y-17763914D01*
X13489338Y-17778200D01*
X13803624Y-17949628D02*
X13775052Y-17935342D01*
X13760767Y-17921057D01*
X13746481Y-17892485D01*
X13746481Y-17806771D01*
X13760767Y-17778200D01*
X13775052Y-17763914D01*
X13803624Y-17749628D01*
X13846481Y-17749628D01*
X13875052Y-17763914D01*
X13889338Y-17778200D01*
X13903624Y-17806771D01*
X13903624Y-17892485D01*
X13889338Y-17921057D01*
X13875052Y-17935342D01*
X13846481Y-17949628D01*
X13803624Y-17949628D01*
X14075052Y-17949628D02*
X14046481Y-17935342D01*
X14032195Y-17906771D01*
X14032195Y-17649628D01*
X14303624Y-17935342D02*
X14275052Y-17949628D01*
X14217910Y-17949628D01*
X14189338Y-17935342D01*
X14175052Y-17906771D01*
X14175052Y-17792485D01*
X14189338Y-17763914D01*
X14217910Y-17749628D01*
X14275052Y-17749628D01*
X14303624Y-17763914D01*
X14317910Y-17792485D01*
X14317910Y-17821057D01*
X14175052Y-17849628D01*
X14432195Y-17935342D02*
X14460767Y-17949628D01*
X14517910Y-17949628D01*
X14546481Y-17935342D01*
X14560767Y-17906771D01*
X14560767Y-17892485D01*
X14546481Y-17863914D01*
X14517910Y-17849628D01*
X14475052Y-17849628D01*
X14446481Y-17835342D01*
X14432195Y-17806771D01*
X14432195Y-17792485D01*
X14446481Y-17763914D01*
X14475052Y-17749628D01*
X14517910Y-17749628D01*
X14546481Y-17763914D01*
X14660767Y-18063914D02*
X14675052Y-18049628D01*
X14703624Y-18006771D01*
X14717910Y-17978200D01*
X14732195Y-17935342D01*
X14746481Y-17863914D01*
X14746481Y-17806771D01*
X14732195Y-17735342D01*
X14717910Y-17692485D01*
X14703624Y-17663914D01*
X14675052Y-17621057D01*
X14660767Y-17606771D01*
X15203624Y-18063914D02*
X15189338Y-18049628D01*
X15160767Y-18006771D01*
X15146481Y-17978200D01*
X15132195Y-17935342D01*
X15117910Y-17863914D01*
X15117910Y-17806771D01*
X15132195Y-17735342D01*
X15146481Y-17692485D01*
X15160767Y-17663914D01*
X15189338Y-17621057D01*
X15203624Y-17606771D01*
X15317910Y-17749628D02*
X15317910Y-17949628D01*
X15317910Y-17778200D02*
X15332195Y-17763914D01*
X15360767Y-17749628D01*
X15403624Y-17749628D01*
X15432195Y-17763914D01*
X15446481Y-17792485D01*
X15446481Y-17949628D01*
X15632195Y-17949628D02*
X15603624Y-17935342D01*
X15589338Y-17921057D01*
X15575052Y-17892485D01*
X15575052Y-17806771D01*
X15589338Y-17778200D01*
X15603624Y-17763914D01*
X15632195Y-17749628D01*
X15675052Y-17749628D01*
X15703624Y-17763914D01*
X15717910Y-17778200D01*
X15732195Y-17806771D01*
X15732195Y-17892485D01*
X15717910Y-17921057D01*
X15703624Y-17935342D01*
X15675052Y-17949628D01*
X15632195Y-17949628D01*
X15817910Y-17749628D02*
X15932195Y-17749628D01*
X15860767Y-17649628D02*
X15860767Y-17906771D01*
X15875052Y-17935342D01*
X15903624Y-17949628D01*
X15932195Y-17949628D01*
X16260767Y-17749628D02*
X16260767Y-18049628D01*
X16260767Y-17763914D02*
X16289338Y-17749628D01*
X16346481Y-17749628D01*
X16375052Y-17763914D01*
X16389338Y-17778200D01*
X16403624Y-17806771D01*
X16403624Y-17892485D01*
X16389338Y-17921057D01*
X16375052Y-17935342D01*
X16346481Y-17949628D01*
X16289338Y-17949628D01*
X16260767Y-17935342D01*
X16575052Y-17949628D02*
X16546481Y-17935342D01*
X16532195Y-17906771D01*
X16532195Y-17649628D01*
X16817910Y-17949628D02*
X16817910Y-17792485D01*
X16803624Y-17763914D01*
X16775052Y-17749628D01*
X16717910Y-17749628D01*
X16689338Y-17763914D01*
X16817910Y-17935342D02*
X16789338Y-17949628D01*
X16717910Y-17949628D01*
X16689338Y-17935342D01*
X16675052Y-17906771D01*
X16675052Y-17878200D01*
X16689338Y-17849628D01*
X16717910Y-17835342D01*
X16789338Y-17835342D01*
X16817910Y-17821057D01*
X16917910Y-17749628D02*
X17032195Y-17749628D01*
X16960767Y-17649628D02*
X16960767Y-17906771D01*
X16975053Y-17935342D01*
X17003624Y-17949628D01*
X17032195Y-17949628D01*
X17246481Y-17935342D02*
X17217910Y-17949628D01*
X17160767Y-17949628D01*
X17132195Y-17935342D01*
X17117910Y-17906771D01*
X17117910Y-17792485D01*
X17132195Y-17763914D01*
X17160767Y-17749628D01*
X17217910Y-17749628D01*
X17246481Y-17763914D01*
X17260767Y-17792485D01*
X17260767Y-17821057D01*
X17117910Y-17849628D01*
X17517910Y-17949628D02*
X17517910Y-17649628D01*
X17517910Y-17935342D02*
X17489338Y-17949628D01*
X17432195Y-17949628D01*
X17403624Y-17935342D01*
X17389338Y-17921057D01*
X17375053Y-17892485D01*
X17375053Y-17806771D01*
X17389338Y-17778200D01*
X17403624Y-17763914D01*
X17432195Y-17749628D01*
X17489338Y-17749628D01*
X17517910Y-17763914D01*
X17632195Y-18063914D02*
X17646481Y-18049628D01*
X17675053Y-18006771D01*
X17689338Y-17978200D01*
X17703624Y-17935342D01*
X17717910Y-17863914D01*
X17717910Y-17806771D01*
X17703624Y-17735342D01*
X17689338Y-17692485D01*
X17675053Y-17663914D01*
X17646481Y-17621057D01*
X17632195Y-17606771D01*
X7257195Y-18149914D02*
X7257195Y-18269914D01*
X7197195Y-18209914D02*
X7317195Y-18209914D01*
X7760767Y-18345628D02*
X7589338Y-18345628D01*
X7675052Y-18345628D02*
X7675052Y-18045628D01*
X7646481Y-18088485D01*
X7617910Y-18117057D01*
X7589338Y-18131342D01*
X7889338Y-18317057D02*
X7903624Y-18331342D01*
X7889338Y-18345628D01*
X7875052Y-18331342D01*
X7889338Y-18317057D01*
X7889338Y-18345628D01*
X8017910Y-18074200D02*
X8032195Y-18059914D01*
X8060767Y-18045628D01*
X8132195Y-18045628D01*
X8160767Y-18059914D01*
X8175052Y-18074200D01*
X8189338Y-18102771D01*
X8189338Y-18131342D01*
X8175052Y-18174200D01*
X8003624Y-18345628D01*
X8189338Y-18345628D01*
X8375052Y-18045628D02*
X8403624Y-18045628D01*
X8432195Y-18059914D01*
X8446481Y-18074200D01*
X8460767Y-18102771D01*
X8475053Y-18159914D01*
X8475053Y-18231342D01*
X8460767Y-18288485D01*
X8446481Y-18317057D01*
X8432195Y-18331342D01*
X8403624Y-18345628D01*
X8375052Y-18345628D01*
X8346481Y-18331342D01*
X8332195Y-18317057D01*
X8317910Y-18288485D01*
X8303624Y-18231342D01*
X8303624Y-18159914D01*
X8317910Y-18102771D01*
X8332195Y-18074200D01*
X8346481Y-18059914D01*
X8375052Y-18045628D01*
X8660767Y-18045628D02*
X8689338Y-18045628D01*
X8717910Y-18059914D01*
X8732195Y-18074200D01*
X8746481Y-18102771D01*
X8760767Y-18159914D01*
X8760767Y-18231342D01*
X8746481Y-18288485D01*
X8732195Y-18317057D01*
X8717910Y-18331342D01*
X8689338Y-18345628D01*
X8660767Y-18345628D01*
X8632195Y-18331342D01*
X8617910Y-18317057D01*
X8603624Y-18288485D01*
X8589338Y-18231342D01*
X8589338Y-18159914D01*
X8603624Y-18102771D01*
X8617910Y-18074200D01*
X8632195Y-18059914D01*
X8660767Y-18045628D01*
X8889338Y-18345628D02*
X8889338Y-18145628D01*
X8889338Y-18174200D02*
X8903624Y-18159914D01*
X8932195Y-18145628D01*
X8975053Y-18145628D01*
X9003624Y-18159914D01*
X9017910Y-18188485D01*
X9017910Y-18345628D01*
X9017910Y-18188485D02*
X9032195Y-18159914D01*
X9060767Y-18145628D01*
X9103624Y-18145628D01*
X9132195Y-18159914D01*
X9146481Y-18188485D01*
X9146481Y-18345628D01*
X9289338Y-18345628D02*
X9289338Y-18145628D01*
X9289338Y-18174200D02*
X9303624Y-18159914D01*
X9332195Y-18145628D01*
X9375053Y-18145628D01*
X9403624Y-18159914D01*
X9417910Y-18188485D01*
X9417910Y-18345628D01*
X9417910Y-18188485D02*
X9432195Y-18159914D01*
X9460767Y-18145628D01*
X9503624Y-18145628D01*
X9532195Y-18159914D01*
X9546481Y-18188485D01*
X9546481Y-18345628D01*
X10132195Y-18031342D02*
X9875053Y-18417057D01*
X10517910Y-18045628D02*
X10546481Y-18045628D01*
X10575053Y-18059914D01*
X10589338Y-18074200D01*
X10603624Y-18102771D01*
X10617910Y-18159914D01*
X10617910Y-18231342D01*
X10603624Y-18288485D01*
X10589338Y-18317057D01*
X10575053Y-18331342D01*
X10546481Y-18345628D01*
X10517910Y-18345628D01*
X10489338Y-18331342D01*
X10475053Y-18317057D01*
X10460767Y-18288485D01*
X10446481Y-18231342D01*
X10446481Y-18159914D01*
X10460767Y-18102771D01*
X10475053Y-18074200D01*
X10489338Y-18059914D01*
X10517910Y-18045628D01*
X10746481Y-18317057D02*
X10760767Y-18331342D01*
X10746481Y-18345628D01*
X10732195Y-18331342D01*
X10746481Y-18317057D01*
X10746481Y-18345628D01*
X10946481Y-18045628D02*
X10975053Y-18045628D01*
X11003624Y-18059914D01*
X11017910Y-18074200D01*
X11032195Y-18102771D01*
X11046481Y-18159914D01*
X11046481Y-18231342D01*
X11032195Y-18288485D01*
X11017910Y-18317057D01*
X11003624Y-18331342D01*
X10975053Y-18345628D01*
X10946481Y-18345628D01*
X10917910Y-18331342D01*
X10903624Y-18317057D01*
X10889338Y-18288485D01*
X10875053Y-18231342D01*
X10875053Y-18159914D01*
X10889338Y-18102771D01*
X10903624Y-18074200D01*
X10917910Y-18059914D01*
X10946481Y-18045628D01*
X11303624Y-18145628D02*
X11303624Y-18345628D01*
X11232195Y-18031342D02*
X11160767Y-18245628D01*
X11346481Y-18245628D01*
X11432195Y-18045628D02*
X11632195Y-18045628D01*
X11503624Y-18345628D01*
X11732195Y-18074200D02*
X11746481Y-18059914D01*
X11775052Y-18045628D01*
X11846481Y-18045628D01*
X11875052Y-18059914D01*
X11889338Y-18074200D01*
X11903624Y-18102771D01*
X11903624Y-18131342D01*
X11889338Y-18174200D01*
X11717910Y-18345628D01*
X11903624Y-18345628D01*
X12017910Y-18045628D02*
X12017910Y-18102771D01*
X12132195Y-18045628D02*
X12132195Y-18102771D01*
X12575052Y-18459914D02*
X12560767Y-18445628D01*
X12532195Y-18402771D01*
X12517910Y-18374200D01*
X12503624Y-18331342D01*
X12489338Y-18259914D01*
X12489338Y-18202771D01*
X12503624Y-18131342D01*
X12517910Y-18088485D01*
X12532195Y-18059914D01*
X12560767Y-18017057D01*
X12575052Y-18002771D01*
X12675052Y-18074200D02*
X12689338Y-18059914D01*
X12717910Y-18045628D01*
X12789338Y-18045628D01*
X12817910Y-18059914D01*
X12832195Y-18074200D01*
X12846481Y-18102771D01*
X12846481Y-18131342D01*
X12832195Y-18174200D01*
X12660767Y-18345628D01*
X12846481Y-18345628D01*
X13203624Y-18345628D02*
X13203624Y-18045628D01*
X13332195Y-18345628D02*
X13332195Y-18188485D01*
X13317910Y-18159914D01*
X13289338Y-18145628D01*
X13246481Y-18145628D01*
X13217910Y-18159914D01*
X13203624Y-18174200D01*
X13517910Y-18345628D02*
X13489338Y-18331342D01*
X13475052Y-18317057D01*
X13460767Y-18288485D01*
X13460767Y-18202771D01*
X13475052Y-18174200D01*
X13489338Y-18159914D01*
X13517910Y-18145628D01*
X13560767Y-18145628D01*
X13589338Y-18159914D01*
X13603624Y-18174200D01*
X13617910Y-18202771D01*
X13617910Y-18288485D01*
X13603624Y-18317057D01*
X13589338Y-18331342D01*
X13560767Y-18345628D01*
X13517910Y-18345628D01*
X13789338Y-18345628D02*
X13760767Y-18331342D01*
X13746481Y-18302771D01*
X13746481Y-18045628D01*
X14017910Y-18331342D02*
X13989338Y-18345628D01*
X13932195Y-18345628D01*
X13903624Y-18331342D01*
X13889338Y-18302771D01*
X13889338Y-18188485D01*
X13903624Y-18159914D01*
X13932195Y-18145628D01*
X13989338Y-18145628D01*
X14017910Y-18159914D01*
X14032195Y-18188485D01*
X14032195Y-18217057D01*
X13889338Y-18245628D01*
X14146481Y-18331342D02*
X14175052Y-18345628D01*
X14232195Y-18345628D01*
X14260767Y-18331342D01*
X14275052Y-18302771D01*
X14275052Y-18288485D01*
X14260767Y-18259914D01*
X14232195Y-18245628D01*
X14189338Y-18245628D01*
X14160767Y-18231342D01*
X14146481Y-18202771D01*
X14146481Y-18188485D01*
X14160767Y-18159914D01*
X14189338Y-18145628D01*
X14232195Y-18145628D01*
X14260767Y-18159914D01*
X14375052Y-18459914D02*
X14389338Y-18445628D01*
X14417910Y-18402771D01*
X14432195Y-18374200D01*
X14446481Y-18331342D01*
X14460767Y-18259914D01*
X14460767Y-18202771D01*
X14446481Y-18131342D01*
X14432195Y-18088485D01*
X14417910Y-18059914D01*
X14389338Y-18017057D01*
X14375052Y-18002771D01*
X14917910Y-18459914D02*
X14903624Y-18445628D01*
X14875052Y-18402771D01*
X14860767Y-18374200D01*
X14846481Y-18331342D01*
X14832195Y-18259914D01*
X14832195Y-18202771D01*
X14846481Y-18131342D01*
X14860767Y-18088485D01*
X14875052Y-18059914D01*
X14903624Y-18017057D01*
X14917910Y-18002771D01*
X15032195Y-18145628D02*
X15032195Y-18345628D01*
X15032195Y-18174200D02*
X15046481Y-18159914D01*
X15075052Y-18145628D01*
X15117910Y-18145628D01*
X15146481Y-18159914D01*
X15160767Y-18188485D01*
X15160767Y-18345628D01*
X15346481Y-18345628D02*
X15317910Y-18331342D01*
X15303624Y-18317057D01*
X15289338Y-18288485D01*
X15289338Y-18202771D01*
X15303624Y-18174200D01*
X15317910Y-18159914D01*
X15346481Y-18145628D01*
X15389338Y-18145628D01*
X15417910Y-18159914D01*
X15432195Y-18174200D01*
X15446481Y-18202771D01*
X15446481Y-18288485D01*
X15432195Y-18317057D01*
X15417910Y-18331342D01*
X15389338Y-18345628D01*
X15346481Y-18345628D01*
X15532195Y-18145628D02*
X15646481Y-18145628D01*
X15575052Y-18045628D02*
X15575052Y-18302771D01*
X15589338Y-18331342D01*
X15617910Y-18345628D01*
X15646481Y-18345628D01*
X15975052Y-18145628D02*
X15975052Y-18445628D01*
X15975052Y-18159914D02*
X16003624Y-18145628D01*
X16060767Y-18145628D01*
X16089338Y-18159914D01*
X16103624Y-18174200D01*
X16117910Y-18202771D01*
X16117910Y-18288485D01*
X16103624Y-18317057D01*
X16089338Y-18331342D01*
X16060767Y-18345628D01*
X16003624Y-18345628D01*
X15975052Y-18331342D01*
X16289338Y-18345628D02*
X16260767Y-18331342D01*
X16246481Y-18302771D01*
X16246481Y-18045628D01*
X16532195Y-18345628D02*
X16532195Y-18188485D01*
X16517910Y-18159914D01*
X16489338Y-18145628D01*
X16432195Y-18145628D01*
X16403624Y-18159914D01*
X16532195Y-18331342D02*
X16503624Y-18345628D01*
X16432195Y-18345628D01*
X16403624Y-18331342D01*
X16389338Y-18302771D01*
X16389338Y-18274200D01*
X16403624Y-18245628D01*
X16432195Y-18231342D01*
X16503624Y-18231342D01*
X16532195Y-18217057D01*
X16632195Y-18145628D02*
X16746481Y-18145628D01*
X16675052Y-18045628D02*
X16675052Y-18302771D01*
X16689338Y-18331342D01*
X16717910Y-18345628D01*
X16746481Y-18345628D01*
X16960767Y-18331342D02*
X16932195Y-18345628D01*
X16875053Y-18345628D01*
X16846481Y-18331342D01*
X16832195Y-18302771D01*
X16832195Y-18188485D01*
X16846481Y-18159914D01*
X16875053Y-18145628D01*
X16932195Y-18145628D01*
X16960767Y-18159914D01*
X16975053Y-18188485D01*
X16975053Y-18217057D01*
X16832195Y-18245628D01*
X17232195Y-18345628D02*
X17232195Y-18045628D01*
X17232195Y-18331342D02*
X17203624Y-18345628D01*
X17146481Y-18345628D01*
X17117910Y-18331342D01*
X17103624Y-18317057D01*
X17089338Y-18288485D01*
X17089338Y-18202771D01*
X17103624Y-18174200D01*
X17117910Y-18159914D01*
X17146481Y-18145628D01*
X17203624Y-18145628D01*
X17232195Y-18159914D01*
X17346481Y-18459914D02*
X17360767Y-18445628D01*
X17389338Y-18402771D01*
X17403624Y-18374200D01*
X17417910Y-18331342D01*
X17432195Y-18259914D01*
X17432195Y-18202771D01*
X17417910Y-18131342D01*
X17403624Y-18088485D01*
X17389338Y-18059914D01*
X17360767Y-18017057D01*
X17346481Y-18002771D01*
X7287907Y-18676625D02*
X7287907Y-18535202D01*
X7146484Y-18535202D01*
X7146484Y-18676625D01*
X7287907Y-18676625D01*
X7589338Y-18470200D02*
X7603624Y-18455914D01*
X7632195Y-18441628D01*
X7703624Y-18441628D01*
X7732195Y-18455914D01*
X7746481Y-18470200D01*
X7760767Y-18498771D01*
X7760767Y-18527342D01*
X7746481Y-18570200D01*
X7575052Y-18741628D01*
X7760767Y-18741628D01*
X7889338Y-18713057D02*
X7903624Y-18727342D01*
X7889338Y-18741628D01*
X7875052Y-18727342D01*
X7889338Y-18713057D01*
X7889338Y-18741628D01*
X8089338Y-18441628D02*
X8117910Y-18441628D01*
X8146481Y-18455914D01*
X8160767Y-18470200D01*
X8175052Y-18498771D01*
X8189338Y-18555914D01*
X8189338Y-18627342D01*
X8175052Y-18684485D01*
X8160767Y-18713057D01*
X8146481Y-18727342D01*
X8117910Y-18741628D01*
X8089338Y-18741628D01*
X8060767Y-18727342D01*
X8046481Y-18713057D01*
X8032195Y-18684485D01*
X8017910Y-18627342D01*
X8017910Y-18555914D01*
X8032195Y-18498771D01*
X8046481Y-18470200D01*
X8060767Y-18455914D01*
X8089338Y-18441628D01*
X8375052Y-18441628D02*
X8403624Y-18441628D01*
X8432195Y-18455914D01*
X8446481Y-18470200D01*
X8460767Y-18498771D01*
X8475053Y-18555914D01*
X8475053Y-18627342D01*
X8460767Y-18684485D01*
X8446481Y-18713057D01*
X8432195Y-18727342D01*
X8403624Y-18741628D01*
X8375052Y-18741628D01*
X8346481Y-18727342D01*
X8332195Y-18713057D01*
X8317910Y-18684485D01*
X8303624Y-18627342D01*
X8303624Y-18555914D01*
X8317910Y-18498771D01*
X8332195Y-18470200D01*
X8346481Y-18455914D01*
X8375052Y-18441628D01*
X8660767Y-18441628D02*
X8689338Y-18441628D01*
X8717910Y-18455914D01*
X8732195Y-18470200D01*
X8746481Y-18498771D01*
X8760767Y-18555914D01*
X8760767Y-18627342D01*
X8746481Y-18684485D01*
X8732195Y-18713057D01*
X8717910Y-18727342D01*
X8689338Y-18741628D01*
X8660767Y-18741628D01*
X8632195Y-18727342D01*
X8617910Y-18713057D01*
X8603624Y-18684485D01*
X8589338Y-18627342D01*
X8589338Y-18555914D01*
X8603624Y-18498771D01*
X8617910Y-18470200D01*
X8632195Y-18455914D01*
X8660767Y-18441628D01*
X8889338Y-18741628D02*
X8889338Y-18541628D01*
X8889338Y-18570200D02*
X8903624Y-18555914D01*
X8932195Y-18541628D01*
X8975053Y-18541628D01*
X9003624Y-18555914D01*
X9017910Y-18584485D01*
X9017910Y-18741628D01*
X9017910Y-18584485D02*
X9032195Y-18555914D01*
X9060767Y-18541628D01*
X9103624Y-18541628D01*
X9132195Y-18555914D01*
X9146481Y-18584485D01*
X9146481Y-18741628D01*
X9289338Y-18741628D02*
X9289338Y-18541628D01*
X9289338Y-18570200D02*
X9303624Y-18555914D01*
X9332195Y-18541628D01*
X9375053Y-18541628D01*
X9403624Y-18555914D01*
X9417910Y-18584485D01*
X9417910Y-18741628D01*
X9417910Y-18584485D02*
X9432195Y-18555914D01*
X9460767Y-18541628D01*
X9503624Y-18541628D01*
X9532195Y-18555914D01*
X9546481Y-18584485D01*
X9546481Y-18741628D01*
X10132195Y-18427342D02*
X9875053Y-18813057D01*
X10517910Y-18441628D02*
X10546481Y-18441628D01*
X10575053Y-18455914D01*
X10589338Y-18470200D01*
X10603624Y-18498771D01*
X10617910Y-18555914D01*
X10617910Y-18627342D01*
X10603624Y-18684485D01*
X10589338Y-18713057D01*
X10575053Y-18727342D01*
X10546481Y-18741628D01*
X10517910Y-18741628D01*
X10489338Y-18727342D01*
X10475053Y-18713057D01*
X10460767Y-18684485D01*
X10446481Y-18627342D01*
X10446481Y-18555914D01*
X10460767Y-18498771D01*
X10475053Y-18470200D01*
X10489338Y-18455914D01*
X10517910Y-18441628D01*
X10746481Y-18713057D02*
X10760767Y-18727342D01*
X10746481Y-18741628D01*
X10732195Y-18727342D01*
X10746481Y-18713057D01*
X10746481Y-18741628D01*
X10946481Y-18441628D02*
X10975053Y-18441628D01*
X11003624Y-18455914D01*
X11017910Y-18470200D01*
X11032195Y-18498771D01*
X11046481Y-18555914D01*
X11046481Y-18627342D01*
X11032195Y-18684485D01*
X11017910Y-18713057D01*
X11003624Y-18727342D01*
X10975053Y-18741628D01*
X10946481Y-18741628D01*
X10917910Y-18727342D01*
X10903624Y-18713057D01*
X10889338Y-18684485D01*
X10875053Y-18627342D01*
X10875053Y-18555914D01*
X10889338Y-18498771D01*
X10903624Y-18470200D01*
X10917910Y-18455914D01*
X10946481Y-18441628D01*
X11146481Y-18441628D02*
X11346481Y-18441628D01*
X11217910Y-18741628D01*
X11503624Y-18570200D02*
X11475052Y-18555914D01*
X11460767Y-18541628D01*
X11446481Y-18513057D01*
X11446481Y-18498771D01*
X11460767Y-18470200D01*
X11475052Y-18455914D01*
X11503624Y-18441628D01*
X11560767Y-18441628D01*
X11589338Y-18455914D01*
X11603624Y-18470200D01*
X11617910Y-18498771D01*
X11617910Y-18513057D01*
X11603624Y-18541628D01*
X11589338Y-18555914D01*
X11560767Y-18570200D01*
X11503624Y-18570200D01*
X11475052Y-18584485D01*
X11460767Y-18598771D01*
X11446481Y-18627342D01*
X11446481Y-18684485D01*
X11460767Y-18713057D01*
X11475052Y-18727342D01*
X11503624Y-18741628D01*
X11560767Y-18741628D01*
X11589338Y-18727342D01*
X11603624Y-18713057D01*
X11617910Y-18684485D01*
X11617910Y-18627342D01*
X11603624Y-18598771D01*
X11589338Y-18584485D01*
X11560767Y-18570200D01*
X11717910Y-18441628D02*
X11917910Y-18441628D01*
X11789338Y-18741628D01*
X12017910Y-18441628D02*
X12017910Y-18498771D01*
X12132195Y-18441628D02*
X12132195Y-18498771D01*
X12575052Y-18855914D02*
X12560767Y-18841628D01*
X12532195Y-18798771D01*
X12517910Y-18770200D01*
X12503624Y-18727342D01*
X12489338Y-18655914D01*
X12489338Y-18598771D01*
X12503624Y-18527342D01*
X12517910Y-18484485D01*
X12532195Y-18455914D01*
X12560767Y-18413057D01*
X12575052Y-18398771D01*
X12846481Y-18741628D02*
X12675052Y-18741628D01*
X12760767Y-18741628D02*
X12760767Y-18441628D01*
X12732195Y-18484485D01*
X12703624Y-18513057D01*
X12675052Y-18527342D01*
X13132195Y-18741628D02*
X12960767Y-18741628D01*
X13046481Y-18741628D02*
X13046481Y-18441628D01*
X13017910Y-18484485D01*
X12989338Y-18513057D01*
X12960767Y-18527342D01*
X13489338Y-18741628D02*
X13489338Y-18441628D01*
X13617910Y-18741628D02*
X13617910Y-18584485D01*
X13603624Y-18555914D01*
X13575052Y-18541628D01*
X13532195Y-18541628D01*
X13503624Y-18555914D01*
X13489338Y-18570200D01*
X13803624Y-18741628D02*
X13775052Y-18727342D01*
X13760767Y-18713057D01*
X13746481Y-18684485D01*
X13746481Y-18598771D01*
X13760767Y-18570200D01*
X13775052Y-18555914D01*
X13803624Y-18541628D01*
X13846481Y-18541628D01*
X13875052Y-18555914D01*
X13889338Y-18570200D01*
X13903624Y-18598771D01*
X13903624Y-18684485D01*
X13889338Y-18713057D01*
X13875052Y-18727342D01*
X13846481Y-18741628D01*
X13803624Y-18741628D01*
X14075052Y-18741628D02*
X14046481Y-18727342D01*
X14032195Y-18698771D01*
X14032195Y-18441628D01*
X14303624Y-18727342D02*
X14275052Y-18741628D01*
X14217910Y-18741628D01*
X14189338Y-18727342D01*
X14175052Y-18698771D01*
X14175052Y-18584485D01*
X14189338Y-18555914D01*
X14217910Y-18541628D01*
X14275052Y-18541628D01*
X14303624Y-18555914D01*
X14317910Y-18584485D01*
X14317910Y-18613057D01*
X14175052Y-18641628D01*
X14432195Y-18727342D02*
X14460767Y-18741628D01*
X14517910Y-18741628D01*
X14546481Y-18727342D01*
X14560767Y-18698771D01*
X14560767Y-18684485D01*
X14546481Y-18655914D01*
X14517910Y-18641628D01*
X14475052Y-18641628D01*
X14446481Y-18627342D01*
X14432195Y-18598771D01*
X14432195Y-18584485D01*
X14446481Y-18555914D01*
X14475052Y-18541628D01*
X14517910Y-18541628D01*
X14546481Y-18555914D01*
X14660767Y-18855914D02*
X14675052Y-18841628D01*
X14703624Y-18798771D01*
X14717910Y-18770200D01*
X14732195Y-18727342D01*
X14746481Y-18655914D01*
X14746481Y-18598771D01*
X14732195Y-18527342D01*
X14717910Y-18484485D01*
X14703624Y-18455914D01*
X14675052Y-18413057D01*
X14660767Y-18398771D01*
X15203624Y-18855914D02*
X15189338Y-18841628D01*
X15160767Y-18798771D01*
X15146481Y-18770200D01*
X15132195Y-18727342D01*
X15117910Y-18655914D01*
X15117910Y-18598771D01*
X15132195Y-18527342D01*
X15146481Y-18484485D01*
X15160767Y-18455914D01*
X15189338Y-18413057D01*
X15203624Y-18398771D01*
X15317910Y-18541628D02*
X15317910Y-18741628D01*
X15317910Y-18570200D02*
X15332195Y-18555914D01*
X15360767Y-18541628D01*
X15403624Y-18541628D01*
X15432195Y-18555914D01*
X15446481Y-18584485D01*
X15446481Y-18741628D01*
X15632195Y-18741628D02*
X15603624Y-18727342D01*
X15589338Y-18713057D01*
X15575052Y-18684485D01*
X15575052Y-18598771D01*
X15589338Y-18570200D01*
X15603624Y-18555914D01*
X15632195Y-18541628D01*
X15675052Y-18541628D01*
X15703624Y-18555914D01*
X15717910Y-18570200D01*
X15732195Y-18598771D01*
X15732195Y-18684485D01*
X15717910Y-18713057D01*
X15703624Y-18727342D01*
X15675052Y-18741628D01*
X15632195Y-18741628D01*
X15817910Y-18541628D02*
X15932195Y-18541628D01*
X15860767Y-18441628D02*
X15860767Y-18698771D01*
X15875052Y-18727342D01*
X15903624Y-18741628D01*
X15932195Y-18741628D01*
X16260767Y-18541628D02*
X16260767Y-18841628D01*
X16260767Y-18555914D02*
X16289338Y-18541628D01*
X16346481Y-18541628D01*
X16375052Y-18555914D01*
X16389338Y-18570200D01*
X16403624Y-18598771D01*
X16403624Y-18684485D01*
X16389338Y-18713057D01*
X16375052Y-18727342D01*
X16346481Y-18741628D01*
X16289338Y-18741628D01*
X16260767Y-18727342D01*
X16575052Y-18741628D02*
X16546481Y-18727342D01*
X16532195Y-18698771D01*
X16532195Y-18441628D01*
X16817910Y-18741628D02*
X16817910Y-18584485D01*
X16803624Y-18555914D01*
X16775052Y-18541628D01*
X16717910Y-18541628D01*
X16689338Y-18555914D01*
X16817910Y-18727342D02*
X16789338Y-18741628D01*
X16717910Y-18741628D01*
X16689338Y-18727342D01*
X16675052Y-18698771D01*
X16675052Y-18670200D01*
X16689338Y-18641628D01*
X16717910Y-18627342D01*
X16789338Y-18627342D01*
X16817910Y-18613057D01*
X16917910Y-18541628D02*
X17032195Y-18541628D01*
X16960767Y-18441628D02*
X16960767Y-18698771D01*
X16975053Y-18727342D01*
X17003624Y-18741628D01*
X17032195Y-18741628D01*
X17246481Y-18727342D02*
X17217910Y-18741628D01*
X17160767Y-18741628D01*
X17132195Y-18727342D01*
X17117910Y-18698771D01*
X17117910Y-18584485D01*
X17132195Y-18555914D01*
X17160767Y-18541628D01*
X17217910Y-18541628D01*
X17246481Y-18555914D01*
X17260767Y-18584485D01*
X17260767Y-18613057D01*
X17117910Y-18641628D01*
X17517910Y-18741628D02*
X17517910Y-18441628D01*
X17517910Y-18727342D02*
X17489338Y-18741628D01*
X17432195Y-18741628D01*
X17403624Y-18727342D01*
X17389338Y-18713057D01*
X17375053Y-18684485D01*
X17375053Y-18598771D01*
X17389338Y-18570200D01*
X17403624Y-18555914D01*
X17432195Y-18541628D01*
X17489338Y-18541628D01*
X17517910Y-18555914D01*
X17632195Y-18855914D02*
X17646481Y-18841628D01*
X17675053Y-18798771D01*
X17689338Y-18770200D01*
X17703624Y-18727342D01*
X17717910Y-18655914D01*
X17717910Y-18598771D01*
X17703624Y-18527342D01*
X17689338Y-18484485D01*
X17675053Y-18455914D01*
X17646481Y-18413057D01*
X17632195Y-18398771D01*
X7207195Y-19111914D02*
X7317195Y-19001914D01*
X7207195Y-18891914D01*
X7097195Y-19001914D01*
X7207195Y-19111914D01*
X7589338Y-18866200D02*
X7603624Y-18851914D01*
X7632195Y-18837628D01*
X7703624Y-18837628D01*
X7732195Y-18851914D01*
X7746481Y-18866200D01*
X7760767Y-18894771D01*
X7760767Y-18923342D01*
X7746481Y-18966200D01*
X7575052Y-19137628D01*
X7760767Y-19137628D01*
X7889338Y-19109057D02*
X7903624Y-19123342D01*
X7889338Y-19137628D01*
X7875052Y-19123342D01*
X7889338Y-19109057D01*
X7889338Y-19137628D01*
X8017910Y-18866200D02*
X8032195Y-18851914D01*
X8060767Y-18837628D01*
X8132195Y-18837628D01*
X8160767Y-18851914D01*
X8175052Y-18866200D01*
X8189338Y-18894771D01*
X8189338Y-18923342D01*
X8175052Y-18966200D01*
X8003624Y-19137628D01*
X8189338Y-19137628D01*
X8375052Y-18837628D02*
X8403624Y-18837628D01*
X8432195Y-18851914D01*
X8446481Y-18866200D01*
X8460767Y-18894771D01*
X8475053Y-18951914D01*
X8475053Y-19023342D01*
X8460767Y-19080485D01*
X8446481Y-19109057D01*
X8432195Y-19123342D01*
X8403624Y-19137628D01*
X8375052Y-19137628D01*
X8346481Y-19123342D01*
X8332195Y-19109057D01*
X8317910Y-19080485D01*
X8303624Y-19023342D01*
X8303624Y-18951914D01*
X8317910Y-18894771D01*
X8332195Y-18866200D01*
X8346481Y-18851914D01*
X8375052Y-18837628D01*
X8660767Y-18837628D02*
X8689338Y-18837628D01*
X8717910Y-18851914D01*
X8732195Y-18866200D01*
X8746481Y-18894771D01*
X8760767Y-18951914D01*
X8760767Y-19023342D01*
X8746481Y-19080485D01*
X8732195Y-19109057D01*
X8717910Y-19123342D01*
X8689338Y-19137628D01*
X8660767Y-19137628D01*
X8632195Y-19123342D01*
X8617910Y-19109057D01*
X8603624Y-19080485D01*
X8589338Y-19023342D01*
X8589338Y-18951914D01*
X8603624Y-18894771D01*
X8617910Y-18866200D01*
X8632195Y-18851914D01*
X8660767Y-18837628D01*
X8889338Y-19137628D02*
X8889338Y-18937628D01*
X8889338Y-18966200D02*
X8903624Y-18951914D01*
X8932195Y-18937628D01*
X8975053Y-18937628D01*
X9003624Y-18951914D01*
X9017910Y-18980485D01*
X9017910Y-19137628D01*
X9017910Y-18980485D02*
X9032195Y-18951914D01*
X9060767Y-18937628D01*
X9103624Y-18937628D01*
X9132195Y-18951914D01*
X9146481Y-18980485D01*
X9146481Y-19137628D01*
X9289338Y-19137628D02*
X9289338Y-18937628D01*
X9289338Y-18966200D02*
X9303624Y-18951914D01*
X9332195Y-18937628D01*
X9375053Y-18937628D01*
X9403624Y-18951914D01*
X9417910Y-18980485D01*
X9417910Y-19137628D01*
X9417910Y-18980485D02*
X9432195Y-18951914D01*
X9460767Y-18937628D01*
X9503624Y-18937628D01*
X9532195Y-18951914D01*
X9546481Y-18980485D01*
X9546481Y-19137628D01*
X10132195Y-18823342D02*
X9875053Y-19209057D01*
X10517910Y-18837628D02*
X10546481Y-18837628D01*
X10575053Y-18851914D01*
X10589338Y-18866200D01*
X10603624Y-18894771D01*
X10617910Y-18951914D01*
X10617910Y-19023342D01*
X10603624Y-19080485D01*
X10589338Y-19109057D01*
X10575053Y-19123342D01*
X10546481Y-19137628D01*
X10517910Y-19137628D01*
X10489338Y-19123342D01*
X10475053Y-19109057D01*
X10460767Y-19080485D01*
X10446481Y-19023342D01*
X10446481Y-18951914D01*
X10460767Y-18894771D01*
X10475053Y-18866200D01*
X10489338Y-18851914D01*
X10517910Y-18837628D01*
X10746481Y-19109057D02*
X10760767Y-19123342D01*
X10746481Y-19137628D01*
X10732195Y-19123342D01*
X10746481Y-19109057D01*
X10746481Y-19137628D01*
X10946481Y-18837628D02*
X10975053Y-18837628D01*
X11003624Y-18851914D01*
X11017910Y-18866200D01*
X11032195Y-18894771D01*
X11046481Y-18951914D01*
X11046481Y-19023342D01*
X11032195Y-19080485D01*
X11017910Y-19109057D01*
X11003624Y-19123342D01*
X10975053Y-19137628D01*
X10946481Y-19137628D01*
X10917910Y-19123342D01*
X10903624Y-19109057D01*
X10889338Y-19080485D01*
X10875053Y-19023342D01*
X10875053Y-18951914D01*
X10889338Y-18894771D01*
X10903624Y-18866200D01*
X10917910Y-18851914D01*
X10946481Y-18837628D01*
X11217910Y-18966200D02*
X11189338Y-18951914D01*
X11175053Y-18937628D01*
X11160767Y-18909057D01*
X11160767Y-18894771D01*
X11175053Y-18866200D01*
X11189338Y-18851914D01*
X11217910Y-18837628D01*
X11275052Y-18837628D01*
X11303624Y-18851914D01*
X11317910Y-18866200D01*
X11332195Y-18894771D01*
X11332195Y-18909057D01*
X11317910Y-18937628D01*
X11303624Y-18951914D01*
X11275052Y-18966200D01*
X11217910Y-18966200D01*
X11189338Y-18980485D01*
X11175053Y-18994771D01*
X11160767Y-19023342D01*
X11160767Y-19080485D01*
X11175053Y-19109057D01*
X11189338Y-19123342D01*
X11217910Y-19137628D01*
X11275052Y-19137628D01*
X11303624Y-19123342D01*
X11317910Y-19109057D01*
X11332195Y-19080485D01*
X11332195Y-19023342D01*
X11317910Y-18994771D01*
X11303624Y-18980485D01*
X11275052Y-18966200D01*
X11589338Y-18837628D02*
X11532195Y-18837628D01*
X11503624Y-18851914D01*
X11489338Y-18866200D01*
X11460767Y-18909057D01*
X11446481Y-18966200D01*
X11446481Y-19080485D01*
X11460767Y-19109057D01*
X11475052Y-19123342D01*
X11503624Y-19137628D01*
X11560767Y-19137628D01*
X11589338Y-19123342D01*
X11603624Y-19109057D01*
X11617910Y-19080485D01*
X11617910Y-19009057D01*
X11603624Y-18980485D01*
X11589338Y-18966200D01*
X11560767Y-18951914D01*
X11503624Y-18951914D01*
X11475052Y-18966200D01*
X11460767Y-18980485D01*
X11446481Y-19009057D01*
X11875052Y-18837628D02*
X11817910Y-18837628D01*
X11789338Y-18851914D01*
X11775052Y-18866200D01*
X11746481Y-18909057D01*
X11732195Y-18966200D01*
X11732195Y-19080485D01*
X11746481Y-19109057D01*
X11760767Y-19123342D01*
X11789338Y-19137628D01*
X11846481Y-19137628D01*
X11875052Y-19123342D01*
X11889338Y-19109057D01*
X11903624Y-19080485D01*
X11903624Y-19009057D01*
X11889338Y-18980485D01*
X11875052Y-18966200D01*
X11846481Y-18951914D01*
X11789338Y-18951914D01*
X11760767Y-18966200D01*
X11746481Y-18980485D01*
X11732195Y-19009057D01*
X12017910Y-18837628D02*
X12017910Y-18894771D01*
X12132195Y-18837628D02*
X12132195Y-18894771D01*
X12575052Y-19251914D02*
X12560767Y-19237628D01*
X12532195Y-19194771D01*
X12517910Y-19166200D01*
X12503624Y-19123342D01*
X12489338Y-19051914D01*
X12489338Y-18994771D01*
X12503624Y-18923342D01*
X12517910Y-18880485D01*
X12532195Y-18851914D01*
X12560767Y-18809057D01*
X12575052Y-18794771D01*
X12846481Y-19137628D02*
X12675052Y-19137628D01*
X12760767Y-19137628D02*
X12760767Y-18837628D01*
X12732195Y-18880485D01*
X12703624Y-18909057D01*
X12675052Y-18923342D01*
X12989338Y-19137628D02*
X13046481Y-19137628D01*
X13075052Y-19123342D01*
X13089338Y-19109057D01*
X13117910Y-19066200D01*
X13132195Y-19009057D01*
X13132195Y-18894771D01*
X13117910Y-18866200D01*
X13103624Y-18851914D01*
X13075052Y-18837628D01*
X13017910Y-18837628D01*
X12989338Y-18851914D01*
X12975052Y-18866200D01*
X12960767Y-18894771D01*
X12960767Y-18966200D01*
X12975052Y-18994771D01*
X12989338Y-19009057D01*
X13017910Y-19023342D01*
X13075052Y-19023342D01*
X13103624Y-19009057D01*
X13117910Y-18994771D01*
X13132195Y-18966200D01*
X13489338Y-19137628D02*
X13489338Y-18837628D01*
X13617910Y-19137628D02*
X13617910Y-18980485D01*
X13603624Y-18951914D01*
X13575052Y-18937628D01*
X13532195Y-18937628D01*
X13503624Y-18951914D01*
X13489338Y-18966200D01*
X13803624Y-19137628D02*
X13775052Y-19123342D01*
X13760767Y-19109057D01*
X13746481Y-19080485D01*
X13746481Y-18994771D01*
X13760767Y-18966200D01*
X13775052Y-18951914D01*
X13803624Y-18937628D01*
X13846481Y-18937628D01*
X13875052Y-18951914D01*
X13889338Y-18966200D01*
X13903624Y-18994771D01*
X13903624Y-19080485D01*
X13889338Y-19109057D01*
X13875052Y-19123342D01*
X13846481Y-19137628D01*
X13803624Y-19137628D01*
X14075052Y-19137628D02*
X14046481Y-19123342D01*
X14032195Y-19094771D01*
X14032195Y-18837628D01*
X14303624Y-19123342D02*
X14275052Y-19137628D01*
X14217910Y-19137628D01*
X14189338Y-19123342D01*
X14175052Y-19094771D01*
X14175052Y-18980485D01*
X14189338Y-18951914D01*
X14217910Y-18937628D01*
X14275052Y-18937628D01*
X14303624Y-18951914D01*
X14317910Y-18980485D01*
X14317910Y-19009057D01*
X14175052Y-19037628D01*
X14432195Y-19123342D02*
X14460767Y-19137628D01*
X14517910Y-19137628D01*
X14546481Y-19123342D01*
X14560767Y-19094771D01*
X14560767Y-19080485D01*
X14546481Y-19051914D01*
X14517910Y-19037628D01*
X14475052Y-19037628D01*
X14446481Y-19023342D01*
X14432195Y-18994771D01*
X14432195Y-18980485D01*
X14446481Y-18951914D01*
X14475052Y-18937628D01*
X14517910Y-18937628D01*
X14546481Y-18951914D01*
X14660767Y-19251914D02*
X14675052Y-19237628D01*
X14703624Y-19194771D01*
X14717910Y-19166200D01*
X14732195Y-19123342D01*
X14746481Y-19051914D01*
X14746481Y-18994771D01*
X14732195Y-18923342D01*
X14717910Y-18880485D01*
X14703624Y-18851914D01*
X14675052Y-18809057D01*
X14660767Y-18794771D01*
X15203624Y-19251914D02*
X15189338Y-19237628D01*
X15160767Y-19194771D01*
X15146481Y-19166200D01*
X15132195Y-19123342D01*
X15117910Y-19051914D01*
X15117910Y-18994771D01*
X15132195Y-18923342D01*
X15146481Y-18880485D01*
X15160767Y-18851914D01*
X15189338Y-18809057D01*
X15203624Y-18794771D01*
X15317910Y-18937628D02*
X15317910Y-19137628D01*
X15317910Y-18966200D02*
X15332195Y-18951914D01*
X15360767Y-18937628D01*
X15403624Y-18937628D01*
X15432195Y-18951914D01*
X15446481Y-18980485D01*
X15446481Y-19137628D01*
X15632195Y-19137628D02*
X15603624Y-19123342D01*
X15589338Y-19109057D01*
X15575052Y-19080485D01*
X15575052Y-18994771D01*
X15589338Y-18966200D01*
X15603624Y-18951914D01*
X15632195Y-18937628D01*
X15675052Y-18937628D01*
X15703624Y-18951914D01*
X15717910Y-18966200D01*
X15732195Y-18994771D01*
X15732195Y-19080485D01*
X15717910Y-19109057D01*
X15703624Y-19123342D01*
X15675052Y-19137628D01*
X15632195Y-19137628D01*
X15817910Y-18937628D02*
X15932195Y-18937628D01*
X15860767Y-18837628D02*
X15860767Y-19094771D01*
X15875052Y-19123342D01*
X15903624Y-19137628D01*
X15932195Y-19137628D01*
X16260767Y-18937628D02*
X16260767Y-19237628D01*
X16260767Y-18951914D02*
X16289338Y-18937628D01*
X16346481Y-18937628D01*
X16375052Y-18951914D01*
X16389338Y-18966200D01*
X16403624Y-18994771D01*
X16403624Y-19080485D01*
X16389338Y-19109057D01*
X16375052Y-19123342D01*
X16346481Y-19137628D01*
X16289338Y-19137628D01*
X16260767Y-19123342D01*
X16575052Y-19137628D02*
X16546481Y-19123342D01*
X16532195Y-19094771D01*
X16532195Y-18837628D01*
X16817910Y-19137628D02*
X16817910Y-18980485D01*
X16803624Y-18951914D01*
X16775052Y-18937628D01*
X16717910Y-18937628D01*
X16689338Y-18951914D01*
X16817910Y-19123342D02*
X16789338Y-19137628D01*
X16717910Y-19137628D01*
X16689338Y-19123342D01*
X16675052Y-19094771D01*
X16675052Y-19066200D01*
X16689338Y-19037628D01*
X16717910Y-19023342D01*
X16789338Y-19023342D01*
X16817910Y-19009057D01*
X16917910Y-18937628D02*
X17032195Y-18937628D01*
X16960767Y-18837628D02*
X16960767Y-19094771D01*
X16975053Y-19123342D01*
X17003624Y-19137628D01*
X17032195Y-19137628D01*
X17246481Y-19123342D02*
X17217910Y-19137628D01*
X17160767Y-19137628D01*
X17132195Y-19123342D01*
X17117910Y-19094771D01*
X17117910Y-18980485D01*
X17132195Y-18951914D01*
X17160767Y-18937628D01*
X17217910Y-18937628D01*
X17246481Y-18951914D01*
X17260767Y-18980485D01*
X17260767Y-19009057D01*
X17117910Y-19037628D01*
X17517910Y-19137628D02*
X17517910Y-18837628D01*
X17517910Y-19123342D02*
X17489338Y-19137628D01*
X17432195Y-19137628D01*
X17403624Y-19123342D01*
X17389338Y-19109057D01*
X17375053Y-19080485D01*
X17375053Y-18994771D01*
X17389338Y-18966200D01*
X17403624Y-18951914D01*
X17432195Y-18937628D01*
X17489338Y-18937628D01*
X17517910Y-18951914D01*
X17632195Y-19251914D02*
X17646481Y-19237628D01*
X17675053Y-19194771D01*
X17689338Y-19166200D01*
X17703624Y-19123342D01*
X17717910Y-19051914D01*
X17717910Y-18994771D01*
X17703624Y-18923342D01*
X17689338Y-18880485D01*
X17675053Y-18851914D01*
X17646481Y-18809057D01*
X17632195Y-18794771D01*
X7067195Y-19272914D02*
X7317195Y-19522914D01*
X7317195Y-19272914D02*
X7067195Y-19522914D01*
X7317195Y-19397914D02*
G75*
G03*
X7317195Y-19397914I-125000J0D01*
G01*
X7589338Y-19262200D02*
X7603624Y-19247914D01*
X7632195Y-19233628D01*
X7703624Y-19233628D01*
X7732195Y-19247914D01*
X7746481Y-19262200D01*
X7760767Y-19290771D01*
X7760767Y-19319342D01*
X7746481Y-19362200D01*
X7575052Y-19533628D01*
X7760767Y-19533628D01*
X7889338Y-19505057D02*
X7903624Y-19519342D01*
X7889338Y-19533628D01*
X7875052Y-19519342D01*
X7889338Y-19505057D01*
X7889338Y-19533628D01*
X8175052Y-19233628D02*
X8032195Y-19233628D01*
X8017910Y-19376485D01*
X8032195Y-19362200D01*
X8060767Y-19347914D01*
X8132195Y-19347914D01*
X8160767Y-19362200D01*
X8175052Y-19376485D01*
X8189338Y-19405057D01*
X8189338Y-19476485D01*
X8175052Y-19505057D01*
X8160767Y-19519342D01*
X8132195Y-19533628D01*
X8060767Y-19533628D01*
X8032195Y-19519342D01*
X8017910Y-19505057D01*
X8375052Y-19233628D02*
X8403624Y-19233628D01*
X8432195Y-19247914D01*
X8446481Y-19262200D01*
X8460767Y-19290771D01*
X8475053Y-19347914D01*
X8475053Y-19419342D01*
X8460767Y-19476485D01*
X8446481Y-19505057D01*
X8432195Y-19519342D01*
X8403624Y-19533628D01*
X8375052Y-19533628D01*
X8346481Y-19519342D01*
X8332195Y-19505057D01*
X8317910Y-19476485D01*
X8303624Y-19419342D01*
X8303624Y-19347914D01*
X8317910Y-19290771D01*
X8332195Y-19262200D01*
X8346481Y-19247914D01*
X8375052Y-19233628D01*
X8660767Y-19233628D02*
X8689338Y-19233628D01*
X8717910Y-19247914D01*
X8732195Y-19262200D01*
X8746481Y-19290771D01*
X8760767Y-19347914D01*
X8760767Y-19419342D01*
X8746481Y-19476485D01*
X8732195Y-19505057D01*
X8717910Y-19519342D01*
X8689338Y-19533628D01*
X8660767Y-19533628D01*
X8632195Y-19519342D01*
X8617910Y-19505057D01*
X8603624Y-19476485D01*
X8589338Y-19419342D01*
X8589338Y-19347914D01*
X8603624Y-19290771D01*
X8617910Y-19262200D01*
X8632195Y-19247914D01*
X8660767Y-19233628D01*
X8889338Y-19533628D02*
X8889338Y-19333628D01*
X8889338Y-19362200D02*
X8903624Y-19347914D01*
X8932195Y-19333628D01*
X8975053Y-19333628D01*
X9003624Y-19347914D01*
X9017910Y-19376485D01*
X9017910Y-19533628D01*
X9017910Y-19376485D02*
X9032195Y-19347914D01*
X9060767Y-19333628D01*
X9103624Y-19333628D01*
X9132195Y-19347914D01*
X9146481Y-19376485D01*
X9146481Y-19533628D01*
X9289338Y-19533628D02*
X9289338Y-19333628D01*
X9289338Y-19362200D02*
X9303624Y-19347914D01*
X9332195Y-19333628D01*
X9375053Y-19333628D01*
X9403624Y-19347914D01*
X9417910Y-19376485D01*
X9417910Y-19533628D01*
X9417910Y-19376485D02*
X9432195Y-19347914D01*
X9460767Y-19333628D01*
X9503624Y-19333628D01*
X9532195Y-19347914D01*
X9546481Y-19376485D01*
X9546481Y-19533628D01*
X10132195Y-19219342D02*
X9875053Y-19605057D01*
X10517910Y-19233628D02*
X10546481Y-19233628D01*
X10575053Y-19247914D01*
X10589338Y-19262200D01*
X10603624Y-19290771D01*
X10617910Y-19347914D01*
X10617910Y-19419342D01*
X10603624Y-19476485D01*
X10589338Y-19505057D01*
X10575053Y-19519342D01*
X10546481Y-19533628D01*
X10517910Y-19533628D01*
X10489338Y-19519342D01*
X10475053Y-19505057D01*
X10460767Y-19476485D01*
X10446481Y-19419342D01*
X10446481Y-19347914D01*
X10460767Y-19290771D01*
X10475053Y-19262200D01*
X10489338Y-19247914D01*
X10517910Y-19233628D01*
X10746481Y-19505057D02*
X10760767Y-19519342D01*
X10746481Y-19533628D01*
X10732195Y-19519342D01*
X10746481Y-19505057D01*
X10746481Y-19533628D01*
X10946481Y-19233628D02*
X10975053Y-19233628D01*
X11003624Y-19247914D01*
X11017910Y-19262200D01*
X11032195Y-19290771D01*
X11046481Y-19347914D01*
X11046481Y-19419342D01*
X11032195Y-19476485D01*
X11017910Y-19505057D01*
X11003624Y-19519342D01*
X10975053Y-19533628D01*
X10946481Y-19533628D01*
X10917910Y-19519342D01*
X10903624Y-19505057D01*
X10889338Y-19476485D01*
X10875053Y-19419342D01*
X10875053Y-19347914D01*
X10889338Y-19290771D01*
X10903624Y-19262200D01*
X10917910Y-19247914D01*
X10946481Y-19233628D01*
X11189338Y-19533628D02*
X11246481Y-19533628D01*
X11275052Y-19519342D01*
X11289338Y-19505057D01*
X11317910Y-19462200D01*
X11332195Y-19405057D01*
X11332195Y-19290771D01*
X11317910Y-19262200D01*
X11303624Y-19247914D01*
X11275052Y-19233628D01*
X11217910Y-19233628D01*
X11189338Y-19247914D01*
X11175053Y-19262200D01*
X11160767Y-19290771D01*
X11160767Y-19362200D01*
X11175053Y-19390771D01*
X11189338Y-19405057D01*
X11217910Y-19419342D01*
X11275052Y-19419342D01*
X11303624Y-19405057D01*
X11317910Y-19390771D01*
X11332195Y-19362200D01*
X11503624Y-19362200D02*
X11475052Y-19347914D01*
X11460767Y-19333628D01*
X11446481Y-19305057D01*
X11446481Y-19290771D01*
X11460767Y-19262200D01*
X11475052Y-19247914D01*
X11503624Y-19233628D01*
X11560767Y-19233628D01*
X11589338Y-19247914D01*
X11603624Y-19262200D01*
X11617910Y-19290771D01*
X11617910Y-19305057D01*
X11603624Y-19333628D01*
X11589338Y-19347914D01*
X11560767Y-19362200D01*
X11503624Y-19362200D01*
X11475052Y-19376485D01*
X11460767Y-19390771D01*
X11446481Y-19419342D01*
X11446481Y-19476485D01*
X11460767Y-19505057D01*
X11475052Y-19519342D01*
X11503624Y-19533628D01*
X11560767Y-19533628D01*
X11589338Y-19519342D01*
X11603624Y-19505057D01*
X11617910Y-19476485D01*
X11617910Y-19419342D01*
X11603624Y-19390771D01*
X11589338Y-19376485D01*
X11560767Y-19362200D01*
X11875052Y-19333628D02*
X11875052Y-19533628D01*
X11803624Y-19219342D02*
X11732195Y-19433628D01*
X11917910Y-19433628D01*
X12017910Y-19233628D02*
X12017910Y-19290771D01*
X12132195Y-19233628D02*
X12132195Y-19290771D01*
X12575052Y-19647914D02*
X12560767Y-19633628D01*
X12532195Y-19590771D01*
X12517910Y-19562200D01*
X12503624Y-19519342D01*
X12489338Y-19447914D01*
X12489338Y-19390771D01*
X12503624Y-19319342D01*
X12517910Y-19276485D01*
X12532195Y-19247914D01*
X12560767Y-19205057D01*
X12575052Y-19190771D01*
X12846481Y-19533628D02*
X12675052Y-19533628D01*
X12760767Y-19533628D02*
X12760767Y-19233628D01*
X12732195Y-19276485D01*
X12703624Y-19305057D01*
X12675052Y-19319342D01*
X13203624Y-19533628D02*
X13203624Y-19233628D01*
X13332195Y-19533628D02*
X13332195Y-19376485D01*
X13317910Y-19347914D01*
X13289338Y-19333628D01*
X13246481Y-19333628D01*
X13217910Y-19347914D01*
X13203624Y-19362200D01*
X13517910Y-19533628D02*
X13489338Y-19519342D01*
X13475052Y-19505057D01*
X13460767Y-19476485D01*
X13460767Y-19390771D01*
X13475052Y-19362200D01*
X13489338Y-19347914D01*
X13517910Y-19333628D01*
X13560767Y-19333628D01*
X13589338Y-19347914D01*
X13603624Y-19362200D01*
X13617910Y-19390771D01*
X13617910Y-19476485D01*
X13603624Y-19505057D01*
X13589338Y-19519342D01*
X13560767Y-19533628D01*
X13517910Y-19533628D01*
X13789338Y-19533628D02*
X13760767Y-19519342D01*
X13746481Y-19490771D01*
X13746481Y-19233628D01*
X14017910Y-19519342D02*
X13989338Y-19533628D01*
X13932195Y-19533628D01*
X13903624Y-19519342D01*
X13889338Y-19490771D01*
X13889338Y-19376485D01*
X13903624Y-19347914D01*
X13932195Y-19333628D01*
X13989338Y-19333628D01*
X14017910Y-19347914D01*
X14032195Y-19376485D01*
X14032195Y-19405057D01*
X13889338Y-19433628D01*
X14132195Y-19647914D02*
X14146481Y-19633628D01*
X14175052Y-19590771D01*
X14189338Y-19562200D01*
X14203624Y-19519342D01*
X14217910Y-19447914D01*
X14217910Y-19390771D01*
X14203624Y-19319342D01*
X14189338Y-19276485D01*
X14175052Y-19247914D01*
X14146481Y-19205057D01*
X14132195Y-19190771D01*
X14675052Y-19647914D02*
X14660767Y-19633628D01*
X14632195Y-19590771D01*
X14617910Y-19562200D01*
X14603624Y-19519342D01*
X14589338Y-19447914D01*
X14589338Y-19390771D01*
X14603624Y-19319342D01*
X14617910Y-19276485D01*
X14632195Y-19247914D01*
X14660767Y-19205057D01*
X14675052Y-19190771D01*
X14789338Y-19333628D02*
X14789338Y-19533628D01*
X14789338Y-19362200D02*
X14803624Y-19347914D01*
X14832195Y-19333628D01*
X14875052Y-19333628D01*
X14903624Y-19347914D01*
X14917910Y-19376485D01*
X14917910Y-19533628D01*
X15103624Y-19533628D02*
X15075052Y-19519342D01*
X15060767Y-19505057D01*
X15046481Y-19476485D01*
X15046481Y-19390771D01*
X15060767Y-19362200D01*
X15075052Y-19347914D01*
X15103624Y-19333628D01*
X15146481Y-19333628D01*
X15175052Y-19347914D01*
X15189338Y-19362200D01*
X15203624Y-19390771D01*
X15203624Y-19476485D01*
X15189338Y-19505057D01*
X15175052Y-19519342D01*
X15146481Y-19533628D01*
X15103624Y-19533628D01*
X15289338Y-19333628D02*
X15403624Y-19333628D01*
X15332195Y-19233628D02*
X15332195Y-19490771D01*
X15346481Y-19519342D01*
X15375052Y-19533628D01*
X15403624Y-19533628D01*
X15732195Y-19333628D02*
X15732195Y-19633628D01*
X15732195Y-19347914D02*
X15760767Y-19333628D01*
X15817910Y-19333628D01*
X15846481Y-19347914D01*
X15860767Y-19362200D01*
X15875052Y-19390771D01*
X15875052Y-19476485D01*
X15860767Y-19505057D01*
X15846481Y-19519342D01*
X15817910Y-19533628D01*
X15760767Y-19533628D01*
X15732195Y-19519342D01*
X16046481Y-19533628D02*
X16017910Y-19519342D01*
X16003624Y-19490771D01*
X16003624Y-19233628D01*
X16289338Y-19533628D02*
X16289338Y-19376485D01*
X16275052Y-19347914D01*
X16246481Y-19333628D01*
X16189338Y-19333628D01*
X16160767Y-19347914D01*
X16289338Y-19519342D02*
X16260767Y-19533628D01*
X16189338Y-19533628D01*
X16160767Y-19519342D01*
X16146481Y-19490771D01*
X16146481Y-19462200D01*
X16160767Y-19433628D01*
X16189338Y-19419342D01*
X16260767Y-19419342D01*
X16289338Y-19405057D01*
X16389338Y-19333628D02*
X16503624Y-19333628D01*
X16432195Y-19233628D02*
X16432195Y-19490771D01*
X16446481Y-19519342D01*
X16475052Y-19533628D01*
X16503624Y-19533628D01*
X16717910Y-19519342D02*
X16689338Y-19533628D01*
X16632195Y-19533628D01*
X16603624Y-19519342D01*
X16589338Y-19490771D01*
X16589338Y-19376485D01*
X16603624Y-19347914D01*
X16632195Y-19333628D01*
X16689338Y-19333628D01*
X16717910Y-19347914D01*
X16732195Y-19376485D01*
X16732195Y-19405057D01*
X16589338Y-19433628D01*
X16989338Y-19533628D02*
X16989338Y-19233628D01*
X16989338Y-19519342D02*
X16960767Y-19533628D01*
X16903624Y-19533628D01*
X16875053Y-19519342D01*
X16860767Y-19505057D01*
X16846481Y-19476485D01*
X16846481Y-19390771D01*
X16860767Y-19362200D01*
X16875053Y-19347914D01*
X16903624Y-19333628D01*
X16960767Y-19333628D01*
X16989338Y-19347914D01*
X17103624Y-19647914D02*
X17117910Y-19633628D01*
X17146481Y-19590771D01*
X17160767Y-19562200D01*
X17175053Y-19519342D01*
X17189338Y-19447914D01*
X17189338Y-19390771D01*
X17175053Y-19319342D01*
X17160767Y-19276485D01*
X17146481Y-19247914D01*
X17117910Y-19205057D01*
X17103624Y-19190771D01*
X6787195Y-19528914D02*
X7317195Y-20058914D01*
X7317195Y-19528914D02*
X6787195Y-20058914D01*
X7052195Y-19528914D02*
X7052195Y-20058914D01*
X6787195Y-19793914D02*
X7317195Y-19793914D01*
X7746481Y-19629628D02*
X7603624Y-19629628D01*
X7589338Y-19772485D01*
X7603624Y-19758200D01*
X7632195Y-19743914D01*
X7703624Y-19743914D01*
X7732195Y-19758200D01*
X7746481Y-19772485D01*
X7760767Y-19801057D01*
X7760767Y-19872485D01*
X7746481Y-19901057D01*
X7732195Y-19915342D01*
X7703624Y-19929628D01*
X7632195Y-19929628D01*
X7603624Y-19915342D01*
X7589338Y-19901057D01*
X7889338Y-19901057D02*
X7903624Y-19915342D01*
X7889338Y-19929628D01*
X7875052Y-19915342D01*
X7889338Y-19901057D01*
X7889338Y-19929628D01*
X8003624Y-19629628D02*
X8189338Y-19629628D01*
X8089338Y-19743914D01*
X8132195Y-19743914D01*
X8160767Y-19758200D01*
X8175052Y-19772485D01*
X8189338Y-19801057D01*
X8189338Y-19872485D01*
X8175052Y-19901057D01*
X8160767Y-19915342D01*
X8132195Y-19929628D01*
X8046481Y-19929628D01*
X8017910Y-19915342D01*
X8003624Y-19901057D01*
X8375052Y-19629628D02*
X8403624Y-19629628D01*
X8432195Y-19643914D01*
X8446481Y-19658200D01*
X8460767Y-19686771D01*
X8475053Y-19743914D01*
X8475053Y-19815342D01*
X8460767Y-19872485D01*
X8446481Y-19901057D01*
X8432195Y-19915342D01*
X8403624Y-19929628D01*
X8375052Y-19929628D01*
X8346481Y-19915342D01*
X8332195Y-19901057D01*
X8317910Y-19872485D01*
X8303624Y-19815342D01*
X8303624Y-19743914D01*
X8317910Y-19686771D01*
X8332195Y-19658200D01*
X8346481Y-19643914D01*
X8375052Y-19629628D01*
X8660767Y-19629628D02*
X8689338Y-19629628D01*
X8717910Y-19643914D01*
X8732195Y-19658200D01*
X8746481Y-19686771D01*
X8760767Y-19743914D01*
X8760767Y-19815342D01*
X8746481Y-19872485D01*
X8732195Y-19901057D01*
X8717910Y-19915342D01*
X8689338Y-19929628D01*
X8660767Y-19929628D01*
X8632195Y-19915342D01*
X8617910Y-19901057D01*
X8603624Y-19872485D01*
X8589338Y-19815342D01*
X8589338Y-19743914D01*
X8603624Y-19686771D01*
X8617910Y-19658200D01*
X8632195Y-19643914D01*
X8660767Y-19629628D01*
X8889338Y-19929628D02*
X8889338Y-19729628D01*
X8889338Y-19758200D02*
X8903624Y-19743914D01*
X8932195Y-19729628D01*
X8975053Y-19729628D01*
X9003624Y-19743914D01*
X9017910Y-19772485D01*
X9017910Y-19929628D01*
X9017910Y-19772485D02*
X9032195Y-19743914D01*
X9060767Y-19729628D01*
X9103624Y-19729628D01*
X9132195Y-19743914D01*
X9146481Y-19772485D01*
X9146481Y-19929628D01*
X9289338Y-19929628D02*
X9289338Y-19729628D01*
X9289338Y-19758200D02*
X9303624Y-19743914D01*
X9332195Y-19729628D01*
X9375053Y-19729628D01*
X9403624Y-19743914D01*
X9417910Y-19772485D01*
X9417910Y-19929628D01*
X9417910Y-19772485D02*
X9432195Y-19743914D01*
X9460767Y-19729628D01*
X9503624Y-19729628D01*
X9532195Y-19743914D01*
X9546481Y-19772485D01*
X9546481Y-19929628D01*
X10132195Y-19615342D02*
X9875053Y-20001057D01*
X10517910Y-19629628D02*
X10546481Y-19629628D01*
X10575053Y-19643914D01*
X10589338Y-19658200D01*
X10603624Y-19686771D01*
X10617910Y-19743914D01*
X10617910Y-19815342D01*
X10603624Y-19872485D01*
X10589338Y-19901057D01*
X10575053Y-19915342D01*
X10546481Y-19929628D01*
X10517910Y-19929628D01*
X10489338Y-19915342D01*
X10475053Y-19901057D01*
X10460767Y-19872485D01*
X10446481Y-19815342D01*
X10446481Y-19743914D01*
X10460767Y-19686771D01*
X10475053Y-19658200D01*
X10489338Y-19643914D01*
X10517910Y-19629628D01*
X10746481Y-19901057D02*
X10760767Y-19915342D01*
X10746481Y-19929628D01*
X10732195Y-19915342D01*
X10746481Y-19901057D01*
X10746481Y-19929628D01*
X10875053Y-19658200D02*
X10889338Y-19643914D01*
X10917910Y-19629628D01*
X10989338Y-19629628D01*
X11017910Y-19643914D01*
X11032195Y-19658200D01*
X11046481Y-19686771D01*
X11046481Y-19715342D01*
X11032195Y-19758200D01*
X10860767Y-19929628D01*
X11046481Y-19929628D01*
X11232195Y-19629628D02*
X11260767Y-19629628D01*
X11289338Y-19643914D01*
X11303624Y-19658200D01*
X11317910Y-19686771D01*
X11332195Y-19743914D01*
X11332195Y-19815342D01*
X11317910Y-19872485D01*
X11303624Y-19901057D01*
X11289338Y-19915342D01*
X11260767Y-19929628D01*
X11232195Y-19929628D01*
X11203624Y-19915342D01*
X11189338Y-19901057D01*
X11175053Y-19872485D01*
X11160767Y-19815342D01*
X11160767Y-19743914D01*
X11175053Y-19686771D01*
X11189338Y-19658200D01*
X11203624Y-19643914D01*
X11232195Y-19629628D01*
X11503624Y-19758200D02*
X11475052Y-19743914D01*
X11460767Y-19729628D01*
X11446481Y-19701057D01*
X11446481Y-19686771D01*
X11460767Y-19658200D01*
X11475052Y-19643914D01*
X11503624Y-19629628D01*
X11560767Y-19629628D01*
X11589338Y-19643914D01*
X11603624Y-19658200D01*
X11617910Y-19686771D01*
X11617910Y-19701057D01*
X11603624Y-19729628D01*
X11589338Y-19743914D01*
X11560767Y-19758200D01*
X11503624Y-19758200D01*
X11475052Y-19772485D01*
X11460767Y-19786771D01*
X11446481Y-19815342D01*
X11446481Y-19872485D01*
X11460767Y-19901057D01*
X11475052Y-19915342D01*
X11503624Y-19929628D01*
X11560767Y-19929628D01*
X11589338Y-19915342D01*
X11603624Y-19901057D01*
X11617910Y-19872485D01*
X11617910Y-19815342D01*
X11603624Y-19786771D01*
X11589338Y-19772485D01*
X11560767Y-19758200D01*
X11717910Y-19629628D02*
X11917910Y-19629628D01*
X11789338Y-19929628D01*
X12017910Y-19629628D02*
X12017910Y-19686771D01*
X12132195Y-19629628D02*
X12132195Y-19686771D01*
X12575052Y-20043914D02*
X12560767Y-20029628D01*
X12532195Y-19986771D01*
X12517910Y-19958200D01*
X12503624Y-19915342D01*
X12489338Y-19843914D01*
X12489338Y-19786771D01*
X12503624Y-19715342D01*
X12517910Y-19672485D01*
X12532195Y-19643914D01*
X12560767Y-19601057D01*
X12575052Y-19586771D01*
X12817910Y-19729628D02*
X12817910Y-19929628D01*
X12746481Y-19615342D02*
X12675052Y-19829628D01*
X12860767Y-19829628D01*
X13203624Y-19929628D02*
X13203624Y-19629628D01*
X13332195Y-19929628D02*
X13332195Y-19772485D01*
X13317910Y-19743914D01*
X13289338Y-19729628D01*
X13246481Y-19729628D01*
X13217910Y-19743914D01*
X13203624Y-19758200D01*
X13517910Y-19929628D02*
X13489338Y-19915342D01*
X13475052Y-19901057D01*
X13460767Y-19872485D01*
X13460767Y-19786771D01*
X13475052Y-19758200D01*
X13489338Y-19743914D01*
X13517910Y-19729628D01*
X13560767Y-19729628D01*
X13589338Y-19743914D01*
X13603624Y-19758200D01*
X13617910Y-19786771D01*
X13617910Y-19872485D01*
X13603624Y-19901057D01*
X13589338Y-19915342D01*
X13560767Y-19929628D01*
X13517910Y-19929628D01*
X13789338Y-19929628D02*
X13760767Y-19915342D01*
X13746481Y-19886771D01*
X13746481Y-19629628D01*
X14017910Y-19915342D02*
X13989338Y-19929628D01*
X13932195Y-19929628D01*
X13903624Y-19915342D01*
X13889338Y-19886771D01*
X13889338Y-19772485D01*
X13903624Y-19743914D01*
X13932195Y-19729628D01*
X13989338Y-19729628D01*
X14017910Y-19743914D01*
X14032195Y-19772485D01*
X14032195Y-19801057D01*
X13889338Y-19829628D01*
X14146481Y-19915342D02*
X14175052Y-19929628D01*
X14232195Y-19929628D01*
X14260767Y-19915342D01*
X14275052Y-19886771D01*
X14275052Y-19872485D01*
X14260767Y-19843914D01*
X14232195Y-19829628D01*
X14189338Y-19829628D01*
X14160767Y-19815342D01*
X14146481Y-19786771D01*
X14146481Y-19772485D01*
X14160767Y-19743914D01*
X14189338Y-19729628D01*
X14232195Y-19729628D01*
X14260767Y-19743914D01*
X14375052Y-20043914D02*
X14389338Y-20029628D01*
X14417910Y-19986771D01*
X14432195Y-19958200D01*
X14446481Y-19915342D01*
X14460767Y-19843914D01*
X14460767Y-19786771D01*
X14446481Y-19715342D01*
X14432195Y-19672485D01*
X14417910Y-19643914D01*
X14389338Y-19601057D01*
X14375052Y-19586771D01*
X14917910Y-20043914D02*
X14903624Y-20029628D01*
X14875052Y-19986771D01*
X14860767Y-19958200D01*
X14846481Y-19915342D01*
X14832195Y-19843914D01*
X14832195Y-19786771D01*
X14846481Y-19715342D01*
X14860767Y-19672485D01*
X14875052Y-19643914D01*
X14903624Y-19601057D01*
X14917910Y-19586771D01*
X15032195Y-19729628D02*
X15032195Y-19929628D01*
X15032195Y-19758200D02*
X15046481Y-19743914D01*
X15075052Y-19729628D01*
X15117910Y-19729628D01*
X15146481Y-19743914D01*
X15160767Y-19772485D01*
X15160767Y-19929628D01*
X15346481Y-19929628D02*
X15317910Y-19915342D01*
X15303624Y-19901057D01*
X15289338Y-19872485D01*
X15289338Y-19786771D01*
X15303624Y-19758200D01*
X15317910Y-19743914D01*
X15346481Y-19729628D01*
X15389338Y-19729628D01*
X15417910Y-19743914D01*
X15432195Y-19758200D01*
X15446481Y-19786771D01*
X15446481Y-19872485D01*
X15432195Y-19901057D01*
X15417910Y-19915342D01*
X15389338Y-19929628D01*
X15346481Y-19929628D01*
X15532195Y-19729628D02*
X15646481Y-19729628D01*
X15575052Y-19629628D02*
X15575052Y-19886771D01*
X15589338Y-19915342D01*
X15617910Y-19929628D01*
X15646481Y-19929628D01*
X15975052Y-19729628D02*
X15975052Y-20029628D01*
X15975052Y-19743914D02*
X16003624Y-19729628D01*
X16060767Y-19729628D01*
X16089338Y-19743914D01*
X16103624Y-19758200D01*
X16117910Y-19786771D01*
X16117910Y-19872485D01*
X16103624Y-19901057D01*
X16089338Y-19915342D01*
X16060767Y-19929628D01*
X16003624Y-19929628D01*
X15975052Y-19915342D01*
X16289338Y-19929628D02*
X16260767Y-19915342D01*
X16246481Y-19886771D01*
X16246481Y-19629628D01*
X16532195Y-19929628D02*
X16532195Y-19772485D01*
X16517910Y-19743914D01*
X16489338Y-19729628D01*
X16432195Y-19729628D01*
X16403624Y-19743914D01*
X16532195Y-19915342D02*
X16503624Y-19929628D01*
X16432195Y-19929628D01*
X16403624Y-19915342D01*
X16389338Y-19886771D01*
X16389338Y-19858200D01*
X16403624Y-19829628D01*
X16432195Y-19815342D01*
X16503624Y-19815342D01*
X16532195Y-19801057D01*
X16632195Y-19729628D02*
X16746481Y-19729628D01*
X16675052Y-19629628D02*
X16675052Y-19886771D01*
X16689338Y-19915342D01*
X16717910Y-19929628D01*
X16746481Y-19929628D01*
X16960767Y-19915342D02*
X16932195Y-19929628D01*
X16875053Y-19929628D01*
X16846481Y-19915342D01*
X16832195Y-19886771D01*
X16832195Y-19772485D01*
X16846481Y-19743914D01*
X16875053Y-19729628D01*
X16932195Y-19729628D01*
X16960767Y-19743914D01*
X16975053Y-19772485D01*
X16975053Y-19801057D01*
X16832195Y-19829628D01*
X17232195Y-19929628D02*
X17232195Y-19629628D01*
X17232195Y-19915342D02*
X17203624Y-19929628D01*
X17146481Y-19929628D01*
X17117910Y-19915342D01*
X17103624Y-19901057D01*
X17089338Y-19872485D01*
X17089338Y-19786771D01*
X17103624Y-19758200D01*
X17117910Y-19743914D01*
X17146481Y-19729628D01*
X17203624Y-19729628D01*
X17232195Y-19743914D01*
X17346481Y-20043914D02*
X17360767Y-20029628D01*
X17389338Y-19986771D01*
X17403624Y-19958200D01*
X17417910Y-19915342D01*
X17432195Y-19843914D01*
X17432195Y-19786771D01*
X17417910Y-19715342D01*
X17403624Y-19672485D01*
X17389338Y-19643914D01*
X17360767Y-19601057D01*
X17346481Y-19586771D01*
M02*
