M48
; DRILL file {KiCad 5.1.12-84ad8e8a86~92~ubuntu20.04.1} date mer. 17 nov. 2021 00:48:35
; FORMAT={-:-/ absolute / metric / decimal}
; #@! TF.CreationDate,2021-11-17T00:48:35+01:00
; #@! TF.GenerationSoftware,Kicad,Pcbnew,5.1.12-84ad8e8a86~92~ubuntu20.04.1
; #@! TF.FileFunction,NonPlated,1,2,NPTH
FMAT,2
METRIC
T1C0.500
T2C0.600
T3C1.200
T4C2.000
T5C2.200
T6C2.500
T7C5.300
%
G90
G05
T1
X86.706Y-135.188
X92.089Y-116.962
X97.312Y-145.794
X105.15Y-58.387
X107.565Y-106.125
X116.332Y-140.79
X118.65Y-43.387
X123.7Y-56.41
X123.7Y-94.51
X133.203Y-131.049
X138.2Y-37.36
X138.2Y-75.46
X138.909Y-111.366
X142.75Y-52.91
X142.75Y-91.01
X156.26Y-110.87
X157.25Y-34.36
X157.25Y-71.96
X161.8Y-51.95
X161.8Y-90.05
X163.26Y-125.37
X176.3Y-33.4
X176.3Y-71.0
X176.3Y-97.57
X180.85Y-53.49
X180.85Y-91.59
X188.1Y-125.37
X195.35Y-34.44
X195.35Y-72.54
X195.35Y-110.64
X199.9Y-56.07
X199.9Y-94.17
X214.4Y-37.52
X214.4Y-75.12
X214.4Y-113.22
X218.95Y-71.25
X218.95Y-109.35
X233.45Y-52.7
X233.45Y-90.3
X233.45Y-116.62
T2
X80.925Y-128.629
X103.871Y-151.575
X124.25Y-29.16
X137.65Y-29.16
X143.3Y-26.16
X143.3Y-105.75
X156.7Y-26.16
X156.7Y-105.75
X162.35Y-25.2
X162.35Y-105.77
X175.75Y-25.2
X175.75Y-105.77
X181.4Y-26.24
X194.8Y-26.24
X194.8Y-124.82
X200.45Y-29.32
X200.45Y-124.82
X213.85Y-29.32
X213.85Y-124.82
X219.5Y-44.5
X219.5Y-124.82
X232.9Y-44.5
X232.9Y-124.82
T3
X219.056Y-33.341
X223.819Y-38.103
T4
X103.756Y-30.157
X103.756Y-67.912
X103.756Y-84.581
X105.5Y-99.0
X120.044Y-30.157
X120.044Y-67.912
X120.044Y-84.581
X144.793Y-109.921
X156.924Y-108.575
X157.144Y-21.659
X175.974Y-108.595
T5
X79.616Y-125.556
X87.323Y-117.849
X93.086Y-139.027
X93.475Y-139.416
X100.794Y-131.319
X101.183Y-131.708
X101.681Y-106.832
X106.945Y-152.886
X111.12Y-101.382
X111.206Y-123.33
X111.481Y-123.806
X114.653Y-145.179
X120.645Y-117.88
X120.92Y-118.356
X121.006Y-140.304
X130.445Y-134.854
X134.142Y-112.413
X138.917Y-131.423
X149.489Y-128.767
T6
X221.438Y-35.722
T7
X98.639Y-34.932
X98.639Y-159.529
X232.22Y-37.929
X232.22Y-136.74
T0
M30
