%TF.GenerationSoftware,KiCad,Pcbnew,5.1.12-84ad8e8a86~92~ubuntu20.04.1*%
%TF.CreationDate,2021-11-17T00:48:30+01:00*%
%TF.ProjectId,LergoTopPlate_FR4_Rails_LessRouting,4c657267-6f54-46f7-9050-6c6174655f46,v1.A*%
%TF.SameCoordinates,Original*%
%TF.FileFunction,Legend,Bot*%
%TF.FilePolarity,Positive*%
%FSLAX46Y46*%
G04 Gerber Fmt 4.6, Leading zero omitted, Abs format (unit mm)*
G04 Created by KiCad (PCBNEW 5.1.12-84ad8e8a86~92~ubuntu20.04.1) date 2021-11-17 00:48:30*
%MOMM*%
%LPD*%
G01*
G04 APERTURE LIST*
%ADD10C,2.200000*%
%ADD11C,0.500000*%
%ADD12C,2.000000*%
%ADD13C,5.300000*%
%ADD14C,1.200000*%
%ADD15C,2.500000*%
%ADD16C,0.600000*%
G04 APERTURE END LIST*
%LPC*%
D10*
X138917245Y-131422627D03*
X134142390Y-112413135D03*
X149488850Y-128767223D03*
X120645220Y-117880052D03*
X130445220Y-134854150D03*
X111205544Y-123330052D03*
X121005544Y-140304150D03*
X106945463Y-152886146D03*
X93086171Y-139026854D03*
X114652927Y-145178682D03*
X100793635Y-131319390D03*
X93475079Y-139415762D03*
X79615787Y-125556470D03*
X101182543Y-131708298D03*
X87323251Y-117849006D03*
X111480544Y-123806366D03*
X101680544Y-106832268D03*
X120920220Y-118356366D03*
X111120220Y-101382268D03*
D11*
X97312190Y-145794472D03*
X86705588Y-135187870D03*
X107565382Y-106125107D03*
X92088632Y-116962044D03*
X133202631Y-131049091D03*
X163260001Y-125370001D03*
X116331560Y-140789607D03*
X123700000Y-94510000D03*
X138909139Y-111365824D03*
X138200000Y-75460000D03*
X123700000Y-56410000D03*
X138200000Y-37360000D03*
X156260000Y-110870000D03*
X188100000Y-125370000D03*
X180850000Y-91590000D03*
X195350000Y-110640000D03*
X195350000Y-72540000D03*
X180850000Y-53490000D03*
X195350000Y-34440000D03*
X142750000Y-91010000D03*
X157250000Y-71960000D03*
X142750000Y-52910000D03*
X157250000Y-34360000D03*
X161800000Y-90050000D03*
X176300000Y-97570000D03*
X176300000Y-71000000D03*
X161800000Y-51950000D03*
X176300000Y-33400000D03*
X199900000Y-94170000D03*
X199900000Y-56070000D03*
X214400000Y-113220000D03*
X214400000Y-75120000D03*
X214400000Y-37520000D03*
X233450000Y-116620000D03*
X218950000Y-109350000D03*
X218950000Y-71250000D03*
X233450000Y-90300000D03*
X233450000Y-52700000D03*
X118650000Y-43387500D03*
X105150000Y-58387500D03*
D12*
X103756250Y-84581250D03*
X120043750Y-30157500D03*
X120043750Y-67912500D03*
X103756250Y-67912500D03*
X103756250Y-30157500D03*
X120043750Y-84581250D03*
D13*
X98638899Y-34932171D03*
X98638899Y-159529137D03*
X232220381Y-136740000D03*
X232220381Y-37928844D03*
D12*
X175973750Y-108595000D03*
X156923750Y-108575000D03*
X144793444Y-109920811D03*
X105500000Y-99000000D03*
X157143750Y-21659375D03*
D14*
X223818750Y-38103125D03*
X219056250Y-33340625D03*
D15*
X221437500Y-35721875D03*
D16*
X194800000Y-124820000D03*
M02*
