%TF.GenerationSoftware,KiCad,Pcbnew,5.1.12-84ad8e8a86~92~ubuntu20.04.1*%
%TF.CreationDate,2021-11-16T23:16:43+01:00*%
%TF.ProjectId,LergoTopPlate_Alu_LessRouting,4c657267-6f54-46f7-9050-6c6174655f41,v1.A*%
%TF.SameCoordinates,Original*%
%TF.FileFunction,Profile,NP*%
%FSLAX46Y46*%
G04 Gerber Fmt 4.6, Leading zero omitted, Abs format (unit mm)*
G04 Created by KiCad (PCBNEW 5.1.12-84ad8e8a86~92~ubuntu20.04.1) date 2021-11-16 23:16:43*
%MOMM*%
%LPD*%
G01*
G04 APERTURE LIST*
%TA.AperFunction,Profile*%
%ADD10C,0.120000*%
%TD*%
%TA.AperFunction,Profile*%
%ADD11C,0.100000*%
%TD*%
%TA.AperFunction,Profile*%
%ADD12C,0.150000*%
%TD*%
G04 APERTURE END LIST*
D10*
X73524848Y-127344018D02*
G75*
G02*
X73524848Y-125929804I707107J707107D01*
G01*
D11*
X95103365Y-148922535D02*
G75*
G02*
X95103365Y-155993603I-3535534J-3535534D01*
G01*
X102174433Y-163064671D02*
G75*
G02*
X95103365Y-155993603I-3535534J3535534D01*
G01*
X98641295Y-39932170D02*
G75*
G02*
X101614896Y-42905771I0J-2973601D01*
G01*
X98641295Y-39932170D02*
G75*
G02*
X96852971Y-30262004I-2396J4999999D01*
G01*
X222220381Y-131740000D02*
G75*
G02*
X227220381Y-136740000I0J-5000000D01*
G01*
X237220381Y-136740000D02*
G75*
G02*
X227220381Y-136740000I-5000000J0D01*
G01*
X101614896Y-101696929D02*
G75*
G02*
X101143092Y-102545766I-1000000J286D01*
G01*
X101614896Y-42905771D02*
X101614896Y-101696929D01*
X234214126Y-33343544D02*
G75*
G02*
X237220381Y-37928844I-1993745J-4585300D01*
G01*
X96852971Y-30262005D02*
G75*
G02*
X234214126Y-33343544I64907410J-169731595D01*
G01*
X80612709Y-118841943D02*
G75*
G02*
X101143092Y-102545766I81147672J-81151657D01*
G01*
X73524848Y-125929804D02*
X80612709Y-118841943D01*
X95103365Y-148922535D02*
X73524848Y-127344018D01*
X113500343Y-151733562D02*
X102174433Y-163064671D01*
X113500343Y-151733562D02*
G75*
G02*
X161760381Y-131743600I48260038J-48260038D01*
G01*
X161760381Y-131743600D02*
X222220381Y-131740000D01*
X237220381Y-37928844D02*
X237220381Y-136740000D01*
D12*
X102231002Y-130560741D02*
G75*
G02*
X101099630Y-131692111I-565686J-565685D01*
G01*
X90965906Y-137963265D02*
G75*
G02*
X89834535Y-137963264I-565685J565686D01*
G01*
X89834535Y-119295646D02*
G75*
G02*
X90965906Y-119295645I565686J-565685D01*
G01*
X81066411Y-129195141D02*
G75*
G02*
X81066411Y-128063769I565686J565686D01*
G01*
X99734030Y-128063770D02*
G75*
G02*
X99734030Y-129195140I-565685J-565685D01*
G01*
X104436291Y-151433648D02*
G75*
G02*
X103304920Y-151433649I-565686J565685D01*
G01*
X103304920Y-132766029D02*
G75*
G02*
X104436291Y-132766030I565685J-565686D01*
G01*
X94536796Y-142665524D02*
G75*
G02*
X94536796Y-141534154I565685J565685D01*
G01*
X113204415Y-141534153D02*
G75*
G02*
X113204415Y-142665525I-565686J-565686D01*
G01*
X97701099Y-144698456D02*
G75*
G02*
X96569728Y-144698457I-565686J565685D01*
G01*
X96569727Y-126030838D02*
G75*
G02*
X97701098Y-126030837I565686J-565685D01*
G01*
X87801604Y-135930333D02*
G75*
G02*
X87801603Y-134798962I565685J565686D01*
G01*
X106469222Y-134798961D02*
G75*
G02*
X106469223Y-135930332I-565685J-565686D01*
G01*
X100812369Y-131404850D02*
G75*
G02*
X101943739Y-130273478I565685J565686D01*
G01*
X95716769Y-124046497D02*
G75*
G02*
X95716786Y-125177884I-565669J-565702D01*
G01*
X92044245Y-140172974D02*
G75*
G02*
X93175615Y-139041602I565685J565686D01*
G01*
X93458457Y-139324444D02*
G75*
G02*
X92327087Y-140455816I-565685J-565686D01*
G01*
X86948661Y-133946008D02*
G75*
G02*
X85817291Y-133946008I-565685J565685D01*
G01*
X107322175Y-136783274D02*
G75*
G02*
X108453547Y-136783274I565686J-565686D01*
G01*
X98554035Y-146682753D02*
G75*
G02*
X98554052Y-145551398I565702J565669D01*
G01*
X90912878Y-131687687D02*
G75*
G02*
X92044250Y-132819057I565686J-565685D01*
G01*
X92945810Y-133720619D02*
G75*
G02*
X94077182Y-134851989I565686J-565685D01*
G01*
X96622767Y-132306404D02*
G75*
G02*
X95491395Y-131175034I-565686J565685D01*
G01*
X94589835Y-130273472D02*
G75*
G02*
X93458463Y-129142102I-565686J565685D01*
G01*
X101325027Y-137008664D02*
G75*
G02*
X100193655Y-135877294I-565686J565685D01*
G01*
X97648070Y-138422879D02*
G75*
G02*
X98779442Y-139554249I565686J-565685D01*
G01*
X103357959Y-139041596D02*
G75*
G02*
X102226587Y-137910226I-565686J565685D01*
G01*
X99681002Y-140455811D02*
G75*
G02*
X100812374Y-141587181I565686J-565685D01*
G01*
X105342276Y-141025916D02*
G75*
G02*
X104210906Y-139894544I-565685J565686D01*
G01*
X101665322Y-142440129D02*
G75*
G02*
X102796692Y-143571499I565685J-565685D01*
G01*
X92605515Y-128289155D02*
G75*
G02*
X91474145Y-127157783I-565685J565686D01*
G01*
X88928561Y-129703367D02*
G75*
G02*
X90059931Y-130834739I565685J-565686D01*
G01*
X110093144Y-145776794D02*
G75*
G02*
X108961774Y-144645424I-565685J565685D01*
G01*
X106416190Y-147191007D02*
G75*
G02*
X107547560Y-148322379I565685J-565686D01*
G01*
X87854636Y-123538287D02*
G75*
G02*
X86723266Y-122406915I-565685J565686D01*
G01*
X84177686Y-124952493D02*
G75*
G02*
X85309058Y-126083865I565686J-565686D01*
G01*
X84177687Y-124952494D02*
X81066411Y-128063769D01*
X90400221Y-120992702D02*
X87854636Y-123538286D01*
X108961774Y-144645424D02*
X111507358Y-142099839D01*
X104436291Y-151433649D02*
X107547560Y-148322379D01*
X97648071Y-138422878D02*
X94536796Y-141534154D01*
X110093145Y-145776794D02*
X113204415Y-142665525D01*
X89834535Y-119295645D02*
X86723266Y-122406915D01*
X90965906Y-137963264D02*
X94077182Y-134851989D01*
X96569728Y-126030837D02*
X93458463Y-129142102D01*
X97701098Y-144698457D02*
X100812374Y-141587181D01*
X99734030Y-128063769D02*
X97701098Y-126030837D01*
X103870605Y-149736592D02*
X106416190Y-147191008D01*
X97135413Y-143001400D02*
X99681003Y-140455810D01*
X95491395Y-131175034D02*
X98036974Y-128629455D01*
X98779442Y-139554249D02*
X96233852Y-142099839D01*
X85309058Y-126083865D02*
X82763468Y-128629455D01*
X100251102Y-146117089D02*
X103870605Y-149736592D01*
X82763468Y-128629455D02*
X86382971Y-132248958D01*
X90400221Y-120992702D02*
X94019724Y-124612205D01*
X107887855Y-138480336D02*
X111507358Y-142099839D01*
X89498660Y-135364647D02*
X90400221Y-136266208D01*
X96233852Y-142099839D02*
X97135413Y-143001400D01*
X103870605Y-134463086D02*
X104772166Y-135364647D01*
X97135413Y-127727894D02*
X98036974Y-128629455D01*
X100812368Y-131404849D02*
X101099630Y-131692111D01*
X93175615Y-139041602D02*
X93458458Y-139324445D01*
X101943739Y-130273478D02*
X102231001Y-130560740D01*
X95716769Y-124046497D02*
X90965906Y-119295645D01*
X85817291Y-133946008D02*
X81066411Y-129195140D01*
X89834535Y-137963264D02*
X87801603Y-135930332D01*
X92044244Y-140172973D02*
X92327087Y-140455816D01*
X96569728Y-144698457D02*
X94536796Y-142665525D01*
X103304920Y-151433649D02*
X98554035Y-146682753D01*
X113204415Y-141534154D02*
X108453547Y-136783274D01*
X106469223Y-134798962D02*
X104436291Y-132766030D01*
X96622766Y-132306405D02*
X99734030Y-129195140D01*
X90400221Y-136266208D02*
X92945811Y-133720618D01*
X97135413Y-127727894D02*
X94589834Y-130273473D01*
X92044250Y-132819057D02*
X89498660Y-135364647D01*
X90912879Y-131687686D02*
X87801603Y-134798962D01*
X103357958Y-139041597D02*
X106469223Y-135930332D01*
X102226587Y-137910226D02*
X104772166Y-135364647D01*
X103870605Y-134463086D02*
X101325026Y-137008665D01*
X103304920Y-132766030D02*
X100193655Y-135877294D01*
X104210906Y-139894544D02*
X107322176Y-136783274D01*
X86948662Y-133946008D02*
X90059931Y-130834739D01*
X100251102Y-146117089D02*
X102796692Y-143571499D01*
X105342277Y-141025915D02*
X107887855Y-138480336D01*
X98554052Y-145551398D02*
X101665321Y-142440129D01*
X91474145Y-127157783D02*
X94019724Y-124612205D01*
X92605516Y-128289154D02*
X95716786Y-125177884D01*
X86382971Y-132248958D02*
X88928561Y-129703368D01*
X106478183Y-115045693D02*
X109595881Y-113245689D01*
X113513573Y-112831330D02*
X117324084Y-110631330D01*
X112713573Y-111445689D02*
X115831257Y-109645693D01*
X114791619Y-131044972D02*
X118602131Y-128844972D01*
X122519823Y-128430613D02*
X125637507Y-126630617D01*
X116284433Y-132030617D02*
X119402131Y-130230613D01*
X106585369Y-116831330D02*
X110395881Y-114631330D01*
X121719823Y-127044972D02*
X125530334Y-124844972D01*
X122689703Y-119924869D02*
X118879198Y-122124865D01*
X122796882Y-121710510D02*
X119679198Y-123510506D01*
X120316698Y-124614688D02*
X123434382Y-122814692D01*
X121116698Y-126000329D02*
X124927203Y-123800333D01*
X110999006Y-115675973D02*
X107188487Y-117875977D01*
X111799006Y-117061614D02*
X108681308Y-118861618D01*
X118034382Y-113461618D02*
X114916698Y-115261614D01*
X109318808Y-119965800D02*
X112436506Y-118165796D01*
X116354198Y-117751437D02*
X120164703Y-115551441D01*
X125220023Y-122707513D02*
X123782523Y-120217689D01*
X129982523Y-130956404D02*
X126623155Y-125137792D01*
X117858167Y-137956404D02*
X114498788Y-132137772D01*
X113095667Y-129707513D02*
X111658167Y-127217689D01*
X109895667Y-124164950D02*
X110095667Y-124511360D01*
X108333167Y-121458621D02*
X106895667Y-118968797D01*
X105492549Y-116538510D02*
X102133167Y-110719906D01*
X117616893Y-109538490D02*
X114257523Y-103719906D01*
X122020023Y-117164950D02*
X122223148Y-117516773D01*
X111281308Y-123364950D02*
X111481308Y-123711360D01*
X120634382Y-117964950D02*
X120837507Y-118316773D01*
X118034382Y-113461618D02*
X118671882Y-114565800D01*
X122796882Y-121710510D02*
X123434382Y-122814692D01*
X113443808Y-127110510D02*
X114081308Y-128214692D01*
X108681308Y-118861618D02*
X109318808Y-119965800D01*
X125637507Y-126630617D02*
X128196882Y-131063584D01*
X113271882Y-105212726D02*
X115831257Y-109645693D01*
X103918808Y-110612726D02*
X106478183Y-115045693D01*
X116284433Y-132030617D02*
X118843808Y-136463584D01*
X107036506Y-108812722D02*
X103918808Y-110612726D01*
X116561506Y-125310506D02*
X113443808Y-127110510D01*
X115554198Y-116365796D02*
X118671882Y-114565800D01*
X114081308Y-128214692D02*
X117199006Y-126414688D01*
X118843808Y-136463584D02*
X121961499Y-134663584D01*
X120457523Y-114458621D02*
X119020023Y-111968797D01*
X114188487Y-130000333D02*
X117999006Y-127800329D01*
X117927203Y-111675977D02*
X114116698Y-113875973D01*
X109425987Y-121751441D02*
X113236506Y-119551437D01*
X113164703Y-103427085D02*
X109354191Y-105627085D01*
X125879191Y-134249225D02*
X129689703Y-132049225D01*
X115761506Y-123924865D02*
X111950987Y-126124869D01*
X118950987Y-138249225D02*
X122761499Y-136049225D01*
X125079191Y-132863584D02*
X128196882Y-131063584D01*
X113271882Y-105212726D02*
X110154191Y-107012726D01*
X106236506Y-107427081D02*
X102425987Y-109627085D01*
X122223149Y-117516773D02*
G75*
G02*
X120837507Y-118316773I-692821J-400000D01*
G01*
X109425987Y-121751441D02*
G75*
G02*
X108333167Y-121458621I-400000J692820D01*
G01*
X113164703Y-103427086D02*
G75*
G02*
X114257523Y-103719906I400000J-692820D01*
G01*
X102133166Y-110719906D02*
G75*
G02*
X102425987Y-109627085I692821J400000D01*
G01*
X120457523Y-114458621D02*
G75*
G02*
X120164703Y-115551441I-692820J-400000D01*
G01*
X118950987Y-138249224D02*
G75*
G02*
X117858167Y-137956404I-400000J692820D01*
G01*
X122689703Y-119924869D02*
G75*
G02*
X123782523Y-120217689I400000J-692820D01*
G01*
X111658167Y-127217689D02*
G75*
G02*
X111950987Y-126124869I692820J400000D01*
G01*
X129982524Y-130956404D02*
G75*
G02*
X129689703Y-132049225I-692821J-400000D01*
G01*
X114188487Y-130000333D02*
G75*
G02*
X113095667Y-129707513I-400000J692820D01*
G01*
X117927203Y-111675977D02*
G75*
G02*
X119020023Y-111968797I400000J-692820D01*
G01*
X106895667Y-118968797D02*
G75*
G02*
X107188487Y-117875977I692820J400000D01*
G01*
X125220023Y-122707513D02*
G75*
G02*
X124927203Y-123800333I-692820J-400000D01*
G01*
X120634383Y-117964950D02*
G75*
G02*
X122020023Y-117164950I692820J400000D01*
G01*
X117616893Y-109538490D02*
G75*
G02*
X117324084Y-110631330I-692809J-400020D01*
G01*
X109895666Y-124164950D02*
G75*
G02*
X111281308Y-123364950I692821J400000D01*
G01*
X111481307Y-123711360D02*
G75*
G02*
X110095667Y-124511360I-692820J-400000D01*
G01*
X106585369Y-116831330D02*
G75*
G02*
X105492549Y-116538510I-400000J692820D01*
G01*
X125530334Y-124844971D02*
G75*
G02*
X126623155Y-125137792I400000J-692821D01*
G01*
X114498787Y-132137772D02*
G75*
G02*
X114791619Y-131044972I692832J399980D01*
G01*
X110999006Y-115675972D02*
G75*
G02*
X111799006Y-117061614I400000J-692821D01*
G01*
X112436506Y-118165797D02*
G75*
G02*
X113236506Y-119551437I400000J-692820D01*
G01*
X116354198Y-117751438D02*
G75*
G02*
X115554198Y-116365796I-400000J692821D01*
G01*
X114916698Y-115261613D02*
G75*
G02*
X114116698Y-113875973I-400000J692820D01*
G01*
X119679198Y-123510505D02*
G75*
G02*
X118879198Y-122124865I-400000J692820D01*
G01*
X115761506Y-123924864D02*
G75*
G02*
X116561506Y-125310506I400000J-692821D01*
G01*
X121116698Y-126000330D02*
G75*
G02*
X120316698Y-124614688I-400000J692821D01*
G01*
X117199006Y-126414689D02*
G75*
G02*
X117999006Y-127800329I400000J-692820D01*
G01*
X122519823Y-128430612D02*
G75*
G02*
X121719823Y-127044972I-400000J692820D01*
G01*
X118602131Y-128844971D02*
G75*
G02*
X119402131Y-130230613I400000J-692821D01*
G01*
X113513573Y-112831331D02*
G75*
G02*
X112713573Y-111445689I-400000J692821D01*
G01*
X109595881Y-113245690D02*
G75*
G02*
X110395881Y-114631330I400000J-692820D01*
G01*
X125879191Y-134249224D02*
G75*
G02*
X125079191Y-132863584I-400000J692820D01*
G01*
X121961499Y-134663583D02*
G75*
G02*
X122761499Y-136049225I400000J-692821D01*
G01*
X110154191Y-107012727D02*
G75*
G02*
X109354191Y-105627085I-400000J692821D01*
G01*
X106236506Y-107427082D02*
G75*
G02*
X107036506Y-108812722I400000J-692820D01*
G01*
X174610000Y-125120000D02*
X187010000Y-125120000D01*
X186210000Y-116320000D02*
X186210000Y-112720000D01*
X175410000Y-112720000D02*
X175410000Y-116320000D01*
X187810000Y-116320000D02*
X187810000Y-111920000D01*
X187810000Y-124320000D02*
X187810000Y-119920000D01*
X187010000Y-111120000D02*
X174610000Y-111120000D01*
X173810000Y-119920000D02*
X173810000Y-124320000D01*
X186210000Y-123520000D02*
X186210000Y-119920000D01*
X173810000Y-111920000D02*
X173810000Y-116320000D01*
X175410000Y-119920000D02*
X175410000Y-123520000D01*
X186210000Y-112720000D02*
X175410000Y-112720000D01*
X175410000Y-123520000D02*
X186210000Y-123520000D01*
X173810000Y-111920000D02*
G75*
G02*
X174610000Y-111120000I800000J0D01*
G01*
X187810000Y-124320000D02*
G75*
G02*
X187010000Y-125120000I-800000J0D01*
G01*
X173810000Y-119920000D02*
G75*
G02*
X175410000Y-119920000I800000J0D01*
G01*
X187810000Y-116320000D02*
G75*
G02*
X186210000Y-116320000I-800000J0D01*
G01*
X174610000Y-125120000D02*
G75*
G02*
X173810000Y-124320000I0J800000D01*
G01*
X187010000Y-111120000D02*
G75*
G02*
X187810000Y-111920000I0J-800000D01*
G01*
X186210000Y-119920000D02*
G75*
G02*
X187810000Y-119920000I800000J0D01*
G01*
X175410000Y-116320000D02*
G75*
G02*
X173810000Y-116320000I-800000J0D01*
G01*
X155560000Y-111120000D02*
X167960000Y-111120000D01*
X167160000Y-119920000D02*
X167160000Y-123520000D01*
X156360000Y-123520000D02*
X156360000Y-119920000D01*
X168760000Y-119920000D02*
X168760000Y-124320000D01*
X168760000Y-111920000D02*
X168760000Y-116320000D01*
X167960000Y-125120000D02*
X155560000Y-125120000D01*
X154760000Y-116320000D02*
X154760000Y-111920000D01*
X167160000Y-112720000D02*
X167160000Y-116320000D01*
X154760000Y-124320000D02*
X154760000Y-119920000D01*
X156360000Y-116320000D02*
X156360000Y-112720000D01*
X167160000Y-123520000D02*
X156360000Y-123520000D01*
X156360000Y-112720000D02*
X167160000Y-112720000D01*
X154760000Y-124320000D02*
G75*
G03*
X155560000Y-125120000I800000J0D01*
G01*
X168760000Y-111920000D02*
G75*
G03*
X167960000Y-111120000I-800000J0D01*
G01*
X154760000Y-116320000D02*
G75*
G03*
X156360000Y-116320000I800000J0D01*
G01*
X168760000Y-119920000D02*
G75*
G03*
X167160000Y-119920000I-800000J0D01*
G01*
X155560000Y-111120000D02*
G75*
G03*
X154760000Y-111920000I0J-800000D01*
G01*
X167960000Y-125120000D02*
G75*
G03*
X168760000Y-124320000I0J800000D01*
G01*
X167160000Y-116320000D02*
G75*
G03*
X168760000Y-116320000I800000J0D01*
G01*
X156360000Y-119920000D02*
G75*
G03*
X154760000Y-119920000I-800000J0D01*
G01*
X136397993Y-129276159D02*
X148375473Y-126066803D01*
X145325125Y-117773711D02*
X144393377Y-114296378D01*
X133961378Y-117091623D02*
X134893126Y-120568956D01*
X146870607Y-117359600D02*
X145731803Y-113109527D01*
X148941159Y-125087007D02*
X147802355Y-120836933D01*
X144752007Y-112543841D02*
X132774527Y-115753197D01*
X134279393Y-124460400D02*
X135418197Y-128710473D01*
X147188622Y-124728377D02*
X146256874Y-121251044D01*
X132208841Y-116732993D02*
X133347645Y-120983067D01*
X135824875Y-124046289D02*
X136756623Y-127523622D01*
X144393377Y-114296378D02*
X133961378Y-117091623D01*
X136756623Y-127523622D02*
X147188622Y-124728377D01*
X132208841Y-116732993D02*
G75*
G02*
X132774527Y-115753197I772741J207055D01*
G01*
X148941159Y-125087007D02*
G75*
G02*
X148375473Y-126066803I-772741J-207055D01*
G01*
X134279393Y-124460401D02*
G75*
G02*
X135824875Y-124046289I772741J207056D01*
G01*
X146870607Y-117359599D02*
G75*
G02*
X145325125Y-117773711I-772741J-207056D01*
G01*
X136397993Y-129276159D02*
G75*
G02*
X135418197Y-128710473I-207055J772741D01*
G01*
X144752007Y-112543841D02*
G75*
G02*
X145731803Y-113109527I207055J-772741D01*
G01*
X146256873Y-121251043D02*
G75*
G02*
X147802355Y-120836933I772741J207055D01*
G01*
X134893127Y-120568957D02*
G75*
G02*
X133347645Y-120983067I-772741J-207055D01*
G01*
X220000000Y-117550000D02*
X232400000Y-117550000D01*
X231600000Y-108750000D02*
X231600000Y-105150000D01*
X220800000Y-105150000D02*
X220800000Y-108750000D01*
X233200000Y-108750000D02*
X233200000Y-104350000D01*
X233200000Y-116750000D02*
X233200000Y-112350000D01*
X232400000Y-103550000D02*
X220000000Y-103550000D01*
X219200000Y-112350000D02*
X219200000Y-116750000D01*
X231600000Y-115950000D02*
X231600000Y-112350000D01*
X219200000Y-104350000D02*
X219200000Y-108750000D01*
X220800000Y-112350000D02*
X220800000Y-115950000D01*
X231600000Y-105150000D02*
X220800000Y-105150000D01*
X220800000Y-115950000D02*
X231600000Y-115950000D01*
X219200000Y-104350000D02*
G75*
G02*
X220000000Y-103550000I800000J0D01*
G01*
X233200000Y-116750000D02*
G75*
G02*
X232400000Y-117550000I-800000J0D01*
G01*
X219200000Y-112350000D02*
G75*
G02*
X220800000Y-112350000I800000J0D01*
G01*
X233200000Y-108750000D02*
G75*
G02*
X231600000Y-108750000I-800000J0D01*
G01*
X220000000Y-117550000D02*
G75*
G02*
X219200000Y-116750000I0J800000D01*
G01*
X232400000Y-103550000D02*
G75*
G02*
X233200000Y-104350000I0J-800000D01*
G01*
X231600000Y-112350000D02*
G75*
G02*
X233200000Y-112350000I800000J0D01*
G01*
X220800000Y-108750000D02*
G75*
G02*
X219200000Y-108750000I-800000J0D01*
G01*
X220000000Y-98500000D02*
X232400000Y-98500000D01*
X231600000Y-89700000D02*
X231600000Y-86100000D01*
X220800000Y-86100000D02*
X220800000Y-89700000D01*
X233200000Y-89700000D02*
X233200000Y-85300000D01*
X233200000Y-97700000D02*
X233200000Y-93300000D01*
X232400000Y-84500000D02*
X220000000Y-84500000D01*
X219200000Y-93300000D02*
X219200000Y-97700000D01*
X231600000Y-96900000D02*
X231600000Y-93300000D01*
X219200000Y-85300000D02*
X219200000Y-89700000D01*
X220800000Y-93300000D02*
X220800000Y-96900000D01*
X231600000Y-86100000D02*
X220800000Y-86100000D01*
X220800000Y-96900000D02*
X231600000Y-96900000D01*
X219200000Y-85300000D02*
G75*
G02*
X220000000Y-84500000I800000J0D01*
G01*
X233200000Y-97700000D02*
G75*
G02*
X232400000Y-98500000I-800000J0D01*
G01*
X219200000Y-93300000D02*
G75*
G02*
X220800000Y-93300000I800000J0D01*
G01*
X233200000Y-89700000D02*
G75*
G02*
X231600000Y-89700000I-800000J0D01*
G01*
X220000000Y-98500000D02*
G75*
G02*
X219200000Y-97700000I0J800000D01*
G01*
X232400000Y-84500000D02*
G75*
G02*
X233200000Y-85300000I0J-800000D01*
G01*
X231600000Y-93300000D02*
G75*
G02*
X233200000Y-93300000I800000J0D01*
G01*
X220800000Y-89700000D02*
G75*
G02*
X219200000Y-89700000I-800000J0D01*
G01*
X220000000Y-79450000D02*
X232400000Y-79450000D01*
X231600000Y-70650000D02*
X231600000Y-67050000D01*
X220800000Y-67050000D02*
X220800000Y-70650000D01*
X233200000Y-70650000D02*
X233200000Y-66250000D01*
X233200000Y-78650000D02*
X233200000Y-74250000D01*
X232400000Y-65450000D02*
X220000000Y-65450000D01*
X219200000Y-74250000D02*
X219200000Y-78650000D01*
X231600000Y-77850000D02*
X231600000Y-74250000D01*
X219200000Y-66250000D02*
X219200000Y-70650000D01*
X220800000Y-74250000D02*
X220800000Y-77850000D01*
X231600000Y-67050000D02*
X220800000Y-67050000D01*
X220800000Y-77850000D02*
X231600000Y-77850000D01*
X219200000Y-66250000D02*
G75*
G02*
X220000000Y-65450000I800000J0D01*
G01*
X233200000Y-78650000D02*
G75*
G02*
X232400000Y-79450000I-800000J0D01*
G01*
X219200000Y-74250000D02*
G75*
G02*
X220800000Y-74250000I800000J0D01*
G01*
X233200000Y-70650000D02*
G75*
G02*
X231600000Y-70650000I-800000J0D01*
G01*
X220000000Y-79450000D02*
G75*
G02*
X219200000Y-78650000I0J800000D01*
G01*
X232400000Y-65450000D02*
G75*
G02*
X233200000Y-66250000I0J-800000D01*
G01*
X231600000Y-74250000D02*
G75*
G02*
X233200000Y-74250000I800000J0D01*
G01*
X220800000Y-70650000D02*
G75*
G02*
X219200000Y-70650000I-800000J0D01*
G01*
X220000000Y-60400000D02*
X232400000Y-60400000D01*
X231600000Y-51600000D02*
X231600000Y-48000000D01*
X220800000Y-48000000D02*
X220800000Y-51600000D01*
X233200000Y-51600000D02*
X233200000Y-47200000D01*
X233200000Y-59600000D02*
X233200000Y-55200000D01*
X232400000Y-46400000D02*
X220000000Y-46400000D01*
X219200000Y-55200000D02*
X219200000Y-59600000D01*
X231600000Y-58800000D02*
X231600000Y-55200000D01*
X219200000Y-47200000D02*
X219200000Y-51600000D01*
X220800000Y-55200000D02*
X220800000Y-58800000D01*
X231600000Y-48000000D02*
X220800000Y-48000000D01*
X220800000Y-58800000D02*
X231600000Y-58800000D01*
X219200000Y-47200000D02*
G75*
G02*
X220000000Y-46400000I800000J0D01*
G01*
X233200000Y-59600000D02*
G75*
G02*
X232400000Y-60400000I-800000J0D01*
G01*
X219200000Y-55200000D02*
G75*
G02*
X220800000Y-55200000I800000J0D01*
G01*
X233200000Y-51600000D02*
G75*
G02*
X231600000Y-51600000I-800000J0D01*
G01*
X220000000Y-60400000D02*
G75*
G02*
X219200000Y-59600000I0J800000D01*
G01*
X232400000Y-46400000D02*
G75*
G02*
X233200000Y-47200000I0J-800000D01*
G01*
X231600000Y-55200000D02*
G75*
G02*
X233200000Y-55200000I800000J0D01*
G01*
X220800000Y-51600000D02*
G75*
G02*
X219200000Y-51600000I-800000J0D01*
G01*
X123950000Y-38200000D02*
X123950000Y-42600000D01*
X124750000Y-51400000D02*
X137150000Y-51400000D01*
X137950000Y-42600000D02*
X137950000Y-38200000D01*
X137150000Y-37400000D02*
X124750000Y-37400000D01*
X136350000Y-39000000D02*
X125550000Y-39000000D01*
X136350000Y-42600000D02*
X136350000Y-39000000D01*
X125550000Y-49800000D02*
X136350000Y-49800000D01*
X125550000Y-39000000D02*
X125550000Y-42600000D01*
X137950000Y-50600000D02*
X137950000Y-46200000D01*
X136350000Y-49800000D02*
X136350000Y-46200000D01*
X125550000Y-46200000D02*
X125550000Y-49800000D01*
X123950000Y-46200000D02*
X123950000Y-50600000D01*
X137950000Y-50600000D02*
G75*
G02*
X137150000Y-51400000I-800000J0D01*
G01*
X125550000Y-42600000D02*
G75*
G02*
X123950000Y-42600000I-800000J0D01*
G01*
X123950000Y-46200000D02*
G75*
G02*
X125550000Y-46200000I800000J0D01*
G01*
X137950000Y-42600000D02*
G75*
G02*
X136350000Y-42600000I-800000J0D01*
G01*
X136350000Y-46200000D02*
G75*
G02*
X137950000Y-46200000I800000J0D01*
G01*
X137150000Y-37400000D02*
G75*
G02*
X137950000Y-38200000I0J-800000D01*
G01*
X123950000Y-38200000D02*
G75*
G02*
X124750000Y-37400000I800000J0D01*
G01*
X124750000Y-51400000D02*
G75*
G02*
X123950000Y-50600000I0J800000D01*
G01*
X143000000Y-54750000D02*
X143000000Y-59150000D01*
X143800000Y-67950000D02*
X156200000Y-67950000D01*
X157000000Y-59150000D02*
X157000000Y-54750000D01*
X156200000Y-53950000D02*
X143800000Y-53950000D01*
X155400000Y-55550000D02*
X144600000Y-55550000D01*
X155400000Y-59150000D02*
X155400000Y-55550000D01*
X144600000Y-66350000D02*
X155400000Y-66350000D01*
X144600000Y-55550000D02*
X144600000Y-59150000D01*
X157000000Y-67150000D02*
X157000000Y-62750000D01*
X155400000Y-66350000D02*
X155400000Y-62750000D01*
X144600000Y-62750000D02*
X144600000Y-66350000D01*
X143000000Y-62750000D02*
X143000000Y-67150000D01*
X157000000Y-67150000D02*
G75*
G02*
X156200000Y-67950000I-800000J0D01*
G01*
X144600000Y-59150000D02*
G75*
G02*
X143000000Y-59150000I-800000J0D01*
G01*
X143000000Y-62750000D02*
G75*
G02*
X144600000Y-62750000I800000J0D01*
G01*
X157000000Y-59150000D02*
G75*
G02*
X155400000Y-59150000I-800000J0D01*
G01*
X155400000Y-62750000D02*
G75*
G02*
X157000000Y-62750000I800000J0D01*
G01*
X156200000Y-53950000D02*
G75*
G02*
X157000000Y-54750000I0J-800000D01*
G01*
X143000000Y-54750000D02*
G75*
G02*
X143800000Y-53950000I800000J0D01*
G01*
X143800000Y-67950000D02*
G75*
G02*
X143000000Y-67150000I0J800000D01*
G01*
X200150000Y-66250000D02*
X200150000Y-70650000D01*
X200950000Y-79450000D02*
X213350000Y-79450000D01*
X214150000Y-70650000D02*
X214150000Y-66250000D01*
X213350000Y-65450000D02*
X200950000Y-65450000D01*
X212550000Y-67050000D02*
X201750000Y-67050000D01*
X212550000Y-70650000D02*
X212550000Y-67050000D01*
X201750000Y-77850000D02*
X212550000Y-77850000D01*
X201750000Y-67050000D02*
X201750000Y-70650000D01*
X214150000Y-78650000D02*
X214150000Y-74250000D01*
X212550000Y-77850000D02*
X212550000Y-74250000D01*
X201750000Y-74250000D02*
X201750000Y-77850000D01*
X200150000Y-74250000D02*
X200150000Y-78650000D01*
X214150000Y-78650000D02*
G75*
G02*
X213350000Y-79450000I-800000J0D01*
G01*
X201750000Y-70650000D02*
G75*
G02*
X200150000Y-70650000I-800000J0D01*
G01*
X200150000Y-74250000D02*
G75*
G02*
X201750000Y-74250000I800000J0D01*
G01*
X214150000Y-70650000D02*
G75*
G02*
X212550000Y-70650000I-800000J0D01*
G01*
X212550000Y-74250000D02*
G75*
G02*
X214150000Y-74250000I800000J0D01*
G01*
X213350000Y-65450000D02*
G75*
G02*
X214150000Y-66250000I0J-800000D01*
G01*
X200150000Y-66250000D02*
G75*
G02*
X200950000Y-65450000I800000J0D01*
G01*
X200950000Y-79450000D02*
G75*
G02*
X200150000Y-78650000I0J800000D01*
G01*
X200150000Y-85300000D02*
X200150000Y-89700000D01*
X200950000Y-98500000D02*
X213350000Y-98500000D01*
X214150000Y-89700000D02*
X214150000Y-85300000D01*
X213350000Y-84500000D02*
X200950000Y-84500000D01*
X212550000Y-86100000D02*
X201750000Y-86100000D01*
X212550000Y-89700000D02*
X212550000Y-86100000D01*
X201750000Y-96900000D02*
X212550000Y-96900000D01*
X201750000Y-86100000D02*
X201750000Y-89700000D01*
X214150000Y-97700000D02*
X214150000Y-93300000D01*
X212550000Y-96900000D02*
X212550000Y-93300000D01*
X201750000Y-93300000D02*
X201750000Y-96900000D01*
X200150000Y-93300000D02*
X200150000Y-97700000D01*
X214150000Y-97700000D02*
G75*
G02*
X213350000Y-98500000I-800000J0D01*
G01*
X201750000Y-89700000D02*
G75*
G02*
X200150000Y-89700000I-800000J0D01*
G01*
X200150000Y-93300000D02*
G75*
G02*
X201750000Y-93300000I800000J0D01*
G01*
X214150000Y-89700000D02*
G75*
G02*
X212550000Y-89700000I-800000J0D01*
G01*
X212550000Y-93300000D02*
G75*
G02*
X214150000Y-93300000I800000J0D01*
G01*
X213350000Y-84500000D02*
G75*
G02*
X214150000Y-85300000I0J-800000D01*
G01*
X200150000Y-85300000D02*
G75*
G02*
X200950000Y-84500000I800000J0D01*
G01*
X200950000Y-98500000D02*
G75*
G02*
X200150000Y-97700000I0J800000D01*
G01*
X181100000Y-73300000D02*
X181100000Y-77700000D01*
X181900000Y-86500000D02*
X194300000Y-86500000D01*
X195100000Y-77700000D02*
X195100000Y-73300000D01*
X194300000Y-72500000D02*
X181900000Y-72500000D01*
X193500000Y-74100000D02*
X182700000Y-74100000D01*
X193500000Y-77700000D02*
X193500000Y-74100000D01*
X182700000Y-84900000D02*
X193500000Y-84900000D01*
X182700000Y-74100000D02*
X182700000Y-77700000D01*
X195100000Y-85700000D02*
X195100000Y-81300000D01*
X193500000Y-84900000D02*
X193500000Y-81300000D01*
X182700000Y-81300000D02*
X182700000Y-84900000D01*
X181100000Y-81300000D02*
X181100000Y-85700000D01*
X195100000Y-85700000D02*
G75*
G02*
X194300000Y-86500000I-800000J0D01*
G01*
X182700000Y-77700000D02*
G75*
G02*
X181100000Y-77700000I-800000J0D01*
G01*
X181100000Y-81300000D02*
G75*
G02*
X182700000Y-81300000I800000J0D01*
G01*
X195100000Y-77700000D02*
G75*
G02*
X193500000Y-77700000I-800000J0D01*
G01*
X193500000Y-81300000D02*
G75*
G02*
X195100000Y-81300000I800000J0D01*
G01*
X194300000Y-72500000D02*
G75*
G02*
X195100000Y-73300000I0J-800000D01*
G01*
X181100000Y-73300000D02*
G75*
G02*
X181900000Y-72500000I800000J0D01*
G01*
X181900000Y-86500000D02*
G75*
G02*
X181100000Y-85700000I0J800000D01*
G01*
X162050000Y-67300000D02*
X162050000Y-71700000D01*
X162850000Y-80500000D02*
X175250000Y-80500000D01*
X176050000Y-71700000D02*
X176050000Y-67300000D01*
X175250000Y-66500000D02*
X162850000Y-66500000D01*
X174450000Y-68100000D02*
X163650000Y-68100000D01*
X174450000Y-71700000D02*
X174450000Y-68100000D01*
X163650000Y-78900000D02*
X174450000Y-78900000D01*
X163650000Y-68100000D02*
X163650000Y-71700000D01*
X176050000Y-79700000D02*
X176050000Y-75300000D01*
X174450000Y-78900000D02*
X174450000Y-75300000D01*
X163650000Y-75300000D02*
X163650000Y-78900000D01*
X162050000Y-75300000D02*
X162050000Y-79700000D01*
X176050000Y-79700000D02*
G75*
G02*
X175250000Y-80500000I-800000J0D01*
G01*
X163650000Y-71700000D02*
G75*
G02*
X162050000Y-71700000I-800000J0D01*
G01*
X162050000Y-75300000D02*
G75*
G02*
X163650000Y-75300000I800000J0D01*
G01*
X176050000Y-71700000D02*
G75*
G02*
X174450000Y-71700000I-800000J0D01*
G01*
X174450000Y-75300000D02*
G75*
G02*
X176050000Y-75300000I800000J0D01*
G01*
X175250000Y-66500000D02*
G75*
G02*
X176050000Y-67300000I0J-800000D01*
G01*
X162050000Y-67300000D02*
G75*
G02*
X162850000Y-66500000I800000J0D01*
G01*
X162850000Y-80500000D02*
G75*
G02*
X162050000Y-79700000I0J800000D01*
G01*
X123950000Y-76300000D02*
X123950000Y-80700000D01*
X124750000Y-89500000D02*
X137150000Y-89500000D01*
X137950000Y-80700000D02*
X137950000Y-76300000D01*
X137150000Y-75500000D02*
X124750000Y-75500000D01*
X136350000Y-77100000D02*
X125550000Y-77100000D01*
X136350000Y-80700000D02*
X136350000Y-77100000D01*
X125550000Y-87900000D02*
X136350000Y-87900000D01*
X125550000Y-77100000D02*
X125550000Y-80700000D01*
X137950000Y-88700000D02*
X137950000Y-84300000D01*
X136350000Y-87900000D02*
X136350000Y-84300000D01*
X125550000Y-84300000D02*
X125550000Y-87900000D01*
X123950000Y-84300000D02*
X123950000Y-88700000D01*
X137950000Y-88700000D02*
G75*
G02*
X137150000Y-89500000I-800000J0D01*
G01*
X125550000Y-80700000D02*
G75*
G02*
X123950000Y-80700000I-800000J0D01*
G01*
X123950000Y-84300000D02*
G75*
G02*
X125550000Y-84300000I800000J0D01*
G01*
X137950000Y-80700000D02*
G75*
G02*
X136350000Y-80700000I-800000J0D01*
G01*
X136350000Y-84300000D02*
G75*
G02*
X137950000Y-84300000I800000J0D01*
G01*
X137150000Y-75500000D02*
G75*
G02*
X137950000Y-76300000I0J-800000D01*
G01*
X123950000Y-76300000D02*
G75*
G02*
X124750000Y-75500000I800000J0D01*
G01*
X124750000Y-89500000D02*
G75*
G02*
X123950000Y-88700000I0J800000D01*
G01*
X143000000Y-73800000D02*
X143000000Y-78200000D01*
X143800000Y-87000000D02*
X156200000Y-87000000D01*
X157000000Y-78200000D02*
X157000000Y-73800000D01*
X156200000Y-73000000D02*
X143800000Y-73000000D01*
X155400000Y-74600000D02*
X144600000Y-74600000D01*
X155400000Y-78200000D02*
X155400000Y-74600000D01*
X144600000Y-85400000D02*
X155400000Y-85400000D01*
X144600000Y-74600000D02*
X144600000Y-78200000D01*
X157000000Y-86200000D02*
X157000000Y-81800000D01*
X155400000Y-85400000D02*
X155400000Y-81800000D01*
X144600000Y-81800000D02*
X144600000Y-85400000D01*
X143000000Y-81800000D02*
X143000000Y-86200000D01*
X157000000Y-86200000D02*
G75*
G02*
X156200000Y-87000000I-800000J0D01*
G01*
X144600000Y-78200000D02*
G75*
G02*
X143000000Y-78200000I-800000J0D01*
G01*
X143000000Y-81800000D02*
G75*
G02*
X144600000Y-81800000I800000J0D01*
G01*
X157000000Y-78200000D02*
G75*
G02*
X155400000Y-78200000I-800000J0D01*
G01*
X155400000Y-81800000D02*
G75*
G02*
X157000000Y-81800000I800000J0D01*
G01*
X156200000Y-73000000D02*
G75*
G02*
X157000000Y-73800000I0J-800000D01*
G01*
X143000000Y-73800000D02*
G75*
G02*
X143800000Y-73000000I800000J0D01*
G01*
X143800000Y-87000000D02*
G75*
G02*
X143000000Y-86200000I0J800000D01*
G01*
X123950000Y-95350000D02*
X123950000Y-99750000D01*
X124750000Y-108550000D02*
X137150000Y-108550000D01*
X137950000Y-99750000D02*
X137950000Y-95350000D01*
X137150000Y-94550000D02*
X124750000Y-94550000D01*
X136350000Y-96150000D02*
X125550000Y-96150000D01*
X136350000Y-99750000D02*
X136350000Y-96150000D01*
X125550000Y-106950000D02*
X136350000Y-106950000D01*
X125550000Y-96150000D02*
X125550000Y-99750000D01*
X137950000Y-107750000D02*
X137950000Y-103350000D01*
X136350000Y-106950000D02*
X136350000Y-103350000D01*
X125550000Y-103350000D02*
X125550000Y-106950000D01*
X123950000Y-103350000D02*
X123950000Y-107750000D01*
X137950000Y-107750000D02*
G75*
G02*
X137150000Y-108550000I-800000J0D01*
G01*
X125550000Y-99750000D02*
G75*
G02*
X123950000Y-99750000I-800000J0D01*
G01*
X123950000Y-103350000D02*
G75*
G02*
X125550000Y-103350000I800000J0D01*
G01*
X137950000Y-99750000D02*
G75*
G02*
X136350000Y-99750000I-800000J0D01*
G01*
X136350000Y-103350000D02*
G75*
G02*
X137950000Y-103350000I800000J0D01*
G01*
X137150000Y-94550000D02*
G75*
G02*
X137950000Y-95350000I0J-800000D01*
G01*
X123950000Y-95350000D02*
G75*
G02*
X124750000Y-94550000I800000J0D01*
G01*
X124750000Y-108550000D02*
G75*
G02*
X123950000Y-107750000I0J800000D01*
G01*
X123950000Y-57250000D02*
X123950000Y-61650000D01*
X124750000Y-70450000D02*
X137150000Y-70450000D01*
X137950000Y-61650000D02*
X137950000Y-57250000D01*
X137150000Y-56450000D02*
X124750000Y-56450000D01*
X136350000Y-58050000D02*
X125550000Y-58050000D01*
X136350000Y-61650000D02*
X136350000Y-58050000D01*
X125550000Y-68850000D02*
X136350000Y-68850000D01*
X125550000Y-58050000D02*
X125550000Y-61650000D01*
X137950000Y-69650000D02*
X137950000Y-65250000D01*
X136350000Y-68850000D02*
X136350000Y-65250000D01*
X125550000Y-65250000D02*
X125550000Y-68850000D01*
X123950000Y-65250000D02*
X123950000Y-69650000D01*
X137950000Y-69650000D02*
G75*
G02*
X137150000Y-70450000I-800000J0D01*
G01*
X125550000Y-61650000D02*
G75*
G02*
X123950000Y-61650000I-800000J0D01*
G01*
X123950000Y-65250000D02*
G75*
G02*
X125550000Y-65250000I800000J0D01*
G01*
X137950000Y-61650000D02*
G75*
G02*
X136350000Y-61650000I-800000J0D01*
G01*
X136350000Y-65250000D02*
G75*
G02*
X137950000Y-65250000I800000J0D01*
G01*
X137150000Y-56450000D02*
G75*
G02*
X137950000Y-57250000I0J-800000D01*
G01*
X123950000Y-57250000D02*
G75*
G02*
X124750000Y-56450000I800000J0D01*
G01*
X124750000Y-70450000D02*
G75*
G02*
X123950000Y-69650000I0J800000D01*
G01*
X143000000Y-35700000D02*
X143000000Y-40100000D01*
X143800000Y-48900000D02*
X156200000Y-48900000D01*
X157000000Y-40100000D02*
X157000000Y-35700000D01*
X156200000Y-34900000D02*
X143800000Y-34900000D01*
X155400000Y-36500000D02*
X144600000Y-36500000D01*
X155400000Y-40100000D02*
X155400000Y-36500000D01*
X144600000Y-47300000D02*
X155400000Y-47300000D01*
X144600000Y-36500000D02*
X144600000Y-40100000D01*
X157000000Y-48100000D02*
X157000000Y-43700000D01*
X155400000Y-47300000D02*
X155400000Y-43700000D01*
X144600000Y-43700000D02*
X144600000Y-47300000D01*
X143000000Y-43700000D02*
X143000000Y-48100000D01*
X157000000Y-48100000D02*
G75*
G02*
X156200000Y-48900000I-800000J0D01*
G01*
X144600000Y-40100000D02*
G75*
G02*
X143000000Y-40100000I-800000J0D01*
G01*
X143000000Y-43700000D02*
G75*
G02*
X144600000Y-43700000I800000J0D01*
G01*
X157000000Y-40100000D02*
G75*
G02*
X155400000Y-40100000I-800000J0D01*
G01*
X155400000Y-43700000D02*
G75*
G02*
X157000000Y-43700000I800000J0D01*
G01*
X156200000Y-34900000D02*
G75*
G02*
X157000000Y-35700000I0J-800000D01*
G01*
X143000000Y-35700000D02*
G75*
G02*
X143800000Y-34900000I800000J0D01*
G01*
X143800000Y-48900000D02*
G75*
G02*
X143000000Y-48100000I0J800000D01*
G01*
X162050000Y-86350000D02*
X162050000Y-90750000D01*
X162850000Y-99550000D02*
X175250000Y-99550000D01*
X176050000Y-90750000D02*
X176050000Y-86350000D01*
X175250000Y-85550000D02*
X162850000Y-85550000D01*
X174450000Y-87150000D02*
X163650000Y-87150000D01*
X174450000Y-90750000D02*
X174450000Y-87150000D01*
X163650000Y-97950000D02*
X174450000Y-97950000D01*
X163650000Y-87150000D02*
X163650000Y-90750000D01*
X176050000Y-98750000D02*
X176050000Y-94350000D01*
X174450000Y-97950000D02*
X174450000Y-94350000D01*
X163650000Y-94350000D02*
X163650000Y-97950000D01*
X162050000Y-94350000D02*
X162050000Y-98750000D01*
X176050000Y-98750000D02*
G75*
G02*
X175250000Y-99550000I-800000J0D01*
G01*
X163650000Y-90750000D02*
G75*
G02*
X162050000Y-90750000I-800000J0D01*
G01*
X162050000Y-94350000D02*
G75*
G02*
X163650000Y-94350000I800000J0D01*
G01*
X176050000Y-90750000D02*
G75*
G02*
X174450000Y-90750000I-800000J0D01*
G01*
X174450000Y-94350000D02*
G75*
G02*
X176050000Y-94350000I800000J0D01*
G01*
X175250000Y-85550000D02*
G75*
G02*
X176050000Y-86350000I0J-800000D01*
G01*
X162050000Y-86350000D02*
G75*
G02*
X162850000Y-85550000I800000J0D01*
G01*
X162850000Y-99550000D02*
G75*
G02*
X162050000Y-98750000I0J800000D01*
G01*
X162050000Y-48250000D02*
X162050000Y-52650000D01*
X162850000Y-61450000D02*
X175250000Y-61450000D01*
X176050000Y-52650000D02*
X176050000Y-48250000D01*
X175250000Y-47450000D02*
X162850000Y-47450000D01*
X174450000Y-49050000D02*
X163650000Y-49050000D01*
X174450000Y-52650000D02*
X174450000Y-49050000D01*
X163650000Y-59850000D02*
X174450000Y-59850000D01*
X163650000Y-49050000D02*
X163650000Y-52650000D01*
X176050000Y-60650000D02*
X176050000Y-56250000D01*
X174450000Y-59850000D02*
X174450000Y-56250000D01*
X163650000Y-56250000D02*
X163650000Y-59850000D01*
X162050000Y-56250000D02*
X162050000Y-60650000D01*
X176050000Y-60650000D02*
G75*
G02*
X175250000Y-61450000I-800000J0D01*
G01*
X163650000Y-52650000D02*
G75*
G02*
X162050000Y-52650000I-800000J0D01*
G01*
X162050000Y-56250000D02*
G75*
G02*
X163650000Y-56250000I800000J0D01*
G01*
X176050000Y-52650000D02*
G75*
G02*
X174450000Y-52650000I-800000J0D01*
G01*
X174450000Y-56250000D02*
G75*
G02*
X176050000Y-56250000I800000J0D01*
G01*
X175250000Y-47450000D02*
G75*
G02*
X176050000Y-48250000I0J-800000D01*
G01*
X162050000Y-48250000D02*
G75*
G02*
X162850000Y-47450000I800000J0D01*
G01*
X162850000Y-61450000D02*
G75*
G02*
X162050000Y-60650000I0J800000D01*
G01*
X162050000Y-29200000D02*
X162050000Y-33600000D01*
X162850000Y-42400000D02*
X175250000Y-42400000D01*
X176050000Y-33600000D02*
X176050000Y-29200000D01*
X175250000Y-28400000D02*
X162850000Y-28400000D01*
X174450000Y-30000000D02*
X163650000Y-30000000D01*
X174450000Y-33600000D02*
X174450000Y-30000000D01*
X163650000Y-40800000D02*
X174450000Y-40800000D01*
X163650000Y-30000000D02*
X163650000Y-33600000D01*
X176050000Y-41600000D02*
X176050000Y-37200000D01*
X174450000Y-40800000D02*
X174450000Y-37200000D01*
X163650000Y-37200000D02*
X163650000Y-40800000D01*
X162050000Y-37200000D02*
X162050000Y-41600000D01*
X176050000Y-41600000D02*
G75*
G02*
X175250000Y-42400000I-800000J0D01*
G01*
X163650000Y-33600000D02*
G75*
G02*
X162050000Y-33600000I-800000J0D01*
G01*
X162050000Y-37200000D02*
G75*
G02*
X163650000Y-37200000I800000J0D01*
G01*
X176050000Y-33600000D02*
G75*
G02*
X174450000Y-33600000I-800000J0D01*
G01*
X174450000Y-37200000D02*
G75*
G02*
X176050000Y-37200000I800000J0D01*
G01*
X175250000Y-28400000D02*
G75*
G02*
X176050000Y-29200000I0J-800000D01*
G01*
X162050000Y-29200000D02*
G75*
G02*
X162850000Y-28400000I800000J0D01*
G01*
X162850000Y-42400000D02*
G75*
G02*
X162050000Y-41600000I0J800000D01*
G01*
X181100000Y-92350000D02*
X181100000Y-96750000D01*
X181900000Y-105550000D02*
X194300000Y-105550000D01*
X195100000Y-96750000D02*
X195100000Y-92350000D01*
X194300000Y-91550000D02*
X181900000Y-91550000D01*
X193500000Y-93150000D02*
X182700000Y-93150000D01*
X193500000Y-96750000D02*
X193500000Y-93150000D01*
X182700000Y-103950000D02*
X193500000Y-103950000D01*
X182700000Y-93150000D02*
X182700000Y-96750000D01*
X195100000Y-104750000D02*
X195100000Y-100350000D01*
X193500000Y-103950000D02*
X193500000Y-100350000D01*
X182700000Y-100350000D02*
X182700000Y-103950000D01*
X181100000Y-100350000D02*
X181100000Y-104750000D01*
X195100000Y-104750000D02*
G75*
G02*
X194300000Y-105550000I-800000J0D01*
G01*
X182700000Y-96750000D02*
G75*
G02*
X181100000Y-96750000I-800000J0D01*
G01*
X181100000Y-100350000D02*
G75*
G02*
X182700000Y-100350000I800000J0D01*
G01*
X195100000Y-96750000D02*
G75*
G02*
X193500000Y-96750000I-800000J0D01*
G01*
X193500000Y-100350000D02*
G75*
G02*
X195100000Y-100350000I800000J0D01*
G01*
X194300000Y-91550000D02*
G75*
G02*
X195100000Y-92350000I0J-800000D01*
G01*
X181100000Y-92350000D02*
G75*
G02*
X181900000Y-91550000I800000J0D01*
G01*
X181900000Y-105550000D02*
G75*
G02*
X181100000Y-104750000I0J800000D01*
G01*
X181100000Y-54250000D02*
X181100000Y-58650000D01*
X181900000Y-67450000D02*
X194300000Y-67450000D01*
X195100000Y-58650000D02*
X195100000Y-54250000D01*
X194300000Y-53450000D02*
X181900000Y-53450000D01*
X193500000Y-55050000D02*
X182700000Y-55050000D01*
X193500000Y-58650000D02*
X193500000Y-55050000D01*
X182700000Y-65850000D02*
X193500000Y-65850000D01*
X182700000Y-55050000D02*
X182700000Y-58650000D01*
X195100000Y-66650000D02*
X195100000Y-62250000D01*
X193500000Y-65850000D02*
X193500000Y-62250000D01*
X182700000Y-62250000D02*
X182700000Y-65850000D01*
X181100000Y-62250000D02*
X181100000Y-66650000D01*
X195100000Y-66650000D02*
G75*
G02*
X194300000Y-67450000I-800000J0D01*
G01*
X182700000Y-58650000D02*
G75*
G02*
X181100000Y-58650000I-800000J0D01*
G01*
X181100000Y-62250000D02*
G75*
G02*
X182700000Y-62250000I800000J0D01*
G01*
X195100000Y-58650000D02*
G75*
G02*
X193500000Y-58650000I-800000J0D01*
G01*
X193500000Y-62250000D02*
G75*
G02*
X195100000Y-62250000I800000J0D01*
G01*
X194300000Y-53450000D02*
G75*
G02*
X195100000Y-54250000I0J-800000D01*
G01*
X181100000Y-54250000D02*
G75*
G02*
X181900000Y-53450000I800000J0D01*
G01*
X181900000Y-67450000D02*
G75*
G02*
X181100000Y-66650000I0J800000D01*
G01*
X181100000Y-35200000D02*
X181100000Y-39600000D01*
X181900000Y-48400000D02*
X194300000Y-48400000D01*
X195100000Y-39600000D02*
X195100000Y-35200000D01*
X194300000Y-34400000D02*
X181900000Y-34400000D01*
X193500000Y-36000000D02*
X182700000Y-36000000D01*
X193500000Y-39600000D02*
X193500000Y-36000000D01*
X182700000Y-46800000D02*
X193500000Y-46800000D01*
X182700000Y-36000000D02*
X182700000Y-39600000D01*
X195100000Y-47600000D02*
X195100000Y-43200000D01*
X193500000Y-46800000D02*
X193500000Y-43200000D01*
X182700000Y-43200000D02*
X182700000Y-46800000D01*
X181100000Y-43200000D02*
X181100000Y-47600000D01*
X195100000Y-47600000D02*
G75*
G02*
X194300000Y-48400000I-800000J0D01*
G01*
X182700000Y-39600000D02*
G75*
G02*
X181100000Y-39600000I-800000J0D01*
G01*
X181100000Y-43200000D02*
G75*
G02*
X182700000Y-43200000I800000J0D01*
G01*
X195100000Y-39600000D02*
G75*
G02*
X193500000Y-39600000I-800000J0D01*
G01*
X193500000Y-43200000D02*
G75*
G02*
X195100000Y-43200000I800000J0D01*
G01*
X194300000Y-34400000D02*
G75*
G02*
X195100000Y-35200000I0J-800000D01*
G01*
X181100000Y-35200000D02*
G75*
G02*
X181900000Y-34400000I800000J0D01*
G01*
X181900000Y-48400000D02*
G75*
G02*
X181100000Y-47600000I0J800000D01*
G01*
X200150000Y-104350000D02*
X200150000Y-108750000D01*
X200950000Y-117550000D02*
X213350000Y-117550000D01*
X214150000Y-108750000D02*
X214150000Y-104350000D01*
X213350000Y-103550000D02*
X200950000Y-103550000D01*
X212550000Y-105150000D02*
X201750000Y-105150000D01*
X212550000Y-108750000D02*
X212550000Y-105150000D01*
X201750000Y-115950000D02*
X212550000Y-115950000D01*
X201750000Y-105150000D02*
X201750000Y-108750000D01*
X214150000Y-116750000D02*
X214150000Y-112350000D01*
X212550000Y-115950000D02*
X212550000Y-112350000D01*
X201750000Y-112350000D02*
X201750000Y-115950000D01*
X200150000Y-112350000D02*
X200150000Y-116750000D01*
X214150000Y-116750000D02*
G75*
G02*
X213350000Y-117550000I-800000J0D01*
G01*
X201750000Y-108750000D02*
G75*
G02*
X200150000Y-108750000I-800000J0D01*
G01*
X200150000Y-112350000D02*
G75*
G02*
X201750000Y-112350000I800000J0D01*
G01*
X214150000Y-108750000D02*
G75*
G02*
X212550000Y-108750000I-800000J0D01*
G01*
X212550000Y-112350000D02*
G75*
G02*
X214150000Y-112350000I800000J0D01*
G01*
X213350000Y-103550000D02*
G75*
G02*
X214150000Y-104350000I0J-800000D01*
G01*
X200150000Y-104350000D02*
G75*
G02*
X200950000Y-103550000I800000J0D01*
G01*
X200950000Y-117550000D02*
G75*
G02*
X200150000Y-116750000I0J800000D01*
G01*
X200150000Y-47200000D02*
X200150000Y-51600000D01*
X200950000Y-60400000D02*
X213350000Y-60400000D01*
X214150000Y-51600000D02*
X214150000Y-47200000D01*
X213350000Y-46400000D02*
X200950000Y-46400000D01*
X212550000Y-48000000D02*
X201750000Y-48000000D01*
X212550000Y-51600000D02*
X212550000Y-48000000D01*
X201750000Y-58800000D02*
X212550000Y-58800000D01*
X201750000Y-48000000D02*
X201750000Y-51600000D01*
X214150000Y-59600000D02*
X214150000Y-55200000D01*
X212550000Y-58800000D02*
X212550000Y-55200000D01*
X201750000Y-55200000D02*
X201750000Y-58800000D01*
X200150000Y-55200000D02*
X200150000Y-59600000D01*
X214150000Y-59600000D02*
G75*
G02*
X213350000Y-60400000I-800000J0D01*
G01*
X201750000Y-51600000D02*
G75*
G02*
X200150000Y-51600000I-800000J0D01*
G01*
X200150000Y-55200000D02*
G75*
G02*
X201750000Y-55200000I800000J0D01*
G01*
X214150000Y-51600000D02*
G75*
G02*
X212550000Y-51600000I-800000J0D01*
G01*
X212550000Y-55200000D02*
G75*
G02*
X214150000Y-55200000I800000J0D01*
G01*
X213350000Y-46400000D02*
G75*
G02*
X214150000Y-47200000I0J-800000D01*
G01*
X200150000Y-47200000D02*
G75*
G02*
X200950000Y-46400000I800000J0D01*
G01*
X200950000Y-60400000D02*
G75*
G02*
X200150000Y-59600000I0J800000D01*
G01*
X143000000Y-92850000D02*
X143000000Y-97250000D01*
X143800000Y-106050000D02*
X156200000Y-106050000D01*
X157000000Y-97250000D02*
X157000000Y-92850000D01*
X156200000Y-92050000D02*
X143800000Y-92050000D01*
X155400000Y-93650000D02*
X144600000Y-93650000D01*
X155400000Y-97250000D02*
X155400000Y-93650000D01*
X144600000Y-104450000D02*
X155400000Y-104450000D01*
X144600000Y-93650000D02*
X144600000Y-97250000D01*
X157000000Y-105250000D02*
X157000000Y-100850000D01*
X155400000Y-104450000D02*
X155400000Y-100850000D01*
X144600000Y-100850000D02*
X144600000Y-104450000D01*
X143000000Y-100850000D02*
X143000000Y-105250000D01*
X157000000Y-105250000D02*
G75*
G02*
X156200000Y-106050000I-800000J0D01*
G01*
X144600000Y-97250000D02*
G75*
G02*
X143000000Y-97250000I-800000J0D01*
G01*
X143000000Y-100850000D02*
G75*
G02*
X144600000Y-100850000I800000J0D01*
G01*
X157000000Y-97250000D02*
G75*
G02*
X155400000Y-97250000I-800000J0D01*
G01*
X155400000Y-100850000D02*
G75*
G02*
X157000000Y-100850000I800000J0D01*
G01*
X156200000Y-92050000D02*
G75*
G02*
X157000000Y-92850000I0J-800000D01*
G01*
X143000000Y-92850000D02*
G75*
G02*
X143800000Y-92050000I800000J0D01*
G01*
X143800000Y-106050000D02*
G75*
G02*
X143000000Y-105250000I0J800000D01*
G01*
D10*
X116800000Y-66727500D02*
X107000000Y-66727500D01*
X107000000Y-66727500D02*
X107000000Y-60187500D01*
X116800000Y-30927500D02*
X116800000Y-41587500D01*
X107000000Y-30927500D02*
X116800000Y-30927500D01*
X106200000Y-29327500D02*
X117600000Y-29327500D01*
X118400000Y-45187500D02*
X118400000Y-67527500D01*
X117600000Y-68327500D02*
X106200000Y-68327500D01*
X105400000Y-67527500D02*
X105400000Y-60187500D01*
X107000000Y-56587500D02*
X107000000Y-30927500D01*
X105400000Y-56587500D02*
X105400000Y-30127500D01*
X118400000Y-30127500D02*
X118400000Y-41587500D01*
X116800000Y-45187500D02*
X116800000Y-66727500D01*
X105400000Y-60187500D02*
G75*
G02*
X107000000Y-60187500I800000J0D01*
G01*
X107000000Y-56587500D02*
G75*
G02*
X105400000Y-56587500I-800000J0D01*
G01*
X116800000Y-45187500D02*
G75*
G02*
X118400000Y-45187500I800000J0D01*
G01*
X118400000Y-41587500D02*
G75*
G02*
X116800000Y-41587500I-800000J0D01*
G01*
X118400000Y-67527500D02*
G75*
G02*
X117600000Y-68327500I-800000J0D01*
G01*
X106200000Y-68327500D02*
G75*
G02*
X105400000Y-67527500I0J800000D01*
G01*
X105400000Y-30127500D02*
G75*
G02*
X106200000Y-29327500I800000J0D01*
G01*
X117600000Y-29327500D02*
G75*
G02*
X118400000Y-30127500I0J-800000D01*
G01*
M02*
