%TF.GenerationSoftware,KiCad,Pcbnew,5.1.12-84ad8e8a86~92~ubuntu20.04.1*%
%TF.CreationDate,2021-11-14T16:01:40+01:00*%
%TF.ProjectId,Lergo,4c657267-6f2e-46b6-9963-61645f706362,v1.A*%
%TF.SameCoordinates,Original*%
%TF.FileFunction,Soldermask,Bot*%
%TF.FilePolarity,Negative*%
%FSLAX46Y46*%
G04 Gerber Fmt 4.6, Leading zero omitted, Abs format (unit mm)*
G04 Created by KiCad (PCBNEW 5.1.12-84ad8e8a86~92~ubuntu20.04.1) date 2021-11-14 16:01:40*
%MOMM*%
%LPD*%
G01*
G04 APERTURE LIST*
%ADD10C,1.500000*%
%ADD11C,3.100000*%
%ADD12C,1.800000*%
%ADD13C,4.100000*%
%ADD14C,2.100000*%
%ADD15O,2.350000X2.500000*%
%ADD16C,1.950000*%
%ADD17O,2.150000X2.500000*%
%ADD18O,1.950000X2.225000*%
%ADD19O,1.500000X1.500000*%
%ADD20C,0.900000*%
%ADD21C,1.100000*%
%ADD22C,1.700000*%
%ADD23C,1.600000*%
%ADD24O,1.800000X2.100000*%
%ADD25C,1.300000*%
%ADD26C,0.150000*%
G04 APERTURE END LIST*
G36*
G01*
X124543750Y-121600000D02*
X124543750Y-123000000D01*
G75*
G02*
X124493750Y-123050000I-50000J0D01*
G01*
X123093750Y-123050000D01*
G75*
G02*
X123043750Y-123000000I0J50000D01*
G01*
X123043750Y-121600000D01*
G75*
G02*
X123093750Y-121550000I50000J0D01*
G01*
X124493750Y-121550000D01*
G75*
G02*
X124543750Y-121600000I0J-50000D01*
G01*
G37*
G36*
G01*
X133118750Y-109776800D02*
X133118750Y-108823200D01*
G75*
G02*
X133416950Y-108525000I298200J0D01*
G01*
X134220550Y-108525000D01*
G75*
G02*
X134518750Y-108823200I0J-298200D01*
G01*
X134518750Y-109776800D01*
G75*
G02*
X134220550Y-110075000I-298200J0D01*
G01*
X133416950Y-110075000D01*
G75*
G02*
X133118750Y-109776800I0J298200D01*
G01*
G37*
G36*
G01*
X135068750Y-109776800D02*
X135068750Y-108823200D01*
G75*
G02*
X135366950Y-108525000I298200J0D01*
G01*
X136170550Y-108525000D01*
G75*
G02*
X136468750Y-108823200I0J-298200D01*
G01*
X136468750Y-109776800D01*
G75*
G02*
X136170550Y-110075000I-298200J0D01*
G01*
X135366950Y-110075000D01*
G75*
G02*
X135068750Y-109776800I0J298200D01*
G01*
G37*
G36*
G01*
X128993750Y-105825000D02*
X128993750Y-106775000D01*
G75*
G02*
X128943750Y-106825000I-50000J0D01*
G01*
X127743750Y-106825000D01*
G75*
G02*
X127693750Y-106775000I0J50000D01*
G01*
X127693750Y-105825000D01*
G75*
G02*
X127743750Y-105775000I50000J0D01*
G01*
X128943750Y-105775000D01*
G75*
G02*
X128993750Y-105825000I0J-50000D01*
G01*
G37*
D10*
X123443750Y-106300000D03*
G36*
G01*
X125543750Y-105825000D02*
X125543750Y-106775000D01*
G75*
G02*
X125493750Y-106825000I-50000J0D01*
G01*
X124293750Y-106825000D01*
G75*
G02*
X124243750Y-106775000I0J50000D01*
G01*
X124243750Y-105825000D01*
G75*
G02*
X124293750Y-105775000I50000J0D01*
G01*
X125493750Y-105775000D01*
G75*
G02*
X125543750Y-105825000I0J-50000D01*
G01*
G37*
G36*
G01*
X130543750Y-105600000D02*
X130543750Y-107000000D01*
G75*
G02*
X130493750Y-107050000I-50000J0D01*
G01*
X129093750Y-107050000D01*
G75*
G02*
X129043750Y-107000000I0J50000D01*
G01*
X129043750Y-105600000D01*
G75*
G02*
X129093750Y-105550000I50000J0D01*
G01*
X130493750Y-105550000D01*
G75*
G02*
X130543750Y-105600000I0J-50000D01*
G01*
G37*
D11*
X125253750Y-118110000D03*
D12*
X127793750Y-119380000D03*
X127793750Y-109220000D03*
D13*
X127793750Y-114300000D03*
D11*
X122713750Y-111760000D03*
G36*
G01*
X123963750Y-109550000D02*
X121463750Y-109550000D01*
G75*
G02*
X121413750Y-109500000I0J50000D01*
G01*
X121413750Y-106950000D01*
G75*
G02*
X121463750Y-106900000I50000J0D01*
G01*
X123963750Y-106900000D01*
G75*
G02*
X124013750Y-106950000I0J-50000D01*
G01*
X124013750Y-109500000D01*
G75*
G02*
X123963750Y-109550000I-50000J0D01*
G01*
G37*
G36*
G01*
X126503750Y-123000000D02*
X124003750Y-123000000D01*
G75*
G02*
X123953750Y-122950000I0J50000D01*
G01*
X123953750Y-120400000D01*
G75*
G02*
X124003750Y-120350000I50000J0D01*
G01*
X126503750Y-120350000D01*
G75*
G02*
X126553750Y-120400000I0J-50000D01*
G01*
X126553750Y-122950000D01*
G75*
G02*
X126503750Y-123000000I-50000J0D01*
G01*
G37*
G36*
G01*
X134543750Y-121600000D02*
X134543750Y-123000000D01*
G75*
G02*
X134493750Y-123050000I-50000J0D01*
G01*
X133093750Y-123050000D01*
G75*
G02*
X133043750Y-123000000I0J50000D01*
G01*
X133043750Y-121600000D01*
G75*
G02*
X133093750Y-121550000I50000J0D01*
G01*
X134493750Y-121550000D01*
G75*
G02*
X134543750Y-121600000I0J-50000D01*
G01*
G37*
G36*
G01*
X134543750Y-105600000D02*
X134543750Y-107000000D01*
G75*
G02*
X134493750Y-107050000I-50000J0D01*
G01*
X133093750Y-107050000D01*
G75*
G02*
X133043750Y-107000000I0J50000D01*
G01*
X133043750Y-105600000D01*
G75*
G02*
X133093750Y-105550000I50000J0D01*
G01*
X134493750Y-105550000D01*
G75*
G02*
X134543750Y-105600000I0J-50000D01*
G01*
G37*
G36*
G01*
X120543750Y-117600000D02*
X120543750Y-119000000D01*
G75*
G02*
X120493750Y-119050000I-50000J0D01*
G01*
X119093750Y-119050000D01*
G75*
G02*
X119043750Y-119000000I0J50000D01*
G01*
X119043750Y-117600000D01*
G75*
G02*
X119093750Y-117550000I50000J0D01*
G01*
X120493750Y-117550000D01*
G75*
G02*
X120543750Y-117600000I0J-50000D01*
G01*
G37*
G36*
G01*
X120543750Y-109600000D02*
X120543750Y-111000000D01*
G75*
G02*
X120493750Y-111050000I-50000J0D01*
G01*
X119093750Y-111050000D01*
G75*
G02*
X119043750Y-111000000I0J50000D01*
G01*
X119043750Y-109600000D01*
G75*
G02*
X119093750Y-109550000I50000J0D01*
G01*
X120493750Y-109550000D01*
G75*
G02*
X120543750Y-109600000I0J-50000D01*
G01*
G37*
G36*
G01*
X128543750Y-121600000D02*
X128543750Y-123000000D01*
G75*
G02*
X128493750Y-123050000I-50000J0D01*
G01*
X127093750Y-123050000D01*
G75*
G02*
X127043750Y-123000000I0J50000D01*
G01*
X127043750Y-121600000D01*
G75*
G02*
X127093750Y-121550000I50000J0D01*
G01*
X128493750Y-121550000D01*
G75*
G02*
X128543750Y-121600000I0J-50000D01*
G01*
G37*
G36*
G01*
X132543750Y-121600000D02*
X132543750Y-123000000D01*
G75*
G02*
X132493750Y-123050000I-50000J0D01*
G01*
X131093750Y-123050000D01*
G75*
G02*
X131043750Y-123000000I0J50000D01*
G01*
X131043750Y-121600000D01*
G75*
G02*
X131093750Y-121550000I50000J0D01*
G01*
X132493750Y-121550000D01*
G75*
G02*
X132543750Y-121600000I0J-50000D01*
G01*
G37*
G36*
G01*
X132543750Y-105600000D02*
X132543750Y-107000000D01*
G75*
G02*
X132493750Y-107050000I-50000J0D01*
G01*
X131093750Y-107050000D01*
G75*
G02*
X131043750Y-107000000I0J50000D01*
G01*
X131043750Y-105600000D01*
G75*
G02*
X131093750Y-105550000I50000J0D01*
G01*
X132493750Y-105550000D01*
G75*
G02*
X132543750Y-105600000I0J-50000D01*
G01*
G37*
G36*
G01*
X136543750Y-113600000D02*
X136543750Y-115000000D01*
G75*
G02*
X136493750Y-115050000I-50000J0D01*
G01*
X135093750Y-115050000D01*
G75*
G02*
X135043750Y-115000000I0J50000D01*
G01*
X135043750Y-113600000D01*
G75*
G02*
X135093750Y-113550000I50000J0D01*
G01*
X136493750Y-113550000D01*
G75*
G02*
X136543750Y-113600000I0J-50000D01*
G01*
G37*
G36*
G01*
X120543750Y-113600000D02*
X120543750Y-115000000D01*
G75*
G02*
X120493750Y-115050000I-50000J0D01*
G01*
X119093750Y-115050000D01*
G75*
G02*
X119043750Y-115000000I0J50000D01*
G01*
X119043750Y-113600000D01*
G75*
G02*
X119093750Y-113550000I50000J0D01*
G01*
X120493750Y-113550000D01*
G75*
G02*
X120543750Y-113600000I0J-50000D01*
G01*
G37*
G36*
G01*
X133123750Y-116250000D02*
X134123750Y-116250000D01*
G75*
G02*
X134173750Y-116300000I0J-50000D01*
G01*
X134173750Y-117700000D01*
G75*
G02*
X134123750Y-117750000I-50000J0D01*
G01*
X133123750Y-117750000D01*
G75*
G02*
X133073750Y-117700000I0J50000D01*
G01*
X133073750Y-116300000D01*
G75*
G02*
X133123750Y-116250000I50000J0D01*
G01*
G37*
G36*
G01*
X131623750Y-116250000D02*
X132623750Y-116250000D01*
G75*
G02*
X132673750Y-116300000I0J-50000D01*
G01*
X132673750Y-117700000D01*
G75*
G02*
X132623750Y-117750000I-50000J0D01*
G01*
X131623750Y-117750000D01*
G75*
G02*
X131573750Y-117700000I0J50000D01*
G01*
X131573750Y-116300000D01*
G75*
G02*
X131623750Y-116250000I50000J0D01*
G01*
G37*
G36*
G01*
X131623750Y-110850000D02*
X132623750Y-110850000D01*
G75*
G02*
X132673750Y-110900000I0J-50000D01*
G01*
X132673750Y-112300000D01*
G75*
G02*
X132623750Y-112350000I-50000J0D01*
G01*
X131623750Y-112350000D01*
G75*
G02*
X131573750Y-112300000I0J50000D01*
G01*
X131573750Y-110900000D01*
G75*
G02*
X131623750Y-110850000I50000J0D01*
G01*
G37*
G36*
G01*
X133123750Y-110850000D02*
X134123750Y-110850000D01*
G75*
G02*
X134173750Y-110900000I0J-50000D01*
G01*
X134173750Y-112300000D01*
G75*
G02*
X134123750Y-112350000I-50000J0D01*
G01*
X133123750Y-112350000D01*
G75*
G02*
X133073750Y-112300000I0J50000D01*
G01*
X133073750Y-110900000D01*
G75*
G02*
X133123750Y-110850000I50000J0D01*
G01*
G37*
D14*
X120870000Y-133350000D03*
X134717500Y-133350000D03*
X137318750Y-130748750D03*
X137318750Y-97851250D03*
X118268750Y-97851250D03*
X118268750Y-130748750D03*
X118268750Y-78801250D03*
X118268750Y-92648750D03*
X134717500Y-95250000D03*
X120870000Y-95250000D03*
G36*
G01*
X120493750Y-82475000D02*
X119093750Y-82475000D01*
G75*
G02*
X119043750Y-82425000I0J50000D01*
G01*
X119043750Y-81025000D01*
G75*
G02*
X119093750Y-80975000I50000J0D01*
G01*
X120493750Y-80975000D01*
G75*
G02*
X120543750Y-81025000I0J-50000D01*
G01*
X120543750Y-82425000D01*
G75*
G02*
X120493750Y-82475000I-50000J0D01*
G01*
G37*
G36*
G01*
X136268750Y-86925000D02*
X135318750Y-86925000D01*
G75*
G02*
X135268750Y-86875000I0J50000D01*
G01*
X135268750Y-85675000D01*
G75*
G02*
X135318750Y-85625000I50000J0D01*
G01*
X136268750Y-85625000D01*
G75*
G02*
X136318750Y-85675000I0J-50000D01*
G01*
X136318750Y-86875000D01*
G75*
G02*
X136268750Y-86925000I-50000J0D01*
G01*
G37*
D10*
X135793750Y-81375000D03*
G36*
G01*
X136268750Y-83475000D02*
X135318750Y-83475000D01*
G75*
G02*
X135268750Y-83425000I0J50000D01*
G01*
X135268750Y-82225000D01*
G75*
G02*
X135318750Y-82175000I50000J0D01*
G01*
X136268750Y-82175000D01*
G75*
G02*
X136318750Y-82225000I0J-50000D01*
G01*
X136318750Y-83425000D01*
G75*
G02*
X136268750Y-83475000I-50000J0D01*
G01*
G37*
G36*
G01*
X136493750Y-88475000D02*
X135093750Y-88475000D01*
G75*
G02*
X135043750Y-88425000I0J50000D01*
G01*
X135043750Y-87025000D01*
G75*
G02*
X135093750Y-86975000I50000J0D01*
G01*
X136493750Y-86975000D01*
G75*
G02*
X136543750Y-87025000I0J-50000D01*
G01*
X136543750Y-88425000D01*
G75*
G02*
X136493750Y-88475000I-50000J0D01*
G01*
G37*
D11*
X123983750Y-83185000D03*
D12*
X122713750Y-85725000D03*
X132873750Y-85725000D03*
D13*
X127793750Y-85725000D03*
D11*
X130333750Y-80645000D03*
G36*
G01*
X132543750Y-81895000D02*
X132543750Y-79395000D01*
G75*
G02*
X132593750Y-79345000I50000J0D01*
G01*
X135143750Y-79345000D01*
G75*
G02*
X135193750Y-79395000I0J-50000D01*
G01*
X135193750Y-81895000D01*
G75*
G02*
X135143750Y-81945000I-50000J0D01*
G01*
X132593750Y-81945000D01*
G75*
G02*
X132543750Y-81895000I0J50000D01*
G01*
G37*
G36*
G01*
X119093750Y-84435000D02*
X119093750Y-81935000D01*
G75*
G02*
X119143750Y-81885000I50000J0D01*
G01*
X121693750Y-81885000D01*
G75*
G02*
X121743750Y-81935000I0J-50000D01*
G01*
X121743750Y-84435000D01*
G75*
G02*
X121693750Y-84485000I-50000J0D01*
G01*
X119143750Y-84485000D01*
G75*
G02*
X119093750Y-84435000I0J50000D01*
G01*
G37*
G36*
G01*
X124493750Y-94475000D02*
X123093750Y-94475000D01*
G75*
G02*
X123043750Y-94425000I0J50000D01*
G01*
X123043750Y-93025000D01*
G75*
G02*
X123093750Y-92975000I50000J0D01*
G01*
X124493750Y-92975000D01*
G75*
G02*
X124543750Y-93025000I0J-50000D01*
G01*
X124543750Y-94425000D01*
G75*
G02*
X124493750Y-94475000I-50000J0D01*
G01*
G37*
G36*
G01*
X132493750Y-94475000D02*
X131093750Y-94475000D01*
G75*
G02*
X131043750Y-94425000I0J50000D01*
G01*
X131043750Y-93025000D01*
G75*
G02*
X131093750Y-92975000I50000J0D01*
G01*
X132493750Y-92975000D01*
G75*
G02*
X132543750Y-93025000I0J-50000D01*
G01*
X132543750Y-94425000D01*
G75*
G02*
X132493750Y-94475000I-50000J0D01*
G01*
G37*
G36*
G01*
X124493750Y-78475000D02*
X123093750Y-78475000D01*
G75*
G02*
X123043750Y-78425000I0J50000D01*
G01*
X123043750Y-77025000D01*
G75*
G02*
X123093750Y-76975000I50000J0D01*
G01*
X124493750Y-76975000D01*
G75*
G02*
X124543750Y-77025000I0J-50000D01*
G01*
X124543750Y-78425000D01*
G75*
G02*
X124493750Y-78475000I-50000J0D01*
G01*
G37*
G36*
G01*
X132493750Y-78475000D02*
X131093750Y-78475000D01*
G75*
G02*
X131043750Y-78425000I0J50000D01*
G01*
X131043750Y-77025000D01*
G75*
G02*
X131093750Y-76975000I50000J0D01*
G01*
X132493750Y-76975000D01*
G75*
G02*
X132543750Y-77025000I0J-50000D01*
G01*
X132543750Y-78425000D01*
G75*
G02*
X132493750Y-78475000I-50000J0D01*
G01*
G37*
G36*
G01*
X120493750Y-86475000D02*
X119093750Y-86475000D01*
G75*
G02*
X119043750Y-86425000I0J50000D01*
G01*
X119043750Y-85025000D01*
G75*
G02*
X119093750Y-84975000I50000J0D01*
G01*
X120493750Y-84975000D01*
G75*
G02*
X120543750Y-85025000I0J-50000D01*
G01*
X120543750Y-86425000D01*
G75*
G02*
X120493750Y-86475000I-50000J0D01*
G01*
G37*
G36*
G01*
X120493750Y-90475000D02*
X119093750Y-90475000D01*
G75*
G02*
X119043750Y-90425000I0J50000D01*
G01*
X119043750Y-89025000D01*
G75*
G02*
X119093750Y-88975000I50000J0D01*
G01*
X120493750Y-88975000D01*
G75*
G02*
X120543750Y-89025000I0J-50000D01*
G01*
X120543750Y-90425000D01*
G75*
G02*
X120493750Y-90475000I-50000J0D01*
G01*
G37*
G36*
G01*
X136493750Y-90475000D02*
X135093750Y-90475000D01*
G75*
G02*
X135043750Y-90425000I0J50000D01*
G01*
X135043750Y-89025000D01*
G75*
G02*
X135093750Y-88975000I50000J0D01*
G01*
X136493750Y-88975000D01*
G75*
G02*
X136543750Y-89025000I0J-50000D01*
G01*
X136543750Y-90425000D01*
G75*
G02*
X136493750Y-90475000I-50000J0D01*
G01*
G37*
G36*
G01*
X128493750Y-94475000D02*
X127093750Y-94475000D01*
G75*
G02*
X127043750Y-94425000I0J50000D01*
G01*
X127043750Y-93025000D01*
G75*
G02*
X127093750Y-92975000I50000J0D01*
G01*
X128493750Y-92975000D01*
G75*
G02*
X128543750Y-93025000I0J-50000D01*
G01*
X128543750Y-94425000D01*
G75*
G02*
X128493750Y-94475000I-50000J0D01*
G01*
G37*
G36*
G01*
X128493750Y-78475000D02*
X127093750Y-78475000D01*
G75*
G02*
X127043750Y-78425000I0J50000D01*
G01*
X127043750Y-77025000D01*
G75*
G02*
X127093750Y-76975000I50000J0D01*
G01*
X128493750Y-76975000D01*
G75*
G02*
X128543750Y-77025000I0J-50000D01*
G01*
X128543750Y-78425000D01*
G75*
G02*
X128493750Y-78475000I-50000J0D01*
G01*
G37*
G36*
G01*
X125843750Y-91055000D02*
X125843750Y-92055000D01*
G75*
G02*
X125793750Y-92105000I-50000J0D01*
G01*
X124393750Y-92105000D01*
G75*
G02*
X124343750Y-92055000I0J50000D01*
G01*
X124343750Y-91055000D01*
G75*
G02*
X124393750Y-91005000I50000J0D01*
G01*
X125793750Y-91005000D01*
G75*
G02*
X125843750Y-91055000I0J-50000D01*
G01*
G37*
G36*
G01*
X125843750Y-89555000D02*
X125843750Y-90555000D01*
G75*
G02*
X125793750Y-90605000I-50000J0D01*
G01*
X124393750Y-90605000D01*
G75*
G02*
X124343750Y-90555000I0J50000D01*
G01*
X124343750Y-89555000D01*
G75*
G02*
X124393750Y-89505000I50000J0D01*
G01*
X125793750Y-89505000D01*
G75*
G02*
X125843750Y-89555000I0J-50000D01*
G01*
G37*
G36*
G01*
X131243750Y-89555000D02*
X131243750Y-90555000D01*
G75*
G02*
X131193750Y-90605000I-50000J0D01*
G01*
X129793750Y-90605000D01*
G75*
G02*
X129743750Y-90555000I0J50000D01*
G01*
X129743750Y-89555000D01*
G75*
G02*
X129793750Y-89505000I50000J0D01*
G01*
X131193750Y-89505000D01*
G75*
G02*
X131243750Y-89555000I0J-50000D01*
G01*
G37*
G36*
G01*
X131243750Y-91055000D02*
X131243750Y-92055000D01*
G75*
G02*
X131193750Y-92105000I-50000J0D01*
G01*
X129793750Y-92105000D01*
G75*
G02*
X129743750Y-92055000I0J50000D01*
G01*
X129743750Y-91055000D01*
G75*
G02*
X129793750Y-91005000I50000J0D01*
G01*
X131193750Y-91005000D01*
G75*
G02*
X131243750Y-91055000I0J-50000D01*
G01*
G37*
D14*
X61118750Y-97851250D03*
X61118750Y-111698750D03*
X77567500Y-114300000D03*
X63720000Y-114300000D03*
G36*
G01*
X63343750Y-101525000D02*
X61943750Y-101525000D01*
G75*
G02*
X61893750Y-101475000I0J50000D01*
G01*
X61893750Y-100075000D01*
G75*
G02*
X61943750Y-100025000I50000J0D01*
G01*
X63343750Y-100025000D01*
G75*
G02*
X63393750Y-100075000I0J-50000D01*
G01*
X63393750Y-101475000D01*
G75*
G02*
X63343750Y-101525000I-50000J0D01*
G01*
G37*
G36*
G01*
X79118750Y-105975000D02*
X78168750Y-105975000D01*
G75*
G02*
X78118750Y-105925000I0J50000D01*
G01*
X78118750Y-104725000D01*
G75*
G02*
X78168750Y-104675000I50000J0D01*
G01*
X79118750Y-104675000D01*
G75*
G02*
X79168750Y-104725000I0J-50000D01*
G01*
X79168750Y-105925000D01*
G75*
G02*
X79118750Y-105975000I-50000J0D01*
G01*
G37*
D10*
X78643750Y-100425000D03*
G36*
G01*
X79118750Y-102525000D02*
X78168750Y-102525000D01*
G75*
G02*
X78118750Y-102475000I0J50000D01*
G01*
X78118750Y-101275000D01*
G75*
G02*
X78168750Y-101225000I50000J0D01*
G01*
X79118750Y-101225000D01*
G75*
G02*
X79168750Y-101275000I0J-50000D01*
G01*
X79168750Y-102475000D01*
G75*
G02*
X79118750Y-102525000I-50000J0D01*
G01*
G37*
G36*
G01*
X79343750Y-107525000D02*
X77943750Y-107525000D01*
G75*
G02*
X77893750Y-107475000I0J50000D01*
G01*
X77893750Y-106075000D01*
G75*
G02*
X77943750Y-106025000I50000J0D01*
G01*
X79343750Y-106025000D01*
G75*
G02*
X79393750Y-106075000I0J-50000D01*
G01*
X79393750Y-107475000D01*
G75*
G02*
X79343750Y-107525000I-50000J0D01*
G01*
G37*
D11*
X66833750Y-102235000D03*
D12*
X65563750Y-104775000D03*
X75723750Y-104775000D03*
D13*
X70643750Y-104775000D03*
D11*
X73183750Y-99695000D03*
G36*
G01*
X75393750Y-100945000D02*
X75393750Y-98445000D01*
G75*
G02*
X75443750Y-98395000I50000J0D01*
G01*
X77993750Y-98395000D01*
G75*
G02*
X78043750Y-98445000I0J-50000D01*
G01*
X78043750Y-100945000D01*
G75*
G02*
X77993750Y-100995000I-50000J0D01*
G01*
X75443750Y-100995000D01*
G75*
G02*
X75393750Y-100945000I0J50000D01*
G01*
G37*
G36*
G01*
X61943750Y-103485000D02*
X61943750Y-100985000D01*
G75*
G02*
X61993750Y-100935000I50000J0D01*
G01*
X64543750Y-100935000D01*
G75*
G02*
X64593750Y-100985000I0J-50000D01*
G01*
X64593750Y-103485000D01*
G75*
G02*
X64543750Y-103535000I-50000J0D01*
G01*
X61993750Y-103535000D01*
G75*
G02*
X61943750Y-103485000I0J50000D01*
G01*
G37*
G36*
G01*
X67343750Y-113525000D02*
X65943750Y-113525000D01*
G75*
G02*
X65893750Y-113475000I0J50000D01*
G01*
X65893750Y-112075000D01*
G75*
G02*
X65943750Y-112025000I50000J0D01*
G01*
X67343750Y-112025000D01*
G75*
G02*
X67393750Y-112075000I0J-50000D01*
G01*
X67393750Y-113475000D01*
G75*
G02*
X67343750Y-113525000I-50000J0D01*
G01*
G37*
G36*
G01*
X75343750Y-113525000D02*
X73943750Y-113525000D01*
G75*
G02*
X73893750Y-113475000I0J50000D01*
G01*
X73893750Y-112075000D01*
G75*
G02*
X73943750Y-112025000I50000J0D01*
G01*
X75343750Y-112025000D01*
G75*
G02*
X75393750Y-112075000I0J-50000D01*
G01*
X75393750Y-113475000D01*
G75*
G02*
X75343750Y-113525000I-50000J0D01*
G01*
G37*
G36*
G01*
X67343750Y-97525000D02*
X65943750Y-97525000D01*
G75*
G02*
X65893750Y-97475000I0J50000D01*
G01*
X65893750Y-96075000D01*
G75*
G02*
X65943750Y-96025000I50000J0D01*
G01*
X67343750Y-96025000D01*
G75*
G02*
X67393750Y-96075000I0J-50000D01*
G01*
X67393750Y-97475000D01*
G75*
G02*
X67343750Y-97525000I-50000J0D01*
G01*
G37*
G36*
G01*
X75343750Y-97525000D02*
X73943750Y-97525000D01*
G75*
G02*
X73893750Y-97475000I0J50000D01*
G01*
X73893750Y-96075000D01*
G75*
G02*
X73943750Y-96025000I50000J0D01*
G01*
X75343750Y-96025000D01*
G75*
G02*
X75393750Y-96075000I0J-50000D01*
G01*
X75393750Y-97475000D01*
G75*
G02*
X75343750Y-97525000I-50000J0D01*
G01*
G37*
G36*
G01*
X63343750Y-105525000D02*
X61943750Y-105525000D01*
G75*
G02*
X61893750Y-105475000I0J50000D01*
G01*
X61893750Y-104075000D01*
G75*
G02*
X61943750Y-104025000I50000J0D01*
G01*
X63343750Y-104025000D01*
G75*
G02*
X63393750Y-104075000I0J-50000D01*
G01*
X63393750Y-105475000D01*
G75*
G02*
X63343750Y-105525000I-50000J0D01*
G01*
G37*
G36*
G01*
X63343750Y-109525000D02*
X61943750Y-109525000D01*
G75*
G02*
X61893750Y-109475000I0J50000D01*
G01*
X61893750Y-108075000D01*
G75*
G02*
X61943750Y-108025000I50000J0D01*
G01*
X63343750Y-108025000D01*
G75*
G02*
X63393750Y-108075000I0J-50000D01*
G01*
X63393750Y-109475000D01*
G75*
G02*
X63343750Y-109525000I-50000J0D01*
G01*
G37*
G36*
G01*
X79343750Y-109525000D02*
X77943750Y-109525000D01*
G75*
G02*
X77893750Y-109475000I0J50000D01*
G01*
X77893750Y-108075000D01*
G75*
G02*
X77943750Y-108025000I50000J0D01*
G01*
X79343750Y-108025000D01*
G75*
G02*
X79393750Y-108075000I0J-50000D01*
G01*
X79393750Y-109475000D01*
G75*
G02*
X79343750Y-109525000I-50000J0D01*
G01*
G37*
G36*
G01*
X71343750Y-113525000D02*
X69943750Y-113525000D01*
G75*
G02*
X69893750Y-113475000I0J50000D01*
G01*
X69893750Y-112075000D01*
G75*
G02*
X69943750Y-112025000I50000J0D01*
G01*
X71343750Y-112025000D01*
G75*
G02*
X71393750Y-112075000I0J-50000D01*
G01*
X71393750Y-113475000D01*
G75*
G02*
X71343750Y-113525000I-50000J0D01*
G01*
G37*
G36*
G01*
X71343750Y-97525000D02*
X69943750Y-97525000D01*
G75*
G02*
X69893750Y-97475000I0J50000D01*
G01*
X69893750Y-96075000D01*
G75*
G02*
X69943750Y-96025000I50000J0D01*
G01*
X71343750Y-96025000D01*
G75*
G02*
X71393750Y-96075000I0J-50000D01*
G01*
X71393750Y-97475000D01*
G75*
G02*
X71343750Y-97525000I-50000J0D01*
G01*
G37*
G36*
G01*
X68693750Y-110105000D02*
X68693750Y-111105000D01*
G75*
G02*
X68643750Y-111155000I-50000J0D01*
G01*
X67243750Y-111155000D01*
G75*
G02*
X67193750Y-111105000I0J50000D01*
G01*
X67193750Y-110105000D01*
G75*
G02*
X67243750Y-110055000I50000J0D01*
G01*
X68643750Y-110055000D01*
G75*
G02*
X68693750Y-110105000I0J-50000D01*
G01*
G37*
G36*
G01*
X68693750Y-108605000D02*
X68693750Y-109605000D01*
G75*
G02*
X68643750Y-109655000I-50000J0D01*
G01*
X67243750Y-109655000D01*
G75*
G02*
X67193750Y-109605000I0J50000D01*
G01*
X67193750Y-108605000D01*
G75*
G02*
X67243750Y-108555000I50000J0D01*
G01*
X68643750Y-108555000D01*
G75*
G02*
X68693750Y-108605000I0J-50000D01*
G01*
G37*
G36*
G01*
X74093750Y-108605000D02*
X74093750Y-109605000D01*
G75*
G02*
X74043750Y-109655000I-50000J0D01*
G01*
X72643750Y-109655000D01*
G75*
G02*
X72593750Y-109605000I0J50000D01*
G01*
X72593750Y-108605000D01*
G75*
G02*
X72643750Y-108555000I50000J0D01*
G01*
X74043750Y-108555000D01*
G75*
G02*
X74093750Y-108605000I0J-50000D01*
G01*
G37*
G36*
G01*
X74093750Y-110105000D02*
X74093750Y-111105000D01*
G75*
G02*
X74043750Y-111155000I-50000J0D01*
G01*
X72643750Y-111155000D01*
G75*
G02*
X72593750Y-111105000I0J50000D01*
G01*
X72593750Y-110105000D01*
G75*
G02*
X72643750Y-110055000I50000J0D01*
G01*
X74043750Y-110055000D01*
G75*
G02*
X74093750Y-110105000I0J-50000D01*
G01*
G37*
D14*
X61118750Y-78801250D03*
X61118750Y-92648750D03*
X77567500Y-95250000D03*
X63720000Y-95250000D03*
G36*
G01*
X63343750Y-82475000D02*
X61943750Y-82475000D01*
G75*
G02*
X61893750Y-82425000I0J50000D01*
G01*
X61893750Y-81025000D01*
G75*
G02*
X61943750Y-80975000I50000J0D01*
G01*
X63343750Y-80975000D01*
G75*
G02*
X63393750Y-81025000I0J-50000D01*
G01*
X63393750Y-82425000D01*
G75*
G02*
X63343750Y-82475000I-50000J0D01*
G01*
G37*
G36*
G01*
X79118750Y-86925000D02*
X78168750Y-86925000D01*
G75*
G02*
X78118750Y-86875000I0J50000D01*
G01*
X78118750Y-85675000D01*
G75*
G02*
X78168750Y-85625000I50000J0D01*
G01*
X79118750Y-85625000D01*
G75*
G02*
X79168750Y-85675000I0J-50000D01*
G01*
X79168750Y-86875000D01*
G75*
G02*
X79118750Y-86925000I-50000J0D01*
G01*
G37*
D10*
X78643750Y-81375000D03*
G36*
G01*
X79118750Y-83475000D02*
X78168750Y-83475000D01*
G75*
G02*
X78118750Y-83425000I0J50000D01*
G01*
X78118750Y-82225000D01*
G75*
G02*
X78168750Y-82175000I50000J0D01*
G01*
X79118750Y-82175000D01*
G75*
G02*
X79168750Y-82225000I0J-50000D01*
G01*
X79168750Y-83425000D01*
G75*
G02*
X79118750Y-83475000I-50000J0D01*
G01*
G37*
G36*
G01*
X79343750Y-88475000D02*
X77943750Y-88475000D01*
G75*
G02*
X77893750Y-88425000I0J50000D01*
G01*
X77893750Y-87025000D01*
G75*
G02*
X77943750Y-86975000I50000J0D01*
G01*
X79343750Y-86975000D01*
G75*
G02*
X79393750Y-87025000I0J-50000D01*
G01*
X79393750Y-88425000D01*
G75*
G02*
X79343750Y-88475000I-50000J0D01*
G01*
G37*
D11*
X66833750Y-83185000D03*
D12*
X65563750Y-85725000D03*
X75723750Y-85725000D03*
D13*
X70643750Y-85725000D03*
D11*
X73183750Y-80645000D03*
G36*
G01*
X75393750Y-81895000D02*
X75393750Y-79395000D01*
G75*
G02*
X75443750Y-79345000I50000J0D01*
G01*
X77993750Y-79345000D01*
G75*
G02*
X78043750Y-79395000I0J-50000D01*
G01*
X78043750Y-81895000D01*
G75*
G02*
X77993750Y-81945000I-50000J0D01*
G01*
X75443750Y-81945000D01*
G75*
G02*
X75393750Y-81895000I0J50000D01*
G01*
G37*
G36*
G01*
X61943750Y-84435000D02*
X61943750Y-81935000D01*
G75*
G02*
X61993750Y-81885000I50000J0D01*
G01*
X64543750Y-81885000D01*
G75*
G02*
X64593750Y-81935000I0J-50000D01*
G01*
X64593750Y-84435000D01*
G75*
G02*
X64543750Y-84485000I-50000J0D01*
G01*
X61993750Y-84485000D01*
G75*
G02*
X61943750Y-84435000I0J50000D01*
G01*
G37*
G36*
G01*
X67343750Y-94475000D02*
X65943750Y-94475000D01*
G75*
G02*
X65893750Y-94425000I0J50000D01*
G01*
X65893750Y-93025000D01*
G75*
G02*
X65943750Y-92975000I50000J0D01*
G01*
X67343750Y-92975000D01*
G75*
G02*
X67393750Y-93025000I0J-50000D01*
G01*
X67393750Y-94425000D01*
G75*
G02*
X67343750Y-94475000I-50000J0D01*
G01*
G37*
G36*
G01*
X75343750Y-94475000D02*
X73943750Y-94475000D01*
G75*
G02*
X73893750Y-94425000I0J50000D01*
G01*
X73893750Y-93025000D01*
G75*
G02*
X73943750Y-92975000I50000J0D01*
G01*
X75343750Y-92975000D01*
G75*
G02*
X75393750Y-93025000I0J-50000D01*
G01*
X75393750Y-94425000D01*
G75*
G02*
X75343750Y-94475000I-50000J0D01*
G01*
G37*
G36*
G01*
X67343750Y-78475000D02*
X65943750Y-78475000D01*
G75*
G02*
X65893750Y-78425000I0J50000D01*
G01*
X65893750Y-77025000D01*
G75*
G02*
X65943750Y-76975000I50000J0D01*
G01*
X67343750Y-76975000D01*
G75*
G02*
X67393750Y-77025000I0J-50000D01*
G01*
X67393750Y-78425000D01*
G75*
G02*
X67343750Y-78475000I-50000J0D01*
G01*
G37*
G36*
G01*
X75343750Y-78475000D02*
X73943750Y-78475000D01*
G75*
G02*
X73893750Y-78425000I0J50000D01*
G01*
X73893750Y-77025000D01*
G75*
G02*
X73943750Y-76975000I50000J0D01*
G01*
X75343750Y-76975000D01*
G75*
G02*
X75393750Y-77025000I0J-50000D01*
G01*
X75393750Y-78425000D01*
G75*
G02*
X75343750Y-78475000I-50000J0D01*
G01*
G37*
G36*
G01*
X63343750Y-86475000D02*
X61943750Y-86475000D01*
G75*
G02*
X61893750Y-86425000I0J50000D01*
G01*
X61893750Y-85025000D01*
G75*
G02*
X61943750Y-84975000I50000J0D01*
G01*
X63343750Y-84975000D01*
G75*
G02*
X63393750Y-85025000I0J-50000D01*
G01*
X63393750Y-86425000D01*
G75*
G02*
X63343750Y-86475000I-50000J0D01*
G01*
G37*
G36*
G01*
X63343750Y-90475000D02*
X61943750Y-90475000D01*
G75*
G02*
X61893750Y-90425000I0J50000D01*
G01*
X61893750Y-89025000D01*
G75*
G02*
X61943750Y-88975000I50000J0D01*
G01*
X63343750Y-88975000D01*
G75*
G02*
X63393750Y-89025000I0J-50000D01*
G01*
X63393750Y-90425000D01*
G75*
G02*
X63343750Y-90475000I-50000J0D01*
G01*
G37*
G36*
G01*
X79343750Y-90475000D02*
X77943750Y-90475000D01*
G75*
G02*
X77893750Y-90425000I0J50000D01*
G01*
X77893750Y-89025000D01*
G75*
G02*
X77943750Y-88975000I50000J0D01*
G01*
X79343750Y-88975000D01*
G75*
G02*
X79393750Y-89025000I0J-50000D01*
G01*
X79393750Y-90425000D01*
G75*
G02*
X79343750Y-90475000I-50000J0D01*
G01*
G37*
G36*
G01*
X71343750Y-94475000D02*
X69943750Y-94475000D01*
G75*
G02*
X69893750Y-94425000I0J50000D01*
G01*
X69893750Y-93025000D01*
G75*
G02*
X69943750Y-92975000I50000J0D01*
G01*
X71343750Y-92975000D01*
G75*
G02*
X71393750Y-93025000I0J-50000D01*
G01*
X71393750Y-94425000D01*
G75*
G02*
X71343750Y-94475000I-50000J0D01*
G01*
G37*
G36*
G01*
X71343750Y-78475000D02*
X69943750Y-78475000D01*
G75*
G02*
X69893750Y-78425000I0J50000D01*
G01*
X69893750Y-77025000D01*
G75*
G02*
X69943750Y-76975000I50000J0D01*
G01*
X71343750Y-76975000D01*
G75*
G02*
X71393750Y-77025000I0J-50000D01*
G01*
X71393750Y-78425000D01*
G75*
G02*
X71343750Y-78475000I-50000J0D01*
G01*
G37*
G36*
G01*
X68693750Y-91055000D02*
X68693750Y-92055000D01*
G75*
G02*
X68643750Y-92105000I-50000J0D01*
G01*
X67243750Y-92105000D01*
G75*
G02*
X67193750Y-92055000I0J50000D01*
G01*
X67193750Y-91055000D01*
G75*
G02*
X67243750Y-91005000I50000J0D01*
G01*
X68643750Y-91005000D01*
G75*
G02*
X68693750Y-91055000I0J-50000D01*
G01*
G37*
G36*
G01*
X68693750Y-89555000D02*
X68693750Y-90555000D01*
G75*
G02*
X68643750Y-90605000I-50000J0D01*
G01*
X67243750Y-90605000D01*
G75*
G02*
X67193750Y-90555000I0J50000D01*
G01*
X67193750Y-89555000D01*
G75*
G02*
X67243750Y-89505000I50000J0D01*
G01*
X68643750Y-89505000D01*
G75*
G02*
X68693750Y-89555000I0J-50000D01*
G01*
G37*
G36*
G01*
X74093750Y-89555000D02*
X74093750Y-90555000D01*
G75*
G02*
X74043750Y-90605000I-50000J0D01*
G01*
X72643750Y-90605000D01*
G75*
G02*
X72593750Y-90555000I0J50000D01*
G01*
X72593750Y-89555000D01*
G75*
G02*
X72643750Y-89505000I50000J0D01*
G01*
X74043750Y-89505000D01*
G75*
G02*
X74093750Y-89555000I0J-50000D01*
G01*
G37*
G36*
G01*
X74093750Y-91055000D02*
X74093750Y-92055000D01*
G75*
G02*
X74043750Y-92105000I-50000J0D01*
G01*
X72643750Y-92105000D01*
G75*
G02*
X72593750Y-92055000I0J50000D01*
G01*
X72593750Y-91055000D01*
G75*
G02*
X72643750Y-91005000I50000J0D01*
G01*
X74043750Y-91005000D01*
G75*
G02*
X74093750Y-91055000I0J-50000D01*
G01*
G37*
D14*
X61118750Y-116901250D03*
X61118750Y-130748750D03*
X77567500Y-133350000D03*
X63720000Y-133350000D03*
G36*
G01*
X63343750Y-120575000D02*
X61943750Y-120575000D01*
G75*
G02*
X61893750Y-120525000I0J50000D01*
G01*
X61893750Y-119125000D01*
G75*
G02*
X61943750Y-119075000I50000J0D01*
G01*
X63343750Y-119075000D01*
G75*
G02*
X63393750Y-119125000I0J-50000D01*
G01*
X63393750Y-120525000D01*
G75*
G02*
X63343750Y-120575000I-50000J0D01*
G01*
G37*
G36*
G01*
X79118750Y-125025000D02*
X78168750Y-125025000D01*
G75*
G02*
X78118750Y-124975000I0J50000D01*
G01*
X78118750Y-123775000D01*
G75*
G02*
X78168750Y-123725000I50000J0D01*
G01*
X79118750Y-123725000D01*
G75*
G02*
X79168750Y-123775000I0J-50000D01*
G01*
X79168750Y-124975000D01*
G75*
G02*
X79118750Y-125025000I-50000J0D01*
G01*
G37*
D10*
X78643750Y-119475000D03*
G36*
G01*
X79118750Y-121575000D02*
X78168750Y-121575000D01*
G75*
G02*
X78118750Y-121525000I0J50000D01*
G01*
X78118750Y-120325000D01*
G75*
G02*
X78168750Y-120275000I50000J0D01*
G01*
X79118750Y-120275000D01*
G75*
G02*
X79168750Y-120325000I0J-50000D01*
G01*
X79168750Y-121525000D01*
G75*
G02*
X79118750Y-121575000I-50000J0D01*
G01*
G37*
G36*
G01*
X79343750Y-126575000D02*
X77943750Y-126575000D01*
G75*
G02*
X77893750Y-126525000I0J50000D01*
G01*
X77893750Y-125125000D01*
G75*
G02*
X77943750Y-125075000I50000J0D01*
G01*
X79343750Y-125075000D01*
G75*
G02*
X79393750Y-125125000I0J-50000D01*
G01*
X79393750Y-126525000D01*
G75*
G02*
X79343750Y-126575000I-50000J0D01*
G01*
G37*
D11*
X66833750Y-121285000D03*
D12*
X65563750Y-123825000D03*
X75723750Y-123825000D03*
D13*
X70643750Y-123825000D03*
D11*
X73183750Y-118745000D03*
G36*
G01*
X75393750Y-119995000D02*
X75393750Y-117495000D01*
G75*
G02*
X75443750Y-117445000I50000J0D01*
G01*
X77993750Y-117445000D01*
G75*
G02*
X78043750Y-117495000I0J-50000D01*
G01*
X78043750Y-119995000D01*
G75*
G02*
X77993750Y-120045000I-50000J0D01*
G01*
X75443750Y-120045000D01*
G75*
G02*
X75393750Y-119995000I0J50000D01*
G01*
G37*
G36*
G01*
X61943750Y-122535000D02*
X61943750Y-120035000D01*
G75*
G02*
X61993750Y-119985000I50000J0D01*
G01*
X64543750Y-119985000D01*
G75*
G02*
X64593750Y-120035000I0J-50000D01*
G01*
X64593750Y-122535000D01*
G75*
G02*
X64543750Y-122585000I-50000J0D01*
G01*
X61993750Y-122585000D01*
G75*
G02*
X61943750Y-122535000I0J50000D01*
G01*
G37*
G36*
G01*
X67343750Y-132575000D02*
X65943750Y-132575000D01*
G75*
G02*
X65893750Y-132525000I0J50000D01*
G01*
X65893750Y-131125000D01*
G75*
G02*
X65943750Y-131075000I50000J0D01*
G01*
X67343750Y-131075000D01*
G75*
G02*
X67393750Y-131125000I0J-50000D01*
G01*
X67393750Y-132525000D01*
G75*
G02*
X67343750Y-132575000I-50000J0D01*
G01*
G37*
G36*
G01*
X75343750Y-132575000D02*
X73943750Y-132575000D01*
G75*
G02*
X73893750Y-132525000I0J50000D01*
G01*
X73893750Y-131125000D01*
G75*
G02*
X73943750Y-131075000I50000J0D01*
G01*
X75343750Y-131075000D01*
G75*
G02*
X75393750Y-131125000I0J-50000D01*
G01*
X75393750Y-132525000D01*
G75*
G02*
X75343750Y-132575000I-50000J0D01*
G01*
G37*
G36*
G01*
X67343750Y-116575000D02*
X65943750Y-116575000D01*
G75*
G02*
X65893750Y-116525000I0J50000D01*
G01*
X65893750Y-115125000D01*
G75*
G02*
X65943750Y-115075000I50000J0D01*
G01*
X67343750Y-115075000D01*
G75*
G02*
X67393750Y-115125000I0J-50000D01*
G01*
X67393750Y-116525000D01*
G75*
G02*
X67343750Y-116575000I-50000J0D01*
G01*
G37*
G36*
G01*
X75343750Y-116575000D02*
X73943750Y-116575000D01*
G75*
G02*
X73893750Y-116525000I0J50000D01*
G01*
X73893750Y-115125000D01*
G75*
G02*
X73943750Y-115075000I50000J0D01*
G01*
X75343750Y-115075000D01*
G75*
G02*
X75393750Y-115125000I0J-50000D01*
G01*
X75393750Y-116525000D01*
G75*
G02*
X75343750Y-116575000I-50000J0D01*
G01*
G37*
G36*
G01*
X63343750Y-124575000D02*
X61943750Y-124575000D01*
G75*
G02*
X61893750Y-124525000I0J50000D01*
G01*
X61893750Y-123125000D01*
G75*
G02*
X61943750Y-123075000I50000J0D01*
G01*
X63343750Y-123075000D01*
G75*
G02*
X63393750Y-123125000I0J-50000D01*
G01*
X63393750Y-124525000D01*
G75*
G02*
X63343750Y-124575000I-50000J0D01*
G01*
G37*
G36*
G01*
X63343750Y-128575000D02*
X61943750Y-128575000D01*
G75*
G02*
X61893750Y-128525000I0J50000D01*
G01*
X61893750Y-127125000D01*
G75*
G02*
X61943750Y-127075000I50000J0D01*
G01*
X63343750Y-127075000D01*
G75*
G02*
X63393750Y-127125000I0J-50000D01*
G01*
X63393750Y-128525000D01*
G75*
G02*
X63343750Y-128575000I-50000J0D01*
G01*
G37*
G36*
G01*
X79343750Y-128575000D02*
X77943750Y-128575000D01*
G75*
G02*
X77893750Y-128525000I0J50000D01*
G01*
X77893750Y-127125000D01*
G75*
G02*
X77943750Y-127075000I50000J0D01*
G01*
X79343750Y-127075000D01*
G75*
G02*
X79393750Y-127125000I0J-50000D01*
G01*
X79393750Y-128525000D01*
G75*
G02*
X79343750Y-128575000I-50000J0D01*
G01*
G37*
G36*
G01*
X71343750Y-132575000D02*
X69943750Y-132575000D01*
G75*
G02*
X69893750Y-132525000I0J50000D01*
G01*
X69893750Y-131125000D01*
G75*
G02*
X69943750Y-131075000I50000J0D01*
G01*
X71343750Y-131075000D01*
G75*
G02*
X71393750Y-131125000I0J-50000D01*
G01*
X71393750Y-132525000D01*
G75*
G02*
X71343750Y-132575000I-50000J0D01*
G01*
G37*
G36*
G01*
X71343750Y-116575000D02*
X69943750Y-116575000D01*
G75*
G02*
X69893750Y-116525000I0J50000D01*
G01*
X69893750Y-115125000D01*
G75*
G02*
X69943750Y-115075000I50000J0D01*
G01*
X71343750Y-115075000D01*
G75*
G02*
X71393750Y-115125000I0J-50000D01*
G01*
X71393750Y-116525000D01*
G75*
G02*
X71343750Y-116575000I-50000J0D01*
G01*
G37*
G36*
G01*
X68693750Y-129155000D02*
X68693750Y-130155000D01*
G75*
G02*
X68643750Y-130205000I-50000J0D01*
G01*
X67243750Y-130205000D01*
G75*
G02*
X67193750Y-130155000I0J50000D01*
G01*
X67193750Y-129155000D01*
G75*
G02*
X67243750Y-129105000I50000J0D01*
G01*
X68643750Y-129105000D01*
G75*
G02*
X68693750Y-129155000I0J-50000D01*
G01*
G37*
G36*
G01*
X68693750Y-127655000D02*
X68693750Y-128655000D01*
G75*
G02*
X68643750Y-128705000I-50000J0D01*
G01*
X67243750Y-128705000D01*
G75*
G02*
X67193750Y-128655000I0J50000D01*
G01*
X67193750Y-127655000D01*
G75*
G02*
X67243750Y-127605000I50000J0D01*
G01*
X68643750Y-127605000D01*
G75*
G02*
X68693750Y-127655000I0J-50000D01*
G01*
G37*
G36*
G01*
X74093750Y-127655000D02*
X74093750Y-128655000D01*
G75*
G02*
X74043750Y-128705000I-50000J0D01*
G01*
X72643750Y-128705000D01*
G75*
G02*
X72593750Y-128655000I0J50000D01*
G01*
X72593750Y-127655000D01*
G75*
G02*
X72643750Y-127605000I50000J0D01*
G01*
X74043750Y-127605000D01*
G75*
G02*
X74093750Y-127655000I0J-50000D01*
G01*
G37*
G36*
G01*
X74093750Y-129155000D02*
X74093750Y-130155000D01*
G75*
G02*
X74043750Y-130205000I-50000J0D01*
G01*
X72643750Y-130205000D01*
G75*
G02*
X72593750Y-130155000I0J50000D01*
G01*
X72593750Y-129155000D01*
G75*
G02*
X72643750Y-129105000I50000J0D01*
G01*
X74043750Y-129105000D01*
G75*
G02*
X74093750Y-129155000I0J-50000D01*
G01*
G37*
D14*
X61118750Y-135951250D03*
X61118750Y-149798750D03*
X77567500Y-152400000D03*
X63720000Y-152400000D03*
G36*
G01*
X63343750Y-139625000D02*
X61943750Y-139625000D01*
G75*
G02*
X61893750Y-139575000I0J50000D01*
G01*
X61893750Y-138175000D01*
G75*
G02*
X61943750Y-138125000I50000J0D01*
G01*
X63343750Y-138125000D01*
G75*
G02*
X63393750Y-138175000I0J-50000D01*
G01*
X63393750Y-139575000D01*
G75*
G02*
X63343750Y-139625000I-50000J0D01*
G01*
G37*
G36*
G01*
X79118750Y-144075000D02*
X78168750Y-144075000D01*
G75*
G02*
X78118750Y-144025000I0J50000D01*
G01*
X78118750Y-142825000D01*
G75*
G02*
X78168750Y-142775000I50000J0D01*
G01*
X79118750Y-142775000D01*
G75*
G02*
X79168750Y-142825000I0J-50000D01*
G01*
X79168750Y-144025000D01*
G75*
G02*
X79118750Y-144075000I-50000J0D01*
G01*
G37*
D10*
X78643750Y-138525000D03*
G36*
G01*
X79118750Y-140625000D02*
X78168750Y-140625000D01*
G75*
G02*
X78118750Y-140575000I0J50000D01*
G01*
X78118750Y-139375000D01*
G75*
G02*
X78168750Y-139325000I50000J0D01*
G01*
X79118750Y-139325000D01*
G75*
G02*
X79168750Y-139375000I0J-50000D01*
G01*
X79168750Y-140575000D01*
G75*
G02*
X79118750Y-140625000I-50000J0D01*
G01*
G37*
G36*
G01*
X79343750Y-145625000D02*
X77943750Y-145625000D01*
G75*
G02*
X77893750Y-145575000I0J50000D01*
G01*
X77893750Y-144175000D01*
G75*
G02*
X77943750Y-144125000I50000J0D01*
G01*
X79343750Y-144125000D01*
G75*
G02*
X79393750Y-144175000I0J-50000D01*
G01*
X79393750Y-145575000D01*
G75*
G02*
X79343750Y-145625000I-50000J0D01*
G01*
G37*
D11*
X66833750Y-140335000D03*
D12*
X65563750Y-142875000D03*
X75723750Y-142875000D03*
D13*
X70643750Y-142875000D03*
D11*
X73183750Y-137795000D03*
G36*
G01*
X75393750Y-139045000D02*
X75393750Y-136545000D01*
G75*
G02*
X75443750Y-136495000I50000J0D01*
G01*
X77993750Y-136495000D01*
G75*
G02*
X78043750Y-136545000I0J-50000D01*
G01*
X78043750Y-139045000D01*
G75*
G02*
X77993750Y-139095000I-50000J0D01*
G01*
X75443750Y-139095000D01*
G75*
G02*
X75393750Y-139045000I0J50000D01*
G01*
G37*
G36*
G01*
X61943750Y-141585000D02*
X61943750Y-139085000D01*
G75*
G02*
X61993750Y-139035000I50000J0D01*
G01*
X64543750Y-139035000D01*
G75*
G02*
X64593750Y-139085000I0J-50000D01*
G01*
X64593750Y-141585000D01*
G75*
G02*
X64543750Y-141635000I-50000J0D01*
G01*
X61993750Y-141635000D01*
G75*
G02*
X61943750Y-141585000I0J50000D01*
G01*
G37*
G36*
G01*
X67343750Y-151625000D02*
X65943750Y-151625000D01*
G75*
G02*
X65893750Y-151575000I0J50000D01*
G01*
X65893750Y-150175000D01*
G75*
G02*
X65943750Y-150125000I50000J0D01*
G01*
X67343750Y-150125000D01*
G75*
G02*
X67393750Y-150175000I0J-50000D01*
G01*
X67393750Y-151575000D01*
G75*
G02*
X67343750Y-151625000I-50000J0D01*
G01*
G37*
G36*
G01*
X75343750Y-151625000D02*
X73943750Y-151625000D01*
G75*
G02*
X73893750Y-151575000I0J50000D01*
G01*
X73893750Y-150175000D01*
G75*
G02*
X73943750Y-150125000I50000J0D01*
G01*
X75343750Y-150125000D01*
G75*
G02*
X75393750Y-150175000I0J-50000D01*
G01*
X75393750Y-151575000D01*
G75*
G02*
X75343750Y-151625000I-50000J0D01*
G01*
G37*
G36*
G01*
X67343750Y-135625000D02*
X65943750Y-135625000D01*
G75*
G02*
X65893750Y-135575000I0J50000D01*
G01*
X65893750Y-134175000D01*
G75*
G02*
X65943750Y-134125000I50000J0D01*
G01*
X67343750Y-134125000D01*
G75*
G02*
X67393750Y-134175000I0J-50000D01*
G01*
X67393750Y-135575000D01*
G75*
G02*
X67343750Y-135625000I-50000J0D01*
G01*
G37*
G36*
G01*
X75343750Y-135625000D02*
X73943750Y-135625000D01*
G75*
G02*
X73893750Y-135575000I0J50000D01*
G01*
X73893750Y-134175000D01*
G75*
G02*
X73943750Y-134125000I50000J0D01*
G01*
X75343750Y-134125000D01*
G75*
G02*
X75393750Y-134175000I0J-50000D01*
G01*
X75393750Y-135575000D01*
G75*
G02*
X75343750Y-135625000I-50000J0D01*
G01*
G37*
G36*
G01*
X63343750Y-143625000D02*
X61943750Y-143625000D01*
G75*
G02*
X61893750Y-143575000I0J50000D01*
G01*
X61893750Y-142175000D01*
G75*
G02*
X61943750Y-142125000I50000J0D01*
G01*
X63343750Y-142125000D01*
G75*
G02*
X63393750Y-142175000I0J-50000D01*
G01*
X63393750Y-143575000D01*
G75*
G02*
X63343750Y-143625000I-50000J0D01*
G01*
G37*
G36*
G01*
X63343750Y-147625000D02*
X61943750Y-147625000D01*
G75*
G02*
X61893750Y-147575000I0J50000D01*
G01*
X61893750Y-146175000D01*
G75*
G02*
X61943750Y-146125000I50000J0D01*
G01*
X63343750Y-146125000D01*
G75*
G02*
X63393750Y-146175000I0J-50000D01*
G01*
X63393750Y-147575000D01*
G75*
G02*
X63343750Y-147625000I-50000J0D01*
G01*
G37*
G36*
G01*
X79343750Y-147625000D02*
X77943750Y-147625000D01*
G75*
G02*
X77893750Y-147575000I0J50000D01*
G01*
X77893750Y-146175000D01*
G75*
G02*
X77943750Y-146125000I50000J0D01*
G01*
X79343750Y-146125000D01*
G75*
G02*
X79393750Y-146175000I0J-50000D01*
G01*
X79393750Y-147575000D01*
G75*
G02*
X79343750Y-147625000I-50000J0D01*
G01*
G37*
G36*
G01*
X71343750Y-151625000D02*
X69943750Y-151625000D01*
G75*
G02*
X69893750Y-151575000I0J50000D01*
G01*
X69893750Y-150175000D01*
G75*
G02*
X69943750Y-150125000I50000J0D01*
G01*
X71343750Y-150125000D01*
G75*
G02*
X71393750Y-150175000I0J-50000D01*
G01*
X71393750Y-151575000D01*
G75*
G02*
X71343750Y-151625000I-50000J0D01*
G01*
G37*
G36*
G01*
X71343750Y-135625000D02*
X69943750Y-135625000D01*
G75*
G02*
X69893750Y-135575000I0J50000D01*
G01*
X69893750Y-134175000D01*
G75*
G02*
X69943750Y-134125000I50000J0D01*
G01*
X71343750Y-134125000D01*
G75*
G02*
X71393750Y-134175000I0J-50000D01*
G01*
X71393750Y-135575000D01*
G75*
G02*
X71343750Y-135625000I-50000J0D01*
G01*
G37*
G36*
G01*
X68693750Y-148205000D02*
X68693750Y-149205000D01*
G75*
G02*
X68643750Y-149255000I-50000J0D01*
G01*
X67243750Y-149255000D01*
G75*
G02*
X67193750Y-149205000I0J50000D01*
G01*
X67193750Y-148205000D01*
G75*
G02*
X67243750Y-148155000I50000J0D01*
G01*
X68643750Y-148155000D01*
G75*
G02*
X68693750Y-148205000I0J-50000D01*
G01*
G37*
G36*
G01*
X68693750Y-146705000D02*
X68693750Y-147705000D01*
G75*
G02*
X68643750Y-147755000I-50000J0D01*
G01*
X67243750Y-147755000D01*
G75*
G02*
X67193750Y-147705000I0J50000D01*
G01*
X67193750Y-146705000D01*
G75*
G02*
X67243750Y-146655000I50000J0D01*
G01*
X68643750Y-146655000D01*
G75*
G02*
X68693750Y-146705000I0J-50000D01*
G01*
G37*
G36*
G01*
X74093750Y-146705000D02*
X74093750Y-147705000D01*
G75*
G02*
X74043750Y-147755000I-50000J0D01*
G01*
X72643750Y-147755000D01*
G75*
G02*
X72593750Y-147705000I0J50000D01*
G01*
X72593750Y-146705000D01*
G75*
G02*
X72643750Y-146655000I50000J0D01*
G01*
X74043750Y-146655000D01*
G75*
G02*
X74093750Y-146705000I0J-50000D01*
G01*
G37*
G36*
G01*
X74093750Y-148205000D02*
X74093750Y-149205000D01*
G75*
G02*
X74043750Y-149255000I-50000J0D01*
G01*
X72643750Y-149255000D01*
G75*
G02*
X72593750Y-149205000I0J50000D01*
G01*
X72593750Y-148205000D01*
G75*
G02*
X72643750Y-148155000I50000J0D01*
G01*
X74043750Y-148155000D01*
G75*
G02*
X74093750Y-148205000I0J-50000D01*
G01*
G37*
D14*
X80168750Y-97851250D03*
X80168750Y-111698750D03*
X96617500Y-114300000D03*
X82770000Y-114300000D03*
G36*
G01*
X82393750Y-101525000D02*
X80993750Y-101525000D01*
G75*
G02*
X80943750Y-101475000I0J50000D01*
G01*
X80943750Y-100075000D01*
G75*
G02*
X80993750Y-100025000I50000J0D01*
G01*
X82393750Y-100025000D01*
G75*
G02*
X82443750Y-100075000I0J-50000D01*
G01*
X82443750Y-101475000D01*
G75*
G02*
X82393750Y-101525000I-50000J0D01*
G01*
G37*
G36*
G01*
X98168750Y-105975000D02*
X97218750Y-105975000D01*
G75*
G02*
X97168750Y-105925000I0J50000D01*
G01*
X97168750Y-104725000D01*
G75*
G02*
X97218750Y-104675000I50000J0D01*
G01*
X98168750Y-104675000D01*
G75*
G02*
X98218750Y-104725000I0J-50000D01*
G01*
X98218750Y-105925000D01*
G75*
G02*
X98168750Y-105975000I-50000J0D01*
G01*
G37*
D10*
X97693750Y-100425000D03*
G36*
G01*
X98168750Y-102525000D02*
X97218750Y-102525000D01*
G75*
G02*
X97168750Y-102475000I0J50000D01*
G01*
X97168750Y-101275000D01*
G75*
G02*
X97218750Y-101225000I50000J0D01*
G01*
X98168750Y-101225000D01*
G75*
G02*
X98218750Y-101275000I0J-50000D01*
G01*
X98218750Y-102475000D01*
G75*
G02*
X98168750Y-102525000I-50000J0D01*
G01*
G37*
G36*
G01*
X98393750Y-107525000D02*
X96993750Y-107525000D01*
G75*
G02*
X96943750Y-107475000I0J50000D01*
G01*
X96943750Y-106075000D01*
G75*
G02*
X96993750Y-106025000I50000J0D01*
G01*
X98393750Y-106025000D01*
G75*
G02*
X98443750Y-106075000I0J-50000D01*
G01*
X98443750Y-107475000D01*
G75*
G02*
X98393750Y-107525000I-50000J0D01*
G01*
G37*
D11*
X85883750Y-102235000D03*
D12*
X84613750Y-104775000D03*
X94773750Y-104775000D03*
D13*
X89693750Y-104775000D03*
D11*
X92233750Y-99695000D03*
G36*
G01*
X94443750Y-100945000D02*
X94443750Y-98445000D01*
G75*
G02*
X94493750Y-98395000I50000J0D01*
G01*
X97043750Y-98395000D01*
G75*
G02*
X97093750Y-98445000I0J-50000D01*
G01*
X97093750Y-100945000D01*
G75*
G02*
X97043750Y-100995000I-50000J0D01*
G01*
X94493750Y-100995000D01*
G75*
G02*
X94443750Y-100945000I0J50000D01*
G01*
G37*
G36*
G01*
X80993750Y-103485000D02*
X80993750Y-100985000D01*
G75*
G02*
X81043750Y-100935000I50000J0D01*
G01*
X83593750Y-100935000D01*
G75*
G02*
X83643750Y-100985000I0J-50000D01*
G01*
X83643750Y-103485000D01*
G75*
G02*
X83593750Y-103535000I-50000J0D01*
G01*
X81043750Y-103535000D01*
G75*
G02*
X80993750Y-103485000I0J50000D01*
G01*
G37*
G36*
G01*
X86393750Y-113525000D02*
X84993750Y-113525000D01*
G75*
G02*
X84943750Y-113475000I0J50000D01*
G01*
X84943750Y-112075000D01*
G75*
G02*
X84993750Y-112025000I50000J0D01*
G01*
X86393750Y-112025000D01*
G75*
G02*
X86443750Y-112075000I0J-50000D01*
G01*
X86443750Y-113475000D01*
G75*
G02*
X86393750Y-113525000I-50000J0D01*
G01*
G37*
G36*
G01*
X94393750Y-113525000D02*
X92993750Y-113525000D01*
G75*
G02*
X92943750Y-113475000I0J50000D01*
G01*
X92943750Y-112075000D01*
G75*
G02*
X92993750Y-112025000I50000J0D01*
G01*
X94393750Y-112025000D01*
G75*
G02*
X94443750Y-112075000I0J-50000D01*
G01*
X94443750Y-113475000D01*
G75*
G02*
X94393750Y-113525000I-50000J0D01*
G01*
G37*
G36*
G01*
X86393750Y-97525000D02*
X84993750Y-97525000D01*
G75*
G02*
X84943750Y-97475000I0J50000D01*
G01*
X84943750Y-96075000D01*
G75*
G02*
X84993750Y-96025000I50000J0D01*
G01*
X86393750Y-96025000D01*
G75*
G02*
X86443750Y-96075000I0J-50000D01*
G01*
X86443750Y-97475000D01*
G75*
G02*
X86393750Y-97525000I-50000J0D01*
G01*
G37*
G36*
G01*
X94393750Y-97525000D02*
X92993750Y-97525000D01*
G75*
G02*
X92943750Y-97475000I0J50000D01*
G01*
X92943750Y-96075000D01*
G75*
G02*
X92993750Y-96025000I50000J0D01*
G01*
X94393750Y-96025000D01*
G75*
G02*
X94443750Y-96075000I0J-50000D01*
G01*
X94443750Y-97475000D01*
G75*
G02*
X94393750Y-97525000I-50000J0D01*
G01*
G37*
G36*
G01*
X82393750Y-105525000D02*
X80993750Y-105525000D01*
G75*
G02*
X80943750Y-105475000I0J50000D01*
G01*
X80943750Y-104075000D01*
G75*
G02*
X80993750Y-104025000I50000J0D01*
G01*
X82393750Y-104025000D01*
G75*
G02*
X82443750Y-104075000I0J-50000D01*
G01*
X82443750Y-105475000D01*
G75*
G02*
X82393750Y-105525000I-50000J0D01*
G01*
G37*
G36*
G01*
X82393750Y-109525000D02*
X80993750Y-109525000D01*
G75*
G02*
X80943750Y-109475000I0J50000D01*
G01*
X80943750Y-108075000D01*
G75*
G02*
X80993750Y-108025000I50000J0D01*
G01*
X82393750Y-108025000D01*
G75*
G02*
X82443750Y-108075000I0J-50000D01*
G01*
X82443750Y-109475000D01*
G75*
G02*
X82393750Y-109525000I-50000J0D01*
G01*
G37*
G36*
G01*
X98393750Y-109525000D02*
X96993750Y-109525000D01*
G75*
G02*
X96943750Y-109475000I0J50000D01*
G01*
X96943750Y-108075000D01*
G75*
G02*
X96993750Y-108025000I50000J0D01*
G01*
X98393750Y-108025000D01*
G75*
G02*
X98443750Y-108075000I0J-50000D01*
G01*
X98443750Y-109475000D01*
G75*
G02*
X98393750Y-109525000I-50000J0D01*
G01*
G37*
G36*
G01*
X90393750Y-113525000D02*
X88993750Y-113525000D01*
G75*
G02*
X88943750Y-113475000I0J50000D01*
G01*
X88943750Y-112075000D01*
G75*
G02*
X88993750Y-112025000I50000J0D01*
G01*
X90393750Y-112025000D01*
G75*
G02*
X90443750Y-112075000I0J-50000D01*
G01*
X90443750Y-113475000D01*
G75*
G02*
X90393750Y-113525000I-50000J0D01*
G01*
G37*
G36*
G01*
X90393750Y-97525000D02*
X88993750Y-97525000D01*
G75*
G02*
X88943750Y-97475000I0J50000D01*
G01*
X88943750Y-96075000D01*
G75*
G02*
X88993750Y-96025000I50000J0D01*
G01*
X90393750Y-96025000D01*
G75*
G02*
X90443750Y-96075000I0J-50000D01*
G01*
X90443750Y-97475000D01*
G75*
G02*
X90393750Y-97525000I-50000J0D01*
G01*
G37*
G36*
G01*
X87743750Y-110105000D02*
X87743750Y-111105000D01*
G75*
G02*
X87693750Y-111155000I-50000J0D01*
G01*
X86293750Y-111155000D01*
G75*
G02*
X86243750Y-111105000I0J50000D01*
G01*
X86243750Y-110105000D01*
G75*
G02*
X86293750Y-110055000I50000J0D01*
G01*
X87693750Y-110055000D01*
G75*
G02*
X87743750Y-110105000I0J-50000D01*
G01*
G37*
G36*
G01*
X87743750Y-108605000D02*
X87743750Y-109605000D01*
G75*
G02*
X87693750Y-109655000I-50000J0D01*
G01*
X86293750Y-109655000D01*
G75*
G02*
X86243750Y-109605000I0J50000D01*
G01*
X86243750Y-108605000D01*
G75*
G02*
X86293750Y-108555000I50000J0D01*
G01*
X87693750Y-108555000D01*
G75*
G02*
X87743750Y-108605000I0J-50000D01*
G01*
G37*
G36*
G01*
X93143750Y-108605000D02*
X93143750Y-109605000D01*
G75*
G02*
X93093750Y-109655000I-50000J0D01*
G01*
X91693750Y-109655000D01*
G75*
G02*
X91643750Y-109605000I0J50000D01*
G01*
X91643750Y-108605000D01*
G75*
G02*
X91693750Y-108555000I50000J0D01*
G01*
X93093750Y-108555000D01*
G75*
G02*
X93143750Y-108605000I0J-50000D01*
G01*
G37*
G36*
G01*
X93143750Y-110105000D02*
X93143750Y-111105000D01*
G75*
G02*
X93093750Y-111155000I-50000J0D01*
G01*
X91693750Y-111155000D01*
G75*
G02*
X91643750Y-111105000I0J50000D01*
G01*
X91643750Y-110105000D01*
G75*
G02*
X91693750Y-110055000I50000J0D01*
G01*
X93093750Y-110055000D01*
G75*
G02*
X93143750Y-110105000I0J-50000D01*
G01*
G37*
D14*
X80168750Y-116901250D03*
X80168750Y-130748750D03*
X96617500Y-133350000D03*
X82770000Y-133350000D03*
G36*
G01*
X82393750Y-120575000D02*
X80993750Y-120575000D01*
G75*
G02*
X80943750Y-120525000I0J50000D01*
G01*
X80943750Y-119125000D01*
G75*
G02*
X80993750Y-119075000I50000J0D01*
G01*
X82393750Y-119075000D01*
G75*
G02*
X82443750Y-119125000I0J-50000D01*
G01*
X82443750Y-120525000D01*
G75*
G02*
X82393750Y-120575000I-50000J0D01*
G01*
G37*
G36*
G01*
X98168750Y-125025000D02*
X97218750Y-125025000D01*
G75*
G02*
X97168750Y-124975000I0J50000D01*
G01*
X97168750Y-123775000D01*
G75*
G02*
X97218750Y-123725000I50000J0D01*
G01*
X98168750Y-123725000D01*
G75*
G02*
X98218750Y-123775000I0J-50000D01*
G01*
X98218750Y-124975000D01*
G75*
G02*
X98168750Y-125025000I-50000J0D01*
G01*
G37*
D10*
X97693750Y-119475000D03*
G36*
G01*
X98168750Y-121575000D02*
X97218750Y-121575000D01*
G75*
G02*
X97168750Y-121525000I0J50000D01*
G01*
X97168750Y-120325000D01*
G75*
G02*
X97218750Y-120275000I50000J0D01*
G01*
X98168750Y-120275000D01*
G75*
G02*
X98218750Y-120325000I0J-50000D01*
G01*
X98218750Y-121525000D01*
G75*
G02*
X98168750Y-121575000I-50000J0D01*
G01*
G37*
G36*
G01*
X98393750Y-126575000D02*
X96993750Y-126575000D01*
G75*
G02*
X96943750Y-126525000I0J50000D01*
G01*
X96943750Y-125125000D01*
G75*
G02*
X96993750Y-125075000I50000J0D01*
G01*
X98393750Y-125075000D01*
G75*
G02*
X98443750Y-125125000I0J-50000D01*
G01*
X98443750Y-126525000D01*
G75*
G02*
X98393750Y-126575000I-50000J0D01*
G01*
G37*
D11*
X85883750Y-121285000D03*
D12*
X84613750Y-123825000D03*
X94773750Y-123825000D03*
D13*
X89693750Y-123825000D03*
D11*
X92233750Y-118745000D03*
G36*
G01*
X94443750Y-119995000D02*
X94443750Y-117495000D01*
G75*
G02*
X94493750Y-117445000I50000J0D01*
G01*
X97043750Y-117445000D01*
G75*
G02*
X97093750Y-117495000I0J-50000D01*
G01*
X97093750Y-119995000D01*
G75*
G02*
X97043750Y-120045000I-50000J0D01*
G01*
X94493750Y-120045000D01*
G75*
G02*
X94443750Y-119995000I0J50000D01*
G01*
G37*
G36*
G01*
X80993750Y-122535000D02*
X80993750Y-120035000D01*
G75*
G02*
X81043750Y-119985000I50000J0D01*
G01*
X83593750Y-119985000D01*
G75*
G02*
X83643750Y-120035000I0J-50000D01*
G01*
X83643750Y-122535000D01*
G75*
G02*
X83593750Y-122585000I-50000J0D01*
G01*
X81043750Y-122585000D01*
G75*
G02*
X80993750Y-122535000I0J50000D01*
G01*
G37*
G36*
G01*
X86393750Y-132575000D02*
X84993750Y-132575000D01*
G75*
G02*
X84943750Y-132525000I0J50000D01*
G01*
X84943750Y-131125000D01*
G75*
G02*
X84993750Y-131075000I50000J0D01*
G01*
X86393750Y-131075000D01*
G75*
G02*
X86443750Y-131125000I0J-50000D01*
G01*
X86443750Y-132525000D01*
G75*
G02*
X86393750Y-132575000I-50000J0D01*
G01*
G37*
G36*
G01*
X94393750Y-132575000D02*
X92993750Y-132575000D01*
G75*
G02*
X92943750Y-132525000I0J50000D01*
G01*
X92943750Y-131125000D01*
G75*
G02*
X92993750Y-131075000I50000J0D01*
G01*
X94393750Y-131075000D01*
G75*
G02*
X94443750Y-131125000I0J-50000D01*
G01*
X94443750Y-132525000D01*
G75*
G02*
X94393750Y-132575000I-50000J0D01*
G01*
G37*
G36*
G01*
X86393750Y-116575000D02*
X84993750Y-116575000D01*
G75*
G02*
X84943750Y-116525000I0J50000D01*
G01*
X84943750Y-115125000D01*
G75*
G02*
X84993750Y-115075000I50000J0D01*
G01*
X86393750Y-115075000D01*
G75*
G02*
X86443750Y-115125000I0J-50000D01*
G01*
X86443750Y-116525000D01*
G75*
G02*
X86393750Y-116575000I-50000J0D01*
G01*
G37*
G36*
G01*
X94393750Y-116575000D02*
X92993750Y-116575000D01*
G75*
G02*
X92943750Y-116525000I0J50000D01*
G01*
X92943750Y-115125000D01*
G75*
G02*
X92993750Y-115075000I50000J0D01*
G01*
X94393750Y-115075000D01*
G75*
G02*
X94443750Y-115125000I0J-50000D01*
G01*
X94443750Y-116525000D01*
G75*
G02*
X94393750Y-116575000I-50000J0D01*
G01*
G37*
G36*
G01*
X82393750Y-124575000D02*
X80993750Y-124575000D01*
G75*
G02*
X80943750Y-124525000I0J50000D01*
G01*
X80943750Y-123125000D01*
G75*
G02*
X80993750Y-123075000I50000J0D01*
G01*
X82393750Y-123075000D01*
G75*
G02*
X82443750Y-123125000I0J-50000D01*
G01*
X82443750Y-124525000D01*
G75*
G02*
X82393750Y-124575000I-50000J0D01*
G01*
G37*
G36*
G01*
X82393750Y-128575000D02*
X80993750Y-128575000D01*
G75*
G02*
X80943750Y-128525000I0J50000D01*
G01*
X80943750Y-127125000D01*
G75*
G02*
X80993750Y-127075000I50000J0D01*
G01*
X82393750Y-127075000D01*
G75*
G02*
X82443750Y-127125000I0J-50000D01*
G01*
X82443750Y-128525000D01*
G75*
G02*
X82393750Y-128575000I-50000J0D01*
G01*
G37*
G36*
G01*
X98393750Y-128575000D02*
X96993750Y-128575000D01*
G75*
G02*
X96943750Y-128525000I0J50000D01*
G01*
X96943750Y-127125000D01*
G75*
G02*
X96993750Y-127075000I50000J0D01*
G01*
X98393750Y-127075000D01*
G75*
G02*
X98443750Y-127125000I0J-50000D01*
G01*
X98443750Y-128525000D01*
G75*
G02*
X98393750Y-128575000I-50000J0D01*
G01*
G37*
G36*
G01*
X90393750Y-132575000D02*
X88993750Y-132575000D01*
G75*
G02*
X88943750Y-132525000I0J50000D01*
G01*
X88943750Y-131125000D01*
G75*
G02*
X88993750Y-131075000I50000J0D01*
G01*
X90393750Y-131075000D01*
G75*
G02*
X90443750Y-131125000I0J-50000D01*
G01*
X90443750Y-132525000D01*
G75*
G02*
X90393750Y-132575000I-50000J0D01*
G01*
G37*
G36*
G01*
X90393750Y-116575000D02*
X88993750Y-116575000D01*
G75*
G02*
X88943750Y-116525000I0J50000D01*
G01*
X88943750Y-115125000D01*
G75*
G02*
X88993750Y-115075000I50000J0D01*
G01*
X90393750Y-115075000D01*
G75*
G02*
X90443750Y-115125000I0J-50000D01*
G01*
X90443750Y-116525000D01*
G75*
G02*
X90393750Y-116575000I-50000J0D01*
G01*
G37*
G36*
G01*
X87743750Y-129155000D02*
X87743750Y-130155000D01*
G75*
G02*
X87693750Y-130205000I-50000J0D01*
G01*
X86293750Y-130205000D01*
G75*
G02*
X86243750Y-130155000I0J50000D01*
G01*
X86243750Y-129155000D01*
G75*
G02*
X86293750Y-129105000I50000J0D01*
G01*
X87693750Y-129105000D01*
G75*
G02*
X87743750Y-129155000I0J-50000D01*
G01*
G37*
G36*
G01*
X87743750Y-127655000D02*
X87743750Y-128655000D01*
G75*
G02*
X87693750Y-128705000I-50000J0D01*
G01*
X86293750Y-128705000D01*
G75*
G02*
X86243750Y-128655000I0J50000D01*
G01*
X86243750Y-127655000D01*
G75*
G02*
X86293750Y-127605000I50000J0D01*
G01*
X87693750Y-127605000D01*
G75*
G02*
X87743750Y-127655000I0J-50000D01*
G01*
G37*
G36*
G01*
X93143750Y-127655000D02*
X93143750Y-128655000D01*
G75*
G02*
X93093750Y-128705000I-50000J0D01*
G01*
X91693750Y-128705000D01*
G75*
G02*
X91643750Y-128655000I0J50000D01*
G01*
X91643750Y-127655000D01*
G75*
G02*
X91693750Y-127605000I50000J0D01*
G01*
X93093750Y-127605000D01*
G75*
G02*
X93143750Y-127655000I0J-50000D01*
G01*
G37*
G36*
G01*
X93143750Y-129155000D02*
X93143750Y-130155000D01*
G75*
G02*
X93093750Y-130205000I-50000J0D01*
G01*
X91693750Y-130205000D01*
G75*
G02*
X91643750Y-130155000I0J50000D01*
G01*
X91643750Y-129155000D01*
G75*
G02*
X91693750Y-129105000I50000J0D01*
G01*
X93093750Y-129105000D01*
G75*
G02*
X93143750Y-129155000I0J-50000D01*
G01*
G37*
D14*
X80168750Y-135951250D03*
X80168750Y-149798750D03*
X96617500Y-152400000D03*
X82770000Y-152400000D03*
G36*
G01*
X82393750Y-139625000D02*
X80993750Y-139625000D01*
G75*
G02*
X80943750Y-139575000I0J50000D01*
G01*
X80943750Y-138175000D01*
G75*
G02*
X80993750Y-138125000I50000J0D01*
G01*
X82393750Y-138125000D01*
G75*
G02*
X82443750Y-138175000I0J-50000D01*
G01*
X82443750Y-139575000D01*
G75*
G02*
X82393750Y-139625000I-50000J0D01*
G01*
G37*
G36*
G01*
X98168750Y-144075000D02*
X97218750Y-144075000D01*
G75*
G02*
X97168750Y-144025000I0J50000D01*
G01*
X97168750Y-142825000D01*
G75*
G02*
X97218750Y-142775000I50000J0D01*
G01*
X98168750Y-142775000D01*
G75*
G02*
X98218750Y-142825000I0J-50000D01*
G01*
X98218750Y-144025000D01*
G75*
G02*
X98168750Y-144075000I-50000J0D01*
G01*
G37*
D10*
X97693750Y-138525000D03*
G36*
G01*
X98168750Y-140625000D02*
X97218750Y-140625000D01*
G75*
G02*
X97168750Y-140575000I0J50000D01*
G01*
X97168750Y-139375000D01*
G75*
G02*
X97218750Y-139325000I50000J0D01*
G01*
X98168750Y-139325000D01*
G75*
G02*
X98218750Y-139375000I0J-50000D01*
G01*
X98218750Y-140575000D01*
G75*
G02*
X98168750Y-140625000I-50000J0D01*
G01*
G37*
G36*
G01*
X98393750Y-145625000D02*
X96993750Y-145625000D01*
G75*
G02*
X96943750Y-145575000I0J50000D01*
G01*
X96943750Y-144175000D01*
G75*
G02*
X96993750Y-144125000I50000J0D01*
G01*
X98393750Y-144125000D01*
G75*
G02*
X98443750Y-144175000I0J-50000D01*
G01*
X98443750Y-145575000D01*
G75*
G02*
X98393750Y-145625000I-50000J0D01*
G01*
G37*
D11*
X85883750Y-140335000D03*
D12*
X84613750Y-142875000D03*
X94773750Y-142875000D03*
D13*
X89693750Y-142875000D03*
D11*
X92233750Y-137795000D03*
G36*
G01*
X94443750Y-139045000D02*
X94443750Y-136545000D01*
G75*
G02*
X94493750Y-136495000I50000J0D01*
G01*
X97043750Y-136495000D01*
G75*
G02*
X97093750Y-136545000I0J-50000D01*
G01*
X97093750Y-139045000D01*
G75*
G02*
X97043750Y-139095000I-50000J0D01*
G01*
X94493750Y-139095000D01*
G75*
G02*
X94443750Y-139045000I0J50000D01*
G01*
G37*
G36*
G01*
X80993750Y-141585000D02*
X80993750Y-139085000D01*
G75*
G02*
X81043750Y-139035000I50000J0D01*
G01*
X83593750Y-139035000D01*
G75*
G02*
X83643750Y-139085000I0J-50000D01*
G01*
X83643750Y-141585000D01*
G75*
G02*
X83593750Y-141635000I-50000J0D01*
G01*
X81043750Y-141635000D01*
G75*
G02*
X80993750Y-141585000I0J50000D01*
G01*
G37*
G36*
G01*
X86393750Y-151625000D02*
X84993750Y-151625000D01*
G75*
G02*
X84943750Y-151575000I0J50000D01*
G01*
X84943750Y-150175000D01*
G75*
G02*
X84993750Y-150125000I50000J0D01*
G01*
X86393750Y-150125000D01*
G75*
G02*
X86443750Y-150175000I0J-50000D01*
G01*
X86443750Y-151575000D01*
G75*
G02*
X86393750Y-151625000I-50000J0D01*
G01*
G37*
G36*
G01*
X94393750Y-151625000D02*
X92993750Y-151625000D01*
G75*
G02*
X92943750Y-151575000I0J50000D01*
G01*
X92943750Y-150175000D01*
G75*
G02*
X92993750Y-150125000I50000J0D01*
G01*
X94393750Y-150125000D01*
G75*
G02*
X94443750Y-150175000I0J-50000D01*
G01*
X94443750Y-151575000D01*
G75*
G02*
X94393750Y-151625000I-50000J0D01*
G01*
G37*
G36*
G01*
X86393750Y-135625000D02*
X84993750Y-135625000D01*
G75*
G02*
X84943750Y-135575000I0J50000D01*
G01*
X84943750Y-134175000D01*
G75*
G02*
X84993750Y-134125000I50000J0D01*
G01*
X86393750Y-134125000D01*
G75*
G02*
X86443750Y-134175000I0J-50000D01*
G01*
X86443750Y-135575000D01*
G75*
G02*
X86393750Y-135625000I-50000J0D01*
G01*
G37*
G36*
G01*
X94393750Y-135625000D02*
X92993750Y-135625000D01*
G75*
G02*
X92943750Y-135575000I0J50000D01*
G01*
X92943750Y-134175000D01*
G75*
G02*
X92993750Y-134125000I50000J0D01*
G01*
X94393750Y-134125000D01*
G75*
G02*
X94443750Y-134175000I0J-50000D01*
G01*
X94443750Y-135575000D01*
G75*
G02*
X94393750Y-135625000I-50000J0D01*
G01*
G37*
G36*
G01*
X82393750Y-143625000D02*
X80993750Y-143625000D01*
G75*
G02*
X80943750Y-143575000I0J50000D01*
G01*
X80943750Y-142175000D01*
G75*
G02*
X80993750Y-142125000I50000J0D01*
G01*
X82393750Y-142125000D01*
G75*
G02*
X82443750Y-142175000I0J-50000D01*
G01*
X82443750Y-143575000D01*
G75*
G02*
X82393750Y-143625000I-50000J0D01*
G01*
G37*
G36*
G01*
X82393750Y-147625000D02*
X80993750Y-147625000D01*
G75*
G02*
X80943750Y-147575000I0J50000D01*
G01*
X80943750Y-146175000D01*
G75*
G02*
X80993750Y-146125000I50000J0D01*
G01*
X82393750Y-146125000D01*
G75*
G02*
X82443750Y-146175000I0J-50000D01*
G01*
X82443750Y-147575000D01*
G75*
G02*
X82393750Y-147625000I-50000J0D01*
G01*
G37*
G36*
G01*
X98393750Y-147625000D02*
X96993750Y-147625000D01*
G75*
G02*
X96943750Y-147575000I0J50000D01*
G01*
X96943750Y-146175000D01*
G75*
G02*
X96993750Y-146125000I50000J0D01*
G01*
X98393750Y-146125000D01*
G75*
G02*
X98443750Y-146175000I0J-50000D01*
G01*
X98443750Y-147575000D01*
G75*
G02*
X98393750Y-147625000I-50000J0D01*
G01*
G37*
G36*
G01*
X90393750Y-151625000D02*
X88993750Y-151625000D01*
G75*
G02*
X88943750Y-151575000I0J50000D01*
G01*
X88943750Y-150175000D01*
G75*
G02*
X88993750Y-150125000I50000J0D01*
G01*
X90393750Y-150125000D01*
G75*
G02*
X90443750Y-150175000I0J-50000D01*
G01*
X90443750Y-151575000D01*
G75*
G02*
X90393750Y-151625000I-50000J0D01*
G01*
G37*
G36*
G01*
X90393750Y-135625000D02*
X88993750Y-135625000D01*
G75*
G02*
X88943750Y-135575000I0J50000D01*
G01*
X88943750Y-134175000D01*
G75*
G02*
X88993750Y-134125000I50000J0D01*
G01*
X90393750Y-134125000D01*
G75*
G02*
X90443750Y-134175000I0J-50000D01*
G01*
X90443750Y-135575000D01*
G75*
G02*
X90393750Y-135625000I-50000J0D01*
G01*
G37*
G36*
G01*
X87743750Y-148205000D02*
X87743750Y-149205000D01*
G75*
G02*
X87693750Y-149255000I-50000J0D01*
G01*
X86293750Y-149255000D01*
G75*
G02*
X86243750Y-149205000I0J50000D01*
G01*
X86243750Y-148205000D01*
G75*
G02*
X86293750Y-148155000I50000J0D01*
G01*
X87693750Y-148155000D01*
G75*
G02*
X87743750Y-148205000I0J-50000D01*
G01*
G37*
G36*
G01*
X87743750Y-146705000D02*
X87743750Y-147705000D01*
G75*
G02*
X87693750Y-147755000I-50000J0D01*
G01*
X86293750Y-147755000D01*
G75*
G02*
X86243750Y-147705000I0J50000D01*
G01*
X86243750Y-146705000D01*
G75*
G02*
X86293750Y-146655000I50000J0D01*
G01*
X87693750Y-146655000D01*
G75*
G02*
X87743750Y-146705000I0J-50000D01*
G01*
G37*
G36*
G01*
X93143750Y-146705000D02*
X93143750Y-147705000D01*
G75*
G02*
X93093750Y-147755000I-50000J0D01*
G01*
X91693750Y-147755000D01*
G75*
G02*
X91643750Y-147705000I0J50000D01*
G01*
X91643750Y-146705000D01*
G75*
G02*
X91693750Y-146655000I50000J0D01*
G01*
X93093750Y-146655000D01*
G75*
G02*
X93143750Y-146705000I0J-50000D01*
G01*
G37*
G36*
G01*
X93143750Y-148205000D02*
X93143750Y-149205000D01*
G75*
G02*
X93093750Y-149255000I-50000J0D01*
G01*
X91693750Y-149255000D01*
G75*
G02*
X91643750Y-149205000I0J50000D01*
G01*
X91643750Y-148205000D01*
G75*
G02*
X91693750Y-148155000I50000J0D01*
G01*
X93093750Y-148155000D01*
G75*
G02*
X93143750Y-148205000I0J-50000D01*
G01*
G37*
D14*
X99218750Y-97851250D03*
X99218750Y-111698750D03*
X115667500Y-114300000D03*
X101820000Y-114300000D03*
G36*
G01*
X101443750Y-101525000D02*
X100043750Y-101525000D01*
G75*
G02*
X99993750Y-101475000I0J50000D01*
G01*
X99993750Y-100075000D01*
G75*
G02*
X100043750Y-100025000I50000J0D01*
G01*
X101443750Y-100025000D01*
G75*
G02*
X101493750Y-100075000I0J-50000D01*
G01*
X101493750Y-101475000D01*
G75*
G02*
X101443750Y-101525000I-50000J0D01*
G01*
G37*
G36*
G01*
X117218750Y-105975000D02*
X116268750Y-105975000D01*
G75*
G02*
X116218750Y-105925000I0J50000D01*
G01*
X116218750Y-104725000D01*
G75*
G02*
X116268750Y-104675000I50000J0D01*
G01*
X117218750Y-104675000D01*
G75*
G02*
X117268750Y-104725000I0J-50000D01*
G01*
X117268750Y-105925000D01*
G75*
G02*
X117218750Y-105975000I-50000J0D01*
G01*
G37*
D10*
X116743750Y-100425000D03*
G36*
G01*
X117218750Y-102525000D02*
X116268750Y-102525000D01*
G75*
G02*
X116218750Y-102475000I0J50000D01*
G01*
X116218750Y-101275000D01*
G75*
G02*
X116268750Y-101225000I50000J0D01*
G01*
X117218750Y-101225000D01*
G75*
G02*
X117268750Y-101275000I0J-50000D01*
G01*
X117268750Y-102475000D01*
G75*
G02*
X117218750Y-102525000I-50000J0D01*
G01*
G37*
G36*
G01*
X117443750Y-107525000D02*
X116043750Y-107525000D01*
G75*
G02*
X115993750Y-107475000I0J50000D01*
G01*
X115993750Y-106075000D01*
G75*
G02*
X116043750Y-106025000I50000J0D01*
G01*
X117443750Y-106025000D01*
G75*
G02*
X117493750Y-106075000I0J-50000D01*
G01*
X117493750Y-107475000D01*
G75*
G02*
X117443750Y-107525000I-50000J0D01*
G01*
G37*
D11*
X104933750Y-102235000D03*
D12*
X103663750Y-104775000D03*
X113823750Y-104775000D03*
D13*
X108743750Y-104775000D03*
D11*
X111283750Y-99695000D03*
G36*
G01*
X113493750Y-100945000D02*
X113493750Y-98445000D01*
G75*
G02*
X113543750Y-98395000I50000J0D01*
G01*
X116093750Y-98395000D01*
G75*
G02*
X116143750Y-98445000I0J-50000D01*
G01*
X116143750Y-100945000D01*
G75*
G02*
X116093750Y-100995000I-50000J0D01*
G01*
X113543750Y-100995000D01*
G75*
G02*
X113493750Y-100945000I0J50000D01*
G01*
G37*
G36*
G01*
X100043750Y-103485000D02*
X100043750Y-100985000D01*
G75*
G02*
X100093750Y-100935000I50000J0D01*
G01*
X102643750Y-100935000D01*
G75*
G02*
X102693750Y-100985000I0J-50000D01*
G01*
X102693750Y-103485000D01*
G75*
G02*
X102643750Y-103535000I-50000J0D01*
G01*
X100093750Y-103535000D01*
G75*
G02*
X100043750Y-103485000I0J50000D01*
G01*
G37*
G36*
G01*
X105443750Y-113525000D02*
X104043750Y-113525000D01*
G75*
G02*
X103993750Y-113475000I0J50000D01*
G01*
X103993750Y-112075000D01*
G75*
G02*
X104043750Y-112025000I50000J0D01*
G01*
X105443750Y-112025000D01*
G75*
G02*
X105493750Y-112075000I0J-50000D01*
G01*
X105493750Y-113475000D01*
G75*
G02*
X105443750Y-113525000I-50000J0D01*
G01*
G37*
G36*
G01*
X113443750Y-113525000D02*
X112043750Y-113525000D01*
G75*
G02*
X111993750Y-113475000I0J50000D01*
G01*
X111993750Y-112075000D01*
G75*
G02*
X112043750Y-112025000I50000J0D01*
G01*
X113443750Y-112025000D01*
G75*
G02*
X113493750Y-112075000I0J-50000D01*
G01*
X113493750Y-113475000D01*
G75*
G02*
X113443750Y-113525000I-50000J0D01*
G01*
G37*
G36*
G01*
X105443750Y-97525000D02*
X104043750Y-97525000D01*
G75*
G02*
X103993750Y-97475000I0J50000D01*
G01*
X103993750Y-96075000D01*
G75*
G02*
X104043750Y-96025000I50000J0D01*
G01*
X105443750Y-96025000D01*
G75*
G02*
X105493750Y-96075000I0J-50000D01*
G01*
X105493750Y-97475000D01*
G75*
G02*
X105443750Y-97525000I-50000J0D01*
G01*
G37*
G36*
G01*
X113443750Y-97525000D02*
X112043750Y-97525000D01*
G75*
G02*
X111993750Y-97475000I0J50000D01*
G01*
X111993750Y-96075000D01*
G75*
G02*
X112043750Y-96025000I50000J0D01*
G01*
X113443750Y-96025000D01*
G75*
G02*
X113493750Y-96075000I0J-50000D01*
G01*
X113493750Y-97475000D01*
G75*
G02*
X113443750Y-97525000I-50000J0D01*
G01*
G37*
G36*
G01*
X101443750Y-105525000D02*
X100043750Y-105525000D01*
G75*
G02*
X99993750Y-105475000I0J50000D01*
G01*
X99993750Y-104075000D01*
G75*
G02*
X100043750Y-104025000I50000J0D01*
G01*
X101443750Y-104025000D01*
G75*
G02*
X101493750Y-104075000I0J-50000D01*
G01*
X101493750Y-105475000D01*
G75*
G02*
X101443750Y-105525000I-50000J0D01*
G01*
G37*
G36*
G01*
X101443750Y-109525000D02*
X100043750Y-109525000D01*
G75*
G02*
X99993750Y-109475000I0J50000D01*
G01*
X99993750Y-108075000D01*
G75*
G02*
X100043750Y-108025000I50000J0D01*
G01*
X101443750Y-108025000D01*
G75*
G02*
X101493750Y-108075000I0J-50000D01*
G01*
X101493750Y-109475000D01*
G75*
G02*
X101443750Y-109525000I-50000J0D01*
G01*
G37*
G36*
G01*
X117443750Y-109525000D02*
X116043750Y-109525000D01*
G75*
G02*
X115993750Y-109475000I0J50000D01*
G01*
X115993750Y-108075000D01*
G75*
G02*
X116043750Y-108025000I50000J0D01*
G01*
X117443750Y-108025000D01*
G75*
G02*
X117493750Y-108075000I0J-50000D01*
G01*
X117493750Y-109475000D01*
G75*
G02*
X117443750Y-109525000I-50000J0D01*
G01*
G37*
G36*
G01*
X109443750Y-113525000D02*
X108043750Y-113525000D01*
G75*
G02*
X107993750Y-113475000I0J50000D01*
G01*
X107993750Y-112075000D01*
G75*
G02*
X108043750Y-112025000I50000J0D01*
G01*
X109443750Y-112025000D01*
G75*
G02*
X109493750Y-112075000I0J-50000D01*
G01*
X109493750Y-113475000D01*
G75*
G02*
X109443750Y-113525000I-50000J0D01*
G01*
G37*
G36*
G01*
X109443750Y-97525000D02*
X108043750Y-97525000D01*
G75*
G02*
X107993750Y-97475000I0J50000D01*
G01*
X107993750Y-96075000D01*
G75*
G02*
X108043750Y-96025000I50000J0D01*
G01*
X109443750Y-96025000D01*
G75*
G02*
X109493750Y-96075000I0J-50000D01*
G01*
X109493750Y-97475000D01*
G75*
G02*
X109443750Y-97525000I-50000J0D01*
G01*
G37*
G36*
G01*
X106793750Y-110105000D02*
X106793750Y-111105000D01*
G75*
G02*
X106743750Y-111155000I-50000J0D01*
G01*
X105343750Y-111155000D01*
G75*
G02*
X105293750Y-111105000I0J50000D01*
G01*
X105293750Y-110105000D01*
G75*
G02*
X105343750Y-110055000I50000J0D01*
G01*
X106743750Y-110055000D01*
G75*
G02*
X106793750Y-110105000I0J-50000D01*
G01*
G37*
G36*
G01*
X106793750Y-108605000D02*
X106793750Y-109605000D01*
G75*
G02*
X106743750Y-109655000I-50000J0D01*
G01*
X105343750Y-109655000D01*
G75*
G02*
X105293750Y-109605000I0J50000D01*
G01*
X105293750Y-108605000D01*
G75*
G02*
X105343750Y-108555000I50000J0D01*
G01*
X106743750Y-108555000D01*
G75*
G02*
X106793750Y-108605000I0J-50000D01*
G01*
G37*
G36*
G01*
X112193750Y-108605000D02*
X112193750Y-109605000D01*
G75*
G02*
X112143750Y-109655000I-50000J0D01*
G01*
X110743750Y-109655000D01*
G75*
G02*
X110693750Y-109605000I0J50000D01*
G01*
X110693750Y-108605000D01*
G75*
G02*
X110743750Y-108555000I50000J0D01*
G01*
X112143750Y-108555000D01*
G75*
G02*
X112193750Y-108605000I0J-50000D01*
G01*
G37*
G36*
G01*
X112193750Y-110105000D02*
X112193750Y-111105000D01*
G75*
G02*
X112143750Y-111155000I-50000J0D01*
G01*
X110743750Y-111155000D01*
G75*
G02*
X110693750Y-111105000I0J50000D01*
G01*
X110693750Y-110105000D01*
G75*
G02*
X110743750Y-110055000I50000J0D01*
G01*
X112143750Y-110055000D01*
G75*
G02*
X112193750Y-110105000I0J-50000D01*
G01*
G37*
D14*
X99218750Y-135951250D03*
X99218750Y-149798750D03*
X115667500Y-152400000D03*
X101820000Y-152400000D03*
G36*
G01*
X101443750Y-139625000D02*
X100043750Y-139625000D01*
G75*
G02*
X99993750Y-139575000I0J50000D01*
G01*
X99993750Y-138175000D01*
G75*
G02*
X100043750Y-138125000I50000J0D01*
G01*
X101443750Y-138125000D01*
G75*
G02*
X101493750Y-138175000I0J-50000D01*
G01*
X101493750Y-139575000D01*
G75*
G02*
X101443750Y-139625000I-50000J0D01*
G01*
G37*
G36*
G01*
X117218750Y-144075000D02*
X116268750Y-144075000D01*
G75*
G02*
X116218750Y-144025000I0J50000D01*
G01*
X116218750Y-142825000D01*
G75*
G02*
X116268750Y-142775000I50000J0D01*
G01*
X117218750Y-142775000D01*
G75*
G02*
X117268750Y-142825000I0J-50000D01*
G01*
X117268750Y-144025000D01*
G75*
G02*
X117218750Y-144075000I-50000J0D01*
G01*
G37*
D10*
X116743750Y-138525000D03*
G36*
G01*
X117218750Y-140625000D02*
X116268750Y-140625000D01*
G75*
G02*
X116218750Y-140575000I0J50000D01*
G01*
X116218750Y-139375000D01*
G75*
G02*
X116268750Y-139325000I50000J0D01*
G01*
X117218750Y-139325000D01*
G75*
G02*
X117268750Y-139375000I0J-50000D01*
G01*
X117268750Y-140575000D01*
G75*
G02*
X117218750Y-140625000I-50000J0D01*
G01*
G37*
G36*
G01*
X117443750Y-145625000D02*
X116043750Y-145625000D01*
G75*
G02*
X115993750Y-145575000I0J50000D01*
G01*
X115993750Y-144175000D01*
G75*
G02*
X116043750Y-144125000I50000J0D01*
G01*
X117443750Y-144125000D01*
G75*
G02*
X117493750Y-144175000I0J-50000D01*
G01*
X117493750Y-145575000D01*
G75*
G02*
X117443750Y-145625000I-50000J0D01*
G01*
G37*
D11*
X104933750Y-140335000D03*
D12*
X103663750Y-142875000D03*
X113823750Y-142875000D03*
D13*
X108743750Y-142875000D03*
D11*
X111283750Y-137795000D03*
G36*
G01*
X113493750Y-139045000D02*
X113493750Y-136545000D01*
G75*
G02*
X113543750Y-136495000I50000J0D01*
G01*
X116093750Y-136495000D01*
G75*
G02*
X116143750Y-136545000I0J-50000D01*
G01*
X116143750Y-139045000D01*
G75*
G02*
X116093750Y-139095000I-50000J0D01*
G01*
X113543750Y-139095000D01*
G75*
G02*
X113493750Y-139045000I0J50000D01*
G01*
G37*
G36*
G01*
X100043750Y-141585000D02*
X100043750Y-139085000D01*
G75*
G02*
X100093750Y-139035000I50000J0D01*
G01*
X102643750Y-139035000D01*
G75*
G02*
X102693750Y-139085000I0J-50000D01*
G01*
X102693750Y-141585000D01*
G75*
G02*
X102643750Y-141635000I-50000J0D01*
G01*
X100093750Y-141635000D01*
G75*
G02*
X100043750Y-141585000I0J50000D01*
G01*
G37*
G36*
G01*
X105443750Y-151625000D02*
X104043750Y-151625000D01*
G75*
G02*
X103993750Y-151575000I0J50000D01*
G01*
X103993750Y-150175000D01*
G75*
G02*
X104043750Y-150125000I50000J0D01*
G01*
X105443750Y-150125000D01*
G75*
G02*
X105493750Y-150175000I0J-50000D01*
G01*
X105493750Y-151575000D01*
G75*
G02*
X105443750Y-151625000I-50000J0D01*
G01*
G37*
G36*
G01*
X113443750Y-151625000D02*
X112043750Y-151625000D01*
G75*
G02*
X111993750Y-151575000I0J50000D01*
G01*
X111993750Y-150175000D01*
G75*
G02*
X112043750Y-150125000I50000J0D01*
G01*
X113443750Y-150125000D01*
G75*
G02*
X113493750Y-150175000I0J-50000D01*
G01*
X113493750Y-151575000D01*
G75*
G02*
X113443750Y-151625000I-50000J0D01*
G01*
G37*
G36*
G01*
X105443750Y-135625000D02*
X104043750Y-135625000D01*
G75*
G02*
X103993750Y-135575000I0J50000D01*
G01*
X103993750Y-134175000D01*
G75*
G02*
X104043750Y-134125000I50000J0D01*
G01*
X105443750Y-134125000D01*
G75*
G02*
X105493750Y-134175000I0J-50000D01*
G01*
X105493750Y-135575000D01*
G75*
G02*
X105443750Y-135625000I-50000J0D01*
G01*
G37*
G36*
G01*
X113443750Y-135625000D02*
X112043750Y-135625000D01*
G75*
G02*
X111993750Y-135575000I0J50000D01*
G01*
X111993750Y-134175000D01*
G75*
G02*
X112043750Y-134125000I50000J0D01*
G01*
X113443750Y-134125000D01*
G75*
G02*
X113493750Y-134175000I0J-50000D01*
G01*
X113493750Y-135575000D01*
G75*
G02*
X113443750Y-135625000I-50000J0D01*
G01*
G37*
G36*
G01*
X101443750Y-143625000D02*
X100043750Y-143625000D01*
G75*
G02*
X99993750Y-143575000I0J50000D01*
G01*
X99993750Y-142175000D01*
G75*
G02*
X100043750Y-142125000I50000J0D01*
G01*
X101443750Y-142125000D01*
G75*
G02*
X101493750Y-142175000I0J-50000D01*
G01*
X101493750Y-143575000D01*
G75*
G02*
X101443750Y-143625000I-50000J0D01*
G01*
G37*
G36*
G01*
X101443750Y-147625000D02*
X100043750Y-147625000D01*
G75*
G02*
X99993750Y-147575000I0J50000D01*
G01*
X99993750Y-146175000D01*
G75*
G02*
X100043750Y-146125000I50000J0D01*
G01*
X101443750Y-146125000D01*
G75*
G02*
X101493750Y-146175000I0J-50000D01*
G01*
X101493750Y-147575000D01*
G75*
G02*
X101443750Y-147625000I-50000J0D01*
G01*
G37*
G36*
G01*
X117443750Y-147625000D02*
X116043750Y-147625000D01*
G75*
G02*
X115993750Y-147575000I0J50000D01*
G01*
X115993750Y-146175000D01*
G75*
G02*
X116043750Y-146125000I50000J0D01*
G01*
X117443750Y-146125000D01*
G75*
G02*
X117493750Y-146175000I0J-50000D01*
G01*
X117493750Y-147575000D01*
G75*
G02*
X117443750Y-147625000I-50000J0D01*
G01*
G37*
G36*
G01*
X109443750Y-151625000D02*
X108043750Y-151625000D01*
G75*
G02*
X107993750Y-151575000I0J50000D01*
G01*
X107993750Y-150175000D01*
G75*
G02*
X108043750Y-150125000I50000J0D01*
G01*
X109443750Y-150125000D01*
G75*
G02*
X109493750Y-150175000I0J-50000D01*
G01*
X109493750Y-151575000D01*
G75*
G02*
X109443750Y-151625000I-50000J0D01*
G01*
G37*
G36*
G01*
X109443750Y-135625000D02*
X108043750Y-135625000D01*
G75*
G02*
X107993750Y-135575000I0J50000D01*
G01*
X107993750Y-134175000D01*
G75*
G02*
X108043750Y-134125000I50000J0D01*
G01*
X109443750Y-134125000D01*
G75*
G02*
X109493750Y-134175000I0J-50000D01*
G01*
X109493750Y-135575000D01*
G75*
G02*
X109443750Y-135625000I-50000J0D01*
G01*
G37*
G36*
G01*
X106793750Y-148205000D02*
X106793750Y-149205000D01*
G75*
G02*
X106743750Y-149255000I-50000J0D01*
G01*
X105343750Y-149255000D01*
G75*
G02*
X105293750Y-149205000I0J50000D01*
G01*
X105293750Y-148205000D01*
G75*
G02*
X105343750Y-148155000I50000J0D01*
G01*
X106743750Y-148155000D01*
G75*
G02*
X106793750Y-148205000I0J-50000D01*
G01*
G37*
G36*
G01*
X106793750Y-146705000D02*
X106793750Y-147705000D01*
G75*
G02*
X106743750Y-147755000I-50000J0D01*
G01*
X105343750Y-147755000D01*
G75*
G02*
X105293750Y-147705000I0J50000D01*
G01*
X105293750Y-146705000D01*
G75*
G02*
X105343750Y-146655000I50000J0D01*
G01*
X106743750Y-146655000D01*
G75*
G02*
X106793750Y-146705000I0J-50000D01*
G01*
G37*
G36*
G01*
X112193750Y-146705000D02*
X112193750Y-147705000D01*
G75*
G02*
X112143750Y-147755000I-50000J0D01*
G01*
X110743750Y-147755000D01*
G75*
G02*
X110693750Y-147705000I0J50000D01*
G01*
X110693750Y-146705000D01*
G75*
G02*
X110743750Y-146655000I50000J0D01*
G01*
X112143750Y-146655000D01*
G75*
G02*
X112193750Y-146705000I0J-50000D01*
G01*
G37*
G36*
G01*
X112193750Y-148205000D02*
X112193750Y-149205000D01*
G75*
G02*
X112143750Y-149255000I-50000J0D01*
G01*
X110743750Y-149255000D01*
G75*
G02*
X110693750Y-149205000I0J50000D01*
G01*
X110693750Y-148205000D01*
G75*
G02*
X110743750Y-148155000I50000J0D01*
G01*
X112143750Y-148155000D01*
G75*
G02*
X112193750Y-148205000I0J-50000D01*
G01*
G37*
D14*
X80168750Y-78801250D03*
X80168750Y-92648750D03*
X96617500Y-95250000D03*
X82770000Y-95250000D03*
G36*
G01*
X82393750Y-82475000D02*
X80993750Y-82475000D01*
G75*
G02*
X80943750Y-82425000I0J50000D01*
G01*
X80943750Y-81025000D01*
G75*
G02*
X80993750Y-80975000I50000J0D01*
G01*
X82393750Y-80975000D01*
G75*
G02*
X82443750Y-81025000I0J-50000D01*
G01*
X82443750Y-82425000D01*
G75*
G02*
X82393750Y-82475000I-50000J0D01*
G01*
G37*
G36*
G01*
X98168750Y-86925000D02*
X97218750Y-86925000D01*
G75*
G02*
X97168750Y-86875000I0J50000D01*
G01*
X97168750Y-85675000D01*
G75*
G02*
X97218750Y-85625000I50000J0D01*
G01*
X98168750Y-85625000D01*
G75*
G02*
X98218750Y-85675000I0J-50000D01*
G01*
X98218750Y-86875000D01*
G75*
G02*
X98168750Y-86925000I-50000J0D01*
G01*
G37*
D10*
X97693750Y-81375000D03*
G36*
G01*
X98168750Y-83475000D02*
X97218750Y-83475000D01*
G75*
G02*
X97168750Y-83425000I0J50000D01*
G01*
X97168750Y-82225000D01*
G75*
G02*
X97218750Y-82175000I50000J0D01*
G01*
X98168750Y-82175000D01*
G75*
G02*
X98218750Y-82225000I0J-50000D01*
G01*
X98218750Y-83425000D01*
G75*
G02*
X98168750Y-83475000I-50000J0D01*
G01*
G37*
G36*
G01*
X98393750Y-88475000D02*
X96993750Y-88475000D01*
G75*
G02*
X96943750Y-88425000I0J50000D01*
G01*
X96943750Y-87025000D01*
G75*
G02*
X96993750Y-86975000I50000J0D01*
G01*
X98393750Y-86975000D01*
G75*
G02*
X98443750Y-87025000I0J-50000D01*
G01*
X98443750Y-88425000D01*
G75*
G02*
X98393750Y-88475000I-50000J0D01*
G01*
G37*
D11*
X85883750Y-83185000D03*
D12*
X84613750Y-85725000D03*
X94773750Y-85725000D03*
D13*
X89693750Y-85725000D03*
D11*
X92233750Y-80645000D03*
G36*
G01*
X94443750Y-81895000D02*
X94443750Y-79395000D01*
G75*
G02*
X94493750Y-79345000I50000J0D01*
G01*
X97043750Y-79345000D01*
G75*
G02*
X97093750Y-79395000I0J-50000D01*
G01*
X97093750Y-81895000D01*
G75*
G02*
X97043750Y-81945000I-50000J0D01*
G01*
X94493750Y-81945000D01*
G75*
G02*
X94443750Y-81895000I0J50000D01*
G01*
G37*
G36*
G01*
X80993750Y-84435000D02*
X80993750Y-81935000D01*
G75*
G02*
X81043750Y-81885000I50000J0D01*
G01*
X83593750Y-81885000D01*
G75*
G02*
X83643750Y-81935000I0J-50000D01*
G01*
X83643750Y-84435000D01*
G75*
G02*
X83593750Y-84485000I-50000J0D01*
G01*
X81043750Y-84485000D01*
G75*
G02*
X80993750Y-84435000I0J50000D01*
G01*
G37*
G36*
G01*
X86393750Y-94475000D02*
X84993750Y-94475000D01*
G75*
G02*
X84943750Y-94425000I0J50000D01*
G01*
X84943750Y-93025000D01*
G75*
G02*
X84993750Y-92975000I50000J0D01*
G01*
X86393750Y-92975000D01*
G75*
G02*
X86443750Y-93025000I0J-50000D01*
G01*
X86443750Y-94425000D01*
G75*
G02*
X86393750Y-94475000I-50000J0D01*
G01*
G37*
G36*
G01*
X94393750Y-94475000D02*
X92993750Y-94475000D01*
G75*
G02*
X92943750Y-94425000I0J50000D01*
G01*
X92943750Y-93025000D01*
G75*
G02*
X92993750Y-92975000I50000J0D01*
G01*
X94393750Y-92975000D01*
G75*
G02*
X94443750Y-93025000I0J-50000D01*
G01*
X94443750Y-94425000D01*
G75*
G02*
X94393750Y-94475000I-50000J0D01*
G01*
G37*
G36*
G01*
X86393750Y-78475000D02*
X84993750Y-78475000D01*
G75*
G02*
X84943750Y-78425000I0J50000D01*
G01*
X84943750Y-77025000D01*
G75*
G02*
X84993750Y-76975000I50000J0D01*
G01*
X86393750Y-76975000D01*
G75*
G02*
X86443750Y-77025000I0J-50000D01*
G01*
X86443750Y-78425000D01*
G75*
G02*
X86393750Y-78475000I-50000J0D01*
G01*
G37*
G36*
G01*
X94393750Y-78475000D02*
X92993750Y-78475000D01*
G75*
G02*
X92943750Y-78425000I0J50000D01*
G01*
X92943750Y-77025000D01*
G75*
G02*
X92993750Y-76975000I50000J0D01*
G01*
X94393750Y-76975000D01*
G75*
G02*
X94443750Y-77025000I0J-50000D01*
G01*
X94443750Y-78425000D01*
G75*
G02*
X94393750Y-78475000I-50000J0D01*
G01*
G37*
G36*
G01*
X82393750Y-86475000D02*
X80993750Y-86475000D01*
G75*
G02*
X80943750Y-86425000I0J50000D01*
G01*
X80943750Y-85025000D01*
G75*
G02*
X80993750Y-84975000I50000J0D01*
G01*
X82393750Y-84975000D01*
G75*
G02*
X82443750Y-85025000I0J-50000D01*
G01*
X82443750Y-86425000D01*
G75*
G02*
X82393750Y-86475000I-50000J0D01*
G01*
G37*
G36*
G01*
X82393750Y-90475000D02*
X80993750Y-90475000D01*
G75*
G02*
X80943750Y-90425000I0J50000D01*
G01*
X80943750Y-89025000D01*
G75*
G02*
X80993750Y-88975000I50000J0D01*
G01*
X82393750Y-88975000D01*
G75*
G02*
X82443750Y-89025000I0J-50000D01*
G01*
X82443750Y-90425000D01*
G75*
G02*
X82393750Y-90475000I-50000J0D01*
G01*
G37*
G36*
G01*
X98393750Y-90475000D02*
X96993750Y-90475000D01*
G75*
G02*
X96943750Y-90425000I0J50000D01*
G01*
X96943750Y-89025000D01*
G75*
G02*
X96993750Y-88975000I50000J0D01*
G01*
X98393750Y-88975000D01*
G75*
G02*
X98443750Y-89025000I0J-50000D01*
G01*
X98443750Y-90425000D01*
G75*
G02*
X98393750Y-90475000I-50000J0D01*
G01*
G37*
G36*
G01*
X90393750Y-94475000D02*
X88993750Y-94475000D01*
G75*
G02*
X88943750Y-94425000I0J50000D01*
G01*
X88943750Y-93025000D01*
G75*
G02*
X88993750Y-92975000I50000J0D01*
G01*
X90393750Y-92975000D01*
G75*
G02*
X90443750Y-93025000I0J-50000D01*
G01*
X90443750Y-94425000D01*
G75*
G02*
X90393750Y-94475000I-50000J0D01*
G01*
G37*
G36*
G01*
X90393750Y-78475000D02*
X88993750Y-78475000D01*
G75*
G02*
X88943750Y-78425000I0J50000D01*
G01*
X88943750Y-77025000D01*
G75*
G02*
X88993750Y-76975000I50000J0D01*
G01*
X90393750Y-76975000D01*
G75*
G02*
X90443750Y-77025000I0J-50000D01*
G01*
X90443750Y-78425000D01*
G75*
G02*
X90393750Y-78475000I-50000J0D01*
G01*
G37*
G36*
G01*
X87743750Y-91055000D02*
X87743750Y-92055000D01*
G75*
G02*
X87693750Y-92105000I-50000J0D01*
G01*
X86293750Y-92105000D01*
G75*
G02*
X86243750Y-92055000I0J50000D01*
G01*
X86243750Y-91055000D01*
G75*
G02*
X86293750Y-91005000I50000J0D01*
G01*
X87693750Y-91005000D01*
G75*
G02*
X87743750Y-91055000I0J-50000D01*
G01*
G37*
G36*
G01*
X87743750Y-89555000D02*
X87743750Y-90555000D01*
G75*
G02*
X87693750Y-90605000I-50000J0D01*
G01*
X86293750Y-90605000D01*
G75*
G02*
X86243750Y-90555000I0J50000D01*
G01*
X86243750Y-89555000D01*
G75*
G02*
X86293750Y-89505000I50000J0D01*
G01*
X87693750Y-89505000D01*
G75*
G02*
X87743750Y-89555000I0J-50000D01*
G01*
G37*
G36*
G01*
X93143750Y-89555000D02*
X93143750Y-90555000D01*
G75*
G02*
X93093750Y-90605000I-50000J0D01*
G01*
X91693750Y-90605000D01*
G75*
G02*
X91643750Y-90555000I0J50000D01*
G01*
X91643750Y-89555000D01*
G75*
G02*
X91693750Y-89505000I50000J0D01*
G01*
X93093750Y-89505000D01*
G75*
G02*
X93143750Y-89555000I0J-50000D01*
G01*
G37*
G36*
G01*
X93143750Y-91055000D02*
X93143750Y-92055000D01*
G75*
G02*
X93093750Y-92105000I-50000J0D01*
G01*
X91693750Y-92105000D01*
G75*
G02*
X91643750Y-92055000I0J50000D01*
G01*
X91643750Y-91055000D01*
G75*
G02*
X91693750Y-91005000I50000J0D01*
G01*
X93093750Y-91005000D01*
G75*
G02*
X93143750Y-91055000I0J-50000D01*
G01*
G37*
D14*
X42068750Y-78801250D03*
X42068750Y-92648750D03*
X58517500Y-95250000D03*
X44670000Y-95250000D03*
G36*
G01*
X44293750Y-82475000D02*
X42893750Y-82475000D01*
G75*
G02*
X42843750Y-82425000I0J50000D01*
G01*
X42843750Y-81025000D01*
G75*
G02*
X42893750Y-80975000I50000J0D01*
G01*
X44293750Y-80975000D01*
G75*
G02*
X44343750Y-81025000I0J-50000D01*
G01*
X44343750Y-82425000D01*
G75*
G02*
X44293750Y-82475000I-50000J0D01*
G01*
G37*
G36*
G01*
X60068750Y-86925000D02*
X59118750Y-86925000D01*
G75*
G02*
X59068750Y-86875000I0J50000D01*
G01*
X59068750Y-85675000D01*
G75*
G02*
X59118750Y-85625000I50000J0D01*
G01*
X60068750Y-85625000D01*
G75*
G02*
X60118750Y-85675000I0J-50000D01*
G01*
X60118750Y-86875000D01*
G75*
G02*
X60068750Y-86925000I-50000J0D01*
G01*
G37*
D10*
X59593750Y-81375000D03*
G36*
G01*
X60068750Y-83475000D02*
X59118750Y-83475000D01*
G75*
G02*
X59068750Y-83425000I0J50000D01*
G01*
X59068750Y-82225000D01*
G75*
G02*
X59118750Y-82175000I50000J0D01*
G01*
X60068750Y-82175000D01*
G75*
G02*
X60118750Y-82225000I0J-50000D01*
G01*
X60118750Y-83425000D01*
G75*
G02*
X60068750Y-83475000I-50000J0D01*
G01*
G37*
G36*
G01*
X60293750Y-88475000D02*
X58893750Y-88475000D01*
G75*
G02*
X58843750Y-88425000I0J50000D01*
G01*
X58843750Y-87025000D01*
G75*
G02*
X58893750Y-86975000I50000J0D01*
G01*
X60293750Y-86975000D01*
G75*
G02*
X60343750Y-87025000I0J-50000D01*
G01*
X60343750Y-88425000D01*
G75*
G02*
X60293750Y-88475000I-50000J0D01*
G01*
G37*
D11*
X47783750Y-83185000D03*
D12*
X46513750Y-85725000D03*
X56673750Y-85725000D03*
D13*
X51593750Y-85725000D03*
D11*
X54133750Y-80645000D03*
G36*
G01*
X56343750Y-81895000D02*
X56343750Y-79395000D01*
G75*
G02*
X56393750Y-79345000I50000J0D01*
G01*
X58943750Y-79345000D01*
G75*
G02*
X58993750Y-79395000I0J-50000D01*
G01*
X58993750Y-81895000D01*
G75*
G02*
X58943750Y-81945000I-50000J0D01*
G01*
X56393750Y-81945000D01*
G75*
G02*
X56343750Y-81895000I0J50000D01*
G01*
G37*
G36*
G01*
X42893750Y-84435000D02*
X42893750Y-81935000D01*
G75*
G02*
X42943750Y-81885000I50000J0D01*
G01*
X45493750Y-81885000D01*
G75*
G02*
X45543750Y-81935000I0J-50000D01*
G01*
X45543750Y-84435000D01*
G75*
G02*
X45493750Y-84485000I-50000J0D01*
G01*
X42943750Y-84485000D01*
G75*
G02*
X42893750Y-84435000I0J50000D01*
G01*
G37*
G36*
G01*
X48293750Y-94475000D02*
X46893750Y-94475000D01*
G75*
G02*
X46843750Y-94425000I0J50000D01*
G01*
X46843750Y-93025000D01*
G75*
G02*
X46893750Y-92975000I50000J0D01*
G01*
X48293750Y-92975000D01*
G75*
G02*
X48343750Y-93025000I0J-50000D01*
G01*
X48343750Y-94425000D01*
G75*
G02*
X48293750Y-94475000I-50000J0D01*
G01*
G37*
G36*
G01*
X56293750Y-94475000D02*
X54893750Y-94475000D01*
G75*
G02*
X54843750Y-94425000I0J50000D01*
G01*
X54843750Y-93025000D01*
G75*
G02*
X54893750Y-92975000I50000J0D01*
G01*
X56293750Y-92975000D01*
G75*
G02*
X56343750Y-93025000I0J-50000D01*
G01*
X56343750Y-94425000D01*
G75*
G02*
X56293750Y-94475000I-50000J0D01*
G01*
G37*
G36*
G01*
X48293750Y-78475000D02*
X46893750Y-78475000D01*
G75*
G02*
X46843750Y-78425000I0J50000D01*
G01*
X46843750Y-77025000D01*
G75*
G02*
X46893750Y-76975000I50000J0D01*
G01*
X48293750Y-76975000D01*
G75*
G02*
X48343750Y-77025000I0J-50000D01*
G01*
X48343750Y-78425000D01*
G75*
G02*
X48293750Y-78475000I-50000J0D01*
G01*
G37*
G36*
G01*
X56293750Y-78475000D02*
X54893750Y-78475000D01*
G75*
G02*
X54843750Y-78425000I0J50000D01*
G01*
X54843750Y-77025000D01*
G75*
G02*
X54893750Y-76975000I50000J0D01*
G01*
X56293750Y-76975000D01*
G75*
G02*
X56343750Y-77025000I0J-50000D01*
G01*
X56343750Y-78425000D01*
G75*
G02*
X56293750Y-78475000I-50000J0D01*
G01*
G37*
G36*
G01*
X44293750Y-86475000D02*
X42893750Y-86475000D01*
G75*
G02*
X42843750Y-86425000I0J50000D01*
G01*
X42843750Y-85025000D01*
G75*
G02*
X42893750Y-84975000I50000J0D01*
G01*
X44293750Y-84975000D01*
G75*
G02*
X44343750Y-85025000I0J-50000D01*
G01*
X44343750Y-86425000D01*
G75*
G02*
X44293750Y-86475000I-50000J0D01*
G01*
G37*
G36*
G01*
X44293750Y-90475000D02*
X42893750Y-90475000D01*
G75*
G02*
X42843750Y-90425000I0J50000D01*
G01*
X42843750Y-89025000D01*
G75*
G02*
X42893750Y-88975000I50000J0D01*
G01*
X44293750Y-88975000D01*
G75*
G02*
X44343750Y-89025000I0J-50000D01*
G01*
X44343750Y-90425000D01*
G75*
G02*
X44293750Y-90475000I-50000J0D01*
G01*
G37*
G36*
G01*
X60293750Y-90475000D02*
X58893750Y-90475000D01*
G75*
G02*
X58843750Y-90425000I0J50000D01*
G01*
X58843750Y-89025000D01*
G75*
G02*
X58893750Y-88975000I50000J0D01*
G01*
X60293750Y-88975000D01*
G75*
G02*
X60343750Y-89025000I0J-50000D01*
G01*
X60343750Y-90425000D01*
G75*
G02*
X60293750Y-90475000I-50000J0D01*
G01*
G37*
G36*
G01*
X52293750Y-94475000D02*
X50893750Y-94475000D01*
G75*
G02*
X50843750Y-94425000I0J50000D01*
G01*
X50843750Y-93025000D01*
G75*
G02*
X50893750Y-92975000I50000J0D01*
G01*
X52293750Y-92975000D01*
G75*
G02*
X52343750Y-93025000I0J-50000D01*
G01*
X52343750Y-94425000D01*
G75*
G02*
X52293750Y-94475000I-50000J0D01*
G01*
G37*
G36*
G01*
X52293750Y-78475000D02*
X50893750Y-78475000D01*
G75*
G02*
X50843750Y-78425000I0J50000D01*
G01*
X50843750Y-77025000D01*
G75*
G02*
X50893750Y-76975000I50000J0D01*
G01*
X52293750Y-76975000D01*
G75*
G02*
X52343750Y-77025000I0J-50000D01*
G01*
X52343750Y-78425000D01*
G75*
G02*
X52293750Y-78475000I-50000J0D01*
G01*
G37*
G36*
G01*
X49643750Y-91055000D02*
X49643750Y-92055000D01*
G75*
G02*
X49593750Y-92105000I-50000J0D01*
G01*
X48193750Y-92105000D01*
G75*
G02*
X48143750Y-92055000I0J50000D01*
G01*
X48143750Y-91055000D01*
G75*
G02*
X48193750Y-91005000I50000J0D01*
G01*
X49593750Y-91005000D01*
G75*
G02*
X49643750Y-91055000I0J-50000D01*
G01*
G37*
G36*
G01*
X49643750Y-89555000D02*
X49643750Y-90555000D01*
G75*
G02*
X49593750Y-90605000I-50000J0D01*
G01*
X48193750Y-90605000D01*
G75*
G02*
X48143750Y-90555000I0J50000D01*
G01*
X48143750Y-89555000D01*
G75*
G02*
X48193750Y-89505000I50000J0D01*
G01*
X49593750Y-89505000D01*
G75*
G02*
X49643750Y-89555000I0J-50000D01*
G01*
G37*
G36*
G01*
X55043750Y-89555000D02*
X55043750Y-90555000D01*
G75*
G02*
X54993750Y-90605000I-50000J0D01*
G01*
X53593750Y-90605000D01*
G75*
G02*
X53543750Y-90555000I0J50000D01*
G01*
X53543750Y-89555000D01*
G75*
G02*
X53593750Y-89505000I50000J0D01*
G01*
X54993750Y-89505000D01*
G75*
G02*
X55043750Y-89555000I0J-50000D01*
G01*
G37*
G36*
G01*
X55043750Y-91055000D02*
X55043750Y-92055000D01*
G75*
G02*
X54993750Y-92105000I-50000J0D01*
G01*
X53593750Y-92105000D01*
G75*
G02*
X53543750Y-92055000I0J50000D01*
G01*
X53543750Y-91055000D01*
G75*
G02*
X53593750Y-91005000I50000J0D01*
G01*
X54993750Y-91005000D01*
G75*
G02*
X55043750Y-91055000I0J-50000D01*
G01*
G37*
D14*
X42068750Y-97851250D03*
X42068750Y-111698750D03*
X58517500Y-114300000D03*
X44670000Y-114300000D03*
G36*
G01*
X44293750Y-101525000D02*
X42893750Y-101525000D01*
G75*
G02*
X42843750Y-101475000I0J50000D01*
G01*
X42843750Y-100075000D01*
G75*
G02*
X42893750Y-100025000I50000J0D01*
G01*
X44293750Y-100025000D01*
G75*
G02*
X44343750Y-100075000I0J-50000D01*
G01*
X44343750Y-101475000D01*
G75*
G02*
X44293750Y-101525000I-50000J0D01*
G01*
G37*
G36*
G01*
X60068750Y-105975000D02*
X59118750Y-105975000D01*
G75*
G02*
X59068750Y-105925000I0J50000D01*
G01*
X59068750Y-104725000D01*
G75*
G02*
X59118750Y-104675000I50000J0D01*
G01*
X60068750Y-104675000D01*
G75*
G02*
X60118750Y-104725000I0J-50000D01*
G01*
X60118750Y-105925000D01*
G75*
G02*
X60068750Y-105975000I-50000J0D01*
G01*
G37*
D10*
X59593750Y-100425000D03*
G36*
G01*
X60068750Y-102525000D02*
X59118750Y-102525000D01*
G75*
G02*
X59068750Y-102475000I0J50000D01*
G01*
X59068750Y-101275000D01*
G75*
G02*
X59118750Y-101225000I50000J0D01*
G01*
X60068750Y-101225000D01*
G75*
G02*
X60118750Y-101275000I0J-50000D01*
G01*
X60118750Y-102475000D01*
G75*
G02*
X60068750Y-102525000I-50000J0D01*
G01*
G37*
G36*
G01*
X60293750Y-107525000D02*
X58893750Y-107525000D01*
G75*
G02*
X58843750Y-107475000I0J50000D01*
G01*
X58843750Y-106075000D01*
G75*
G02*
X58893750Y-106025000I50000J0D01*
G01*
X60293750Y-106025000D01*
G75*
G02*
X60343750Y-106075000I0J-50000D01*
G01*
X60343750Y-107475000D01*
G75*
G02*
X60293750Y-107525000I-50000J0D01*
G01*
G37*
D11*
X47783750Y-102235000D03*
D12*
X46513750Y-104775000D03*
X56673750Y-104775000D03*
D13*
X51593750Y-104775000D03*
D11*
X54133750Y-99695000D03*
G36*
G01*
X56343750Y-100945000D02*
X56343750Y-98445000D01*
G75*
G02*
X56393750Y-98395000I50000J0D01*
G01*
X58943750Y-98395000D01*
G75*
G02*
X58993750Y-98445000I0J-50000D01*
G01*
X58993750Y-100945000D01*
G75*
G02*
X58943750Y-100995000I-50000J0D01*
G01*
X56393750Y-100995000D01*
G75*
G02*
X56343750Y-100945000I0J50000D01*
G01*
G37*
G36*
G01*
X42893750Y-103485000D02*
X42893750Y-100985000D01*
G75*
G02*
X42943750Y-100935000I50000J0D01*
G01*
X45493750Y-100935000D01*
G75*
G02*
X45543750Y-100985000I0J-50000D01*
G01*
X45543750Y-103485000D01*
G75*
G02*
X45493750Y-103535000I-50000J0D01*
G01*
X42943750Y-103535000D01*
G75*
G02*
X42893750Y-103485000I0J50000D01*
G01*
G37*
G36*
G01*
X48293750Y-113525000D02*
X46893750Y-113525000D01*
G75*
G02*
X46843750Y-113475000I0J50000D01*
G01*
X46843750Y-112075000D01*
G75*
G02*
X46893750Y-112025000I50000J0D01*
G01*
X48293750Y-112025000D01*
G75*
G02*
X48343750Y-112075000I0J-50000D01*
G01*
X48343750Y-113475000D01*
G75*
G02*
X48293750Y-113525000I-50000J0D01*
G01*
G37*
G36*
G01*
X56293750Y-113525000D02*
X54893750Y-113525000D01*
G75*
G02*
X54843750Y-113475000I0J50000D01*
G01*
X54843750Y-112075000D01*
G75*
G02*
X54893750Y-112025000I50000J0D01*
G01*
X56293750Y-112025000D01*
G75*
G02*
X56343750Y-112075000I0J-50000D01*
G01*
X56343750Y-113475000D01*
G75*
G02*
X56293750Y-113525000I-50000J0D01*
G01*
G37*
G36*
G01*
X48293750Y-97525000D02*
X46893750Y-97525000D01*
G75*
G02*
X46843750Y-97475000I0J50000D01*
G01*
X46843750Y-96075000D01*
G75*
G02*
X46893750Y-96025000I50000J0D01*
G01*
X48293750Y-96025000D01*
G75*
G02*
X48343750Y-96075000I0J-50000D01*
G01*
X48343750Y-97475000D01*
G75*
G02*
X48293750Y-97525000I-50000J0D01*
G01*
G37*
G36*
G01*
X56293750Y-97525000D02*
X54893750Y-97525000D01*
G75*
G02*
X54843750Y-97475000I0J50000D01*
G01*
X54843750Y-96075000D01*
G75*
G02*
X54893750Y-96025000I50000J0D01*
G01*
X56293750Y-96025000D01*
G75*
G02*
X56343750Y-96075000I0J-50000D01*
G01*
X56343750Y-97475000D01*
G75*
G02*
X56293750Y-97525000I-50000J0D01*
G01*
G37*
G36*
G01*
X44293750Y-105525000D02*
X42893750Y-105525000D01*
G75*
G02*
X42843750Y-105475000I0J50000D01*
G01*
X42843750Y-104075000D01*
G75*
G02*
X42893750Y-104025000I50000J0D01*
G01*
X44293750Y-104025000D01*
G75*
G02*
X44343750Y-104075000I0J-50000D01*
G01*
X44343750Y-105475000D01*
G75*
G02*
X44293750Y-105525000I-50000J0D01*
G01*
G37*
G36*
G01*
X44293750Y-109525000D02*
X42893750Y-109525000D01*
G75*
G02*
X42843750Y-109475000I0J50000D01*
G01*
X42843750Y-108075000D01*
G75*
G02*
X42893750Y-108025000I50000J0D01*
G01*
X44293750Y-108025000D01*
G75*
G02*
X44343750Y-108075000I0J-50000D01*
G01*
X44343750Y-109475000D01*
G75*
G02*
X44293750Y-109525000I-50000J0D01*
G01*
G37*
G36*
G01*
X60293750Y-109525000D02*
X58893750Y-109525000D01*
G75*
G02*
X58843750Y-109475000I0J50000D01*
G01*
X58843750Y-108075000D01*
G75*
G02*
X58893750Y-108025000I50000J0D01*
G01*
X60293750Y-108025000D01*
G75*
G02*
X60343750Y-108075000I0J-50000D01*
G01*
X60343750Y-109475000D01*
G75*
G02*
X60293750Y-109525000I-50000J0D01*
G01*
G37*
G36*
G01*
X52293750Y-113525000D02*
X50893750Y-113525000D01*
G75*
G02*
X50843750Y-113475000I0J50000D01*
G01*
X50843750Y-112075000D01*
G75*
G02*
X50893750Y-112025000I50000J0D01*
G01*
X52293750Y-112025000D01*
G75*
G02*
X52343750Y-112075000I0J-50000D01*
G01*
X52343750Y-113475000D01*
G75*
G02*
X52293750Y-113525000I-50000J0D01*
G01*
G37*
G36*
G01*
X52293750Y-97525000D02*
X50893750Y-97525000D01*
G75*
G02*
X50843750Y-97475000I0J50000D01*
G01*
X50843750Y-96075000D01*
G75*
G02*
X50893750Y-96025000I50000J0D01*
G01*
X52293750Y-96025000D01*
G75*
G02*
X52343750Y-96075000I0J-50000D01*
G01*
X52343750Y-97475000D01*
G75*
G02*
X52293750Y-97525000I-50000J0D01*
G01*
G37*
G36*
G01*
X49643750Y-110105000D02*
X49643750Y-111105000D01*
G75*
G02*
X49593750Y-111155000I-50000J0D01*
G01*
X48193750Y-111155000D01*
G75*
G02*
X48143750Y-111105000I0J50000D01*
G01*
X48143750Y-110105000D01*
G75*
G02*
X48193750Y-110055000I50000J0D01*
G01*
X49593750Y-110055000D01*
G75*
G02*
X49643750Y-110105000I0J-50000D01*
G01*
G37*
G36*
G01*
X49643750Y-108605000D02*
X49643750Y-109605000D01*
G75*
G02*
X49593750Y-109655000I-50000J0D01*
G01*
X48193750Y-109655000D01*
G75*
G02*
X48143750Y-109605000I0J50000D01*
G01*
X48143750Y-108605000D01*
G75*
G02*
X48193750Y-108555000I50000J0D01*
G01*
X49593750Y-108555000D01*
G75*
G02*
X49643750Y-108605000I0J-50000D01*
G01*
G37*
G36*
G01*
X55043750Y-108605000D02*
X55043750Y-109605000D01*
G75*
G02*
X54993750Y-109655000I-50000J0D01*
G01*
X53593750Y-109655000D01*
G75*
G02*
X53543750Y-109605000I0J50000D01*
G01*
X53543750Y-108605000D01*
G75*
G02*
X53593750Y-108555000I50000J0D01*
G01*
X54993750Y-108555000D01*
G75*
G02*
X55043750Y-108605000I0J-50000D01*
G01*
G37*
G36*
G01*
X55043750Y-110105000D02*
X55043750Y-111105000D01*
G75*
G02*
X54993750Y-111155000I-50000J0D01*
G01*
X53593750Y-111155000D01*
G75*
G02*
X53543750Y-111105000I0J50000D01*
G01*
X53543750Y-110105000D01*
G75*
G02*
X53593750Y-110055000I50000J0D01*
G01*
X54993750Y-110055000D01*
G75*
G02*
X55043750Y-110105000I0J-50000D01*
G01*
G37*
D14*
X42068750Y-116901250D03*
X42068750Y-130748750D03*
X58517500Y-133350000D03*
X44670000Y-133350000D03*
G36*
G01*
X44293750Y-120575000D02*
X42893750Y-120575000D01*
G75*
G02*
X42843750Y-120525000I0J50000D01*
G01*
X42843750Y-119125000D01*
G75*
G02*
X42893750Y-119075000I50000J0D01*
G01*
X44293750Y-119075000D01*
G75*
G02*
X44343750Y-119125000I0J-50000D01*
G01*
X44343750Y-120525000D01*
G75*
G02*
X44293750Y-120575000I-50000J0D01*
G01*
G37*
G36*
G01*
X60068750Y-125025000D02*
X59118750Y-125025000D01*
G75*
G02*
X59068750Y-124975000I0J50000D01*
G01*
X59068750Y-123775000D01*
G75*
G02*
X59118750Y-123725000I50000J0D01*
G01*
X60068750Y-123725000D01*
G75*
G02*
X60118750Y-123775000I0J-50000D01*
G01*
X60118750Y-124975000D01*
G75*
G02*
X60068750Y-125025000I-50000J0D01*
G01*
G37*
D10*
X59593750Y-119475000D03*
G36*
G01*
X60068750Y-121575000D02*
X59118750Y-121575000D01*
G75*
G02*
X59068750Y-121525000I0J50000D01*
G01*
X59068750Y-120325000D01*
G75*
G02*
X59118750Y-120275000I50000J0D01*
G01*
X60068750Y-120275000D01*
G75*
G02*
X60118750Y-120325000I0J-50000D01*
G01*
X60118750Y-121525000D01*
G75*
G02*
X60068750Y-121575000I-50000J0D01*
G01*
G37*
G36*
G01*
X60293750Y-126575000D02*
X58893750Y-126575000D01*
G75*
G02*
X58843750Y-126525000I0J50000D01*
G01*
X58843750Y-125125000D01*
G75*
G02*
X58893750Y-125075000I50000J0D01*
G01*
X60293750Y-125075000D01*
G75*
G02*
X60343750Y-125125000I0J-50000D01*
G01*
X60343750Y-126525000D01*
G75*
G02*
X60293750Y-126575000I-50000J0D01*
G01*
G37*
D11*
X47783750Y-121285000D03*
D12*
X46513750Y-123825000D03*
X56673750Y-123825000D03*
D13*
X51593750Y-123825000D03*
D11*
X54133750Y-118745000D03*
G36*
G01*
X56343750Y-119995000D02*
X56343750Y-117495000D01*
G75*
G02*
X56393750Y-117445000I50000J0D01*
G01*
X58943750Y-117445000D01*
G75*
G02*
X58993750Y-117495000I0J-50000D01*
G01*
X58993750Y-119995000D01*
G75*
G02*
X58943750Y-120045000I-50000J0D01*
G01*
X56393750Y-120045000D01*
G75*
G02*
X56343750Y-119995000I0J50000D01*
G01*
G37*
G36*
G01*
X42893750Y-122535000D02*
X42893750Y-120035000D01*
G75*
G02*
X42943750Y-119985000I50000J0D01*
G01*
X45493750Y-119985000D01*
G75*
G02*
X45543750Y-120035000I0J-50000D01*
G01*
X45543750Y-122535000D01*
G75*
G02*
X45493750Y-122585000I-50000J0D01*
G01*
X42943750Y-122585000D01*
G75*
G02*
X42893750Y-122535000I0J50000D01*
G01*
G37*
G36*
G01*
X48293750Y-132575000D02*
X46893750Y-132575000D01*
G75*
G02*
X46843750Y-132525000I0J50000D01*
G01*
X46843750Y-131125000D01*
G75*
G02*
X46893750Y-131075000I50000J0D01*
G01*
X48293750Y-131075000D01*
G75*
G02*
X48343750Y-131125000I0J-50000D01*
G01*
X48343750Y-132525000D01*
G75*
G02*
X48293750Y-132575000I-50000J0D01*
G01*
G37*
G36*
G01*
X56293750Y-132575000D02*
X54893750Y-132575000D01*
G75*
G02*
X54843750Y-132525000I0J50000D01*
G01*
X54843750Y-131125000D01*
G75*
G02*
X54893750Y-131075000I50000J0D01*
G01*
X56293750Y-131075000D01*
G75*
G02*
X56343750Y-131125000I0J-50000D01*
G01*
X56343750Y-132525000D01*
G75*
G02*
X56293750Y-132575000I-50000J0D01*
G01*
G37*
G36*
G01*
X48293750Y-116575000D02*
X46893750Y-116575000D01*
G75*
G02*
X46843750Y-116525000I0J50000D01*
G01*
X46843750Y-115125000D01*
G75*
G02*
X46893750Y-115075000I50000J0D01*
G01*
X48293750Y-115075000D01*
G75*
G02*
X48343750Y-115125000I0J-50000D01*
G01*
X48343750Y-116525000D01*
G75*
G02*
X48293750Y-116575000I-50000J0D01*
G01*
G37*
G36*
G01*
X56293750Y-116575000D02*
X54893750Y-116575000D01*
G75*
G02*
X54843750Y-116525000I0J50000D01*
G01*
X54843750Y-115125000D01*
G75*
G02*
X54893750Y-115075000I50000J0D01*
G01*
X56293750Y-115075000D01*
G75*
G02*
X56343750Y-115125000I0J-50000D01*
G01*
X56343750Y-116525000D01*
G75*
G02*
X56293750Y-116575000I-50000J0D01*
G01*
G37*
G36*
G01*
X44293750Y-124575000D02*
X42893750Y-124575000D01*
G75*
G02*
X42843750Y-124525000I0J50000D01*
G01*
X42843750Y-123125000D01*
G75*
G02*
X42893750Y-123075000I50000J0D01*
G01*
X44293750Y-123075000D01*
G75*
G02*
X44343750Y-123125000I0J-50000D01*
G01*
X44343750Y-124525000D01*
G75*
G02*
X44293750Y-124575000I-50000J0D01*
G01*
G37*
G36*
G01*
X44293750Y-128575000D02*
X42893750Y-128575000D01*
G75*
G02*
X42843750Y-128525000I0J50000D01*
G01*
X42843750Y-127125000D01*
G75*
G02*
X42893750Y-127075000I50000J0D01*
G01*
X44293750Y-127075000D01*
G75*
G02*
X44343750Y-127125000I0J-50000D01*
G01*
X44343750Y-128525000D01*
G75*
G02*
X44293750Y-128575000I-50000J0D01*
G01*
G37*
G36*
G01*
X60293750Y-128575000D02*
X58893750Y-128575000D01*
G75*
G02*
X58843750Y-128525000I0J50000D01*
G01*
X58843750Y-127125000D01*
G75*
G02*
X58893750Y-127075000I50000J0D01*
G01*
X60293750Y-127075000D01*
G75*
G02*
X60343750Y-127125000I0J-50000D01*
G01*
X60343750Y-128525000D01*
G75*
G02*
X60293750Y-128575000I-50000J0D01*
G01*
G37*
G36*
G01*
X52293750Y-132575000D02*
X50893750Y-132575000D01*
G75*
G02*
X50843750Y-132525000I0J50000D01*
G01*
X50843750Y-131125000D01*
G75*
G02*
X50893750Y-131075000I50000J0D01*
G01*
X52293750Y-131075000D01*
G75*
G02*
X52343750Y-131125000I0J-50000D01*
G01*
X52343750Y-132525000D01*
G75*
G02*
X52293750Y-132575000I-50000J0D01*
G01*
G37*
G36*
G01*
X52293750Y-116575000D02*
X50893750Y-116575000D01*
G75*
G02*
X50843750Y-116525000I0J50000D01*
G01*
X50843750Y-115125000D01*
G75*
G02*
X50893750Y-115075000I50000J0D01*
G01*
X52293750Y-115075000D01*
G75*
G02*
X52343750Y-115125000I0J-50000D01*
G01*
X52343750Y-116525000D01*
G75*
G02*
X52293750Y-116575000I-50000J0D01*
G01*
G37*
G36*
G01*
X49643750Y-129155000D02*
X49643750Y-130155000D01*
G75*
G02*
X49593750Y-130205000I-50000J0D01*
G01*
X48193750Y-130205000D01*
G75*
G02*
X48143750Y-130155000I0J50000D01*
G01*
X48143750Y-129155000D01*
G75*
G02*
X48193750Y-129105000I50000J0D01*
G01*
X49593750Y-129105000D01*
G75*
G02*
X49643750Y-129155000I0J-50000D01*
G01*
G37*
G36*
G01*
X49643750Y-127655000D02*
X49643750Y-128655000D01*
G75*
G02*
X49593750Y-128705000I-50000J0D01*
G01*
X48193750Y-128705000D01*
G75*
G02*
X48143750Y-128655000I0J50000D01*
G01*
X48143750Y-127655000D01*
G75*
G02*
X48193750Y-127605000I50000J0D01*
G01*
X49593750Y-127605000D01*
G75*
G02*
X49643750Y-127655000I0J-50000D01*
G01*
G37*
G36*
G01*
X55043750Y-127655000D02*
X55043750Y-128655000D01*
G75*
G02*
X54993750Y-128705000I-50000J0D01*
G01*
X53593750Y-128705000D01*
G75*
G02*
X53543750Y-128655000I0J50000D01*
G01*
X53543750Y-127655000D01*
G75*
G02*
X53593750Y-127605000I50000J0D01*
G01*
X54993750Y-127605000D01*
G75*
G02*
X55043750Y-127655000I0J-50000D01*
G01*
G37*
G36*
G01*
X55043750Y-129155000D02*
X55043750Y-130155000D01*
G75*
G02*
X54993750Y-130205000I-50000J0D01*
G01*
X53593750Y-130205000D01*
G75*
G02*
X53543750Y-130155000I0J50000D01*
G01*
X53543750Y-129155000D01*
G75*
G02*
X53593750Y-129105000I50000J0D01*
G01*
X54993750Y-129105000D01*
G75*
G02*
X55043750Y-129155000I0J-50000D01*
G01*
G37*
D14*
X42068750Y-135951250D03*
X42068750Y-149798750D03*
X58517500Y-152400000D03*
X44670000Y-152400000D03*
G36*
G01*
X44293750Y-139625000D02*
X42893750Y-139625000D01*
G75*
G02*
X42843750Y-139575000I0J50000D01*
G01*
X42843750Y-138175000D01*
G75*
G02*
X42893750Y-138125000I50000J0D01*
G01*
X44293750Y-138125000D01*
G75*
G02*
X44343750Y-138175000I0J-50000D01*
G01*
X44343750Y-139575000D01*
G75*
G02*
X44293750Y-139625000I-50000J0D01*
G01*
G37*
G36*
G01*
X60068750Y-144075000D02*
X59118750Y-144075000D01*
G75*
G02*
X59068750Y-144025000I0J50000D01*
G01*
X59068750Y-142825000D01*
G75*
G02*
X59118750Y-142775000I50000J0D01*
G01*
X60068750Y-142775000D01*
G75*
G02*
X60118750Y-142825000I0J-50000D01*
G01*
X60118750Y-144025000D01*
G75*
G02*
X60068750Y-144075000I-50000J0D01*
G01*
G37*
D10*
X59593750Y-138525000D03*
G36*
G01*
X60068750Y-140625000D02*
X59118750Y-140625000D01*
G75*
G02*
X59068750Y-140575000I0J50000D01*
G01*
X59068750Y-139375000D01*
G75*
G02*
X59118750Y-139325000I50000J0D01*
G01*
X60068750Y-139325000D01*
G75*
G02*
X60118750Y-139375000I0J-50000D01*
G01*
X60118750Y-140575000D01*
G75*
G02*
X60068750Y-140625000I-50000J0D01*
G01*
G37*
G36*
G01*
X60293750Y-145625000D02*
X58893750Y-145625000D01*
G75*
G02*
X58843750Y-145575000I0J50000D01*
G01*
X58843750Y-144175000D01*
G75*
G02*
X58893750Y-144125000I50000J0D01*
G01*
X60293750Y-144125000D01*
G75*
G02*
X60343750Y-144175000I0J-50000D01*
G01*
X60343750Y-145575000D01*
G75*
G02*
X60293750Y-145625000I-50000J0D01*
G01*
G37*
D11*
X47783750Y-140335000D03*
D12*
X46513750Y-142875000D03*
X56673750Y-142875000D03*
D13*
X51593750Y-142875000D03*
D11*
X54133750Y-137795000D03*
G36*
G01*
X56343750Y-139045000D02*
X56343750Y-136545000D01*
G75*
G02*
X56393750Y-136495000I50000J0D01*
G01*
X58943750Y-136495000D01*
G75*
G02*
X58993750Y-136545000I0J-50000D01*
G01*
X58993750Y-139045000D01*
G75*
G02*
X58943750Y-139095000I-50000J0D01*
G01*
X56393750Y-139095000D01*
G75*
G02*
X56343750Y-139045000I0J50000D01*
G01*
G37*
G36*
G01*
X42893750Y-141585000D02*
X42893750Y-139085000D01*
G75*
G02*
X42943750Y-139035000I50000J0D01*
G01*
X45493750Y-139035000D01*
G75*
G02*
X45543750Y-139085000I0J-50000D01*
G01*
X45543750Y-141585000D01*
G75*
G02*
X45493750Y-141635000I-50000J0D01*
G01*
X42943750Y-141635000D01*
G75*
G02*
X42893750Y-141585000I0J50000D01*
G01*
G37*
G36*
G01*
X48293750Y-151625000D02*
X46893750Y-151625000D01*
G75*
G02*
X46843750Y-151575000I0J50000D01*
G01*
X46843750Y-150175000D01*
G75*
G02*
X46893750Y-150125000I50000J0D01*
G01*
X48293750Y-150125000D01*
G75*
G02*
X48343750Y-150175000I0J-50000D01*
G01*
X48343750Y-151575000D01*
G75*
G02*
X48293750Y-151625000I-50000J0D01*
G01*
G37*
G36*
G01*
X56293750Y-151625000D02*
X54893750Y-151625000D01*
G75*
G02*
X54843750Y-151575000I0J50000D01*
G01*
X54843750Y-150175000D01*
G75*
G02*
X54893750Y-150125000I50000J0D01*
G01*
X56293750Y-150125000D01*
G75*
G02*
X56343750Y-150175000I0J-50000D01*
G01*
X56343750Y-151575000D01*
G75*
G02*
X56293750Y-151625000I-50000J0D01*
G01*
G37*
G36*
G01*
X48293750Y-135625000D02*
X46893750Y-135625000D01*
G75*
G02*
X46843750Y-135575000I0J50000D01*
G01*
X46843750Y-134175000D01*
G75*
G02*
X46893750Y-134125000I50000J0D01*
G01*
X48293750Y-134125000D01*
G75*
G02*
X48343750Y-134175000I0J-50000D01*
G01*
X48343750Y-135575000D01*
G75*
G02*
X48293750Y-135625000I-50000J0D01*
G01*
G37*
G36*
G01*
X56293750Y-135625000D02*
X54893750Y-135625000D01*
G75*
G02*
X54843750Y-135575000I0J50000D01*
G01*
X54843750Y-134175000D01*
G75*
G02*
X54893750Y-134125000I50000J0D01*
G01*
X56293750Y-134125000D01*
G75*
G02*
X56343750Y-134175000I0J-50000D01*
G01*
X56343750Y-135575000D01*
G75*
G02*
X56293750Y-135625000I-50000J0D01*
G01*
G37*
G36*
G01*
X44293750Y-143625000D02*
X42893750Y-143625000D01*
G75*
G02*
X42843750Y-143575000I0J50000D01*
G01*
X42843750Y-142175000D01*
G75*
G02*
X42893750Y-142125000I50000J0D01*
G01*
X44293750Y-142125000D01*
G75*
G02*
X44343750Y-142175000I0J-50000D01*
G01*
X44343750Y-143575000D01*
G75*
G02*
X44293750Y-143625000I-50000J0D01*
G01*
G37*
G36*
G01*
X44293750Y-147625000D02*
X42893750Y-147625000D01*
G75*
G02*
X42843750Y-147575000I0J50000D01*
G01*
X42843750Y-146175000D01*
G75*
G02*
X42893750Y-146125000I50000J0D01*
G01*
X44293750Y-146125000D01*
G75*
G02*
X44343750Y-146175000I0J-50000D01*
G01*
X44343750Y-147575000D01*
G75*
G02*
X44293750Y-147625000I-50000J0D01*
G01*
G37*
G36*
G01*
X60293750Y-147625000D02*
X58893750Y-147625000D01*
G75*
G02*
X58843750Y-147575000I0J50000D01*
G01*
X58843750Y-146175000D01*
G75*
G02*
X58893750Y-146125000I50000J0D01*
G01*
X60293750Y-146125000D01*
G75*
G02*
X60343750Y-146175000I0J-50000D01*
G01*
X60343750Y-147575000D01*
G75*
G02*
X60293750Y-147625000I-50000J0D01*
G01*
G37*
G36*
G01*
X52293750Y-151625000D02*
X50893750Y-151625000D01*
G75*
G02*
X50843750Y-151575000I0J50000D01*
G01*
X50843750Y-150175000D01*
G75*
G02*
X50893750Y-150125000I50000J0D01*
G01*
X52293750Y-150125000D01*
G75*
G02*
X52343750Y-150175000I0J-50000D01*
G01*
X52343750Y-151575000D01*
G75*
G02*
X52293750Y-151625000I-50000J0D01*
G01*
G37*
G36*
G01*
X52293750Y-135625000D02*
X50893750Y-135625000D01*
G75*
G02*
X50843750Y-135575000I0J50000D01*
G01*
X50843750Y-134175000D01*
G75*
G02*
X50893750Y-134125000I50000J0D01*
G01*
X52293750Y-134125000D01*
G75*
G02*
X52343750Y-134175000I0J-50000D01*
G01*
X52343750Y-135575000D01*
G75*
G02*
X52293750Y-135625000I-50000J0D01*
G01*
G37*
G36*
G01*
X49643750Y-148205000D02*
X49643750Y-149205000D01*
G75*
G02*
X49593750Y-149255000I-50000J0D01*
G01*
X48193750Y-149255000D01*
G75*
G02*
X48143750Y-149205000I0J50000D01*
G01*
X48143750Y-148205000D01*
G75*
G02*
X48193750Y-148155000I50000J0D01*
G01*
X49593750Y-148155000D01*
G75*
G02*
X49643750Y-148205000I0J-50000D01*
G01*
G37*
G36*
G01*
X49643750Y-146705000D02*
X49643750Y-147705000D01*
G75*
G02*
X49593750Y-147755000I-50000J0D01*
G01*
X48193750Y-147755000D01*
G75*
G02*
X48143750Y-147705000I0J50000D01*
G01*
X48143750Y-146705000D01*
G75*
G02*
X48193750Y-146655000I50000J0D01*
G01*
X49593750Y-146655000D01*
G75*
G02*
X49643750Y-146705000I0J-50000D01*
G01*
G37*
G36*
G01*
X55043750Y-146705000D02*
X55043750Y-147705000D01*
G75*
G02*
X54993750Y-147755000I-50000J0D01*
G01*
X53593750Y-147755000D01*
G75*
G02*
X53543750Y-147705000I0J50000D01*
G01*
X53543750Y-146705000D01*
G75*
G02*
X53593750Y-146655000I50000J0D01*
G01*
X54993750Y-146655000D01*
G75*
G02*
X55043750Y-146705000I0J-50000D01*
G01*
G37*
G36*
G01*
X55043750Y-148205000D02*
X55043750Y-149205000D01*
G75*
G02*
X54993750Y-149255000I-50000J0D01*
G01*
X53593750Y-149255000D01*
G75*
G02*
X53543750Y-149205000I0J50000D01*
G01*
X53543750Y-148205000D01*
G75*
G02*
X53593750Y-148155000I50000J0D01*
G01*
X54993750Y-148155000D01*
G75*
G02*
X55043750Y-148205000I0J-50000D01*
G01*
G37*
D14*
X99218750Y-78801250D03*
X99218750Y-92648750D03*
X115667500Y-95250000D03*
X101820000Y-95250000D03*
G36*
G01*
X101443750Y-82475000D02*
X100043750Y-82475000D01*
G75*
G02*
X99993750Y-82425000I0J50000D01*
G01*
X99993750Y-81025000D01*
G75*
G02*
X100043750Y-80975000I50000J0D01*
G01*
X101443750Y-80975000D01*
G75*
G02*
X101493750Y-81025000I0J-50000D01*
G01*
X101493750Y-82425000D01*
G75*
G02*
X101443750Y-82475000I-50000J0D01*
G01*
G37*
G36*
G01*
X117218750Y-86925000D02*
X116268750Y-86925000D01*
G75*
G02*
X116218750Y-86875000I0J50000D01*
G01*
X116218750Y-85675000D01*
G75*
G02*
X116268750Y-85625000I50000J0D01*
G01*
X117218750Y-85625000D01*
G75*
G02*
X117268750Y-85675000I0J-50000D01*
G01*
X117268750Y-86875000D01*
G75*
G02*
X117218750Y-86925000I-50000J0D01*
G01*
G37*
D10*
X116743750Y-81375000D03*
G36*
G01*
X117218750Y-83475000D02*
X116268750Y-83475000D01*
G75*
G02*
X116218750Y-83425000I0J50000D01*
G01*
X116218750Y-82225000D01*
G75*
G02*
X116268750Y-82175000I50000J0D01*
G01*
X117218750Y-82175000D01*
G75*
G02*
X117268750Y-82225000I0J-50000D01*
G01*
X117268750Y-83425000D01*
G75*
G02*
X117218750Y-83475000I-50000J0D01*
G01*
G37*
G36*
G01*
X117443750Y-88475000D02*
X116043750Y-88475000D01*
G75*
G02*
X115993750Y-88425000I0J50000D01*
G01*
X115993750Y-87025000D01*
G75*
G02*
X116043750Y-86975000I50000J0D01*
G01*
X117443750Y-86975000D01*
G75*
G02*
X117493750Y-87025000I0J-50000D01*
G01*
X117493750Y-88425000D01*
G75*
G02*
X117443750Y-88475000I-50000J0D01*
G01*
G37*
D11*
X104933750Y-83185000D03*
D12*
X103663750Y-85725000D03*
X113823750Y-85725000D03*
D13*
X108743750Y-85725000D03*
D11*
X111283750Y-80645000D03*
G36*
G01*
X113493750Y-81895000D02*
X113493750Y-79395000D01*
G75*
G02*
X113543750Y-79345000I50000J0D01*
G01*
X116093750Y-79345000D01*
G75*
G02*
X116143750Y-79395000I0J-50000D01*
G01*
X116143750Y-81895000D01*
G75*
G02*
X116093750Y-81945000I-50000J0D01*
G01*
X113543750Y-81945000D01*
G75*
G02*
X113493750Y-81895000I0J50000D01*
G01*
G37*
G36*
G01*
X100043750Y-84435000D02*
X100043750Y-81935000D01*
G75*
G02*
X100093750Y-81885000I50000J0D01*
G01*
X102643750Y-81885000D01*
G75*
G02*
X102693750Y-81935000I0J-50000D01*
G01*
X102693750Y-84435000D01*
G75*
G02*
X102643750Y-84485000I-50000J0D01*
G01*
X100093750Y-84485000D01*
G75*
G02*
X100043750Y-84435000I0J50000D01*
G01*
G37*
G36*
G01*
X105443750Y-94475000D02*
X104043750Y-94475000D01*
G75*
G02*
X103993750Y-94425000I0J50000D01*
G01*
X103993750Y-93025000D01*
G75*
G02*
X104043750Y-92975000I50000J0D01*
G01*
X105443750Y-92975000D01*
G75*
G02*
X105493750Y-93025000I0J-50000D01*
G01*
X105493750Y-94425000D01*
G75*
G02*
X105443750Y-94475000I-50000J0D01*
G01*
G37*
G36*
G01*
X113443750Y-94475000D02*
X112043750Y-94475000D01*
G75*
G02*
X111993750Y-94425000I0J50000D01*
G01*
X111993750Y-93025000D01*
G75*
G02*
X112043750Y-92975000I50000J0D01*
G01*
X113443750Y-92975000D01*
G75*
G02*
X113493750Y-93025000I0J-50000D01*
G01*
X113493750Y-94425000D01*
G75*
G02*
X113443750Y-94475000I-50000J0D01*
G01*
G37*
G36*
G01*
X105443750Y-78475000D02*
X104043750Y-78475000D01*
G75*
G02*
X103993750Y-78425000I0J50000D01*
G01*
X103993750Y-77025000D01*
G75*
G02*
X104043750Y-76975000I50000J0D01*
G01*
X105443750Y-76975000D01*
G75*
G02*
X105493750Y-77025000I0J-50000D01*
G01*
X105493750Y-78425000D01*
G75*
G02*
X105443750Y-78475000I-50000J0D01*
G01*
G37*
G36*
G01*
X113443750Y-78475000D02*
X112043750Y-78475000D01*
G75*
G02*
X111993750Y-78425000I0J50000D01*
G01*
X111993750Y-77025000D01*
G75*
G02*
X112043750Y-76975000I50000J0D01*
G01*
X113443750Y-76975000D01*
G75*
G02*
X113493750Y-77025000I0J-50000D01*
G01*
X113493750Y-78425000D01*
G75*
G02*
X113443750Y-78475000I-50000J0D01*
G01*
G37*
G36*
G01*
X101443750Y-86475000D02*
X100043750Y-86475000D01*
G75*
G02*
X99993750Y-86425000I0J50000D01*
G01*
X99993750Y-85025000D01*
G75*
G02*
X100043750Y-84975000I50000J0D01*
G01*
X101443750Y-84975000D01*
G75*
G02*
X101493750Y-85025000I0J-50000D01*
G01*
X101493750Y-86425000D01*
G75*
G02*
X101443750Y-86475000I-50000J0D01*
G01*
G37*
G36*
G01*
X101443750Y-90475000D02*
X100043750Y-90475000D01*
G75*
G02*
X99993750Y-90425000I0J50000D01*
G01*
X99993750Y-89025000D01*
G75*
G02*
X100043750Y-88975000I50000J0D01*
G01*
X101443750Y-88975000D01*
G75*
G02*
X101493750Y-89025000I0J-50000D01*
G01*
X101493750Y-90425000D01*
G75*
G02*
X101443750Y-90475000I-50000J0D01*
G01*
G37*
G36*
G01*
X117443750Y-90475000D02*
X116043750Y-90475000D01*
G75*
G02*
X115993750Y-90425000I0J50000D01*
G01*
X115993750Y-89025000D01*
G75*
G02*
X116043750Y-88975000I50000J0D01*
G01*
X117443750Y-88975000D01*
G75*
G02*
X117493750Y-89025000I0J-50000D01*
G01*
X117493750Y-90425000D01*
G75*
G02*
X117443750Y-90475000I-50000J0D01*
G01*
G37*
G36*
G01*
X109443750Y-94475000D02*
X108043750Y-94475000D01*
G75*
G02*
X107993750Y-94425000I0J50000D01*
G01*
X107993750Y-93025000D01*
G75*
G02*
X108043750Y-92975000I50000J0D01*
G01*
X109443750Y-92975000D01*
G75*
G02*
X109493750Y-93025000I0J-50000D01*
G01*
X109493750Y-94425000D01*
G75*
G02*
X109443750Y-94475000I-50000J0D01*
G01*
G37*
G36*
G01*
X109443750Y-78475000D02*
X108043750Y-78475000D01*
G75*
G02*
X107993750Y-78425000I0J50000D01*
G01*
X107993750Y-77025000D01*
G75*
G02*
X108043750Y-76975000I50000J0D01*
G01*
X109443750Y-76975000D01*
G75*
G02*
X109493750Y-77025000I0J-50000D01*
G01*
X109493750Y-78425000D01*
G75*
G02*
X109443750Y-78475000I-50000J0D01*
G01*
G37*
G36*
G01*
X106793750Y-91055000D02*
X106793750Y-92055000D01*
G75*
G02*
X106743750Y-92105000I-50000J0D01*
G01*
X105343750Y-92105000D01*
G75*
G02*
X105293750Y-92055000I0J50000D01*
G01*
X105293750Y-91055000D01*
G75*
G02*
X105343750Y-91005000I50000J0D01*
G01*
X106743750Y-91005000D01*
G75*
G02*
X106793750Y-91055000I0J-50000D01*
G01*
G37*
G36*
G01*
X106793750Y-89555000D02*
X106793750Y-90555000D01*
G75*
G02*
X106743750Y-90605000I-50000J0D01*
G01*
X105343750Y-90605000D01*
G75*
G02*
X105293750Y-90555000I0J50000D01*
G01*
X105293750Y-89555000D01*
G75*
G02*
X105343750Y-89505000I50000J0D01*
G01*
X106743750Y-89505000D01*
G75*
G02*
X106793750Y-89555000I0J-50000D01*
G01*
G37*
G36*
G01*
X112193750Y-89555000D02*
X112193750Y-90555000D01*
G75*
G02*
X112143750Y-90605000I-50000J0D01*
G01*
X110743750Y-90605000D01*
G75*
G02*
X110693750Y-90555000I0J50000D01*
G01*
X110693750Y-89555000D01*
G75*
G02*
X110743750Y-89505000I50000J0D01*
G01*
X112143750Y-89505000D01*
G75*
G02*
X112193750Y-89555000I0J-50000D01*
G01*
G37*
G36*
G01*
X112193750Y-91055000D02*
X112193750Y-92055000D01*
G75*
G02*
X112143750Y-92105000I-50000J0D01*
G01*
X110743750Y-92105000D01*
G75*
G02*
X110693750Y-92055000I0J50000D01*
G01*
X110693750Y-91055000D01*
G75*
G02*
X110743750Y-91005000I50000J0D01*
G01*
X112143750Y-91005000D01*
G75*
G02*
X112193750Y-91055000I0J-50000D01*
G01*
G37*
D14*
X99218750Y-116901250D03*
X99218750Y-130748750D03*
X115667500Y-133350000D03*
X101820000Y-133350000D03*
G36*
G01*
X101443750Y-120575000D02*
X100043750Y-120575000D01*
G75*
G02*
X99993750Y-120525000I0J50000D01*
G01*
X99993750Y-119125000D01*
G75*
G02*
X100043750Y-119075000I50000J0D01*
G01*
X101443750Y-119075000D01*
G75*
G02*
X101493750Y-119125000I0J-50000D01*
G01*
X101493750Y-120525000D01*
G75*
G02*
X101443750Y-120575000I-50000J0D01*
G01*
G37*
G36*
G01*
X117218750Y-125025000D02*
X116268750Y-125025000D01*
G75*
G02*
X116218750Y-124975000I0J50000D01*
G01*
X116218750Y-123775000D01*
G75*
G02*
X116268750Y-123725000I50000J0D01*
G01*
X117218750Y-123725000D01*
G75*
G02*
X117268750Y-123775000I0J-50000D01*
G01*
X117268750Y-124975000D01*
G75*
G02*
X117218750Y-125025000I-50000J0D01*
G01*
G37*
D10*
X116743750Y-119475000D03*
G36*
G01*
X117218750Y-121575000D02*
X116268750Y-121575000D01*
G75*
G02*
X116218750Y-121525000I0J50000D01*
G01*
X116218750Y-120325000D01*
G75*
G02*
X116268750Y-120275000I50000J0D01*
G01*
X117218750Y-120275000D01*
G75*
G02*
X117268750Y-120325000I0J-50000D01*
G01*
X117268750Y-121525000D01*
G75*
G02*
X117218750Y-121575000I-50000J0D01*
G01*
G37*
G36*
G01*
X117443750Y-126575000D02*
X116043750Y-126575000D01*
G75*
G02*
X115993750Y-126525000I0J50000D01*
G01*
X115993750Y-125125000D01*
G75*
G02*
X116043750Y-125075000I50000J0D01*
G01*
X117443750Y-125075000D01*
G75*
G02*
X117493750Y-125125000I0J-50000D01*
G01*
X117493750Y-126525000D01*
G75*
G02*
X117443750Y-126575000I-50000J0D01*
G01*
G37*
D11*
X104933750Y-121285000D03*
D12*
X103663750Y-123825000D03*
X113823750Y-123825000D03*
D13*
X108743750Y-123825000D03*
D11*
X111283750Y-118745000D03*
G36*
G01*
X113493750Y-119995000D02*
X113493750Y-117495000D01*
G75*
G02*
X113543750Y-117445000I50000J0D01*
G01*
X116093750Y-117445000D01*
G75*
G02*
X116143750Y-117495000I0J-50000D01*
G01*
X116143750Y-119995000D01*
G75*
G02*
X116093750Y-120045000I-50000J0D01*
G01*
X113543750Y-120045000D01*
G75*
G02*
X113493750Y-119995000I0J50000D01*
G01*
G37*
G36*
G01*
X100043750Y-122535000D02*
X100043750Y-120035000D01*
G75*
G02*
X100093750Y-119985000I50000J0D01*
G01*
X102643750Y-119985000D01*
G75*
G02*
X102693750Y-120035000I0J-50000D01*
G01*
X102693750Y-122535000D01*
G75*
G02*
X102643750Y-122585000I-50000J0D01*
G01*
X100093750Y-122585000D01*
G75*
G02*
X100043750Y-122535000I0J50000D01*
G01*
G37*
G36*
G01*
X105443750Y-132575000D02*
X104043750Y-132575000D01*
G75*
G02*
X103993750Y-132525000I0J50000D01*
G01*
X103993750Y-131125000D01*
G75*
G02*
X104043750Y-131075000I50000J0D01*
G01*
X105443750Y-131075000D01*
G75*
G02*
X105493750Y-131125000I0J-50000D01*
G01*
X105493750Y-132525000D01*
G75*
G02*
X105443750Y-132575000I-50000J0D01*
G01*
G37*
G36*
G01*
X113443750Y-132575000D02*
X112043750Y-132575000D01*
G75*
G02*
X111993750Y-132525000I0J50000D01*
G01*
X111993750Y-131125000D01*
G75*
G02*
X112043750Y-131075000I50000J0D01*
G01*
X113443750Y-131075000D01*
G75*
G02*
X113493750Y-131125000I0J-50000D01*
G01*
X113493750Y-132525000D01*
G75*
G02*
X113443750Y-132575000I-50000J0D01*
G01*
G37*
G36*
G01*
X105443750Y-116575000D02*
X104043750Y-116575000D01*
G75*
G02*
X103993750Y-116525000I0J50000D01*
G01*
X103993750Y-115125000D01*
G75*
G02*
X104043750Y-115075000I50000J0D01*
G01*
X105443750Y-115075000D01*
G75*
G02*
X105493750Y-115125000I0J-50000D01*
G01*
X105493750Y-116525000D01*
G75*
G02*
X105443750Y-116575000I-50000J0D01*
G01*
G37*
G36*
G01*
X113443750Y-116575000D02*
X112043750Y-116575000D01*
G75*
G02*
X111993750Y-116525000I0J50000D01*
G01*
X111993750Y-115125000D01*
G75*
G02*
X112043750Y-115075000I50000J0D01*
G01*
X113443750Y-115075000D01*
G75*
G02*
X113493750Y-115125000I0J-50000D01*
G01*
X113493750Y-116525000D01*
G75*
G02*
X113443750Y-116575000I-50000J0D01*
G01*
G37*
G36*
G01*
X101443750Y-124575000D02*
X100043750Y-124575000D01*
G75*
G02*
X99993750Y-124525000I0J50000D01*
G01*
X99993750Y-123125000D01*
G75*
G02*
X100043750Y-123075000I50000J0D01*
G01*
X101443750Y-123075000D01*
G75*
G02*
X101493750Y-123125000I0J-50000D01*
G01*
X101493750Y-124525000D01*
G75*
G02*
X101443750Y-124575000I-50000J0D01*
G01*
G37*
G36*
G01*
X101443750Y-128575000D02*
X100043750Y-128575000D01*
G75*
G02*
X99993750Y-128525000I0J50000D01*
G01*
X99993750Y-127125000D01*
G75*
G02*
X100043750Y-127075000I50000J0D01*
G01*
X101443750Y-127075000D01*
G75*
G02*
X101493750Y-127125000I0J-50000D01*
G01*
X101493750Y-128525000D01*
G75*
G02*
X101443750Y-128575000I-50000J0D01*
G01*
G37*
G36*
G01*
X117443750Y-128575000D02*
X116043750Y-128575000D01*
G75*
G02*
X115993750Y-128525000I0J50000D01*
G01*
X115993750Y-127125000D01*
G75*
G02*
X116043750Y-127075000I50000J0D01*
G01*
X117443750Y-127075000D01*
G75*
G02*
X117493750Y-127125000I0J-50000D01*
G01*
X117493750Y-128525000D01*
G75*
G02*
X117443750Y-128575000I-50000J0D01*
G01*
G37*
G36*
G01*
X109443750Y-132575000D02*
X108043750Y-132575000D01*
G75*
G02*
X107993750Y-132525000I0J50000D01*
G01*
X107993750Y-131125000D01*
G75*
G02*
X108043750Y-131075000I50000J0D01*
G01*
X109443750Y-131075000D01*
G75*
G02*
X109493750Y-131125000I0J-50000D01*
G01*
X109493750Y-132525000D01*
G75*
G02*
X109443750Y-132575000I-50000J0D01*
G01*
G37*
G36*
G01*
X109443750Y-116575000D02*
X108043750Y-116575000D01*
G75*
G02*
X107993750Y-116525000I0J50000D01*
G01*
X107993750Y-115125000D01*
G75*
G02*
X108043750Y-115075000I50000J0D01*
G01*
X109443750Y-115075000D01*
G75*
G02*
X109493750Y-115125000I0J-50000D01*
G01*
X109493750Y-116525000D01*
G75*
G02*
X109443750Y-116575000I-50000J0D01*
G01*
G37*
G36*
G01*
X106793750Y-129155000D02*
X106793750Y-130155000D01*
G75*
G02*
X106743750Y-130205000I-50000J0D01*
G01*
X105343750Y-130205000D01*
G75*
G02*
X105293750Y-130155000I0J50000D01*
G01*
X105293750Y-129155000D01*
G75*
G02*
X105343750Y-129105000I50000J0D01*
G01*
X106743750Y-129105000D01*
G75*
G02*
X106793750Y-129155000I0J-50000D01*
G01*
G37*
G36*
G01*
X106793750Y-127655000D02*
X106793750Y-128655000D01*
G75*
G02*
X106743750Y-128705000I-50000J0D01*
G01*
X105343750Y-128705000D01*
G75*
G02*
X105293750Y-128655000I0J50000D01*
G01*
X105293750Y-127655000D01*
G75*
G02*
X105343750Y-127605000I50000J0D01*
G01*
X106743750Y-127605000D01*
G75*
G02*
X106793750Y-127655000I0J-50000D01*
G01*
G37*
G36*
G01*
X112193750Y-127655000D02*
X112193750Y-128655000D01*
G75*
G02*
X112143750Y-128705000I-50000J0D01*
G01*
X110743750Y-128705000D01*
G75*
G02*
X110693750Y-128655000I0J50000D01*
G01*
X110693750Y-127655000D01*
G75*
G02*
X110743750Y-127605000I50000J0D01*
G01*
X112143750Y-127605000D01*
G75*
G02*
X112193750Y-127655000I0J-50000D01*
G01*
G37*
G36*
G01*
X112193750Y-129155000D02*
X112193750Y-130155000D01*
G75*
G02*
X112143750Y-130205000I-50000J0D01*
G01*
X110743750Y-130205000D01*
G75*
G02*
X110693750Y-130155000I0J50000D01*
G01*
X110693750Y-129155000D01*
G75*
G02*
X110743750Y-129105000I50000J0D01*
G01*
X112143750Y-129105000D01*
G75*
G02*
X112193750Y-129155000I0J-50000D01*
G01*
G37*
D14*
X117768880Y-57350216D03*
X99718880Y-57350216D03*
X99218750Y-59751250D03*
X99218750Y-73598750D03*
X137318750Y-73598750D03*
X137318750Y-59751250D03*
X118268750Y-59751250D03*
X118268750Y-73598750D03*
X58517500Y-76200000D03*
X44670000Y-76200000D03*
X77567500Y-76200000D03*
X63720000Y-76200000D03*
X96617500Y-76200000D03*
X82770000Y-76200000D03*
X101820000Y-76200000D03*
X115667500Y-76200000D03*
X115667500Y-57150000D03*
X101820000Y-57150000D03*
X134717500Y-57150000D03*
X120870000Y-57150000D03*
X134717500Y-76200000D03*
X120870000Y-76200000D03*
G36*
G01*
X130218750Y-60231250D02*
X130218750Y-58831250D01*
G75*
G02*
X130268750Y-58781250I50000J0D01*
G01*
X131668750Y-58781250D01*
G75*
G02*
X131718750Y-58831250I0J-50000D01*
G01*
X131718750Y-60231250D01*
G75*
G02*
X131668750Y-60281250I-50000J0D01*
G01*
X130268750Y-60281250D01*
G75*
G02*
X130218750Y-60231250I0J50000D01*
G01*
G37*
D10*
X124618750Y-59531250D03*
G36*
G01*
X125418750Y-60006250D02*
X125418750Y-59056250D01*
G75*
G02*
X125468750Y-59006250I50000J0D01*
G01*
X126668750Y-59006250D01*
G75*
G02*
X126718750Y-59056250I0J-50000D01*
G01*
X126718750Y-60006250D01*
G75*
G02*
X126668750Y-60056250I-50000J0D01*
G01*
X125468750Y-60056250D01*
G75*
G02*
X125418750Y-60006250I0J50000D01*
G01*
G37*
G36*
G01*
X128868750Y-60006250D02*
X128868750Y-59056250D01*
G75*
G02*
X128918750Y-59006250I50000J0D01*
G01*
X130118750Y-59006250D01*
G75*
G02*
X130168750Y-59056250I0J-50000D01*
G01*
X130168750Y-60006250D01*
G75*
G02*
X130118750Y-60056250I-50000J0D01*
G01*
X128918750Y-60056250D01*
G75*
G02*
X128868750Y-60006250I0J50000D01*
G01*
G37*
G36*
G01*
X134237500Y-69100000D02*
X135637500Y-69100000D01*
G75*
G02*
X135687500Y-69150000I0J-50000D01*
G01*
X135687500Y-70550000D01*
G75*
G02*
X135637500Y-70600000I-50000J0D01*
G01*
X134237500Y-70600000D01*
G75*
G02*
X134187500Y-70550000I0J50000D01*
G01*
X134187500Y-69150000D01*
G75*
G02*
X134237500Y-69100000I50000J0D01*
G01*
G37*
X134937500Y-63500000D03*
G36*
G01*
X134462500Y-64300000D02*
X135412500Y-64300000D01*
G75*
G02*
X135462500Y-64350000I0J-50000D01*
G01*
X135462500Y-65550000D01*
G75*
G02*
X135412500Y-65600000I-50000J0D01*
G01*
X134462500Y-65600000D01*
G75*
G02*
X134412500Y-65550000I0J50000D01*
G01*
X134412500Y-64350000D01*
G75*
G02*
X134462500Y-64300000I50000J0D01*
G01*
G37*
G36*
G01*
X134462500Y-67750000D02*
X135412500Y-67750000D01*
G75*
G02*
X135462500Y-67800000I0J-50000D01*
G01*
X135462500Y-69000000D01*
G75*
G02*
X135412500Y-69050000I-50000J0D01*
G01*
X134462500Y-69050000D01*
G75*
G02*
X134412500Y-69000000I0J50000D01*
G01*
X134412500Y-67800000D01*
G75*
G02*
X134462500Y-67750000I50000J0D01*
G01*
G37*
G36*
G01*
X121350000Y-64250000D02*
X119950000Y-64250000D01*
G75*
G02*
X119900000Y-64200000I0J50000D01*
G01*
X119900000Y-62800000D01*
G75*
G02*
X119950000Y-62750000I50000J0D01*
G01*
X121350000Y-62750000D01*
G75*
G02*
X121400000Y-62800000I0J-50000D01*
G01*
X121400000Y-64200000D01*
G75*
G02*
X121350000Y-64250000I-50000J0D01*
G01*
G37*
X120650000Y-69850000D03*
G36*
G01*
X121125000Y-69050000D02*
X120175000Y-69050000D01*
G75*
G02*
X120125000Y-69000000I0J50000D01*
G01*
X120125000Y-67800000D01*
G75*
G02*
X120175000Y-67750000I50000J0D01*
G01*
X121125000Y-67750000D01*
G75*
G02*
X121175000Y-67800000I0J-50000D01*
G01*
X121175000Y-69000000D01*
G75*
G02*
X121125000Y-69050000I-50000J0D01*
G01*
G37*
G36*
G01*
X121125000Y-65600000D02*
X120175000Y-65600000D01*
G75*
G02*
X120125000Y-65550000I0J50000D01*
G01*
X120125000Y-64350000D01*
G75*
G02*
X120175000Y-64300000I50000J0D01*
G01*
X121125000Y-64300000D01*
G75*
G02*
X121175000Y-64350000I0J-50000D01*
G01*
X121175000Y-65550000D01*
G75*
G02*
X121125000Y-65600000I-50000J0D01*
G01*
G37*
G36*
G01*
X131718750Y-73175000D02*
X131718750Y-71775000D01*
G75*
G02*
X131768750Y-71725000I50000J0D01*
G01*
X133168750Y-71725000D01*
G75*
G02*
X133218750Y-71775000I0J-50000D01*
G01*
X133218750Y-73175000D01*
G75*
G02*
X133168750Y-73225000I-50000J0D01*
G01*
X131768750Y-73225000D01*
G75*
G02*
X131718750Y-73175000I0J50000D01*
G01*
G37*
X126118750Y-72475000D03*
G36*
G01*
X126918750Y-72950000D02*
X126918750Y-72000000D01*
G75*
G02*
X126968750Y-71950000I50000J0D01*
G01*
X128168750Y-71950000D01*
G75*
G02*
X128218750Y-72000000I0J-50000D01*
G01*
X128218750Y-72950000D01*
G75*
G02*
X128168750Y-73000000I-50000J0D01*
G01*
X126968750Y-73000000D01*
G75*
G02*
X126918750Y-72950000I0J50000D01*
G01*
G37*
G36*
G01*
X130368750Y-72950000D02*
X130368750Y-72000000D01*
G75*
G02*
X130418750Y-71950000I50000J0D01*
G01*
X131618750Y-71950000D01*
G75*
G02*
X131668750Y-72000000I0J-50000D01*
G01*
X131668750Y-72950000D01*
G75*
G02*
X131618750Y-73000000I-50000J0D01*
G01*
X130418750Y-73000000D01*
G75*
G02*
X130368750Y-72950000I0J50000D01*
G01*
G37*
G36*
G01*
X125368750Y-73175000D02*
X125368750Y-74575000D01*
G75*
G02*
X125318750Y-74625000I-50000J0D01*
G01*
X123918750Y-74625000D01*
G75*
G02*
X123868750Y-74575000I0J50000D01*
G01*
X123868750Y-73175000D01*
G75*
G02*
X123918750Y-73125000I50000J0D01*
G01*
X125318750Y-73125000D01*
G75*
G02*
X125368750Y-73175000I0J-50000D01*
G01*
G37*
X130968750Y-73875000D03*
G36*
G01*
X130168750Y-73400000D02*
X130168750Y-74350000D01*
G75*
G02*
X130118750Y-74400000I-50000J0D01*
G01*
X128918750Y-74400000D01*
G75*
G02*
X128868750Y-74350000I0J50000D01*
G01*
X128868750Y-73400000D01*
G75*
G02*
X128918750Y-73350000I50000J0D01*
G01*
X130118750Y-73350000D01*
G75*
G02*
X130168750Y-73400000I0J-50000D01*
G01*
G37*
G36*
G01*
X126718750Y-73400000D02*
X126718750Y-74350000D01*
G75*
G02*
X126668750Y-74400000I-50000J0D01*
G01*
X125468750Y-74400000D01*
G75*
G02*
X125418750Y-74350000I0J50000D01*
G01*
X125418750Y-73400000D01*
G75*
G02*
X125468750Y-73350000I50000J0D01*
G01*
X126668750Y-73350000D01*
G75*
G02*
X126718750Y-73400000I0J-50000D01*
G01*
G37*
G36*
G01*
X100267750Y-67750000D02*
X101217750Y-67750000D01*
G75*
G02*
X101267750Y-67800000I0J-50000D01*
G01*
X101267750Y-69000000D01*
G75*
G02*
X101217750Y-69050000I-50000J0D01*
G01*
X100267750Y-69050000D01*
G75*
G02*
X100217750Y-69000000I0J50000D01*
G01*
X100217750Y-67800000D01*
G75*
G02*
X100267750Y-67750000I50000J0D01*
G01*
G37*
G36*
G01*
X100267750Y-64300000D02*
X101217750Y-64300000D01*
G75*
G02*
X101267750Y-64350000I0J-50000D01*
G01*
X101267750Y-65550000D01*
G75*
G02*
X101217750Y-65600000I-50000J0D01*
G01*
X100267750Y-65600000D01*
G75*
G02*
X100217750Y-65550000I0J50000D01*
G01*
X100217750Y-64350000D01*
G75*
G02*
X100267750Y-64300000I50000J0D01*
G01*
G37*
G36*
G01*
X100042750Y-62750000D02*
X101442750Y-62750000D01*
G75*
G02*
X101492750Y-62800000I0J-50000D01*
G01*
X101492750Y-64200000D01*
G75*
G02*
X101442750Y-64250000I-50000J0D01*
G01*
X100042750Y-64250000D01*
G75*
G02*
X99992750Y-64200000I0J50000D01*
G01*
X99992750Y-62800000D01*
G75*
G02*
X100042750Y-62750000I50000J0D01*
G01*
G37*
X100742750Y-69850000D03*
G36*
G01*
X100693750Y-62612500D02*
X100693750Y-61212500D01*
G75*
G02*
X100743750Y-61162500I50000J0D01*
G01*
X102143750Y-61162500D01*
G75*
G02*
X102193750Y-61212500I0J-50000D01*
G01*
X102193750Y-62612500D01*
G75*
G02*
X102143750Y-62662500I-50000J0D01*
G01*
X100743750Y-62662500D01*
G75*
G02*
X100693750Y-62612500I0J50000D01*
G01*
G37*
G36*
G01*
X115290750Y-62612500D02*
X115290750Y-61212500D01*
G75*
G02*
X115340750Y-61162500I50000J0D01*
G01*
X116740750Y-61162500D01*
G75*
G02*
X116790750Y-61212500I0J-50000D01*
G01*
X116790750Y-62612500D01*
G75*
G02*
X116740750Y-62662500I-50000J0D01*
G01*
X115340750Y-62662500D01*
G75*
G02*
X115290750Y-62612500I0J50000D01*
G01*
G37*
G36*
G01*
X123731250Y-72187500D02*
X122331250Y-72187500D01*
G75*
G02*
X122281250Y-72137500I0J50000D01*
G01*
X122281250Y-70737500D01*
G75*
G02*
X122331250Y-70687500I50000J0D01*
G01*
X123731250Y-70687500D01*
G75*
G02*
X123781250Y-70737500I0J-50000D01*
G01*
X123781250Y-72137500D01*
G75*
G02*
X123731250Y-72187500I-50000J0D01*
G01*
G37*
G36*
G01*
X133256250Y-62662500D02*
X131856250Y-62662500D01*
G75*
G02*
X131806250Y-62612500I0J50000D01*
G01*
X131806250Y-61212500D01*
G75*
G02*
X131856250Y-61162500I50000J0D01*
G01*
X133256250Y-61162500D01*
G75*
G02*
X133306250Y-61212500I0J-50000D01*
G01*
X133306250Y-62612500D01*
G75*
G02*
X133256250Y-62662500I-50000J0D01*
G01*
G37*
G36*
G01*
X115994750Y-67375000D02*
X115994750Y-65975000D01*
G75*
G02*
X116044750Y-65925000I50000J0D01*
G01*
X117444750Y-65925000D01*
G75*
G02*
X117494750Y-65975000I0J-50000D01*
G01*
X117494750Y-67375000D01*
G75*
G02*
X117444750Y-67425000I-50000J0D01*
G01*
X116044750Y-67425000D01*
G75*
G02*
X115994750Y-67375000I0J50000D01*
G01*
G37*
G36*
G01*
X115993750Y-64200000D02*
X115993750Y-62800000D01*
G75*
G02*
X116043750Y-62750000I50000J0D01*
G01*
X117443750Y-62750000D01*
G75*
G02*
X117493750Y-62800000I0J-50000D01*
G01*
X117493750Y-64200000D01*
G75*
G02*
X117443750Y-64250000I-50000J0D01*
G01*
X116043750Y-64250000D01*
G75*
G02*
X115993750Y-64200000I0J50000D01*
G01*
G37*
G36*
G01*
X107993750Y-75376000D02*
X107993750Y-73976000D01*
G75*
G02*
X108043750Y-73926000I50000J0D01*
G01*
X109443750Y-73926000D01*
G75*
G02*
X109493750Y-73976000I0J-50000D01*
G01*
X109493750Y-75376000D01*
G75*
G02*
X109443750Y-75426000I-50000J0D01*
G01*
X108043750Y-75426000D01*
G75*
G02*
X107993750Y-75376000I0J50000D01*
G01*
G37*
D14*
X106243750Y-73675000D03*
X111243750Y-73675000D03*
G36*
G01*
X102143750Y-65025000D02*
X104143750Y-65025000D01*
G75*
G02*
X104193750Y-65075000I0J-50000D01*
G01*
X104193750Y-68275000D01*
G75*
G02*
X104143750Y-68325000I-50000J0D01*
G01*
X102143750Y-68325000D01*
G75*
G02*
X102093750Y-68275000I0J50000D01*
G01*
X102093750Y-65075000D01*
G75*
G02*
X102143750Y-65025000I50000J0D01*
G01*
G37*
G36*
G01*
X113343750Y-65025000D02*
X115343750Y-65025000D01*
G75*
G02*
X115393750Y-65075000I0J-50000D01*
G01*
X115393750Y-68275000D01*
G75*
G02*
X115343750Y-68325000I-50000J0D01*
G01*
X113343750Y-68325000D01*
G75*
G02*
X113293750Y-68275000I0J50000D01*
G01*
X113293750Y-65075000D01*
G75*
G02*
X113343750Y-65025000I50000J0D01*
G01*
G37*
X106243750Y-59175000D03*
X108743750Y-59175000D03*
X111243750Y-59175000D03*
D15*
X68262500Y-72495000D03*
X65722500Y-72495000D03*
X63182500Y-72495000D03*
D16*
X73342500Y-72495000D03*
D17*
X73442500Y-72495000D03*
X70702500Y-72495000D03*
D16*
X70802500Y-72495000D03*
X68262500Y-72495000D03*
D15*
X58102500Y-72495000D03*
X47942500Y-72495000D03*
D16*
X47942500Y-72495000D03*
D17*
X55662500Y-72495000D03*
D16*
X50482500Y-72495000D03*
X53022500Y-72495000D03*
D17*
X50382500Y-72495000D03*
D15*
X75882500Y-72495000D03*
D16*
X55562500Y-72495000D03*
D18*
X53022500Y-72357500D03*
D15*
X47942500Y-57255000D03*
X50482500Y-57255000D03*
X53022500Y-57255000D03*
X55562500Y-57255000D03*
X58102500Y-57255000D03*
X60642500Y-57255000D03*
X63182500Y-57255000D03*
X65722500Y-57255000D03*
X68262500Y-57255000D03*
X70802500Y-57255000D03*
X73342500Y-57255000D03*
X75882500Y-57255000D03*
X60612500Y-72495000D03*
G36*
G01*
X132306250Y-151087500D02*
X131306250Y-151087500D01*
G75*
G02*
X131256250Y-151037500I0J50000D01*
G01*
X131256250Y-149637500D01*
G75*
G02*
X131306250Y-149587500I50000J0D01*
G01*
X132306250Y-149587500D01*
G75*
G02*
X132356250Y-149637500I0J-50000D01*
G01*
X132356250Y-151037500D01*
G75*
G02*
X132306250Y-151087500I-50000J0D01*
G01*
G37*
G36*
G01*
X133806250Y-145687500D02*
X132806250Y-145687500D01*
G75*
G02*
X132756250Y-145637500I0J50000D01*
G01*
X132756250Y-144237500D01*
G75*
G02*
X132806250Y-144187500I50000J0D01*
G01*
X133806250Y-144187500D01*
G75*
G02*
X133856250Y-144237500I0J-50000D01*
G01*
X133856250Y-145637500D01*
G75*
G02*
X133806250Y-145687500I-50000J0D01*
G01*
G37*
G36*
G01*
X132306250Y-145687500D02*
X131306250Y-145687500D01*
G75*
G02*
X131256250Y-145637500I0J50000D01*
G01*
X131256250Y-144237500D01*
G75*
G02*
X131306250Y-144187500I50000J0D01*
G01*
X132306250Y-144187500D01*
G75*
G02*
X132356250Y-144237500I0J-50000D01*
G01*
X132356250Y-145637500D01*
G75*
G02*
X132306250Y-145687500I-50000J0D01*
G01*
G37*
G36*
G01*
X133806250Y-151087500D02*
X132806250Y-151087500D01*
G75*
G02*
X132756250Y-151037500I0J50000D01*
G01*
X132756250Y-149637500D01*
G75*
G02*
X132806250Y-149587500I50000J0D01*
G01*
X133806250Y-149587500D01*
G75*
G02*
X133856250Y-149637500I0J-50000D01*
G01*
X133856250Y-151037500D01*
G75*
G02*
X133806250Y-151087500I-50000J0D01*
G01*
G37*
G36*
G01*
X132306250Y-141562500D02*
X131306250Y-141562500D01*
G75*
G02*
X131256250Y-141512500I0J50000D01*
G01*
X131256250Y-140112500D01*
G75*
G02*
X131306250Y-140062500I50000J0D01*
G01*
X132306250Y-140062500D01*
G75*
G02*
X132356250Y-140112500I0J-50000D01*
G01*
X132356250Y-141512500D01*
G75*
G02*
X132306250Y-141562500I-50000J0D01*
G01*
G37*
G36*
G01*
X133806250Y-136162500D02*
X132806250Y-136162500D01*
G75*
G02*
X132756250Y-136112500I0J50000D01*
G01*
X132756250Y-134712500D01*
G75*
G02*
X132806250Y-134662500I50000J0D01*
G01*
X133806250Y-134662500D01*
G75*
G02*
X133856250Y-134712500I0J-50000D01*
G01*
X133856250Y-136112500D01*
G75*
G02*
X133806250Y-136162500I-50000J0D01*
G01*
G37*
G36*
G01*
X132306250Y-136162500D02*
X131306250Y-136162500D01*
G75*
G02*
X131256250Y-136112500I0J50000D01*
G01*
X131256250Y-134712500D01*
G75*
G02*
X131306250Y-134662500I50000J0D01*
G01*
X132306250Y-134662500D01*
G75*
G02*
X132356250Y-134712500I0J-50000D01*
G01*
X132356250Y-136112500D01*
G75*
G02*
X132306250Y-136162500I-50000J0D01*
G01*
G37*
G36*
G01*
X133806250Y-141562500D02*
X132806250Y-141562500D01*
G75*
G02*
X132756250Y-141512500I0J50000D01*
G01*
X132756250Y-140112500D01*
G75*
G02*
X132806250Y-140062500I50000J0D01*
G01*
X133806250Y-140062500D01*
G75*
G02*
X133856250Y-140112500I0J-50000D01*
G01*
X133856250Y-141512500D01*
G75*
G02*
X133806250Y-141562500I-50000J0D01*
G01*
G37*
G36*
G01*
X88687188Y-70784375D02*
X87287188Y-70784375D01*
G75*
G02*
X87237188Y-70734375I0J50000D01*
G01*
X87237188Y-69334375D01*
G75*
G02*
X87287188Y-69284375I50000J0D01*
G01*
X88687188Y-69284375D01*
G75*
G02*
X88737188Y-69334375I0J-50000D01*
G01*
X88737188Y-70734375D01*
G75*
G02*
X88687188Y-70784375I-50000J0D01*
G01*
G37*
D19*
X90527188Y-70034375D03*
X93067188Y-70034375D03*
D10*
X58102501Y-67256250D03*
X60642501Y-67256250D03*
X63182501Y-67256250D03*
X65722501Y-67256250D03*
X68262501Y-67256250D03*
X70802501Y-67256250D03*
X73342501Y-67256250D03*
X75882501Y-67256250D03*
X58102501Y-62493750D03*
X60642501Y-62493750D03*
X63182501Y-62493750D03*
X65722501Y-62493750D03*
X68262501Y-62493750D03*
X70802501Y-62493750D03*
X73342501Y-62493750D03*
X75882501Y-62493750D03*
D20*
X129693750Y-66675000D03*
D21*
X125893750Y-66675000D03*
G36*
G01*
X124093750Y-65825000D02*
X122893750Y-65825000D01*
G75*
G02*
X122843750Y-65775000I0J50000D01*
G01*
X122843750Y-64975000D01*
G75*
G02*
X122893750Y-64925000I50000J0D01*
G01*
X124093750Y-64925000D01*
G75*
G02*
X124143750Y-64975000I0J-50000D01*
G01*
X124143750Y-65775000D01*
G75*
G02*
X124093750Y-65825000I-50000J0D01*
G01*
G37*
G36*
G01*
X132693750Y-68425000D02*
X131493750Y-68425000D01*
G75*
G02*
X131443750Y-68375000I0J50000D01*
G01*
X131443750Y-67575000D01*
G75*
G02*
X131493750Y-67525000I50000J0D01*
G01*
X132693750Y-67525000D01*
G75*
G02*
X132743750Y-67575000I0J-50000D01*
G01*
X132743750Y-68375000D01*
G75*
G02*
X132693750Y-68425000I-50000J0D01*
G01*
G37*
G36*
G01*
X124693750Y-67125000D02*
X122893750Y-67125000D01*
G75*
G02*
X122843750Y-67075000I0J50000D01*
G01*
X122843750Y-66275000D01*
G75*
G02*
X122893750Y-66225000I50000J0D01*
G01*
X124693750Y-66225000D01*
G75*
G02*
X124743750Y-66275000I0J-50000D01*
G01*
X124743750Y-67075000D01*
G75*
G02*
X124693750Y-67125000I-50000J0D01*
G01*
G37*
G36*
G01*
X132693750Y-67125000D02*
X130893750Y-67125000D01*
G75*
G02*
X130843750Y-67075000I0J50000D01*
G01*
X130843750Y-66275000D01*
G75*
G02*
X130893750Y-66225000I50000J0D01*
G01*
X132693750Y-66225000D01*
G75*
G02*
X132743750Y-66275000I0J-50000D01*
G01*
X132743750Y-67075000D01*
G75*
G02*
X132693750Y-67125000I-50000J0D01*
G01*
G37*
G36*
G01*
X127343750Y-63575000D02*
X127343750Y-61775000D01*
G75*
G02*
X127393750Y-61725000I50000J0D01*
G01*
X128193750Y-61725000D01*
G75*
G02*
X128243750Y-61775000I0J-50000D01*
G01*
X128243750Y-63575000D01*
G75*
G02*
X128193750Y-63625000I-50000J0D01*
G01*
X127393750Y-63625000D01*
G75*
G02*
X127343750Y-63575000I0J50000D01*
G01*
G37*
G36*
G01*
X127343750Y-71575000D02*
X127343750Y-69775000D01*
G75*
G02*
X127393750Y-69725000I50000J0D01*
G01*
X128193750Y-69725000D01*
G75*
G02*
X128243750Y-69775000I0J-50000D01*
G01*
X128243750Y-71575000D01*
G75*
G02*
X128193750Y-71625000I-50000J0D01*
G01*
X127393750Y-71625000D01*
G75*
G02*
X127343750Y-71575000I0J50000D01*
G01*
G37*
G36*
G01*
X125343750Y-63574999D02*
X125343750Y-61774999D01*
G75*
G02*
X125393750Y-61724999I50000J0D01*
G01*
X126793750Y-61724999D01*
G75*
G02*
X126843750Y-61774999I0J-50000D01*
G01*
X126843750Y-63574999D01*
G75*
G02*
X126793750Y-63624999I-50000J0D01*
G01*
X125393750Y-63624999D01*
G75*
G02*
X125343750Y-63574999I0J50000D01*
G01*
G37*
G36*
G01*
X128743750Y-63574999D02*
X128743750Y-61774999D01*
G75*
G02*
X128793750Y-61724999I50000J0D01*
G01*
X130193750Y-61724999D01*
G75*
G02*
X130243750Y-61774999I0J-50000D01*
G01*
X130243750Y-63574999D01*
G75*
G02*
X130193750Y-63624999I-50000J0D01*
G01*
X128793750Y-63624999D01*
G75*
G02*
X128743750Y-63574999I0J50000D01*
G01*
G37*
G36*
G01*
X125343750Y-71575001D02*
X125343750Y-69775001D01*
G75*
G02*
X125393750Y-69725001I50000J0D01*
G01*
X126793750Y-69725001D01*
G75*
G02*
X126843750Y-69775001I0J-50000D01*
G01*
X126843750Y-71575001D01*
G75*
G02*
X126793750Y-71625001I-50000J0D01*
G01*
X125393750Y-71625001D01*
G75*
G02*
X125343750Y-71575001I0J50000D01*
G01*
G37*
G36*
G01*
X128743750Y-71575001D02*
X128743750Y-69775001D01*
G75*
G02*
X128793750Y-69725001I50000J0D01*
G01*
X130193750Y-69725001D01*
G75*
G02*
X130243750Y-69775001I0J-50000D01*
G01*
X130243750Y-71575001D01*
G75*
G02*
X130193750Y-71625001I-50000J0D01*
G01*
X128793750Y-71625001D01*
G75*
G02*
X128743750Y-71575001I0J50000D01*
G01*
G37*
D20*
X126450247Y-68018503D03*
D21*
X129137253Y-65331497D03*
D22*
X102543750Y-72475000D03*
X102543750Y-70475000D03*
D14*
X104933750Y-70925000D03*
X107473750Y-70925000D03*
X110013750Y-70875000D03*
D22*
X112553750Y-70925000D03*
D23*
X115043750Y-70925000D03*
D10*
X78581448Y-68685168D03*
X78581448Y-66145168D03*
X78581448Y-63605168D03*
X78581448Y-61065168D03*
G36*
G01*
X61650000Y-60487500D02*
X62175000Y-60487500D01*
G75*
G02*
X62437500Y-60750000I0J-262500D01*
G01*
X62437500Y-61300000D01*
G75*
G02*
X62175000Y-61562500I-262500J0D01*
G01*
X61650000Y-61562500D01*
G75*
G02*
X61387500Y-61300000I0J262500D01*
G01*
X61387500Y-60750000D01*
G75*
G02*
X61650000Y-60487500I262500J0D01*
G01*
G37*
G36*
G01*
X61650000Y-58662500D02*
X62175000Y-58662500D01*
G75*
G02*
X62437500Y-58925000I0J-262500D01*
G01*
X62437500Y-59475000D01*
G75*
G02*
X62175000Y-59737500I-262500J0D01*
G01*
X61650000Y-59737500D01*
G75*
G02*
X61387500Y-59475000I0J262500D01*
G01*
X61387500Y-58925000D01*
G75*
G02*
X61650000Y-58662500I262500J0D01*
G01*
G37*
G36*
G01*
X59110000Y-60487500D02*
X59635000Y-60487500D01*
G75*
G02*
X59897500Y-60750000I0J-262500D01*
G01*
X59897500Y-61300000D01*
G75*
G02*
X59635000Y-61562500I-262500J0D01*
G01*
X59110000Y-61562500D01*
G75*
G02*
X58847500Y-61300000I0J262500D01*
G01*
X58847500Y-60750000D01*
G75*
G02*
X59110000Y-60487500I262500J0D01*
G01*
G37*
G36*
G01*
X59110000Y-58662500D02*
X59635000Y-58662500D01*
G75*
G02*
X59897500Y-58925000I0J-262500D01*
G01*
X59897500Y-59475000D01*
G75*
G02*
X59635000Y-59737500I-262500J0D01*
G01*
X59110000Y-59737500D01*
G75*
G02*
X58847500Y-59475000I0J262500D01*
G01*
X58847500Y-58925000D01*
G75*
G02*
X59110000Y-58662500I262500J0D01*
G01*
G37*
D14*
X80168750Y-73018750D03*
X80168750Y-56731250D03*
X42412500Y-56738750D03*
X96837500Y-56731250D03*
X96837500Y-73018750D03*
X42412500Y-73018750D03*
D13*
X136048750Y-102362000D03*
X136048750Y-126238000D03*
D11*
X120808750Y-102362000D03*
X120808750Y-126238000D03*
D24*
X89428125Y-67246875D03*
X93928125Y-66146875D03*
X93928125Y-62046875D03*
X93928125Y-58946875D03*
D25*
X91678125Y-64346875D03*
X91678125Y-57346875D03*
D24*
X91546875Y-67246875D03*
X87046875Y-66146875D03*
X87046875Y-62046875D03*
X87046875Y-58946875D03*
D25*
X89296875Y-64346875D03*
X89296875Y-57346875D03*
D14*
X83740625Y-65942350D03*
X83740625Y-59442350D03*
G36*
G01*
X83419250Y-57955000D02*
X83419250Y-56555000D01*
G75*
G02*
X83469250Y-56505000I50000J0D01*
G01*
X84869250Y-56505000D01*
G75*
G02*
X84919250Y-56555000I0J-50000D01*
G01*
X84919250Y-57955000D01*
G75*
G02*
X84869250Y-58005000I-50000J0D01*
G01*
X83469250Y-58005000D01*
G75*
G02*
X83419250Y-57955000I0J50000D01*
G01*
G37*
D10*
X54165500Y-66653000D03*
X119792750Y-137160000D03*
X125507750Y-138912500D03*
X119792750Y-146685000D03*
X125507750Y-148412500D03*
X135794750Y-146685000D03*
X130079750Y-148399500D03*
X135794750Y-137160000D03*
X130081250Y-138912500D03*
G36*
G01*
X130067750Y-146062500D02*
X130067750Y-147462500D01*
G75*
G02*
X130017750Y-147512500I-50000J0D01*
G01*
X128617750Y-147512500D01*
G75*
G02*
X128567750Y-147462500I0J50000D01*
G01*
X128567750Y-146062500D01*
G75*
G02*
X128617750Y-146012500I50000J0D01*
G01*
X130017750Y-146012500D01*
G75*
G02*
X130067750Y-146062500I0J-50000D01*
G01*
G37*
G36*
G01*
X135782750Y-147699500D02*
X135782750Y-149099500D01*
G75*
G02*
X135732750Y-149149500I-50000J0D01*
G01*
X134332750Y-149149500D01*
G75*
G02*
X134282750Y-149099500I0J50000D01*
G01*
X134282750Y-147699500D01*
G75*
G02*
X134332750Y-147649500I50000J0D01*
G01*
X135732750Y-147649500D01*
G75*
G02*
X135782750Y-147699500I0J-50000D01*
G01*
G37*
G36*
G01*
X130067750Y-136612500D02*
X130067750Y-138012500D01*
G75*
G02*
X130017750Y-138062500I-50000J0D01*
G01*
X128617750Y-138062500D01*
G75*
G02*
X128567750Y-138012500I0J50000D01*
G01*
X128567750Y-136612500D01*
G75*
G02*
X128617750Y-136562500I50000J0D01*
G01*
X130017750Y-136562500D01*
G75*
G02*
X130067750Y-136612500I0J-50000D01*
G01*
G37*
G36*
G01*
X135782750Y-138174500D02*
X135782750Y-139574500D01*
G75*
G02*
X135732750Y-139624500I-50000J0D01*
G01*
X134332750Y-139624500D01*
G75*
G02*
X134282750Y-139574500I0J50000D01*
G01*
X134282750Y-138174500D01*
G75*
G02*
X134332750Y-138124500I50000J0D01*
G01*
X135732750Y-138124500D01*
G75*
G02*
X135782750Y-138174500I0J-50000D01*
G01*
G37*
G36*
G01*
X130556250Y-141289300D02*
X130556250Y-140335700D01*
G75*
G02*
X130854450Y-140037500I298200J0D01*
G01*
X131658050Y-140037500D01*
G75*
G02*
X131956250Y-140335700I0J-298200D01*
G01*
X131956250Y-141289300D01*
G75*
G02*
X131658050Y-141587500I-298200J0D01*
G01*
X130854450Y-141587500D01*
G75*
G02*
X130556250Y-141289300I0J298200D01*
G01*
G37*
G36*
G01*
X128606250Y-141289300D02*
X128606250Y-140335700D01*
G75*
G02*
X128904450Y-140037500I298200J0D01*
G01*
X129708050Y-140037500D01*
G75*
G02*
X130006250Y-140335700I0J-298200D01*
G01*
X130006250Y-141289300D01*
G75*
G02*
X129708050Y-141587500I-298200J0D01*
G01*
X128904450Y-141587500D01*
G75*
G02*
X128606250Y-141289300I0J298200D01*
G01*
G37*
G36*
G01*
X130556250Y-150739300D02*
X130556250Y-149785700D01*
G75*
G02*
X130854450Y-149487500I298200J0D01*
G01*
X131658050Y-149487500D01*
G75*
G02*
X131956250Y-149785700I0J-298200D01*
G01*
X131956250Y-150739300D01*
G75*
G02*
X131658050Y-151037500I-298200J0D01*
G01*
X130854450Y-151037500D01*
G75*
G02*
X130556250Y-150739300I0J298200D01*
G01*
G37*
G36*
G01*
X128606250Y-150739300D02*
X128606250Y-149785700D01*
G75*
G02*
X128904450Y-149487500I298200J0D01*
G01*
X129708050Y-149487500D01*
G75*
G02*
X130006250Y-149785700I0J-298200D01*
G01*
X130006250Y-150739300D01*
G75*
G02*
X129708050Y-151037500I-298200J0D01*
G01*
X128904450Y-151037500D01*
G75*
G02*
X128606250Y-150739300I0J298200D01*
G01*
G37*
D25*
X134937500Y-140493750D03*
X120650000Y-140493750D03*
X120650000Y-150018750D03*
X134937500Y-150018750D03*
X130175000Y-135731250D03*
X125412500Y-145256250D03*
X130175000Y-145256250D03*
X125412500Y-135731250D03*
D20*
X55562500Y-70520000D03*
D26*
G36*
X56361539Y-70954755D02*
G01*
X56358694Y-70964134D01*
X56354073Y-70972779D01*
X56347855Y-70980355D01*
X56340279Y-70986573D01*
X56331634Y-70991194D01*
X56322255Y-70994039D01*
X56312500Y-70995000D01*
X54812500Y-70995000D01*
X54802745Y-70994039D01*
X54793366Y-70991194D01*
X54784721Y-70986573D01*
X54777145Y-70980355D01*
X54770927Y-70972779D01*
X54766306Y-70964134D01*
X54763461Y-70954755D01*
X54762500Y-70945000D01*
X54762500Y-69395000D01*
X54763461Y-69385245D01*
X54766306Y-69375866D01*
X54770927Y-69367221D01*
X54777145Y-69359645D01*
X54784721Y-69353427D01*
X54793366Y-69348806D01*
X54802745Y-69345961D01*
X54812500Y-69345000D01*
X54822255Y-69345961D01*
X54831634Y-69348806D01*
X54840235Y-69353397D01*
X55562500Y-69834907D01*
X56284765Y-69353397D01*
X56293414Y-69348786D01*
X56302797Y-69345951D01*
X56312552Y-69345000D01*
X56322306Y-69345971D01*
X56331682Y-69348826D01*
X56340322Y-69353456D01*
X56347892Y-69359682D01*
X56354103Y-69367265D01*
X56358714Y-69375914D01*
X56361549Y-69385297D01*
X56362500Y-69395000D01*
X56362500Y-70945000D01*
X56361539Y-70954755D01*
G37*
G36*
X56361539Y-69104755D02*
G01*
X56358694Y-69114134D01*
X56354073Y-69122779D01*
X56347855Y-69130355D01*
X56340235Y-69136603D01*
X55590235Y-69636603D01*
X55581586Y-69641214D01*
X55572203Y-69644049D01*
X55562448Y-69645000D01*
X55552694Y-69644029D01*
X55543318Y-69641174D01*
X55534765Y-69636603D01*
X54784765Y-69136603D01*
X54777182Y-69130392D01*
X54770956Y-69122822D01*
X54766326Y-69114182D01*
X54763471Y-69104806D01*
X54762500Y-69095000D01*
X54762500Y-68095000D01*
X54763461Y-68085245D01*
X54766306Y-68075866D01*
X54770927Y-68067221D01*
X54777145Y-68059645D01*
X54784721Y-68053427D01*
X54793366Y-68048806D01*
X54802745Y-68045961D01*
X54812500Y-68045000D01*
X56312500Y-68045000D01*
X56322255Y-68045961D01*
X56331634Y-68048806D01*
X56340279Y-68053427D01*
X56347855Y-68059645D01*
X56354073Y-68067221D01*
X56358694Y-68075866D01*
X56361539Y-68085245D01*
X56362500Y-68095000D01*
X56362500Y-69095000D01*
X56361539Y-69104755D01*
G37*
D20*
X53022500Y-70520000D03*
D26*
G36*
X53821539Y-70954755D02*
G01*
X53818694Y-70964134D01*
X53814073Y-70972779D01*
X53807855Y-70980355D01*
X53800279Y-70986573D01*
X53791634Y-70991194D01*
X53782255Y-70994039D01*
X53772500Y-70995000D01*
X52272500Y-70995000D01*
X52262745Y-70994039D01*
X52253366Y-70991194D01*
X52244721Y-70986573D01*
X52237145Y-70980355D01*
X52230927Y-70972779D01*
X52226306Y-70964134D01*
X52223461Y-70954755D01*
X52222500Y-70945000D01*
X52222500Y-69395000D01*
X52223461Y-69385245D01*
X52226306Y-69375866D01*
X52230927Y-69367221D01*
X52237145Y-69359645D01*
X52244721Y-69353427D01*
X52253366Y-69348806D01*
X52262745Y-69345961D01*
X52272500Y-69345000D01*
X52282255Y-69345961D01*
X52291634Y-69348806D01*
X52300235Y-69353397D01*
X53022500Y-69834907D01*
X53744765Y-69353397D01*
X53753414Y-69348786D01*
X53762797Y-69345951D01*
X53772552Y-69345000D01*
X53782306Y-69345971D01*
X53791682Y-69348826D01*
X53800322Y-69353456D01*
X53807892Y-69359682D01*
X53814103Y-69367265D01*
X53818714Y-69375914D01*
X53821549Y-69385297D01*
X53822500Y-69395000D01*
X53822500Y-70945000D01*
X53821539Y-70954755D01*
G37*
G36*
X53821539Y-69104755D02*
G01*
X53818694Y-69114134D01*
X53814073Y-69122779D01*
X53807855Y-69130355D01*
X53800235Y-69136603D01*
X53050235Y-69636603D01*
X53041586Y-69641214D01*
X53032203Y-69644049D01*
X53022448Y-69645000D01*
X53012694Y-69644029D01*
X53003318Y-69641174D01*
X52994765Y-69636603D01*
X52244765Y-69136603D01*
X52237182Y-69130392D01*
X52230956Y-69122822D01*
X52226326Y-69114182D01*
X52223471Y-69104806D01*
X52222500Y-69095000D01*
X52222500Y-68095000D01*
X52223461Y-68085245D01*
X52226306Y-68075866D01*
X52230927Y-68067221D01*
X52237145Y-68059645D01*
X52244721Y-68053427D01*
X52253366Y-68048806D01*
X52262745Y-68045961D01*
X52272500Y-68045000D01*
X53772500Y-68045000D01*
X53782255Y-68045961D01*
X53791634Y-68048806D01*
X53800279Y-68053427D01*
X53807855Y-68059645D01*
X53814073Y-68067221D01*
X53818694Y-68075866D01*
X53821539Y-68085245D01*
X53822500Y-68095000D01*
X53822500Y-69095000D01*
X53821539Y-69104755D01*
G37*
D20*
X50482500Y-70520000D03*
D26*
G36*
X51281539Y-70954755D02*
G01*
X51278694Y-70964134D01*
X51274073Y-70972779D01*
X51267855Y-70980355D01*
X51260279Y-70986573D01*
X51251634Y-70991194D01*
X51242255Y-70994039D01*
X51232500Y-70995000D01*
X49732500Y-70995000D01*
X49722745Y-70994039D01*
X49713366Y-70991194D01*
X49704721Y-70986573D01*
X49697145Y-70980355D01*
X49690927Y-70972779D01*
X49686306Y-70964134D01*
X49683461Y-70954755D01*
X49682500Y-70945000D01*
X49682500Y-69395000D01*
X49683461Y-69385245D01*
X49686306Y-69375866D01*
X49690927Y-69367221D01*
X49697145Y-69359645D01*
X49704721Y-69353427D01*
X49713366Y-69348806D01*
X49722745Y-69345961D01*
X49732500Y-69345000D01*
X49742255Y-69345961D01*
X49751634Y-69348806D01*
X49760235Y-69353397D01*
X50482500Y-69834907D01*
X51204765Y-69353397D01*
X51213414Y-69348786D01*
X51222797Y-69345951D01*
X51232552Y-69345000D01*
X51242306Y-69345971D01*
X51251682Y-69348826D01*
X51260322Y-69353456D01*
X51267892Y-69359682D01*
X51274103Y-69367265D01*
X51278714Y-69375914D01*
X51281549Y-69385297D01*
X51282500Y-69395000D01*
X51282500Y-70945000D01*
X51281539Y-70954755D01*
G37*
G36*
X51281539Y-69104755D02*
G01*
X51278694Y-69114134D01*
X51274073Y-69122779D01*
X51267855Y-69130355D01*
X51260235Y-69136603D01*
X50510235Y-69636603D01*
X50501586Y-69641214D01*
X50492203Y-69644049D01*
X50482448Y-69645000D01*
X50472694Y-69644029D01*
X50463318Y-69641174D01*
X50454765Y-69636603D01*
X49704765Y-69136603D01*
X49697182Y-69130392D01*
X49690956Y-69122822D01*
X49686326Y-69114182D01*
X49683471Y-69104806D01*
X49682500Y-69095000D01*
X49682500Y-68095000D01*
X49683461Y-68085245D01*
X49686306Y-68075866D01*
X49690927Y-68067221D01*
X49697145Y-68059645D01*
X49704721Y-68053427D01*
X49713366Y-68048806D01*
X49722745Y-68045961D01*
X49732500Y-68045000D01*
X51232500Y-68045000D01*
X51242255Y-68045961D01*
X51251634Y-68048806D01*
X51260279Y-68053427D01*
X51267855Y-68059645D01*
X51274073Y-68067221D01*
X51278694Y-68075866D01*
X51281539Y-68085245D01*
X51282500Y-68095000D01*
X51282500Y-69095000D01*
X51281539Y-69104755D01*
G37*
D20*
X47942500Y-70520000D03*
D26*
G36*
X48741539Y-70954755D02*
G01*
X48738694Y-70964134D01*
X48734073Y-70972779D01*
X48727855Y-70980355D01*
X48720279Y-70986573D01*
X48711634Y-70991194D01*
X48702255Y-70994039D01*
X48692500Y-70995000D01*
X47192500Y-70995000D01*
X47182745Y-70994039D01*
X47173366Y-70991194D01*
X47164721Y-70986573D01*
X47157145Y-70980355D01*
X47150927Y-70972779D01*
X47146306Y-70964134D01*
X47143461Y-70954755D01*
X47142500Y-70945000D01*
X47142500Y-69395000D01*
X47143461Y-69385245D01*
X47146306Y-69375866D01*
X47150927Y-69367221D01*
X47157145Y-69359645D01*
X47164721Y-69353427D01*
X47173366Y-69348806D01*
X47182745Y-69345961D01*
X47192500Y-69345000D01*
X47202255Y-69345961D01*
X47211634Y-69348806D01*
X47220235Y-69353397D01*
X47942500Y-69834907D01*
X48664765Y-69353397D01*
X48673414Y-69348786D01*
X48682797Y-69345951D01*
X48692552Y-69345000D01*
X48702306Y-69345971D01*
X48711682Y-69348826D01*
X48720322Y-69353456D01*
X48727892Y-69359682D01*
X48734103Y-69367265D01*
X48738714Y-69375914D01*
X48741549Y-69385297D01*
X48742500Y-69395000D01*
X48742500Y-70945000D01*
X48741539Y-70954755D01*
G37*
G36*
X48741539Y-69104755D02*
G01*
X48738694Y-69114134D01*
X48734073Y-69122779D01*
X48727855Y-69130355D01*
X48720235Y-69136603D01*
X47970235Y-69636603D01*
X47961586Y-69641214D01*
X47952203Y-69644049D01*
X47942448Y-69645000D01*
X47932694Y-69644029D01*
X47923318Y-69641174D01*
X47914765Y-69636603D01*
X47164765Y-69136603D01*
X47157182Y-69130392D01*
X47150956Y-69122822D01*
X47146326Y-69114182D01*
X47143471Y-69104806D01*
X47142500Y-69095000D01*
X47142500Y-68095000D01*
X47143461Y-68085245D01*
X47146306Y-68075866D01*
X47150927Y-68067221D01*
X47157145Y-68059645D01*
X47164721Y-68053427D01*
X47173366Y-68048806D01*
X47182745Y-68045961D01*
X47192500Y-68045000D01*
X48692500Y-68045000D01*
X48702255Y-68045961D01*
X48711634Y-68048806D01*
X48720279Y-68053427D01*
X48727855Y-68059645D01*
X48734073Y-68067221D01*
X48738694Y-68075866D01*
X48741539Y-68085245D01*
X48742500Y-68095000D01*
X48742500Y-69095000D01*
X48741539Y-69104755D01*
G37*
D20*
X47942500Y-59230000D03*
D26*
G36*
X47143461Y-58795245D02*
G01*
X47146306Y-58785866D01*
X47150927Y-58777221D01*
X47157145Y-58769645D01*
X47164721Y-58763427D01*
X47173366Y-58758806D01*
X47182745Y-58755961D01*
X47192500Y-58755000D01*
X48692500Y-58755000D01*
X48702255Y-58755961D01*
X48711634Y-58758806D01*
X48720279Y-58763427D01*
X48727855Y-58769645D01*
X48734073Y-58777221D01*
X48738694Y-58785866D01*
X48741539Y-58795245D01*
X48742500Y-58805000D01*
X48742500Y-60355000D01*
X48741539Y-60364755D01*
X48738694Y-60374134D01*
X48734073Y-60382779D01*
X48727855Y-60390355D01*
X48720279Y-60396573D01*
X48711634Y-60401194D01*
X48702255Y-60404039D01*
X48692500Y-60405000D01*
X48682745Y-60404039D01*
X48673366Y-60401194D01*
X48664765Y-60396603D01*
X47942500Y-59915093D01*
X47220235Y-60396603D01*
X47211586Y-60401214D01*
X47202203Y-60404049D01*
X47192448Y-60405000D01*
X47182694Y-60404029D01*
X47173318Y-60401174D01*
X47164678Y-60396544D01*
X47157108Y-60390318D01*
X47150897Y-60382735D01*
X47146286Y-60374086D01*
X47143451Y-60364703D01*
X47142500Y-60355000D01*
X47142500Y-58805000D01*
X47143461Y-58795245D01*
G37*
G36*
X47143461Y-60645245D02*
G01*
X47146306Y-60635866D01*
X47150927Y-60627221D01*
X47157145Y-60619645D01*
X47164765Y-60613397D01*
X47914765Y-60113397D01*
X47923414Y-60108786D01*
X47932797Y-60105951D01*
X47942552Y-60105000D01*
X47952306Y-60105971D01*
X47961682Y-60108826D01*
X47970235Y-60113397D01*
X48720235Y-60613397D01*
X48727818Y-60619608D01*
X48734044Y-60627178D01*
X48738674Y-60635818D01*
X48741529Y-60645194D01*
X48742500Y-60655000D01*
X48742500Y-61655000D01*
X48741539Y-61664755D01*
X48738694Y-61674134D01*
X48734073Y-61682779D01*
X48727855Y-61690355D01*
X48720279Y-61696573D01*
X48711634Y-61701194D01*
X48702255Y-61704039D01*
X48692500Y-61705000D01*
X47192500Y-61705000D01*
X47182745Y-61704039D01*
X47173366Y-61701194D01*
X47164721Y-61696573D01*
X47157145Y-61690355D01*
X47150927Y-61682779D01*
X47146306Y-61674134D01*
X47143461Y-61664755D01*
X47142500Y-61655000D01*
X47142500Y-60655000D01*
X47143461Y-60645245D01*
G37*
D20*
X50482500Y-59230000D03*
D26*
G36*
X49683461Y-58795245D02*
G01*
X49686306Y-58785866D01*
X49690927Y-58777221D01*
X49697145Y-58769645D01*
X49704721Y-58763427D01*
X49713366Y-58758806D01*
X49722745Y-58755961D01*
X49732500Y-58755000D01*
X51232500Y-58755000D01*
X51242255Y-58755961D01*
X51251634Y-58758806D01*
X51260279Y-58763427D01*
X51267855Y-58769645D01*
X51274073Y-58777221D01*
X51278694Y-58785866D01*
X51281539Y-58795245D01*
X51282500Y-58805000D01*
X51282500Y-60355000D01*
X51281539Y-60364755D01*
X51278694Y-60374134D01*
X51274073Y-60382779D01*
X51267855Y-60390355D01*
X51260279Y-60396573D01*
X51251634Y-60401194D01*
X51242255Y-60404039D01*
X51232500Y-60405000D01*
X51222745Y-60404039D01*
X51213366Y-60401194D01*
X51204765Y-60396603D01*
X50482500Y-59915093D01*
X49760235Y-60396603D01*
X49751586Y-60401214D01*
X49742203Y-60404049D01*
X49732448Y-60405000D01*
X49722694Y-60404029D01*
X49713318Y-60401174D01*
X49704678Y-60396544D01*
X49697108Y-60390318D01*
X49690897Y-60382735D01*
X49686286Y-60374086D01*
X49683451Y-60364703D01*
X49682500Y-60355000D01*
X49682500Y-58805000D01*
X49683461Y-58795245D01*
G37*
G36*
X49683461Y-60645245D02*
G01*
X49686306Y-60635866D01*
X49690927Y-60627221D01*
X49697145Y-60619645D01*
X49704765Y-60613397D01*
X50454765Y-60113397D01*
X50463414Y-60108786D01*
X50472797Y-60105951D01*
X50482552Y-60105000D01*
X50492306Y-60105971D01*
X50501682Y-60108826D01*
X50510235Y-60113397D01*
X51260235Y-60613397D01*
X51267818Y-60619608D01*
X51274044Y-60627178D01*
X51278674Y-60635818D01*
X51281529Y-60645194D01*
X51282500Y-60655000D01*
X51282500Y-61655000D01*
X51281539Y-61664755D01*
X51278694Y-61674134D01*
X51274073Y-61682779D01*
X51267855Y-61690355D01*
X51260279Y-61696573D01*
X51251634Y-61701194D01*
X51242255Y-61704039D01*
X51232500Y-61705000D01*
X49732500Y-61705000D01*
X49722745Y-61704039D01*
X49713366Y-61701194D01*
X49704721Y-61696573D01*
X49697145Y-61690355D01*
X49690927Y-61682779D01*
X49686306Y-61674134D01*
X49683461Y-61664755D01*
X49682500Y-61655000D01*
X49682500Y-60655000D01*
X49683461Y-60645245D01*
G37*
D20*
X53022500Y-59230000D03*
D26*
G36*
X52223461Y-58795245D02*
G01*
X52226306Y-58785866D01*
X52230927Y-58777221D01*
X52237145Y-58769645D01*
X52244721Y-58763427D01*
X52253366Y-58758806D01*
X52262745Y-58755961D01*
X52272500Y-58755000D01*
X53772500Y-58755000D01*
X53782255Y-58755961D01*
X53791634Y-58758806D01*
X53800279Y-58763427D01*
X53807855Y-58769645D01*
X53814073Y-58777221D01*
X53818694Y-58785866D01*
X53821539Y-58795245D01*
X53822500Y-58805000D01*
X53822500Y-60355000D01*
X53821539Y-60364755D01*
X53818694Y-60374134D01*
X53814073Y-60382779D01*
X53807855Y-60390355D01*
X53800279Y-60396573D01*
X53791634Y-60401194D01*
X53782255Y-60404039D01*
X53772500Y-60405000D01*
X53762745Y-60404039D01*
X53753366Y-60401194D01*
X53744765Y-60396603D01*
X53022500Y-59915093D01*
X52300235Y-60396603D01*
X52291586Y-60401214D01*
X52282203Y-60404049D01*
X52272448Y-60405000D01*
X52262694Y-60404029D01*
X52253318Y-60401174D01*
X52244678Y-60396544D01*
X52237108Y-60390318D01*
X52230897Y-60382735D01*
X52226286Y-60374086D01*
X52223451Y-60364703D01*
X52222500Y-60355000D01*
X52222500Y-58805000D01*
X52223461Y-58795245D01*
G37*
G36*
X52223461Y-60645245D02*
G01*
X52226306Y-60635866D01*
X52230927Y-60627221D01*
X52237145Y-60619645D01*
X52244765Y-60613397D01*
X52994765Y-60113397D01*
X53003414Y-60108786D01*
X53012797Y-60105951D01*
X53022552Y-60105000D01*
X53032306Y-60105971D01*
X53041682Y-60108826D01*
X53050235Y-60113397D01*
X53800235Y-60613397D01*
X53807818Y-60619608D01*
X53814044Y-60627178D01*
X53818674Y-60635818D01*
X53821529Y-60645194D01*
X53822500Y-60655000D01*
X53822500Y-61655000D01*
X53821539Y-61664755D01*
X53818694Y-61674134D01*
X53814073Y-61682779D01*
X53807855Y-61690355D01*
X53800279Y-61696573D01*
X53791634Y-61701194D01*
X53782255Y-61704039D01*
X53772500Y-61705000D01*
X52272500Y-61705000D01*
X52262745Y-61704039D01*
X52253366Y-61701194D01*
X52244721Y-61696573D01*
X52237145Y-61690355D01*
X52230927Y-61682779D01*
X52226306Y-61674134D01*
X52223461Y-61664755D01*
X52222500Y-61655000D01*
X52222500Y-60655000D01*
X52223461Y-60645245D01*
G37*
D20*
X55562500Y-59230000D03*
D26*
G36*
X54763461Y-58795245D02*
G01*
X54766306Y-58785866D01*
X54770927Y-58777221D01*
X54777145Y-58769645D01*
X54784721Y-58763427D01*
X54793366Y-58758806D01*
X54802745Y-58755961D01*
X54812500Y-58755000D01*
X56312500Y-58755000D01*
X56322255Y-58755961D01*
X56331634Y-58758806D01*
X56340279Y-58763427D01*
X56347855Y-58769645D01*
X56354073Y-58777221D01*
X56358694Y-58785866D01*
X56361539Y-58795245D01*
X56362500Y-58805000D01*
X56362500Y-60355000D01*
X56361539Y-60364755D01*
X56358694Y-60374134D01*
X56354073Y-60382779D01*
X56347855Y-60390355D01*
X56340279Y-60396573D01*
X56331634Y-60401194D01*
X56322255Y-60404039D01*
X56312500Y-60405000D01*
X56302745Y-60404039D01*
X56293366Y-60401194D01*
X56284765Y-60396603D01*
X55562500Y-59915093D01*
X54840235Y-60396603D01*
X54831586Y-60401214D01*
X54822203Y-60404049D01*
X54812448Y-60405000D01*
X54802694Y-60404029D01*
X54793318Y-60401174D01*
X54784678Y-60396544D01*
X54777108Y-60390318D01*
X54770897Y-60382735D01*
X54766286Y-60374086D01*
X54763451Y-60364703D01*
X54762500Y-60355000D01*
X54762500Y-58805000D01*
X54763461Y-58795245D01*
G37*
G36*
X54763461Y-60645245D02*
G01*
X54766306Y-60635866D01*
X54770927Y-60627221D01*
X54777145Y-60619645D01*
X54784765Y-60613397D01*
X55534765Y-60113397D01*
X55543414Y-60108786D01*
X55552797Y-60105951D01*
X55562552Y-60105000D01*
X55572306Y-60105971D01*
X55581682Y-60108826D01*
X55590235Y-60113397D01*
X56340235Y-60613397D01*
X56347818Y-60619608D01*
X56354044Y-60627178D01*
X56358674Y-60635818D01*
X56361529Y-60645194D01*
X56362500Y-60655000D01*
X56362500Y-61655000D01*
X56361539Y-61664755D01*
X56358694Y-61674134D01*
X56354073Y-61682779D01*
X56347855Y-61690355D01*
X56340279Y-61696573D01*
X56331634Y-61701194D01*
X56322255Y-61704039D01*
X56312500Y-61705000D01*
X54812500Y-61705000D01*
X54802745Y-61704039D01*
X54793366Y-61701194D01*
X54784721Y-61696573D01*
X54777145Y-61690355D01*
X54770927Y-61682779D01*
X54766306Y-61674134D01*
X54763461Y-61664755D01*
X54762500Y-61655000D01*
X54762500Y-60655000D01*
X54763461Y-60645245D01*
G37*
M02*
