%FSLAX45Y45*%
G04 Gerber Fmt 4.5, Leading zero omitted, Abs format (unit mm)*
G04 Created by KiCad (PCBNEW 5.1.12-84ad8e8a86~92~ubuntu20.04.1) date 2021-11-14 14:36:13*
%MOMM*%
%LPD*%
G01*
G04 APERTURE LIST*
%TA.AperFunction,Profile*%
%ADD10C,0.150000*%
%TD*%
%ADD11C,0.200000*%
%ADD12C,0.300000*%
G04 APERTURE END LIST*
D10*
X10174375Y-5765022D02*
X10174375Y-5797500D01*
X9971888Y-5765022D02*
X10174375Y-5765022D01*
X11574375Y-5765022D02*
X11574375Y-5797500D01*
X11776888Y-5765022D02*
X11574375Y-5765022D01*
X4256875Y-5595022D02*
X4056875Y-5595022D01*
X4256875Y-7380000D02*
X4056875Y-7380000D01*
X4256875Y-15190000D02*
X6061875Y-15190000D01*
X4256875Y-13385000D02*
X4256875Y-15190000D01*
X4256875Y-9575000D02*
X4256875Y-11380000D01*
X4256875Y-7670000D02*
X4256875Y-9475000D01*
X9871888Y-5595022D02*
X9871888Y-5765022D01*
X9871888Y-5595022D02*
X4256875Y-5595022D01*
X11574375Y-5797500D02*
X10174375Y-5797500D01*
X13681875Y-5765022D02*
X11876888Y-5765022D01*
X13681875Y-7570000D02*
X13681875Y-5765022D01*
X13681875Y-9475000D02*
X13681875Y-7670000D01*
X13681875Y-13285000D02*
X13681875Y-9575000D01*
X13681875Y-13385000D02*
X13681875Y-14237500D01*
X13681875Y-15190000D02*
X13681875Y-14337500D01*
X12829375Y-15190000D02*
X13681875Y-15190000D01*
X11876875Y-15190000D02*
X12729375Y-15190000D01*
X9971875Y-15190000D02*
X11776875Y-15190000D01*
X8066875Y-15190000D02*
X9871875Y-15190000D01*
X6161875Y-15190000D02*
X7966875Y-15190000D01*
X4256875Y-11480000D02*
X4256875Y-13285000D01*
X4056875Y-5595022D02*
X4056875Y-7380000D01*
D11*
X4505675Y-9238200D02*
X4545675Y-9278200D01*
X4545675Y-9238200D02*
X4505675Y-9278200D01*
X4505675Y-11143200D02*
X4545675Y-11183200D01*
X4545675Y-11143200D02*
X4505675Y-11183200D01*
X4505675Y-13029150D02*
X4545675Y-13069150D01*
X4545675Y-13029150D02*
X4505675Y-13069150D01*
X4505675Y-14934150D02*
X4545675Y-14974150D01*
X4545675Y-14934150D02*
X4505675Y-14974150D01*
X4646775Y-14571300D02*
X4686775Y-14611300D01*
X4686775Y-14571300D02*
X4646775Y-14611300D01*
X4666775Y-8851300D02*
X4706775Y-8891300D01*
X4706775Y-8851300D02*
X4666775Y-8891300D01*
X4666775Y-10771300D02*
X4706775Y-10811300D01*
X4706775Y-10771300D02*
X4666775Y-10811300D01*
X4666775Y-12671300D02*
X4706775Y-12711300D01*
X4706775Y-12671300D02*
X4666775Y-12711300D01*
X4774250Y-5903000D02*
X4814250Y-5943000D01*
X4814250Y-5903000D02*
X4774250Y-5943000D01*
X4774250Y-6404000D02*
X4814250Y-6444000D01*
X4814250Y-6404000D02*
X4774250Y-6444000D01*
X4774250Y-7032000D02*
X4814250Y-7072000D01*
X4814250Y-7032000D02*
X4774250Y-7072000D01*
X5025075Y-6552250D02*
X5065075Y-6592250D01*
X5065075Y-6552250D02*
X5025075Y-6592250D01*
X5028250Y-5903000D02*
X5068250Y-5943000D01*
X5068250Y-5903000D02*
X5028250Y-5943000D01*
X5028250Y-7032000D02*
X5068250Y-7072000D01*
X5068250Y-7032000D02*
X5028250Y-7072000D01*
X5139375Y-6571300D02*
X5179375Y-6611300D01*
X5179375Y-6571300D02*
X5139375Y-6611300D01*
X5282250Y-5903000D02*
X5322250Y-5943000D01*
X5322250Y-5903000D02*
X5282250Y-5943000D01*
X5282250Y-6340500D02*
X5322250Y-6380500D01*
X5322250Y-6340500D02*
X5282250Y-6380500D01*
X5282250Y-7032000D02*
X5322250Y-7072000D01*
X5322250Y-7032000D02*
X5282250Y-7072000D01*
X5284375Y-6572500D02*
X5324375Y-6612500D01*
X5324375Y-6572500D02*
X5284375Y-6612500D01*
X5411875Y-12690000D02*
X5451875Y-12730000D01*
X5451875Y-12690000D02*
X5411875Y-12730000D01*
X5425125Y-8876350D02*
X5465125Y-8916350D01*
X5465125Y-8876350D02*
X5425125Y-8916350D01*
X5425125Y-10781350D02*
X5465125Y-10821350D01*
X5465125Y-10781350D02*
X5425125Y-10821350D01*
X5536250Y-5903000D02*
X5576250Y-5943000D01*
X5576250Y-5903000D02*
X5536250Y-5943000D01*
X5536250Y-6213500D02*
X5576250Y-6253500D01*
X5576250Y-6213500D02*
X5536250Y-6253500D01*
X5536250Y-6289700D02*
X5576250Y-6329700D01*
X5576250Y-6289700D02*
X5536250Y-6329700D01*
X5536250Y-7032000D02*
X5576250Y-7072000D01*
X5576250Y-7032000D02*
X5536250Y-7072000D01*
X5650550Y-6543700D02*
X5690550Y-6583700D01*
X5690550Y-6543700D02*
X5650550Y-6583700D01*
X5917250Y-6213500D02*
X5957250Y-6253500D01*
X5957250Y-6213500D02*
X5917250Y-6253500D01*
X5917250Y-6594500D02*
X5957250Y-6634500D01*
X5957250Y-6594500D02*
X5917250Y-6634500D01*
X6171250Y-6213500D02*
X6211250Y-6253500D01*
X6211250Y-6213500D02*
X6171250Y-6253500D01*
X6171250Y-6619928D02*
X6211250Y-6659928D01*
X6211250Y-6619928D02*
X6171250Y-6659928D01*
X6396675Y-8685850D02*
X6436675Y-8725850D01*
X6436675Y-8685850D02*
X6396675Y-8725850D01*
X6434775Y-6933250D02*
X6474775Y-6973250D01*
X6474775Y-6933250D02*
X6434775Y-6973250D01*
X6448775Y-14934150D02*
X6488775Y-14974150D01*
X6488775Y-14934150D02*
X6448775Y-14974150D01*
X6467825Y-9219150D02*
X6507825Y-9259150D01*
X6507825Y-9219150D02*
X6467825Y-9259150D01*
X6467825Y-11143200D02*
X6507825Y-11183200D01*
X6507825Y-11143200D02*
X6467825Y-11183200D01*
X6467825Y-13048200D02*
X6507825Y-13088200D01*
X6507825Y-13048200D02*
X6467825Y-13088200D01*
X6671250Y-6838000D02*
X6711250Y-6878000D01*
X6711250Y-6838000D02*
X6671250Y-6878000D01*
X6829775Y-9252260D02*
X6869775Y-9292260D01*
X6869775Y-9252260D02*
X6829775Y-9292260D01*
X6829775Y-11157260D02*
X6869775Y-11197260D01*
X6869775Y-11157260D02*
X6829775Y-11197260D01*
X6829775Y-13057500D02*
X6869775Y-13097500D01*
X6869775Y-13057500D02*
X6829775Y-13097500D01*
X6925312Y-6534686D02*
X6965312Y-6574686D01*
X6965312Y-6534686D02*
X6925312Y-6574686D01*
X6939477Y-6637900D02*
X6979477Y-6677900D01*
X6979477Y-6637900D02*
X6939477Y-6677900D01*
X7120575Y-8171500D02*
X7160575Y-8211500D01*
X7160575Y-8171500D02*
X7120575Y-8211500D01*
X7177725Y-7066600D02*
X7217725Y-7106600D01*
X7217725Y-7066600D02*
X7177725Y-7106600D01*
X7286975Y-9252260D02*
X7326975Y-9292260D01*
X7326975Y-9252260D02*
X7286975Y-9292260D01*
X7325075Y-10781250D02*
X7365075Y-10821250D01*
X7365075Y-10781250D02*
X7325075Y-10821250D01*
X7325075Y-12686250D02*
X7365075Y-12726250D01*
X7365075Y-12686250D02*
X7325075Y-12726250D01*
X7325075Y-14591250D02*
X7365075Y-14631250D01*
X7365075Y-14591250D02*
X7325075Y-14631250D01*
X7578635Y-8780240D02*
X7618635Y-8820240D01*
X7618635Y-8780240D02*
X7578635Y-8820240D01*
X7969770Y-6545483D02*
X8009770Y-6585483D01*
X8009770Y-6545483D02*
X7969770Y-6585483D01*
X7977549Y-6647775D02*
X8017549Y-6687775D01*
X8017549Y-6647775D02*
X7977549Y-6687775D01*
X7996875Y-6361750D02*
X8036875Y-6401750D01*
X8036875Y-6361750D02*
X7996875Y-6401750D01*
X8239475Y-7237950D02*
X8279475Y-7277950D01*
X8279475Y-7237950D02*
X8239475Y-7277950D01*
X8282625Y-8552500D02*
X8322625Y-8592500D01*
X8322625Y-8552500D02*
X8282625Y-8592500D01*
X8353775Y-9238200D02*
X8393775Y-9278200D01*
X8393775Y-9238200D02*
X8353775Y-9278200D01*
X8353775Y-11143200D02*
X8393775Y-11183200D01*
X8393775Y-11143200D02*
X8353775Y-11183200D01*
X8353775Y-13048200D02*
X8393775Y-13088200D01*
X8393775Y-13048200D02*
X8353775Y-13088200D01*
X8353775Y-14953200D02*
X8393775Y-14993200D01*
X8393775Y-14953200D02*
X8353775Y-14993200D01*
X8377875Y-10952800D02*
X8417875Y-10992800D01*
X8417875Y-10952800D02*
X8377875Y-10992800D01*
X8462013Y-6211384D02*
X8502013Y-6251384D01*
X8502013Y-6211384D02*
X8462013Y-6251384D01*
X8531563Y-6724687D02*
X8571563Y-6764687D01*
X8571563Y-6724687D02*
X8531563Y-6764687D01*
X8677625Y-8788037D02*
X8717625Y-8828037D01*
X8717625Y-8788037D02*
X8677625Y-8828037D01*
X8734821Y-9252214D02*
X8774821Y-9292214D01*
X8774821Y-9252214D02*
X8734821Y-9292214D01*
X8734821Y-11157214D02*
X8774821Y-11197214D01*
X8774821Y-11157214D02*
X8734821Y-11197214D01*
X8737623Y-13050869D02*
X8777623Y-13090869D01*
X8777623Y-13050869D02*
X8737623Y-13090869D01*
X8737623Y-14955869D02*
X8777623Y-14995869D01*
X8777623Y-14955869D02*
X8737623Y-14995869D01*
X8925275Y-9943050D02*
X8965275Y-9983050D01*
X8965275Y-9943050D02*
X8925275Y-9983050D01*
X8958145Y-7907516D02*
X8998145Y-7947516D01*
X8998145Y-7907516D02*
X8958145Y-7947516D01*
X9158145Y-7047517D02*
X9198145Y-7087517D01*
X9198145Y-7047517D02*
X9158145Y-7087517D01*
X9230075Y-8876250D02*
X9270075Y-8916250D01*
X9270075Y-8876250D02*
X9230075Y-8916250D01*
X9230075Y-10781250D02*
X9270075Y-10821250D01*
X9270075Y-10781250D02*
X9230075Y-10821250D01*
X9230075Y-12686250D02*
X9270075Y-12726250D01*
X9270075Y-12686250D02*
X9230075Y-12726250D01*
X9749475Y-7047550D02*
X9789475Y-7087550D01*
X9789475Y-7047550D02*
X9749475Y-7087550D01*
X10258775Y-11143200D02*
X10298775Y-11183200D01*
X10298775Y-11143200D02*
X10258775Y-11183200D01*
X10258775Y-13048200D02*
X10298775Y-13088200D01*
X10298775Y-13048200D02*
X10258775Y-13088200D01*
X10258775Y-14953200D02*
X10298775Y-14993200D01*
X10298775Y-14953200D02*
X10258775Y-14993200D01*
X10282874Y-8876350D02*
X10322874Y-8916350D01*
X10322874Y-8876350D02*
X10282874Y-8916350D01*
X10282875Y-9238300D02*
X10322875Y-9278300D01*
X10322875Y-9238300D02*
X10282875Y-9278300D01*
X10301925Y-5999800D02*
X10341925Y-6039800D01*
X10341925Y-5999800D02*
X10301925Y-6039800D01*
X10378125Y-6399850D02*
X10418125Y-6439850D01*
X10418125Y-6399850D02*
X10378125Y-6439850D01*
X10454325Y-6342700D02*
X10494325Y-6382700D01*
X10494325Y-6342700D02*
X10454325Y-6382700D01*
X10492425Y-6133150D02*
X10532425Y-6173150D01*
X10532425Y-6133150D02*
X10492425Y-6173150D01*
X10492425Y-6647500D02*
X10532425Y-6687500D01*
X10532425Y-6647500D02*
X10492425Y-6687500D01*
X10530575Y-12572000D02*
X10570575Y-12612000D01*
X10570575Y-12572000D02*
X10530575Y-12612000D01*
X10549575Y-10667050D02*
X10589575Y-10707050D01*
X10589575Y-10667050D02*
X10549575Y-10707050D01*
X10639775Y-9252260D02*
X10679775Y-9292260D01*
X10679775Y-9252260D02*
X10639775Y-9292260D01*
X10639775Y-11157260D02*
X10679775Y-11197260D01*
X10679775Y-11157260D02*
X10639775Y-11197260D01*
X10639775Y-13062260D02*
X10679775Y-13102260D01*
X10679775Y-13062260D02*
X10639775Y-13102260D01*
X10721025Y-6437950D02*
X10761025Y-6477950D01*
X10761025Y-6437950D02*
X10721025Y-6477950D01*
X10966508Y-8192815D02*
X11006508Y-8232815D01*
X11006508Y-8192815D02*
X10966508Y-8232815D01*
X10968675Y-6647500D02*
X11008675Y-6687500D01*
X11008675Y-6647500D02*
X10968675Y-6687500D01*
X11096975Y-9252260D02*
X11136975Y-9292260D01*
X11136975Y-9252260D02*
X11096975Y-9292260D01*
X11096975Y-11157260D02*
X11136975Y-11197260D01*
X11136975Y-11157260D02*
X11096975Y-11197260D01*
X11096975Y-13062260D02*
X11136975Y-13102260D01*
X11136975Y-13062260D02*
X11096975Y-13102260D01*
X11135075Y-14591250D02*
X11175075Y-14631250D01*
X11175075Y-14591250D02*
X11135075Y-14631250D01*
X11154125Y-10781250D02*
X11194125Y-10821250D01*
X11194125Y-10781250D02*
X11154125Y-10821250D01*
X11154125Y-12686250D02*
X11194125Y-12726250D01*
X11194125Y-12686250D02*
X11154125Y-12726250D01*
X11172115Y-6114100D02*
X11212115Y-6154100D01*
X11212115Y-6114100D02*
X11172115Y-6154100D01*
X11254425Y-6437950D02*
X11294425Y-6477950D01*
X11294425Y-6437950D02*
X11254425Y-6477950D01*
X11324375Y-6197500D02*
X11364375Y-6237500D01*
X11364375Y-6197500D02*
X11324375Y-6237500D01*
X11444925Y-8857300D02*
X11484925Y-8897300D01*
X11484925Y-8857300D02*
X11444925Y-8897300D01*
X11673799Y-6456725D02*
X11713799Y-6496725D01*
X11713799Y-6456725D02*
X11673799Y-6496725D01*
X12016425Y-13543599D02*
X12056425Y-13583599D01*
X12056425Y-13543599D02*
X12016425Y-13583599D01*
X12089375Y-5977500D02*
X12129375Y-6017500D01*
X12129375Y-5977500D02*
X12089375Y-6017500D01*
X12092625Y-8651300D02*
X12132625Y-8691300D01*
X12132625Y-8651300D02*
X12092625Y-8691300D01*
X12119375Y-6167500D02*
X12159375Y-6207500D01*
X12159375Y-6167500D02*
X12119375Y-6207500D01*
X12144725Y-9219150D02*
X12184725Y-9259150D01*
X12184725Y-9219150D02*
X12144725Y-9259150D01*
X12181875Y-10532500D02*
X12221875Y-10572500D01*
X12221875Y-10532500D02*
X12181875Y-10572500D01*
X12206925Y-6715240D02*
X12246925Y-6755240D01*
X12246925Y-6715240D02*
X12206925Y-6755240D01*
X12219375Y-6277500D02*
X12259375Y-6317500D01*
X12259375Y-6277500D02*
X12219375Y-6317500D01*
X12348504Y-6753156D02*
X12388504Y-6793156D01*
X12388504Y-6753156D02*
X12348504Y-6793156D01*
X12397425Y-6114100D02*
X12437425Y-6154100D01*
X12437425Y-6114100D02*
X12397425Y-6154100D01*
X12397425Y-6228399D02*
X12437425Y-6268399D01*
X12437425Y-6228399D02*
X12397425Y-6268399D01*
X12459375Y-7237500D02*
X12499375Y-7277500D01*
X12499375Y-7237500D02*
X12459375Y-7277500D01*
X12530775Y-6095050D02*
X12570775Y-6135050D01*
X12570775Y-6095050D02*
X12530775Y-6135050D01*
X12606975Y-14154760D02*
X12646975Y-14194760D01*
X12646975Y-14154760D02*
X12606975Y-14194760D01*
X12606975Y-15107260D02*
X12646975Y-15147260D01*
X12646975Y-15107260D02*
X12606975Y-15147260D01*
X12729375Y-7367500D02*
X12769375Y-7407500D01*
X12769375Y-7367500D02*
X12729375Y-7407500D01*
X12756635Y-9771700D02*
X12796635Y-9811700D01*
X12796635Y-9771700D02*
X12756635Y-9811700D01*
X12759375Y-6086591D02*
X12799375Y-6126591D01*
X12799375Y-6086591D02*
X12759375Y-6126591D01*
X12911775Y-14154760D02*
X12951775Y-14194760D01*
X12951775Y-14154760D02*
X12911775Y-14194760D01*
X12911775Y-15105700D02*
X12951775Y-15145700D01*
X12951775Y-15105700D02*
X12911775Y-15145700D01*
X12987975Y-9771700D02*
X13027975Y-9811700D01*
X13027975Y-9771700D02*
X12987975Y-9811700D01*
X13026075Y-12210100D02*
X13066075Y-12250100D01*
X13066075Y-12210100D02*
X13026075Y-12250100D01*
X13039375Y-8860241D02*
X13079375Y-8900241D01*
X13079375Y-8860241D02*
X13039375Y-8900241D01*
X13159425Y-9657400D02*
X13199425Y-9697400D01*
X13199425Y-9657400D02*
X13159425Y-9697400D01*
X13184375Y-7072500D02*
X13224375Y-7112500D01*
X13224375Y-7072500D02*
X13184375Y-7112500D01*
X13289375Y-6467500D02*
X13329375Y-6507500D01*
X13329375Y-6467500D02*
X13289375Y-6507500D01*
X13440125Y-12019500D02*
X13480125Y-12059500D01*
X13480125Y-12019500D02*
X13440125Y-12059500D01*
X5046875Y-7430000D02*
G75*
G03*
X5046875Y-7430000I-25000J0D01*
G01*
X5046875Y-7670000D02*
G75*
G03*
X5046875Y-7670000I-25000J0D01*
G01*
X5046875Y-9525000D02*
G75*
G03*
X5046875Y-9525000I-25000J0D01*
G01*
X5046875Y-11430000D02*
G75*
G03*
X5046875Y-11430000I-25000J0D01*
G01*
X5046875Y-13335000D02*
G75*
G03*
X5046875Y-13335000I-25000J0D01*
G01*
X5184375Y-7430000D02*
G75*
G03*
X5184375Y-7430000I-25000J0D01*
G01*
X5184375Y-7670000D02*
G75*
G03*
X5184375Y-7670000I-25000J0D01*
G01*
X5184375Y-9525000D02*
G75*
G03*
X5184375Y-9525000I-25000J0D01*
G01*
X5184375Y-11430000D02*
G75*
G03*
X5184375Y-11430000I-25000J0D01*
G01*
X5184375Y-13335000D02*
G75*
G03*
X5184375Y-13335000I-25000J0D01*
G01*
X5321875Y-7430000D02*
G75*
G03*
X5321875Y-7430000I-25000J0D01*
G01*
X5321875Y-7670000D02*
G75*
G03*
X5321875Y-7670000I-25000J0D01*
G01*
X5321875Y-9525000D02*
G75*
G03*
X5321875Y-9525000I-25000J0D01*
G01*
X5321875Y-11430000D02*
G75*
G03*
X5321875Y-11430000I-25000J0D01*
G01*
X5321875Y-13335000D02*
G75*
G03*
X5321875Y-13335000I-25000J0D01*
G01*
X6136875Y-8435000D02*
G75*
G03*
X6136875Y-8435000I-25000J0D01*
G01*
X6136875Y-8572500D02*
G75*
G03*
X6136875Y-8572500I-25000J0D01*
G01*
X6136875Y-8710000D02*
G75*
G03*
X6136875Y-8710000I-25000J0D01*
G01*
X6136875Y-10340000D02*
G75*
G03*
X6136875Y-10340000I-25000J0D01*
G01*
X6136875Y-10477500D02*
G75*
G03*
X6136875Y-10477500I-25000J0D01*
G01*
X6136875Y-10615000D02*
G75*
G03*
X6136875Y-10615000I-25000J0D01*
G01*
X6136875Y-12245000D02*
G75*
G03*
X6136875Y-12245000I-25000J0D01*
G01*
X6136875Y-12382500D02*
G75*
G03*
X6136875Y-12382500I-25000J0D01*
G01*
X6136875Y-12520000D02*
G75*
G03*
X6136875Y-12520000I-25000J0D01*
G01*
X6136875Y-14150000D02*
G75*
G03*
X6136875Y-14150000I-25000J0D01*
G01*
X6136875Y-14287500D02*
G75*
G03*
X6136875Y-14287500I-25000J0D01*
G01*
X6136875Y-14425000D02*
G75*
G03*
X6136875Y-14425000I-25000J0D01*
G01*
X6951875Y-7430000D02*
G75*
G03*
X6951875Y-7430000I-25000J0D01*
G01*
X6951875Y-7670000D02*
G75*
G03*
X6951875Y-7670000I-25000J0D01*
G01*
X6951875Y-9525000D02*
G75*
G03*
X6951875Y-9525000I-25000J0D01*
G01*
X6951875Y-11430000D02*
G75*
G03*
X6951875Y-11430000I-25000J0D01*
G01*
X6951875Y-13335000D02*
G75*
G03*
X6951875Y-13335000I-25000J0D01*
G01*
X7089375Y-7430000D02*
G75*
G03*
X7089375Y-7430000I-25000J0D01*
G01*
X7089375Y-7670000D02*
G75*
G03*
X7089375Y-7670000I-25000J0D01*
G01*
X7089375Y-9525000D02*
G75*
G03*
X7089375Y-9525000I-25000J0D01*
G01*
X7089375Y-11430000D02*
G75*
G03*
X7089375Y-11430000I-25000J0D01*
G01*
X7089375Y-13335000D02*
G75*
G03*
X7089375Y-13335000I-25000J0D01*
G01*
X7226875Y-7430000D02*
G75*
G03*
X7226875Y-7430000I-25000J0D01*
G01*
X7226875Y-7670000D02*
G75*
G03*
X7226875Y-7670000I-25000J0D01*
G01*
X7226875Y-9525000D02*
G75*
G03*
X7226875Y-9525000I-25000J0D01*
G01*
X7226875Y-11430000D02*
G75*
G03*
X7226875Y-11430000I-25000J0D01*
G01*
X7226875Y-13335000D02*
G75*
G03*
X7226875Y-13335000I-25000J0D01*
G01*
X8041875Y-8435000D02*
G75*
G03*
X8041875Y-8435000I-25000J0D01*
G01*
X8041875Y-8572500D02*
G75*
G03*
X8041875Y-8572500I-25000J0D01*
G01*
X8041875Y-8710000D02*
G75*
G03*
X8041875Y-8710000I-25000J0D01*
G01*
X8041875Y-10340000D02*
G75*
G03*
X8041875Y-10340000I-25000J0D01*
G01*
X8041875Y-10477500D02*
G75*
G03*
X8041875Y-10477500I-25000J0D01*
G01*
X8041875Y-10615000D02*
G75*
G03*
X8041875Y-10615000I-25000J0D01*
G01*
X8041875Y-12245000D02*
G75*
G03*
X8041875Y-12245000I-25000J0D01*
G01*
X8041875Y-12382500D02*
G75*
G03*
X8041875Y-12382500I-25000J0D01*
G01*
X8041875Y-12520000D02*
G75*
G03*
X8041875Y-12520000I-25000J0D01*
G01*
X8041875Y-14150000D02*
G75*
G03*
X8041875Y-14150000I-25000J0D01*
G01*
X8041875Y-14287500D02*
G75*
G03*
X8041875Y-14287500I-25000J0D01*
G01*
X8041875Y-14425000D02*
G75*
G03*
X8041875Y-14425000I-25000J0D01*
G01*
X8856875Y-7380000D02*
G75*
G03*
X8856875Y-7380000I-25000J0D01*
G01*
X8856875Y-7670000D02*
G75*
G03*
X8856875Y-7670000I-25000J0D01*
G01*
X8856875Y-9525000D02*
G75*
G03*
X8856875Y-9525000I-25000J0D01*
G01*
X8856875Y-11430000D02*
G75*
G03*
X8856875Y-11430000I-25000J0D01*
G01*
X8856875Y-13335000D02*
G75*
G03*
X8856875Y-13335000I-25000J0D01*
G01*
X8994375Y-7380000D02*
G75*
G03*
X8994375Y-7380000I-25000J0D01*
G01*
X8994375Y-7670000D02*
G75*
G03*
X8994375Y-7670000I-25000J0D01*
G01*
X8994375Y-9525000D02*
G75*
G03*
X8994375Y-9525000I-25000J0D01*
G01*
X8994375Y-11430000D02*
G75*
G03*
X8994375Y-11430000I-25000J0D01*
G01*
X8994375Y-13335000D02*
G75*
G03*
X8994375Y-13335000I-25000J0D01*
G01*
X9131875Y-7380000D02*
G75*
G03*
X9131875Y-7380000I-25000J0D01*
G01*
X9131875Y-7670000D02*
G75*
G03*
X9131875Y-7670000I-25000J0D01*
G01*
X9131875Y-9525000D02*
G75*
G03*
X9131875Y-9525000I-25000J0D01*
G01*
X9131875Y-11430000D02*
G75*
G03*
X9131875Y-11430000I-25000J0D01*
G01*
X9131875Y-13335000D02*
G75*
G03*
X9131875Y-13335000I-25000J0D01*
G01*
X9946875Y-6667500D02*
G75*
G03*
X9946875Y-6667500I-25000J0D01*
G01*
X9946875Y-6805000D02*
G75*
G03*
X9946875Y-6805000I-25000J0D01*
G01*
X9946875Y-8435000D02*
G75*
G03*
X9946875Y-8435000I-25000J0D01*
G01*
X9946875Y-8572500D02*
G75*
G03*
X9946875Y-8572500I-25000J0D01*
G01*
X9946875Y-8710000D02*
G75*
G03*
X9946875Y-8710000I-25000J0D01*
G01*
X9946875Y-10340000D02*
G75*
G03*
X9946875Y-10340000I-25000J0D01*
G01*
X9946875Y-10477500D02*
G75*
G03*
X9946875Y-10477500I-25000J0D01*
G01*
X9946875Y-10615000D02*
G75*
G03*
X9946875Y-10615000I-25000J0D01*
G01*
X9946875Y-12245000D02*
G75*
G03*
X9946875Y-12245000I-25000J0D01*
G01*
X9946875Y-12382500D02*
G75*
G03*
X9946875Y-12382500I-25000J0D01*
G01*
X9946875Y-12520000D02*
G75*
G03*
X9946875Y-12520000I-25000J0D01*
G01*
X9946875Y-14150000D02*
G75*
G03*
X9946875Y-14150000I-25000J0D01*
G01*
X9946875Y-14287500D02*
G75*
G03*
X9946875Y-14287500I-25000J0D01*
G01*
X9946875Y-14425000D02*
G75*
G03*
X9946875Y-14425000I-25000J0D01*
G01*
X9949760Y-6527272D02*
G75*
G03*
X9949760Y-6527272I-25000J0D01*
G01*
X10761875Y-7620000D02*
G75*
G03*
X10761875Y-7620000I-25000J0D01*
G01*
X10761875Y-9525000D02*
G75*
G03*
X10761875Y-9525000I-25000J0D01*
G01*
X10761875Y-11430000D02*
G75*
G03*
X10761875Y-11430000I-25000J0D01*
G01*
X10761875Y-13335000D02*
G75*
G03*
X10761875Y-13335000I-25000J0D01*
G01*
X10899375Y-7620000D02*
G75*
G03*
X10899375Y-7620000I-25000J0D01*
G01*
X10899375Y-9525000D02*
G75*
G03*
X10899375Y-9525000I-25000J0D01*
G01*
X10899375Y-11430000D02*
G75*
G03*
X10899375Y-11430000I-25000J0D01*
G01*
X10899375Y-13335000D02*
G75*
G03*
X10899375Y-13335000I-25000J0D01*
G01*
X11036875Y-7620000D02*
G75*
G03*
X11036875Y-7620000I-25000J0D01*
G01*
X11036875Y-9525000D02*
G75*
G03*
X11036875Y-9525000I-25000J0D01*
G01*
X11036875Y-11430000D02*
G75*
G03*
X11036875Y-11430000I-25000J0D01*
G01*
X11036875Y-13335000D02*
G75*
G03*
X11036875Y-13335000I-25000J0D01*
G01*
X11851875Y-6530000D02*
G75*
G03*
X11851875Y-6530000I-25000J0D01*
G01*
X11851875Y-6667500D02*
G75*
G03*
X11851875Y-6667500I-25000J0D01*
G01*
X11851875Y-6805000D02*
G75*
G03*
X11851875Y-6805000I-25000J0D01*
G01*
X11851875Y-8435000D02*
G75*
G03*
X11851875Y-8435000I-25000J0D01*
G01*
X11851875Y-8572500D02*
G75*
G03*
X11851875Y-8572500I-25000J0D01*
G01*
X11851875Y-8710000D02*
G75*
G03*
X11851875Y-8710000I-25000J0D01*
G01*
X11851875Y-10340000D02*
G75*
G03*
X11851875Y-10340000I-25000J0D01*
G01*
X11851875Y-10477500D02*
G75*
G03*
X11851875Y-10477500I-25000J0D01*
G01*
X11851875Y-10615000D02*
G75*
G03*
X11851875Y-10615000I-25000J0D01*
G01*
X11851875Y-12245000D02*
G75*
G03*
X11851875Y-12245000I-25000J0D01*
G01*
X11851875Y-12382500D02*
G75*
G03*
X11851875Y-12382500I-25000J0D01*
G01*
X11851875Y-12520000D02*
G75*
G03*
X11851875Y-12520000I-25000J0D01*
G01*
X11851875Y-13736250D02*
G75*
G03*
X11851875Y-13736250I-25000J0D01*
G01*
X11851875Y-13886250D02*
G75*
G03*
X11851875Y-13886250I-25000J0D01*
G01*
X11851875Y-14688750D02*
G75*
G03*
X11851875Y-14688750I-25000J0D01*
G01*
X11851875Y-14838750D02*
G75*
G03*
X11851875Y-14838750I-25000J0D01*
G01*
X12253125Y-14287500D02*
G75*
G03*
X12253125Y-14287500I-25000J0D01*
G01*
X12303125Y-13335000D02*
G75*
G03*
X12303125Y-13335000I-25000J0D01*
G01*
X12403125Y-14287500D02*
G75*
G03*
X12403125Y-14287500I-25000J0D01*
G01*
X12428125Y-13335000D02*
G75*
G03*
X12428125Y-13335000I-25000J0D01*
G01*
X12666875Y-7620000D02*
G75*
G03*
X12666875Y-7620000I-25000J0D01*
G01*
X12729375Y-9525000D02*
G75*
G03*
X12729375Y-9525000I-25000J0D01*
G01*
X12804375Y-7620000D02*
G75*
G03*
X12804375Y-7620000I-25000J0D01*
G01*
X12804375Y-13736250D02*
G75*
G03*
X12804375Y-13736250I-25000J0D01*
G01*
X12804375Y-13891250D02*
G75*
G03*
X12804375Y-13891250I-25000J0D01*
G01*
X12804375Y-14688750D02*
G75*
G03*
X12804375Y-14688750I-25000J0D01*
G01*
X12804375Y-14839950D02*
G75*
G03*
X12804375Y-14839950I-25000J0D01*
G01*
X12879375Y-9525000D02*
G75*
G03*
X12879375Y-9525000I-25000J0D01*
G01*
X12941875Y-7620000D02*
G75*
G03*
X12941875Y-7620000I-25000J0D01*
G01*
X13180625Y-13335000D02*
G75*
G03*
X13180625Y-13335000I-25000J0D01*
G01*
X13205625Y-14287500D02*
G75*
G03*
X13205625Y-14287500I-25000J0D01*
G01*
X13305625Y-13335000D02*
G75*
G03*
X13305625Y-13335000I-25000J0D01*
G01*
X13355625Y-14287500D02*
G75*
G03*
X13355625Y-14287500I-25000J0D01*
G01*
X4359375Y-8132500D02*
X4359375Y-8212500D01*
X4319375Y-8172500D02*
X4399375Y-8172500D01*
X4359375Y-8532500D02*
X4359375Y-8612500D01*
X4319375Y-8572500D02*
X4399375Y-8572500D01*
X4359375Y-8932500D02*
X4359375Y-9012500D01*
X4319375Y-8972500D02*
X4399375Y-8972500D01*
X4359375Y-10037500D02*
X4359375Y-10117500D01*
X4319375Y-10077500D02*
X4399375Y-10077500D01*
X4359375Y-10437500D02*
X4359375Y-10517500D01*
X4319375Y-10477500D02*
X4399375Y-10477500D01*
X4359375Y-10837500D02*
X4359375Y-10917500D01*
X4319375Y-10877500D02*
X4399375Y-10877500D01*
X4359375Y-11942500D02*
X4359375Y-12022500D01*
X4319375Y-11982500D02*
X4399375Y-11982500D01*
X4359375Y-12342500D02*
X4359375Y-12422500D01*
X4319375Y-12382500D02*
X4399375Y-12382500D01*
X4359375Y-12742500D02*
X4359375Y-12822500D01*
X4319375Y-12782500D02*
X4399375Y-12782500D01*
X4359375Y-13847500D02*
X4359375Y-13927500D01*
X4319375Y-13887500D02*
X4399375Y-13887500D01*
X4359375Y-14247500D02*
X4359375Y-14327500D01*
X4319375Y-14287500D02*
X4399375Y-14287500D01*
X4359375Y-14647500D02*
X4359375Y-14727500D01*
X4319375Y-14687500D02*
X4399375Y-14687500D01*
X4679950Y-6650700D02*
X4679950Y-6730700D01*
X4639950Y-6690700D02*
X4719950Y-6690700D01*
X4731875Y-8970000D02*
X4731875Y-9050000D01*
X4691875Y-9010000D02*
X4771875Y-9010000D01*
X4731875Y-10870000D02*
X4731875Y-10950000D01*
X4691875Y-10910000D02*
X4771875Y-10910000D01*
X4731875Y-14670000D02*
X4731875Y-14750000D01*
X4691875Y-14710000D02*
X4771875Y-14710000D01*
X4734375Y-12767500D02*
X4734375Y-12847500D01*
X4694375Y-12807500D02*
X4774375Y-12807500D01*
X4759375Y-7732500D02*
X4759375Y-7812500D01*
X4719375Y-7772500D02*
X4799375Y-7772500D01*
X4759375Y-9332500D02*
X4759375Y-9412500D01*
X4719375Y-9372500D02*
X4799375Y-9372500D01*
X4759375Y-9637500D02*
X4759375Y-9717500D01*
X4719375Y-9677500D02*
X4799375Y-9677500D01*
X4759375Y-11237500D02*
X4759375Y-11317500D01*
X4719375Y-11277500D02*
X4799375Y-11277500D01*
X4759375Y-11542500D02*
X4759375Y-11622500D01*
X4719375Y-11582500D02*
X4799375Y-11582500D01*
X4759375Y-13142500D02*
X4759375Y-13222500D01*
X4719375Y-13182500D02*
X4799375Y-13182500D01*
X4759375Y-13447500D02*
X4759375Y-13527500D01*
X4719375Y-13487500D02*
X4799375Y-13487500D01*
X4759375Y-15047500D02*
X4759375Y-15127500D01*
X4719375Y-15087500D02*
X4799375Y-15087500D01*
X4921250Y-6202500D02*
X4921250Y-6282500D01*
X4881250Y-6242500D02*
X4961250Y-6242500D01*
X5064125Y-6665600D02*
X5064125Y-6745600D01*
X5024125Y-6705600D02*
X5104125Y-6705600D01*
X5175250Y-6244300D02*
X5175250Y-6324300D01*
X5135250Y-6284300D02*
X5215250Y-6284300D01*
X5416550Y-6625300D02*
X5416550Y-6705300D01*
X5376550Y-6665300D02*
X5456550Y-6665300D01*
X5559375Y-7732500D02*
X5559375Y-7812500D01*
X5519375Y-7772500D02*
X5599375Y-7772500D01*
X5559375Y-9332500D02*
X5559375Y-9412500D01*
X5519375Y-9372500D02*
X5599375Y-9372500D01*
X5559375Y-9637500D02*
X5559375Y-9717500D01*
X5519375Y-9677500D02*
X5599375Y-9677500D01*
X5559375Y-11237500D02*
X5559375Y-11317500D01*
X5519375Y-11277500D02*
X5599375Y-11277500D01*
X5559375Y-11542500D02*
X5559375Y-11622500D01*
X5519375Y-11582500D02*
X5599375Y-11582500D01*
X5559375Y-13142500D02*
X5559375Y-13222500D01*
X5519375Y-13182500D02*
X5599375Y-13182500D01*
X5559375Y-13447500D02*
X5559375Y-13527500D01*
X5519375Y-13487500D02*
X5599375Y-13487500D01*
X5559375Y-15047500D02*
X5559375Y-15127500D01*
X5519375Y-15087500D02*
X5599375Y-15087500D01*
X5797550Y-5914122D02*
X5797550Y-5994122D01*
X5757550Y-5954122D02*
X5837550Y-5954122D01*
X5810250Y-6209375D02*
X5810250Y-6289375D01*
X5770250Y-6249375D02*
X5850250Y-6249375D01*
X5810250Y-6685625D02*
X5810250Y-6765625D01*
X5770250Y-6725625D02*
X5850250Y-6725625D01*
X5959375Y-8097500D02*
X5959375Y-8177500D01*
X5919375Y-8137500D02*
X5999375Y-8137500D01*
X5959375Y-8732500D02*
X5959375Y-8812500D01*
X5919375Y-8772500D02*
X5999375Y-8772500D01*
X5959375Y-8932500D02*
X5959375Y-9012500D01*
X5919375Y-8972500D02*
X5999375Y-8972500D01*
X5959375Y-10002500D02*
X5959375Y-10082500D01*
X5919375Y-10042500D02*
X5999375Y-10042500D01*
X5959375Y-10637500D02*
X5959375Y-10717500D01*
X5919375Y-10677500D02*
X5999375Y-10677500D01*
X5959375Y-10837500D02*
X5959375Y-10917500D01*
X5919375Y-10877500D02*
X5999375Y-10877500D01*
X5959375Y-11907500D02*
X5959375Y-11987500D01*
X5919375Y-11947500D02*
X5999375Y-11947500D01*
X5959375Y-12542500D02*
X5959375Y-12622500D01*
X5919375Y-12582500D02*
X5999375Y-12582500D01*
X5959375Y-12742500D02*
X5959375Y-12822500D01*
X5919375Y-12782500D02*
X5999375Y-12782500D01*
X5959375Y-13812500D02*
X5959375Y-13892500D01*
X5919375Y-13852500D02*
X5999375Y-13852500D01*
X5959375Y-14447500D02*
X5959375Y-14527500D01*
X5919375Y-14487500D02*
X5999375Y-14487500D01*
X5959375Y-14647500D02*
X5959375Y-14727500D01*
X5919375Y-14687500D02*
X5999375Y-14687500D01*
X6064250Y-6209375D02*
X6064250Y-6289375D01*
X6024250Y-6249375D02*
X6104250Y-6249375D01*
X6064250Y-6685625D02*
X6064250Y-6765625D01*
X6024250Y-6725625D02*
X6104250Y-6725625D01*
X6264375Y-8132500D02*
X6264375Y-8212500D01*
X6224375Y-8172500D02*
X6304375Y-8172500D01*
X6264375Y-8532500D02*
X6264375Y-8612500D01*
X6224375Y-8572500D02*
X6304375Y-8572500D01*
X6264375Y-8932500D02*
X6264375Y-9012500D01*
X6224375Y-8972500D02*
X6304375Y-8972500D01*
X6264375Y-10037500D02*
X6264375Y-10117500D01*
X6224375Y-10077500D02*
X6304375Y-10077500D01*
X6264375Y-10437500D02*
X6264375Y-10517500D01*
X6224375Y-10477500D02*
X6304375Y-10477500D01*
X6264375Y-10837500D02*
X6264375Y-10917500D01*
X6224375Y-10877500D02*
X6304375Y-10877500D01*
X6264375Y-11942500D02*
X6264375Y-12022500D01*
X6224375Y-11982500D02*
X6304375Y-11982500D01*
X6264375Y-12342500D02*
X6264375Y-12422500D01*
X6224375Y-12382500D02*
X6304375Y-12382500D01*
X6264375Y-12742500D02*
X6264375Y-12822500D01*
X6224375Y-12782500D02*
X6304375Y-12782500D01*
X6264375Y-13847500D02*
X6264375Y-13927500D01*
X6224375Y-13887500D02*
X6304375Y-13887500D01*
X6264375Y-14247500D02*
X6264375Y-14327500D01*
X6224375Y-14287500D02*
X6304375Y-14287500D01*
X6264375Y-14647500D02*
X6264375Y-14727500D01*
X6224375Y-14687500D02*
X6304375Y-14687500D01*
X6318250Y-6209375D02*
X6318250Y-6289375D01*
X6278250Y-6249375D02*
X6358250Y-6249375D01*
X6318250Y-6685625D02*
X6318250Y-6765625D01*
X6278250Y-6725625D02*
X6358250Y-6725625D01*
X6572250Y-6209375D02*
X6572250Y-6289375D01*
X6532250Y-6249375D02*
X6612250Y-6249375D01*
X6572250Y-6685625D02*
X6572250Y-6765625D01*
X6532250Y-6725625D02*
X6612250Y-6725625D01*
X6640225Y-8970550D02*
X6640225Y-9050550D01*
X6600225Y-9010550D02*
X6680225Y-9010550D01*
X6640225Y-10875550D02*
X6640225Y-10955550D01*
X6600225Y-10915550D02*
X6680225Y-10915550D01*
X6640225Y-12780550D02*
X6640225Y-12860550D01*
X6600225Y-12820550D02*
X6680225Y-12820550D01*
X6640225Y-14685550D02*
X6640225Y-14765550D01*
X6600225Y-14725550D02*
X6680225Y-14725550D01*
X6664375Y-7732500D02*
X6664375Y-7812500D01*
X6624375Y-7772500D02*
X6704375Y-7772500D01*
X6664375Y-9332500D02*
X6664375Y-9412500D01*
X6624375Y-9372500D02*
X6704375Y-9372500D01*
X6664375Y-9637500D02*
X6664375Y-9717500D01*
X6624375Y-9677500D02*
X6704375Y-9677500D01*
X6664375Y-11237500D02*
X6664375Y-11317500D01*
X6624375Y-11277500D02*
X6704375Y-11277500D01*
X6664375Y-11542500D02*
X6664375Y-11622500D01*
X6624375Y-11582500D02*
X6704375Y-11582500D01*
X6664375Y-13142500D02*
X6664375Y-13222500D01*
X6624375Y-13182500D02*
X6704375Y-13182500D01*
X6664375Y-13447500D02*
X6664375Y-13527500D01*
X6624375Y-13487500D02*
X6704375Y-13487500D01*
X6664375Y-15047500D02*
X6664375Y-15127500D01*
X6624375Y-15087500D02*
X6704375Y-15087500D01*
X6826250Y-6209375D02*
X6826250Y-6289375D01*
X6786250Y-6249375D02*
X6866250Y-6249375D01*
X6826250Y-6685625D02*
X6826250Y-6765625D01*
X6786250Y-6725625D02*
X6866250Y-6725625D01*
X6911975Y-7980050D02*
X6911975Y-8060050D01*
X6871975Y-8020050D02*
X6951975Y-8020050D01*
X7080250Y-6209375D02*
X7080250Y-6289375D01*
X7040250Y-6249375D02*
X7120250Y-6249375D01*
X7080250Y-6685625D02*
X7080250Y-6765625D01*
X7040250Y-6725625D02*
X7120250Y-6725625D01*
X7334250Y-6209375D02*
X7334250Y-6289375D01*
X7294250Y-6249375D02*
X7374250Y-6249375D01*
X7334250Y-6685625D02*
X7334250Y-6765625D01*
X7294250Y-6725625D02*
X7374250Y-6725625D01*
X7350388Y-5938522D02*
X7350388Y-6018522D01*
X7310388Y-5978522D02*
X7390388Y-5978522D01*
X7464375Y-7732500D02*
X7464375Y-7812500D01*
X7424375Y-7772500D02*
X7504375Y-7772500D01*
X7464375Y-9332500D02*
X7464375Y-9412500D01*
X7424375Y-9372500D02*
X7504375Y-9372500D01*
X7464375Y-9637500D02*
X7464375Y-9717500D01*
X7424375Y-9677500D02*
X7504375Y-9677500D01*
X7464375Y-11237500D02*
X7464375Y-11317500D01*
X7424375Y-11277500D02*
X7504375Y-11277500D01*
X7464375Y-11542500D02*
X7464375Y-11622500D01*
X7424375Y-11582500D02*
X7504375Y-11582500D01*
X7464375Y-13142500D02*
X7464375Y-13222500D01*
X7424375Y-13182500D02*
X7504375Y-13182500D01*
X7464375Y-13447500D02*
X7464375Y-13527500D01*
X7424375Y-13487500D02*
X7504375Y-13487500D01*
X7464375Y-15047500D02*
X7464375Y-15127500D01*
X7424375Y-15087500D02*
X7504375Y-15087500D01*
X7588250Y-6209375D02*
X7588250Y-6289375D01*
X7548250Y-6249375D02*
X7628250Y-6249375D01*
X7588250Y-6685625D02*
X7588250Y-6765625D01*
X7548250Y-6725625D02*
X7628250Y-6725625D01*
X7858145Y-6066517D02*
X7858145Y-6146517D01*
X7818145Y-6106517D02*
X7898145Y-6106517D01*
X7858145Y-6320517D02*
X7858145Y-6400517D01*
X7818145Y-6360517D02*
X7898145Y-6360517D01*
X7858145Y-6574517D02*
X7858145Y-6654517D01*
X7818145Y-6614517D02*
X7898145Y-6614517D01*
X7858145Y-6828517D02*
X7858145Y-6908517D01*
X7818145Y-6868517D02*
X7898145Y-6868517D01*
X7864375Y-8097500D02*
X7864375Y-8177500D01*
X7824375Y-8137500D02*
X7904375Y-8137500D01*
X7864375Y-8732500D02*
X7864375Y-8812500D01*
X7824375Y-8772500D02*
X7904375Y-8772500D01*
X7864375Y-8932500D02*
X7864375Y-9012500D01*
X7824375Y-8972500D02*
X7904375Y-8972500D01*
X7864375Y-10002500D02*
X7864375Y-10082500D01*
X7824375Y-10042500D02*
X7904375Y-10042500D01*
X7864375Y-10637500D02*
X7864375Y-10717500D01*
X7824375Y-10677500D02*
X7904375Y-10677500D01*
X7864375Y-10837500D02*
X7864375Y-10917500D01*
X7824375Y-10877500D02*
X7904375Y-10877500D01*
X7864375Y-11907500D02*
X7864375Y-11987500D01*
X7824375Y-11947500D02*
X7904375Y-11947500D01*
X7864375Y-12542500D02*
X7864375Y-12622500D01*
X7824375Y-12582500D02*
X7904375Y-12582500D01*
X7864375Y-12742500D02*
X7864375Y-12822500D01*
X7824375Y-12782500D02*
X7904375Y-12782500D01*
X7864375Y-13812500D02*
X7864375Y-13892500D01*
X7824375Y-13852500D02*
X7904375Y-13852500D01*
X7864375Y-14447500D02*
X7864375Y-14527500D01*
X7824375Y-14487500D02*
X7904375Y-14487500D01*
X7864375Y-14647500D02*
X7864375Y-14727500D01*
X7824375Y-14687500D02*
X7904375Y-14687500D01*
X8088145Y-6807516D02*
X8088145Y-6887516D01*
X8048145Y-6847516D02*
X8128145Y-6847516D01*
X8169375Y-8132500D02*
X8169375Y-8212500D01*
X8129375Y-8172500D02*
X8209375Y-8172500D01*
X8169375Y-8532500D02*
X8169375Y-8612500D01*
X8129375Y-8572500D02*
X8209375Y-8572500D01*
X8169375Y-8932500D02*
X8169375Y-9012500D01*
X8129375Y-8972500D02*
X8209375Y-8972500D01*
X8169375Y-10037500D02*
X8169375Y-10117500D01*
X8129375Y-10077500D02*
X8209375Y-10077500D01*
X8169375Y-10437500D02*
X8169375Y-10517500D01*
X8129375Y-10477500D02*
X8209375Y-10477500D01*
X8169375Y-10837500D02*
X8169375Y-10917500D01*
X8129375Y-10877500D02*
X8209375Y-10877500D01*
X8169375Y-11942500D02*
X8169375Y-12022500D01*
X8129375Y-11982500D02*
X8209375Y-11982500D01*
X8169375Y-12342500D02*
X8169375Y-12422500D01*
X8129375Y-12382500D02*
X8209375Y-12382500D01*
X8169375Y-12742500D02*
X8169375Y-12822500D01*
X8129375Y-12782500D02*
X8209375Y-12782500D01*
X8169375Y-13847500D02*
X8169375Y-13927500D01*
X8129375Y-13887500D02*
X8209375Y-13887500D01*
X8169375Y-14247500D02*
X8169375Y-14327500D01*
X8129375Y-14287500D02*
X8209375Y-14287500D01*
X8169375Y-14647500D02*
X8169375Y-14727500D01*
X8129375Y-14687500D02*
X8209375Y-14687500D01*
X8418145Y-7127517D02*
X8418145Y-7207517D01*
X8378145Y-7167517D02*
X8458145Y-7167517D01*
X8545225Y-8970550D02*
X8545225Y-9050550D01*
X8505225Y-9010550D02*
X8585225Y-9010550D01*
X8545225Y-10875550D02*
X8545225Y-10955550D01*
X8505225Y-10915550D02*
X8585225Y-10915550D01*
X8545225Y-14685550D02*
X8545225Y-14765550D01*
X8505225Y-14725550D02*
X8585225Y-14725550D01*
X8560727Y-12824970D02*
X8560727Y-12904970D01*
X8520727Y-12864970D02*
X8600727Y-12864970D01*
X8569375Y-7732500D02*
X8569375Y-7812500D01*
X8529375Y-7772500D02*
X8609375Y-7772500D01*
X8569375Y-9332500D02*
X8569375Y-9412500D01*
X8529375Y-9372500D02*
X8609375Y-9372500D01*
X8569375Y-9637500D02*
X8569375Y-9717500D01*
X8529375Y-9677500D02*
X8609375Y-9677500D01*
X8569375Y-11237500D02*
X8569375Y-11317500D01*
X8529375Y-11277500D02*
X8609375Y-11277500D01*
X8569375Y-11542500D02*
X8569375Y-11622500D01*
X8529375Y-11582500D02*
X8609375Y-11582500D01*
X8569375Y-13142500D02*
X8569375Y-13222500D01*
X8529375Y-13182500D02*
X8609375Y-13182500D01*
X8569375Y-13447500D02*
X8569375Y-13527500D01*
X8529375Y-13487500D02*
X8609375Y-13487500D01*
X8569375Y-15047500D02*
X8569375Y-15127500D01*
X8529375Y-15087500D02*
X8609375Y-15087500D01*
X8721725Y-9846950D02*
X8721725Y-9926950D01*
X8681725Y-9886950D02*
X8761725Y-9886950D01*
X8798719Y-6963437D02*
X8798719Y-7043437D01*
X8758719Y-7003437D02*
X8838719Y-7003437D01*
X8816975Y-7980050D02*
X8816975Y-8060050D01*
X8776975Y-8020050D02*
X8856975Y-8020050D01*
X9052719Y-6963437D02*
X9052719Y-7043437D01*
X9012719Y-7003437D02*
X9092719Y-7003437D01*
X9306719Y-6963437D02*
X9306719Y-7043437D01*
X9266719Y-7003437D02*
X9346719Y-7003437D01*
X9369375Y-7732500D02*
X9369375Y-7812500D01*
X9329375Y-7772500D02*
X9409375Y-7772500D01*
X9369375Y-9332500D02*
X9369375Y-9412500D01*
X9329375Y-9372500D02*
X9409375Y-9372500D01*
X9369375Y-9637500D02*
X9369375Y-9717500D01*
X9329375Y-9677500D02*
X9409375Y-9677500D01*
X9369375Y-11237500D02*
X9369375Y-11317500D01*
X9329375Y-11277500D02*
X9409375Y-11277500D01*
X9369375Y-11542500D02*
X9369375Y-11622500D01*
X9329375Y-11582500D02*
X9409375Y-11582500D01*
X9369375Y-13142500D02*
X9369375Y-13222500D01*
X9329375Y-13182500D02*
X9409375Y-13182500D01*
X9369375Y-13447500D02*
X9369375Y-13527500D01*
X9329375Y-13487500D02*
X9409375Y-13487500D01*
X9369375Y-15047500D02*
X9369375Y-15127500D01*
X9329375Y-15087500D02*
X9409375Y-15087500D01*
X9738145Y-6690482D02*
X9738145Y-6770482D01*
X9698145Y-6730482D02*
X9778145Y-6730482D01*
X9769375Y-8097500D02*
X9769375Y-8177500D01*
X9729375Y-8137500D02*
X9809375Y-8137500D01*
X9769375Y-8732500D02*
X9769375Y-8812500D01*
X9729375Y-8772500D02*
X9809375Y-8772500D01*
X9769375Y-8932500D02*
X9769375Y-9012500D01*
X9729375Y-8972500D02*
X9809375Y-8972500D01*
X9769375Y-10002500D02*
X9769375Y-10082500D01*
X9729375Y-10042500D02*
X9809375Y-10042500D01*
X9769375Y-10637500D02*
X9769375Y-10717500D01*
X9729375Y-10677500D02*
X9809375Y-10677500D01*
X9769375Y-10837500D02*
X9769375Y-10917500D01*
X9729375Y-10877500D02*
X9809375Y-10877500D01*
X9769375Y-11907500D02*
X9769375Y-11987500D01*
X9729375Y-11947500D02*
X9809375Y-11947500D01*
X9769375Y-12542500D02*
X9769375Y-12622500D01*
X9729375Y-12582500D02*
X9809375Y-12582500D01*
X9769375Y-12742500D02*
X9769375Y-12822500D01*
X9729375Y-12782500D02*
X9809375Y-12782500D01*
X9769375Y-13812500D02*
X9769375Y-13892500D01*
X9729375Y-13852500D02*
X9809375Y-13852500D01*
X9769375Y-14447500D02*
X9769375Y-14527500D01*
X9729375Y-14487500D02*
X9809375Y-14487500D01*
X9769375Y-14647500D02*
X9769375Y-14727500D01*
X9729375Y-14687500D02*
X9809375Y-14687500D01*
X10074275Y-6310000D02*
X10074275Y-6390000D01*
X10034275Y-6350000D02*
X10114275Y-6350000D01*
X10074275Y-6945000D02*
X10074275Y-7025000D01*
X10034275Y-6985000D02*
X10114275Y-6985000D01*
X10074375Y-8132500D02*
X10074375Y-8212500D01*
X10034375Y-8172500D02*
X10114375Y-8172500D01*
X10074375Y-8532500D02*
X10074375Y-8612500D01*
X10034375Y-8572500D02*
X10114375Y-8572500D01*
X10074375Y-8932500D02*
X10074375Y-9012500D01*
X10034375Y-8972500D02*
X10114375Y-8972500D01*
X10074375Y-10037500D02*
X10074375Y-10117500D01*
X10034375Y-10077500D02*
X10114375Y-10077500D01*
X10074375Y-10437500D02*
X10074375Y-10517500D01*
X10034375Y-10477500D02*
X10114375Y-10477500D01*
X10074375Y-10837500D02*
X10074375Y-10917500D01*
X10034375Y-10877500D02*
X10114375Y-10877500D01*
X10074375Y-11942500D02*
X10074375Y-12022500D01*
X10034375Y-11982500D02*
X10114375Y-11982500D01*
X10074375Y-12342500D02*
X10074375Y-12422500D01*
X10034375Y-12382500D02*
X10114375Y-12382500D01*
X10074375Y-12742500D02*
X10074375Y-12822500D01*
X10034375Y-12782500D02*
X10114375Y-12782500D01*
X10074375Y-13847500D02*
X10074375Y-13927500D01*
X10034375Y-13887500D02*
X10114375Y-13887500D01*
X10074375Y-14247500D02*
X10074375Y-14327500D01*
X10034375Y-14287500D02*
X10114375Y-14287500D01*
X10074375Y-14647500D02*
X10074375Y-14727500D01*
X10034375Y-14687500D02*
X10114375Y-14687500D01*
X10144375Y-6151250D02*
X10144375Y-6231250D01*
X10104375Y-6191250D02*
X10184375Y-6191250D01*
X10450225Y-8970550D02*
X10450225Y-9050550D01*
X10410225Y-9010550D02*
X10490225Y-9010550D01*
X10450225Y-10875550D02*
X10450225Y-10955550D01*
X10410225Y-10915550D02*
X10490225Y-10915550D01*
X10450225Y-12780550D02*
X10450225Y-12860550D01*
X10410225Y-12820550D02*
X10490225Y-12820550D01*
X10450225Y-14685550D02*
X10450225Y-14765550D01*
X10410225Y-14725550D02*
X10490225Y-14725550D01*
X10474375Y-7732500D02*
X10474375Y-7812500D01*
X10434375Y-7772500D02*
X10514375Y-7772500D01*
X10474375Y-9332500D02*
X10474375Y-9412500D01*
X10434375Y-9372500D02*
X10514375Y-9372500D01*
X10474375Y-9637500D02*
X10474375Y-9717500D01*
X10434375Y-9677500D02*
X10514375Y-9677500D01*
X10474375Y-11237500D02*
X10474375Y-11317500D01*
X10434375Y-11277500D02*
X10514375Y-11277500D01*
X10474375Y-11542500D02*
X10474375Y-11622500D01*
X10434375Y-11582500D02*
X10514375Y-11582500D01*
X10474375Y-13142500D02*
X10474375Y-13222500D01*
X10434375Y-13182500D02*
X10514375Y-13182500D01*
X10474375Y-13447500D02*
X10474375Y-13527500D01*
X10434375Y-13487500D02*
X10514375Y-13487500D01*
X10474375Y-15047500D02*
X10474375Y-15127500D01*
X10434375Y-15087500D02*
X10514375Y-15087500D01*
X10741025Y-7980050D02*
X10741025Y-8060050D01*
X10701025Y-8020050D02*
X10781025Y-8020050D01*
X10874375Y-7427600D02*
X10874375Y-7507600D01*
X10834375Y-7467600D02*
X10914375Y-7467600D01*
X11274375Y-7732500D02*
X11274375Y-7812500D01*
X11234375Y-7772500D02*
X11314375Y-7772500D01*
X11274375Y-9332500D02*
X11274375Y-9412500D01*
X11234375Y-9372500D02*
X11314375Y-9372500D01*
X11274375Y-9637500D02*
X11274375Y-9717500D01*
X11234375Y-9677500D02*
X11314375Y-9677500D01*
X11274375Y-11237500D02*
X11274375Y-11317500D01*
X11234375Y-11277500D02*
X11314375Y-11277500D01*
X11274375Y-11542500D02*
X11274375Y-11622500D01*
X11234375Y-11582500D02*
X11314375Y-11582500D01*
X11274375Y-13142500D02*
X11274375Y-13222500D01*
X11234375Y-13182500D02*
X11314375Y-13182500D01*
X11274375Y-13447500D02*
X11274375Y-13527500D01*
X11234375Y-13487500D02*
X11314375Y-13487500D01*
X11274375Y-15047500D02*
X11274375Y-15127500D01*
X11234375Y-15087500D02*
X11314375Y-15087500D01*
X11604075Y-6151250D02*
X11604075Y-6231250D01*
X11564075Y-6191250D02*
X11644075Y-6191250D01*
X11674375Y-6310000D02*
X11674375Y-6390000D01*
X11634375Y-6350000D02*
X11714375Y-6350000D01*
X11674375Y-8097500D02*
X11674375Y-8177500D01*
X11634375Y-8137500D02*
X11714375Y-8137500D01*
X11674375Y-8732500D02*
X11674375Y-8812500D01*
X11634375Y-8772500D02*
X11714375Y-8772500D01*
X11674375Y-8932500D02*
X11674375Y-9012500D01*
X11634375Y-8972500D02*
X11714375Y-8972500D01*
X11674375Y-10002500D02*
X11674375Y-10082500D01*
X11634375Y-10042500D02*
X11714375Y-10042500D01*
X11674375Y-10637500D02*
X11674375Y-10717500D01*
X11634375Y-10677500D02*
X11714375Y-10677500D01*
X11674375Y-10837500D02*
X11674375Y-10917500D01*
X11634375Y-10877500D02*
X11714375Y-10877500D01*
X11674375Y-11907500D02*
X11674375Y-11987500D01*
X11634375Y-11947500D02*
X11714375Y-11947500D01*
X11674375Y-12542500D02*
X11674375Y-12622500D01*
X11634375Y-12582500D02*
X11714375Y-12582500D01*
X11674375Y-12742500D02*
X11674375Y-12822500D01*
X11634375Y-12782500D02*
X11714375Y-12782500D01*
X11674375Y-13812500D02*
X11674375Y-13892500D01*
X11634375Y-13852500D02*
X11714375Y-13852500D01*
X11674375Y-14447500D02*
X11674375Y-14527500D01*
X11634375Y-14487500D02*
X11714375Y-14487500D01*
X11674375Y-14647500D02*
X11674375Y-14727500D01*
X11634375Y-14687500D02*
X11714375Y-14687500D01*
X11674475Y-6627500D02*
X11674475Y-6707500D01*
X11634475Y-6667500D02*
X11714475Y-6667500D01*
X11979275Y-13676000D02*
X11979275Y-13756000D01*
X11939275Y-13716000D02*
X12019275Y-13716000D01*
X11979275Y-14628500D02*
X11979275Y-14708500D01*
X11939275Y-14668500D02*
X12019275Y-14668500D01*
X11979375Y-8132500D02*
X11979375Y-8212500D01*
X11939375Y-8172500D02*
X12019375Y-8172500D01*
X11979375Y-8532500D02*
X11979375Y-8612500D01*
X11939375Y-8572500D02*
X12019375Y-8572500D01*
X11979375Y-8932500D02*
X11979375Y-9012500D01*
X11939375Y-8972500D02*
X12019375Y-8972500D01*
X11979375Y-10990000D02*
X11979375Y-11070000D01*
X11939375Y-11030000D02*
X12019375Y-11030000D01*
X11979375Y-11790000D02*
X11979375Y-11870000D01*
X11939375Y-11830000D02*
X12019375Y-11830000D01*
X12065000Y-6310000D02*
X12065000Y-6390000D01*
X12025000Y-6350000D02*
X12105000Y-6350000D01*
X12065000Y-6945000D02*
X12065000Y-7025000D01*
X12025000Y-6985000D02*
X12105000Y-6985000D01*
X12303125Y-7103750D02*
X12303125Y-7183750D01*
X12263125Y-7143750D02*
X12343125Y-7143750D01*
X12344375Y-10590000D02*
X12344375Y-10670000D01*
X12304375Y-10630000D02*
X12384375Y-10630000D01*
X12355225Y-8970550D02*
X12355225Y-9050550D01*
X12315225Y-9010550D02*
X12395225Y-9010550D01*
X12379375Y-7732500D02*
X12379375Y-7812500D01*
X12339375Y-7772500D02*
X12419375Y-7772500D01*
X12379375Y-9332500D02*
X12379375Y-9412500D01*
X12339375Y-9372500D02*
X12419375Y-9372500D01*
X12379375Y-12190000D02*
X12379375Y-12270000D01*
X12339375Y-12230000D02*
X12419375Y-12230000D01*
X12461875Y-5913125D02*
X12461875Y-5993125D01*
X12421875Y-5953125D02*
X12501875Y-5953125D01*
X12461875Y-7347500D02*
X12461875Y-7427500D01*
X12421875Y-7387500D02*
X12501875Y-7387500D01*
X12550775Y-13851250D02*
X12550775Y-13931250D01*
X12510775Y-13891250D02*
X12590775Y-13891250D01*
X12550775Y-14801250D02*
X12550775Y-14881250D01*
X12510775Y-14841250D02*
X12590775Y-14841250D01*
X12611875Y-7207500D02*
X12611875Y-7287500D01*
X12571875Y-7247500D02*
X12651875Y-7247500D01*
X12646025Y-7961000D02*
X12646025Y-8041000D01*
X12606025Y-8001000D02*
X12686025Y-8001000D01*
X12779375Y-12190000D02*
X12779375Y-12270000D01*
X12739375Y-12230000D02*
X12819375Y-12230000D01*
X12979375Y-10590000D02*
X12979375Y-10670000D01*
X12939375Y-10630000D02*
X13019375Y-10630000D01*
X13007975Y-14799950D02*
X13007975Y-14879950D01*
X12967975Y-14839950D02*
X13047975Y-14839950D01*
X13008125Y-13851250D02*
X13008125Y-13931250D01*
X12968125Y-13891250D02*
X13048125Y-13891250D01*
X13065125Y-10361300D02*
X13065125Y-10441300D01*
X13025125Y-10401300D02*
X13105125Y-10401300D01*
X13096875Y-5913125D02*
X13096875Y-5993125D01*
X13056875Y-5953125D02*
X13136875Y-5953125D01*
X13096875Y-7347500D02*
X13096875Y-7427500D01*
X13056875Y-7387500D02*
X13136875Y-7387500D01*
X13179375Y-7732500D02*
X13179375Y-7812500D01*
X13139375Y-7772500D02*
X13219375Y-7772500D01*
X13179375Y-9332500D02*
X13179375Y-9412500D01*
X13139375Y-9372500D02*
X13219375Y-9372500D01*
X13179375Y-10590000D02*
X13179375Y-10670000D01*
X13139375Y-10630000D02*
X13219375Y-10630000D01*
X13179375Y-12190000D02*
X13179375Y-12270000D01*
X13139375Y-12230000D02*
X13219375Y-12230000D01*
X13212475Y-11828050D02*
X13212475Y-11908050D01*
X13172475Y-11868050D02*
X13252475Y-11868050D01*
X13246875Y-7207500D02*
X13246875Y-7287500D01*
X13206875Y-7247500D02*
X13286875Y-7247500D01*
X13255625Y-6151250D02*
X13255625Y-6231250D01*
X13215625Y-6191250D02*
X13295625Y-6191250D01*
X13379375Y-10590000D02*
X13379375Y-10670000D01*
X13339375Y-10630000D02*
X13419375Y-10630000D01*
X13379375Y-12190000D02*
X13379375Y-12270000D01*
X13339375Y-12230000D02*
X13419375Y-12230000D01*
X13493750Y-6310000D02*
X13493750Y-6390000D01*
X13453750Y-6350000D02*
X13533750Y-6350000D01*
X13493750Y-6945000D02*
X13493750Y-7025000D01*
X13453750Y-6985000D02*
X13533750Y-6985000D01*
X13541375Y-11085200D02*
X13541375Y-11165200D01*
X13501375Y-11125200D02*
X13581375Y-11125200D01*
X13579375Y-8097500D02*
X13579375Y-8177500D01*
X13539375Y-8137500D02*
X13619375Y-8137500D01*
X13579375Y-8732500D02*
X13579375Y-8812500D01*
X13539375Y-8772500D02*
X13619375Y-8772500D01*
X13579375Y-8932500D02*
X13579375Y-9012500D01*
X13539375Y-8972500D02*
X13619375Y-8972500D01*
X13579475Y-13676000D02*
X13579475Y-13756000D01*
X13539475Y-13716000D02*
X13619475Y-13716000D01*
X13579475Y-14628500D02*
X13579475Y-14708500D01*
X13539475Y-14668500D02*
X13619475Y-14668500D01*
X8409418Y-5979591D02*
X8409418Y-5908879D01*
X8338707Y-5908879D01*
X8338707Y-5979591D01*
X8409418Y-5979591D01*
X8409418Y-6629591D02*
X8409418Y-6558879D01*
X8338707Y-6558879D01*
X8338707Y-6629591D01*
X8409418Y-6629591D01*
X8740043Y-5930043D02*
X8740043Y-5859332D01*
X8669332Y-5859332D01*
X8669332Y-5930043D01*
X8740043Y-5930043D01*
X8744688Y-5909687D02*
X8744688Y-5879687D01*
X8664688Y-5909687D02*
X8664688Y-5879687D01*
X8744688Y-5879687D02*
G75*
G03*
X8664688Y-5879687I-40000J0D01*
G01*
X8664688Y-5909687D02*
G75*
G03*
X8744688Y-5909687I40000J0D01*
G01*
X8740043Y-6240043D02*
X8740043Y-6169332D01*
X8669332Y-6169332D01*
X8669332Y-6240043D01*
X8740043Y-6240043D01*
X8744688Y-6219687D02*
X8744688Y-6189687D01*
X8664688Y-6219687D02*
X8664688Y-6189687D01*
X8744688Y-6189687D02*
G75*
G03*
X8664688Y-6189687I-40000J0D01*
G01*
X8664688Y-6219687D02*
G75*
G03*
X8744688Y-6219687I40000J0D01*
G01*
X8740043Y-6650043D02*
X8740043Y-6579332D01*
X8669332Y-6579332D01*
X8669332Y-6650043D01*
X8740043Y-6650043D01*
X8744688Y-6629687D02*
X8744688Y-6599687D01*
X8664688Y-6629687D02*
X8664688Y-6599687D01*
X8744688Y-6599687D02*
G75*
G03*
X8664688Y-6599687I-40000J0D01*
G01*
X8664688Y-6629687D02*
G75*
G03*
X8744688Y-6629687I40000J0D01*
G01*
X8978168Y-6760043D02*
X8978168Y-6689332D01*
X8907457Y-6689332D01*
X8907457Y-6760043D01*
X8978168Y-6760043D01*
X8902813Y-6709687D02*
X8902813Y-6739687D01*
X8982813Y-6709687D02*
X8982813Y-6739687D01*
X8902813Y-6739687D02*
G75*
G03*
X8982813Y-6739687I40000J0D01*
G01*
X8982813Y-6709687D02*
G75*
G03*
X8902813Y-6709687I-40000J0D01*
G01*
X9190043Y-6760043D02*
X9190043Y-6689332D01*
X9119332Y-6689332D01*
X9119332Y-6760043D01*
X9190043Y-6760043D01*
X9194688Y-6739687D02*
X9194688Y-6709687D01*
X9114688Y-6739687D02*
X9114688Y-6709687D01*
X9194688Y-6709687D02*
G75*
G03*
X9114688Y-6709687I-40000J0D01*
G01*
X9114688Y-6739687D02*
G75*
G03*
X9194688Y-6739687I40000J0D01*
G01*
X9428168Y-5930043D02*
X9428168Y-5859332D01*
X9357457Y-5859332D01*
X9357457Y-5930043D01*
X9428168Y-5930043D01*
X9352813Y-5879687D02*
X9352813Y-5909687D01*
X9432813Y-5879687D02*
X9432813Y-5909687D01*
X9352813Y-5909687D02*
G75*
G03*
X9432813Y-5909687I40000J0D01*
G01*
X9432813Y-5879687D02*
G75*
G03*
X9352813Y-5879687I-40000J0D01*
G01*
X9428168Y-6240043D02*
X9428168Y-6169332D01*
X9357457Y-6169332D01*
X9357457Y-6240043D01*
X9428168Y-6240043D01*
X9352813Y-6189687D02*
X9352813Y-6219687D01*
X9432813Y-6189687D02*
X9432813Y-6219687D01*
X9352813Y-6219687D02*
G75*
G03*
X9432813Y-6219687I40000J0D01*
G01*
X9432813Y-6189687D02*
G75*
G03*
X9352813Y-6189687I-40000J0D01*
G01*
X9428168Y-6650043D02*
X9428168Y-6579332D01*
X9357457Y-6579332D01*
X9357457Y-6650043D01*
X9428168Y-6650043D01*
X9352813Y-6599687D02*
X9352813Y-6629687D01*
X9432813Y-6599687D02*
X9432813Y-6629687D01*
X9352813Y-6629687D02*
G75*
G03*
X9432813Y-6629687I40000J0D01*
G01*
X9432813Y-6599687D02*
G75*
G03*
X9352813Y-6599687I-40000J0D01*
G01*
X10289731Y-7082856D02*
X10289731Y-7012144D01*
X10219019Y-7012144D01*
X10219019Y-7082856D01*
X10289731Y-7082856D01*
X10289731Y-7282856D02*
X10289731Y-7212144D01*
X10219019Y-7212144D01*
X10219019Y-7282856D01*
X10289731Y-7282856D01*
X10528731Y-7127856D02*
X10528731Y-7057144D01*
X10458019Y-7057144D01*
X10458019Y-7127856D01*
X10528731Y-7127856D01*
X10659731Y-5952856D02*
X10659731Y-5882144D01*
X10589019Y-5882144D01*
X10589019Y-5952856D01*
X10659731Y-5952856D01*
X10659731Y-7402856D02*
X10659731Y-7332144D01*
X10589019Y-7332144D01*
X10589019Y-7402856D01*
X10659731Y-7402856D01*
X10782731Y-7127856D02*
X10782731Y-7057144D01*
X10712019Y-7057144D01*
X10712019Y-7127856D01*
X10782731Y-7127856D01*
X10909731Y-5952856D02*
X10909731Y-5882144D01*
X10839019Y-5882144D01*
X10839019Y-5952856D01*
X10909731Y-5952856D01*
X11036731Y-7122856D02*
X11036731Y-7052144D01*
X10966019Y-7052144D01*
X10966019Y-7122856D01*
X11036731Y-7122856D01*
X11159731Y-5952856D02*
X11159731Y-5882144D01*
X11089019Y-5882144D01*
X11089019Y-5952856D01*
X11159731Y-5952856D01*
X11159731Y-7402856D02*
X11159731Y-7332144D01*
X11089019Y-7332144D01*
X11089019Y-7402856D01*
X11159731Y-7402856D01*
X11290731Y-7127856D02*
X11290731Y-7057144D01*
X11220019Y-7057144D01*
X11220019Y-7127856D01*
X11290731Y-7127856D01*
X4794250Y-5800500D02*
X4869250Y-5725500D01*
X4794250Y-5650500D01*
X4719250Y-5725500D01*
X4794250Y-5800500D01*
X4794250Y-7324500D02*
X4869250Y-7249500D01*
X4794250Y-7174500D01*
X4719250Y-7249500D01*
X4794250Y-7324500D01*
X5048250Y-5800500D02*
X5123250Y-5725500D01*
X5048250Y-5650500D01*
X4973250Y-5725500D01*
X5048250Y-5800500D01*
X5048250Y-7324500D02*
X5123250Y-7249500D01*
X5048250Y-7174500D01*
X4973250Y-7249500D01*
X5048250Y-7324500D01*
X5302250Y-5800500D02*
X5377250Y-5725500D01*
X5302250Y-5650500D01*
X5227250Y-5725500D01*
X5302250Y-5800500D01*
X5302250Y-7324500D02*
X5377250Y-7249500D01*
X5302250Y-7174500D01*
X5227250Y-7249500D01*
X5302250Y-7324500D01*
X5556250Y-5800500D02*
X5631250Y-5725500D01*
X5556250Y-5650500D01*
X5481250Y-5725500D01*
X5556250Y-5800500D01*
X5556250Y-7324500D02*
X5631250Y-7249500D01*
X5556250Y-7174500D01*
X5481250Y-7249500D01*
X5556250Y-7324500D01*
X5810250Y-5800500D02*
X5885250Y-5725500D01*
X5810250Y-5650500D01*
X5735250Y-5725500D01*
X5810250Y-5800500D01*
X5810250Y-7324500D02*
X5885250Y-7249500D01*
X5810250Y-7174500D01*
X5735250Y-7249500D01*
X5810250Y-7324500D01*
X6061250Y-7324500D02*
X6136250Y-7249500D01*
X6061250Y-7174500D01*
X5986250Y-7249500D01*
X6061250Y-7324500D01*
X6064250Y-5800500D02*
X6139250Y-5725500D01*
X6064250Y-5650500D01*
X5989250Y-5725500D01*
X6064250Y-5800500D01*
X6318250Y-5800500D02*
X6393250Y-5725500D01*
X6318250Y-5650500D01*
X6243250Y-5725500D01*
X6318250Y-5800500D01*
X6318250Y-7324500D02*
X6393250Y-7249500D01*
X6318250Y-7174500D01*
X6243250Y-7249500D01*
X6318250Y-7324500D01*
X6572250Y-5800500D02*
X6647250Y-5725500D01*
X6572250Y-5650500D01*
X6497250Y-5725500D01*
X6572250Y-5800500D01*
X6572250Y-7324500D02*
X6647250Y-7249500D01*
X6572250Y-7174500D01*
X6497250Y-7249500D01*
X6572250Y-7324500D01*
X6826250Y-5800500D02*
X6901250Y-5725500D01*
X6826250Y-5650500D01*
X6751250Y-5725500D01*
X6826250Y-5800500D01*
X6826250Y-7324500D02*
X6901250Y-7249500D01*
X6826250Y-7174500D01*
X6751250Y-7249500D01*
X6826250Y-7324500D01*
X7080250Y-5800500D02*
X7155250Y-5725500D01*
X7080250Y-5650500D01*
X7005250Y-5725500D01*
X7080250Y-5800500D01*
X7080250Y-7324500D02*
X7155250Y-7249500D01*
X7080250Y-7174500D01*
X7005250Y-7249500D01*
X7080250Y-7324500D01*
X7334250Y-5800500D02*
X7409250Y-5725500D01*
X7334250Y-5650500D01*
X7259250Y-5725500D01*
X7334250Y-5800500D01*
X7334250Y-7324500D02*
X7409250Y-7249500D01*
X7334250Y-7174500D01*
X7259250Y-7249500D01*
X7334250Y-7324500D01*
X7588250Y-5800500D02*
X7663250Y-5725500D01*
X7588250Y-5650500D01*
X7513250Y-5725500D01*
X7588250Y-5800500D01*
X7588250Y-7324500D02*
X7663250Y-7249500D01*
X7588250Y-7174500D01*
X7513250Y-7249500D01*
X7588250Y-7324500D01*
X10314375Y-6742500D02*
X10389375Y-6667500D01*
X10314375Y-6592500D01*
X10239375Y-6667500D01*
X10314375Y-6742500D01*
X10249375Y-6602500D02*
X10249375Y-6732500D01*
X10379375Y-6602500D02*
X10379375Y-6732500D01*
X10249375Y-6732500D02*
G75*
G03*
X10379375Y-6732500I65000J0D01*
G01*
X10379375Y-6602500D02*
G75*
G03*
X10249375Y-6602500I-65000J0D01*
G01*
X11434375Y-6742500D02*
X11509375Y-6667500D01*
X11434375Y-6592500D01*
X11359375Y-6667500D01*
X11434375Y-6742500D01*
X11369375Y-6602500D02*
X11369375Y-6732500D01*
X11499375Y-6602500D02*
X11499375Y-6732500D01*
X11369375Y-6732500D02*
G75*
G03*
X11499375Y-6732500I65000J0D01*
G01*
X11499375Y-6602500D02*
G75*
G03*
X11369375Y-6602500I-65000J0D01*
G01*
X4566375Y-8487500D02*
X4736375Y-8657500D01*
X4736375Y-8487500D02*
X4566375Y-8657500D01*
X4736375Y-8572500D02*
G75*
G03*
X4736375Y-8572500I-85000J0D01*
G01*
X4566375Y-10392500D02*
X4736375Y-10562500D01*
X4736375Y-10392500D02*
X4566375Y-10562500D01*
X4736375Y-10477500D02*
G75*
G03*
X4736375Y-10477500I-85000J0D01*
G01*
X4566375Y-12297500D02*
X4736375Y-12467500D01*
X4736375Y-12297500D02*
X4566375Y-12467500D01*
X4736375Y-12382500D02*
G75*
G03*
X4736375Y-12382500I-85000J0D01*
G01*
X4566375Y-14202500D02*
X4736375Y-14372500D01*
X4736375Y-14202500D02*
X4566375Y-14372500D01*
X4736375Y-14287500D02*
G75*
G03*
X4736375Y-14287500I-85000J0D01*
G01*
X5582375Y-8487500D02*
X5752375Y-8657500D01*
X5752375Y-8487500D02*
X5582375Y-8657500D01*
X5752375Y-8572500D02*
G75*
G03*
X5752375Y-8572500I-85000J0D01*
G01*
X5582375Y-10392500D02*
X5752375Y-10562500D01*
X5752375Y-10392500D02*
X5582375Y-10562500D01*
X5752375Y-10477500D02*
G75*
G03*
X5752375Y-10477500I-85000J0D01*
G01*
X5582375Y-12297500D02*
X5752375Y-12467500D01*
X5752375Y-12297500D02*
X5582375Y-12467500D01*
X5752375Y-12382500D02*
G75*
G03*
X5752375Y-12382500I-85000J0D01*
G01*
X5582375Y-14202500D02*
X5752375Y-14372500D01*
X5752375Y-14202500D02*
X5582375Y-14372500D01*
X5752375Y-14287500D02*
G75*
G03*
X5752375Y-14287500I-85000J0D01*
G01*
X6471375Y-8487500D02*
X6641375Y-8657500D01*
X6641375Y-8487500D02*
X6471375Y-8657500D01*
X6641375Y-8572500D02*
G75*
G03*
X6641375Y-8572500I-85000J0D01*
G01*
X6471375Y-10392500D02*
X6641375Y-10562500D01*
X6641375Y-10392500D02*
X6471375Y-10562500D01*
X6641375Y-10477500D02*
G75*
G03*
X6641375Y-10477500I-85000J0D01*
G01*
X6471375Y-12297500D02*
X6641375Y-12467500D01*
X6641375Y-12297500D02*
X6471375Y-12467500D01*
X6641375Y-12382500D02*
G75*
G03*
X6641375Y-12382500I-85000J0D01*
G01*
X6471375Y-14202500D02*
X6641375Y-14372500D01*
X6641375Y-14202500D02*
X6471375Y-14372500D01*
X6641375Y-14287500D02*
G75*
G03*
X6641375Y-14287500I-85000J0D01*
G01*
X7487375Y-8487500D02*
X7657375Y-8657500D01*
X7657375Y-8487500D02*
X7487375Y-8657500D01*
X7657375Y-8572500D02*
G75*
G03*
X7657375Y-8572500I-85000J0D01*
G01*
X7487375Y-10392500D02*
X7657375Y-10562500D01*
X7657375Y-10392500D02*
X7487375Y-10562500D01*
X7657375Y-10477500D02*
G75*
G03*
X7657375Y-10477500I-85000J0D01*
G01*
X7487375Y-12297500D02*
X7657375Y-12467500D01*
X7657375Y-12297500D02*
X7487375Y-12467500D01*
X7657375Y-12382500D02*
G75*
G03*
X7657375Y-12382500I-85000J0D01*
G01*
X7487375Y-14202500D02*
X7657375Y-14372500D01*
X7657375Y-14202500D02*
X7487375Y-14372500D01*
X7657375Y-14287500D02*
G75*
G03*
X7657375Y-14287500I-85000J0D01*
G01*
X8376375Y-8487500D02*
X8546375Y-8657500D01*
X8546375Y-8487500D02*
X8376375Y-8657500D01*
X8546375Y-8572500D02*
G75*
G03*
X8546375Y-8572500I-85000J0D01*
G01*
X8376375Y-10392500D02*
X8546375Y-10562500D01*
X8546375Y-10392500D02*
X8376375Y-10562500D01*
X8546375Y-10477500D02*
G75*
G03*
X8546375Y-10477500I-85000J0D01*
G01*
X8376375Y-12297500D02*
X8546375Y-12467500D01*
X8546375Y-12297500D02*
X8376375Y-12467500D01*
X8546375Y-12382500D02*
G75*
G03*
X8546375Y-12382500I-85000J0D01*
G01*
X8376375Y-14202500D02*
X8546375Y-14372500D01*
X8546375Y-14202500D02*
X8376375Y-14372500D01*
X8546375Y-14287500D02*
G75*
G03*
X8546375Y-14287500I-85000J0D01*
G01*
X9392375Y-8487500D02*
X9562375Y-8657500D01*
X9562375Y-8487500D02*
X9392375Y-8657500D01*
X9562375Y-8572500D02*
G75*
G03*
X9562375Y-8572500I-85000J0D01*
G01*
X9392375Y-10392500D02*
X9562375Y-10562500D01*
X9562375Y-10392500D02*
X9392375Y-10562500D01*
X9562375Y-10477500D02*
G75*
G03*
X9562375Y-10477500I-85000J0D01*
G01*
X9392375Y-12297500D02*
X9562375Y-12467500D01*
X9562375Y-12297500D02*
X9392375Y-12467500D01*
X9562375Y-12382500D02*
G75*
G03*
X9562375Y-12382500I-85000J0D01*
G01*
X9392375Y-14202500D02*
X9562375Y-14372500D01*
X9562375Y-14202500D02*
X9392375Y-14372500D01*
X9562375Y-14287500D02*
G75*
G03*
X9562375Y-14287500I-85000J0D01*
G01*
X10281375Y-8487500D02*
X10451375Y-8657500D01*
X10451375Y-8487500D02*
X10281375Y-8657500D01*
X10451375Y-8572500D02*
G75*
G03*
X10451375Y-8572500I-85000J0D01*
G01*
X10281375Y-10392500D02*
X10451375Y-10562500D01*
X10451375Y-10392500D02*
X10281375Y-10562500D01*
X10451375Y-10477500D02*
G75*
G03*
X10451375Y-10477500I-85000J0D01*
G01*
X10281375Y-12297500D02*
X10451375Y-12467500D01*
X10451375Y-12297500D02*
X10281375Y-12467500D01*
X10451375Y-12382500D02*
G75*
G03*
X10451375Y-12382500I-85000J0D01*
G01*
X10281375Y-14202500D02*
X10451375Y-14372500D01*
X10451375Y-14202500D02*
X10281375Y-14372500D01*
X10451375Y-14287500D02*
G75*
G03*
X10451375Y-14287500I-85000J0D01*
G01*
X11297375Y-8487500D02*
X11467375Y-8657500D01*
X11467375Y-8487500D02*
X11297375Y-8657500D01*
X11467375Y-8572500D02*
G75*
G03*
X11467375Y-8572500I-85000J0D01*
G01*
X11297375Y-10392500D02*
X11467375Y-10562500D01*
X11467375Y-10392500D02*
X11297375Y-10562500D01*
X11467375Y-10477500D02*
G75*
G03*
X11467375Y-10477500I-85000J0D01*
G01*
X11297375Y-12297500D02*
X11467375Y-12467500D01*
X11467375Y-12297500D02*
X11297375Y-12467500D01*
X11467375Y-12382500D02*
G75*
G03*
X11467375Y-12382500I-85000J0D01*
G01*
X11297375Y-14202500D02*
X11467375Y-14372500D01*
X11467375Y-14202500D02*
X11297375Y-14372500D01*
X11467375Y-14287500D02*
G75*
G03*
X11467375Y-14287500I-85000J0D01*
G01*
X12186375Y-8487500D02*
X12356375Y-8657500D01*
X12356375Y-8487500D02*
X12186375Y-8657500D01*
X12356375Y-8572500D02*
G75*
G03*
X12356375Y-8572500I-85000J0D01*
G01*
X12694375Y-10837000D02*
X12864375Y-11007000D01*
X12864375Y-10837000D02*
X12694375Y-11007000D01*
X12864375Y-10922000D02*
G75*
G03*
X12864375Y-10922000I-85000J0D01*
G01*
X12694375Y-11853000D02*
X12864375Y-12023000D01*
X12864375Y-11853000D02*
X12694375Y-12023000D01*
X12864375Y-11938000D02*
G75*
G03*
X12864375Y-11938000I-85000J0D01*
G01*
X13202375Y-8487500D02*
X13372375Y-8657500D01*
X13372375Y-8487500D02*
X13202375Y-8657500D01*
X13372375Y-8572500D02*
G75*
G03*
X13372375Y-8572500I-85000J0D01*
G01*
X4628375Y-8168500D02*
X4928375Y-8468500D01*
X4928375Y-8168500D02*
X4628375Y-8468500D01*
X4778375Y-8168500D02*
X4778375Y-8468500D01*
X4628375Y-8318500D02*
X4928375Y-8318500D01*
X4628375Y-10073500D02*
X4928375Y-10373500D01*
X4928375Y-10073500D02*
X4628375Y-10373500D01*
X4778375Y-10073500D02*
X4778375Y-10373500D01*
X4628375Y-10223500D02*
X4928375Y-10223500D01*
X4628375Y-11978500D02*
X4928375Y-12278500D01*
X4928375Y-11978500D02*
X4628375Y-12278500D01*
X4778375Y-11978500D02*
X4778375Y-12278500D01*
X4628375Y-12128500D02*
X4928375Y-12128500D01*
X4628375Y-13883500D02*
X4928375Y-14183500D01*
X4928375Y-13883500D02*
X4628375Y-14183500D01*
X4778375Y-13883500D02*
X4778375Y-14183500D01*
X4628375Y-14033500D02*
X4928375Y-14033500D01*
X5263375Y-7914500D02*
X5563375Y-8214500D01*
X5563375Y-7914500D02*
X5263375Y-8214500D01*
X5413375Y-7914500D02*
X5413375Y-8214500D01*
X5263375Y-8064500D02*
X5563375Y-8064500D01*
X5263375Y-9819500D02*
X5563375Y-10119500D01*
X5563375Y-9819500D02*
X5263375Y-10119500D01*
X5413375Y-9819500D02*
X5413375Y-10119500D01*
X5263375Y-9969500D02*
X5563375Y-9969500D01*
X5263375Y-11724500D02*
X5563375Y-12024500D01*
X5563375Y-11724500D02*
X5263375Y-12024500D01*
X5413375Y-11724500D02*
X5413375Y-12024500D01*
X5263375Y-11874500D02*
X5563375Y-11874500D01*
X5263375Y-13629500D02*
X5563375Y-13929500D01*
X5563375Y-13629500D02*
X5263375Y-13929500D01*
X5413375Y-13629500D02*
X5413375Y-13929500D01*
X5263375Y-13779500D02*
X5563375Y-13779500D01*
X6533375Y-8168500D02*
X6833375Y-8468500D01*
X6833375Y-8168500D02*
X6533375Y-8468500D01*
X6683375Y-8168500D02*
X6683375Y-8468500D01*
X6533375Y-8318500D02*
X6833375Y-8318500D01*
X6533375Y-10073500D02*
X6833375Y-10373500D01*
X6833375Y-10073500D02*
X6533375Y-10373500D01*
X6683375Y-10073500D02*
X6683375Y-10373500D01*
X6533375Y-10223500D02*
X6833375Y-10223500D01*
X6533375Y-11978500D02*
X6833375Y-12278500D01*
X6833375Y-11978500D02*
X6533375Y-12278500D01*
X6683375Y-11978500D02*
X6683375Y-12278500D01*
X6533375Y-12128500D02*
X6833375Y-12128500D01*
X6533375Y-13883500D02*
X6833375Y-14183500D01*
X6833375Y-13883500D02*
X6533375Y-14183500D01*
X6683375Y-13883500D02*
X6683375Y-14183500D01*
X6533375Y-14033500D02*
X6833375Y-14033500D01*
X7168375Y-7914500D02*
X7468375Y-8214500D01*
X7468375Y-7914500D02*
X7168375Y-8214500D01*
X7318375Y-7914500D02*
X7318375Y-8214500D01*
X7168375Y-8064500D02*
X7468375Y-8064500D01*
X7168375Y-9819500D02*
X7468375Y-10119500D01*
X7468375Y-9819500D02*
X7168375Y-10119500D01*
X7318375Y-9819500D02*
X7318375Y-10119500D01*
X7168375Y-9969500D02*
X7468375Y-9969500D01*
X7168375Y-11724500D02*
X7468375Y-12024500D01*
X7468375Y-11724500D02*
X7168375Y-12024500D01*
X7318375Y-11724500D02*
X7318375Y-12024500D01*
X7168375Y-11874500D02*
X7468375Y-11874500D01*
X7168375Y-13629500D02*
X7468375Y-13929500D01*
X7468375Y-13629500D02*
X7168375Y-13929500D01*
X7318375Y-13629500D02*
X7318375Y-13929500D01*
X7168375Y-13779500D02*
X7468375Y-13779500D01*
X8438375Y-8168500D02*
X8738375Y-8468500D01*
X8738375Y-8168500D02*
X8438375Y-8468500D01*
X8588375Y-8168500D02*
X8588375Y-8468500D01*
X8438375Y-8318500D02*
X8738375Y-8318500D01*
X8438375Y-10073500D02*
X8738375Y-10373500D01*
X8738375Y-10073500D02*
X8438375Y-10373500D01*
X8588375Y-10073500D02*
X8588375Y-10373500D01*
X8438375Y-10223500D02*
X8738375Y-10223500D01*
X8438375Y-11978500D02*
X8738375Y-12278500D01*
X8738375Y-11978500D02*
X8438375Y-12278500D01*
X8588375Y-11978500D02*
X8588375Y-12278500D01*
X8438375Y-12128500D02*
X8738375Y-12128500D01*
X8438375Y-13883500D02*
X8738375Y-14183500D01*
X8738375Y-13883500D02*
X8438375Y-14183500D01*
X8588375Y-13883500D02*
X8588375Y-14183500D01*
X8438375Y-14033500D02*
X8738375Y-14033500D01*
X9073375Y-7914500D02*
X9373375Y-8214500D01*
X9373375Y-7914500D02*
X9073375Y-8214500D01*
X9223375Y-7914500D02*
X9223375Y-8214500D01*
X9073375Y-8064500D02*
X9373375Y-8064500D01*
X9073375Y-9819500D02*
X9373375Y-10119500D01*
X9373375Y-9819500D02*
X9073375Y-10119500D01*
X9223375Y-9819500D02*
X9223375Y-10119500D01*
X9073375Y-9969500D02*
X9373375Y-9969500D01*
X9073375Y-11724500D02*
X9373375Y-12024500D01*
X9373375Y-11724500D02*
X9073375Y-12024500D01*
X9223375Y-11724500D02*
X9223375Y-12024500D01*
X9073375Y-11874500D02*
X9373375Y-11874500D01*
X9073375Y-13629500D02*
X9373375Y-13929500D01*
X9373375Y-13629500D02*
X9073375Y-13929500D01*
X9223375Y-13629500D02*
X9223375Y-13929500D01*
X9073375Y-13779500D02*
X9373375Y-13779500D01*
X10343375Y-8168500D02*
X10643375Y-8468500D01*
X10643375Y-8168500D02*
X10343375Y-8468500D01*
X10493375Y-8168500D02*
X10493375Y-8468500D01*
X10343375Y-8318500D02*
X10643375Y-8318500D01*
X10343375Y-10073500D02*
X10643375Y-10373500D01*
X10643375Y-10073500D02*
X10343375Y-10373500D01*
X10493375Y-10073500D02*
X10493375Y-10373500D01*
X10343375Y-10223500D02*
X10643375Y-10223500D01*
X10343375Y-11978500D02*
X10643375Y-12278500D01*
X10643375Y-11978500D02*
X10343375Y-12278500D01*
X10493375Y-11978500D02*
X10493375Y-12278500D01*
X10343375Y-12128500D02*
X10643375Y-12128500D01*
X10343375Y-13883500D02*
X10643375Y-14183500D01*
X10643375Y-13883500D02*
X10343375Y-14183500D01*
X10493375Y-13883500D02*
X10493375Y-14183500D01*
X10343375Y-14033500D02*
X10643375Y-14033500D01*
X10978375Y-7914500D02*
X11278375Y-8214500D01*
X11278375Y-7914500D02*
X10978375Y-8214500D01*
X11128375Y-7914500D02*
X11128375Y-8214500D01*
X10978375Y-8064500D02*
X11278375Y-8064500D01*
X10978375Y-9819500D02*
X11278375Y-10119500D01*
X11278375Y-9819500D02*
X10978375Y-10119500D01*
X11128375Y-9819500D02*
X11128375Y-10119500D01*
X10978375Y-9969500D02*
X11278375Y-9969500D01*
X10978375Y-11724500D02*
X11278375Y-12024500D01*
X11278375Y-11724500D02*
X10978375Y-12024500D01*
X11128375Y-11724500D02*
X11128375Y-12024500D01*
X10978375Y-11874500D02*
X11278375Y-11874500D01*
X10978375Y-13629500D02*
X11278375Y-13929500D01*
X11278375Y-13629500D02*
X10978375Y-13929500D01*
X11128375Y-13629500D02*
X11128375Y-13929500D01*
X10978375Y-13779500D02*
X11278375Y-13779500D01*
X12121375Y-11026000D02*
X12421375Y-11326000D01*
X12421375Y-11026000D02*
X12121375Y-11326000D01*
X12271375Y-11026000D02*
X12271375Y-11326000D01*
X12121375Y-11176000D02*
X12421375Y-11176000D01*
X12248375Y-8168500D02*
X12548375Y-8468500D01*
X12548375Y-8168500D02*
X12248375Y-8468500D01*
X12398375Y-8168500D02*
X12398375Y-8468500D01*
X12248375Y-8318500D02*
X12548375Y-8318500D01*
X12375375Y-11661000D02*
X12675375Y-11961000D01*
X12675375Y-11661000D02*
X12375375Y-11961000D01*
X12525375Y-11661000D02*
X12525375Y-11961000D01*
X12375375Y-11811000D02*
X12675375Y-11811000D01*
X12883375Y-7914500D02*
X13183375Y-8214500D01*
X13183375Y-7914500D02*
X12883375Y-8214500D01*
X13033375Y-7914500D02*
X13033375Y-8214500D01*
X12883375Y-8064500D02*
X13183375Y-8064500D01*
X4959375Y-8372500D02*
X5359375Y-8772500D01*
X5359375Y-8372500D02*
X4959375Y-8772500D01*
X5300798Y-8713923D02*
X5300798Y-8431077D01*
X5017952Y-8431077D01*
X5017952Y-8713923D01*
X5300798Y-8713923D01*
X4959375Y-10277500D02*
X5359375Y-10677500D01*
X5359375Y-10277500D02*
X4959375Y-10677500D01*
X5300798Y-10618923D02*
X5300798Y-10336077D01*
X5017952Y-10336077D01*
X5017952Y-10618923D01*
X5300798Y-10618923D01*
X4959375Y-12182500D02*
X5359375Y-12582500D01*
X5359375Y-12182500D02*
X4959375Y-12582500D01*
X5300798Y-12523923D02*
X5300798Y-12241077D01*
X5017952Y-12241077D01*
X5017952Y-12523923D01*
X5300798Y-12523923D01*
X4959375Y-14087500D02*
X5359375Y-14487500D01*
X5359375Y-14087500D02*
X4959375Y-14487500D01*
X5300798Y-14428923D02*
X5300798Y-14146077D01*
X5017952Y-14146077D01*
X5017952Y-14428923D01*
X5300798Y-14428923D01*
X6864375Y-8372500D02*
X7264375Y-8772500D01*
X7264375Y-8372500D02*
X6864375Y-8772500D01*
X7205798Y-8713923D02*
X7205798Y-8431077D01*
X6922952Y-8431077D01*
X6922952Y-8713923D01*
X7205798Y-8713923D01*
X6864375Y-10277500D02*
X7264375Y-10677500D01*
X7264375Y-10277500D02*
X6864375Y-10677500D01*
X7205798Y-10618923D02*
X7205798Y-10336077D01*
X6922952Y-10336077D01*
X6922952Y-10618923D01*
X7205798Y-10618923D01*
X6864375Y-12182500D02*
X7264375Y-12582500D01*
X7264375Y-12182500D02*
X6864375Y-12582500D01*
X7205798Y-12523923D02*
X7205798Y-12241077D01*
X6922952Y-12241077D01*
X6922952Y-12523923D01*
X7205798Y-12523923D01*
X6864375Y-14087500D02*
X7264375Y-14487500D01*
X7264375Y-14087500D02*
X6864375Y-14487500D01*
X7205798Y-14428923D02*
X7205798Y-14146077D01*
X6922952Y-14146077D01*
X6922952Y-14428923D01*
X7205798Y-14428923D01*
X8769375Y-8372500D02*
X9169375Y-8772500D01*
X9169375Y-8372500D02*
X8769375Y-8772500D01*
X9110798Y-8713923D02*
X9110798Y-8431077D01*
X8827952Y-8431077D01*
X8827952Y-8713923D01*
X9110798Y-8713923D01*
X8769375Y-10277500D02*
X9169375Y-10677500D01*
X9169375Y-10277500D02*
X8769375Y-10677500D01*
X9110798Y-10618923D02*
X9110798Y-10336077D01*
X8827952Y-10336077D01*
X8827952Y-10618923D01*
X9110798Y-10618923D01*
X8769375Y-12182500D02*
X9169375Y-12582500D01*
X9169375Y-12182500D02*
X8769375Y-12582500D01*
X9110798Y-12523923D02*
X9110798Y-12241077D01*
X8827952Y-12241077D01*
X8827952Y-12523923D01*
X9110798Y-12523923D01*
X8769375Y-14087500D02*
X9169375Y-14487500D01*
X9169375Y-14087500D02*
X8769375Y-14487500D01*
X9110798Y-14428923D02*
X9110798Y-14146077D01*
X8827952Y-14146077D01*
X8827952Y-14428923D01*
X9110798Y-14428923D01*
X10674375Y-8372500D02*
X11074375Y-8772500D01*
X11074375Y-8372500D02*
X10674375Y-8772500D01*
X11015798Y-8713923D02*
X11015798Y-8431077D01*
X10732952Y-8431077D01*
X10732952Y-8713923D01*
X11015798Y-8713923D01*
X10674375Y-10277500D02*
X11074375Y-10677500D01*
X11074375Y-10277500D02*
X10674375Y-10677500D01*
X11015798Y-10618923D02*
X11015798Y-10336077D01*
X10732952Y-10336077D01*
X10732952Y-10618923D01*
X11015798Y-10618923D01*
X10674375Y-12182500D02*
X11074375Y-12582500D01*
X11074375Y-12182500D02*
X10674375Y-12582500D01*
X11015798Y-12523923D02*
X11015798Y-12241077D01*
X10732952Y-12241077D01*
X10732952Y-12523923D01*
X11015798Y-12523923D01*
X10674375Y-14087500D02*
X11074375Y-14487500D01*
X11074375Y-14087500D02*
X10674375Y-14487500D01*
X11015798Y-14428923D02*
X11015798Y-14146077D01*
X10732952Y-14146077D01*
X10732952Y-14428923D01*
X11015798Y-14428923D01*
X12579375Y-8372500D02*
X12979375Y-8772500D01*
X12979375Y-8372500D02*
X12579375Y-8772500D01*
X12920798Y-8713923D02*
X12920798Y-8431077D01*
X12637952Y-8431077D01*
X12637952Y-8713923D01*
X12920798Y-8713923D01*
X12579375Y-11230000D02*
X12979375Y-11630000D01*
X12979375Y-11230000D02*
X12579375Y-11630000D01*
X12920798Y-11571423D02*
X12920798Y-11288577D01*
X12637952Y-11288577D01*
X12637952Y-11571423D01*
X12920798Y-11571423D01*
D12*
X4335803Y-15663214D02*
X4335803Y-15363214D01*
X4407232Y-15363214D01*
X4450089Y-15377500D01*
X4478661Y-15406071D01*
X4492946Y-15434643D01*
X4507232Y-15491786D01*
X4507232Y-15534643D01*
X4492946Y-15591786D01*
X4478661Y-15620357D01*
X4450089Y-15648929D01*
X4407232Y-15663214D01*
X4335803Y-15663214D01*
X4635803Y-15663214D02*
X4635803Y-15463214D01*
X4635803Y-15520357D02*
X4650089Y-15491786D01*
X4664375Y-15477500D01*
X4692946Y-15463214D01*
X4721518Y-15463214D01*
X4821518Y-15663214D02*
X4821518Y-15463214D01*
X4821518Y-15363214D02*
X4807232Y-15377500D01*
X4821518Y-15391786D01*
X4835803Y-15377500D01*
X4821518Y-15363214D01*
X4821518Y-15391786D01*
X5007232Y-15663214D02*
X4978661Y-15648929D01*
X4964375Y-15620357D01*
X4964375Y-15363214D01*
X5164375Y-15663214D02*
X5135803Y-15648929D01*
X5121518Y-15620357D01*
X5121518Y-15363214D01*
X5507232Y-15663214D02*
X5507232Y-15363214D01*
X5607232Y-15577500D01*
X5707232Y-15363214D01*
X5707232Y-15663214D01*
X5978661Y-15663214D02*
X5978661Y-15506071D01*
X5964375Y-15477500D01*
X5935803Y-15463214D01*
X5878661Y-15463214D01*
X5850089Y-15477500D01*
X5978661Y-15648929D02*
X5950089Y-15663214D01*
X5878661Y-15663214D01*
X5850089Y-15648929D01*
X5835803Y-15620357D01*
X5835803Y-15591786D01*
X5850089Y-15563214D01*
X5878661Y-15548929D01*
X5950089Y-15548929D01*
X5978661Y-15534643D01*
X6121518Y-15463214D02*
X6121518Y-15763214D01*
X6121518Y-15477500D02*
X6150089Y-15463214D01*
X6207232Y-15463214D01*
X6235803Y-15477500D01*
X6250089Y-15491786D01*
X6264375Y-15520357D01*
X6264375Y-15606071D01*
X6250089Y-15634643D01*
X6235803Y-15648929D01*
X6207232Y-15663214D01*
X6150089Y-15663214D01*
X6121518Y-15648929D01*
X6392946Y-15634643D02*
X6407232Y-15648929D01*
X6392946Y-15663214D01*
X6378661Y-15648929D01*
X6392946Y-15634643D01*
X6392946Y-15663214D01*
X6392946Y-15477500D02*
X6407232Y-15491786D01*
X6392946Y-15506071D01*
X6378661Y-15491786D01*
X6392946Y-15477500D01*
X6392946Y-15506071D01*
X4009375Y-16137500D02*
X4049375Y-16177500D01*
X4049375Y-16137500D02*
X4009375Y-16177500D01*
X4392946Y-15993214D02*
X4421518Y-15993214D01*
X4450089Y-16007500D01*
X4464375Y-16021786D01*
X4478661Y-16050357D01*
X4492946Y-16107500D01*
X4492946Y-16178929D01*
X4478661Y-16236071D01*
X4464375Y-16264643D01*
X4450089Y-16278929D01*
X4421518Y-16293214D01*
X4392946Y-16293214D01*
X4364375Y-16278929D01*
X4350089Y-16264643D01*
X4335803Y-16236071D01*
X4321518Y-16178929D01*
X4321518Y-16107500D01*
X4335803Y-16050357D01*
X4350089Y-16021786D01*
X4364375Y-16007500D01*
X4392946Y-15993214D01*
X4621518Y-16264643D02*
X4635803Y-16278929D01*
X4621518Y-16293214D01*
X4607232Y-16278929D01*
X4621518Y-16264643D01*
X4621518Y-16293214D01*
X4892946Y-16093214D02*
X4892946Y-16293214D01*
X4821518Y-15978929D02*
X4750089Y-16193214D01*
X4935803Y-16193214D01*
X5107232Y-15993214D02*
X5135803Y-15993214D01*
X5164375Y-16007500D01*
X5178661Y-16021786D01*
X5192946Y-16050357D01*
X5207232Y-16107500D01*
X5207232Y-16178929D01*
X5192946Y-16236071D01*
X5178661Y-16264643D01*
X5164375Y-16278929D01*
X5135803Y-16293214D01*
X5107232Y-16293214D01*
X5078661Y-16278929D01*
X5064375Y-16264643D01*
X5050089Y-16236071D01*
X5035803Y-16178929D01*
X5035803Y-16107500D01*
X5050089Y-16050357D01*
X5064375Y-16021786D01*
X5078661Y-16007500D01*
X5107232Y-15993214D01*
X5392946Y-15993214D02*
X5421518Y-15993214D01*
X5450089Y-16007500D01*
X5464375Y-16021786D01*
X5478661Y-16050357D01*
X5492946Y-16107500D01*
X5492946Y-16178929D01*
X5478661Y-16236071D01*
X5464375Y-16264643D01*
X5450089Y-16278929D01*
X5421518Y-16293214D01*
X5392946Y-16293214D01*
X5364375Y-16278929D01*
X5350089Y-16264643D01*
X5335803Y-16236071D01*
X5321518Y-16178929D01*
X5321518Y-16107500D01*
X5335803Y-16050357D01*
X5350089Y-16021786D01*
X5364375Y-16007500D01*
X5392946Y-15993214D01*
X5621518Y-16293214D02*
X5621518Y-16093214D01*
X5621518Y-16121786D02*
X5635803Y-16107500D01*
X5664375Y-16093214D01*
X5707232Y-16093214D01*
X5735803Y-16107500D01*
X5750089Y-16136071D01*
X5750089Y-16293214D01*
X5750089Y-16136071D02*
X5764375Y-16107500D01*
X5792946Y-16093214D01*
X5835803Y-16093214D01*
X5864375Y-16107500D01*
X5878661Y-16136071D01*
X5878661Y-16293214D01*
X6021518Y-16293214D02*
X6021518Y-16093214D01*
X6021518Y-16121786D02*
X6035803Y-16107500D01*
X6064375Y-16093214D01*
X6107232Y-16093214D01*
X6135803Y-16107500D01*
X6150089Y-16136071D01*
X6150089Y-16293214D01*
X6150089Y-16136071D02*
X6164375Y-16107500D01*
X6192946Y-16093214D01*
X6235803Y-16093214D01*
X6264375Y-16107500D01*
X6278661Y-16136071D01*
X6278661Y-16293214D01*
X6864375Y-15978929D02*
X6607232Y-16364643D01*
X7250089Y-15993214D02*
X7278661Y-15993214D01*
X7307232Y-16007500D01*
X7321518Y-16021786D01*
X7335803Y-16050357D01*
X7350089Y-16107500D01*
X7350089Y-16178929D01*
X7335803Y-16236071D01*
X7321518Y-16264643D01*
X7307232Y-16278929D01*
X7278661Y-16293214D01*
X7250089Y-16293214D01*
X7221518Y-16278929D01*
X7207232Y-16264643D01*
X7192946Y-16236071D01*
X7178661Y-16178929D01*
X7178661Y-16107500D01*
X7192946Y-16050357D01*
X7207232Y-16021786D01*
X7221518Y-16007500D01*
X7250089Y-15993214D01*
X7478661Y-16264643D02*
X7492946Y-16278929D01*
X7478661Y-16293214D01*
X7464375Y-16278929D01*
X7478661Y-16264643D01*
X7478661Y-16293214D01*
X7678661Y-15993214D02*
X7707232Y-15993214D01*
X7735803Y-16007500D01*
X7750089Y-16021786D01*
X7764375Y-16050357D01*
X7778661Y-16107500D01*
X7778661Y-16178929D01*
X7764375Y-16236071D01*
X7750089Y-16264643D01*
X7735803Y-16278929D01*
X7707232Y-16293214D01*
X7678661Y-16293214D01*
X7650089Y-16278929D01*
X7635803Y-16264643D01*
X7621518Y-16236071D01*
X7607232Y-16178929D01*
X7607232Y-16107500D01*
X7621518Y-16050357D01*
X7635803Y-16021786D01*
X7650089Y-16007500D01*
X7678661Y-15993214D01*
X8064375Y-16293214D02*
X7892946Y-16293214D01*
X7978661Y-16293214D02*
X7978661Y-15993214D01*
X7950089Y-16036071D01*
X7921518Y-16064643D01*
X7892946Y-16078929D01*
X8335803Y-15993214D02*
X8192946Y-15993214D01*
X8178661Y-16136071D01*
X8192946Y-16121786D01*
X8221518Y-16107500D01*
X8292946Y-16107500D01*
X8321518Y-16121786D01*
X8335803Y-16136071D01*
X8350089Y-16164643D01*
X8350089Y-16236071D01*
X8335803Y-16264643D01*
X8321518Y-16278929D01*
X8292946Y-16293214D01*
X8221518Y-16293214D01*
X8192946Y-16278929D01*
X8178661Y-16264643D01*
X8450089Y-15993214D02*
X8650089Y-15993214D01*
X8521518Y-16293214D01*
X8750089Y-15993214D02*
X8750089Y-16050357D01*
X8864375Y-15993214D02*
X8864375Y-16050357D01*
X9307232Y-16407500D02*
X9292946Y-16393214D01*
X9264375Y-16350357D01*
X9250089Y-16321786D01*
X9235803Y-16278929D01*
X9221518Y-16207500D01*
X9221518Y-16150357D01*
X9235803Y-16078929D01*
X9250089Y-16036071D01*
X9264375Y-16007500D01*
X9292946Y-15964643D01*
X9307232Y-15950357D01*
X9578661Y-16293214D02*
X9407232Y-16293214D01*
X9492946Y-16293214D02*
X9492946Y-15993214D01*
X9464375Y-16036071D01*
X9435803Y-16064643D01*
X9407232Y-16078929D01*
X9678661Y-15993214D02*
X9864375Y-15993214D01*
X9764375Y-16107500D01*
X9807232Y-16107500D01*
X9835803Y-16121786D01*
X9850089Y-16136071D01*
X9864375Y-16164643D01*
X9864375Y-16236071D01*
X9850089Y-16264643D01*
X9835803Y-16278929D01*
X9807232Y-16293214D01*
X9721518Y-16293214D01*
X9692946Y-16278929D01*
X9678661Y-16264643D01*
X10050089Y-15993214D02*
X10078661Y-15993214D01*
X10107232Y-16007500D01*
X10121518Y-16021786D01*
X10135803Y-16050357D01*
X10150089Y-16107500D01*
X10150089Y-16178929D01*
X10135803Y-16236071D01*
X10121518Y-16264643D01*
X10107232Y-16278929D01*
X10078661Y-16293214D01*
X10050089Y-16293214D01*
X10021518Y-16278929D01*
X10007232Y-16264643D01*
X9992946Y-16236071D01*
X9978661Y-16178929D01*
X9978661Y-16107500D01*
X9992946Y-16050357D01*
X10007232Y-16021786D01*
X10021518Y-16007500D01*
X10050089Y-15993214D01*
X10507232Y-16293214D02*
X10507232Y-15993214D01*
X10635803Y-16293214D02*
X10635803Y-16136071D01*
X10621518Y-16107500D01*
X10592946Y-16093214D01*
X10550089Y-16093214D01*
X10521518Y-16107500D01*
X10507232Y-16121786D01*
X10821518Y-16293214D02*
X10792946Y-16278929D01*
X10778661Y-16264643D01*
X10764375Y-16236071D01*
X10764375Y-16150357D01*
X10778661Y-16121786D01*
X10792946Y-16107500D01*
X10821518Y-16093214D01*
X10864375Y-16093214D01*
X10892946Y-16107500D01*
X10907232Y-16121786D01*
X10921518Y-16150357D01*
X10921518Y-16236071D01*
X10907232Y-16264643D01*
X10892946Y-16278929D01*
X10864375Y-16293214D01*
X10821518Y-16293214D01*
X11092946Y-16293214D02*
X11064375Y-16278929D01*
X11050089Y-16250357D01*
X11050089Y-15993214D01*
X11321518Y-16278929D02*
X11292946Y-16293214D01*
X11235803Y-16293214D01*
X11207232Y-16278929D01*
X11192946Y-16250357D01*
X11192946Y-16136071D01*
X11207232Y-16107500D01*
X11235803Y-16093214D01*
X11292946Y-16093214D01*
X11321518Y-16107500D01*
X11335803Y-16136071D01*
X11335803Y-16164643D01*
X11192946Y-16193214D01*
X11450089Y-16278929D02*
X11478661Y-16293214D01*
X11535803Y-16293214D01*
X11564375Y-16278929D01*
X11578661Y-16250357D01*
X11578661Y-16236071D01*
X11564375Y-16207500D01*
X11535803Y-16193214D01*
X11492946Y-16193214D01*
X11464375Y-16178929D01*
X11450089Y-16150357D01*
X11450089Y-16136071D01*
X11464375Y-16107500D01*
X11492946Y-16093214D01*
X11535803Y-16093214D01*
X11564375Y-16107500D01*
X11678661Y-16407500D02*
X11692946Y-16393214D01*
X11721518Y-16350357D01*
X11735803Y-16321786D01*
X11750089Y-16278929D01*
X11764375Y-16207500D01*
X11764375Y-16150357D01*
X11750089Y-16078929D01*
X11735803Y-16036071D01*
X11721518Y-16007500D01*
X11692946Y-15964643D01*
X11678661Y-15950357D01*
X4049375Y-16553500D02*
G75*
G03*
X4049375Y-16553500I-25000J0D01*
G01*
X4392946Y-16389214D02*
X4421518Y-16389214D01*
X4450089Y-16403500D01*
X4464375Y-16417786D01*
X4478661Y-16446357D01*
X4492946Y-16503500D01*
X4492946Y-16574929D01*
X4478661Y-16632071D01*
X4464375Y-16660643D01*
X4450089Y-16674929D01*
X4421518Y-16689214D01*
X4392946Y-16689214D01*
X4364375Y-16674929D01*
X4350089Y-16660643D01*
X4335803Y-16632071D01*
X4321518Y-16574929D01*
X4321518Y-16503500D01*
X4335803Y-16446357D01*
X4350089Y-16417786D01*
X4364375Y-16403500D01*
X4392946Y-16389214D01*
X4621518Y-16660643D02*
X4635803Y-16674929D01*
X4621518Y-16689214D01*
X4607232Y-16674929D01*
X4621518Y-16660643D01*
X4621518Y-16689214D01*
X4907232Y-16389214D02*
X4764375Y-16389214D01*
X4750089Y-16532071D01*
X4764375Y-16517786D01*
X4792946Y-16503500D01*
X4864375Y-16503500D01*
X4892946Y-16517786D01*
X4907232Y-16532071D01*
X4921518Y-16560643D01*
X4921518Y-16632071D01*
X4907232Y-16660643D01*
X4892946Y-16674929D01*
X4864375Y-16689214D01*
X4792946Y-16689214D01*
X4764375Y-16674929D01*
X4750089Y-16660643D01*
X5107232Y-16389214D02*
X5135803Y-16389214D01*
X5164375Y-16403500D01*
X5178661Y-16417786D01*
X5192946Y-16446357D01*
X5207232Y-16503500D01*
X5207232Y-16574929D01*
X5192946Y-16632071D01*
X5178661Y-16660643D01*
X5164375Y-16674929D01*
X5135803Y-16689214D01*
X5107232Y-16689214D01*
X5078661Y-16674929D01*
X5064375Y-16660643D01*
X5050089Y-16632071D01*
X5035803Y-16574929D01*
X5035803Y-16503500D01*
X5050089Y-16446357D01*
X5064375Y-16417786D01*
X5078661Y-16403500D01*
X5107232Y-16389214D01*
X5392946Y-16389214D02*
X5421518Y-16389214D01*
X5450089Y-16403500D01*
X5464375Y-16417786D01*
X5478661Y-16446357D01*
X5492946Y-16503500D01*
X5492946Y-16574929D01*
X5478661Y-16632071D01*
X5464375Y-16660643D01*
X5450089Y-16674929D01*
X5421518Y-16689214D01*
X5392946Y-16689214D01*
X5364375Y-16674929D01*
X5350089Y-16660643D01*
X5335803Y-16632071D01*
X5321518Y-16574929D01*
X5321518Y-16503500D01*
X5335803Y-16446357D01*
X5350089Y-16417786D01*
X5364375Y-16403500D01*
X5392946Y-16389214D01*
X5621518Y-16689214D02*
X5621518Y-16489214D01*
X5621518Y-16517786D02*
X5635803Y-16503500D01*
X5664375Y-16489214D01*
X5707232Y-16489214D01*
X5735803Y-16503500D01*
X5750089Y-16532071D01*
X5750089Y-16689214D01*
X5750089Y-16532071D02*
X5764375Y-16503500D01*
X5792946Y-16489214D01*
X5835803Y-16489214D01*
X5864375Y-16503500D01*
X5878661Y-16532071D01*
X5878661Y-16689214D01*
X6021518Y-16689214D02*
X6021518Y-16489214D01*
X6021518Y-16517786D02*
X6035803Y-16503500D01*
X6064375Y-16489214D01*
X6107232Y-16489214D01*
X6135803Y-16503500D01*
X6150089Y-16532071D01*
X6150089Y-16689214D01*
X6150089Y-16532071D02*
X6164375Y-16503500D01*
X6192946Y-16489214D01*
X6235803Y-16489214D01*
X6264375Y-16503500D01*
X6278661Y-16532071D01*
X6278661Y-16689214D01*
X6864375Y-16374929D02*
X6607232Y-16760643D01*
X7250089Y-16389214D02*
X7278661Y-16389214D01*
X7307232Y-16403500D01*
X7321518Y-16417786D01*
X7335803Y-16446357D01*
X7350089Y-16503500D01*
X7350089Y-16574929D01*
X7335803Y-16632071D01*
X7321518Y-16660643D01*
X7307232Y-16674929D01*
X7278661Y-16689214D01*
X7250089Y-16689214D01*
X7221518Y-16674929D01*
X7207232Y-16660643D01*
X7192946Y-16632071D01*
X7178661Y-16574929D01*
X7178661Y-16503500D01*
X7192946Y-16446357D01*
X7207232Y-16417786D01*
X7221518Y-16403500D01*
X7250089Y-16389214D01*
X7478661Y-16660643D02*
X7492946Y-16674929D01*
X7478661Y-16689214D01*
X7464375Y-16674929D01*
X7478661Y-16660643D01*
X7478661Y-16689214D01*
X7678661Y-16389214D02*
X7707232Y-16389214D01*
X7735803Y-16403500D01*
X7750089Y-16417786D01*
X7764375Y-16446357D01*
X7778661Y-16503500D01*
X7778661Y-16574929D01*
X7764375Y-16632071D01*
X7750089Y-16660643D01*
X7735803Y-16674929D01*
X7707232Y-16689214D01*
X7678661Y-16689214D01*
X7650089Y-16674929D01*
X7635803Y-16660643D01*
X7621518Y-16632071D01*
X7607232Y-16574929D01*
X7607232Y-16503500D01*
X7621518Y-16446357D01*
X7635803Y-16417786D01*
X7650089Y-16403500D01*
X7678661Y-16389214D01*
X8064375Y-16689214D02*
X7892946Y-16689214D01*
X7978661Y-16689214D02*
X7978661Y-16389214D01*
X7950089Y-16432071D01*
X7921518Y-16460643D01*
X7892946Y-16474929D01*
X8207232Y-16689214D02*
X8264375Y-16689214D01*
X8292946Y-16674929D01*
X8307232Y-16660643D01*
X8335803Y-16617786D01*
X8350089Y-16560643D01*
X8350089Y-16446357D01*
X8335803Y-16417786D01*
X8321518Y-16403500D01*
X8292946Y-16389214D01*
X8235803Y-16389214D01*
X8207232Y-16403500D01*
X8192946Y-16417786D01*
X8178661Y-16446357D01*
X8178661Y-16517786D01*
X8192946Y-16546357D01*
X8207232Y-16560643D01*
X8235803Y-16574929D01*
X8292946Y-16574929D01*
X8321518Y-16560643D01*
X8335803Y-16546357D01*
X8350089Y-16517786D01*
X8450089Y-16389214D02*
X8650089Y-16389214D01*
X8521518Y-16689214D01*
X8750089Y-16389214D02*
X8750089Y-16446357D01*
X8864375Y-16389214D02*
X8864375Y-16446357D01*
X9307232Y-16803500D02*
X9292946Y-16789214D01*
X9264375Y-16746357D01*
X9250089Y-16717786D01*
X9235803Y-16674929D01*
X9221518Y-16603500D01*
X9221518Y-16546357D01*
X9235803Y-16474929D01*
X9250089Y-16432071D01*
X9264375Y-16403500D01*
X9292946Y-16360643D01*
X9307232Y-16346357D01*
X9578661Y-16689214D02*
X9407232Y-16689214D01*
X9492946Y-16689214D02*
X9492946Y-16389214D01*
X9464375Y-16432071D01*
X9435803Y-16460643D01*
X9407232Y-16474929D01*
X9692946Y-16417786D02*
X9707232Y-16403500D01*
X9735803Y-16389214D01*
X9807232Y-16389214D01*
X9835803Y-16403500D01*
X9850089Y-16417786D01*
X9864375Y-16446357D01*
X9864375Y-16474929D01*
X9850089Y-16517786D01*
X9678661Y-16689214D01*
X9864375Y-16689214D01*
X10007232Y-16689214D02*
X10064375Y-16689214D01*
X10092946Y-16674929D01*
X10107232Y-16660643D01*
X10135803Y-16617786D01*
X10150089Y-16560643D01*
X10150089Y-16446357D01*
X10135803Y-16417786D01*
X10121518Y-16403500D01*
X10092946Y-16389214D01*
X10035803Y-16389214D01*
X10007232Y-16403500D01*
X9992946Y-16417786D01*
X9978661Y-16446357D01*
X9978661Y-16517786D01*
X9992946Y-16546357D01*
X10007232Y-16560643D01*
X10035803Y-16574929D01*
X10092946Y-16574929D01*
X10121518Y-16560643D01*
X10135803Y-16546357D01*
X10150089Y-16517786D01*
X10507232Y-16689214D02*
X10507232Y-16389214D01*
X10635803Y-16689214D02*
X10635803Y-16532071D01*
X10621518Y-16503500D01*
X10592946Y-16489214D01*
X10550089Y-16489214D01*
X10521518Y-16503500D01*
X10507232Y-16517786D01*
X10821518Y-16689214D02*
X10792946Y-16674929D01*
X10778661Y-16660643D01*
X10764375Y-16632071D01*
X10764375Y-16546357D01*
X10778661Y-16517786D01*
X10792946Y-16503500D01*
X10821518Y-16489214D01*
X10864375Y-16489214D01*
X10892946Y-16503500D01*
X10907232Y-16517786D01*
X10921518Y-16546357D01*
X10921518Y-16632071D01*
X10907232Y-16660643D01*
X10892946Y-16674929D01*
X10864375Y-16689214D01*
X10821518Y-16689214D01*
X11092946Y-16689214D02*
X11064375Y-16674929D01*
X11050089Y-16646357D01*
X11050089Y-16389214D01*
X11321518Y-16674929D02*
X11292946Y-16689214D01*
X11235803Y-16689214D01*
X11207232Y-16674929D01*
X11192946Y-16646357D01*
X11192946Y-16532071D01*
X11207232Y-16503500D01*
X11235803Y-16489214D01*
X11292946Y-16489214D01*
X11321518Y-16503500D01*
X11335803Y-16532071D01*
X11335803Y-16560643D01*
X11192946Y-16589214D01*
X11450089Y-16674929D02*
X11478661Y-16689214D01*
X11535803Y-16689214D01*
X11564375Y-16674929D01*
X11578661Y-16646357D01*
X11578661Y-16632071D01*
X11564375Y-16603500D01*
X11535803Y-16589214D01*
X11492946Y-16589214D01*
X11464375Y-16574929D01*
X11450089Y-16546357D01*
X11450089Y-16532071D01*
X11464375Y-16503500D01*
X11492946Y-16489214D01*
X11535803Y-16489214D01*
X11564375Y-16503500D01*
X11678661Y-16803500D02*
X11692946Y-16789214D01*
X11721518Y-16746357D01*
X11735803Y-16717786D01*
X11750089Y-16674929D01*
X11764375Y-16603500D01*
X11764375Y-16546357D01*
X11750089Y-16474929D01*
X11735803Y-16432071D01*
X11721518Y-16403500D01*
X11692946Y-16360643D01*
X11678661Y-16346357D01*
X4009375Y-16909500D02*
X4009375Y-16989500D01*
X3969375Y-16949500D02*
X4049375Y-16949500D01*
X4392946Y-16785214D02*
X4421518Y-16785214D01*
X4450089Y-16799500D01*
X4464375Y-16813786D01*
X4478661Y-16842357D01*
X4492946Y-16899500D01*
X4492946Y-16970929D01*
X4478661Y-17028072D01*
X4464375Y-17056643D01*
X4450089Y-17070929D01*
X4421518Y-17085214D01*
X4392946Y-17085214D01*
X4364375Y-17070929D01*
X4350089Y-17056643D01*
X4335803Y-17028072D01*
X4321518Y-16970929D01*
X4321518Y-16899500D01*
X4335803Y-16842357D01*
X4350089Y-16813786D01*
X4364375Y-16799500D01*
X4392946Y-16785214D01*
X4621518Y-17056643D02*
X4635803Y-17070929D01*
X4621518Y-17085214D01*
X4607232Y-17070929D01*
X4621518Y-17056643D01*
X4621518Y-17085214D01*
X4807232Y-16913786D02*
X4778661Y-16899500D01*
X4764375Y-16885214D01*
X4750089Y-16856643D01*
X4750089Y-16842357D01*
X4764375Y-16813786D01*
X4778661Y-16799500D01*
X4807232Y-16785214D01*
X4864375Y-16785214D01*
X4892946Y-16799500D01*
X4907232Y-16813786D01*
X4921518Y-16842357D01*
X4921518Y-16856643D01*
X4907232Y-16885214D01*
X4892946Y-16899500D01*
X4864375Y-16913786D01*
X4807232Y-16913786D01*
X4778661Y-16928072D01*
X4764375Y-16942357D01*
X4750089Y-16970929D01*
X4750089Y-17028072D01*
X4764375Y-17056643D01*
X4778661Y-17070929D01*
X4807232Y-17085214D01*
X4864375Y-17085214D01*
X4892946Y-17070929D01*
X4907232Y-17056643D01*
X4921518Y-17028072D01*
X4921518Y-16970929D01*
X4907232Y-16942357D01*
X4892946Y-16928072D01*
X4864375Y-16913786D01*
X5107232Y-16785214D02*
X5135803Y-16785214D01*
X5164375Y-16799500D01*
X5178661Y-16813786D01*
X5192946Y-16842357D01*
X5207232Y-16899500D01*
X5207232Y-16970929D01*
X5192946Y-17028072D01*
X5178661Y-17056643D01*
X5164375Y-17070929D01*
X5135803Y-17085214D01*
X5107232Y-17085214D01*
X5078661Y-17070929D01*
X5064375Y-17056643D01*
X5050089Y-17028072D01*
X5035803Y-16970929D01*
X5035803Y-16899500D01*
X5050089Y-16842357D01*
X5064375Y-16813786D01*
X5078661Y-16799500D01*
X5107232Y-16785214D01*
X5392946Y-16785214D02*
X5421518Y-16785214D01*
X5450089Y-16799500D01*
X5464375Y-16813786D01*
X5478661Y-16842357D01*
X5492946Y-16899500D01*
X5492946Y-16970929D01*
X5478661Y-17028072D01*
X5464375Y-17056643D01*
X5450089Y-17070929D01*
X5421518Y-17085214D01*
X5392946Y-17085214D01*
X5364375Y-17070929D01*
X5350089Y-17056643D01*
X5335803Y-17028072D01*
X5321518Y-16970929D01*
X5321518Y-16899500D01*
X5335803Y-16842357D01*
X5350089Y-16813786D01*
X5364375Y-16799500D01*
X5392946Y-16785214D01*
X5621518Y-17085214D02*
X5621518Y-16885214D01*
X5621518Y-16913786D02*
X5635803Y-16899500D01*
X5664375Y-16885214D01*
X5707232Y-16885214D01*
X5735803Y-16899500D01*
X5750089Y-16928072D01*
X5750089Y-17085214D01*
X5750089Y-16928072D02*
X5764375Y-16899500D01*
X5792946Y-16885214D01*
X5835803Y-16885214D01*
X5864375Y-16899500D01*
X5878661Y-16928072D01*
X5878661Y-17085214D01*
X6021518Y-17085214D02*
X6021518Y-16885214D01*
X6021518Y-16913786D02*
X6035803Y-16899500D01*
X6064375Y-16885214D01*
X6107232Y-16885214D01*
X6135803Y-16899500D01*
X6150089Y-16928072D01*
X6150089Y-17085214D01*
X6150089Y-16928072D02*
X6164375Y-16899500D01*
X6192946Y-16885214D01*
X6235803Y-16885214D01*
X6264375Y-16899500D01*
X6278661Y-16928072D01*
X6278661Y-17085214D01*
X6864375Y-16770929D02*
X6607232Y-17156643D01*
X7250089Y-16785214D02*
X7278661Y-16785214D01*
X7307232Y-16799500D01*
X7321518Y-16813786D01*
X7335803Y-16842357D01*
X7350089Y-16899500D01*
X7350089Y-16970929D01*
X7335803Y-17028072D01*
X7321518Y-17056643D01*
X7307232Y-17070929D01*
X7278661Y-17085214D01*
X7250089Y-17085214D01*
X7221518Y-17070929D01*
X7207232Y-17056643D01*
X7192946Y-17028072D01*
X7178661Y-16970929D01*
X7178661Y-16899500D01*
X7192946Y-16842357D01*
X7207232Y-16813786D01*
X7221518Y-16799500D01*
X7250089Y-16785214D01*
X7478661Y-17056643D02*
X7492946Y-17070929D01*
X7478661Y-17085214D01*
X7464375Y-17070929D01*
X7478661Y-17056643D01*
X7478661Y-17085214D01*
X7678661Y-16785214D02*
X7707232Y-16785214D01*
X7735803Y-16799500D01*
X7750089Y-16813786D01*
X7764375Y-16842357D01*
X7778661Y-16899500D01*
X7778661Y-16970929D01*
X7764375Y-17028072D01*
X7750089Y-17056643D01*
X7735803Y-17070929D01*
X7707232Y-17085214D01*
X7678661Y-17085214D01*
X7650089Y-17070929D01*
X7635803Y-17056643D01*
X7621518Y-17028072D01*
X7607232Y-16970929D01*
X7607232Y-16899500D01*
X7621518Y-16842357D01*
X7635803Y-16813786D01*
X7650089Y-16799500D01*
X7678661Y-16785214D01*
X7878661Y-16785214D02*
X8064375Y-16785214D01*
X7964375Y-16899500D01*
X8007232Y-16899500D01*
X8035803Y-16913786D01*
X8050089Y-16928072D01*
X8064375Y-16956643D01*
X8064375Y-17028072D01*
X8050089Y-17056643D01*
X8035803Y-17070929D01*
X8007232Y-17085214D01*
X7921518Y-17085214D01*
X7892946Y-17070929D01*
X7878661Y-17056643D01*
X8350089Y-17085214D02*
X8178661Y-17085214D01*
X8264375Y-17085214D02*
X8264375Y-16785214D01*
X8235803Y-16828072D01*
X8207232Y-16856643D01*
X8178661Y-16870929D01*
X8621518Y-16785214D02*
X8478661Y-16785214D01*
X8464375Y-16928072D01*
X8478661Y-16913786D01*
X8507232Y-16899500D01*
X8578661Y-16899500D01*
X8607232Y-16913786D01*
X8621518Y-16928072D01*
X8635803Y-16956643D01*
X8635803Y-17028072D01*
X8621518Y-17056643D01*
X8607232Y-17070929D01*
X8578661Y-17085214D01*
X8507232Y-17085214D01*
X8478661Y-17070929D01*
X8464375Y-17056643D01*
X8750089Y-16785214D02*
X8750089Y-16842357D01*
X8864375Y-16785214D02*
X8864375Y-16842357D01*
X9307232Y-17199500D02*
X9292946Y-17185214D01*
X9264375Y-17142357D01*
X9250089Y-17113786D01*
X9235803Y-17070929D01*
X9221518Y-16999500D01*
X9221518Y-16942357D01*
X9235803Y-16870929D01*
X9250089Y-16828072D01*
X9264375Y-16799500D01*
X9292946Y-16756643D01*
X9307232Y-16742357D01*
X9407232Y-16813786D02*
X9421518Y-16799500D01*
X9450089Y-16785214D01*
X9521518Y-16785214D01*
X9550089Y-16799500D01*
X9564375Y-16813786D01*
X9578661Y-16842357D01*
X9578661Y-16870929D01*
X9564375Y-16913786D01*
X9392946Y-17085214D01*
X9578661Y-17085214D01*
X9835803Y-16785214D02*
X9778661Y-16785214D01*
X9750089Y-16799500D01*
X9735803Y-16813786D01*
X9707232Y-16856643D01*
X9692946Y-16913786D01*
X9692946Y-17028072D01*
X9707232Y-17056643D01*
X9721518Y-17070929D01*
X9750089Y-17085214D01*
X9807232Y-17085214D01*
X9835803Y-17070929D01*
X9850089Y-17056643D01*
X9864375Y-17028072D01*
X9864375Y-16956643D01*
X9850089Y-16928072D01*
X9835803Y-16913786D01*
X9807232Y-16899500D01*
X9750089Y-16899500D01*
X9721518Y-16913786D01*
X9707232Y-16928072D01*
X9692946Y-16956643D01*
X10135803Y-16785214D02*
X9992946Y-16785214D01*
X9978661Y-16928072D01*
X9992946Y-16913786D01*
X10021518Y-16899500D01*
X10092946Y-16899500D01*
X10121518Y-16913786D01*
X10135803Y-16928072D01*
X10150089Y-16956643D01*
X10150089Y-17028072D01*
X10135803Y-17056643D01*
X10121518Y-17070929D01*
X10092946Y-17085214D01*
X10021518Y-17085214D01*
X9992946Y-17070929D01*
X9978661Y-17056643D01*
X10507232Y-17085214D02*
X10507232Y-16785214D01*
X10635803Y-17085214D02*
X10635803Y-16928072D01*
X10621518Y-16899500D01*
X10592946Y-16885214D01*
X10550089Y-16885214D01*
X10521518Y-16899500D01*
X10507232Y-16913786D01*
X10821518Y-17085214D02*
X10792946Y-17070929D01*
X10778661Y-17056643D01*
X10764375Y-17028072D01*
X10764375Y-16942357D01*
X10778661Y-16913786D01*
X10792946Y-16899500D01*
X10821518Y-16885214D01*
X10864375Y-16885214D01*
X10892946Y-16899500D01*
X10907232Y-16913786D01*
X10921518Y-16942357D01*
X10921518Y-17028072D01*
X10907232Y-17056643D01*
X10892946Y-17070929D01*
X10864375Y-17085214D01*
X10821518Y-17085214D01*
X11092946Y-17085214D02*
X11064375Y-17070929D01*
X11050089Y-17042357D01*
X11050089Y-16785214D01*
X11321518Y-17070929D02*
X11292946Y-17085214D01*
X11235803Y-17085214D01*
X11207232Y-17070929D01*
X11192946Y-17042357D01*
X11192946Y-16928072D01*
X11207232Y-16899500D01*
X11235803Y-16885214D01*
X11292946Y-16885214D01*
X11321518Y-16899500D01*
X11335803Y-16928072D01*
X11335803Y-16956643D01*
X11192946Y-16985214D01*
X11450089Y-17070929D02*
X11478661Y-17085214D01*
X11535803Y-17085214D01*
X11564375Y-17070929D01*
X11578661Y-17042357D01*
X11578661Y-17028072D01*
X11564375Y-16999500D01*
X11535803Y-16985214D01*
X11492946Y-16985214D01*
X11464375Y-16970929D01*
X11450089Y-16942357D01*
X11450089Y-16928072D01*
X11464375Y-16899500D01*
X11492946Y-16885214D01*
X11535803Y-16885214D01*
X11564375Y-16899500D01*
X11678661Y-17199500D02*
X11692946Y-17185214D01*
X11721518Y-17142357D01*
X11735803Y-17113786D01*
X11750089Y-17070929D01*
X11764375Y-16999500D01*
X11764375Y-16942357D01*
X11750089Y-16870929D01*
X11735803Y-16828072D01*
X11721518Y-16799500D01*
X11692946Y-16756643D01*
X11678661Y-16742357D01*
X4034731Y-17380856D02*
X4034731Y-17310144D01*
X3964019Y-17310144D01*
X3964019Y-17380856D01*
X4034731Y-17380856D01*
X4492946Y-17481214D02*
X4321518Y-17481214D01*
X4407232Y-17481214D02*
X4407232Y-17181214D01*
X4378661Y-17224072D01*
X4350089Y-17252643D01*
X4321518Y-17266929D01*
X4621518Y-17452643D02*
X4635803Y-17466929D01*
X4621518Y-17481214D01*
X4607232Y-17466929D01*
X4621518Y-17452643D01*
X4621518Y-17481214D01*
X4821518Y-17181214D02*
X4850089Y-17181214D01*
X4878661Y-17195500D01*
X4892946Y-17209786D01*
X4907232Y-17238357D01*
X4921518Y-17295500D01*
X4921518Y-17366929D01*
X4907232Y-17424072D01*
X4892946Y-17452643D01*
X4878661Y-17466929D01*
X4850089Y-17481214D01*
X4821518Y-17481214D01*
X4792946Y-17466929D01*
X4778661Y-17452643D01*
X4764375Y-17424072D01*
X4750089Y-17366929D01*
X4750089Y-17295500D01*
X4764375Y-17238357D01*
X4778661Y-17209786D01*
X4792946Y-17195500D01*
X4821518Y-17181214D01*
X5107232Y-17181214D02*
X5135803Y-17181214D01*
X5164375Y-17195500D01*
X5178661Y-17209786D01*
X5192946Y-17238357D01*
X5207232Y-17295500D01*
X5207232Y-17366929D01*
X5192946Y-17424072D01*
X5178661Y-17452643D01*
X5164375Y-17466929D01*
X5135803Y-17481214D01*
X5107232Y-17481214D01*
X5078661Y-17466929D01*
X5064375Y-17452643D01*
X5050089Y-17424072D01*
X5035803Y-17366929D01*
X5035803Y-17295500D01*
X5050089Y-17238357D01*
X5064375Y-17209786D01*
X5078661Y-17195500D01*
X5107232Y-17181214D01*
X5392946Y-17181214D02*
X5421518Y-17181214D01*
X5450089Y-17195500D01*
X5464375Y-17209786D01*
X5478661Y-17238357D01*
X5492946Y-17295500D01*
X5492946Y-17366929D01*
X5478661Y-17424072D01*
X5464375Y-17452643D01*
X5450089Y-17466929D01*
X5421518Y-17481214D01*
X5392946Y-17481214D01*
X5364375Y-17466929D01*
X5350089Y-17452643D01*
X5335803Y-17424072D01*
X5321518Y-17366929D01*
X5321518Y-17295500D01*
X5335803Y-17238357D01*
X5350089Y-17209786D01*
X5364375Y-17195500D01*
X5392946Y-17181214D01*
X5621518Y-17481214D02*
X5621518Y-17281214D01*
X5621518Y-17309786D02*
X5635803Y-17295500D01*
X5664375Y-17281214D01*
X5707232Y-17281214D01*
X5735803Y-17295500D01*
X5750089Y-17324072D01*
X5750089Y-17481214D01*
X5750089Y-17324072D02*
X5764375Y-17295500D01*
X5792946Y-17281214D01*
X5835803Y-17281214D01*
X5864375Y-17295500D01*
X5878661Y-17324072D01*
X5878661Y-17481214D01*
X6021518Y-17481214D02*
X6021518Y-17281214D01*
X6021518Y-17309786D02*
X6035803Y-17295500D01*
X6064375Y-17281214D01*
X6107232Y-17281214D01*
X6135803Y-17295500D01*
X6150089Y-17324072D01*
X6150089Y-17481214D01*
X6150089Y-17324072D02*
X6164375Y-17295500D01*
X6192946Y-17281214D01*
X6235803Y-17281214D01*
X6264375Y-17295500D01*
X6278661Y-17324072D01*
X6278661Y-17481214D01*
X6864375Y-17166929D02*
X6607232Y-17552643D01*
X7250089Y-17181214D02*
X7278661Y-17181214D01*
X7307232Y-17195500D01*
X7321518Y-17209786D01*
X7335803Y-17238357D01*
X7350089Y-17295500D01*
X7350089Y-17366929D01*
X7335803Y-17424072D01*
X7321518Y-17452643D01*
X7307232Y-17466929D01*
X7278661Y-17481214D01*
X7250089Y-17481214D01*
X7221518Y-17466929D01*
X7207232Y-17452643D01*
X7192946Y-17424072D01*
X7178661Y-17366929D01*
X7178661Y-17295500D01*
X7192946Y-17238357D01*
X7207232Y-17209786D01*
X7221518Y-17195500D01*
X7250089Y-17181214D01*
X7478661Y-17452643D02*
X7492946Y-17466929D01*
X7478661Y-17481214D01*
X7464375Y-17466929D01*
X7478661Y-17452643D01*
X7478661Y-17481214D01*
X7678661Y-17181214D02*
X7707232Y-17181214D01*
X7735803Y-17195500D01*
X7750089Y-17209786D01*
X7764375Y-17238357D01*
X7778661Y-17295500D01*
X7778661Y-17366929D01*
X7764375Y-17424072D01*
X7750089Y-17452643D01*
X7735803Y-17466929D01*
X7707232Y-17481214D01*
X7678661Y-17481214D01*
X7650089Y-17466929D01*
X7635803Y-17452643D01*
X7621518Y-17424072D01*
X7607232Y-17366929D01*
X7607232Y-17295500D01*
X7621518Y-17238357D01*
X7635803Y-17209786D01*
X7650089Y-17195500D01*
X7678661Y-17181214D01*
X7878661Y-17181214D02*
X8064375Y-17181214D01*
X7964375Y-17295500D01*
X8007232Y-17295500D01*
X8035803Y-17309786D01*
X8050089Y-17324072D01*
X8064375Y-17352643D01*
X8064375Y-17424072D01*
X8050089Y-17452643D01*
X8035803Y-17466929D01*
X8007232Y-17481214D01*
X7921518Y-17481214D01*
X7892946Y-17466929D01*
X7878661Y-17452643D01*
X8207232Y-17481214D02*
X8264375Y-17481214D01*
X8292946Y-17466929D01*
X8307232Y-17452643D01*
X8335803Y-17409786D01*
X8350089Y-17352643D01*
X8350089Y-17238357D01*
X8335803Y-17209786D01*
X8321518Y-17195500D01*
X8292946Y-17181214D01*
X8235803Y-17181214D01*
X8207232Y-17195500D01*
X8192946Y-17209786D01*
X8178661Y-17238357D01*
X8178661Y-17309786D01*
X8192946Y-17338357D01*
X8207232Y-17352643D01*
X8235803Y-17366929D01*
X8292946Y-17366929D01*
X8321518Y-17352643D01*
X8335803Y-17338357D01*
X8350089Y-17309786D01*
X8607232Y-17281214D02*
X8607232Y-17481214D01*
X8535803Y-17166929D02*
X8464375Y-17381214D01*
X8650089Y-17381214D01*
X8750089Y-17181214D02*
X8750089Y-17238357D01*
X8864375Y-17181214D02*
X8864375Y-17238357D01*
X9307232Y-17595500D02*
X9292946Y-17581214D01*
X9264375Y-17538357D01*
X9250089Y-17509786D01*
X9235803Y-17466929D01*
X9221518Y-17395500D01*
X9221518Y-17338357D01*
X9235803Y-17266929D01*
X9250089Y-17224072D01*
X9264375Y-17195500D01*
X9292946Y-17152643D01*
X9307232Y-17138357D01*
X9578661Y-17481214D02*
X9407232Y-17481214D01*
X9492946Y-17481214D02*
X9492946Y-17181214D01*
X9464375Y-17224072D01*
X9435803Y-17252643D01*
X9407232Y-17266929D01*
X9678661Y-17181214D02*
X9864375Y-17181214D01*
X9764375Y-17295500D01*
X9807232Y-17295500D01*
X9835803Y-17309786D01*
X9850089Y-17324072D01*
X9864375Y-17352643D01*
X9864375Y-17424072D01*
X9850089Y-17452643D01*
X9835803Y-17466929D01*
X9807232Y-17481214D01*
X9721518Y-17481214D01*
X9692946Y-17466929D01*
X9678661Y-17452643D01*
X10221518Y-17481214D02*
X10221518Y-17181214D01*
X10350089Y-17481214D02*
X10350089Y-17324072D01*
X10335803Y-17295500D01*
X10307232Y-17281214D01*
X10264375Y-17281214D01*
X10235803Y-17295500D01*
X10221518Y-17309786D01*
X10535803Y-17481214D02*
X10507232Y-17466929D01*
X10492946Y-17452643D01*
X10478661Y-17424072D01*
X10478661Y-17338357D01*
X10492946Y-17309786D01*
X10507232Y-17295500D01*
X10535803Y-17281214D01*
X10578661Y-17281214D01*
X10607232Y-17295500D01*
X10621518Y-17309786D01*
X10635803Y-17338357D01*
X10635803Y-17424072D01*
X10621518Y-17452643D01*
X10607232Y-17466929D01*
X10578661Y-17481214D01*
X10535803Y-17481214D01*
X10807232Y-17481214D02*
X10778661Y-17466929D01*
X10764375Y-17438357D01*
X10764375Y-17181214D01*
X11035803Y-17466929D02*
X11007232Y-17481214D01*
X10950089Y-17481214D01*
X10921518Y-17466929D01*
X10907232Y-17438357D01*
X10907232Y-17324072D01*
X10921518Y-17295500D01*
X10950089Y-17281214D01*
X11007232Y-17281214D01*
X11035803Y-17295500D01*
X11050089Y-17324072D01*
X11050089Y-17352643D01*
X10907232Y-17381214D01*
X11164375Y-17466929D02*
X11192946Y-17481214D01*
X11250089Y-17481214D01*
X11278661Y-17466929D01*
X11292946Y-17438357D01*
X11292946Y-17424072D01*
X11278661Y-17395500D01*
X11250089Y-17381214D01*
X11207232Y-17381214D01*
X11178661Y-17366929D01*
X11164375Y-17338357D01*
X11164375Y-17324072D01*
X11178661Y-17295500D01*
X11207232Y-17281214D01*
X11250089Y-17281214D01*
X11278661Y-17295500D01*
X11650089Y-17366929D02*
X11878661Y-17366929D01*
X11764375Y-17481214D02*
X11764375Y-17252643D01*
X12292946Y-17309786D02*
X12264375Y-17295500D01*
X12250089Y-17281214D01*
X12235803Y-17252643D01*
X12235803Y-17238357D01*
X12250089Y-17209786D01*
X12264375Y-17195500D01*
X12292946Y-17181214D01*
X12350089Y-17181214D01*
X12378661Y-17195500D01*
X12392946Y-17209786D01*
X12407232Y-17238357D01*
X12407232Y-17252643D01*
X12392946Y-17281214D01*
X12378661Y-17295500D01*
X12350089Y-17309786D01*
X12292946Y-17309786D01*
X12264375Y-17324072D01*
X12250089Y-17338357D01*
X12235803Y-17366929D01*
X12235803Y-17424072D01*
X12250089Y-17452643D01*
X12264375Y-17466929D01*
X12292946Y-17481214D01*
X12350089Y-17481214D01*
X12378661Y-17466929D01*
X12392946Y-17452643D01*
X12407232Y-17424072D01*
X12407232Y-17366929D01*
X12392946Y-17338357D01*
X12378661Y-17324072D01*
X12350089Y-17309786D01*
X12750089Y-17466929D02*
X12778661Y-17481214D01*
X12835803Y-17481214D01*
X12864375Y-17466929D01*
X12878661Y-17438357D01*
X12878661Y-17424072D01*
X12864375Y-17395500D01*
X12835803Y-17381214D01*
X12792946Y-17381214D01*
X12764375Y-17366929D01*
X12750089Y-17338357D01*
X12750089Y-17324072D01*
X12764375Y-17295500D01*
X12792946Y-17281214D01*
X12835803Y-17281214D01*
X12864375Y-17295500D01*
X13050089Y-17481214D02*
X13021518Y-17466929D01*
X13007232Y-17438357D01*
X13007232Y-17181214D01*
X13207232Y-17481214D02*
X13178661Y-17466929D01*
X13164375Y-17452643D01*
X13150089Y-17424072D01*
X13150089Y-17338357D01*
X13164375Y-17309786D01*
X13178661Y-17295500D01*
X13207232Y-17281214D01*
X13250089Y-17281214D01*
X13278661Y-17295500D01*
X13292946Y-17309786D01*
X13307232Y-17338357D01*
X13307232Y-17424072D01*
X13292946Y-17452643D01*
X13278661Y-17466929D01*
X13250089Y-17481214D01*
X13207232Y-17481214D01*
X13392946Y-17281214D02*
X13507232Y-17281214D01*
X13435803Y-17181214D02*
X13435803Y-17438357D01*
X13450089Y-17466929D01*
X13478661Y-17481214D01*
X13507232Y-17481214D01*
X13592946Y-17466929D02*
X13621518Y-17481214D01*
X13678661Y-17481214D01*
X13707232Y-17466929D01*
X13721518Y-17438357D01*
X13721518Y-17424072D01*
X13707232Y-17395500D01*
X13678661Y-17381214D01*
X13635803Y-17381214D01*
X13607232Y-17366929D01*
X13592946Y-17338357D01*
X13592946Y-17324072D01*
X13607232Y-17295500D01*
X13635803Y-17281214D01*
X13678661Y-17281214D01*
X13707232Y-17295500D01*
X13821518Y-17595500D02*
X13835803Y-17581214D01*
X13864375Y-17538357D01*
X13878661Y-17509786D01*
X13892946Y-17466929D01*
X13907232Y-17395500D01*
X13907232Y-17338357D01*
X13892946Y-17266929D01*
X13878661Y-17224072D01*
X13864375Y-17195500D01*
X13835803Y-17152643D01*
X13821518Y-17138357D01*
X3974375Y-17816500D02*
X4049375Y-17741500D01*
X3974375Y-17666500D01*
X3899375Y-17741500D01*
X3974375Y-17816500D01*
X4492946Y-17877214D02*
X4321518Y-17877214D01*
X4407232Y-17877214D02*
X4407232Y-17577214D01*
X4378661Y-17620072D01*
X4350089Y-17648643D01*
X4321518Y-17662929D01*
X4621518Y-17848643D02*
X4635803Y-17862929D01*
X4621518Y-17877214D01*
X4607232Y-17862929D01*
X4621518Y-17848643D01*
X4621518Y-17877214D01*
X4907232Y-17577214D02*
X4764375Y-17577214D01*
X4750089Y-17720072D01*
X4764375Y-17705786D01*
X4792946Y-17691500D01*
X4864375Y-17691500D01*
X4892946Y-17705786D01*
X4907232Y-17720072D01*
X4921518Y-17748643D01*
X4921518Y-17820072D01*
X4907232Y-17848643D01*
X4892946Y-17862929D01*
X4864375Y-17877214D01*
X4792946Y-17877214D01*
X4764375Y-17862929D01*
X4750089Y-17848643D01*
X5107232Y-17577214D02*
X5135803Y-17577214D01*
X5164375Y-17591500D01*
X5178661Y-17605786D01*
X5192946Y-17634357D01*
X5207232Y-17691500D01*
X5207232Y-17762929D01*
X5192946Y-17820072D01*
X5178661Y-17848643D01*
X5164375Y-17862929D01*
X5135803Y-17877214D01*
X5107232Y-17877214D01*
X5078661Y-17862929D01*
X5064375Y-17848643D01*
X5050089Y-17820072D01*
X5035803Y-17762929D01*
X5035803Y-17691500D01*
X5050089Y-17634357D01*
X5064375Y-17605786D01*
X5078661Y-17591500D01*
X5107232Y-17577214D01*
X5392946Y-17577214D02*
X5421518Y-17577214D01*
X5450089Y-17591500D01*
X5464375Y-17605786D01*
X5478661Y-17634357D01*
X5492946Y-17691500D01*
X5492946Y-17762929D01*
X5478661Y-17820072D01*
X5464375Y-17848643D01*
X5450089Y-17862929D01*
X5421518Y-17877214D01*
X5392946Y-17877214D01*
X5364375Y-17862929D01*
X5350089Y-17848643D01*
X5335803Y-17820072D01*
X5321518Y-17762929D01*
X5321518Y-17691500D01*
X5335803Y-17634357D01*
X5350089Y-17605786D01*
X5364375Y-17591500D01*
X5392946Y-17577214D01*
X5621518Y-17877214D02*
X5621518Y-17677214D01*
X5621518Y-17705786D02*
X5635803Y-17691500D01*
X5664375Y-17677214D01*
X5707232Y-17677214D01*
X5735803Y-17691500D01*
X5750089Y-17720072D01*
X5750089Y-17877214D01*
X5750089Y-17720072D02*
X5764375Y-17691500D01*
X5792946Y-17677214D01*
X5835803Y-17677214D01*
X5864375Y-17691500D01*
X5878661Y-17720072D01*
X5878661Y-17877214D01*
X6021518Y-17877214D02*
X6021518Y-17677214D01*
X6021518Y-17705786D02*
X6035803Y-17691500D01*
X6064375Y-17677214D01*
X6107232Y-17677214D01*
X6135803Y-17691500D01*
X6150089Y-17720072D01*
X6150089Y-17877214D01*
X6150089Y-17720072D02*
X6164375Y-17691500D01*
X6192946Y-17677214D01*
X6235803Y-17677214D01*
X6264375Y-17691500D01*
X6278661Y-17720072D01*
X6278661Y-17877214D01*
X6864375Y-17562929D02*
X6607232Y-17948643D01*
X7250089Y-17577214D02*
X7278661Y-17577214D01*
X7307232Y-17591500D01*
X7321518Y-17605786D01*
X7335803Y-17634357D01*
X7350089Y-17691500D01*
X7350089Y-17762929D01*
X7335803Y-17820072D01*
X7321518Y-17848643D01*
X7307232Y-17862929D01*
X7278661Y-17877214D01*
X7250089Y-17877214D01*
X7221518Y-17862929D01*
X7207232Y-17848643D01*
X7192946Y-17820072D01*
X7178661Y-17762929D01*
X7178661Y-17691500D01*
X7192946Y-17634357D01*
X7207232Y-17605786D01*
X7221518Y-17591500D01*
X7250089Y-17577214D01*
X7478661Y-17848643D02*
X7492946Y-17862929D01*
X7478661Y-17877214D01*
X7464375Y-17862929D01*
X7478661Y-17848643D01*
X7478661Y-17877214D01*
X7678661Y-17577214D02*
X7707232Y-17577214D01*
X7735803Y-17591500D01*
X7750089Y-17605786D01*
X7764375Y-17634357D01*
X7778661Y-17691500D01*
X7778661Y-17762929D01*
X7764375Y-17820072D01*
X7750089Y-17848643D01*
X7735803Y-17862929D01*
X7707232Y-17877214D01*
X7678661Y-17877214D01*
X7650089Y-17862929D01*
X7635803Y-17848643D01*
X7621518Y-17820072D01*
X7607232Y-17762929D01*
X7607232Y-17691500D01*
X7621518Y-17634357D01*
X7635803Y-17605786D01*
X7650089Y-17591500D01*
X7678661Y-17577214D01*
X8050089Y-17577214D02*
X7907232Y-17577214D01*
X7892946Y-17720072D01*
X7907232Y-17705786D01*
X7935803Y-17691500D01*
X8007232Y-17691500D01*
X8035803Y-17705786D01*
X8050089Y-17720072D01*
X8064375Y-17748643D01*
X8064375Y-17820072D01*
X8050089Y-17848643D01*
X8035803Y-17862929D01*
X8007232Y-17877214D01*
X7935803Y-17877214D01*
X7907232Y-17862929D01*
X7892946Y-17848643D01*
X8207232Y-17877214D02*
X8264375Y-17877214D01*
X8292946Y-17862929D01*
X8307232Y-17848643D01*
X8335803Y-17805786D01*
X8350089Y-17748643D01*
X8350089Y-17634357D01*
X8335803Y-17605786D01*
X8321518Y-17591500D01*
X8292946Y-17577214D01*
X8235803Y-17577214D01*
X8207232Y-17591500D01*
X8192946Y-17605786D01*
X8178661Y-17634357D01*
X8178661Y-17705786D01*
X8192946Y-17734357D01*
X8207232Y-17748643D01*
X8235803Y-17762929D01*
X8292946Y-17762929D01*
X8321518Y-17748643D01*
X8335803Y-17734357D01*
X8350089Y-17705786D01*
X8635803Y-17877214D02*
X8464375Y-17877214D01*
X8550089Y-17877214D02*
X8550089Y-17577214D01*
X8521518Y-17620072D01*
X8492946Y-17648643D01*
X8464375Y-17662929D01*
X8750089Y-17577214D02*
X8750089Y-17634357D01*
X8864375Y-17577214D02*
X8864375Y-17634357D01*
X9307232Y-17991500D02*
X9292946Y-17977214D01*
X9264375Y-17934357D01*
X9250089Y-17905786D01*
X9235803Y-17862929D01*
X9221518Y-17791500D01*
X9221518Y-17734357D01*
X9235803Y-17662929D01*
X9250089Y-17620072D01*
X9264375Y-17591500D01*
X9292946Y-17548643D01*
X9307232Y-17534357D01*
X9407232Y-17605786D02*
X9421518Y-17591500D01*
X9450089Y-17577214D01*
X9521518Y-17577214D01*
X9550089Y-17591500D01*
X9564375Y-17605786D01*
X9578661Y-17634357D01*
X9578661Y-17662929D01*
X9564375Y-17705786D01*
X9392946Y-17877214D01*
X9578661Y-17877214D01*
X9835803Y-17677214D02*
X9835803Y-17877214D01*
X9764375Y-17562929D02*
X9692946Y-17777214D01*
X9878661Y-17777214D01*
X10221518Y-17877214D02*
X10221518Y-17577214D01*
X10350089Y-17877214D02*
X10350089Y-17720072D01*
X10335803Y-17691500D01*
X10307232Y-17677214D01*
X10264375Y-17677214D01*
X10235803Y-17691500D01*
X10221518Y-17705786D01*
X10535803Y-17877214D02*
X10507232Y-17862929D01*
X10492946Y-17848643D01*
X10478661Y-17820072D01*
X10478661Y-17734357D01*
X10492946Y-17705786D01*
X10507232Y-17691500D01*
X10535803Y-17677214D01*
X10578661Y-17677214D01*
X10607232Y-17691500D01*
X10621518Y-17705786D01*
X10635803Y-17734357D01*
X10635803Y-17820072D01*
X10621518Y-17848643D01*
X10607232Y-17862929D01*
X10578661Y-17877214D01*
X10535803Y-17877214D01*
X10807232Y-17877214D02*
X10778661Y-17862929D01*
X10764375Y-17834357D01*
X10764375Y-17577214D01*
X11035803Y-17862929D02*
X11007232Y-17877214D01*
X10950089Y-17877214D01*
X10921518Y-17862929D01*
X10907232Y-17834357D01*
X10907232Y-17720072D01*
X10921518Y-17691500D01*
X10950089Y-17677214D01*
X11007232Y-17677214D01*
X11035803Y-17691500D01*
X11050089Y-17720072D01*
X11050089Y-17748643D01*
X10907232Y-17777214D01*
X11164375Y-17862929D02*
X11192946Y-17877214D01*
X11250089Y-17877214D01*
X11278661Y-17862929D01*
X11292946Y-17834357D01*
X11292946Y-17820072D01*
X11278661Y-17791500D01*
X11250089Y-17777214D01*
X11207232Y-17777214D01*
X11178661Y-17762929D01*
X11164375Y-17734357D01*
X11164375Y-17720072D01*
X11178661Y-17691500D01*
X11207232Y-17677214D01*
X11250089Y-17677214D01*
X11278661Y-17691500D01*
X11650089Y-17762929D02*
X11878661Y-17762929D01*
X11764375Y-17877214D02*
X11764375Y-17648643D01*
X12235803Y-17605786D02*
X12250089Y-17591500D01*
X12278661Y-17577214D01*
X12350089Y-17577214D01*
X12378661Y-17591500D01*
X12392946Y-17605786D01*
X12407232Y-17634357D01*
X12407232Y-17662929D01*
X12392946Y-17705786D01*
X12221518Y-17877214D01*
X12407232Y-17877214D01*
X12750089Y-17862929D02*
X12778661Y-17877214D01*
X12835803Y-17877214D01*
X12864375Y-17862929D01*
X12878661Y-17834357D01*
X12878661Y-17820072D01*
X12864375Y-17791500D01*
X12835803Y-17777214D01*
X12792946Y-17777214D01*
X12764375Y-17762929D01*
X12750089Y-17734357D01*
X12750089Y-17720072D01*
X12764375Y-17691500D01*
X12792946Y-17677214D01*
X12835803Y-17677214D01*
X12864375Y-17691500D01*
X13050089Y-17877214D02*
X13021518Y-17862929D01*
X13007232Y-17834357D01*
X13007232Y-17577214D01*
X13207232Y-17877214D02*
X13178661Y-17862929D01*
X13164375Y-17848643D01*
X13150089Y-17820072D01*
X13150089Y-17734357D01*
X13164375Y-17705786D01*
X13178661Y-17691500D01*
X13207232Y-17677214D01*
X13250089Y-17677214D01*
X13278661Y-17691500D01*
X13292946Y-17705786D01*
X13307232Y-17734357D01*
X13307232Y-17820072D01*
X13292946Y-17848643D01*
X13278661Y-17862929D01*
X13250089Y-17877214D01*
X13207232Y-17877214D01*
X13392946Y-17677214D02*
X13507232Y-17677214D01*
X13435803Y-17577214D02*
X13435803Y-17834357D01*
X13450089Y-17862929D01*
X13478661Y-17877214D01*
X13507232Y-17877214D01*
X13592946Y-17862929D02*
X13621518Y-17877214D01*
X13678661Y-17877214D01*
X13707232Y-17862929D01*
X13721518Y-17834357D01*
X13721518Y-17820072D01*
X13707232Y-17791500D01*
X13678661Y-17777214D01*
X13635803Y-17777214D01*
X13607232Y-17762929D01*
X13592946Y-17734357D01*
X13592946Y-17720072D01*
X13607232Y-17691500D01*
X13635803Y-17677214D01*
X13678661Y-17677214D01*
X13707232Y-17691500D01*
X13821518Y-17991500D02*
X13835803Y-17977214D01*
X13864375Y-17934357D01*
X13878661Y-17905786D01*
X13892946Y-17862929D01*
X13907232Y-17791500D01*
X13907232Y-17734357D01*
X13892946Y-17662929D01*
X13878661Y-17620072D01*
X13864375Y-17591500D01*
X13835803Y-17548643D01*
X13821518Y-17534357D01*
X3879375Y-18052500D02*
X4049375Y-18222500D01*
X4049375Y-18052500D02*
X3879375Y-18222500D01*
X4049375Y-18137500D02*
G75*
G03*
X4049375Y-18137500I-85000J0D01*
G01*
X4492946Y-18273214D02*
X4321518Y-18273214D01*
X4407232Y-18273214D02*
X4407232Y-17973214D01*
X4378661Y-18016072D01*
X4350089Y-18044643D01*
X4321518Y-18058929D01*
X4621518Y-18244643D02*
X4635803Y-18258929D01*
X4621518Y-18273214D01*
X4607232Y-18258929D01*
X4621518Y-18244643D01*
X4621518Y-18273214D01*
X4735803Y-17973214D02*
X4935803Y-17973214D01*
X4807232Y-18273214D01*
X5107232Y-17973214D02*
X5135803Y-17973214D01*
X5164375Y-17987500D01*
X5178661Y-18001786D01*
X5192946Y-18030357D01*
X5207232Y-18087500D01*
X5207232Y-18158929D01*
X5192946Y-18216072D01*
X5178661Y-18244643D01*
X5164375Y-18258929D01*
X5135803Y-18273214D01*
X5107232Y-18273214D01*
X5078661Y-18258929D01*
X5064375Y-18244643D01*
X5050089Y-18216072D01*
X5035803Y-18158929D01*
X5035803Y-18087500D01*
X5050089Y-18030357D01*
X5064375Y-18001786D01*
X5078661Y-17987500D01*
X5107232Y-17973214D01*
X5392946Y-17973214D02*
X5421518Y-17973214D01*
X5450089Y-17987500D01*
X5464375Y-18001786D01*
X5478661Y-18030357D01*
X5492946Y-18087500D01*
X5492946Y-18158929D01*
X5478661Y-18216072D01*
X5464375Y-18244643D01*
X5450089Y-18258929D01*
X5421518Y-18273214D01*
X5392946Y-18273214D01*
X5364375Y-18258929D01*
X5350089Y-18244643D01*
X5335803Y-18216072D01*
X5321518Y-18158929D01*
X5321518Y-18087500D01*
X5335803Y-18030357D01*
X5350089Y-18001786D01*
X5364375Y-17987500D01*
X5392946Y-17973214D01*
X5621518Y-18273214D02*
X5621518Y-18073214D01*
X5621518Y-18101786D02*
X5635803Y-18087500D01*
X5664375Y-18073214D01*
X5707232Y-18073214D01*
X5735803Y-18087500D01*
X5750089Y-18116072D01*
X5750089Y-18273214D01*
X5750089Y-18116072D02*
X5764375Y-18087500D01*
X5792946Y-18073214D01*
X5835803Y-18073214D01*
X5864375Y-18087500D01*
X5878661Y-18116072D01*
X5878661Y-18273214D01*
X6021518Y-18273214D02*
X6021518Y-18073214D01*
X6021518Y-18101786D02*
X6035803Y-18087500D01*
X6064375Y-18073214D01*
X6107232Y-18073214D01*
X6135803Y-18087500D01*
X6150089Y-18116072D01*
X6150089Y-18273214D01*
X6150089Y-18116072D02*
X6164375Y-18087500D01*
X6192946Y-18073214D01*
X6235803Y-18073214D01*
X6264375Y-18087500D01*
X6278661Y-18116072D01*
X6278661Y-18273214D01*
X6864375Y-17958929D02*
X6607232Y-18344643D01*
X7250089Y-17973214D02*
X7278661Y-17973214D01*
X7307232Y-17987500D01*
X7321518Y-18001786D01*
X7335803Y-18030357D01*
X7350089Y-18087500D01*
X7350089Y-18158929D01*
X7335803Y-18216072D01*
X7321518Y-18244643D01*
X7307232Y-18258929D01*
X7278661Y-18273214D01*
X7250089Y-18273214D01*
X7221518Y-18258929D01*
X7207232Y-18244643D01*
X7192946Y-18216072D01*
X7178661Y-18158929D01*
X7178661Y-18087500D01*
X7192946Y-18030357D01*
X7207232Y-18001786D01*
X7221518Y-17987500D01*
X7250089Y-17973214D01*
X7478661Y-18244643D02*
X7492946Y-18258929D01*
X7478661Y-18273214D01*
X7464375Y-18258929D01*
X7478661Y-18244643D01*
X7478661Y-18273214D01*
X7678661Y-17973214D02*
X7707232Y-17973214D01*
X7735803Y-17987500D01*
X7750089Y-18001786D01*
X7764375Y-18030357D01*
X7778661Y-18087500D01*
X7778661Y-18158929D01*
X7764375Y-18216072D01*
X7750089Y-18244643D01*
X7735803Y-18258929D01*
X7707232Y-18273214D01*
X7678661Y-18273214D01*
X7650089Y-18258929D01*
X7635803Y-18244643D01*
X7621518Y-18216072D01*
X7607232Y-18158929D01*
X7607232Y-18087500D01*
X7621518Y-18030357D01*
X7635803Y-18001786D01*
X7650089Y-17987500D01*
X7678661Y-17973214D01*
X8035803Y-17973214D02*
X7978661Y-17973214D01*
X7950089Y-17987500D01*
X7935803Y-18001786D01*
X7907232Y-18044643D01*
X7892946Y-18101786D01*
X7892946Y-18216072D01*
X7907232Y-18244643D01*
X7921518Y-18258929D01*
X7950089Y-18273214D01*
X8007232Y-18273214D01*
X8035803Y-18258929D01*
X8050089Y-18244643D01*
X8064375Y-18216072D01*
X8064375Y-18144643D01*
X8050089Y-18116072D01*
X8035803Y-18101786D01*
X8007232Y-18087500D01*
X7950089Y-18087500D01*
X7921518Y-18101786D01*
X7907232Y-18116072D01*
X7892946Y-18144643D01*
X8321518Y-17973214D02*
X8264375Y-17973214D01*
X8235803Y-17987500D01*
X8221518Y-18001786D01*
X8192946Y-18044643D01*
X8178661Y-18101786D01*
X8178661Y-18216072D01*
X8192946Y-18244643D01*
X8207232Y-18258929D01*
X8235803Y-18273214D01*
X8292946Y-18273214D01*
X8321518Y-18258929D01*
X8335803Y-18244643D01*
X8350089Y-18216072D01*
X8350089Y-18144643D01*
X8335803Y-18116072D01*
X8321518Y-18101786D01*
X8292946Y-18087500D01*
X8235803Y-18087500D01*
X8207232Y-18101786D01*
X8192946Y-18116072D01*
X8178661Y-18144643D01*
X8492946Y-18273214D02*
X8550089Y-18273214D01*
X8578661Y-18258929D01*
X8592946Y-18244643D01*
X8621518Y-18201786D01*
X8635803Y-18144643D01*
X8635803Y-18030357D01*
X8621518Y-18001786D01*
X8607232Y-17987500D01*
X8578661Y-17973214D01*
X8521518Y-17973214D01*
X8492946Y-17987500D01*
X8478661Y-18001786D01*
X8464375Y-18030357D01*
X8464375Y-18101786D01*
X8478661Y-18130357D01*
X8492946Y-18144643D01*
X8521518Y-18158929D01*
X8578661Y-18158929D01*
X8607232Y-18144643D01*
X8621518Y-18130357D01*
X8635803Y-18101786D01*
X8750089Y-17973214D02*
X8750089Y-18030357D01*
X8864375Y-17973214D02*
X8864375Y-18030357D01*
X9307232Y-18387500D02*
X9292946Y-18373214D01*
X9264375Y-18330357D01*
X9250089Y-18301786D01*
X9235803Y-18258929D01*
X9221518Y-18187500D01*
X9221518Y-18130357D01*
X9235803Y-18058929D01*
X9250089Y-18016072D01*
X9264375Y-17987500D01*
X9292946Y-17944643D01*
X9307232Y-17930357D01*
X9392946Y-17973214D02*
X9578661Y-17973214D01*
X9478661Y-18087500D01*
X9521518Y-18087500D01*
X9550089Y-18101786D01*
X9564375Y-18116072D01*
X9578661Y-18144643D01*
X9578661Y-18216072D01*
X9564375Y-18244643D01*
X9550089Y-18258929D01*
X9521518Y-18273214D01*
X9435803Y-18273214D01*
X9407232Y-18258929D01*
X9392946Y-18244643D01*
X9835803Y-17973214D02*
X9778661Y-17973214D01*
X9750089Y-17987500D01*
X9735803Y-18001786D01*
X9707232Y-18044643D01*
X9692946Y-18101786D01*
X9692946Y-18216072D01*
X9707232Y-18244643D01*
X9721518Y-18258929D01*
X9750089Y-18273214D01*
X9807232Y-18273214D01*
X9835803Y-18258929D01*
X9850089Y-18244643D01*
X9864375Y-18216072D01*
X9864375Y-18144643D01*
X9850089Y-18116072D01*
X9835803Y-18101786D01*
X9807232Y-18087500D01*
X9750089Y-18087500D01*
X9721518Y-18101786D01*
X9707232Y-18116072D01*
X9692946Y-18144643D01*
X10221518Y-18273214D02*
X10221518Y-17973214D01*
X10350089Y-18273214D02*
X10350089Y-18116072D01*
X10335803Y-18087500D01*
X10307232Y-18073214D01*
X10264375Y-18073214D01*
X10235803Y-18087500D01*
X10221518Y-18101786D01*
X10535803Y-18273214D02*
X10507232Y-18258929D01*
X10492946Y-18244643D01*
X10478661Y-18216072D01*
X10478661Y-18130357D01*
X10492946Y-18101786D01*
X10507232Y-18087500D01*
X10535803Y-18073214D01*
X10578661Y-18073214D01*
X10607232Y-18087500D01*
X10621518Y-18101786D01*
X10635803Y-18130357D01*
X10635803Y-18216072D01*
X10621518Y-18244643D01*
X10607232Y-18258929D01*
X10578661Y-18273214D01*
X10535803Y-18273214D01*
X10807232Y-18273214D02*
X10778661Y-18258929D01*
X10764375Y-18230357D01*
X10764375Y-17973214D01*
X11035803Y-18258929D02*
X11007232Y-18273214D01*
X10950089Y-18273214D01*
X10921518Y-18258929D01*
X10907232Y-18230357D01*
X10907232Y-18116072D01*
X10921518Y-18087500D01*
X10950089Y-18073214D01*
X11007232Y-18073214D01*
X11035803Y-18087500D01*
X11050089Y-18116072D01*
X11050089Y-18144643D01*
X10907232Y-18173214D01*
X11164375Y-18258929D02*
X11192946Y-18273214D01*
X11250089Y-18273214D01*
X11278661Y-18258929D01*
X11292946Y-18230357D01*
X11292946Y-18216072D01*
X11278661Y-18187500D01*
X11250089Y-18173214D01*
X11207232Y-18173214D01*
X11178661Y-18158929D01*
X11164375Y-18130357D01*
X11164375Y-18116072D01*
X11178661Y-18087500D01*
X11207232Y-18073214D01*
X11250089Y-18073214D01*
X11278661Y-18087500D01*
X11392946Y-18387500D02*
X11407232Y-18373214D01*
X11435803Y-18330357D01*
X11450089Y-18301786D01*
X11464375Y-18258929D01*
X11478661Y-18187500D01*
X11478661Y-18130357D01*
X11464375Y-18058929D01*
X11450089Y-18016072D01*
X11435803Y-17987500D01*
X11407232Y-17944643D01*
X11392946Y-17930357D01*
X3749375Y-18383500D02*
X4049375Y-18683500D01*
X4049375Y-18383500D02*
X3749375Y-18683500D01*
X3899375Y-18383500D02*
X3899375Y-18683500D01*
X3749375Y-18533500D02*
X4049375Y-18533500D01*
X4307232Y-18369214D02*
X4492946Y-18369214D01*
X4392946Y-18483500D01*
X4435803Y-18483500D01*
X4464375Y-18497786D01*
X4478661Y-18512072D01*
X4492946Y-18540643D01*
X4492946Y-18612072D01*
X4478661Y-18640643D01*
X4464375Y-18654929D01*
X4435803Y-18669214D01*
X4350089Y-18669214D01*
X4321518Y-18654929D01*
X4307232Y-18640643D01*
X4621518Y-18640643D02*
X4635803Y-18654929D01*
X4621518Y-18669214D01*
X4607232Y-18654929D01*
X4621518Y-18640643D01*
X4621518Y-18669214D01*
X4821518Y-18369214D02*
X4850089Y-18369214D01*
X4878661Y-18383500D01*
X4892946Y-18397786D01*
X4907232Y-18426357D01*
X4921518Y-18483500D01*
X4921518Y-18554929D01*
X4907232Y-18612072D01*
X4892946Y-18640643D01*
X4878661Y-18654929D01*
X4850089Y-18669214D01*
X4821518Y-18669214D01*
X4792946Y-18654929D01*
X4778661Y-18640643D01*
X4764375Y-18612072D01*
X4750089Y-18554929D01*
X4750089Y-18483500D01*
X4764375Y-18426357D01*
X4778661Y-18397786D01*
X4792946Y-18383500D01*
X4821518Y-18369214D01*
X5107232Y-18369214D02*
X5135803Y-18369214D01*
X5164375Y-18383500D01*
X5178661Y-18397786D01*
X5192946Y-18426357D01*
X5207232Y-18483500D01*
X5207232Y-18554929D01*
X5192946Y-18612072D01*
X5178661Y-18640643D01*
X5164375Y-18654929D01*
X5135803Y-18669214D01*
X5107232Y-18669214D01*
X5078661Y-18654929D01*
X5064375Y-18640643D01*
X5050089Y-18612072D01*
X5035803Y-18554929D01*
X5035803Y-18483500D01*
X5050089Y-18426357D01*
X5064375Y-18397786D01*
X5078661Y-18383500D01*
X5107232Y-18369214D01*
X5392946Y-18369214D02*
X5421518Y-18369214D01*
X5450089Y-18383500D01*
X5464375Y-18397786D01*
X5478661Y-18426357D01*
X5492946Y-18483500D01*
X5492946Y-18554929D01*
X5478661Y-18612072D01*
X5464375Y-18640643D01*
X5450089Y-18654929D01*
X5421518Y-18669214D01*
X5392946Y-18669214D01*
X5364375Y-18654929D01*
X5350089Y-18640643D01*
X5335803Y-18612072D01*
X5321518Y-18554929D01*
X5321518Y-18483500D01*
X5335803Y-18426357D01*
X5350089Y-18397786D01*
X5364375Y-18383500D01*
X5392946Y-18369214D01*
X5621518Y-18669214D02*
X5621518Y-18469214D01*
X5621518Y-18497786D02*
X5635803Y-18483500D01*
X5664375Y-18469214D01*
X5707232Y-18469214D01*
X5735803Y-18483500D01*
X5750089Y-18512072D01*
X5750089Y-18669214D01*
X5750089Y-18512072D02*
X5764375Y-18483500D01*
X5792946Y-18469214D01*
X5835803Y-18469214D01*
X5864375Y-18483500D01*
X5878661Y-18512072D01*
X5878661Y-18669214D01*
X6021518Y-18669214D02*
X6021518Y-18469214D01*
X6021518Y-18497786D02*
X6035803Y-18483500D01*
X6064375Y-18469214D01*
X6107232Y-18469214D01*
X6135803Y-18483500D01*
X6150089Y-18512072D01*
X6150089Y-18669214D01*
X6150089Y-18512072D02*
X6164375Y-18483500D01*
X6192946Y-18469214D01*
X6235803Y-18469214D01*
X6264375Y-18483500D01*
X6278661Y-18512072D01*
X6278661Y-18669214D01*
X6864375Y-18354929D02*
X6607232Y-18740643D01*
X7250089Y-18369214D02*
X7278661Y-18369214D01*
X7307232Y-18383500D01*
X7321518Y-18397786D01*
X7335803Y-18426357D01*
X7350089Y-18483500D01*
X7350089Y-18554929D01*
X7335803Y-18612072D01*
X7321518Y-18640643D01*
X7307232Y-18654929D01*
X7278661Y-18669214D01*
X7250089Y-18669214D01*
X7221518Y-18654929D01*
X7207232Y-18640643D01*
X7192946Y-18612072D01*
X7178661Y-18554929D01*
X7178661Y-18483500D01*
X7192946Y-18426357D01*
X7207232Y-18397786D01*
X7221518Y-18383500D01*
X7250089Y-18369214D01*
X7478661Y-18640643D02*
X7492946Y-18654929D01*
X7478661Y-18669214D01*
X7464375Y-18654929D01*
X7478661Y-18640643D01*
X7478661Y-18669214D01*
X7778661Y-18669214D02*
X7607232Y-18669214D01*
X7692946Y-18669214D02*
X7692946Y-18369214D01*
X7664375Y-18412072D01*
X7635803Y-18440643D01*
X7607232Y-18454929D01*
X8064375Y-18669214D02*
X7892946Y-18669214D01*
X7978661Y-18669214D02*
X7978661Y-18369214D01*
X7950089Y-18412072D01*
X7921518Y-18440643D01*
X7892946Y-18454929D01*
X8235803Y-18497786D02*
X8207232Y-18483500D01*
X8192946Y-18469214D01*
X8178661Y-18440643D01*
X8178661Y-18426357D01*
X8192946Y-18397786D01*
X8207232Y-18383500D01*
X8235803Y-18369214D01*
X8292946Y-18369214D01*
X8321518Y-18383500D01*
X8335803Y-18397786D01*
X8350089Y-18426357D01*
X8350089Y-18440643D01*
X8335803Y-18469214D01*
X8321518Y-18483500D01*
X8292946Y-18497786D01*
X8235803Y-18497786D01*
X8207232Y-18512072D01*
X8192946Y-18526357D01*
X8178661Y-18554929D01*
X8178661Y-18612072D01*
X8192946Y-18640643D01*
X8207232Y-18654929D01*
X8235803Y-18669214D01*
X8292946Y-18669214D01*
X8321518Y-18654929D01*
X8335803Y-18640643D01*
X8350089Y-18612072D01*
X8350089Y-18554929D01*
X8335803Y-18526357D01*
X8321518Y-18512072D01*
X8292946Y-18497786D01*
X8635803Y-18669214D02*
X8464375Y-18669214D01*
X8550089Y-18669214D02*
X8550089Y-18369214D01*
X8521518Y-18412072D01*
X8492946Y-18440643D01*
X8464375Y-18454929D01*
X8750089Y-18369214D02*
X8750089Y-18426357D01*
X8864375Y-18369214D02*
X8864375Y-18426357D01*
X9307232Y-18783500D02*
X9292946Y-18769214D01*
X9264375Y-18726357D01*
X9250089Y-18697786D01*
X9235803Y-18654929D01*
X9221518Y-18583500D01*
X9221518Y-18526357D01*
X9235803Y-18454929D01*
X9250089Y-18412072D01*
X9264375Y-18383500D01*
X9292946Y-18340643D01*
X9307232Y-18326357D01*
X9392946Y-18369214D02*
X9578661Y-18369214D01*
X9478661Y-18483500D01*
X9521518Y-18483500D01*
X9550089Y-18497786D01*
X9564375Y-18512072D01*
X9578661Y-18540643D01*
X9578661Y-18612072D01*
X9564375Y-18640643D01*
X9550089Y-18654929D01*
X9521518Y-18669214D01*
X9435803Y-18669214D01*
X9407232Y-18654929D01*
X9392946Y-18640643D01*
X9835803Y-18369214D02*
X9778661Y-18369214D01*
X9750089Y-18383500D01*
X9735803Y-18397786D01*
X9707232Y-18440643D01*
X9692946Y-18497786D01*
X9692946Y-18612072D01*
X9707232Y-18640643D01*
X9721518Y-18654929D01*
X9750089Y-18669214D01*
X9807232Y-18669214D01*
X9835803Y-18654929D01*
X9850089Y-18640643D01*
X9864375Y-18612072D01*
X9864375Y-18540643D01*
X9850089Y-18512072D01*
X9835803Y-18497786D01*
X9807232Y-18483500D01*
X9750089Y-18483500D01*
X9721518Y-18497786D01*
X9707232Y-18512072D01*
X9692946Y-18540643D01*
X10221518Y-18669214D02*
X10221518Y-18369214D01*
X10350089Y-18669214D02*
X10350089Y-18512072D01*
X10335803Y-18483500D01*
X10307232Y-18469214D01*
X10264375Y-18469214D01*
X10235803Y-18483500D01*
X10221518Y-18497786D01*
X10535803Y-18669214D02*
X10507232Y-18654929D01*
X10492946Y-18640643D01*
X10478661Y-18612072D01*
X10478661Y-18526357D01*
X10492946Y-18497786D01*
X10507232Y-18483500D01*
X10535803Y-18469214D01*
X10578661Y-18469214D01*
X10607232Y-18483500D01*
X10621518Y-18497786D01*
X10635803Y-18526357D01*
X10635803Y-18612072D01*
X10621518Y-18640643D01*
X10607232Y-18654929D01*
X10578661Y-18669214D01*
X10535803Y-18669214D01*
X10807232Y-18669214D02*
X10778661Y-18654929D01*
X10764375Y-18626357D01*
X10764375Y-18369214D01*
X11035803Y-18654929D02*
X11007232Y-18669214D01*
X10950089Y-18669214D01*
X10921518Y-18654929D01*
X10907232Y-18626357D01*
X10907232Y-18512072D01*
X10921518Y-18483500D01*
X10950089Y-18469214D01*
X11007232Y-18469214D01*
X11035803Y-18483500D01*
X11050089Y-18512072D01*
X11050089Y-18540643D01*
X10907232Y-18569214D01*
X11164375Y-18654929D02*
X11192946Y-18669214D01*
X11250089Y-18669214D01*
X11278661Y-18654929D01*
X11292946Y-18626357D01*
X11292946Y-18612072D01*
X11278661Y-18583500D01*
X11250089Y-18569214D01*
X11207232Y-18569214D01*
X11178661Y-18554929D01*
X11164375Y-18526357D01*
X11164375Y-18512072D01*
X11178661Y-18483500D01*
X11207232Y-18469214D01*
X11250089Y-18469214D01*
X11278661Y-18483500D01*
X11392946Y-18783500D02*
X11407232Y-18769214D01*
X11435803Y-18726357D01*
X11450089Y-18697786D01*
X11464375Y-18654929D01*
X11478661Y-18583500D01*
X11478661Y-18526357D01*
X11464375Y-18454929D01*
X11450089Y-18412072D01*
X11435803Y-18383500D01*
X11407232Y-18340643D01*
X11392946Y-18326357D01*
X3649375Y-18763500D02*
X4049375Y-19163500D01*
X4049375Y-18763500D02*
X3649375Y-19163500D01*
X3990798Y-19104923D02*
X3990798Y-18822077D01*
X3707952Y-18822077D01*
X3707952Y-19104923D01*
X3990798Y-19104923D01*
X4464375Y-18899214D02*
X4464375Y-19099214D01*
X4392946Y-18784929D02*
X4321518Y-18999214D01*
X4507232Y-18999214D01*
X4621518Y-19070643D02*
X4635803Y-19084929D01*
X4621518Y-19099214D01*
X4607232Y-19084929D01*
X4621518Y-19070643D01*
X4621518Y-19099214D01*
X4821518Y-18799214D02*
X4850089Y-18799214D01*
X4878661Y-18813500D01*
X4892946Y-18827786D01*
X4907232Y-18856357D01*
X4921518Y-18913500D01*
X4921518Y-18984929D01*
X4907232Y-19042072D01*
X4892946Y-19070643D01*
X4878661Y-19084929D01*
X4850089Y-19099214D01*
X4821518Y-19099214D01*
X4792946Y-19084929D01*
X4778661Y-19070643D01*
X4764375Y-19042072D01*
X4750089Y-18984929D01*
X4750089Y-18913500D01*
X4764375Y-18856357D01*
X4778661Y-18827786D01*
X4792946Y-18813500D01*
X4821518Y-18799214D01*
X5107232Y-18799214D02*
X5135803Y-18799214D01*
X5164375Y-18813500D01*
X5178661Y-18827786D01*
X5192946Y-18856357D01*
X5207232Y-18913500D01*
X5207232Y-18984929D01*
X5192946Y-19042072D01*
X5178661Y-19070643D01*
X5164375Y-19084929D01*
X5135803Y-19099214D01*
X5107232Y-19099214D01*
X5078661Y-19084929D01*
X5064375Y-19070643D01*
X5050089Y-19042072D01*
X5035803Y-18984929D01*
X5035803Y-18913500D01*
X5050089Y-18856357D01*
X5064375Y-18827786D01*
X5078661Y-18813500D01*
X5107232Y-18799214D01*
X5392946Y-18799214D02*
X5421518Y-18799214D01*
X5450089Y-18813500D01*
X5464375Y-18827786D01*
X5478661Y-18856357D01*
X5492946Y-18913500D01*
X5492946Y-18984929D01*
X5478661Y-19042072D01*
X5464375Y-19070643D01*
X5450089Y-19084929D01*
X5421518Y-19099214D01*
X5392946Y-19099214D01*
X5364375Y-19084929D01*
X5350089Y-19070643D01*
X5335803Y-19042072D01*
X5321518Y-18984929D01*
X5321518Y-18913500D01*
X5335803Y-18856357D01*
X5350089Y-18827786D01*
X5364375Y-18813500D01*
X5392946Y-18799214D01*
X5621518Y-19099214D02*
X5621518Y-18899214D01*
X5621518Y-18927786D02*
X5635803Y-18913500D01*
X5664375Y-18899214D01*
X5707232Y-18899214D01*
X5735803Y-18913500D01*
X5750089Y-18942072D01*
X5750089Y-19099214D01*
X5750089Y-18942072D02*
X5764375Y-18913500D01*
X5792946Y-18899214D01*
X5835803Y-18899214D01*
X5864375Y-18913500D01*
X5878661Y-18942072D01*
X5878661Y-19099214D01*
X6021518Y-19099214D02*
X6021518Y-18899214D01*
X6021518Y-18927786D02*
X6035803Y-18913500D01*
X6064375Y-18899214D01*
X6107232Y-18899214D01*
X6135803Y-18913500D01*
X6150089Y-18942072D01*
X6150089Y-19099214D01*
X6150089Y-18942072D02*
X6164375Y-18913500D01*
X6192946Y-18899214D01*
X6235803Y-18899214D01*
X6264375Y-18913500D01*
X6278661Y-18942072D01*
X6278661Y-19099214D01*
X6864375Y-18784929D02*
X6607232Y-19170643D01*
X7250089Y-18799214D02*
X7278661Y-18799214D01*
X7307232Y-18813500D01*
X7321518Y-18827786D01*
X7335803Y-18856357D01*
X7350089Y-18913500D01*
X7350089Y-18984929D01*
X7335803Y-19042072D01*
X7321518Y-19070643D01*
X7307232Y-19084929D01*
X7278661Y-19099214D01*
X7250089Y-19099214D01*
X7221518Y-19084929D01*
X7207232Y-19070643D01*
X7192946Y-19042072D01*
X7178661Y-18984929D01*
X7178661Y-18913500D01*
X7192946Y-18856357D01*
X7207232Y-18827786D01*
X7221518Y-18813500D01*
X7250089Y-18799214D01*
X7478661Y-19070643D02*
X7492946Y-19084929D01*
X7478661Y-19099214D01*
X7464375Y-19084929D01*
X7478661Y-19070643D01*
X7478661Y-19099214D01*
X7778661Y-19099214D02*
X7607232Y-19099214D01*
X7692946Y-19099214D02*
X7692946Y-18799214D01*
X7664375Y-18842072D01*
X7635803Y-18870643D01*
X7607232Y-18884929D01*
X8050089Y-18799214D02*
X7907232Y-18799214D01*
X7892946Y-18942072D01*
X7907232Y-18927786D01*
X7935803Y-18913500D01*
X8007232Y-18913500D01*
X8035803Y-18927786D01*
X8050089Y-18942072D01*
X8064375Y-18970643D01*
X8064375Y-19042072D01*
X8050089Y-19070643D01*
X8035803Y-19084929D01*
X8007232Y-19099214D01*
X7935803Y-19099214D01*
X7907232Y-19084929D01*
X7892946Y-19070643D01*
X8164375Y-18799214D02*
X8364375Y-18799214D01*
X8235803Y-19099214D01*
X8621518Y-18799214D02*
X8478661Y-18799214D01*
X8464375Y-18942072D01*
X8478661Y-18927786D01*
X8507232Y-18913500D01*
X8578661Y-18913500D01*
X8607232Y-18927786D01*
X8621518Y-18942072D01*
X8635803Y-18970643D01*
X8635803Y-19042072D01*
X8621518Y-19070643D01*
X8607232Y-19084929D01*
X8578661Y-19099214D01*
X8507232Y-19099214D01*
X8478661Y-19084929D01*
X8464375Y-19070643D01*
X8750089Y-18799214D02*
X8750089Y-18856357D01*
X8864375Y-18799214D02*
X8864375Y-18856357D01*
X9307232Y-19213500D02*
X9292946Y-19199214D01*
X9264375Y-19156357D01*
X9250089Y-19127786D01*
X9235803Y-19084929D01*
X9221518Y-19013500D01*
X9221518Y-18956357D01*
X9235803Y-18884929D01*
X9250089Y-18842072D01*
X9264375Y-18813500D01*
X9292946Y-18770643D01*
X9307232Y-18756357D01*
X9578661Y-19099214D02*
X9407232Y-19099214D01*
X9492946Y-19099214D02*
X9492946Y-18799214D01*
X9464375Y-18842072D01*
X9435803Y-18870643D01*
X9407232Y-18884929D01*
X9750089Y-18927786D02*
X9721518Y-18913500D01*
X9707232Y-18899214D01*
X9692946Y-18870643D01*
X9692946Y-18856357D01*
X9707232Y-18827786D01*
X9721518Y-18813500D01*
X9750089Y-18799214D01*
X9807232Y-18799214D01*
X9835803Y-18813500D01*
X9850089Y-18827786D01*
X9864375Y-18856357D01*
X9864375Y-18870643D01*
X9850089Y-18899214D01*
X9835803Y-18913500D01*
X9807232Y-18927786D01*
X9750089Y-18927786D01*
X9721518Y-18942072D01*
X9707232Y-18956357D01*
X9692946Y-18984929D01*
X9692946Y-19042072D01*
X9707232Y-19070643D01*
X9721518Y-19084929D01*
X9750089Y-19099214D01*
X9807232Y-19099214D01*
X9835803Y-19084929D01*
X9850089Y-19070643D01*
X9864375Y-19042072D01*
X9864375Y-18984929D01*
X9850089Y-18956357D01*
X9835803Y-18942072D01*
X9807232Y-18927786D01*
X10221518Y-19099214D02*
X10221518Y-18799214D01*
X10350089Y-19099214D02*
X10350089Y-18942072D01*
X10335803Y-18913500D01*
X10307232Y-18899214D01*
X10264375Y-18899214D01*
X10235803Y-18913500D01*
X10221518Y-18927786D01*
X10535803Y-19099214D02*
X10507232Y-19084929D01*
X10492946Y-19070643D01*
X10478661Y-19042072D01*
X10478661Y-18956357D01*
X10492946Y-18927786D01*
X10507232Y-18913500D01*
X10535803Y-18899214D01*
X10578661Y-18899214D01*
X10607232Y-18913500D01*
X10621518Y-18927786D01*
X10635803Y-18956357D01*
X10635803Y-19042072D01*
X10621518Y-19070643D01*
X10607232Y-19084929D01*
X10578661Y-19099214D01*
X10535803Y-19099214D01*
X10807232Y-19099214D02*
X10778661Y-19084929D01*
X10764375Y-19056357D01*
X10764375Y-18799214D01*
X11035803Y-19084929D02*
X11007232Y-19099214D01*
X10950089Y-19099214D01*
X10921518Y-19084929D01*
X10907232Y-19056357D01*
X10907232Y-18942072D01*
X10921518Y-18913500D01*
X10950089Y-18899214D01*
X11007232Y-18899214D01*
X11035803Y-18913500D01*
X11050089Y-18942072D01*
X11050089Y-18970643D01*
X10907232Y-18999214D01*
X11164375Y-19084929D02*
X11192946Y-19099214D01*
X11250089Y-19099214D01*
X11278661Y-19084929D01*
X11292946Y-19056357D01*
X11292946Y-19042072D01*
X11278661Y-19013500D01*
X11250089Y-18999214D01*
X11207232Y-18999214D01*
X11178661Y-18984929D01*
X11164375Y-18956357D01*
X11164375Y-18942072D01*
X11178661Y-18913500D01*
X11207232Y-18899214D01*
X11250089Y-18899214D01*
X11278661Y-18913500D01*
X11392946Y-19213500D02*
X11407232Y-19199214D01*
X11435803Y-19156357D01*
X11450089Y-19127786D01*
X11464375Y-19084929D01*
X11478661Y-19013500D01*
X11478661Y-18956357D01*
X11464375Y-18884929D01*
X11450089Y-18842072D01*
X11435803Y-18813500D01*
X11407232Y-18770643D01*
X11392946Y-18756357D01*
M02*
