M48
; DRILL file {KiCad 5.1.12-84ad8e8a86~92~ubuntu20.04.1} date dim. 14 nov. 2021 14:36:11
; FORMAT={-:-/ absolute / metric / decimal}
; #@! TF.CreationDate,2021-11-14T14:36:11+01:00
; #@! TF.GenerationSoftware,Kicad,Pcbnew,5.1.12-84ad8e8a86~92~ubuntu20.04.1
; #@! TF.FileFunction,Plated,1,2,PTH
FMAT,2
METRIC
T1C0.400
T2C0.500
T3C0.800
T4C1.000
T5C1.500
T6C1.700
T7C3.000
T8C4.000
%
G90
G05
T1
X45.257Y-92.582
X45.257Y-111.632
X45.257Y-130.492
X45.257Y-149.541
X46.668Y-145.913
X46.868Y-88.713
X46.868Y-107.913
X46.868Y-126.913
X47.942Y-59.23
X47.942Y-64.24
X47.942Y-70.52
X50.451Y-65.722
X50.482Y-59.23
X50.482Y-70.52
X51.594Y-65.913
X53.023Y-59.23
X53.023Y-63.605
X53.023Y-70.52
X53.044Y-65.925
X54.319Y-127.1
X54.451Y-88.963
X54.451Y-108.013
X55.562Y-59.23
X55.562Y-62.335
X55.562Y-63.097
X55.562Y-70.52
X56.706Y-65.637
X59.372Y-62.335
X59.372Y-66.145
X61.912Y-62.335
X61.912Y-66.399
X64.167Y-87.058
X64.548Y-69.532
X64.688Y-149.541
X64.878Y-92.391
X64.878Y-111.632
X64.878Y-130.682
X66.912Y-68.58
X68.498Y-92.723
X68.498Y-111.773
X68.498Y-130.775
X69.453Y-65.547
X69.595Y-66.579
X71.406Y-81.915
X71.977Y-70.866
X73.07Y-92.723
X73.451Y-108.012
X73.451Y-127.062
X73.451Y-146.112
X75.986Y-88.002
X79.898Y-65.655
X79.975Y-66.678
X80.169Y-63.817
X82.595Y-72.579
X83.026Y-85.725
X83.738Y-92.582
X83.738Y-111.632
X83.738Y-130.682
X83.738Y-149.732
X83.979Y-109.728
X84.82Y-62.314
X85.516Y-67.447
X86.976Y-88.08
X87.548Y-92.722
X87.548Y-111.772
X87.576Y-130.709
X87.576Y-149.759
X89.453Y-99.63
X89.781Y-79.275
X91.781Y-70.675
X92.501Y-88.962
X92.501Y-108.012
X92.501Y-127.062
X97.695Y-70.675
X102.788Y-111.632
X102.788Y-130.682
X102.788Y-149.732
X103.029Y-88.963
X103.029Y-92.583
X103.219Y-60.198
X103.981Y-64.198
X104.743Y-63.627
X105.124Y-61.531
X105.124Y-66.675
X105.506Y-125.92
X105.696Y-106.87
X106.598Y-92.723
X106.598Y-111.773
X106.598Y-130.823
X107.41Y-64.579
X109.865Y-82.128
X109.887Y-66.675
X111.17Y-92.723
X111.17Y-111.773
X111.17Y-130.823
X111.551Y-146.112
X111.741Y-108.012
X111.741Y-127.062
X111.921Y-61.341
X112.744Y-64.579
X113.444Y-62.175
X114.649Y-88.773
X116.938Y-64.767
X120.364Y-135.636
X121.094Y-59.975
X121.126Y-86.713
X121.394Y-61.875
X121.647Y-92.391
X122.019Y-105.525
X122.269Y-67.352
X122.394Y-62.975
X123.685Y-67.732
X124.174Y-61.341
X124.174Y-62.484
X124.794Y-72.575
X125.508Y-61.15
X126.27Y-141.748
X126.27Y-151.273
X127.494Y-73.875
X127.766Y-97.917
X127.794Y-61.066
X129.318Y-141.748
X129.318Y-151.257
X130.08Y-97.917
X130.461Y-122.301
X130.594Y-88.802
X131.794Y-96.774
X132.044Y-70.925
X133.094Y-64.875
X134.601Y-120.395
T2
X50.219Y-74.3
X50.219Y-76.7
X50.219Y-95.25
X50.219Y-114.3
X50.219Y-133.35
X51.594Y-74.3
X51.594Y-76.7
X51.594Y-95.25
X51.594Y-114.3
X51.594Y-133.35
X52.969Y-74.3
X52.969Y-76.7
X52.969Y-95.25
X52.969Y-114.3
X52.969Y-133.35
X61.119Y-84.35
X61.119Y-85.725
X61.119Y-87.1
X61.119Y-103.4
X61.119Y-104.775
X61.119Y-106.15
X61.119Y-122.45
X61.119Y-123.825
X61.119Y-125.2
X61.119Y-141.5
X61.119Y-142.875
X61.119Y-144.25
X69.269Y-74.3
X69.269Y-76.7
X69.269Y-95.25
X69.269Y-114.3
X69.269Y-133.35
X70.644Y-74.3
X70.644Y-76.7
X70.644Y-95.25
X70.644Y-114.3
X70.644Y-133.35
X72.019Y-74.3
X72.019Y-76.7
X72.019Y-95.25
X72.019Y-114.3
X72.019Y-133.35
X80.169Y-84.35
X80.169Y-85.725
X80.169Y-87.1
X80.169Y-103.4
X80.169Y-104.775
X80.169Y-106.15
X80.169Y-122.45
X80.169Y-123.825
X80.169Y-125.2
X80.169Y-141.5
X80.169Y-142.875
X80.169Y-144.25
X88.319Y-73.8
X88.319Y-76.7
X88.319Y-95.25
X88.319Y-114.3
X88.319Y-133.35
X89.694Y-73.8
X89.694Y-76.7
X89.694Y-95.25
X89.694Y-114.3
X89.694Y-133.35
X91.069Y-73.8
X91.069Y-76.7
X91.069Y-95.25
X91.069Y-114.3
X91.069Y-133.35
X99.219Y-66.675
X99.219Y-68.05
X99.219Y-84.35
X99.219Y-85.725
X99.219Y-87.1
X99.219Y-103.4
X99.219Y-104.775
X99.219Y-106.15
X99.219Y-122.45
X99.219Y-123.825
X99.219Y-125.2
X99.219Y-141.5
X99.219Y-142.875
X99.219Y-144.25
X99.248Y-65.273
X107.369Y-76.2
X107.369Y-95.25
X107.369Y-114.3
X107.369Y-133.35
X108.744Y-76.2
X108.744Y-95.25
X108.744Y-114.3
X108.744Y-133.35
X110.119Y-76.2
X110.119Y-95.25
X110.119Y-114.3
X110.119Y-133.35
X118.269Y-65.3
X118.269Y-66.675
X118.269Y-68.05
X118.269Y-84.35
X118.269Y-85.725
X118.269Y-87.1
X118.269Y-103.4
X118.269Y-104.775
X118.269Y-106.15
X118.269Y-122.45
X118.269Y-123.825
X118.269Y-125.2
X118.269Y-137.362
X118.269Y-138.862
X118.269Y-146.887
X118.269Y-148.387
X122.281Y-142.875
X122.781Y-133.35
X123.781Y-142.875
X124.031Y-133.35
X126.419Y-76.2
X127.044Y-95.25
X127.794Y-76.2
X127.794Y-137.362
X127.794Y-138.912
X127.794Y-146.887
X127.794Y-148.399
X128.544Y-95.25
X129.169Y-76.2
X131.556Y-133.35
X131.806Y-142.875
X132.806Y-133.35
X133.306Y-142.875
T3
X43.594Y-81.725
X43.594Y-85.725
X43.594Y-89.725
X43.594Y-100.775
X43.594Y-104.775
X43.594Y-108.775
X43.594Y-119.825
X43.594Y-123.825
X43.594Y-127.825
X43.594Y-138.875
X43.594Y-142.875
X43.594Y-146.875
X46.799Y-66.907
X47.319Y-90.1
X47.319Y-109.1
X47.319Y-147.1
X47.344Y-128.075
X47.594Y-77.725
X47.594Y-93.725
X47.594Y-96.775
X47.594Y-112.775
X47.594Y-115.825
X47.594Y-131.825
X47.594Y-134.875
X47.594Y-150.875
X49.212Y-62.425
X50.641Y-67.056
X51.752Y-62.843
X54.165Y-66.653
X55.594Y-77.725
X55.594Y-93.725
X55.594Y-96.775
X55.594Y-112.775
X55.594Y-115.825
X55.594Y-131.825
X55.594Y-134.875
X55.594Y-150.875
X57.975Y-59.541
X58.103Y-62.494
X58.103Y-67.256
X59.594Y-81.375
X59.594Y-87.725
X59.594Y-89.725
X59.594Y-100.425
X59.594Y-106.775
X59.594Y-108.775
X59.594Y-119.475
X59.594Y-125.825
X59.594Y-127.825
X59.594Y-138.525
X59.594Y-144.875
X59.594Y-146.875
X60.643Y-62.494
X60.643Y-67.256
X62.644Y-81.725
X62.644Y-85.725
X62.644Y-89.725
X62.644Y-100.775
X62.644Y-104.775
X62.644Y-108.775
X62.644Y-119.825
X62.644Y-123.825
X62.644Y-127.825
X62.644Y-138.875
X62.644Y-142.875
X62.644Y-146.875
X63.183Y-62.494
X63.183Y-67.256
X65.723Y-62.494
X65.723Y-67.256
X66.402Y-90.105
X66.402Y-109.155
X66.402Y-128.206
X66.402Y-147.255
X66.644Y-77.725
X66.644Y-93.725
X66.644Y-96.775
X66.644Y-112.775
X66.644Y-115.825
X66.644Y-131.825
X66.644Y-134.875
X66.644Y-150.875
X68.263Y-62.494
X68.263Y-67.256
X69.12Y-80.2
X70.803Y-62.494
X70.803Y-67.256
X73.343Y-62.494
X73.343Y-67.256
X73.504Y-59.785
X74.644Y-77.725
X74.644Y-93.725
X74.644Y-96.775
X74.644Y-112.775
X74.644Y-115.825
X74.644Y-131.825
X74.644Y-134.875
X74.644Y-150.875
X75.883Y-62.494
X75.883Y-67.256
X78.581Y-61.065
X78.581Y-63.605
X78.581Y-66.145
X78.581Y-68.685
X78.644Y-81.375
X78.644Y-87.725
X78.644Y-89.725
X78.644Y-100.425
X78.644Y-106.775
X78.644Y-108.775
X78.644Y-119.475
X78.644Y-125.825
X78.644Y-127.825
X78.644Y-138.525
X78.644Y-144.875
X78.644Y-146.875
X80.881Y-68.475
X81.694Y-81.725
X81.694Y-85.725
X81.694Y-89.725
X81.694Y-100.775
X81.694Y-104.775
X81.694Y-108.775
X81.694Y-119.825
X81.694Y-123.825
X81.694Y-127.825
X81.694Y-138.875
X81.694Y-142.875
X81.694Y-146.875
X84.181Y-71.675
X85.452Y-90.105
X85.452Y-109.155
X85.452Y-147.255
X85.607Y-128.65
X85.694Y-77.725
X85.694Y-93.725
X85.694Y-96.775
X85.694Y-112.775
X85.694Y-115.825
X85.694Y-131.825
X85.694Y-134.875
X85.694Y-150.875
X87.217Y-98.87
X87.987Y-70.034
X88.17Y-80.2
X90.527Y-70.034
X93.067Y-70.034
X93.694Y-77.725
X93.694Y-93.725
X93.694Y-96.775
X93.694Y-112.775
X93.694Y-115.825
X93.694Y-131.825
X93.694Y-134.875
X93.694Y-150.875
X97.381Y-67.305
X97.694Y-81.375
X97.694Y-87.725
X97.694Y-89.725
X97.694Y-100.425
X97.694Y-106.775
X97.694Y-108.775
X97.694Y-119.475
X97.694Y-125.825
X97.694Y-127.825
X97.694Y-138.525
X97.694Y-144.875
X97.694Y-146.875
X100.743Y-63.5
X100.743Y-69.85
X100.744Y-81.725
X100.744Y-85.725
X100.744Y-89.725
X100.744Y-100.775
X100.744Y-104.775
X100.744Y-108.775
X100.744Y-119.825
X100.744Y-123.825
X100.744Y-127.825
X100.744Y-138.875
X100.744Y-142.875
X100.744Y-146.875
X101.444Y-61.912
X104.502Y-90.105
X104.502Y-109.155
X104.502Y-128.206
X104.502Y-147.255
X104.744Y-77.725
X104.744Y-93.725
X104.744Y-96.775
X104.744Y-112.775
X104.744Y-115.825
X104.744Y-131.825
X104.744Y-134.875
X104.744Y-150.875
X107.41Y-80.2
X108.744Y-74.676
X112.744Y-77.725
X112.744Y-93.725
X112.744Y-96.775
X112.744Y-112.775
X112.744Y-115.825
X112.744Y-131.825
X112.744Y-134.875
X112.744Y-150.875
X116.041Y-61.912
X116.744Y-63.5
X116.744Y-81.375
X116.744Y-87.725
X116.744Y-89.725
X116.744Y-100.425
X116.744Y-106.775
X116.744Y-108.775
X116.744Y-119.475
X116.744Y-125.825
X116.744Y-127.825
X116.744Y-138.525
X116.744Y-144.875
X116.744Y-146.875
X116.745Y-66.675
X119.793Y-137.16
X119.793Y-146.685
X119.794Y-81.725
X119.794Y-85.725
X119.794Y-89.725
X119.794Y-110.3
X119.794Y-118.3
X120.65Y-63.5
X120.65Y-69.85
X123.031Y-71.438
X123.444Y-106.3
X123.552Y-90.105
X123.794Y-77.725
X123.794Y-93.725
X123.794Y-122.3
X124.619Y-59.531
X124.619Y-73.875
X125.508Y-138.912
X125.508Y-148.412
X126.119Y-72.475
X126.46Y-80.01
X127.794Y-122.3
X129.794Y-106.3
X130.08Y-148.399
X130.081Y-138.912
X130.651Y-104.013
X130.969Y-59.531
X130.969Y-73.875
X131.794Y-77.725
X131.794Y-93.725
X131.794Y-106.3
X131.794Y-122.3
X132.125Y-118.68
X132.469Y-72.475
X132.556Y-61.912
X133.794Y-106.3
X133.794Y-122.3
X134.938Y-63.5
X134.938Y-69.85
X135.414Y-111.252
X135.794Y-81.375
X135.794Y-87.725
X135.794Y-89.725
X135.795Y-137.16
X135.795Y-146.685
T4
X83.741Y-59.442
X83.741Y-65.942
X102.544Y-70.475
X102.544Y-72.475
X104.934Y-70.925
X106.244Y-59.175
X106.244Y-73.675
X107.474Y-70.925
X108.744Y-59.175
X110.014Y-70.875
X111.244Y-59.175
X111.244Y-73.675
X112.554Y-70.925
T5
X47.942Y-57.255
X47.942Y-72.495
X50.482Y-57.255
X50.482Y-72.495
X53.023Y-57.255
X53.023Y-72.495
X55.562Y-57.255
X55.562Y-72.495
X58.102Y-57.255
X58.102Y-72.495
X60.612Y-72.495
X60.642Y-57.255
X63.182Y-57.255
X63.182Y-72.495
X65.722Y-57.255
X65.722Y-72.495
X68.263Y-57.255
X68.263Y-72.495
X70.802Y-57.255
X70.802Y-72.495
X73.343Y-57.255
X73.343Y-72.495
X75.882Y-57.255
X75.882Y-72.495
T6
X46.514Y-85.725
X46.514Y-104.775
X46.514Y-123.825
X46.514Y-142.875
X56.674Y-85.725
X56.674Y-104.775
X56.674Y-123.825
X56.674Y-142.875
X65.564Y-85.725
X65.564Y-104.775
X65.564Y-123.825
X65.564Y-142.875
X75.724Y-85.725
X75.724Y-104.775
X75.724Y-123.825
X75.724Y-142.875
X84.614Y-85.725
X84.614Y-104.775
X84.614Y-123.825
X84.614Y-142.875
X94.774Y-85.725
X94.774Y-104.775
X94.774Y-123.825
X94.774Y-142.875
X103.664Y-85.725
X103.664Y-104.775
X103.664Y-123.825
X103.664Y-142.875
X113.824Y-85.725
X113.824Y-104.775
X113.824Y-123.825
X113.824Y-142.875
X122.714Y-85.725
X127.794Y-109.22
X127.794Y-119.38
X132.874Y-85.725
T7
X47.784Y-83.185
X47.784Y-102.235
X47.784Y-121.285
X47.784Y-140.335
X54.134Y-80.645
X54.134Y-99.695
X54.134Y-118.745
X54.134Y-137.795
X66.834Y-83.185
X66.834Y-102.235
X66.834Y-121.285
X66.834Y-140.335
X73.184Y-80.645
X73.184Y-99.695
X73.184Y-118.745
X73.184Y-137.795
X85.884Y-83.185
X85.884Y-102.235
X85.884Y-121.285
X85.884Y-140.335
X92.234Y-80.645
X92.234Y-99.695
X92.234Y-118.745
X92.234Y-137.795
X104.934Y-83.185
X104.934Y-102.235
X104.934Y-121.285
X104.934Y-140.335
X111.284Y-80.645
X111.284Y-99.695
X111.284Y-118.745
X111.284Y-137.795
X122.714Y-111.76
X123.984Y-83.185
X125.254Y-118.11
X130.334Y-80.645
T8
X51.594Y-85.725
X51.594Y-104.775
X51.594Y-123.825
X51.594Y-142.875
X70.644Y-85.725
X70.644Y-104.775
X70.644Y-123.825
X70.644Y-142.875
X89.694Y-85.725
X89.694Y-104.775
X89.694Y-123.825
X89.694Y-142.875
X108.744Y-85.725
X108.744Y-104.775
X108.744Y-123.825
X108.744Y-142.875
X127.794Y-85.725
X127.794Y-114.3
T4
X87.047Y-59.097G85X87.047Y-58.797
G05
X87.047Y-62.197G85X87.047Y-61.897
G05
X87.047Y-66.297G85X87.047Y-65.997
G05
X89.428Y-67.097G85X89.428Y-67.397
G05
X91.547Y-67.397G85X91.547Y-67.097
G05
X93.928Y-58.797G85X93.928Y-59.097
G05
X93.928Y-61.897G85X93.928Y-62.197
G05
X93.928Y-65.997G85X93.928Y-66.297
G05
T5
X103.144Y-66.025G85X103.144Y-67.325
G05
X114.344Y-66.025G85X114.344Y-67.325
G05
T0
M30
