M48
; DRILL file {KiCad 5.1.12-84ad8e8a86~92~ubuntu20.04.1} date dim. 14 nov. 2021 14:36:11
; FORMAT={-:-/ absolute / metric / decimal}
; #@! TF.CreationDate,2021-11-14T14:36:11+01:00
; #@! TF.GenerationSoftware,Kicad,Pcbnew,5.1.12-84ad8e8a86~92~ubuntu20.04.1
; #@! TF.FileFunction,NonPlated,1,2,NPTH
FMAT,2
METRIC
T1C0.800
T2C1.000
T3C1.200
T4C1.500
T5C2.000
T6C3.000
T7C4.000
%
G90
G05
T1
X126.45Y-68.019
X129.694Y-66.675
T2
X125.894Y-66.675
X129.137Y-65.331
T3
X89.297Y-57.347
X89.297Y-64.347
X91.678Y-57.347
X91.678Y-64.347
X120.65Y-140.494
X120.65Y-150.019
X125.412Y-135.731
X125.412Y-145.256
X130.175Y-135.731
X130.175Y-145.256
X134.938Y-140.494
X134.938Y-150.019
T4
X115.044Y-70.925
T5
X42.069Y-78.801
X42.069Y-92.649
X42.069Y-97.851
X42.069Y-111.699
X42.069Y-116.901
X42.069Y-130.749
X42.069Y-135.951
X42.069Y-149.799
X42.413Y-56.739
X42.413Y-73.019
X44.67Y-76.2
X44.67Y-95.25
X44.67Y-114.3
X44.67Y-133.35
X44.67Y-152.4
X58.517Y-76.2
X58.517Y-95.25
X58.517Y-114.3
X58.517Y-133.35
X58.517Y-152.4
X61.119Y-78.801
X61.119Y-92.649
X61.119Y-97.851
X61.119Y-111.699
X61.119Y-116.901
X61.119Y-130.749
X61.119Y-135.951
X61.119Y-149.799
X63.72Y-76.2
X63.72Y-95.25
X63.72Y-114.3
X63.72Y-133.35
X63.72Y-152.4
X77.567Y-76.2
X77.567Y-95.25
X77.567Y-114.3
X77.567Y-133.35
X77.567Y-152.4
X80.169Y-56.731
X80.169Y-73.019
X80.169Y-78.801
X80.169Y-92.649
X80.169Y-97.851
X80.169Y-111.699
X80.169Y-116.901
X80.169Y-130.749
X80.169Y-135.951
X80.169Y-149.799
X82.77Y-76.2
X82.77Y-95.25
X82.77Y-114.3
X82.77Y-133.35
X82.77Y-152.4
X96.617Y-76.2
X96.617Y-95.25
X96.617Y-114.3
X96.617Y-133.35
X96.617Y-152.4
X96.837Y-56.731
X96.837Y-73.019
X99.219Y-59.751
X99.219Y-73.599
X99.219Y-78.801
X99.219Y-92.649
X99.219Y-97.851
X99.219Y-111.699
X99.219Y-116.901
X99.219Y-130.749
X99.219Y-135.951
X99.219Y-149.799
X99.719Y-57.35
X101.82Y-57.15
X101.82Y-76.2
X101.82Y-95.25
X101.82Y-114.3
X101.82Y-133.35
X101.82Y-152.4
X115.667Y-57.15
X115.667Y-76.2
X115.667Y-95.25
X115.667Y-114.3
X115.667Y-133.35
X115.667Y-152.4
X117.769Y-57.35
X118.269Y-59.751
X118.269Y-73.599
X118.269Y-78.801
X118.269Y-92.649
X118.269Y-97.851
X118.269Y-130.749
X120.87Y-57.15
X120.87Y-76.2
X120.87Y-95.25
X120.87Y-133.35
X134.718Y-57.15
X134.718Y-76.2
X134.718Y-95.25
X134.718Y-133.35
X137.319Y-59.751
X137.319Y-73.599
X137.319Y-97.851
X137.319Y-130.749
T6
X120.809Y-102.362
X120.809Y-126.238
T7
X136.049Y-102.362
X136.049Y-126.238
T0
M30
