%TF.GenerationSoftware,KiCad,Pcbnew,5.1.12-84ad8e8a86~92~ubuntu20.04.1*%
%TF.CreationDate,2021-11-14T16:01:40+01:00*%
%TF.ProjectId,Lergo,4c657267-6f2e-46b6-9963-61645f706362,v1.A*%
%TF.SameCoordinates,Original*%
%TF.FileFunction,Profile,NP*%
%FSLAX46Y46*%
G04 Gerber Fmt 4.6, Leading zero omitted, Abs format (unit mm)*
G04 Created by KiCad (PCBNEW 5.1.12-84ad8e8a86~92~ubuntu20.04.1) date 2021-11-14 16:01:40*
%MOMM*%
%LPD*%
G01*
G04 APERTURE LIST*
%TA.AperFunction,Profile*%
%ADD10C,0.150000*%
%TD*%
%TA.AperFunction,Profile*%
%ADD11C,0.120000*%
%TD*%
G04 APERTURE END LIST*
D10*
X101743750Y-57650216D02*
X101743750Y-57975000D01*
X99718880Y-57650216D02*
X101743750Y-57650216D01*
X115743750Y-57650216D02*
X115743750Y-57975000D01*
X117768880Y-57650216D02*
X115743750Y-57650216D01*
X42568750Y-55950216D02*
X40568750Y-55950216D01*
X42568750Y-73800000D02*
X40568750Y-73800000D01*
X42568750Y-151900000D02*
X60618750Y-151900000D01*
X42568750Y-133850000D02*
X42568750Y-151900000D01*
X42568750Y-95750000D02*
X42568750Y-113800000D01*
X42568750Y-76700000D02*
X42568750Y-94750000D01*
X98718880Y-55950216D02*
X98718880Y-57650216D01*
X98718880Y-55950216D02*
X42568750Y-55950216D01*
X115743750Y-57975000D02*
X101743750Y-57975000D01*
X136818750Y-57650216D02*
X118768880Y-57650216D01*
X136818750Y-75700000D02*
X136818750Y-57650216D01*
X136818750Y-94750000D02*
X136818750Y-76700000D01*
X136818750Y-132850000D02*
X136818750Y-95750000D01*
X136818750Y-133850000D02*
X136818750Y-142375000D01*
X136818750Y-151900000D02*
X136818750Y-143375000D01*
X128293750Y-151900000D02*
X136818750Y-151900000D01*
X118768750Y-151900000D02*
X127293750Y-151900000D01*
X99718750Y-151900000D02*
X117768750Y-151900000D01*
X80668750Y-151900000D02*
X98718750Y-151900000D01*
X61618750Y-151900000D02*
X79668750Y-151900000D01*
X42568750Y-114800000D02*
X42568750Y-132850000D01*
X40568750Y-55950216D02*
X40568750Y-73800000D01*
D11*
X134423750Y-115600000D02*
X134423750Y-113000000D01*
X131823750Y-116100000D02*
X133923750Y-116100000D01*
X133923750Y-112500000D02*
X131823750Y-112500000D01*
X131323750Y-113000000D02*
X131323750Y-115600000D01*
X131823750Y-116100000D02*
G75*
G02*
X131323750Y-115600000I0J500000D01*
G01*
X133923750Y-112500000D02*
G75*
G02*
X134423750Y-113000000I0J-500000D01*
G01*
X134423750Y-115600000D02*
G75*
G02*
X133923750Y-116100000I-500000J0D01*
G01*
X131323750Y-113000000D02*
G75*
G02*
X131823750Y-112500000I500000J0D01*
G01*
X126493750Y-92355000D02*
X129093750Y-92355000D01*
X125993750Y-89755000D02*
X125993750Y-91855000D01*
X129593750Y-91855000D02*
X129593750Y-89755000D01*
X129093750Y-89255000D02*
X126493750Y-89255000D01*
X125993750Y-89755000D02*
G75*
G02*
X126493750Y-89255000I500000J0D01*
G01*
X129593750Y-91855000D02*
G75*
G02*
X129093750Y-92355000I-500000J0D01*
G01*
X126493750Y-92355000D02*
G75*
G02*
X125993750Y-91855000I0J500000D01*
G01*
X129093750Y-89255000D02*
G75*
G02*
X129593750Y-89755000I0J-500000D01*
G01*
X69343750Y-111405000D02*
X71943750Y-111405000D01*
X68843750Y-108805000D02*
X68843750Y-110905000D01*
X72443750Y-110905000D02*
X72443750Y-108805000D01*
X71943750Y-108305000D02*
X69343750Y-108305000D01*
X68843750Y-108805000D02*
G75*
G02*
X69343750Y-108305000I500000J0D01*
G01*
X72443750Y-110905000D02*
G75*
G02*
X71943750Y-111405000I-500000J0D01*
G01*
X69343750Y-111405000D02*
G75*
G02*
X68843750Y-110905000I0J500000D01*
G01*
X71943750Y-108305000D02*
G75*
G02*
X72443750Y-108805000I0J-500000D01*
G01*
X69343750Y-92355000D02*
X71943750Y-92355000D01*
X68843750Y-89755000D02*
X68843750Y-91855000D01*
X72443750Y-91855000D02*
X72443750Y-89755000D01*
X71943750Y-89255000D02*
X69343750Y-89255000D01*
X68843750Y-89755000D02*
G75*
G02*
X69343750Y-89255000I500000J0D01*
G01*
X72443750Y-91855000D02*
G75*
G02*
X71943750Y-92355000I-500000J0D01*
G01*
X69343750Y-92355000D02*
G75*
G02*
X68843750Y-91855000I0J500000D01*
G01*
X71943750Y-89255000D02*
G75*
G02*
X72443750Y-89755000I0J-500000D01*
G01*
X69343750Y-130455000D02*
X71943750Y-130455000D01*
X68843750Y-127855000D02*
X68843750Y-129955000D01*
X72443750Y-129955000D02*
X72443750Y-127855000D01*
X71943750Y-127355000D02*
X69343750Y-127355000D01*
X68843750Y-127855000D02*
G75*
G02*
X69343750Y-127355000I500000J0D01*
G01*
X72443750Y-129955000D02*
G75*
G02*
X71943750Y-130455000I-500000J0D01*
G01*
X69343750Y-130455000D02*
G75*
G02*
X68843750Y-129955000I0J500000D01*
G01*
X71943750Y-127355000D02*
G75*
G02*
X72443750Y-127855000I0J-500000D01*
G01*
X69343750Y-149505000D02*
X71943750Y-149505000D01*
X68843750Y-146905000D02*
X68843750Y-149005000D01*
X72443750Y-149005000D02*
X72443750Y-146905000D01*
X71943750Y-146405000D02*
X69343750Y-146405000D01*
X68843750Y-146905000D02*
G75*
G02*
X69343750Y-146405000I500000J0D01*
G01*
X72443750Y-149005000D02*
G75*
G02*
X71943750Y-149505000I-500000J0D01*
G01*
X69343750Y-149505000D02*
G75*
G02*
X68843750Y-149005000I0J500000D01*
G01*
X71943750Y-146405000D02*
G75*
G02*
X72443750Y-146905000I0J-500000D01*
G01*
X88393750Y-111405000D02*
X90993750Y-111405000D01*
X87893750Y-108805000D02*
X87893750Y-110905000D01*
X91493750Y-110905000D02*
X91493750Y-108805000D01*
X90993750Y-108305000D02*
X88393750Y-108305000D01*
X87893750Y-108805000D02*
G75*
G02*
X88393750Y-108305000I500000J0D01*
G01*
X91493750Y-110905000D02*
G75*
G02*
X90993750Y-111405000I-500000J0D01*
G01*
X88393750Y-111405000D02*
G75*
G02*
X87893750Y-110905000I0J500000D01*
G01*
X90993750Y-108305000D02*
G75*
G02*
X91493750Y-108805000I0J-500000D01*
G01*
X88393750Y-130455000D02*
X90993750Y-130455000D01*
X87893750Y-127855000D02*
X87893750Y-129955000D01*
X91493750Y-129955000D02*
X91493750Y-127855000D01*
X90993750Y-127355000D02*
X88393750Y-127355000D01*
X87893750Y-127855000D02*
G75*
G02*
X88393750Y-127355000I500000J0D01*
G01*
X91493750Y-129955000D02*
G75*
G02*
X90993750Y-130455000I-500000J0D01*
G01*
X88393750Y-130455000D02*
G75*
G02*
X87893750Y-129955000I0J500000D01*
G01*
X90993750Y-127355000D02*
G75*
G02*
X91493750Y-127855000I0J-500000D01*
G01*
X88393750Y-149505000D02*
X90993750Y-149505000D01*
X87893750Y-146905000D02*
X87893750Y-149005000D01*
X91493750Y-149005000D02*
X91493750Y-146905000D01*
X90993750Y-146405000D02*
X88393750Y-146405000D01*
X87893750Y-146905000D02*
G75*
G02*
X88393750Y-146405000I500000J0D01*
G01*
X91493750Y-149005000D02*
G75*
G02*
X90993750Y-149505000I-500000J0D01*
G01*
X88393750Y-149505000D02*
G75*
G02*
X87893750Y-149005000I0J500000D01*
G01*
X90993750Y-146405000D02*
G75*
G02*
X91493750Y-146905000I0J-500000D01*
G01*
X107443750Y-111405000D02*
X110043750Y-111405000D01*
X106943750Y-108805000D02*
X106943750Y-110905000D01*
X110543750Y-110905000D02*
X110543750Y-108805000D01*
X110043750Y-108305000D02*
X107443750Y-108305000D01*
X106943750Y-108805000D02*
G75*
G02*
X107443750Y-108305000I500000J0D01*
G01*
X110543750Y-110905000D02*
G75*
G02*
X110043750Y-111405000I-500000J0D01*
G01*
X107443750Y-111405000D02*
G75*
G02*
X106943750Y-110905000I0J500000D01*
G01*
X110043750Y-108305000D02*
G75*
G02*
X110543750Y-108805000I0J-500000D01*
G01*
X107443750Y-149505000D02*
X110043750Y-149505000D01*
X106943750Y-146905000D02*
X106943750Y-149005000D01*
X110543750Y-149005000D02*
X110543750Y-146905000D01*
X110043750Y-146405000D02*
X107443750Y-146405000D01*
X106943750Y-146905000D02*
G75*
G02*
X107443750Y-146405000I500000J0D01*
G01*
X110543750Y-149005000D02*
G75*
G02*
X110043750Y-149505000I-500000J0D01*
G01*
X107443750Y-149505000D02*
G75*
G02*
X106943750Y-149005000I0J500000D01*
G01*
X110043750Y-146405000D02*
G75*
G02*
X110543750Y-146905000I0J-500000D01*
G01*
X88393750Y-92355000D02*
X90993750Y-92355000D01*
X87893750Y-89755000D02*
X87893750Y-91855000D01*
X91493750Y-91855000D02*
X91493750Y-89755000D01*
X90993750Y-89255000D02*
X88393750Y-89255000D01*
X87893750Y-89755000D02*
G75*
G02*
X88393750Y-89255000I500000J0D01*
G01*
X91493750Y-91855000D02*
G75*
G02*
X90993750Y-92355000I-500000J0D01*
G01*
X88393750Y-92355000D02*
G75*
G02*
X87893750Y-91855000I0J500000D01*
G01*
X90993750Y-89255000D02*
G75*
G02*
X91493750Y-89755000I0J-500000D01*
G01*
X50293750Y-92355000D02*
X52893750Y-92355000D01*
X49793750Y-89755000D02*
X49793750Y-91855000D01*
X53393750Y-91855000D02*
X53393750Y-89755000D01*
X52893750Y-89255000D02*
X50293750Y-89255000D01*
X49793750Y-89755000D02*
G75*
G02*
X50293750Y-89255000I500000J0D01*
G01*
X53393750Y-91855000D02*
G75*
G02*
X52893750Y-92355000I-500000J0D01*
G01*
X50293750Y-92355000D02*
G75*
G02*
X49793750Y-91855000I0J500000D01*
G01*
X52893750Y-89255000D02*
G75*
G02*
X53393750Y-89755000I0J-500000D01*
G01*
X50293750Y-111405000D02*
X52893750Y-111405000D01*
X49793750Y-108805000D02*
X49793750Y-110905000D01*
X53393750Y-110905000D02*
X53393750Y-108805000D01*
X52893750Y-108305000D02*
X50293750Y-108305000D01*
X49793750Y-108805000D02*
G75*
G02*
X50293750Y-108305000I500000J0D01*
G01*
X53393750Y-110905000D02*
G75*
G02*
X52893750Y-111405000I-500000J0D01*
G01*
X50293750Y-111405000D02*
G75*
G02*
X49793750Y-110905000I0J500000D01*
G01*
X52893750Y-108305000D02*
G75*
G02*
X53393750Y-108805000I0J-500000D01*
G01*
X50293750Y-130455000D02*
X52893750Y-130455000D01*
X49793750Y-127855000D02*
X49793750Y-129955000D01*
X53393750Y-129955000D02*
X53393750Y-127855000D01*
X52893750Y-127355000D02*
X50293750Y-127355000D01*
X49793750Y-127855000D02*
G75*
G02*
X50293750Y-127355000I500000J0D01*
G01*
X53393750Y-129955000D02*
G75*
G02*
X52893750Y-130455000I-500000J0D01*
G01*
X50293750Y-130455000D02*
G75*
G02*
X49793750Y-129955000I0J500000D01*
G01*
X52893750Y-127355000D02*
G75*
G02*
X53393750Y-127855000I0J-500000D01*
G01*
X50293750Y-149505000D02*
X52893750Y-149505000D01*
X49793750Y-146905000D02*
X49793750Y-149005000D01*
X53393750Y-149005000D02*
X53393750Y-146905000D01*
X52893750Y-146405000D02*
X50293750Y-146405000D01*
X49793750Y-146905000D02*
G75*
G02*
X50293750Y-146405000I500000J0D01*
G01*
X53393750Y-149005000D02*
G75*
G02*
X52893750Y-149505000I-500000J0D01*
G01*
X50293750Y-149505000D02*
G75*
G02*
X49793750Y-149005000I0J500000D01*
G01*
X52893750Y-146405000D02*
G75*
G02*
X53393750Y-146905000I0J-500000D01*
G01*
X107443750Y-92355000D02*
X110043750Y-92355000D01*
X106943750Y-89755000D02*
X106943750Y-91855000D01*
X110543750Y-91855000D02*
X110543750Y-89755000D01*
X110043750Y-89255000D02*
X107443750Y-89255000D01*
X106943750Y-89755000D02*
G75*
G02*
X107443750Y-89255000I500000J0D01*
G01*
X110543750Y-91855000D02*
G75*
G02*
X110043750Y-92355000I-500000J0D01*
G01*
X107443750Y-92355000D02*
G75*
G02*
X106943750Y-91855000I0J500000D01*
G01*
X110043750Y-89255000D02*
G75*
G02*
X110543750Y-89755000I0J-500000D01*
G01*
X107443750Y-130455000D02*
X110043750Y-130455000D01*
X106943750Y-127855000D02*
X106943750Y-129955000D01*
X110543750Y-129955000D02*
X110543750Y-127855000D01*
X110043750Y-127355000D02*
X107443750Y-127355000D01*
X106943750Y-127855000D02*
G75*
G02*
X107443750Y-127355000I500000J0D01*
G01*
X110543750Y-129955000D02*
G75*
G02*
X110043750Y-130455000I-500000J0D01*
G01*
X107443750Y-130455000D02*
G75*
G02*
X106943750Y-129955000I0J500000D01*
G01*
X110043750Y-127355000D02*
G75*
G02*
X110543750Y-127855000I0J-500000D01*
G01*
D10*
X98718750Y-82725000D02*
X98718750Y-76700000D01*
X99718750Y-69675000D02*
X99718750Y-75700000D01*
X98718750Y-76700000D02*
X92693750Y-76700000D01*
X99718750Y-76700000D02*
X99718750Y-82725000D01*
X105743750Y-76700000D02*
X99718750Y-76700000D01*
X92693750Y-73800000D02*
X98718750Y-73800000D01*
X99718750Y-75700000D02*
X105743750Y-75700000D01*
X98718750Y-73800000D02*
X98718750Y-69675000D01*
X92193750Y-76200000D02*
X92193750Y-74300000D01*
X99718750Y-82725000D02*
G75*
G02*
X98718750Y-82725000I-500000J0D01*
G01*
X92693750Y-76700000D02*
G75*
G02*
X92193750Y-76200000I0J500000D01*
G01*
X105743750Y-75700000D02*
G75*
G02*
X105743750Y-76700000I0J-500000D01*
G01*
X98718750Y-69675000D02*
G75*
G02*
X99718750Y-69675000I500000J0D01*
G01*
X92193750Y-74300000D02*
G75*
G02*
X92693750Y-73800000I500000J0D01*
G01*
X48593750Y-73800000D02*
X42568750Y-73800000D01*
X42568750Y-76700000D02*
X48593750Y-76700000D01*
X49093750Y-74300000D02*
X49093750Y-76200000D01*
X48593750Y-73800000D02*
G75*
G02*
X49093750Y-74300000I0J-500000D01*
G01*
X49093750Y-76200000D02*
G75*
G02*
X48593750Y-76700000I-500000J0D01*
G01*
X73643750Y-73800000D02*
X86693750Y-73800000D01*
X79668750Y-82725000D02*
X79668750Y-76700000D01*
X86693750Y-76700000D02*
X80668750Y-76700000D01*
X80668750Y-76700000D02*
X80668750Y-82725000D01*
X79668750Y-76700000D02*
X73643750Y-76700000D01*
X73143750Y-76200000D02*
X73143750Y-74300000D01*
X87193750Y-76200000D02*
X87193750Y-74300000D01*
X73643750Y-76700000D02*
G75*
G02*
X73143750Y-76200000I0J500000D01*
G01*
X80668750Y-82725000D02*
G75*
G02*
X79668750Y-82725000I-500000J0D01*
G01*
X87193750Y-76200000D02*
G75*
G02*
X86693750Y-76700000I-500000J0D01*
G01*
X73143750Y-74300000D02*
G75*
G02*
X73643750Y-73800000I500000J0D01*
G01*
X86693750Y-73800000D02*
G75*
G02*
X87193750Y-74300000I0J-500000D01*
G01*
X54593750Y-73800000D02*
X67643750Y-73800000D01*
X60618750Y-82725000D02*
X60618750Y-76700000D01*
X67643750Y-76700000D02*
X61618750Y-76700000D01*
X61618750Y-76700000D02*
X61618750Y-82725000D01*
X60618750Y-76700000D02*
X54593750Y-76700000D01*
X54093750Y-76200000D02*
X54093750Y-74300000D01*
X68143750Y-76200000D02*
X68143750Y-74300000D01*
X54593750Y-76700000D02*
G75*
G02*
X54093750Y-76200000I0J500000D01*
G01*
X61618750Y-82725000D02*
G75*
G02*
X60618750Y-82725000I-500000J0D01*
G01*
X68143750Y-76200000D02*
G75*
G02*
X67643750Y-76700000I-500000J0D01*
G01*
X54093750Y-74300000D02*
G75*
G02*
X54593750Y-73800000I500000J0D01*
G01*
X67643750Y-73800000D02*
G75*
G02*
X68143750Y-74300000I0J-500000D01*
G01*
X117768750Y-113800000D02*
X117768750Y-107775000D01*
X111743750Y-113800000D02*
X117768750Y-113800000D01*
X117768750Y-114800000D02*
X111743750Y-114800000D01*
X117768750Y-120825000D02*
X117768750Y-114800000D01*
X118768750Y-107775000D02*
X118768750Y-120825000D01*
X111743750Y-114800000D02*
G75*
G02*
X111743750Y-113800000I0J500000D01*
G01*
X118768750Y-120825000D02*
G75*
G02*
X117768750Y-120825000I-500000J0D01*
G01*
X117768750Y-107775000D02*
G75*
G02*
X118768750Y-107775000I500000J0D01*
G01*
X111743750Y-133850000D02*
X117768750Y-133850000D01*
X117768750Y-132850000D02*
X111743750Y-132850000D01*
X111743750Y-133850000D02*
G75*
G02*
X111743750Y-132850000I0J500000D01*
G01*
X117768750Y-126825000D02*
X117768750Y-132850000D01*
X118768750Y-132850000D02*
X118768750Y-126825000D01*
X117768750Y-126825000D02*
G75*
G02*
X118768750Y-126825000I500000J0D01*
G01*
X48593750Y-132850000D02*
X42568750Y-132850000D01*
X42568750Y-133850000D02*
X48593750Y-133850000D01*
X48593750Y-132850000D02*
G75*
G02*
X48593750Y-133850000I0J-500000D01*
G01*
X48593750Y-113800000D02*
X42568750Y-113800000D01*
X42568750Y-114800000D02*
X48593750Y-114800000D01*
X48593750Y-113800000D02*
G75*
G02*
X48593750Y-114800000I0J-500000D01*
G01*
X60618750Y-145875000D02*
X60618750Y-151900000D01*
X61618750Y-151900000D02*
X61618750Y-145875000D01*
X60618750Y-145875000D02*
G75*
G02*
X61618750Y-145875000I500000J0D01*
G01*
X48593750Y-94750000D02*
X42568750Y-94750000D01*
X42568750Y-95750000D02*
X48593750Y-95750000D01*
X48593750Y-94750000D02*
G75*
G02*
X48593750Y-95750000I0J-500000D01*
G01*
X79668750Y-145875000D02*
X79668750Y-151900000D01*
X80668750Y-151900000D02*
X80668750Y-145875000D01*
X79668750Y-145875000D02*
G75*
G02*
X80668750Y-145875000I500000J0D01*
G01*
X98718750Y-145875000D02*
X98718750Y-151900000D01*
X99718750Y-151900000D02*
X99718750Y-145875000D01*
X98718750Y-145875000D02*
G75*
G02*
X99718750Y-145875000I500000J0D01*
G01*
X130793750Y-95750000D02*
X136818750Y-95750000D01*
X136818750Y-94750000D02*
X130793750Y-94750000D01*
X130793750Y-95750000D02*
G75*
G02*
X130793750Y-94750000I0J500000D01*
G01*
X130793750Y-76700000D02*
X136818750Y-76700000D01*
X136818750Y-75700000D02*
X130793750Y-75700000D01*
X130793750Y-76700000D02*
G75*
G02*
X130793750Y-75700000I0J500000D01*
G01*
X118768880Y-63675216D02*
X118768880Y-57650216D01*
X117768880Y-57650216D02*
X117768880Y-63675216D01*
X118768880Y-63675216D02*
G75*
G02*
X117768880Y-63675216I-500000J0D01*
G01*
X99718880Y-63675216D02*
X99718880Y-57650216D01*
X98718880Y-57650216D02*
X98718880Y-63675216D01*
X99718880Y-63675216D02*
G75*
G02*
X98718880Y-63675216I-500000J0D01*
G01*
X111743750Y-75700000D02*
X117768750Y-75700000D01*
X117768750Y-75700000D02*
X117768750Y-69675000D01*
X118768750Y-69675000D02*
X118768750Y-75700000D01*
X118768750Y-75700000D02*
X124793750Y-75700000D01*
X124793750Y-76700000D02*
X118768750Y-76700000D01*
X118768750Y-76700000D02*
X118768750Y-82725000D01*
X117768750Y-82725000D02*
X117768750Y-76700000D01*
X117768750Y-76700000D02*
X111743750Y-76700000D01*
X111743750Y-76700000D02*
G75*
G02*
X111743750Y-75700000I0J500000D01*
G01*
X124793750Y-75700000D02*
G75*
G02*
X124793750Y-76700000I0J-500000D01*
G01*
X118768750Y-82725000D02*
G75*
G02*
X117768750Y-82725000I-500000J0D01*
G01*
X117768750Y-69675000D02*
G75*
G02*
X118768750Y-69675000I500000J0D01*
G01*
X92693750Y-94750000D02*
X98718750Y-94750000D01*
X98718750Y-94750000D02*
X98718750Y-88725000D01*
X99718750Y-88725000D02*
X99718750Y-94750000D01*
X99718750Y-94750000D02*
X105743750Y-94750000D01*
X105743750Y-95750000D02*
X99718750Y-95750000D01*
X99718750Y-95750000D02*
X99718750Y-101775000D01*
X98718750Y-101775000D02*
X98718750Y-95750000D01*
X98718750Y-95750000D02*
X92693750Y-95750000D01*
X92693750Y-95750000D02*
G75*
G02*
X92693750Y-94750000I0J500000D01*
G01*
X105743750Y-94750000D02*
G75*
G02*
X105743750Y-95750000I0J-500000D01*
G01*
X99718750Y-101775000D02*
G75*
G02*
X98718750Y-101775000I-500000J0D01*
G01*
X98718750Y-88725000D02*
G75*
G02*
X99718750Y-88725000I500000J0D01*
G01*
X92693750Y-113800000D02*
X98718750Y-113800000D01*
X98718750Y-113800000D02*
X98718750Y-107775000D01*
X99718750Y-107775000D02*
X99718750Y-113800000D01*
X99718750Y-113800000D02*
X105743750Y-113800000D01*
X105743750Y-114800000D02*
X99718750Y-114800000D01*
X99718750Y-114800000D02*
X99718750Y-120825000D01*
X98718750Y-120825000D02*
X98718750Y-114800000D01*
X98718750Y-114800000D02*
X92693750Y-114800000D01*
X92693750Y-114800000D02*
G75*
G02*
X92693750Y-113800000I0J500000D01*
G01*
X105743750Y-113800000D02*
G75*
G02*
X105743750Y-114800000I0J-500000D01*
G01*
X99718750Y-120825000D02*
G75*
G02*
X98718750Y-120825000I-500000J0D01*
G01*
X98718750Y-107775000D02*
G75*
G02*
X99718750Y-107775000I500000J0D01*
G01*
X92693750Y-132850000D02*
X98718750Y-132850000D01*
X98718750Y-132850000D02*
X98718750Y-126825000D01*
X99718750Y-126825000D02*
X99718750Y-132850000D01*
X99718750Y-132850000D02*
X105743750Y-132850000D01*
X105743750Y-133850000D02*
X99718750Y-133850000D01*
X99718750Y-133850000D02*
X99718750Y-139875000D01*
X98718750Y-139875000D02*
X98718750Y-133850000D01*
X98718750Y-133850000D02*
X92693750Y-133850000D01*
X92693750Y-133850000D02*
G75*
G02*
X92693750Y-132850000I0J500000D01*
G01*
X105743750Y-132850000D02*
G75*
G02*
X105743750Y-133850000I0J-500000D01*
G01*
X99718750Y-139875000D02*
G75*
G02*
X98718750Y-139875000I-500000J0D01*
G01*
X98718750Y-126825000D02*
G75*
G02*
X99718750Y-126825000I500000J0D01*
G01*
X111743750Y-94750000D02*
X117768750Y-94750000D01*
X117768750Y-94750000D02*
X117768750Y-88725000D01*
X118768750Y-88725000D02*
X118768750Y-94750000D01*
X118768750Y-94750000D02*
X124793750Y-94750000D01*
X124793750Y-95750000D02*
X118768750Y-95750000D01*
X118768750Y-95750000D02*
X118768750Y-101775000D01*
X117768750Y-101775000D02*
X117768750Y-95750000D01*
X117768750Y-95750000D02*
X111743750Y-95750000D01*
X111743750Y-95750000D02*
G75*
G02*
X111743750Y-94750000I0J500000D01*
G01*
X124793750Y-94750000D02*
G75*
G02*
X124793750Y-95750000I0J-500000D01*
G01*
X118768750Y-101775000D02*
G75*
G02*
X117768750Y-101775000I-500000J0D01*
G01*
X117768750Y-88725000D02*
G75*
G02*
X118768750Y-88725000I500000J0D01*
G01*
X73643750Y-132850000D02*
X79668750Y-132850000D01*
X79668750Y-132850000D02*
X79668750Y-126825000D01*
X80668750Y-126825000D02*
X80668750Y-132850000D01*
X80668750Y-132850000D02*
X86693750Y-132850000D01*
X86693750Y-133850000D02*
X80668750Y-133850000D01*
X80668750Y-133850000D02*
X80668750Y-139875000D01*
X79668750Y-139875000D02*
X79668750Y-133850000D01*
X79668750Y-133850000D02*
X73643750Y-133850000D01*
X73643750Y-133850000D02*
G75*
G02*
X73643750Y-132850000I0J500000D01*
G01*
X86693750Y-132850000D02*
G75*
G02*
X86693750Y-133850000I0J-500000D01*
G01*
X80668750Y-139875000D02*
G75*
G02*
X79668750Y-139875000I-500000J0D01*
G01*
X79668750Y-126825000D02*
G75*
G02*
X80668750Y-126825000I500000J0D01*
G01*
X73643750Y-94750000D02*
X79668750Y-94750000D01*
X79668750Y-94750000D02*
X79668750Y-88725000D01*
X80668750Y-88725000D02*
X80668750Y-94750000D01*
X80668750Y-94750000D02*
X86693750Y-94750000D01*
X86693750Y-95750000D02*
X80668750Y-95750000D01*
X80668750Y-95750000D02*
X80668750Y-101775000D01*
X79668750Y-101775000D02*
X79668750Y-95750000D01*
X79668750Y-95750000D02*
X73643750Y-95750000D01*
X73643750Y-95750000D02*
G75*
G02*
X73643750Y-94750000I0J500000D01*
G01*
X86693750Y-94750000D02*
G75*
G02*
X86693750Y-95750000I0J-500000D01*
G01*
X80668750Y-101775000D02*
G75*
G02*
X79668750Y-101775000I-500000J0D01*
G01*
X79668750Y-88725000D02*
G75*
G02*
X80668750Y-88725000I500000J0D01*
G01*
X73643750Y-113800000D02*
X79668750Y-113800000D01*
X79668750Y-113800000D02*
X79668750Y-107775000D01*
X80668750Y-107775000D02*
X80668750Y-113800000D01*
X80668750Y-113800000D02*
X86693750Y-113800000D01*
X86693750Y-114800000D02*
X80668750Y-114800000D01*
X80668750Y-114800000D02*
X80668750Y-120825000D01*
X79668750Y-120825000D02*
X79668750Y-114800000D01*
X79668750Y-114800000D02*
X73643750Y-114800000D01*
X73643750Y-114800000D02*
G75*
G02*
X73643750Y-113800000I0J500000D01*
G01*
X86693750Y-113800000D02*
G75*
G02*
X86693750Y-114800000I0J-500000D01*
G01*
X80668750Y-120825000D02*
G75*
G02*
X79668750Y-120825000I-500000J0D01*
G01*
X79668750Y-107775000D02*
G75*
G02*
X80668750Y-107775000I500000J0D01*
G01*
X54593750Y-132850000D02*
X60618750Y-132850000D01*
X60618750Y-132850000D02*
X60618750Y-126825000D01*
X61618750Y-126825000D02*
X61618750Y-132850000D01*
X61618750Y-132850000D02*
X67643750Y-132850000D01*
X67643750Y-133850000D02*
X61618750Y-133850000D01*
X61618750Y-133850000D02*
X61618750Y-139875000D01*
X60618750Y-139875000D02*
X60618750Y-133850000D01*
X60618750Y-133850000D02*
X54593750Y-133850000D01*
X54593750Y-133850000D02*
G75*
G02*
X54593750Y-132850000I0J500000D01*
G01*
X67643750Y-132850000D02*
G75*
G02*
X67643750Y-133850000I0J-500000D01*
G01*
X61618750Y-139875000D02*
G75*
G02*
X60618750Y-139875000I-500000J0D01*
G01*
X60618750Y-126825000D02*
G75*
G02*
X61618750Y-126825000I500000J0D01*
G01*
X54593750Y-94750000D02*
X60618750Y-94750000D01*
X60618750Y-94750000D02*
X60618750Y-88725000D01*
X61618750Y-88725000D02*
X61618750Y-94750000D01*
X61618750Y-94750000D02*
X67643750Y-94750000D01*
X67643750Y-95750000D02*
X61618750Y-95750000D01*
X61618750Y-95750000D02*
X61618750Y-101775000D01*
X60618750Y-101775000D02*
X60618750Y-95750000D01*
X60618750Y-95750000D02*
X54593750Y-95750000D01*
X54593750Y-95750000D02*
G75*
G02*
X54593750Y-94750000I0J500000D01*
G01*
X67643750Y-94750000D02*
G75*
G02*
X67643750Y-95750000I0J-500000D01*
G01*
X61618750Y-101775000D02*
G75*
G02*
X60618750Y-101775000I-500000J0D01*
G01*
X60618750Y-88725000D02*
G75*
G02*
X61618750Y-88725000I500000J0D01*
G01*
X54593750Y-113800000D02*
X60618750Y-113800000D01*
X60618750Y-113800000D02*
X60618750Y-107775000D01*
X61618750Y-107775000D02*
X61618750Y-113800000D01*
X61618750Y-113800000D02*
X67643750Y-113800000D01*
X67643750Y-114800000D02*
X61618750Y-114800000D01*
X61618750Y-114800000D02*
X61618750Y-120825000D01*
X60618750Y-120825000D02*
X60618750Y-114800000D01*
X60618750Y-114800000D02*
X54593750Y-114800000D01*
X54593750Y-114800000D02*
G75*
G02*
X54593750Y-113800000I0J500000D01*
G01*
X67643750Y-113800000D02*
G75*
G02*
X67643750Y-114800000I0J-500000D01*
G01*
X61618750Y-120825000D02*
G75*
G02*
X60618750Y-120825000I-500000J0D01*
G01*
X60618750Y-107775000D02*
G75*
G02*
X61618750Y-107775000I500000J0D01*
G01*
D11*
X124081250Y-136312500D02*
X121981250Y-136312500D01*
X124581250Y-139412500D02*
X124581250Y-136812500D01*
X121981250Y-139912500D02*
X124081250Y-139912500D01*
X121481250Y-136812500D02*
X121481250Y-139412500D01*
X121481250Y-136812500D02*
G75*
G02*
X121981250Y-136312500I500000J0D01*
G01*
X121981250Y-139912500D02*
G75*
G02*
X121481250Y-139412500I0J500000D01*
G01*
X124581250Y-139412500D02*
G75*
G02*
X124081250Y-139912500I-500000J0D01*
G01*
X124081250Y-136312500D02*
G75*
G02*
X124581250Y-136812500I0J-500000D01*
G01*
X131506250Y-145837500D02*
X133606250Y-145837500D01*
X131006250Y-148937500D02*
X131006250Y-146337500D01*
X133606250Y-149437500D02*
X131506250Y-149437500D01*
X134106250Y-146337500D02*
X134106250Y-148937500D01*
X134106250Y-146337500D02*
G75*
G03*
X133606250Y-145837500I-500000J0D01*
G01*
X133606250Y-149437500D02*
G75*
G03*
X134106250Y-148937500I0J500000D01*
G01*
X131006250Y-148937500D02*
G75*
G03*
X131506250Y-149437500I500000J0D01*
G01*
X131506250Y-145837500D02*
G75*
G03*
X131006250Y-146337500I0J-500000D01*
G01*
X131506250Y-136312500D02*
X133606250Y-136312500D01*
X131006250Y-139412500D02*
X131006250Y-136812500D01*
X133606250Y-139912500D02*
X131506250Y-139912500D01*
X134106250Y-136812500D02*
X134106250Y-139412500D01*
X134106250Y-136812500D02*
G75*
G03*
X133606250Y-136312500I-500000J0D01*
G01*
X133606250Y-139912500D02*
G75*
G03*
X134106250Y-139412500I0J500000D01*
G01*
X131006250Y-139412500D02*
G75*
G03*
X131506250Y-139912500I500000J0D01*
G01*
X131506250Y-136312500D02*
G75*
G03*
X131006250Y-136812500I0J-500000D01*
G01*
X124081250Y-145837500D02*
X121981250Y-145837500D01*
X124581250Y-148937500D02*
X124581250Y-146337500D01*
X121981250Y-149437500D02*
X124081250Y-149437500D01*
X121481250Y-146337500D02*
X121481250Y-148937500D01*
X121481250Y-146337500D02*
G75*
G02*
X121981250Y-145837500I500000J0D01*
G01*
X121981250Y-149437500D02*
G75*
G02*
X121481250Y-148937500I0J500000D01*
G01*
X124581250Y-148937500D02*
G75*
G02*
X124081250Y-149437500I-500000J0D01*
G01*
X124081250Y-145837500D02*
G75*
G02*
X124581250Y-146337500I0J-500000D01*
G01*
D10*
X118768750Y-142375000D02*
X118768750Y-140612500D01*
X118768750Y-145137500D02*
X118768750Y-143375000D01*
X117768750Y-140612500D02*
X117768750Y-145137500D01*
X118768750Y-143375000D02*
X120531250Y-143375000D01*
X120531250Y-142375000D02*
X118768750Y-142375000D01*
X120531250Y-142375000D02*
G75*
G02*
X120531250Y-143375000I0J-500000D01*
G01*
X118768750Y-145137500D02*
G75*
G02*
X117768750Y-145137500I-500000J0D01*
G01*
X117768750Y-140612500D02*
G75*
G02*
X118768750Y-140612500I500000J0D01*
G01*
X128293750Y-133850000D02*
X130056250Y-133850000D01*
X125531250Y-133850000D02*
X127293750Y-133850000D01*
X130056250Y-132850000D02*
X125531250Y-132850000D01*
X127293750Y-133850000D02*
X127293750Y-135612500D01*
X128293750Y-135612500D02*
X128293750Y-133850000D01*
X128293750Y-135612500D02*
G75*
G02*
X127293750Y-135612500I-500000J0D01*
G01*
X125531250Y-133850000D02*
G75*
G02*
X125531250Y-132850000I0J500000D01*
G01*
X130056250Y-132850000D02*
G75*
G02*
X130056250Y-133850000I0J-500000D01*
G01*
X128293750Y-145137500D02*
X128293750Y-143375000D01*
X127293750Y-143375000D02*
X127293750Y-145137500D01*
X127293750Y-142375000D02*
X125531250Y-142375000D01*
X125531250Y-143375000D02*
X127293750Y-143375000D01*
X127293750Y-140612500D02*
X127293750Y-142375000D01*
X128293750Y-142375000D02*
X128293750Y-140612500D01*
X128293750Y-143375000D02*
X130056250Y-143375000D01*
X130056250Y-142375000D02*
X128293750Y-142375000D01*
X128293750Y-145137500D02*
G75*
G02*
X127293750Y-145137500I-500000J0D01*
G01*
X125531250Y-143375000D02*
G75*
G02*
X125531250Y-142375000I0J500000D01*
G01*
X127293750Y-140612500D02*
G75*
G02*
X128293750Y-140612500I500000J0D01*
G01*
X130056250Y-142375000D02*
G75*
G02*
X130056250Y-143375000I0J-500000D01*
G01*
X118768750Y-133850000D02*
X120531250Y-133850000D01*
X120531250Y-132850000D02*
X118768750Y-132850000D01*
X120531250Y-132850000D02*
G75*
G02*
X120531250Y-133850000I0J-500000D01*
G01*
X117768750Y-133850000D02*
X117768750Y-135612500D01*
X118768750Y-135612500D02*
X118768750Y-133850000D01*
X118768750Y-135612500D02*
G75*
G02*
X117768750Y-135612500I-500000J0D01*
G01*
X136818750Y-132850000D02*
X135056250Y-132850000D01*
X135056250Y-133850000D02*
X136818750Y-133850000D01*
X135056250Y-133850000D02*
G75*
G02*
X135056250Y-132850000I0J500000D01*
G01*
X136818750Y-142375000D02*
X135056250Y-142375000D01*
X135056250Y-143375000D02*
X136818750Y-143375000D01*
X135056250Y-143375000D02*
G75*
G02*
X135056250Y-142375000I0J500000D01*
G01*
X128293750Y-151900000D02*
X128293750Y-150137500D01*
X127293750Y-150137500D02*
X127293750Y-151900000D01*
X127293750Y-150137500D02*
G75*
G02*
X128293750Y-150137500I500000J0D01*
G01*
X118768750Y-151900000D02*
X118768750Y-150137500D01*
X117768750Y-150137500D02*
X117768750Y-151900000D01*
X117768750Y-150137500D02*
G75*
G02*
X118768750Y-150137500I500000J0D01*
G01*
M02*
