%TF.GenerationSoftware,KiCad,Pcbnew,5.1.12-84ad8e8a86~92~ubuntu20.04.1*%
%TF.CreationDate,2021-11-16T23:21:25+01:00*%
%TF.ProjectId,LergoTopPlate_Alu_Rails_LessRouting,4c657267-6f54-46f7-9050-6c6174655f41,v1.A*%
%TF.SameCoordinates,Original*%
%TF.FileFunction,Legend,Top*%
%TF.FilePolarity,Positive*%
%FSLAX46Y46*%
G04 Gerber Fmt 4.6, Leading zero omitted, Abs format (unit mm)*
G04 Created by KiCad (PCBNEW 5.1.12-84ad8e8a86~92~ubuntu20.04.1) date 2021-11-16 23:21:25*
%MOMM*%
%LPD*%
G01*
G04 APERTURE LIST*
%ADD10C,0.150000*%
%ADD11C,0.500000*%
%ADD12C,0.200000*%
%ADD13C,2.000000*%
%ADD14C,2.200000*%
%ADD15C,1.000000*%
%ADD16C,5.300000*%
%ADD17C,1.200000*%
%ADD18C,2.500000*%
G04 APERTURE END LIST*
D10*
X197625000Y-125043750D02*
X197625000Y-108595000D01*
X141915117Y-130076376D02*
G75*
G02*
X168683749Y-127645001I19845264J-69917224D01*
G01*
X138601923Y-111306885D02*
G75*
G02*
X154836250Y-108595000I23158458J-88686715D01*
G01*
X154836250Y-108595000D02*
X219276250Y-108595000D01*
X233123750Y-127645000D02*
X168683750Y-127645000D01*
X216675000Y-44276250D02*
X216675000Y-125043750D01*
X235725000Y-125043750D02*
X235725000Y-44276250D01*
D11*
X103804761Y-93155952D02*
X102614285Y-93155952D01*
X102614285Y-90655952D01*
X105590476Y-93036904D02*
X105352380Y-93155952D01*
X104876190Y-93155952D01*
X104638095Y-93036904D01*
X104519047Y-92798809D01*
X104519047Y-91846428D01*
X104638095Y-91608333D01*
X104876190Y-91489285D01*
X105352380Y-91489285D01*
X105590476Y-91608333D01*
X105709523Y-91846428D01*
X105709523Y-92084523D01*
X104519047Y-92322619D01*
X106780952Y-93155952D02*
X106780952Y-91489285D01*
X106780952Y-91965476D02*
X106900000Y-91727380D01*
X107019047Y-91608333D01*
X107257142Y-91489285D01*
X107495238Y-91489285D01*
X109400000Y-91489285D02*
X109400000Y-93513095D01*
X109280952Y-93751190D01*
X109161904Y-93870238D01*
X108923809Y-93989285D01*
X108566666Y-93989285D01*
X108328571Y-93870238D01*
X109400000Y-93036904D02*
X109161904Y-93155952D01*
X108685714Y-93155952D01*
X108447619Y-93036904D01*
X108328571Y-92917857D01*
X108209523Y-92679761D01*
X108209523Y-91965476D01*
X108328571Y-91727380D01*
X108447619Y-91608333D01*
X108685714Y-91489285D01*
X109161904Y-91489285D01*
X109400000Y-91608333D01*
X110947619Y-93155952D02*
X110709523Y-93036904D01*
X110590476Y-92917857D01*
X110471428Y-92679761D01*
X110471428Y-91965476D01*
X110590476Y-91727380D01*
X110709523Y-91608333D01*
X110947619Y-91489285D01*
X111304761Y-91489285D01*
X111542857Y-91608333D01*
X111661904Y-91727380D01*
X111780952Y-91965476D01*
X111780952Y-92679761D01*
X111661904Y-92917857D01*
X111542857Y-93036904D01*
X111304761Y-93155952D01*
X110947619Y-93155952D01*
X114519047Y-91489285D02*
X115114285Y-93155952D01*
X115709523Y-91489285D01*
X117971428Y-93155952D02*
X116542857Y-93155952D01*
X117257142Y-93155952D02*
X117257142Y-90655952D01*
X117019047Y-91013095D01*
X116780952Y-91251190D01*
X116542857Y-91370238D01*
X119042857Y-92917857D02*
X119161904Y-93036904D01*
X119042857Y-93155952D01*
X118923809Y-93036904D01*
X119042857Y-92917857D01*
X119042857Y-93155952D01*
X120114285Y-92441666D02*
X121304761Y-92441666D01*
X119876190Y-93155952D02*
X120709523Y-90655952D01*
X121542857Y-93155952D01*
D12*
X96286885Y-144274192D02*
X98761759Y-146749066D01*
X85680283Y-133667591D02*
X88155157Y-136142464D01*
X105500000Y-56887500D02*
X105500000Y-59887500D01*
X118300000Y-41627500D02*
X118300000Y-45127500D01*
X106224838Y-107303216D02*
X109255926Y-105553216D01*
X90973030Y-118355038D02*
X93654186Y-116105281D01*
X134694295Y-130077316D02*
X131460716Y-131416708D01*
X165310001Y-125020001D02*
X161810001Y-125020001D01*
X117520883Y-139464875D02*
X114744146Y-141595540D01*
X124050000Y-96260000D02*
X124050000Y-92760000D01*
X138008463Y-109825115D02*
X139147952Y-113134430D01*
X137850000Y-73710000D02*
X137850000Y-77210000D01*
X124050000Y-58160000D02*
X124050000Y-54660000D01*
X137850000Y-35910000D02*
X137850000Y-39410000D01*
X154810000Y-111220000D02*
X158310000Y-111220000D01*
X189850000Y-125020000D02*
X186350000Y-125020000D01*
X181200000Y-93340000D02*
X181200000Y-89840000D01*
X195000000Y-108890000D02*
X195000000Y-112390000D01*
X195000000Y-70790000D02*
X195000000Y-74290000D01*
X181200000Y-55240000D02*
X181200000Y-51740000D01*
X195000000Y-32990000D02*
X195000000Y-36490000D01*
X143100000Y-92760000D02*
X143100000Y-89260000D01*
X156900000Y-70210000D02*
X156900000Y-73710000D01*
X143100000Y-54660000D02*
X143100000Y-51160000D01*
X156900000Y-32910000D02*
X156900000Y-36410000D01*
X162150000Y-91800000D02*
X162150000Y-88300000D01*
X175950000Y-95520000D02*
X175950000Y-99020000D01*
X175950000Y-69250000D02*
X175950000Y-72750000D01*
X162150000Y-53700000D02*
X162150000Y-50200000D01*
X175950000Y-31950000D02*
X175950000Y-35450000D01*
X200250000Y-95920000D02*
X200250000Y-92420000D01*
X200250000Y-57820000D02*
X200250000Y-54320000D01*
X214050000Y-111470000D02*
X214050000Y-114970000D01*
X214050000Y-73370000D02*
X214050000Y-76870000D01*
X233100000Y-114570000D02*
X233100000Y-118070000D01*
X219300000Y-111100000D02*
X219300000Y-107600000D01*
X219300000Y-73000000D02*
X219300000Y-69500000D01*
X233100000Y-88550000D02*
X233100000Y-92050000D01*
X233100000Y-51250000D02*
X233100000Y-54750000D01*
X214050000Y-36070000D02*
X214050000Y-39570000D01*
D10*
X222504761Y-91061904D02*
X222504761Y-91633333D01*
X222466666Y-91747619D01*
X222390476Y-91823809D01*
X222276190Y-91861904D01*
X222200000Y-91861904D01*
X223266666Y-91861904D02*
X222885714Y-91861904D01*
X222885714Y-91061904D01*
X223990476Y-91785714D02*
X223952380Y-91823809D01*
X223838095Y-91861904D01*
X223761904Y-91861904D01*
X223647619Y-91823809D01*
X223571428Y-91747619D01*
X223533333Y-91671428D01*
X223495238Y-91519047D01*
X223495238Y-91404761D01*
X223533333Y-91252380D01*
X223571428Y-91176190D01*
X223647619Y-91100000D01*
X223761904Y-91061904D01*
X223838095Y-91061904D01*
X223952380Y-91100000D01*
X223990476Y-91138095D01*
X224561904Y-91061904D02*
X224561904Y-91633333D01*
X224523809Y-91747619D01*
X224447619Y-91823809D01*
X224333333Y-91861904D01*
X224257142Y-91861904D01*
X225323809Y-91861904D02*
X224942857Y-91861904D01*
X224942857Y-91061904D01*
X226047619Y-91785714D02*
X226009523Y-91823809D01*
X225895238Y-91861904D01*
X225819047Y-91861904D01*
X225704761Y-91823809D01*
X225628571Y-91747619D01*
X225590476Y-91671428D01*
X225552380Y-91519047D01*
X225552380Y-91404761D01*
X225590476Y-91252380D01*
X225628571Y-91176190D01*
X225704761Y-91100000D01*
X225819047Y-91061904D01*
X225895238Y-91061904D01*
X226009523Y-91100000D01*
X226047619Y-91138095D01*
X226619047Y-91061904D02*
X226619047Y-91633333D01*
X226580952Y-91747619D01*
X226504761Y-91823809D01*
X226390476Y-91861904D01*
X226314285Y-91861904D01*
X227380952Y-91861904D02*
X227000000Y-91861904D01*
X227000000Y-91061904D01*
X228104761Y-91785714D02*
X228066666Y-91823809D01*
X227952380Y-91861904D01*
X227876190Y-91861904D01*
X227761904Y-91823809D01*
X227685714Y-91747619D01*
X227647619Y-91671428D01*
X227609523Y-91519047D01*
X227609523Y-91404761D01*
X227647619Y-91252380D01*
X227685714Y-91176190D01*
X227761904Y-91100000D01*
X227876190Y-91061904D01*
X227952380Y-91061904D01*
X228066666Y-91100000D01*
X228104761Y-91138095D01*
X228676190Y-91061904D02*
X228676190Y-91633333D01*
X228638095Y-91747619D01*
X228561904Y-91823809D01*
X228447619Y-91861904D01*
X228371428Y-91861904D01*
X229438095Y-91861904D02*
X229057142Y-91861904D01*
X229057142Y-91061904D01*
X230161904Y-91785714D02*
X230123809Y-91823809D01*
X230009523Y-91861904D01*
X229933333Y-91861904D01*
X229819047Y-91823809D01*
X229742857Y-91747619D01*
X229704761Y-91671428D01*
X229666666Y-91519047D01*
X229666666Y-91404761D01*
X229704761Y-91252380D01*
X229742857Y-91176190D01*
X229819047Y-91100000D01*
X229933333Y-91061904D01*
X230009523Y-91061904D01*
X230123809Y-91100000D01*
X230161904Y-91138095D01*
%LPC*%
D13*
X120043750Y-84581250D03*
X103756250Y-30157500D03*
X103756250Y-67912500D03*
X120043750Y-67912500D03*
X120043750Y-30157500D03*
X103756250Y-84581250D03*
D14*
X138917245Y-131422627D03*
X134142390Y-112413135D03*
X149488850Y-128767223D03*
D15*
X144713995Y-109757730D03*
D14*
X120645220Y-117880052D03*
X130445220Y-134854150D03*
X111205544Y-123330052D03*
X121005544Y-140304150D03*
X106945463Y-152886146D03*
X93086171Y-139026854D03*
X114652927Y-145178682D03*
X100793635Y-131319390D03*
X93475079Y-139415762D03*
X79615787Y-125556470D03*
X101182543Y-131708298D03*
X87323251Y-117849006D03*
X111480544Y-123806366D03*
X101680544Y-106832268D03*
X120920220Y-118356366D03*
X111120220Y-101382268D03*
D16*
X98638899Y-34932171D03*
X98638899Y-159529137D03*
X232220381Y-136740000D03*
X232220381Y-37928844D03*
D13*
X175973750Y-108595000D03*
X156923750Y-108575000D03*
X144793444Y-109920811D03*
X105500000Y-99000000D03*
X157143750Y-21659375D03*
D17*
X223818750Y-38103125D03*
X219056250Y-33340625D03*
D18*
X221437500Y-35721875D03*
M02*
