%TF.GenerationSoftware,KiCad,Pcbnew,5.1.12-84ad8e8a86~92~ubuntu20.04.1*%
%TF.CreationDate,2021-11-16T23:21:25+01:00*%
%TF.ProjectId,LergoTopPlate_Alu_Rails_LessRouting,4c657267-6f54-46f7-9050-6c6174655f41,v1.A*%
%TF.SameCoordinates,Original*%
%TF.FileFunction,Profile,NP*%
%FSLAX46Y46*%
G04 Gerber Fmt 4.6, Leading zero omitted, Abs format (unit mm)*
G04 Created by KiCad (PCBNEW 5.1.12-84ad8e8a86~92~ubuntu20.04.1) date 2021-11-16 23:21:25*
%MOMM*%
%LPD*%
G01*
G04 APERTURE LIST*
%TA.AperFunction,Profile*%
%ADD10C,0.150000*%
%TD*%
%TA.AperFunction,Profile*%
%ADD11C,0.120000*%
%TD*%
%TA.AperFunction,Profile*%
%ADD12C,0.100000*%
%TD*%
G04 APERTURE END LIST*
D10*
X136393543Y-109737404D02*
G75*
G02*
X136350000Y-109474381I772626J263023D01*
G01*
X125550000Y-99220148D02*
G75*
G02*
X125025806Y-99970640I-800000J461D01*
G01*
X139166169Y-115405255D02*
G75*
G02*
X138149299Y-114909295I-260455J756415D01*
G01*
X182700000Y-111920000D02*
G75*
G02*
X181900000Y-112720000I-800000J0D01*
G01*
X136393543Y-109737404D02*
X136573907Y-110266192D01*
X110049204Y-106827213D02*
G75*
G02*
X125025806Y-99970640I51711177J-93166387D01*
G01*
X125550000Y-96310000D02*
X125549999Y-99220148D01*
X94656669Y-117222208D02*
G75*
G02*
X106931536Y-108627254I67103712J-82771392D01*
G01*
X82694800Y-128560797D02*
G75*
G02*
X91898909Y-119536244I79065581J-71432803D01*
G01*
X81026836Y-128024202D02*
G75*
G02*
X90870449Y-118310572I80733545J-71969398D01*
G01*
X93628210Y-115996538D02*
G75*
G02*
X106131536Y-107241614I68132171J-83997062D01*
G01*
X137745952Y-113670059D02*
X138149299Y-114909295D01*
X139166169Y-115405254D02*
G75*
G02*
X154760000Y-112720000I22594212J-84588346D01*
G01*
X134166302Y-128671947D02*
G75*
G02*
X161760001Y-123520001I27594079J-71321653D01*
G01*
X107687689Y-145916923D02*
G75*
G02*
X113791337Y-140435949I54072692J-54076677D01*
G01*
X116647408Y-138244406D02*
G75*
G02*
X130840497Y-130050022I45112973J-61749194D01*
G01*
X117621428Y-139513771D02*
G75*
G02*
X131452791Y-131528230I44138953J-60479829D01*
G01*
X165360001Y-123520001D02*
X186300000Y-123520000D01*
X108818739Y-147047973D02*
G75*
G02*
X114765355Y-141705313I52941642J-52945627D01*
G01*
X136350000Y-77260000D02*
X136350000Y-109474381D01*
X139258782Y-113149149D02*
X139444588Y-113682956D01*
X137950000Y-77260000D02*
X137950000Y-109342358D01*
X136350000Y-73660000D02*
X136350000Y-39460000D01*
X137950000Y-39460000D02*
X137950000Y-73660000D01*
X125550000Y-54610000D02*
X125550000Y-35860000D01*
X125550000Y-92710000D02*
X125550000Y-58210000D01*
X123950000Y-96310000D02*
X123950000Y-98666504D01*
X123950000Y-58210000D02*
X123950000Y-92710000D01*
X123950000Y-35860000D02*
X123950000Y-54610000D01*
X182700000Y-93390000D02*
X182700000Y-111920000D01*
X158360000Y-112720000D02*
X181900000Y-112720000D01*
X193500000Y-112440000D02*
X193500000Y-123520000D01*
X189900000Y-123520000D02*
X193500000Y-123520000D01*
X189900000Y-125120000D02*
X194300000Y-125120000D01*
X182700000Y-51690000D02*
X182700000Y-32940000D01*
X182700000Y-89790000D02*
X182700000Y-55290000D01*
X181100000Y-93390000D02*
X181100000Y-111120000D01*
X181100000Y-55290000D02*
X181100000Y-89790000D01*
X181100000Y-32940000D02*
X181100000Y-51690000D01*
X193500000Y-70740000D02*
X193500000Y-36540000D01*
X193500000Y-108840000D02*
X193500000Y-74340000D01*
X195100000Y-112440000D02*
X195100000Y-124320000D01*
X195100000Y-74340000D02*
X195100000Y-108840000D01*
X195100000Y-36540000D02*
X195100000Y-70740000D01*
X157000000Y-73760000D02*
X157000000Y-99050000D01*
X157000000Y-36460000D02*
X157000000Y-70160000D01*
X155400000Y-70160000D02*
X155400000Y-36460000D01*
X155400000Y-99050000D02*
X155400000Y-73760000D01*
X144600000Y-92810000D02*
X144600000Y-99050000D01*
X144600000Y-54710000D02*
X144600000Y-89210000D01*
X144600000Y-32860000D02*
X144600000Y-51110000D01*
X143000000Y-51110000D02*
X143000000Y-32860000D01*
X143000000Y-89210000D02*
X143000000Y-54710000D01*
X143000000Y-99050000D02*
X143000000Y-92810000D01*
X174450000Y-69200000D02*
X174450000Y-35500000D01*
X174450000Y-95470000D02*
X174450000Y-72800000D01*
X176050000Y-72800000D02*
X176050000Y-95470000D01*
X176050000Y-35500000D02*
X176050000Y-69200000D01*
X163650000Y-31900000D02*
X163650000Y-50150000D01*
X162050000Y-50150000D02*
X162050000Y-31900000D01*
X163650000Y-53750000D02*
X163650000Y-88250000D01*
X162050000Y-88250000D02*
X162050000Y-53750000D01*
X163650000Y-91850000D02*
X163650000Y-99070000D01*
X162050000Y-99070000D02*
X162050000Y-91850000D01*
X212550000Y-76920000D02*
X212550000Y-111420000D01*
X212550000Y-39620000D02*
X212550000Y-73320000D01*
X214150000Y-73320000D02*
X214150000Y-39620000D01*
X214150000Y-111420000D02*
X214150000Y-76920000D01*
X214150000Y-118120000D02*
X214150000Y-115020000D01*
X212550000Y-118120000D02*
X212550000Y-115020000D01*
X201750000Y-95970000D02*
X201750000Y-118120000D01*
X201750000Y-57870000D02*
X201750000Y-92370000D01*
X201750000Y-36020000D02*
X201750000Y-54270000D01*
X200150000Y-54270000D02*
X200150000Y-36020000D01*
X200150000Y-92370000D02*
X200150000Y-57870000D01*
X200150000Y-118120000D02*
X200150000Y-95970000D01*
X231600000Y-114520000D02*
X231600000Y-92100000D01*
X233200000Y-88500000D02*
X233200000Y-54800000D01*
X233200000Y-114520000D02*
X233200000Y-92100000D01*
X219200000Y-111150000D02*
X219200000Y-118120000D01*
X219200000Y-73050000D02*
X219200000Y-107550000D01*
X219200000Y-51200000D02*
X219200000Y-69450000D01*
X220800000Y-69450000D02*
X220800000Y-51200000D01*
X220800000Y-107550000D02*
X220800000Y-73050000D01*
X220800000Y-118120000D02*
X220800000Y-111150000D01*
X231600000Y-54800000D02*
X231600000Y-88500000D01*
X137950000Y-109342358D02*
X138086737Y-109745282D01*
X109250786Y-105444418D02*
G75*
G02*
X123950000Y-98666504I52509595J-94549182D01*
G01*
X158360000Y-111120000D02*
X181100000Y-111120000D01*
X195100000Y-124320000D02*
G75*
G02*
X194300000Y-125120000I-800000J0D01*
G01*
X139444588Y-113682956D02*
G75*
G02*
X154760001Y-111120001I22315793J-86310644D01*
G01*
X165360001Y-125120001D02*
X186300000Y-125120000D01*
X134778760Y-130150577D02*
G75*
G02*
X161760001Y-125120001I26981621J-69843023D01*
G01*
D11*
X73524848Y-127344018D02*
G75*
G02*
X73524848Y-125929804I707107J707107D01*
G01*
D12*
X95103365Y-148922535D02*
G75*
G02*
X95103365Y-155993603I-3535534J-3535534D01*
G01*
X102174433Y-163064671D02*
G75*
G02*
X95103365Y-155993603I-3535534J3535534D01*
G01*
X98641295Y-39932170D02*
G75*
G02*
X101614896Y-42905771I0J-2973601D01*
G01*
X98641295Y-39932170D02*
G75*
G02*
X96852971Y-30262004I-2396J4999999D01*
G01*
X222220381Y-131740000D02*
G75*
G02*
X227220381Y-136740000I0J-5000000D01*
G01*
X237220381Y-136740000D02*
G75*
G02*
X227220381Y-136740000I-5000000J0D01*
G01*
X101614896Y-101696929D02*
G75*
G02*
X101143092Y-102545766I-1000000J286D01*
G01*
X101614896Y-42905771D02*
X101614896Y-101696929D01*
X234214126Y-33343544D02*
G75*
G02*
X237220381Y-37928844I-1993745J-4585300D01*
G01*
X96852971Y-30262005D02*
G75*
G02*
X234214126Y-33343544I64907410J-169731595D01*
G01*
X80612709Y-118841943D02*
G75*
G02*
X101143092Y-102545766I81147672J-81151657D01*
G01*
X73524848Y-125929804D02*
X80612709Y-118841943D01*
X95103365Y-148922535D02*
X73524848Y-127344018D01*
X113500343Y-151733562D02*
X102174433Y-163064671D01*
X113500343Y-151733562D02*
G75*
G02*
X161760381Y-131743600I48260038J-48260038D01*
G01*
X161760381Y-131743600D02*
X222220381Y-131740000D01*
X237220381Y-37928844D02*
X237220381Y-136740000D01*
D10*
X88155157Y-136283886D02*
X96216174Y-144344903D01*
X89286528Y-135152515D02*
X97347545Y-143213532D01*
X82694892Y-128560880D02*
X86740943Y-132606931D01*
X99893129Y-145759117D02*
X103870605Y-149736592D01*
X98761759Y-146890488D02*
X103304920Y-151433649D01*
X81026905Y-129155634D02*
X85609572Y-133738301D01*
X104436291Y-151433649D02*
X108820353Y-147049587D01*
X103870605Y-149736592D02*
X107688982Y-145918216D01*
X97347546Y-143213533D02*
G75*
G02*
X96216174Y-144344903I-565686J-565685D01*
G01*
X98761759Y-146890487D02*
G75*
G02*
X99893129Y-145759117I565685J565685D01*
G01*
X104436291Y-151433648D02*
G75*
G02*
X103304920Y-151433649I-565686J565685D01*
G01*
X81026905Y-129155635D02*
G75*
G02*
X81026905Y-128024263I565686J565686D01*
G01*
X86740944Y-132606931D02*
G75*
G02*
X85609572Y-133738301I-565686J-565685D01*
G01*
X88155156Y-136283885D02*
G75*
G02*
X89286528Y-135152515I565686J565685D01*
G01*
X157000000Y-105250000D02*
X157000000Y-99050000D01*
X143000000Y-99050000D02*
X143000000Y-105250000D01*
X143800000Y-106050000D02*
X156200000Y-106050000D01*
X144600000Y-104450000D02*
X155400000Y-104450000D01*
X155400000Y-104450000D02*
X155400000Y-99050000D01*
X144600000Y-99050000D02*
X144600000Y-104450000D01*
X143800000Y-106050000D02*
G75*
G02*
X143000000Y-105250000I0J800000D01*
G01*
X157000000Y-105250000D02*
G75*
G02*
X156200000Y-106050000I-800000J0D01*
G01*
X123950000Y-29660000D02*
X123950000Y-35860000D01*
X137950000Y-35860000D02*
X137950000Y-29660000D01*
X137150000Y-28860000D02*
X124750000Y-28860000D01*
X136350000Y-30460000D02*
X125550000Y-30460000D01*
X125550000Y-30460000D02*
X125550000Y-35860000D01*
X136350000Y-35860000D02*
X136350000Y-30460000D01*
X137150000Y-28860000D02*
G75*
G02*
X137950000Y-29660000I0J-800000D01*
G01*
X123950000Y-29660000D02*
G75*
G02*
X124750000Y-28860000I800000J0D01*
G01*
X200150000Y-29820000D02*
X200150000Y-36020000D01*
X214150000Y-36020000D02*
X214150000Y-29820000D01*
X213350000Y-29020000D02*
X200950000Y-29020000D01*
X212550000Y-30620000D02*
X201750000Y-30620000D01*
X201750000Y-30620000D02*
X201750000Y-36020000D01*
X212550000Y-36020000D02*
X212550000Y-30620000D01*
X213350000Y-29020000D02*
G75*
G02*
X214150000Y-29820000I0J-800000D01*
G01*
X200150000Y-29820000D02*
G75*
G02*
X200950000Y-29020000I800000J0D01*
G01*
X181100000Y-26740000D02*
X181100000Y-32940000D01*
X195100000Y-32940000D02*
X195100000Y-26740000D01*
X194300000Y-25940000D02*
X181900000Y-25940000D01*
X193500000Y-27540000D02*
X182700000Y-27540000D01*
X182700000Y-27540000D02*
X182700000Y-32940000D01*
X193500000Y-32940000D02*
X193500000Y-27540000D01*
X194300000Y-25940000D02*
G75*
G02*
X195100000Y-26740000I0J-800000D01*
G01*
X181100000Y-26740000D02*
G75*
G02*
X181900000Y-25940000I800000J0D01*
G01*
X162050000Y-25700000D02*
X162050000Y-31900000D01*
X176050000Y-31900000D02*
X176050000Y-25700000D01*
X175250000Y-24900000D02*
X162850000Y-24900000D01*
X174450000Y-26500000D02*
X163650000Y-26500000D01*
X163650000Y-26500000D02*
X163650000Y-31900000D01*
X174450000Y-31900000D02*
X174450000Y-26500000D01*
X175250000Y-24900000D02*
G75*
G02*
X176050000Y-25700000I0J-800000D01*
G01*
X162050000Y-25700000D02*
G75*
G02*
X162850000Y-24900000I800000J0D01*
G01*
X176050000Y-105270000D02*
X176050000Y-99070000D01*
X162050000Y-99070000D02*
X162050000Y-105270000D01*
X162850000Y-106070000D02*
X175250000Y-106070000D01*
X163650000Y-104470000D02*
X174450000Y-104470000D01*
X174450000Y-104470000D02*
X174450000Y-99070000D01*
X163650000Y-99070000D02*
X163650000Y-104470000D01*
X162850000Y-106070000D02*
G75*
G02*
X162050000Y-105270000I0J800000D01*
G01*
X176050000Y-105270000D02*
G75*
G02*
X175250000Y-106070000I-800000J0D01*
G01*
X143000000Y-26660000D02*
X143000000Y-32860000D01*
X157000000Y-32860000D02*
X157000000Y-26660000D01*
X156200000Y-25860000D02*
X143800000Y-25860000D01*
X155400000Y-27460000D02*
X144600000Y-27460000D01*
X144600000Y-27460000D02*
X144600000Y-32860000D01*
X155400000Y-32860000D02*
X155400000Y-27460000D01*
X156200000Y-25860000D02*
G75*
G02*
X157000000Y-26660000I0J-800000D01*
G01*
X143000000Y-26660000D02*
G75*
G02*
X143800000Y-25860000I800000J0D01*
G01*
X219200000Y-45000000D02*
X219200000Y-51200000D01*
X233200000Y-51200000D02*
X233200000Y-45000000D01*
X232400000Y-44200000D02*
X220000000Y-44200000D01*
X231600000Y-45800000D02*
X220800000Y-45800000D01*
X220800000Y-45800000D02*
X220800000Y-51200000D01*
X231600000Y-51200000D02*
X231600000Y-45800000D01*
X232400000Y-44200000D02*
G75*
G02*
X233200000Y-45000000I0J-800000D01*
G01*
X219200000Y-45000000D02*
G75*
G02*
X220000000Y-44200000I800000J0D01*
G01*
X233200000Y-124320000D02*
X233200000Y-118120000D01*
X219200000Y-118120000D02*
X219200000Y-124320000D01*
X220000000Y-125120000D02*
X232400000Y-125120000D01*
X220800000Y-123520000D02*
X231600000Y-123520000D01*
X231600000Y-123520000D02*
X231600000Y-118120000D01*
X220800000Y-118120000D02*
X220800000Y-123520000D01*
X220000000Y-125120000D02*
G75*
G02*
X219200000Y-124320000I0J800000D01*
G01*
X233200000Y-124320000D02*
G75*
G02*
X232400000Y-125120000I-800000J0D01*
G01*
X214150000Y-124320000D02*
X214150000Y-118120000D01*
X200150000Y-118120000D02*
X200150000Y-124320000D01*
X200950000Y-125120000D02*
X213350000Y-125120000D01*
X201750000Y-123520000D02*
X212550000Y-123520000D01*
X212550000Y-123520000D02*
X212550000Y-118120000D01*
X201750000Y-118120000D02*
X201750000Y-123520000D01*
X200950000Y-125120000D02*
G75*
G02*
X200150000Y-124320000I0J800000D01*
G01*
X214150000Y-124320000D02*
G75*
G02*
X213350000Y-125120000I-800000J0D01*
G01*
D11*
X116800000Y-66727500D02*
X107000000Y-66727500D01*
X107000000Y-66727500D02*
X107000000Y-60187500D01*
X116800000Y-30927500D02*
X116800000Y-41587500D01*
X107000000Y-30927500D02*
X116800000Y-30927500D01*
X106200000Y-29327500D02*
X117600000Y-29327500D01*
X118400000Y-45187500D02*
X118400000Y-67527500D01*
X117600000Y-68327500D02*
X106200000Y-68327500D01*
X105400000Y-67527500D02*
X105400000Y-60187500D01*
X107000000Y-56587500D02*
X107000000Y-30927500D01*
X105400000Y-56587500D02*
X105400000Y-30127500D01*
X118400000Y-30127500D02*
X118400000Y-41587500D01*
X116800000Y-45187500D02*
X116800000Y-66727500D01*
X105400000Y-60187500D02*
G75*
G02*
X107000000Y-60187500I800000J0D01*
G01*
X107000000Y-56587500D02*
G75*
G02*
X105400000Y-56587500I-800000J0D01*
G01*
X116800000Y-45187500D02*
G75*
G02*
X118400000Y-45187500I800000J0D01*
G01*
X118400000Y-41587500D02*
G75*
G02*
X116800000Y-41587500I-800000J0D01*
G01*
X118400000Y-67527500D02*
G75*
G02*
X117600000Y-68327500I-800000J0D01*
G01*
X106200000Y-68327500D02*
G75*
G02*
X105400000Y-67527500I0J800000D01*
G01*
X105400000Y-30127500D02*
G75*
G02*
X106200000Y-29327500I800000J0D01*
G01*
X117600000Y-29327500D02*
G75*
G02*
X118400000Y-30127500I0J-800000D01*
G01*
D10*
X110049228Y-106827255D02*
G75*
G02*
X109249228Y-105441613I-400000J692821D01*
G01*
X106131536Y-107241614D02*
G75*
G02*
X106931536Y-108627254I400000J-692820D01*
G01*
X94656669Y-117222209D02*
G75*
G02*
X93628209Y-115996537I-514230J612836D01*
G01*
X90870449Y-118310572D02*
G75*
G02*
X91898909Y-119536244I514230J-612836D01*
G01*
X130840497Y-130050022D02*
G75*
G02*
X131452791Y-131528230I306147J-739104D01*
G01*
X134778757Y-130150570D02*
G75*
G02*
X134166463Y-128672362I-306147J739104D01*
G01*
X161760001Y-123520001D02*
G75*
G02*
X161760001Y-125120001I0J-800000D01*
G01*
X165360001Y-125120001D02*
G75*
G02*
X165360001Y-123520001I0J800000D01*
G01*
X113791337Y-140435949D02*
G75*
G02*
X114765355Y-141705313I487009J-634682D01*
G01*
X117621428Y-139513771D02*
G75*
G02*
X116647408Y-138244407I-487010J634682D01*
G01*
X125550000Y-92710000D02*
G75*
G02*
X123950000Y-92710000I-800000J0D01*
G01*
X123950000Y-96310000D02*
G75*
G02*
X125550000Y-96310000I800000J0D01*
G01*
X137745952Y-113670059D02*
G75*
G02*
X139258782Y-113149149I756415J260455D01*
G01*
X138086737Y-109745282D02*
G75*
G02*
X136573907Y-110266192I-756415J-260455D01*
G01*
X136350000Y-77260000D02*
G75*
G02*
X137950000Y-77260000I800000J0D01*
G01*
X137950000Y-73660000D02*
G75*
G02*
X136350000Y-73660000I-800000J0D01*
G01*
X125550000Y-54610000D02*
G75*
G02*
X123950000Y-54610000I-800000J0D01*
G01*
X123950000Y-58210000D02*
G75*
G02*
X125550000Y-58210000I800000J0D01*
G01*
X136350000Y-39460000D02*
G75*
G02*
X137950000Y-39460000I800000J0D01*
G01*
X137950000Y-35860000D02*
G75*
G02*
X136350000Y-35860000I-800000J0D01*
G01*
X158360000Y-112720000D02*
G75*
G02*
X158360000Y-111120000I0J800000D01*
G01*
X154760000Y-111120000D02*
G75*
G02*
X154760000Y-112720000I0J-800000D01*
G01*
X186300000Y-123520000D02*
G75*
G02*
X186300000Y-125120000I0J-800000D01*
G01*
X189900000Y-125120000D02*
G75*
G02*
X189900000Y-123520000I0J800000D01*
G01*
X182700000Y-89790000D02*
G75*
G02*
X181100000Y-89790000I-800000J0D01*
G01*
X181100000Y-93390000D02*
G75*
G02*
X182700000Y-93390000I800000J0D01*
G01*
X193500000Y-112440000D02*
G75*
G02*
X195100000Y-112440000I800000J0D01*
G01*
X195100000Y-108840000D02*
G75*
G02*
X193500000Y-108840000I-800000J0D01*
G01*
X193500000Y-74340000D02*
G75*
G02*
X195100000Y-74340000I800000J0D01*
G01*
X195100000Y-70740000D02*
G75*
G02*
X193500000Y-70740000I-800000J0D01*
G01*
X182700000Y-51690000D02*
G75*
G02*
X181100000Y-51690000I-800000J0D01*
G01*
X181100000Y-55290000D02*
G75*
G02*
X182700000Y-55290000I800000J0D01*
G01*
X193500000Y-36540000D02*
G75*
G02*
X195100000Y-36540000I800000J0D01*
G01*
X195100000Y-32940000D02*
G75*
G02*
X193500000Y-32940000I-800000J0D01*
G01*
X144600000Y-89210000D02*
G75*
G02*
X143000000Y-89210000I-800000J0D01*
G01*
X143000000Y-92810000D02*
G75*
G02*
X144600000Y-92810000I800000J0D01*
G01*
X155400000Y-73760000D02*
G75*
G02*
X157000000Y-73760000I800000J0D01*
G01*
X157000000Y-70160000D02*
G75*
G02*
X155400000Y-70160000I-800000J0D01*
G01*
X144600000Y-51110000D02*
G75*
G02*
X143000000Y-51110000I-800000J0D01*
G01*
X143000000Y-54710000D02*
G75*
G02*
X144600000Y-54710000I800000J0D01*
G01*
X155400000Y-36460000D02*
G75*
G02*
X157000000Y-36460000I800000J0D01*
G01*
X157000000Y-32860000D02*
G75*
G02*
X155400000Y-32860000I-800000J0D01*
G01*
X163650000Y-88250000D02*
G75*
G02*
X162050000Y-88250000I-800000J0D01*
G01*
X162050000Y-91850000D02*
G75*
G02*
X163650000Y-91850000I800000J0D01*
G01*
X174450000Y-99070000D02*
G75*
G02*
X176050000Y-99070000I800000J0D01*
G01*
X176050000Y-95470000D02*
G75*
G02*
X174450000Y-95470000I-800000J0D01*
G01*
X174450000Y-72800000D02*
G75*
G02*
X176050000Y-72800000I800000J0D01*
G01*
X176050000Y-69200000D02*
G75*
G02*
X174450000Y-69200000I-800000J0D01*
G01*
X163650000Y-50150000D02*
G75*
G02*
X162050000Y-50150000I-800000J0D01*
G01*
X162050000Y-53750000D02*
G75*
G02*
X163650000Y-53750000I800000J0D01*
G01*
X174450000Y-35500000D02*
G75*
G02*
X176050000Y-35500000I800000J0D01*
G01*
X176050000Y-31900000D02*
G75*
G02*
X174450000Y-31900000I-800000J0D01*
G01*
X201750000Y-92370000D02*
G75*
G02*
X200150000Y-92370000I-800000J0D01*
G01*
X200150000Y-95970000D02*
G75*
G02*
X201750000Y-95970000I800000J0D01*
G01*
X201750000Y-54270000D02*
G75*
G02*
X200150000Y-54270000I-800000J0D01*
G01*
X200150000Y-57870000D02*
G75*
G02*
X201750000Y-57870000I800000J0D01*
G01*
X212550000Y-115020000D02*
G75*
G02*
X214150000Y-115020000I800000J0D01*
G01*
X214150000Y-111420000D02*
G75*
G02*
X212550000Y-111420000I-800000J0D01*
G01*
X212550000Y-76920000D02*
G75*
G02*
X214150000Y-76920000I800000J0D01*
G01*
X214150000Y-73320000D02*
G75*
G02*
X212550000Y-73320000I-800000J0D01*
G01*
X231600000Y-118120000D02*
G75*
G02*
X233200000Y-118120000I800000J0D01*
G01*
X233200000Y-114520000D02*
G75*
G02*
X231600000Y-114520000I-800000J0D01*
G01*
X220800000Y-107550000D02*
G75*
G02*
X219200000Y-107550000I-800000J0D01*
G01*
X219200000Y-111150000D02*
G75*
G02*
X220800000Y-111150000I800000J0D01*
G01*
X220800000Y-69450000D02*
G75*
G02*
X219200000Y-69450000I-800000J0D01*
G01*
X219200000Y-73050000D02*
G75*
G02*
X220800000Y-73050000I800000J0D01*
G01*
X231600000Y-92100000D02*
G75*
G02*
X233200000Y-92100000I800000J0D01*
G01*
X233200000Y-88500000D02*
G75*
G02*
X231600000Y-88500000I-800000J0D01*
G01*
X231600000Y-54800000D02*
G75*
G02*
X233200000Y-54800000I800000J0D01*
G01*
X233200000Y-51200000D02*
G75*
G02*
X231600000Y-51200000I-800000J0D01*
G01*
X212550000Y-39620000D02*
G75*
G02*
X214150000Y-39620000I800000J0D01*
G01*
X214150000Y-36020000D02*
G75*
G02*
X212550000Y-36020000I-800000J0D01*
G01*
M02*
