%FSLAX45Y45*%
G04 Gerber Fmt 4.5, Leading zero omitted, Abs format (unit mm)*
G04 Created by KiCad (PCBNEW 5.1.12-84ad8e8a86~92~ubuntu20.04.1) date 2021-11-16 23:21:28*
%MOMM*%
%LPD*%
G01*
G04 APERTURE LIST*
%TA.AperFunction,Profile*%
%ADD10C,0.150000*%
%TD*%
%TA.AperFunction,Profile*%
%ADD11C,0.120000*%
%TD*%
%TA.AperFunction,Profile*%
%ADD12C,0.100000*%
%TD*%
%ADD13C,0.200000*%
%ADD14C,0.300000*%
G04 APERTURE END LIST*
D10*
X13639354Y-10973740D02*
G75*
G02*
X13635000Y-10947438I77263J26302D01*
G01*
X12555000Y-9922015D02*
G75*
G02*
X12502581Y-9997064I-80000J46D01*
G01*
X13916617Y-11540525D02*
G75*
G02*
X13814930Y-11490929I-26046J75642D01*
G01*
X18270000Y-11192000D02*
G75*
G02*
X18190000Y-11272000I-80000J0D01*
G01*
X13639354Y-10973740D02*
X13657391Y-11026619D01*
X11004920Y-10682721D02*
G75*
G02*
X12502581Y-9997064I5171118J-9316639D01*
G01*
X12555000Y-9631000D02*
X12555000Y-9922015D01*
X9465667Y-11722221D02*
G75*
G02*
X10693154Y-10862725I6710371J-8277139D01*
G01*
X8269480Y-12856080D02*
G75*
G02*
X9189891Y-11953624I7906558J-7143280D01*
G01*
X8102684Y-12802420D02*
G75*
G02*
X9087045Y-11831057I8073354J-7196940D01*
G01*
X9362821Y-11599654D02*
G75*
G02*
X10613154Y-10724161I6813217J-8399706D01*
G01*
X13774595Y-11367006D02*
X13814930Y-11490929D01*
X13916617Y-11540525D02*
G75*
G02*
X15476000Y-11272000I2259421J-8458835D01*
G01*
X13416630Y-12867195D02*
G75*
G02*
X16176000Y-12352000I2759408J-7132165D01*
G01*
X10768769Y-14591692D02*
G75*
G02*
X11379134Y-14043595I5407269J-5407668D01*
G01*
X11664741Y-13824441D02*
G75*
G02*
X13084050Y-13005002I4511297J-6174919D01*
G01*
X11762143Y-13951377D02*
G75*
G02*
X13145279Y-13152823I4413895J-6047983D01*
G01*
X16536000Y-12352000D02*
X18630000Y-12352000D01*
X10881874Y-14704797D02*
G75*
G02*
X11476535Y-14170531I5294164J-5294563D01*
G01*
X13635000Y-7726000D02*
X13635000Y-10947438D01*
X13925878Y-11314915D02*
X13944459Y-11368296D01*
X13795000Y-7726000D02*
X13795000Y-10934236D01*
X13635000Y-7366000D02*
X13635000Y-3946000D01*
X13795000Y-3946000D02*
X13795000Y-7366000D01*
X12555000Y-5461000D02*
X12555000Y-3586000D01*
X12555000Y-9271000D02*
X12555000Y-5821000D01*
X12395000Y-9631000D02*
X12395000Y-9866650D01*
X12395000Y-5821000D02*
X12395000Y-9271000D01*
X12395000Y-3586000D02*
X12395000Y-5461000D01*
X18270000Y-9339000D02*
X18270000Y-11192000D01*
X15836000Y-11272000D02*
X18190000Y-11272000D01*
X19350000Y-11244000D02*
X19350000Y-12352000D01*
X18990000Y-12352000D02*
X19350000Y-12352000D01*
X18990000Y-12512000D02*
X19430000Y-12512000D01*
X18270000Y-5169000D02*
X18270000Y-3294000D01*
X18270000Y-8979000D02*
X18270000Y-5529000D01*
X18110000Y-9339000D02*
X18110000Y-11112000D01*
X18110000Y-5529000D02*
X18110000Y-8979000D01*
X18110000Y-3294000D02*
X18110000Y-5169000D01*
X19350000Y-7074000D02*
X19350000Y-3654000D01*
X19350000Y-10884000D02*
X19350000Y-7434000D01*
X19510000Y-11244000D02*
X19510000Y-12432000D01*
X19510000Y-7434000D02*
X19510000Y-10884000D01*
X19510000Y-3654000D02*
X19510000Y-7074000D01*
X15700000Y-7376000D02*
X15700000Y-9905000D01*
X15700000Y-3646000D02*
X15700000Y-7016000D01*
X15540000Y-7016000D02*
X15540000Y-3646000D01*
X15540000Y-9905000D02*
X15540000Y-7376000D01*
X14460000Y-9281000D02*
X14460000Y-9905000D01*
X14460000Y-5471000D02*
X14460000Y-8921000D01*
X14460000Y-3286000D02*
X14460000Y-5111000D01*
X14300000Y-5111000D02*
X14300000Y-3286000D01*
X14300000Y-8921000D02*
X14300000Y-5471000D01*
X14300000Y-9905000D02*
X14300000Y-9281000D01*
X17445000Y-6920000D02*
X17445000Y-3550000D01*
X17445000Y-9547000D02*
X17445000Y-7280000D01*
X17605000Y-7280000D02*
X17605000Y-9547000D01*
X17605000Y-3550000D02*
X17605000Y-6920000D01*
X16365000Y-3190000D02*
X16365000Y-5015000D01*
X16205000Y-5015000D02*
X16205000Y-3190000D01*
X16365000Y-5375000D02*
X16365000Y-8825000D01*
X16205000Y-8825000D02*
X16205000Y-5375000D01*
X16365000Y-9185000D02*
X16365000Y-9907000D01*
X16205000Y-9907000D02*
X16205000Y-9185000D01*
X21255000Y-7692000D02*
X21255000Y-11142000D01*
X21255000Y-3962000D02*
X21255000Y-7332000D01*
X21415000Y-7332000D02*
X21415000Y-3962000D01*
X21415000Y-11142000D02*
X21415000Y-7692000D01*
X21415000Y-11812000D02*
X21415000Y-11502000D01*
X21255000Y-11812000D02*
X21255000Y-11502000D01*
X20175000Y-9597000D02*
X20175000Y-11812000D01*
X20175000Y-5787000D02*
X20175000Y-9237000D01*
X20175000Y-3602000D02*
X20175000Y-5427000D01*
X20015000Y-5427000D02*
X20015000Y-3602000D01*
X20015000Y-9237000D02*
X20015000Y-5787000D01*
X20015000Y-11812000D02*
X20015000Y-9597000D01*
X23160000Y-11452000D02*
X23160000Y-9210000D01*
X23320000Y-8850000D02*
X23320000Y-5480000D01*
X23320000Y-11452000D02*
X23320000Y-9210000D01*
X21920000Y-11115000D02*
X21920000Y-11812000D01*
X21920000Y-7305000D02*
X21920000Y-10755000D01*
X21920000Y-5120000D02*
X21920000Y-6945000D01*
X22080000Y-6945000D02*
X22080000Y-5120000D01*
X22080000Y-10755000D02*
X22080000Y-7305000D01*
X22080000Y-11812000D02*
X22080000Y-11115000D01*
X23160000Y-5480000D02*
X23160000Y-8850000D01*
X13795000Y-10934236D02*
X13808674Y-10974528D01*
X10925079Y-10544442D02*
G75*
G02*
X12395000Y-9866650I5250959J-9454918D01*
G01*
X15836000Y-11112000D02*
X18110000Y-11112000D01*
X19510000Y-12432000D02*
G75*
G02*
X19430000Y-12512000I-80000J0D01*
G01*
X13944459Y-11368296D02*
G75*
G02*
X15476000Y-11112000I2231579J-8631064D01*
G01*
X16536000Y-12512000D02*
X18630000Y-12512000D01*
X13477876Y-13015058D02*
G75*
G02*
X16176000Y-12512000I2698162J-6984302D01*
G01*
D11*
X7352485Y-12734402D02*
G75*
G02*
X7352485Y-12592980I70711J70711D01*
G01*
D12*
X9510337Y-14892253D02*
G75*
G02*
X9510337Y-15599360I-353553J-353553D01*
G01*
X10217443Y-16306467D02*
G75*
G02*
X9510337Y-15599360I-353553J353553D01*
G01*
X9864130Y-3993217D02*
G75*
G02*
X10161490Y-4290577I0J-297360D01*
G01*
X9864130Y-3993217D02*
G75*
G02*
X9685297Y-3026200I-240J500000D01*
G01*
X22222038Y-13174000D02*
G75*
G02*
X22722038Y-13674000I0J-500000D01*
G01*
X23722038Y-13674000D02*
G75*
G02*
X22722038Y-13674000I-500000J0D01*
G01*
X10161490Y-10169693D02*
G75*
G02*
X10114309Y-10254577I-100000J29D01*
G01*
X10161490Y-4290577D02*
X10161490Y-10169693D01*
X23421413Y-3334354D02*
G75*
G02*
X23722038Y-3792884I-199375J-458530D01*
G01*
X9685297Y-3026200D02*
G75*
G02*
X23421413Y-3334354I6490741J-16973160D01*
G01*
X8061271Y-11884194D02*
G75*
G02*
X10114309Y-10254577I8114767J-8115166D01*
G01*
X7352485Y-12592980D02*
X8061271Y-11884194D01*
X9510337Y-14892253D02*
X7352485Y-12734402D01*
X11350034Y-15173356D02*
X10217443Y-16306467D01*
X11350034Y-15173356D02*
G75*
G02*
X16176038Y-13174360I4826004J-4826004D01*
G01*
X16176038Y-13174360D02*
X22222038Y-13174000D01*
X23722038Y-3792884D02*
X23722038Y-13674000D01*
D13*
D14*
X7603624Y-16923628D02*
X7603624Y-16623628D01*
X7675052Y-16623628D01*
X7717910Y-16637914D01*
X7746481Y-16666485D01*
X7760767Y-16695057D01*
X7775052Y-16752199D01*
X7775052Y-16795057D01*
X7760767Y-16852200D01*
X7746481Y-16880771D01*
X7717910Y-16909342D01*
X7675052Y-16923628D01*
X7603624Y-16923628D01*
X7903624Y-16923628D02*
X7903624Y-16723628D01*
X7903624Y-16780771D02*
X7917910Y-16752199D01*
X7932195Y-16737914D01*
X7960767Y-16723628D01*
X7989338Y-16723628D01*
X8089338Y-16923628D02*
X8089338Y-16723628D01*
X8089338Y-16623628D02*
X8075052Y-16637914D01*
X8089338Y-16652199D01*
X8103624Y-16637914D01*
X8089338Y-16623628D01*
X8089338Y-16652199D01*
X8275052Y-16923628D02*
X8246481Y-16909342D01*
X8232195Y-16880771D01*
X8232195Y-16623628D01*
X8432195Y-16923628D02*
X8403624Y-16909342D01*
X8389338Y-16880771D01*
X8389338Y-16623628D01*
X8775053Y-16923628D02*
X8775053Y-16623628D01*
X8875053Y-16837914D01*
X8975053Y-16623628D01*
X8975053Y-16923628D01*
X9246481Y-16923628D02*
X9246481Y-16766485D01*
X9232195Y-16737914D01*
X9203624Y-16723628D01*
X9146481Y-16723628D01*
X9117910Y-16737914D01*
X9246481Y-16909342D02*
X9217910Y-16923628D01*
X9146481Y-16923628D01*
X9117910Y-16909342D01*
X9103624Y-16880771D01*
X9103624Y-16852200D01*
X9117910Y-16823628D01*
X9146481Y-16809342D01*
X9217910Y-16809342D01*
X9246481Y-16795057D01*
X9389338Y-16723628D02*
X9389338Y-17023628D01*
X9389338Y-16737914D02*
X9417910Y-16723628D01*
X9475053Y-16723628D01*
X9503624Y-16737914D01*
X9517910Y-16752199D01*
X9532195Y-16780771D01*
X9532195Y-16866485D01*
X9517910Y-16895057D01*
X9503624Y-16909342D01*
X9475053Y-16923628D01*
X9417910Y-16923628D01*
X9389338Y-16909342D01*
X9660767Y-16895057D02*
X9675053Y-16909342D01*
X9660767Y-16923628D01*
X9646481Y-16909342D01*
X9660767Y-16895057D01*
X9660767Y-16923628D01*
X9660767Y-16737914D02*
X9675053Y-16752199D01*
X9660767Y-16766485D01*
X9646481Y-16752199D01*
X9660767Y-16737914D01*
X9660767Y-16766485D01*
M02*
