%TF.GenerationSoftware,KiCad,Pcbnew,5.1.12-84ad8e8a86~92~ubuntu20.04.1*%
%TF.CreationDate,2021-11-17T00:00:43+01:00*%
%TF.ProjectId,LergoTopPlate_FR4_LessRouting,4c657267-6f54-46f7-9050-6c6174655f46,v1.A*%
%TF.SameCoordinates,Original*%
%TF.FileFunction,Legend,Top*%
%TF.FilePolarity,Positive*%
%FSLAX46Y46*%
G04 Gerber Fmt 4.6, Leading zero omitted, Abs format (unit mm)*
G04 Created by KiCad (PCBNEW 5.1.12-84ad8e8a86~92~ubuntu20.04.1) date 2021-11-17 00:00:43*
%MOMM*%
%LPD*%
G01*
G04 APERTURE LIST*
%ADD10C,0.500000*%
%ADD11C,0.200000*%
%ADD12C,0.150000*%
%ADD13C,2.000000*%
%ADD14C,0.500000*%
%ADD15C,2.200000*%
%ADD16C,5.300000*%
%ADD17C,1.200000*%
%ADD18C,2.500000*%
G04 APERTURE END LIST*
D10*
X103804761Y-93155952D02*
X102614285Y-93155952D01*
X102614285Y-90655952D01*
X105590476Y-93036904D02*
X105352380Y-93155952D01*
X104876190Y-93155952D01*
X104638095Y-93036904D01*
X104519047Y-92798809D01*
X104519047Y-91846428D01*
X104638095Y-91608333D01*
X104876190Y-91489285D01*
X105352380Y-91489285D01*
X105590476Y-91608333D01*
X105709523Y-91846428D01*
X105709523Y-92084523D01*
X104519047Y-92322619D01*
X106780952Y-93155952D02*
X106780952Y-91489285D01*
X106780952Y-91965476D02*
X106900000Y-91727380D01*
X107019047Y-91608333D01*
X107257142Y-91489285D01*
X107495238Y-91489285D01*
X109400000Y-91489285D02*
X109400000Y-93513095D01*
X109280952Y-93751190D01*
X109161904Y-93870238D01*
X108923809Y-93989285D01*
X108566666Y-93989285D01*
X108328571Y-93870238D01*
X109400000Y-93036904D02*
X109161904Y-93155952D01*
X108685714Y-93155952D01*
X108447619Y-93036904D01*
X108328571Y-92917857D01*
X108209523Y-92679761D01*
X108209523Y-91965476D01*
X108328571Y-91727380D01*
X108447619Y-91608333D01*
X108685714Y-91489285D01*
X109161904Y-91489285D01*
X109400000Y-91608333D01*
X110947619Y-93155952D02*
X110709523Y-93036904D01*
X110590476Y-92917857D01*
X110471428Y-92679761D01*
X110471428Y-91965476D01*
X110590476Y-91727380D01*
X110709523Y-91608333D01*
X110947619Y-91489285D01*
X111304761Y-91489285D01*
X111542857Y-91608333D01*
X111661904Y-91727380D01*
X111780952Y-91965476D01*
X111780952Y-92679761D01*
X111661904Y-92917857D01*
X111542857Y-93036904D01*
X111304761Y-93155952D01*
X110947619Y-93155952D01*
X114519047Y-91489285D02*
X115114285Y-93155952D01*
X115709523Y-91489285D01*
X117971428Y-93155952D02*
X116542857Y-93155952D01*
X117257142Y-93155952D02*
X117257142Y-90655952D01*
X117019047Y-91013095D01*
X116780952Y-91251190D01*
X116542857Y-91370238D01*
X119042857Y-92917857D02*
X119161904Y-93036904D01*
X119042857Y-93155952D01*
X118923809Y-93036904D01*
X119042857Y-92917857D01*
X119042857Y-93155952D01*
X120114285Y-92441666D02*
X121304761Y-92441666D01*
X119876190Y-93155952D02*
X120709523Y-90655952D01*
X121542857Y-93155952D01*
D11*
X92322673Y-128430575D02*
X90201353Y-130551896D01*
X104069479Y-140177393D02*
X101948164Y-142298707D01*
X95650489Y-124121649D02*
X97418256Y-125889416D01*
X99893129Y-128364290D02*
X101660896Y-130132057D01*
X102368003Y-130839164D02*
X104135770Y-132606931D01*
X106610644Y-135081804D02*
X108170698Y-136641859D01*
X86100128Y-134087435D02*
X87660182Y-135647490D01*
X90135056Y-138122363D02*
X91902823Y-139890130D01*
X92609930Y-140597237D02*
X94377697Y-142365004D01*
X96852570Y-144839878D02*
X98412625Y-146399932D01*
X100052234Y-136160136D02*
X97930914Y-138281457D01*
X96339924Y-132447826D02*
X94218603Y-134569146D01*
X93317042Y-129424944D02*
X91195722Y-131546265D01*
X103075116Y-139183018D02*
X100953795Y-141304338D01*
X109810302Y-145918216D02*
X107688987Y-148039530D01*
X86581844Y-122689758D02*
X84460524Y-124811078D01*
X113203765Y-112894727D02*
X110605689Y-114394727D01*
X121510008Y-127281579D02*
X118911939Y-128781575D01*
X117533420Y-109593926D02*
X118783420Y-111758990D01*
X120533420Y-114790079D02*
X121783420Y-116955142D01*
X122283420Y-117821168D02*
X123533420Y-119986231D01*
X125283420Y-123017320D02*
X126386545Y-124927989D01*
X105729145Y-116748321D02*
X106832270Y-118658990D01*
X108582270Y-121690079D02*
X109832270Y-123855142D01*
X110332270Y-124721168D02*
X111582270Y-126886231D01*
X113332270Y-129917320D02*
X114435395Y-131827989D01*
X118669390Y-122361468D02*
X116071314Y-123861468D01*
X116044390Y-117814834D02*
X113446314Y-119314834D01*
X113906890Y-114112576D02*
X111308814Y-115612576D01*
X120806890Y-126063726D02*
X118208814Y-127563726D01*
X125569383Y-134312622D02*
X122971314Y-135812618D01*
X109144383Y-105863688D02*
X106546307Y-107363688D01*
X173910000Y-116620000D02*
X173910000Y-119620000D01*
X187710000Y-116620000D02*
X187710000Y-119620000D01*
X133521883Y-121246963D02*
X134298340Y-124144740D01*
X146851660Y-117675260D02*
X147628117Y-120573037D01*
X219300000Y-109050000D02*
X219300000Y-112050000D01*
X233100000Y-109050000D02*
X233100000Y-112050000D01*
X219300000Y-90000000D02*
X219300000Y-93000000D01*
X233100000Y-90000000D02*
X233100000Y-93000000D01*
X219300000Y-70950000D02*
X219300000Y-73950000D01*
X233100000Y-70950000D02*
X233100000Y-73950000D01*
X219300000Y-51900000D02*
X219300000Y-54900000D01*
X233100000Y-51900000D02*
X233100000Y-54900000D01*
D12*
X233200000Y-63400000D02*
X219200000Y-63400000D01*
X219200000Y-63400000D02*
X219200000Y-59900000D01*
X233200000Y-63400000D02*
X233200000Y-59900000D01*
X216200000Y-60400000D02*
X216200000Y-46400000D01*
X216200000Y-46400000D02*
X219700000Y-46400000D01*
X216200000Y-60400000D02*
X219700000Y-60400000D01*
X219200000Y-43400000D02*
X219200000Y-46900000D01*
X233200000Y-43400000D02*
X233200000Y-46900000D01*
X219200000Y-43400000D02*
X233200000Y-43400000D01*
X236200000Y-60400000D02*
X232700000Y-60400000D01*
X236200000Y-46400000D02*
X232700000Y-46400000D01*
X236200000Y-46400000D02*
X236200000Y-60400000D01*
X219200000Y-62450000D02*
X233200000Y-62450000D01*
X219200000Y-62450000D02*
X219200000Y-65950000D01*
X233200000Y-62450000D02*
X233200000Y-65950000D01*
X216200000Y-79450000D02*
X216200000Y-65450000D01*
X216200000Y-65450000D02*
X219700000Y-65450000D01*
X216200000Y-79450000D02*
X219700000Y-79450000D01*
X233200000Y-82450000D02*
X233200000Y-78950000D01*
X219200000Y-82450000D02*
X219200000Y-78950000D01*
X233200000Y-82450000D02*
X219200000Y-82450000D01*
X236200000Y-65450000D02*
X232700000Y-65450000D01*
X236200000Y-79450000D02*
X232700000Y-79450000D01*
X236200000Y-65450000D02*
X236200000Y-79450000D01*
X219200000Y-81500000D02*
X233200000Y-81500000D01*
X233200000Y-81500000D02*
X233200000Y-85000000D01*
X219200000Y-81500000D02*
X219200000Y-85000000D01*
X236200000Y-84500000D02*
X236200000Y-98500000D01*
X236200000Y-98500000D02*
X232700000Y-98500000D01*
X236200000Y-84500000D02*
X232700000Y-84500000D01*
X233200000Y-101500000D02*
X233200000Y-98000000D01*
X219200000Y-101500000D02*
X219200000Y-98000000D01*
X233200000Y-101500000D02*
X219200000Y-101500000D01*
X216200000Y-84500000D02*
X219700000Y-84500000D01*
X216200000Y-98500000D02*
X219700000Y-98500000D01*
X216200000Y-98500000D02*
X216200000Y-84500000D01*
X233200000Y-120550000D02*
X219200000Y-120550000D01*
X233200000Y-120550000D02*
X233200000Y-117050000D01*
X219200000Y-120550000D02*
X219200000Y-117050000D01*
X236200000Y-103550000D02*
X236200000Y-117550000D01*
X236200000Y-117550000D02*
X232700000Y-117550000D01*
X236200000Y-103550000D02*
X232700000Y-103550000D01*
X219200000Y-100550000D02*
X219200000Y-104050000D01*
X233200000Y-100550000D02*
X233200000Y-104050000D01*
X219200000Y-100550000D02*
X233200000Y-100550000D01*
X216200000Y-117550000D02*
X219700000Y-117550000D01*
X216200000Y-103550000D02*
X219700000Y-103550000D01*
X216200000Y-117550000D02*
X216200000Y-103550000D01*
X187810000Y-128120000D02*
X173810000Y-128120000D01*
X173810000Y-128120000D02*
X173810000Y-124620000D01*
X187810000Y-128120000D02*
X187810000Y-124620000D01*
X170810000Y-125120000D02*
X170810000Y-111120000D01*
X170810000Y-111120000D02*
X174310000Y-111120000D01*
X170810000Y-125120000D02*
X174310000Y-125120000D01*
X173810000Y-108120000D02*
X173810000Y-111620000D01*
X187810000Y-108120000D02*
X187810000Y-111620000D01*
X173810000Y-108120000D02*
X187810000Y-108120000D01*
X190810000Y-125120000D02*
X187310000Y-125120000D01*
X190810000Y-111120000D02*
X187310000Y-111120000D01*
X190810000Y-111120000D02*
X190810000Y-125120000D01*
X171760000Y-111120000D02*
X171760000Y-125120000D01*
X171760000Y-111120000D02*
X168260000Y-111120000D01*
X171760000Y-125120000D02*
X168260000Y-125120000D01*
X154760000Y-108120000D02*
X168760000Y-108120000D01*
X168760000Y-108120000D02*
X168760000Y-111620000D01*
X154760000Y-108120000D02*
X154760000Y-111620000D01*
X151760000Y-125120000D02*
X155260000Y-125120000D01*
X151760000Y-111120000D02*
X155260000Y-111120000D01*
X151760000Y-125120000D02*
X151760000Y-111120000D01*
X168760000Y-128120000D02*
X168760000Y-124620000D01*
X154760000Y-128120000D02*
X154760000Y-124620000D01*
X168760000Y-128120000D02*
X154760000Y-128120000D01*
X149920537Y-128760778D02*
X136397576Y-132384245D01*
X136397576Y-132384245D02*
X135491709Y-129003504D01*
X149920537Y-128760778D02*
X149014671Y-125380038D01*
X132723341Y-130262924D02*
X129099874Y-116739963D01*
X129099874Y-116739963D02*
X132480615Y-115834096D01*
X132723341Y-130262924D02*
X136104081Y-129357058D01*
X131221195Y-113065728D02*
X132127061Y-116446468D01*
X144744156Y-109442261D02*
X145650023Y-112823002D01*
X131221195Y-113065728D02*
X144744156Y-109442261D01*
X152041858Y-125086543D02*
X148661117Y-125992410D01*
X148418391Y-111563582D02*
X145037651Y-112469448D01*
X148418391Y-111563582D02*
X152041858Y-125086543D01*
D11*
X124050000Y-42900000D02*
X124050000Y-45900000D01*
X137850000Y-42900000D02*
X137850000Y-45900000D01*
X143100000Y-59450000D02*
X143100000Y-62450000D01*
X156900000Y-59450000D02*
X156900000Y-62450000D01*
X200250000Y-70950000D02*
X200250000Y-73950000D01*
X214050000Y-70950000D02*
X214050000Y-73950000D01*
X200250000Y-90000000D02*
X200250000Y-93000000D01*
X214050000Y-90000000D02*
X214050000Y-93000000D01*
X181200000Y-78000000D02*
X181200000Y-81000000D01*
X195000000Y-78000000D02*
X195000000Y-81000000D01*
X162150000Y-72000000D02*
X162150000Y-75000000D01*
X175950000Y-72000000D02*
X175950000Y-75000000D01*
X124050000Y-81000000D02*
X124050000Y-84000000D01*
X137850000Y-81000000D02*
X137850000Y-84000000D01*
X143100000Y-78500000D02*
X143100000Y-81500000D01*
X156900000Y-78500000D02*
X156900000Y-81500000D01*
X124050000Y-100050000D02*
X124050000Y-103050000D01*
X137850000Y-100050000D02*
X137850000Y-103050000D01*
X124050000Y-61950000D02*
X124050000Y-64950000D01*
X137850000Y-61950000D02*
X137850000Y-64950000D01*
X143100000Y-40400000D02*
X143100000Y-43400000D01*
X156900000Y-40400000D02*
X156900000Y-43400000D01*
X162150000Y-91050000D02*
X162150000Y-94050000D01*
X175950000Y-91050000D02*
X175950000Y-94050000D01*
X162150000Y-52950000D02*
X162150000Y-55950000D01*
X175950000Y-52950000D02*
X175950000Y-55950000D01*
X162150000Y-33900000D02*
X162150000Y-36900000D01*
X175950000Y-33900000D02*
X175950000Y-36900000D01*
X181200000Y-97050000D02*
X181200000Y-100050000D01*
X195000000Y-97050000D02*
X195000000Y-100050000D01*
X181200000Y-58950000D02*
X181200000Y-61950000D01*
X195000000Y-58950000D02*
X195000000Y-61950000D01*
X181200000Y-39900000D02*
X181200000Y-42900000D01*
X195000000Y-39900000D02*
X195000000Y-42900000D01*
X200250000Y-109050000D02*
X200250000Y-112050000D01*
X214050000Y-109050000D02*
X214050000Y-112050000D01*
X200250000Y-51900000D02*
X200250000Y-54900000D01*
X214050000Y-51900000D02*
X214050000Y-54900000D01*
X143100000Y-97550000D02*
X143100000Y-100550000D01*
X156900000Y-97550000D02*
X156900000Y-100550000D01*
X105500000Y-56887500D02*
X105500000Y-59887500D01*
X118300000Y-41887500D02*
X118300000Y-44887500D01*
D12*
X103011134Y-145685039D02*
X102607073Y-146089100D01*
X102809103Y-145887069D02*
X102101996Y-145179962D01*
X102135668Y-145348321D01*
X102135668Y-145483008D01*
X102101996Y-145584023D01*
X103145821Y-144607543D02*
X103617225Y-145078947D01*
X102842775Y-144910588D02*
X103213164Y-145280978D01*
X103314179Y-145314649D01*
X103415195Y-145280978D01*
X103516210Y-145179962D01*
X103549882Y-145078947D01*
X103549882Y-145011604D01*
X104492691Y-144203482D02*
X103785584Y-143496375D01*
X104054958Y-143765749D02*
X104088630Y-143664734D01*
X104223317Y-143530047D01*
X104324332Y-143496375D01*
X104391675Y-143496375D01*
X104492691Y-143530047D01*
X104694721Y-143732077D01*
X104728393Y-143833092D01*
X104728393Y-143900436D01*
X104694721Y-144001451D01*
X104560034Y-144136138D01*
X104459019Y-144169810D01*
X105233469Y-143462703D02*
X105132454Y-143496375D01*
X105065110Y-143496375D01*
X104964095Y-143462703D01*
X104762065Y-143260673D01*
X104728393Y-143159657D01*
X104728393Y-143092314D01*
X104762065Y-142991299D01*
X104863080Y-142890283D01*
X104964095Y-142856612D01*
X105031439Y-142856612D01*
X105132454Y-142890283D01*
X105334484Y-143092314D01*
X105368156Y-143193329D01*
X105368156Y-143260673D01*
X105334484Y-143361688D01*
X105233469Y-143462703D01*
X105199797Y-142553566D02*
X105469171Y-142284192D01*
X105065110Y-142216848D02*
X105671202Y-142822940D01*
X105772217Y-142856612D01*
X105873232Y-142822940D01*
X105940576Y-142755596D01*
X105603858Y-142149505D02*
X105873232Y-141880131D01*
X105469171Y-141812787D02*
X106075263Y-142418879D01*
X106176278Y-142452551D01*
X106277293Y-142418879D01*
X106344637Y-142351535D01*
X106681354Y-142014818D02*
X106580339Y-142048490D01*
X106512996Y-142048490D01*
X106411980Y-142014818D01*
X106209950Y-141812787D01*
X106176278Y-141711772D01*
X106176278Y-141644429D01*
X106209950Y-141543413D01*
X106310965Y-141442398D01*
X106411980Y-141408726D01*
X106479324Y-141408726D01*
X106580339Y-141442398D01*
X106782370Y-141644429D01*
X106816041Y-141745444D01*
X106816041Y-141812787D01*
X106782370Y-141913803D01*
X106681354Y-142014818D01*
X107220102Y-141476070D02*
X106748698Y-141004665D01*
X106816041Y-141072009D02*
X106816041Y-141004665D01*
X106849713Y-140903650D01*
X106950728Y-140802635D01*
X107051744Y-140768963D01*
X107152759Y-140802635D01*
X107523148Y-141173024D01*
X107152759Y-140802635D02*
X107119087Y-140701620D01*
X107152759Y-140600604D01*
X107253774Y-140499589D01*
X107354789Y-140465917D01*
X107455805Y-140499589D01*
X107826194Y-140869978D01*
X85788032Y-130515914D02*
X85788032Y-130448570D01*
X85821704Y-130347555D01*
X85990062Y-130179196D01*
X86091078Y-130145525D01*
X86158421Y-130145525D01*
X86259436Y-130179196D01*
X86326780Y-130246540D01*
X86394123Y-130381227D01*
X86394123Y-131189349D01*
X86831856Y-130751616D01*
X86966543Y-129674120D02*
X87437948Y-130145525D01*
X86663497Y-129977166D02*
X87033887Y-130347555D01*
X87134902Y-130381227D01*
X87235917Y-130347555D01*
X87336932Y-130246540D01*
X87370604Y-130145525D01*
X87370604Y-130078181D01*
X88246070Y-129270059D02*
X88347085Y-129236387D01*
X88481772Y-129101700D01*
X88515444Y-129000685D01*
X88481772Y-128899670D01*
X88448100Y-128865998D01*
X88347085Y-128832326D01*
X88246070Y-128865998D01*
X88145054Y-128967013D01*
X88044039Y-129000685D01*
X87943024Y-128967013D01*
X87909352Y-128933342D01*
X87875680Y-128832326D01*
X87909352Y-128731311D01*
X88010367Y-128630296D01*
X88111383Y-128596624D01*
X88313413Y-128327250D02*
X88582787Y-128057876D01*
X88178726Y-127990533D02*
X88784818Y-128596624D01*
X88885833Y-128630296D01*
X88986848Y-128596624D01*
X89054192Y-128529281D01*
X89592940Y-127990533D02*
X89222550Y-127620143D01*
X89121535Y-127586472D01*
X89020520Y-127620143D01*
X88885833Y-127754830D01*
X88852161Y-127855846D01*
X89559268Y-127956861D02*
X89525596Y-128057876D01*
X89357238Y-128226235D01*
X89256222Y-128259907D01*
X89155207Y-128226235D01*
X89087863Y-128158891D01*
X89054192Y-128057876D01*
X89087863Y-127956861D01*
X89256222Y-127788502D01*
X89289894Y-127687487D01*
X89929657Y-127653815D02*
X89222550Y-126946708D01*
X89491925Y-127216082D02*
X89525596Y-127115067D01*
X89660283Y-126980380D01*
X89761299Y-126946708D01*
X89828642Y-126946708D01*
X89929657Y-126980380D01*
X90131688Y-127182410D01*
X90165360Y-127283426D01*
X90165360Y-127350769D01*
X90131688Y-127451784D01*
X89997001Y-127586472D01*
X89895986Y-127620143D01*
X90569421Y-127014052D02*
X90098016Y-126542647D01*
X89862314Y-126306945D02*
X89862314Y-126374288D01*
X89929657Y-126374288D01*
X89929657Y-126306945D01*
X89862314Y-126306945D01*
X89929657Y-126374288D01*
X91007153Y-126576319D02*
X90906138Y-126609991D01*
X90805123Y-126576319D01*
X90199031Y-125970227D01*
X91276527Y-126306945D02*
X90805123Y-125835540D01*
X90569421Y-125599838D02*
X90569421Y-125667182D01*
X90636764Y-125667182D01*
X90636764Y-125599838D01*
X90569421Y-125599838D01*
X90636764Y-125667182D01*
X91545901Y-125970227D02*
X91646917Y-125936556D01*
X91781604Y-125801869D01*
X91815275Y-125700853D01*
X91781604Y-125599838D01*
X91747932Y-125566166D01*
X91646917Y-125532495D01*
X91545901Y-125566166D01*
X91444886Y-125667182D01*
X91343871Y-125700853D01*
X91242856Y-125667182D01*
X91209184Y-125633510D01*
X91175512Y-125532495D01*
X91209184Y-125431479D01*
X91310199Y-125330464D01*
X91411214Y-125296792D01*
X92421367Y-125094762D02*
X92387695Y-125195777D01*
X92253008Y-125330464D01*
X92151993Y-125364136D01*
X92050978Y-125330464D01*
X91781604Y-125061090D01*
X91747932Y-124960075D01*
X91781604Y-124859060D01*
X91916291Y-124724373D01*
X92017306Y-124690701D01*
X92118321Y-124724373D01*
X92185665Y-124791716D01*
X91916291Y-125195777D01*
X92791756Y-124791716D02*
X92320352Y-124320312D01*
X92455039Y-124454999D02*
X92421367Y-124353983D01*
X92421367Y-124286640D01*
X92455039Y-124185625D01*
X92522382Y-124118281D01*
X86680333Y-127367605D02*
X86276272Y-127771666D01*
X86478303Y-127569636D02*
X85771196Y-126862529D01*
X85804868Y-127030888D01*
X85804868Y-127165575D01*
X85771196Y-127266590D01*
X86815020Y-126290109D02*
X87286425Y-126761514D01*
X86511974Y-126593155D02*
X86882364Y-126963544D01*
X86983379Y-126997216D01*
X87084394Y-126963544D01*
X87185409Y-126862529D01*
X87219081Y-126761514D01*
X87219081Y-126694170D01*
X87589471Y-125515659D02*
X87858845Y-125246285D01*
X87454783Y-125178941D02*
X88060875Y-125785033D01*
X88161890Y-125818705D01*
X88262906Y-125785033D01*
X88330249Y-125717689D01*
X88666967Y-125380972D02*
X88565951Y-125414643D01*
X88498608Y-125414643D01*
X88397593Y-125380972D01*
X88195562Y-125178941D01*
X88161890Y-125077926D01*
X88161890Y-125010582D01*
X88195562Y-124909567D01*
X88296577Y-124808552D01*
X88397593Y-124774880D01*
X88464936Y-124774880D01*
X88565951Y-124808552D01*
X88767982Y-125010582D01*
X88801654Y-125111598D01*
X88801654Y-125178941D01*
X88767982Y-125279956D01*
X88666967Y-125380972D01*
X88734310Y-124370819D02*
X89441417Y-125077926D01*
X88767982Y-124404491D02*
X88801654Y-124303476D01*
X88936341Y-124168789D01*
X89037356Y-124135117D01*
X89104699Y-124135117D01*
X89205715Y-124168789D01*
X89407745Y-124370819D01*
X89441417Y-124471834D01*
X89441417Y-124539178D01*
X89407745Y-124640193D01*
X89273058Y-124774880D01*
X89172043Y-124808552D01*
X103112149Y-147840031D02*
X103112149Y-147772687D01*
X103145821Y-147671672D01*
X103314179Y-147503313D01*
X103415195Y-147469642D01*
X103482538Y-147469642D01*
X103583553Y-147503313D01*
X103650897Y-147570657D01*
X103718240Y-147705344D01*
X103718240Y-148513466D01*
X104155973Y-148075733D01*
X104290660Y-146998237D02*
X104762065Y-147469642D01*
X103987614Y-147301283D02*
X104358004Y-147671672D01*
X104459019Y-147705344D01*
X104560034Y-147671672D01*
X104661049Y-147570657D01*
X104694721Y-147469642D01*
X104694721Y-147402298D01*
X105570187Y-146594176D02*
X105671202Y-146560504D01*
X105805889Y-146425817D01*
X105839561Y-146324802D01*
X105805889Y-146223787D01*
X105772217Y-146190115D01*
X105671202Y-146156443D01*
X105570187Y-146190115D01*
X105469171Y-146291130D01*
X105368156Y-146324802D01*
X105267141Y-146291130D01*
X105233469Y-146257459D01*
X105199797Y-146156443D01*
X105233469Y-146055428D01*
X105334484Y-145954413D01*
X105435500Y-145920741D01*
X105637530Y-145651367D02*
X105906904Y-145381993D01*
X105502843Y-145314650D02*
X106108935Y-145920741D01*
X106209950Y-145954413D01*
X106310965Y-145920741D01*
X106378309Y-145853398D01*
X106917057Y-145314650D02*
X106546667Y-144944260D01*
X106445652Y-144910589D01*
X106344637Y-144944260D01*
X106209950Y-145078947D01*
X106176278Y-145179963D01*
X106883385Y-145280978D02*
X106849713Y-145381993D01*
X106681355Y-145550352D01*
X106580339Y-145584024D01*
X106479324Y-145550352D01*
X106411980Y-145483008D01*
X106378309Y-145381993D01*
X106411980Y-145280978D01*
X106580339Y-145112619D01*
X106614011Y-145011604D01*
X107253774Y-144977932D02*
X106546667Y-144270825D01*
X106816042Y-144540199D02*
X106849713Y-144439184D01*
X106984400Y-144304497D01*
X107085416Y-144270825D01*
X107152759Y-144270825D01*
X107253774Y-144304497D01*
X107455805Y-144506527D01*
X107489477Y-144607543D01*
X107489477Y-144674886D01*
X107455805Y-144775901D01*
X107321118Y-144910589D01*
X107220103Y-144944260D01*
X107893538Y-144338169D02*
X107422133Y-143866764D01*
X107186431Y-143631062D02*
X107186431Y-143698405D01*
X107253774Y-143698405D01*
X107253774Y-143631062D01*
X107186431Y-143631062D01*
X107253774Y-143698405D01*
X108331270Y-143900436D02*
X108230255Y-143934108D01*
X108129240Y-143900436D01*
X107523148Y-143294344D01*
X108600644Y-143631062D02*
X108129240Y-143159657D01*
X107893538Y-142923955D02*
X107893538Y-142991299D01*
X107960881Y-142991299D01*
X107960881Y-142923955D01*
X107893538Y-142923955D01*
X107960881Y-142991299D01*
X108870018Y-143294344D02*
X108971034Y-143260673D01*
X109105721Y-143125986D01*
X109139392Y-143024970D01*
X109105721Y-142923955D01*
X109072049Y-142890283D01*
X108971034Y-142856612D01*
X108870018Y-142890283D01*
X108769003Y-142991299D01*
X108667988Y-143024970D01*
X108566973Y-142991299D01*
X108533301Y-142957627D01*
X108499629Y-142856612D01*
X108533301Y-142755596D01*
X108634316Y-142654581D01*
X108735331Y-142620909D01*
X109745484Y-142418879D02*
X109711812Y-142519894D01*
X109577125Y-142654581D01*
X109476110Y-142688253D01*
X109375095Y-142654581D01*
X109105721Y-142385207D01*
X109072049Y-142284192D01*
X109105721Y-142183177D01*
X109240408Y-142048490D01*
X109341423Y-142014818D01*
X109442438Y-142048490D01*
X109509782Y-142115833D01*
X109240408Y-142519894D01*
X110115873Y-142115833D02*
X109644469Y-141644429D01*
X109779156Y-141779116D02*
X109745484Y-141678100D01*
X109745484Y-141610757D01*
X109779156Y-141509742D01*
X109846499Y-141442398D01*
X89736886Y-135441249D02*
X89736886Y-135373906D01*
X89770558Y-135272891D01*
X89938917Y-135104532D01*
X90039932Y-135070860D01*
X90107276Y-135070860D01*
X90208291Y-135104532D01*
X90275634Y-135171875D01*
X90342978Y-135306562D01*
X90342978Y-136114684D01*
X90780711Y-135676952D01*
X90915398Y-134599455D02*
X91386802Y-135070860D01*
X90612352Y-134902501D02*
X90982741Y-135272891D01*
X91083757Y-135306562D01*
X91184772Y-135272891D01*
X91285787Y-135171875D01*
X91319459Y-135070860D01*
X91319459Y-135003517D01*
X92026566Y-132949540D02*
X92329611Y-134464768D01*
X93912184Y-132545479D02*
X93508123Y-132949540D01*
X93710153Y-132747509D02*
X93003046Y-132040402D01*
X93036718Y-132208761D01*
X93036718Y-132343448D01*
X93003046Y-132444463D01*
X94046871Y-131467983D02*
X94518275Y-131939387D01*
X93743825Y-131771028D02*
X94114214Y-132141418D01*
X94215229Y-132175089D01*
X94316245Y-132141418D01*
X94417260Y-132040402D01*
X94450932Y-131939387D01*
X94450932Y-131872044D01*
X95865145Y-131131265D02*
X95797802Y-131131265D01*
X95629443Y-131097593D01*
X95528428Y-131063922D01*
X95393741Y-130996578D01*
X95191710Y-130861891D01*
X95057023Y-130727204D01*
X94922336Y-130525174D01*
X94854993Y-130390487D01*
X94821321Y-130289471D01*
X94787649Y-130121113D01*
X94787649Y-130053769D01*
X96168191Y-130289471D02*
X95797802Y-129919082D01*
X95696786Y-129885410D01*
X95595771Y-129919082D01*
X95461084Y-130053769D01*
X95427412Y-130154784D01*
X96134519Y-130255800D02*
X96100847Y-130356815D01*
X95932489Y-130525174D01*
X95831473Y-130558845D01*
X95730458Y-130525174D01*
X95663115Y-130457830D01*
X95629443Y-130356815D01*
X95663115Y-130255800D01*
X95831473Y-130087441D01*
X95865145Y-129986426D01*
X96033504Y-129481349D02*
X96504908Y-129952754D01*
X96100847Y-129548693D02*
X96100847Y-129481349D01*
X96134519Y-129380334D01*
X96235534Y-129279319D01*
X96336550Y-129245647D01*
X96437565Y-129279319D01*
X96807954Y-129649708D01*
X96605924Y-128908929D02*
X97245687Y-129211975D01*
X96942641Y-128572212D02*
X97245687Y-129211975D01*
X97346702Y-129447678D01*
X97346702Y-129515021D01*
X97313031Y-129616036D01*
X97885450Y-129110960D02*
X97885450Y-129043616D01*
X97851779Y-128875258D01*
X97818107Y-128774242D01*
X97750763Y-128639555D01*
X97616076Y-128437525D01*
X97481389Y-128302838D01*
X97279359Y-128168151D01*
X97144672Y-128100807D01*
X97043657Y-128067136D01*
X96875298Y-128033464D01*
X96807954Y-128033464D01*
X96454401Y-142158764D02*
X96454401Y-142091421D01*
X96488073Y-141990406D01*
X96656432Y-141822047D01*
X96757447Y-141788375D01*
X96824791Y-141788375D01*
X96925806Y-141822047D01*
X96993149Y-141889390D01*
X97060493Y-142024077D01*
X97060493Y-142832199D01*
X97498226Y-142394467D01*
X97632913Y-141316970D02*
X98104317Y-141788375D01*
X97329867Y-141620016D02*
X97700256Y-141990406D01*
X97801272Y-142024077D01*
X97902287Y-141990406D01*
X98003302Y-141889390D01*
X98036974Y-141788375D01*
X98036974Y-141721032D01*
X98744081Y-139667055D02*
X99047126Y-141182283D01*
X100629699Y-139262994D02*
X100225638Y-139667055D01*
X100427668Y-139465024D02*
X99720561Y-138757917D01*
X99754233Y-138926276D01*
X99754233Y-139060963D01*
X99720561Y-139161978D01*
X100764386Y-138185498D02*
X101235790Y-138656902D01*
X100461340Y-138488543D02*
X100831729Y-138858933D01*
X100932744Y-138892604D01*
X101033760Y-138858933D01*
X101134775Y-138757917D01*
X101168447Y-138656902D01*
X101168447Y-138589559D01*
X102582660Y-137848780D02*
X102515317Y-137848780D01*
X102346958Y-137815108D01*
X102245943Y-137781437D01*
X102111256Y-137714093D01*
X101909225Y-137579406D01*
X101774538Y-137444719D01*
X101639851Y-137242689D01*
X101572508Y-137108002D01*
X101538836Y-137006986D01*
X101505164Y-136838628D01*
X101505164Y-136771284D01*
X102885706Y-137006986D02*
X102515317Y-136636597D01*
X102414301Y-136602925D01*
X102313286Y-136636597D01*
X102178599Y-136771284D01*
X102144927Y-136872299D01*
X102852034Y-136973315D02*
X102818362Y-137074330D01*
X102650004Y-137242689D01*
X102548988Y-137276360D01*
X102447973Y-137242689D01*
X102380630Y-137175345D01*
X102346958Y-137074330D01*
X102380630Y-136973315D01*
X102548988Y-136804956D01*
X102582660Y-136703941D01*
X102751019Y-136198864D02*
X103222423Y-136670269D01*
X102818362Y-136266208D02*
X102818362Y-136198864D01*
X102852034Y-136097849D01*
X102953049Y-135996834D01*
X103054065Y-135963162D01*
X103155080Y-135996834D01*
X103525469Y-136367223D01*
X103323439Y-135626444D02*
X103963202Y-135929490D01*
X103660156Y-135289727D02*
X103963202Y-135929490D01*
X104064217Y-136165193D01*
X104064217Y-136232536D01*
X104030546Y-136333551D01*
X104602965Y-135828475D02*
X104602965Y-135761131D01*
X104569294Y-135592773D01*
X104535622Y-135491757D01*
X104468278Y-135357070D01*
X104333591Y-135155040D01*
X104198904Y-135020353D01*
X103996874Y-134885666D01*
X103862187Y-134818322D01*
X103761172Y-134784651D01*
X103592813Y-134750979D01*
X103525469Y-134750979D01*
X94526694Y-137234271D02*
X94122633Y-137638332D01*
X94324663Y-137436301D02*
X93617556Y-136729194D01*
X93651228Y-136897553D01*
X93651228Y-137032240D01*
X93617556Y-137133255D01*
X94661381Y-136156775D02*
X95132785Y-136628179D01*
X94358335Y-136459820D02*
X94728724Y-136830210D01*
X94829739Y-136863881D01*
X94930755Y-136830210D01*
X95031770Y-136729194D01*
X95065442Y-136628179D01*
X95065442Y-136560836D01*
X96277625Y-135415996D02*
X96243953Y-135517011D01*
X96109266Y-135651698D01*
X96008251Y-135685370D01*
X95940907Y-135685370D01*
X95839892Y-135651698D01*
X95637861Y-135449668D01*
X95604190Y-135348653D01*
X95604190Y-135281309D01*
X95637861Y-135180294D01*
X95772548Y-135045607D01*
X95873564Y-135011935D01*
X96850045Y-134843576D02*
X96816373Y-134944592D01*
X96681686Y-135079279D01*
X96580671Y-135112950D01*
X96479655Y-135079279D01*
X96210281Y-134809905D01*
X96176609Y-134708889D01*
X96210281Y-134607874D01*
X96344968Y-134473187D01*
X96445984Y-134439515D01*
X96546999Y-134473187D01*
X96614342Y-134540530D01*
X96344968Y-134944592D01*
X96749029Y-134069126D02*
X97220434Y-134540530D01*
X96816373Y-134136469D02*
X96816373Y-134069126D01*
X96850045Y-133968111D01*
X96951060Y-133867095D01*
X97052075Y-133833424D01*
X97153090Y-133867095D01*
X97523480Y-134237485D01*
X97287777Y-133530378D02*
X97557151Y-133261004D01*
X97153090Y-133193660D02*
X97759182Y-133799752D01*
X97860197Y-133833424D01*
X97961212Y-133799752D01*
X98028556Y-133732408D01*
X98264258Y-133496706D02*
X97792854Y-133025302D01*
X97927541Y-133159989D02*
X97893869Y-133058973D01*
X97893869Y-132991630D01*
X97927541Y-132890615D01*
X97994884Y-132823271D01*
X99005037Y-132755928D02*
X98634647Y-132385538D01*
X98533632Y-132351867D01*
X98432617Y-132385538D01*
X98297930Y-132520225D01*
X98264258Y-132621241D01*
X98971365Y-132722256D02*
X98937693Y-132823271D01*
X98769334Y-132991630D01*
X98668319Y-133025302D01*
X98567304Y-132991630D01*
X98499960Y-132924286D01*
X98466289Y-132823271D01*
X98499960Y-132722256D01*
X98668319Y-132553897D01*
X98701991Y-132452882D01*
X99442769Y-132318195D02*
X99341754Y-132351867D01*
X99240739Y-132318195D01*
X98634647Y-131712103D01*
X97018403Y-136291461D02*
X97018403Y-136224118D01*
X97052074Y-136123102D01*
X97220433Y-135954743D01*
X97321448Y-135921072D01*
X97388792Y-135921072D01*
X97489807Y-135954743D01*
X97557151Y-136022087D01*
X97624494Y-136156774D01*
X97624494Y-136964896D01*
X98062227Y-136527163D01*
X98196914Y-135449667D02*
X98668319Y-135921072D01*
X97893868Y-135752713D02*
X98264258Y-136123102D01*
X98365273Y-136156774D01*
X98466288Y-136123102D01*
X98567303Y-136022087D01*
X98600975Y-135921072D01*
X98600975Y-135853728D01*
X119062241Y-132327635D02*
X118567369Y-132613350D01*
X118814805Y-132470493D02*
X118314805Y-131604467D01*
X118303755Y-131775804D01*
X118268895Y-131905902D01*
X118210226Y-131994760D01*
X119471215Y-131321714D02*
X119804548Y-131899064D01*
X119100061Y-131535999D02*
X119361966Y-131989632D01*
X119450824Y-132048301D01*
X119557113Y-132041921D01*
X119680830Y-131970493D01*
X119739500Y-131881634D01*
X119756929Y-131816585D01*
X120876770Y-131280016D02*
X120376770Y-130413991D01*
X120567246Y-130743905D02*
X120625916Y-130655047D01*
X120790873Y-130559809D01*
X120897161Y-130553429D01*
X120962210Y-130570859D01*
X121051068Y-130629528D01*
X121193925Y-130876964D01*
X121200305Y-130983252D01*
X121182875Y-131048301D01*
X121124206Y-131137159D01*
X120959249Y-131232397D01*
X120852961Y-131238777D01*
X121784035Y-130756207D02*
X121677747Y-130762587D01*
X121612698Y-130745157D01*
X121523840Y-130686488D01*
X121380983Y-130439052D01*
X121374603Y-130332764D01*
X121392033Y-130267715D01*
X121450702Y-130178857D01*
X121574420Y-130107428D01*
X121680708Y-130101048D01*
X121745757Y-130118478D01*
X121834615Y-130177147D01*
X121977472Y-130424583D01*
X121983852Y-130530871D01*
X121966422Y-130595920D01*
X121907753Y-130684778D01*
X121784035Y-130756207D01*
X121986813Y-129869333D02*
X122316727Y-129678857D01*
X121943864Y-129509229D02*
X122372435Y-130251537D01*
X122461294Y-130310206D01*
X122567582Y-130303826D01*
X122650060Y-130256207D01*
X122481684Y-129583619D02*
X122811599Y-129393142D01*
X122438736Y-129223515D02*
X122867307Y-129965822D01*
X122956165Y-130024491D01*
X123062453Y-130018112D01*
X123144932Y-129970493D01*
X123557325Y-129732397D02*
X123451037Y-129738777D01*
X123385988Y-129721347D01*
X123297130Y-129662678D01*
X123154273Y-129415242D01*
X123147893Y-129308954D01*
X123165323Y-129243905D01*
X123223992Y-129155047D01*
X123347710Y-129083619D01*
X123453998Y-129077239D01*
X123519047Y-129094669D01*
X123607905Y-129153338D01*
X123750762Y-129400773D01*
X123757142Y-129507062D01*
X123739712Y-129572110D01*
X123681043Y-129660969D01*
X123557325Y-129732397D01*
X124217154Y-129351445D02*
X123883821Y-128774095D01*
X123931440Y-128856573D02*
X123948869Y-128791525D01*
X124007539Y-128702666D01*
X124131256Y-128631238D01*
X124237545Y-128624858D01*
X124326403Y-128683527D01*
X124588308Y-129137159D01*
X124326403Y-128683527D02*
X124320023Y-128577239D01*
X124378692Y-128488380D01*
X124502410Y-128416952D01*
X124608698Y-128410572D01*
X124697557Y-128469241D01*
X124959461Y-128922874D01*
X106352061Y-113217721D02*
X106369491Y-113152672D01*
X106428160Y-113063814D01*
X106634356Y-112944766D01*
X106740645Y-112938387D01*
X106805693Y-112955816D01*
X106894552Y-113014485D01*
X106942171Y-113096964D01*
X106972360Y-113244492D01*
X106763203Y-114025077D01*
X107299314Y-113715554D01*
X107708288Y-112709632D02*
X108041621Y-113286982D01*
X107337134Y-112923918D02*
X107599039Y-113377550D01*
X107687897Y-113436219D01*
X107794185Y-113429839D01*
X107917903Y-113358411D01*
X107976572Y-113269552D01*
X107994002Y-113204504D01*
X109048794Y-112650505D02*
X109155082Y-112644125D01*
X109320040Y-112548887D01*
X109378709Y-112460029D01*
X109372329Y-112353741D01*
X109348519Y-112312501D01*
X109259661Y-112253832D01*
X109153373Y-112260212D01*
X109029655Y-112331640D01*
X108923367Y-112338020D01*
X108834509Y-112279351D01*
X108810699Y-112238112D01*
X108804319Y-112131824D01*
X108862988Y-112042965D01*
X108986706Y-111971537D01*
X109092994Y-111965157D01*
X109357860Y-111757251D02*
X109687775Y-111566775D01*
X109314911Y-111397147D02*
X109743483Y-112139455D01*
X109832341Y-112198124D01*
X109938629Y-112191744D01*
X110021108Y-112144125D01*
X110680937Y-111763173D02*
X110419032Y-111309540D01*
X110330174Y-111250871D01*
X110223885Y-111257251D01*
X110058928Y-111352489D01*
X110000259Y-111441347D01*
X110657127Y-111721933D02*
X110598458Y-111810792D01*
X110392262Y-111929839D01*
X110285973Y-111936219D01*
X110197115Y-111877550D01*
X110149496Y-111795071D01*
X110143116Y-111688783D01*
X110201785Y-111599925D01*
X110407982Y-111480877D01*
X110466651Y-111392019D01*
X111093330Y-111525077D02*
X110593330Y-110659052D01*
X110783806Y-110988967D02*
X110842475Y-110900108D01*
X111007432Y-110804870D01*
X111113720Y-110798490D01*
X111178769Y-110815920D01*
X111267628Y-110874589D01*
X111410485Y-111122025D01*
X111416864Y-111228313D01*
X111399435Y-111293362D01*
X111340766Y-111382220D01*
X111175808Y-111477458D01*
X111069520Y-111483838D01*
X111876877Y-111072697D02*
X111543543Y-110495346D01*
X111376877Y-110206671D02*
X111359447Y-110271720D01*
X111424496Y-110289150D01*
X111441925Y-110224101D01*
X111376877Y-110206671D01*
X111424496Y-110289150D01*
X112412988Y-110763173D02*
X112306699Y-110769552D01*
X112217841Y-110710883D01*
X111789270Y-109968576D01*
X112742902Y-110572697D02*
X112409569Y-109995346D01*
X112242902Y-109706671D02*
X112225472Y-109771720D01*
X112290521Y-109789150D01*
X112307951Y-109724101D01*
X112242902Y-109706671D01*
X112290521Y-109789150D01*
X113090246Y-110317171D02*
X113196534Y-110310792D01*
X113361492Y-110215554D01*
X113420161Y-110126695D01*
X113413781Y-110020407D01*
X113389971Y-109979168D01*
X113301113Y-109920499D01*
X113194825Y-109926879D01*
X113071107Y-109998307D01*
X112964819Y-110004687D01*
X112875960Y-109946018D01*
X112852151Y-109904778D01*
X112845771Y-109798490D01*
X112904440Y-109709632D01*
X113028158Y-109638203D01*
X113134446Y-109631824D01*
X114162468Y-109698124D02*
X114103799Y-109786982D01*
X113938842Y-109882220D01*
X113832554Y-109888600D01*
X113743695Y-109829931D01*
X113553219Y-109500017D01*
X113546839Y-109393728D01*
X113605508Y-109304870D01*
X113770466Y-109209632D01*
X113876754Y-109203252D01*
X113965612Y-109261921D01*
X114013231Y-109344400D01*
X113648457Y-109664974D01*
X114598671Y-109501268D02*
X114265337Y-108923918D01*
X114360575Y-109088875D02*
X114354196Y-108982587D01*
X114371625Y-108917538D01*
X114430295Y-108828680D01*
X114512773Y-108781061D01*
X108028800Y-110407633D02*
X107533929Y-110693347D01*
X107781365Y-110550490D02*
X107281365Y-109684464D01*
X107270314Y-109855801D01*
X107235455Y-109985899D01*
X107176786Y-110074757D01*
X108437775Y-109401711D02*
X108771108Y-109979061D01*
X108066621Y-109615997D02*
X108328526Y-110069629D01*
X108417384Y-110128298D01*
X108523672Y-110121918D01*
X108647390Y-110050490D01*
X108706059Y-109961631D01*
X108723489Y-109896582D01*
X109386279Y-108854092D02*
X109716193Y-108663616D01*
X109343330Y-108493988D02*
X109771901Y-109236296D01*
X109860760Y-109294965D01*
X109967048Y-109288585D01*
X110049526Y-109240966D01*
X110461919Y-109002871D02*
X110355631Y-109009250D01*
X110290582Y-108991821D01*
X110201724Y-108933151D01*
X110058867Y-108685716D01*
X110052487Y-108579428D01*
X110069917Y-108514379D01*
X110128586Y-108425520D01*
X110252304Y-108354092D01*
X110358592Y-108347712D01*
X110423641Y-108365142D01*
X110512499Y-108423811D01*
X110655356Y-108671247D01*
X110661736Y-108777535D01*
X110644306Y-108842584D01*
X110585637Y-108931442D01*
X110461919Y-109002871D01*
X110788415Y-108044568D02*
X111288415Y-108910593D01*
X110812224Y-108085807D02*
X110870893Y-107996949D01*
X111035851Y-107901711D01*
X111142139Y-107895331D01*
X111207188Y-107912761D01*
X111296046Y-107971430D01*
X111438903Y-108218866D01*
X111445283Y-108325154D01*
X111427853Y-108390203D01*
X111369184Y-108479061D01*
X111204227Y-108574299D01*
X111097939Y-108580679D01*
X118602061Y-134435343D02*
X118619491Y-134370294D01*
X118678160Y-134281436D01*
X118884356Y-134162388D01*
X118990645Y-134156009D01*
X119055693Y-134173438D01*
X119144552Y-134232107D01*
X119192171Y-134314586D01*
X119222360Y-134462114D01*
X119013203Y-135242699D01*
X119549314Y-134933176D01*
X119958288Y-133927254D02*
X120291621Y-134504604D01*
X119587134Y-134141540D02*
X119849039Y-134595172D01*
X119937897Y-134653841D01*
X120044185Y-134647461D01*
X120167903Y-134576033D01*
X120226572Y-134487174D01*
X120244002Y-134422126D01*
X121298794Y-133868127D02*
X121405082Y-133861747D01*
X121570040Y-133766509D01*
X121628709Y-133677651D01*
X121622329Y-133571363D01*
X121598519Y-133530123D01*
X121509661Y-133471454D01*
X121403373Y-133477834D01*
X121279655Y-133549262D01*
X121173367Y-133555642D01*
X121084509Y-133496973D01*
X121060699Y-133455734D01*
X121054319Y-133349446D01*
X121112988Y-133260587D01*
X121236706Y-133189159D01*
X121342994Y-133182779D01*
X121607860Y-132974873D02*
X121937775Y-132784397D01*
X121564911Y-132614769D02*
X121993483Y-133357077D01*
X122082341Y-133415746D01*
X122188629Y-133409366D01*
X122271108Y-133361747D01*
X122930937Y-132980795D02*
X122669032Y-132527162D01*
X122580174Y-132468493D01*
X122473885Y-132474873D01*
X122308928Y-132570111D01*
X122250259Y-132658969D01*
X122907127Y-132939555D02*
X122848458Y-133028414D01*
X122642262Y-133147461D01*
X122535973Y-133153841D01*
X122447115Y-133095172D01*
X122399496Y-133012693D01*
X122393116Y-132906405D01*
X122451785Y-132817547D01*
X122657982Y-132698499D01*
X122716651Y-132609641D01*
X123343330Y-132742699D02*
X122843330Y-131876674D01*
X123033806Y-132206589D02*
X123092475Y-132117730D01*
X123257432Y-132022492D01*
X123363720Y-132016112D01*
X123428769Y-132033542D01*
X123517628Y-132092211D01*
X123660485Y-132339647D01*
X123666864Y-132445935D01*
X123649435Y-132510984D01*
X123590766Y-132599842D01*
X123425808Y-132695080D01*
X123319520Y-132701460D01*
X124126877Y-132290319D02*
X123793543Y-131712968D01*
X123626877Y-131424293D02*
X123609447Y-131489342D01*
X123674496Y-131506772D01*
X123691925Y-131441723D01*
X123626877Y-131424293D01*
X123674496Y-131506772D01*
X124662988Y-131980795D02*
X124556699Y-131987174D01*
X124467841Y-131928505D01*
X124039270Y-131186198D01*
X124992902Y-131790319D02*
X124659569Y-131212968D01*
X124492902Y-130924293D02*
X124475472Y-130989342D01*
X124540521Y-131006772D01*
X124557951Y-130941723D01*
X124492902Y-130924293D01*
X124540521Y-131006772D01*
X125340246Y-131534793D02*
X125446534Y-131528414D01*
X125611492Y-131433176D01*
X125670161Y-131344317D01*
X125663781Y-131238029D01*
X125639971Y-131196790D01*
X125551113Y-131138121D01*
X125444825Y-131144501D01*
X125321107Y-131215929D01*
X125214819Y-131222309D01*
X125125960Y-131163640D01*
X125102151Y-131122400D01*
X125095771Y-131016112D01*
X125154440Y-130927254D01*
X125278158Y-130855825D01*
X125384446Y-130849446D01*
X126412468Y-130915746D02*
X126353799Y-131004604D01*
X126188842Y-131099842D01*
X126082554Y-131106222D01*
X125993695Y-131047553D01*
X125803219Y-130717639D01*
X125796839Y-130611350D01*
X125855508Y-130522492D01*
X126020466Y-130427254D01*
X126126754Y-130420874D01*
X126215612Y-130479543D01*
X126263231Y-130562022D01*
X125898457Y-130882596D01*
X126848671Y-130718890D02*
X126515337Y-130141540D01*
X126610575Y-130306497D02*
X126604196Y-130200209D01*
X126621625Y-130135160D01*
X126680295Y-130046302D01*
X126762773Y-129998683D01*
X108891591Y-118997268D02*
X108909021Y-118932219D01*
X108967690Y-118843361D01*
X109173887Y-118724313D01*
X109280175Y-118717934D01*
X109345224Y-118735363D01*
X109434082Y-118794033D01*
X109481701Y-118876511D01*
X109511890Y-119024039D01*
X109302733Y-119804625D01*
X109838844Y-119495101D01*
X110247818Y-118489179D02*
X110581151Y-119066529D01*
X109876664Y-118703465D02*
X110138569Y-119157097D01*
X110227427Y-119215766D01*
X110333715Y-119209386D01*
X110457433Y-119137958D01*
X110516102Y-119049100D01*
X110533532Y-118984051D01*
X111748153Y-117183074D02*
X111648703Y-118725107D01*
X113674099Y-117280815D02*
X113179227Y-117566529D01*
X113426663Y-117423672D02*
X112926663Y-116557647D01*
X112915613Y-116728984D01*
X112880754Y-116859081D01*
X112822085Y-116947940D01*
X114083073Y-116274893D02*
X114416407Y-116852244D01*
X113711920Y-116489179D02*
X113973824Y-116942811D01*
X114062683Y-117001480D01*
X114168971Y-116995101D01*
X114292689Y-116923672D01*
X114351358Y-116834814D01*
X114368788Y-116769765D01*
X115926541Y-116420253D02*
X115861492Y-116402824D01*
X115707585Y-116326725D01*
X115618726Y-116268056D01*
X115506058Y-116168147D01*
X115345771Y-115985760D01*
X115250533Y-115820803D01*
X115172725Y-115590797D01*
X115142536Y-115443269D01*
X115136156Y-115336981D01*
X115147206Y-115165644D01*
X115164636Y-115100596D01*
X116437133Y-115685577D02*
X116175228Y-115231945D01*
X116086369Y-115173276D01*
X115980081Y-115179655D01*
X115815124Y-115274893D01*
X115756455Y-115363752D01*
X116413323Y-115644338D02*
X116354654Y-115733196D01*
X116148457Y-115852244D01*
X116042169Y-115858623D01*
X115953311Y-115799954D01*
X115905692Y-115717476D01*
X115899312Y-115611188D01*
X115957981Y-115522329D01*
X116164178Y-115403282D01*
X116222847Y-115314423D01*
X116516192Y-114870131D02*
X116849526Y-115447482D01*
X116563811Y-114952610D02*
X116581241Y-114887561D01*
X116639910Y-114798703D01*
X116763628Y-114727274D01*
X116869916Y-114720895D01*
X116958775Y-114779564D01*
X117220679Y-115233196D01*
X117217260Y-114465370D02*
X117756790Y-114923672D01*
X117629654Y-114227274D02*
X117756790Y-114923672D01*
X117793359Y-115177488D01*
X117775930Y-115242537D01*
X117717260Y-115331395D01*
X118400899Y-114991682D02*
X118418329Y-114926633D01*
X118429379Y-114755296D01*
X118422999Y-114649008D01*
X118392810Y-114501480D01*
X118315001Y-114271474D01*
X118219763Y-114106517D01*
X118059476Y-113924130D01*
X117946808Y-113824222D01*
X117857950Y-113765553D01*
X117704043Y-113689454D01*
X117638994Y-113672024D01*
X113641591Y-127224509D02*
X113659021Y-127159460D01*
X113717690Y-127070602D01*
X113923887Y-126951554D01*
X114030175Y-126945175D01*
X114095224Y-126962604D01*
X114184082Y-127021274D01*
X114231701Y-127103752D01*
X114261890Y-127251280D01*
X114052733Y-128031866D01*
X114588844Y-127722342D01*
X114997818Y-126716420D02*
X115331151Y-127293770D01*
X114626664Y-126930706D02*
X114888569Y-127384338D01*
X114977427Y-127443007D01*
X115083715Y-127436627D01*
X115207433Y-127365199D01*
X115266102Y-127276341D01*
X115283532Y-127211292D01*
X116498153Y-125410315D02*
X116398703Y-126952348D01*
X118424099Y-125508056D02*
X117929227Y-125793770D01*
X118176663Y-125650913D02*
X117676663Y-124784888D01*
X117665613Y-124956225D01*
X117630754Y-125086322D01*
X117572085Y-125175181D01*
X118833073Y-124502134D02*
X119166407Y-125079485D01*
X118461920Y-124716420D02*
X118723824Y-125170052D01*
X118812683Y-125228721D01*
X118918971Y-125222342D01*
X119042689Y-125150913D01*
X119101358Y-125062055D01*
X119118788Y-124997006D01*
X120676541Y-124647494D02*
X120611492Y-124630065D01*
X120457585Y-124553966D01*
X120368726Y-124495297D01*
X120256058Y-124395388D01*
X120095771Y-124213001D01*
X120000533Y-124048044D01*
X119922725Y-123818038D01*
X119892536Y-123670510D01*
X119886156Y-123564222D01*
X119897206Y-123392885D01*
X119914636Y-123327837D01*
X121187133Y-123912818D02*
X120925228Y-123459186D01*
X120836369Y-123400517D01*
X120730081Y-123406896D01*
X120565124Y-123502134D01*
X120506455Y-123590993D01*
X121163323Y-123871579D02*
X121104654Y-123960437D01*
X120898457Y-124079485D01*
X120792169Y-124085864D01*
X120703311Y-124027195D01*
X120655692Y-123944717D01*
X120649312Y-123838429D01*
X120707981Y-123749570D01*
X120914178Y-123630523D01*
X120972847Y-123541664D01*
X121266192Y-123097372D02*
X121599526Y-123674723D01*
X121313811Y-123179851D02*
X121331241Y-123114802D01*
X121389910Y-123025944D01*
X121513628Y-122954515D01*
X121619916Y-122948136D01*
X121708775Y-123006805D01*
X121970679Y-123460437D01*
X121967260Y-122692611D02*
X122506790Y-123150913D01*
X122379654Y-122454515D02*
X122506790Y-123150913D01*
X122543359Y-123404729D01*
X122525930Y-123469778D01*
X122467260Y-123558636D01*
X123150899Y-123218923D02*
X123168329Y-123153874D01*
X123179379Y-122982537D01*
X123172999Y-122876249D01*
X123142810Y-122728721D01*
X123065001Y-122498715D01*
X122969763Y-122333758D01*
X122809476Y-122151371D01*
X122696808Y-122051463D01*
X122607950Y-121992794D01*
X122454043Y-121916695D01*
X122388994Y-121899265D01*
X113054121Y-121968886D02*
X112559250Y-122254601D01*
X112806685Y-122111743D02*
X112306685Y-121245718D01*
X112295635Y-121417055D01*
X112260776Y-121547153D01*
X112202107Y-121636011D01*
X113463095Y-120962965D02*
X113796429Y-121540315D01*
X113091942Y-121177250D02*
X113353846Y-121630883D01*
X113442705Y-121689552D01*
X113548993Y-121683172D01*
X113672711Y-121611743D01*
X113731380Y-121522885D01*
X113748810Y-121457836D01*
X115215995Y-120665742D02*
X115157326Y-120754601D01*
X114992369Y-120849839D01*
X114886080Y-120856218D01*
X114821032Y-120838789D01*
X114732173Y-120780119D01*
X114589316Y-120532684D01*
X114582936Y-120426396D01*
X114600366Y-120361347D01*
X114659035Y-120272488D01*
X114823992Y-120177250D01*
X114930281Y-120170871D01*
X115917063Y-120260980D02*
X115858394Y-120349839D01*
X115693437Y-120445077D01*
X115587149Y-120451456D01*
X115498290Y-120392787D01*
X115307814Y-120062873D01*
X115301434Y-119956585D01*
X115360103Y-119867726D01*
X115525061Y-119772488D01*
X115631349Y-119766109D01*
X115720207Y-119824778D01*
X115767826Y-119907256D01*
X115403052Y-120227830D01*
X116019932Y-119486774D02*
X116353266Y-120064124D01*
X116067551Y-119569253D02*
X116084981Y-119504204D01*
X116143650Y-119415345D01*
X116267368Y-119343917D01*
X116373656Y-119337537D01*
X116462515Y-119396206D01*
X116724419Y-119849839D01*
X116679761Y-119105822D02*
X117009676Y-118915345D01*
X116636812Y-118745718D02*
X117065384Y-119488025D01*
X117154242Y-119546695D01*
X117260530Y-119540315D01*
X117343009Y-119492696D01*
X117631684Y-119326029D02*
X117298351Y-118748679D01*
X117393589Y-118913636D02*
X117387209Y-118807348D01*
X117404639Y-118742299D01*
X117463308Y-118653441D01*
X117545787Y-118605822D01*
X118538949Y-118802220D02*
X118277044Y-118348587D01*
X118188186Y-118289918D01*
X118081898Y-118296298D01*
X117916940Y-118391536D01*
X117858271Y-118480394D01*
X118515139Y-118760980D02*
X118456470Y-118849839D01*
X118250274Y-118968886D01*
X118143985Y-118975266D01*
X118055127Y-118916597D01*
X118007508Y-118834118D01*
X118001128Y-118727830D01*
X118059797Y-118638972D01*
X118265994Y-118519924D01*
X118324663Y-118431066D01*
X119075060Y-118492696D02*
X118968772Y-118499075D01*
X118879913Y-118440406D01*
X118451342Y-117698099D01*
X115704945Y-121703105D02*
X115722375Y-121638056D01*
X115781044Y-121549198D01*
X115987240Y-121430150D01*
X116093528Y-121423770D01*
X116158577Y-121441200D01*
X116247436Y-121499869D01*
X116295055Y-121582348D01*
X116325244Y-121729875D01*
X116116086Y-122510461D01*
X116652197Y-122200937D01*
X117061172Y-121195016D02*
X117394505Y-121772366D01*
X116690018Y-121409301D02*
X116951923Y-121862934D01*
X117040781Y-121921603D01*
X117147069Y-121915223D01*
X117270787Y-121843794D01*
X117329456Y-121754936D01*
X117346886Y-121689887D01*
X222504761Y-91061904D02*
X222504761Y-91633333D01*
X222466666Y-91747619D01*
X222390476Y-91823809D01*
X222276190Y-91861904D01*
X222200000Y-91861904D01*
X223266666Y-91861904D02*
X222885714Y-91861904D01*
X222885714Y-91061904D01*
X223990476Y-91785714D02*
X223952380Y-91823809D01*
X223838095Y-91861904D01*
X223761904Y-91861904D01*
X223647619Y-91823809D01*
X223571428Y-91747619D01*
X223533333Y-91671428D01*
X223495238Y-91519047D01*
X223495238Y-91404761D01*
X223533333Y-91252380D01*
X223571428Y-91176190D01*
X223647619Y-91100000D01*
X223761904Y-91061904D01*
X223838095Y-91061904D01*
X223952380Y-91100000D01*
X223990476Y-91138095D01*
X224561904Y-91061904D02*
X224561904Y-91633333D01*
X224523809Y-91747619D01*
X224447619Y-91823809D01*
X224333333Y-91861904D01*
X224257142Y-91861904D01*
X225323809Y-91861904D02*
X224942857Y-91861904D01*
X224942857Y-91061904D01*
X226047619Y-91785714D02*
X226009523Y-91823809D01*
X225895238Y-91861904D01*
X225819047Y-91861904D01*
X225704761Y-91823809D01*
X225628571Y-91747619D01*
X225590476Y-91671428D01*
X225552380Y-91519047D01*
X225552380Y-91404761D01*
X225590476Y-91252380D01*
X225628571Y-91176190D01*
X225704761Y-91100000D01*
X225819047Y-91061904D01*
X225895238Y-91061904D01*
X226009523Y-91100000D01*
X226047619Y-91138095D01*
X226619047Y-91061904D02*
X226619047Y-91633333D01*
X226580952Y-91747619D01*
X226504761Y-91823809D01*
X226390476Y-91861904D01*
X226314285Y-91861904D01*
X227380952Y-91861904D02*
X227000000Y-91861904D01*
X227000000Y-91061904D01*
X228104761Y-91785714D02*
X228066666Y-91823809D01*
X227952380Y-91861904D01*
X227876190Y-91861904D01*
X227761904Y-91823809D01*
X227685714Y-91747619D01*
X227647619Y-91671428D01*
X227609523Y-91519047D01*
X227609523Y-91404761D01*
X227647619Y-91252380D01*
X227685714Y-91176190D01*
X227761904Y-91100000D01*
X227876190Y-91061904D01*
X227952380Y-91061904D01*
X228066666Y-91100000D01*
X228104761Y-91138095D01*
X228676190Y-91061904D02*
X228676190Y-91633333D01*
X228638095Y-91747619D01*
X228561904Y-91823809D01*
X228447619Y-91861904D01*
X228371428Y-91861904D01*
X229438095Y-91861904D02*
X229057142Y-91861904D01*
X229057142Y-91061904D01*
X230161904Y-91785714D02*
X230123809Y-91823809D01*
X230009523Y-91861904D01*
X229933333Y-91861904D01*
X229819047Y-91823809D01*
X229742857Y-91747619D01*
X229704761Y-91671428D01*
X229666666Y-91519047D01*
X229666666Y-91404761D01*
X229704761Y-91252380D01*
X229742857Y-91176190D01*
X229819047Y-91100000D01*
X229933333Y-91061904D01*
X230009523Y-91061904D01*
X230123809Y-91100000D01*
X230161904Y-91138095D01*
%LPC*%
D13*
X171285000Y-125043750D03*
X190335000Y-111196250D03*
D14*
X173560000Y-118120000D03*
X188060000Y-118120000D03*
D13*
X173886250Y-108595000D03*
X187733750Y-127645000D03*
X152235000Y-111196250D03*
X171285000Y-125043750D03*
D14*
X154510000Y-118120000D03*
X169010000Y-118120000D03*
D13*
X154836250Y-127645000D03*
X168683750Y-108595000D03*
X133166555Y-130063080D03*
X147983445Y-111756920D03*
D14*
X133572038Y-122786438D03*
X147577962Y-119033562D03*
D13*
X131421920Y-113501555D03*
X149728080Y-128318445D03*
X216675000Y-117473750D03*
X235725000Y-103626250D03*
D14*
X218950000Y-110550000D03*
X233450000Y-110550000D03*
D13*
X219276250Y-101025000D03*
X233123750Y-120075000D03*
X216675000Y-98423750D03*
X235725000Y-84576250D03*
D14*
X218950000Y-91500000D03*
X233450000Y-91500000D03*
D13*
X219276250Y-81975000D03*
X233123750Y-101025000D03*
X216675000Y-79373750D03*
X235725000Y-65526250D03*
D14*
X218950000Y-72450000D03*
X233450000Y-72450000D03*
D13*
X219276250Y-62925000D03*
X233123750Y-81975000D03*
X216675000Y-60323750D03*
X235725000Y-46476250D03*
D14*
X218950000Y-53400000D03*
X233450000Y-53400000D03*
D13*
X219276250Y-43875000D03*
X233123750Y-62925000D03*
D15*
X132515357Y-128713975D03*
X151447503Y-123641122D03*
X129694229Y-118185384D03*
X148626375Y-113112531D03*
X87323251Y-117849006D03*
X101182543Y-131708298D03*
X79615787Y-125556470D03*
X93475079Y-139415762D03*
X106945463Y-152886146D03*
X93086171Y-139026854D03*
X114652927Y-145178682D03*
X100793635Y-131319390D03*
X111480544Y-123806366D03*
X101680544Y-106832268D03*
X120920220Y-118356366D03*
X111120220Y-101382268D03*
X132037431Y-128911939D03*
X115063333Y-138711939D03*
X126587431Y-119472263D03*
X109613333Y-129272263D03*
D14*
X138200000Y-44400000D03*
X123700000Y-44400000D03*
X157250000Y-60950000D03*
X142750000Y-60950000D03*
X214400000Y-72450000D03*
X199900000Y-72450000D03*
X214400000Y-91500000D03*
X199900000Y-91500000D03*
X195350000Y-79500000D03*
X180850000Y-79500000D03*
X176300000Y-73500000D03*
X161800000Y-73500000D03*
X138200000Y-82500000D03*
X123700000Y-82500000D03*
X157250000Y-80000000D03*
X142750000Y-80000000D03*
X138200000Y-101550000D03*
X123700000Y-101550000D03*
X138200000Y-63450000D03*
X123700000Y-63450000D03*
X157250000Y-41900000D03*
X142750000Y-41900000D03*
X176300000Y-92550000D03*
X161800000Y-92550000D03*
X176300000Y-54450000D03*
X161800000Y-54450000D03*
X176300000Y-35400000D03*
X161800000Y-35400000D03*
X195350000Y-98550000D03*
X180850000Y-98550000D03*
X195350000Y-60450000D03*
X180850000Y-60450000D03*
X195350000Y-41400000D03*
X180850000Y-41400000D03*
X214400000Y-110550000D03*
X199900000Y-110550000D03*
X214400000Y-53400000D03*
X199900000Y-53400000D03*
X157250000Y-99050000D03*
X142750000Y-99050000D03*
D16*
X232220381Y-136740000D03*
X98638899Y-159529137D03*
X98638899Y-34932171D03*
X232220381Y-37928844D03*
D17*
X209531250Y-39018750D03*
X204768750Y-34256250D03*
D18*
X207150000Y-36637500D03*
D14*
X118650000Y-43387500D03*
X105150000Y-58387500D03*
D13*
X103756250Y-84581250D03*
X120043750Y-30157500D03*
X120043750Y-67912500D03*
X103756250Y-67912500D03*
X103756250Y-30157500D03*
X120043750Y-84581250D03*
X105500000Y-99000000D03*
X169050000Y-104050000D03*
X157143750Y-21659375D03*
M02*
