%TF.GenerationSoftware,KiCad,Pcbnew,5.1.12-84ad8e8a86~92~ubuntu20.04.1*%
%TF.CreationDate,2021-11-17T00:00:43+01:00*%
%TF.ProjectId,LergoTopPlate_FR4_LessRouting,4c657267-6f54-46f7-9050-6c6174655f46,v1.A*%
%TF.SameCoordinates,Original*%
%TF.FileFunction,Profile,NP*%
%FSLAX46Y46*%
G04 Gerber Fmt 4.6, Leading zero omitted, Abs format (unit mm)*
G04 Created by KiCad (PCBNEW 5.1.12-84ad8e8a86~92~ubuntu20.04.1) date 2021-11-17 00:00:43*
%MOMM*%
%LPD*%
G01*
G04 APERTURE LIST*
%TA.AperFunction,Profile*%
%ADD10C,0.120000*%
%TD*%
%TA.AperFunction,Profile*%
%ADD11C,0.100000*%
%TD*%
%TA.AperFunction,Profile*%
%ADD12C,0.150000*%
%TD*%
G04 APERTURE END LIST*
D10*
X73524848Y-127344018D02*
G75*
G02*
X73524848Y-125929804I707107J707107D01*
G01*
D11*
X95103365Y-148922535D02*
G75*
G02*
X95103365Y-155993603I-3535534J-3535534D01*
G01*
X102174433Y-163064671D02*
G75*
G02*
X95103365Y-155993603I-3535534J3535534D01*
G01*
X98641295Y-39932170D02*
G75*
G02*
X101614896Y-42905771I0J-2973601D01*
G01*
X98641295Y-39932170D02*
G75*
G02*
X96852971Y-30262004I-2396J4999999D01*
G01*
X222220381Y-131740000D02*
G75*
G02*
X227220381Y-136740000I0J-5000000D01*
G01*
X237220381Y-136740000D02*
G75*
G02*
X227220381Y-136740000I-5000000J0D01*
G01*
X101614896Y-101696929D02*
G75*
G02*
X101143092Y-102545766I-1000000J286D01*
G01*
X101614896Y-42905771D02*
X101614896Y-101696929D01*
X234214126Y-33343544D02*
G75*
G02*
X237220381Y-37928844I-1993745J-4585300D01*
G01*
X96852971Y-30262005D02*
G75*
G02*
X234214126Y-33343544I64907410J-169731595D01*
G01*
X80612709Y-118841943D02*
G75*
G02*
X101143092Y-102545766I81147672J-81151657D01*
G01*
X73524848Y-125929804D02*
X80612709Y-118841943D01*
X95103365Y-148922535D02*
X73524848Y-127344018D01*
X113500343Y-151733562D02*
X102174433Y-163064671D01*
X113500343Y-151733562D02*
G75*
G02*
X161760381Y-131743600I48260038J-48260038D01*
G01*
X161760381Y-131743600D02*
X222220381Y-131740000D01*
X237220381Y-37928844D02*
X237220381Y-136740000D01*
D12*
X84389818Y-124740361D02*
G75*
G02*
X85096926Y-125447469I353554J-353554D01*
G01*
X87218240Y-123326155D02*
G75*
G02*
X86511134Y-122619047I-353553J353554D01*
G01*
X107052586Y-147403139D02*
G75*
G02*
X107759692Y-148110247I353553J-353554D01*
G01*
X109881012Y-145988926D02*
G75*
G02*
X109173906Y-145281820I-353553J353553D01*
G01*
X89564957Y-129915500D02*
G75*
G02*
X90272063Y-130622606I353553J-353553D01*
G01*
X92393383Y-128501287D02*
G75*
G02*
X91686277Y-127794179I-353553J353554D01*
G01*
X101877454Y-142227997D02*
G75*
G02*
X102584560Y-142935103I353553J-353553D01*
G01*
X104705880Y-140813784D02*
G75*
G02*
X103998774Y-140106676I-353553J353554D01*
G01*
X100317400Y-140667943D02*
G75*
G02*
X101024506Y-141375049I353553J-353553D01*
G01*
X103145826Y-139253728D02*
G75*
G02*
X102438720Y-138546622I-353553J353553D01*
G01*
X97860202Y-138210747D02*
G75*
G02*
X98567310Y-138917853I353554J-353553D01*
G01*
X100688631Y-136796532D02*
G75*
G02*
X99981523Y-136089426I-353554J353553D01*
G01*
X93953439Y-130061340D02*
G75*
G02*
X93246331Y-129354234I-353554J353553D01*
G01*
X96410635Y-132518536D02*
G75*
G02*
X95703527Y-131811430I-353554J353553D01*
G01*
X93582206Y-133932751D02*
G75*
G02*
X94289314Y-134639857I353554J-353553D01*
G01*
X91125010Y-131475553D02*
G75*
G02*
X91832118Y-132182661I353554J-353554D01*
G01*
X98341909Y-146470627D02*
G75*
G02*
X98341920Y-145763530I353564J353543D01*
G01*
X107534307Y-136571142D02*
G75*
G02*
X108241415Y-136571142I353554J-353554D01*
G01*
X86736529Y-134158140D02*
G75*
G02*
X86029423Y-134158140I-353553J353553D01*
G01*
X93246325Y-139960840D02*
G75*
G02*
X92539219Y-140667948I-353553J-353554D01*
G01*
X91832113Y-139960842D02*
G75*
G02*
X92539219Y-139253734I353553J353554D01*
G01*
X95928907Y-124258635D02*
G75*
G02*
X95928918Y-124965752I-353543J-353564D01*
G01*
X102438713Y-130768452D02*
G75*
G02*
X101731607Y-131475560I-353553J-353554D01*
G01*
X101024501Y-130768454D02*
G75*
G02*
X101731607Y-130061346I353553J353554D01*
G01*
X97488967Y-144910588D02*
G75*
G02*
X96781860Y-144910589I-353554J353553D01*
G01*
X106681354Y-135011093D02*
G75*
G02*
X106681355Y-135718200I-353553J-353554D01*
G01*
X96781859Y-125818706D02*
G75*
G02*
X97488966Y-125818705I353554J-353553D01*
G01*
X87589472Y-135718201D02*
G75*
G02*
X87589471Y-135011094I353553J353554D01*
G01*
X90753774Y-138175396D02*
G75*
G02*
X90046668Y-138175396I-353553J353553D01*
G01*
X99946162Y-128275902D02*
G75*
G02*
X99946162Y-128983008I-353553J-353553D01*
G01*
X90046667Y-119083514D02*
G75*
G02*
X90753774Y-119083513I353554J-353553D01*
G01*
X80854280Y-128983009D02*
G75*
G02*
X80854279Y-128275902I353553J353554D01*
G01*
X104224159Y-151645780D02*
G75*
G02*
X103517052Y-151645781I-353554J353553D01*
G01*
X113416546Y-141746285D02*
G75*
G02*
X113416547Y-142453392I-353553J-353554D01*
G01*
X103517052Y-132553898D02*
G75*
G02*
X104224158Y-132553898I353553J-353553D01*
G01*
X94324664Y-142453392D02*
G75*
G02*
X94324664Y-141746286I353553J353553D01*
G01*
X86382976Y-133097480D02*
X89564957Y-129915500D01*
X92393384Y-128501286D02*
X95928918Y-124965752D01*
X91686277Y-127794179D02*
X94868258Y-124612199D01*
X98341920Y-145763530D02*
X101877454Y-142227997D01*
X104705881Y-140813783D02*
X107887855Y-137631808D01*
X99402574Y-146117089D02*
X102584560Y-142935103D01*
X86736530Y-134158140D02*
X90272063Y-130622606D01*
X103998774Y-140106676D02*
X107534308Y-136571142D01*
X103517052Y-132553898D02*
X99981523Y-136089426D01*
X103870605Y-133614558D02*
X100688630Y-136796533D01*
X102438720Y-138546622D02*
X105620694Y-135364647D01*
X103145826Y-139253729D02*
X106681355Y-135718200D01*
X91125011Y-131475554D02*
X87589471Y-135011094D01*
X91832118Y-132182661D02*
X88650132Y-135364647D01*
X97135413Y-126879366D02*
X93953438Y-130061340D01*
X90400221Y-137114736D02*
X93582207Y-133932750D01*
X96410634Y-132518537D02*
X99946162Y-128983008D01*
X106681355Y-135011094D02*
X104224158Y-132553898D01*
X113416547Y-141746286D02*
X108241415Y-136571142D01*
X103517052Y-151645781D02*
X98341914Y-146470643D01*
X96781860Y-144910589D02*
X94324664Y-142453392D01*
X91832112Y-139960841D02*
X92539219Y-140667948D01*
X90046668Y-138175396D02*
X87589471Y-135718200D01*
X86029423Y-134158140D02*
X80854279Y-128983008D01*
X95928908Y-124258636D02*
X90753774Y-119083513D01*
X101731607Y-130061346D02*
X102438714Y-130768453D01*
X92539219Y-139253734D02*
X93246326Y-139960841D01*
X101024500Y-130768453D02*
X101731607Y-131475560D01*
X97135413Y-126879366D02*
X98885502Y-128629455D01*
X103870605Y-133614558D02*
X105620694Y-135364647D01*
X95385324Y-142099839D02*
X97135413Y-143849928D01*
X88650132Y-135364647D02*
X90400221Y-137114736D01*
X107887855Y-137631808D02*
X112355886Y-142099839D01*
X90400221Y-120144174D02*
X94868258Y-124612199D01*
X81914940Y-128629455D02*
X86382976Y-133097480D01*
X99402574Y-146117089D02*
X103870605Y-150585120D01*
X85096920Y-125447474D02*
X81914940Y-128629455D01*
X98567310Y-138917853D02*
X95385324Y-142099839D01*
X95703527Y-131811430D02*
X98885502Y-128629455D01*
X97135413Y-143849928D02*
X100317399Y-140667942D01*
X103870605Y-150585120D02*
X107052586Y-147403140D01*
X99946162Y-128275902D02*
X97488966Y-125818705D01*
X97488966Y-144910589D02*
X101024506Y-141375049D01*
X96781860Y-125818705D02*
X93246331Y-129354234D01*
X90753774Y-138175396D02*
X94289314Y-134639857D01*
X90046668Y-119083513D02*
X86511134Y-122619047D01*
X109881013Y-145988926D02*
X113416547Y-142453392D01*
X97860203Y-138210746D02*
X94324664Y-141746286D01*
X104224158Y-151645781D02*
X107759692Y-148110247D01*
X109173906Y-145281820D02*
X112355886Y-142099839D01*
X90400221Y-120144174D02*
X87218240Y-123326154D01*
X84389819Y-124740362D02*
X80854279Y-128275902D01*
X106496314Y-107277081D02*
G75*
G02*
X106996314Y-108143107I250000J-433013D01*
G01*
X109594383Y-106643111D02*
G75*
G02*
X109094383Y-105777085I-250000J433013D01*
G01*
X122521307Y-135033199D02*
G75*
G02*
X123021307Y-135899225I250000J-433013D01*
G01*
X125619383Y-134399225D02*
G75*
G02*
X125119383Y-133533199I-250000J433013D01*
G01*
X110155689Y-113615304D02*
G75*
G02*
X110655689Y-114481330I250000J-433013D01*
G01*
X113253765Y-112981329D02*
G75*
G02*
X112753765Y-112115305I-250000J433012D01*
G01*
X118861939Y-128694973D02*
G75*
G02*
X119361939Y-129560997I250000J-433012D01*
G01*
X121960015Y-128060998D02*
G75*
G02*
X121460015Y-127194972I-250000J433013D01*
G01*
X117758814Y-126784303D02*
G75*
G02*
X118258814Y-127650329I250000J-433013D01*
G01*
X120856890Y-126150329D02*
G75*
G02*
X120356890Y-125284303I-250000J433013D01*
G01*
X116021314Y-123774865D02*
G75*
G02*
X116521314Y-124640891I250000J-433013D01*
G01*
X119119390Y-123140891D02*
G75*
G02*
X118619390Y-122274865I-250000J433013D01*
G01*
X114356890Y-114891999D02*
G75*
G02*
X113856890Y-114025973I-250000J433013D01*
G01*
X116094390Y-117901437D02*
G75*
G02*
X115594390Y-117035411I-250000J433013D01*
G01*
X112996314Y-118535411D02*
G75*
G02*
X113496314Y-119401437I250000J-433013D01*
G01*
X111258814Y-115525973D02*
G75*
G02*
X111758814Y-116391999I250000J-433013D01*
G01*
X114348792Y-131877973D02*
G75*
G02*
X114531812Y-131194972I433020J249988D01*
G01*
X125790142Y-124694972D02*
G75*
G02*
X126473155Y-124877985I250000J-433013D01*
G01*
X106325562Y-116981330D02*
G75*
G02*
X105642549Y-116798317I-250000J433013D01*
G01*
X111111693Y-124271168D02*
G75*
G02*
X110245667Y-124771168I-433013J-250000D01*
G01*
X109745667Y-123905142D02*
G75*
G02*
X110611693Y-123405142I433013J250000D01*
G01*
X117766898Y-109798305D02*
G75*
G02*
X117583892Y-110481330I-433006J-250012D01*
G01*
X122370023Y-117771168D02*
G75*
G02*
X121503997Y-118271168I-433013J-250000D01*
G01*
X121003997Y-117405142D02*
G75*
G02*
X121870023Y-116905142I433013J250000D01*
G01*
X113928680Y-130150333D02*
G75*
G02*
X113245667Y-129967320I-250000J433013D01*
G01*
X125370023Y-122967320D02*
G75*
G02*
X125187010Y-123650333I-433013J-250000D01*
G01*
X118187010Y-111525977D02*
G75*
G02*
X118870023Y-111708990I250000J-433013D01*
G01*
X106745667Y-118708990D02*
G75*
G02*
X106928680Y-118025977I433013J250000D01*
G01*
X109166180Y-121901441D02*
G75*
G02*
X108483167Y-121718428I-250000J433013D01*
G01*
X120607523Y-114718428D02*
G75*
G02*
X120424510Y-115401441I-433013J-250000D01*
G01*
X113424510Y-103277085D02*
G75*
G02*
X114107523Y-103460098I250000J-433013D01*
G01*
X101983167Y-110460098D02*
G75*
G02*
X102166180Y-109777085I433013J250000D01*
G01*
X118691180Y-138399225D02*
G75*
G02*
X118008167Y-138216212I-250000J433013D01*
G01*
X130132523Y-131216212D02*
G75*
G02*
X129949510Y-131899225I-433013J-250000D01*
G01*
X122949510Y-119774869D02*
G75*
G02*
X123632523Y-119957882I250000J-433013D01*
G01*
X111508167Y-126957882D02*
G75*
G02*
X111691180Y-126274869I433013J250000D01*
G01*
X106258575Y-115865305D02*
X110155689Y-113615305D01*
X113253765Y-112981330D02*
X117583892Y-110481330D01*
X112753765Y-112115305D02*
X116650879Y-109865305D01*
X114531812Y-131194972D02*
X118861939Y-128694972D01*
X121960015Y-128060997D02*
X125857122Y-125811001D01*
X115464818Y-131811001D02*
X119361939Y-129560997D01*
X106325562Y-116981330D02*
X110655689Y-114481330D01*
X121460015Y-127194972D02*
X125790142Y-124694972D01*
X122949510Y-119774869D02*
X118619390Y-122274865D01*
X123016497Y-120890895D02*
X119119390Y-123140891D01*
X120356890Y-125284303D02*
X124253997Y-123034307D01*
X120856890Y-126150329D02*
X125187010Y-123650333D01*
X111258814Y-115525973D02*
X106928680Y-118025977D01*
X111758814Y-116391999D02*
X107861693Y-118642003D01*
X118253997Y-112642003D02*
X114356890Y-114891999D01*
X109099193Y-120785415D02*
X112996314Y-118535411D01*
X116094390Y-117901437D02*
X120424510Y-115401441D01*
X125370023Y-122967320D02*
X123632523Y-119957882D01*
X130132523Y-131216212D02*
X126473155Y-124877985D01*
X118008167Y-138216212D02*
X114348792Y-131877989D01*
X113245667Y-129967320D02*
X111508167Y-126957882D01*
X109745667Y-123905142D02*
X110245667Y-124771168D01*
X108483167Y-121718428D02*
X106745667Y-118708990D01*
X105642549Y-116798317D02*
X101983167Y-110460098D01*
X117766898Y-109798305D02*
X114107523Y-103460098D01*
X121870023Y-116905142D02*
X122370023Y-117771168D01*
X110611693Y-123405142D02*
X111111693Y-124271168D01*
X121003997Y-117405142D02*
X121503997Y-118271168D01*
X118253997Y-112642003D02*
X119491497Y-114785415D01*
X123016497Y-120890895D02*
X124253997Y-123034307D01*
X112624193Y-126890895D02*
X113861693Y-129034307D01*
X107861693Y-118642003D02*
X109099193Y-120785415D01*
X125857122Y-125811001D02*
X129016497Y-131283199D01*
X113491497Y-104393111D02*
X116650879Y-109865305D01*
X103099193Y-110393111D02*
X106258575Y-115865305D01*
X115464818Y-131811001D02*
X118624193Y-137283199D01*
X106996307Y-108143111D02*
X103099193Y-110393111D01*
X116521314Y-124640891D02*
X112624193Y-126890895D01*
X115594390Y-117035411D02*
X119491497Y-114785415D01*
X113861693Y-129034307D02*
X117758814Y-126784303D01*
X118624193Y-137283199D02*
X122521307Y-135033199D01*
X120607523Y-114718428D02*
X118870023Y-111708990D01*
X113928680Y-130150333D02*
X118258814Y-127650329D01*
X118187010Y-111525977D02*
X113856890Y-114025973D01*
X109166180Y-121901441D02*
X113496314Y-119401437D01*
X113424510Y-103277085D02*
X109094383Y-105777085D01*
X125619383Y-134399225D02*
X129949510Y-131899225D01*
X116021314Y-123774865D02*
X111691180Y-126274869D01*
X118691180Y-138399225D02*
X123021307Y-135899225D01*
X125119383Y-133533199D02*
X129016497Y-131283199D01*
X113491497Y-104393111D02*
X109594383Y-106643111D01*
X106496314Y-107277081D02*
X102166180Y-109777085D01*
X174810000Y-112120000D02*
X174810000Y-116620000D01*
X187810000Y-124620000D02*
X187810000Y-119620000D01*
X186810000Y-124120000D02*
X186810000Y-119620000D01*
X173810000Y-119620000D02*
X173810000Y-124620000D01*
X174810000Y-119620000D02*
X174810000Y-124120000D01*
X174310000Y-125120000D02*
X187310000Y-125120000D01*
X174810000Y-124120000D02*
X186810000Y-124120000D01*
X187810000Y-116620000D02*
X187810000Y-111620000D01*
X186810000Y-112120000D02*
X174810000Y-112120000D01*
X173810000Y-111620000D02*
X173810000Y-116620000D01*
X186810000Y-116620000D02*
X186810000Y-112120000D01*
X187310000Y-111120000D02*
X174310000Y-111120000D01*
X187810000Y-124620000D02*
G75*
G02*
X187310000Y-125120000I-500000J0D01*
G01*
X174310000Y-125120000D02*
G75*
G02*
X173810000Y-124620000I0J500000D01*
G01*
X186810000Y-119620000D02*
G75*
G02*
X187810000Y-119620000I500000J0D01*
G01*
X173810000Y-111620000D02*
G75*
G02*
X174310000Y-111120000I500000J0D01*
G01*
X187810000Y-116620000D02*
G75*
G02*
X186810000Y-116620000I-500000J0D01*
G01*
X173810000Y-119620000D02*
G75*
G02*
X174810000Y-119620000I500000J0D01*
G01*
X174810000Y-116620000D02*
G75*
G02*
X173810000Y-116620000I-500000J0D01*
G01*
X187310000Y-111120000D02*
G75*
G02*
X187810000Y-111620000I0J-500000D01*
G01*
X155760000Y-124120000D02*
X155760000Y-119620000D01*
X168760000Y-111620000D02*
X168760000Y-116620000D01*
X167760000Y-112120000D02*
X167760000Y-116620000D01*
X154760000Y-116620000D02*
X154760000Y-111620000D01*
X155760000Y-116620000D02*
X155760000Y-112120000D01*
X155260000Y-111120000D02*
X168260000Y-111120000D01*
X155760000Y-112120000D02*
X167760000Y-112120000D01*
X168760000Y-119620000D02*
X168760000Y-124620000D01*
X167760000Y-124120000D02*
X155760000Y-124120000D01*
X154760000Y-124620000D02*
X154760000Y-119620000D01*
X167760000Y-119620000D02*
X167760000Y-124120000D01*
X168260000Y-125120000D02*
X155260000Y-125120000D01*
X168760000Y-111620000D02*
G75*
G03*
X168260000Y-111120000I-500000J0D01*
G01*
X155260000Y-111120000D02*
G75*
G03*
X154760000Y-111620000I0J-500000D01*
G01*
X167760000Y-116620000D02*
G75*
G03*
X168760000Y-116620000I500000J0D01*
G01*
X154760000Y-124620000D02*
G75*
G03*
X155260000Y-125120000I500000J0D01*
G01*
X168760000Y-119620000D02*
G75*
G03*
X167760000Y-119620000I-500000J0D01*
G01*
X154760000Y-116620000D02*
G75*
G03*
X155760000Y-116620000I500000J0D01*
G01*
X155760000Y-119620000D02*
G75*
G03*
X154760000Y-119620000I-500000J0D01*
G01*
X168260000Y-125120000D02*
G75*
G03*
X168760000Y-124620000I0J500000D01*
G01*
X133226531Y-116667359D02*
X134391216Y-121014026D01*
X149018805Y-125376785D02*
X147724709Y-120547155D01*
X147923469Y-125152641D02*
X146758784Y-120805974D01*
X134201748Y-124170622D02*
X135495843Y-129000251D01*
X135167674Y-123911803D02*
X136332359Y-128258469D01*
X136108215Y-129353805D02*
X148665251Y-125989157D01*
X136332359Y-128258469D02*
X147923469Y-125152641D01*
X146948252Y-117649378D02*
X145654157Y-112819749D01*
X144817641Y-113561531D02*
X133226531Y-116667359D01*
X132131195Y-116443215D02*
X133425291Y-121272845D01*
X145982326Y-117908197D02*
X144817641Y-113561531D01*
X145041785Y-112466195D02*
X132484749Y-115830843D01*
X149018805Y-125376785D02*
G75*
G02*
X148665251Y-125989157I-482963J-129409D01*
G01*
X136108215Y-129353805D02*
G75*
G02*
X135495843Y-129000251I-129409J482963D01*
G01*
X146758783Y-120805975D02*
G75*
G02*
X147724709Y-120547155I482963J129410D01*
G01*
X132131195Y-116443215D02*
G75*
G02*
X132484749Y-115830843I482963J129409D01*
G01*
X146948252Y-117649377D02*
G75*
G02*
X145982326Y-117908197I-482963J-129410D01*
G01*
X134201748Y-124170623D02*
G75*
G02*
X135167674Y-123911803I482963J129410D01*
G01*
X134391217Y-121014025D02*
G75*
G02*
X133425291Y-121272845I-482963J-129410D01*
G01*
X145041785Y-112466195D02*
G75*
G02*
X145654157Y-112819749I129409J-482963D01*
G01*
X220200000Y-104550000D02*
X220200000Y-109050000D01*
X233200000Y-117050000D02*
X233200000Y-112050000D01*
X232200000Y-116550000D02*
X232200000Y-112050000D01*
X219200000Y-112050000D02*
X219200000Y-117050000D01*
X220200000Y-112050000D02*
X220200000Y-116550000D01*
X219700000Y-117550000D02*
X232700000Y-117550000D01*
X220200000Y-116550000D02*
X232200000Y-116550000D01*
X233200000Y-109050000D02*
X233200000Y-104050000D01*
X232200000Y-104550000D02*
X220200000Y-104550000D01*
X219200000Y-104050000D02*
X219200000Y-109050000D01*
X232200000Y-109050000D02*
X232200000Y-104550000D01*
X232700000Y-103550000D02*
X219700000Y-103550000D01*
X233200000Y-117050000D02*
G75*
G02*
X232700000Y-117550000I-500000J0D01*
G01*
X219700000Y-117550000D02*
G75*
G02*
X219200000Y-117050000I0J500000D01*
G01*
X232200000Y-112050000D02*
G75*
G02*
X233200000Y-112050000I500000J0D01*
G01*
X219200000Y-104050000D02*
G75*
G02*
X219700000Y-103550000I500000J0D01*
G01*
X233200000Y-109050000D02*
G75*
G02*
X232200000Y-109050000I-500000J0D01*
G01*
X219200000Y-112050000D02*
G75*
G02*
X220200000Y-112050000I500000J0D01*
G01*
X220200000Y-109050000D02*
G75*
G02*
X219200000Y-109050000I-500000J0D01*
G01*
X232700000Y-103550000D02*
G75*
G02*
X233200000Y-104050000I0J-500000D01*
G01*
X220200000Y-85500000D02*
X220200000Y-90000000D01*
X233200000Y-98000000D02*
X233200000Y-93000000D01*
X232200000Y-97500000D02*
X232200000Y-93000000D01*
X219200000Y-93000000D02*
X219200000Y-98000000D01*
X220200000Y-93000000D02*
X220200000Y-97500000D01*
X219700000Y-98500000D02*
X232700000Y-98500000D01*
X220200000Y-97500000D02*
X232200000Y-97500000D01*
X233200000Y-90000000D02*
X233200000Y-85000000D01*
X232200000Y-85500000D02*
X220200000Y-85500000D01*
X219200000Y-85000000D02*
X219200000Y-90000000D01*
X232200000Y-90000000D02*
X232200000Y-85500000D01*
X232700000Y-84500000D02*
X219700000Y-84500000D01*
X233200000Y-98000000D02*
G75*
G02*
X232700000Y-98500000I-500000J0D01*
G01*
X219700000Y-98500000D02*
G75*
G02*
X219200000Y-98000000I0J500000D01*
G01*
X232200000Y-93000000D02*
G75*
G02*
X233200000Y-93000000I500000J0D01*
G01*
X219200000Y-85000000D02*
G75*
G02*
X219700000Y-84500000I500000J0D01*
G01*
X233200000Y-90000000D02*
G75*
G02*
X232200000Y-90000000I-500000J0D01*
G01*
X219200000Y-93000000D02*
G75*
G02*
X220200000Y-93000000I500000J0D01*
G01*
X220200000Y-90000000D02*
G75*
G02*
X219200000Y-90000000I-500000J0D01*
G01*
X232700000Y-84500000D02*
G75*
G02*
X233200000Y-85000000I0J-500000D01*
G01*
X220200000Y-66450000D02*
X220200000Y-70950000D01*
X233200000Y-78950000D02*
X233200000Y-73950000D01*
X232200000Y-78450000D02*
X232200000Y-73950000D01*
X219200000Y-73950000D02*
X219200000Y-78950000D01*
X220200000Y-73950000D02*
X220200000Y-78450000D01*
X219700000Y-79450000D02*
X232700000Y-79450000D01*
X220200000Y-78450000D02*
X232200000Y-78450000D01*
X233200000Y-70950000D02*
X233200000Y-65950000D01*
X232200000Y-66450000D02*
X220200000Y-66450000D01*
X219200000Y-65950000D02*
X219200000Y-70950000D01*
X232200000Y-70950000D02*
X232200000Y-66450000D01*
X232700000Y-65450000D02*
X219700000Y-65450000D01*
X233200000Y-78950000D02*
G75*
G02*
X232700000Y-79450000I-500000J0D01*
G01*
X219700000Y-79450000D02*
G75*
G02*
X219200000Y-78950000I0J500000D01*
G01*
X232200000Y-73950000D02*
G75*
G02*
X233200000Y-73950000I500000J0D01*
G01*
X219200000Y-65950000D02*
G75*
G02*
X219700000Y-65450000I500000J0D01*
G01*
X233200000Y-70950000D02*
G75*
G02*
X232200000Y-70950000I-500000J0D01*
G01*
X219200000Y-73950000D02*
G75*
G02*
X220200000Y-73950000I500000J0D01*
G01*
X220200000Y-70950000D02*
G75*
G02*
X219200000Y-70950000I-500000J0D01*
G01*
X232700000Y-65450000D02*
G75*
G02*
X233200000Y-65950000I0J-500000D01*
G01*
X220200000Y-47400000D02*
X220200000Y-51900000D01*
X233200000Y-59900000D02*
X233200000Y-54900000D01*
X232200000Y-59400000D02*
X232200000Y-54900000D01*
X219200000Y-54900000D02*
X219200000Y-59900000D01*
X220200000Y-54900000D02*
X220200000Y-59400000D01*
X219700000Y-60400000D02*
X232700000Y-60400000D01*
X220200000Y-59400000D02*
X232200000Y-59400000D01*
X233200000Y-51900000D02*
X233200000Y-46900000D01*
X232200000Y-47400000D02*
X220200000Y-47400000D01*
X219200000Y-46900000D02*
X219200000Y-51900000D01*
X232200000Y-51900000D02*
X232200000Y-47400000D01*
X232700000Y-46400000D02*
X219700000Y-46400000D01*
X233200000Y-59900000D02*
G75*
G02*
X232700000Y-60400000I-500000J0D01*
G01*
X219700000Y-60400000D02*
G75*
G02*
X219200000Y-59900000I0J500000D01*
G01*
X232200000Y-54900000D02*
G75*
G02*
X233200000Y-54900000I500000J0D01*
G01*
X219200000Y-46900000D02*
G75*
G02*
X219700000Y-46400000I500000J0D01*
G01*
X233200000Y-51900000D02*
G75*
G02*
X232200000Y-51900000I-500000J0D01*
G01*
X219200000Y-54900000D02*
G75*
G02*
X220200000Y-54900000I500000J0D01*
G01*
X220200000Y-51900000D02*
G75*
G02*
X219200000Y-51900000I-500000J0D01*
G01*
X232700000Y-46400000D02*
G75*
G02*
X233200000Y-46900000I0J-500000D01*
G01*
X123950000Y-45900000D02*
X123950000Y-50900000D01*
X124950000Y-45900000D02*
X124950000Y-50400000D01*
X136950000Y-50400000D02*
X136950000Y-45900000D01*
X137950000Y-50900000D02*
X137950000Y-45900000D01*
X124950000Y-38400000D02*
X124950000Y-42900000D01*
X124950000Y-50400000D02*
X136950000Y-50400000D01*
X136950000Y-42900000D02*
X136950000Y-38400000D01*
X136950000Y-38400000D02*
X124950000Y-38400000D01*
X137450000Y-37400000D02*
X124450000Y-37400000D01*
X137950000Y-42900000D02*
X137950000Y-37900000D01*
X124450000Y-51400000D02*
X137450000Y-51400000D01*
X123950000Y-37900000D02*
X123950000Y-42900000D01*
X123950000Y-45900000D02*
G75*
G02*
X124950000Y-45900000I500000J0D01*
G01*
X124950000Y-42900000D02*
G75*
G02*
X123950000Y-42900000I-500000J0D01*
G01*
X137950000Y-42900000D02*
G75*
G02*
X136950000Y-42900000I-500000J0D01*
G01*
X136950000Y-45900000D02*
G75*
G02*
X137950000Y-45900000I500000J0D01*
G01*
X137450000Y-37400000D02*
G75*
G02*
X137950000Y-37900000I0J-500000D01*
G01*
X123950000Y-37900000D02*
G75*
G02*
X124450000Y-37400000I500000J0D01*
G01*
X124450000Y-51400000D02*
G75*
G02*
X123950000Y-50900000I0J500000D01*
G01*
X137950000Y-50900000D02*
G75*
G02*
X137450000Y-51400000I-500000J0D01*
G01*
X143000000Y-62450000D02*
X143000000Y-67450000D01*
X144000000Y-62450000D02*
X144000000Y-66950000D01*
X156000000Y-66950000D02*
X156000000Y-62450000D01*
X157000000Y-67450000D02*
X157000000Y-62450000D01*
X144000000Y-54950000D02*
X144000000Y-59450000D01*
X144000000Y-66950000D02*
X156000000Y-66950000D01*
X156000000Y-59450000D02*
X156000000Y-54950000D01*
X156000000Y-54950000D02*
X144000000Y-54950000D01*
X156500000Y-53950000D02*
X143500000Y-53950000D01*
X157000000Y-59450000D02*
X157000000Y-54450000D01*
X143500000Y-67950000D02*
X156500000Y-67950000D01*
X143000000Y-54450000D02*
X143000000Y-59450000D01*
X143000000Y-62450000D02*
G75*
G02*
X144000000Y-62450000I500000J0D01*
G01*
X144000000Y-59450000D02*
G75*
G02*
X143000000Y-59450000I-500000J0D01*
G01*
X157000000Y-59450000D02*
G75*
G02*
X156000000Y-59450000I-500000J0D01*
G01*
X156000000Y-62450000D02*
G75*
G02*
X157000000Y-62450000I500000J0D01*
G01*
X156500000Y-53950000D02*
G75*
G02*
X157000000Y-54450000I0J-500000D01*
G01*
X143000000Y-54450000D02*
G75*
G02*
X143500000Y-53950000I500000J0D01*
G01*
X143500000Y-67950000D02*
G75*
G02*
X143000000Y-67450000I0J500000D01*
G01*
X157000000Y-67450000D02*
G75*
G02*
X156500000Y-67950000I-500000J0D01*
G01*
X200150000Y-73950000D02*
X200150000Y-78950000D01*
X201150000Y-73950000D02*
X201150000Y-78450000D01*
X213150000Y-78450000D02*
X213150000Y-73950000D01*
X214150000Y-78950000D02*
X214150000Y-73950000D01*
X201150000Y-66450000D02*
X201150000Y-70950000D01*
X201150000Y-78450000D02*
X213150000Y-78450000D01*
X213150000Y-70950000D02*
X213150000Y-66450000D01*
X213150000Y-66450000D02*
X201150000Y-66450000D01*
X213650000Y-65450000D02*
X200650000Y-65450000D01*
X214150000Y-70950000D02*
X214150000Y-65950000D01*
X200650000Y-79450000D02*
X213650000Y-79450000D01*
X200150000Y-65950000D02*
X200150000Y-70950000D01*
X200150000Y-73950000D02*
G75*
G02*
X201150000Y-73950000I500000J0D01*
G01*
X201150000Y-70950000D02*
G75*
G02*
X200150000Y-70950000I-500000J0D01*
G01*
X214150000Y-70950000D02*
G75*
G02*
X213150000Y-70950000I-500000J0D01*
G01*
X213150000Y-73950000D02*
G75*
G02*
X214150000Y-73950000I500000J0D01*
G01*
X213650000Y-65450000D02*
G75*
G02*
X214150000Y-65950000I0J-500000D01*
G01*
X200150000Y-65950000D02*
G75*
G02*
X200650000Y-65450000I500000J0D01*
G01*
X200650000Y-79450000D02*
G75*
G02*
X200150000Y-78950000I0J500000D01*
G01*
X214150000Y-78950000D02*
G75*
G02*
X213650000Y-79450000I-500000J0D01*
G01*
X200150000Y-93000000D02*
X200150000Y-98000000D01*
X201150000Y-93000000D02*
X201150000Y-97500000D01*
X213150000Y-97500000D02*
X213150000Y-93000000D01*
X214150000Y-98000000D02*
X214150000Y-93000000D01*
X201150000Y-85500000D02*
X201150000Y-90000000D01*
X201150000Y-97500000D02*
X213150000Y-97500000D01*
X213150000Y-90000000D02*
X213150000Y-85500000D01*
X213150000Y-85500000D02*
X201150000Y-85500000D01*
X213650000Y-84500000D02*
X200650000Y-84500000D01*
X214150000Y-90000000D02*
X214150000Y-85000000D01*
X200650000Y-98500000D02*
X213650000Y-98500000D01*
X200150000Y-85000000D02*
X200150000Y-90000000D01*
X200150000Y-93000000D02*
G75*
G02*
X201150000Y-93000000I500000J0D01*
G01*
X201150000Y-90000000D02*
G75*
G02*
X200150000Y-90000000I-500000J0D01*
G01*
X214150000Y-90000000D02*
G75*
G02*
X213150000Y-90000000I-500000J0D01*
G01*
X213150000Y-93000000D02*
G75*
G02*
X214150000Y-93000000I500000J0D01*
G01*
X213650000Y-84500000D02*
G75*
G02*
X214150000Y-85000000I0J-500000D01*
G01*
X200150000Y-85000000D02*
G75*
G02*
X200650000Y-84500000I500000J0D01*
G01*
X200650000Y-98500000D02*
G75*
G02*
X200150000Y-98000000I0J500000D01*
G01*
X214150000Y-98000000D02*
G75*
G02*
X213650000Y-98500000I-500000J0D01*
G01*
X181100000Y-81000000D02*
X181100000Y-86000000D01*
X182100000Y-81000000D02*
X182100000Y-85500000D01*
X194100000Y-85500000D02*
X194100000Y-81000000D01*
X195100000Y-86000000D02*
X195100000Y-81000000D01*
X182100000Y-73500000D02*
X182100000Y-78000000D01*
X182100000Y-85500000D02*
X194100000Y-85500000D01*
X194100000Y-78000000D02*
X194100000Y-73500000D01*
X194100000Y-73500000D02*
X182100000Y-73500000D01*
X194600000Y-72500000D02*
X181600000Y-72500000D01*
X195100000Y-78000000D02*
X195100000Y-73000000D01*
X181600000Y-86500000D02*
X194600000Y-86500000D01*
X181100000Y-73000000D02*
X181100000Y-78000000D01*
X181100000Y-81000000D02*
G75*
G02*
X182100000Y-81000000I500000J0D01*
G01*
X182100000Y-78000000D02*
G75*
G02*
X181100000Y-78000000I-500000J0D01*
G01*
X195100000Y-78000000D02*
G75*
G02*
X194100000Y-78000000I-500000J0D01*
G01*
X194100000Y-81000000D02*
G75*
G02*
X195100000Y-81000000I500000J0D01*
G01*
X194600000Y-72500000D02*
G75*
G02*
X195100000Y-73000000I0J-500000D01*
G01*
X181100000Y-73000000D02*
G75*
G02*
X181600000Y-72500000I500000J0D01*
G01*
X181600000Y-86500000D02*
G75*
G02*
X181100000Y-86000000I0J500000D01*
G01*
X195100000Y-86000000D02*
G75*
G02*
X194600000Y-86500000I-500000J0D01*
G01*
X162050000Y-75000000D02*
X162050000Y-80000000D01*
X163050000Y-75000000D02*
X163050000Y-79500000D01*
X175050000Y-79500000D02*
X175050000Y-75000000D01*
X176050000Y-80000000D02*
X176050000Y-75000000D01*
X163050000Y-67500000D02*
X163050000Y-72000000D01*
X163050000Y-79500000D02*
X175050000Y-79500000D01*
X175050000Y-72000000D02*
X175050000Y-67500000D01*
X175050000Y-67500000D02*
X163050000Y-67500000D01*
X175550000Y-66500000D02*
X162550000Y-66500000D01*
X176050000Y-72000000D02*
X176050000Y-67000000D01*
X162550000Y-80500000D02*
X175550000Y-80500000D01*
X162050000Y-67000000D02*
X162050000Y-72000000D01*
X162050000Y-75000000D02*
G75*
G02*
X163050000Y-75000000I500000J0D01*
G01*
X163050000Y-72000000D02*
G75*
G02*
X162050000Y-72000000I-500000J0D01*
G01*
X176050000Y-72000000D02*
G75*
G02*
X175050000Y-72000000I-500000J0D01*
G01*
X175050000Y-75000000D02*
G75*
G02*
X176050000Y-75000000I500000J0D01*
G01*
X175550000Y-66500000D02*
G75*
G02*
X176050000Y-67000000I0J-500000D01*
G01*
X162050000Y-67000000D02*
G75*
G02*
X162550000Y-66500000I500000J0D01*
G01*
X162550000Y-80500000D02*
G75*
G02*
X162050000Y-80000000I0J500000D01*
G01*
X176050000Y-80000000D02*
G75*
G02*
X175550000Y-80500000I-500000J0D01*
G01*
X123950000Y-84000000D02*
X123950000Y-89000000D01*
X124950000Y-84000000D02*
X124950000Y-88500000D01*
X136950000Y-88500000D02*
X136950000Y-84000000D01*
X137950000Y-89000000D02*
X137950000Y-84000000D01*
X124950000Y-76500000D02*
X124950000Y-81000000D01*
X124950000Y-88500000D02*
X136950000Y-88500000D01*
X136950000Y-81000000D02*
X136950000Y-76500000D01*
X136950000Y-76500000D02*
X124950000Y-76500000D01*
X137450000Y-75500000D02*
X124450000Y-75500000D01*
X137950000Y-81000000D02*
X137950000Y-76000000D01*
X124450000Y-89500000D02*
X137450000Y-89500000D01*
X123950000Y-76000000D02*
X123950000Y-81000000D01*
X123950000Y-84000000D02*
G75*
G02*
X124950000Y-84000000I500000J0D01*
G01*
X124950000Y-81000000D02*
G75*
G02*
X123950000Y-81000000I-500000J0D01*
G01*
X137950000Y-81000000D02*
G75*
G02*
X136950000Y-81000000I-500000J0D01*
G01*
X136950000Y-84000000D02*
G75*
G02*
X137950000Y-84000000I500000J0D01*
G01*
X137450000Y-75500000D02*
G75*
G02*
X137950000Y-76000000I0J-500000D01*
G01*
X123950000Y-76000000D02*
G75*
G02*
X124450000Y-75500000I500000J0D01*
G01*
X124450000Y-89500000D02*
G75*
G02*
X123950000Y-89000000I0J500000D01*
G01*
X137950000Y-89000000D02*
G75*
G02*
X137450000Y-89500000I-500000J0D01*
G01*
X143000000Y-81500000D02*
X143000000Y-86500000D01*
X144000000Y-81500000D02*
X144000000Y-86000000D01*
X156000000Y-86000000D02*
X156000000Y-81500000D01*
X157000000Y-86500000D02*
X157000000Y-81500000D01*
X144000000Y-74000000D02*
X144000000Y-78500000D01*
X144000000Y-86000000D02*
X156000000Y-86000000D01*
X156000000Y-78500000D02*
X156000000Y-74000000D01*
X156000000Y-74000000D02*
X144000000Y-74000000D01*
X156500000Y-73000000D02*
X143500000Y-73000000D01*
X157000000Y-78500000D02*
X157000000Y-73500000D01*
X143500000Y-87000000D02*
X156500000Y-87000000D01*
X143000000Y-73500000D02*
X143000000Y-78500000D01*
X143000000Y-81500000D02*
G75*
G02*
X144000000Y-81500000I500000J0D01*
G01*
X144000000Y-78500000D02*
G75*
G02*
X143000000Y-78500000I-500000J0D01*
G01*
X157000000Y-78500000D02*
G75*
G02*
X156000000Y-78500000I-500000J0D01*
G01*
X156000000Y-81500000D02*
G75*
G02*
X157000000Y-81500000I500000J0D01*
G01*
X156500000Y-73000000D02*
G75*
G02*
X157000000Y-73500000I0J-500000D01*
G01*
X143000000Y-73500000D02*
G75*
G02*
X143500000Y-73000000I500000J0D01*
G01*
X143500000Y-87000000D02*
G75*
G02*
X143000000Y-86500000I0J500000D01*
G01*
X157000000Y-86500000D02*
G75*
G02*
X156500000Y-87000000I-500000J0D01*
G01*
X123950000Y-103050000D02*
X123950000Y-108050000D01*
X124950000Y-103050000D02*
X124950000Y-107550000D01*
X136950000Y-107550000D02*
X136950000Y-103050000D01*
X137950000Y-108050000D02*
X137950000Y-103050000D01*
X124950000Y-95550000D02*
X124950000Y-100050000D01*
X124950000Y-107550000D02*
X136950000Y-107550000D01*
X136950000Y-100050000D02*
X136950000Y-95550000D01*
X136950000Y-95550000D02*
X124950000Y-95550000D01*
X137450000Y-94550000D02*
X124450000Y-94550000D01*
X137950000Y-100050000D02*
X137950000Y-95050000D01*
X124450000Y-108550000D02*
X137450000Y-108550000D01*
X123950000Y-95050000D02*
X123950000Y-100050000D01*
X123950000Y-103050000D02*
G75*
G02*
X124950000Y-103050000I500000J0D01*
G01*
X124950000Y-100050000D02*
G75*
G02*
X123950000Y-100050000I-500000J0D01*
G01*
X137950000Y-100050000D02*
G75*
G02*
X136950000Y-100050000I-500000J0D01*
G01*
X136950000Y-103050000D02*
G75*
G02*
X137950000Y-103050000I500000J0D01*
G01*
X137450000Y-94550000D02*
G75*
G02*
X137950000Y-95050000I0J-500000D01*
G01*
X123950000Y-95050000D02*
G75*
G02*
X124450000Y-94550000I500000J0D01*
G01*
X124450000Y-108550000D02*
G75*
G02*
X123950000Y-108050000I0J500000D01*
G01*
X137950000Y-108050000D02*
G75*
G02*
X137450000Y-108550000I-500000J0D01*
G01*
X123950000Y-64950000D02*
X123950000Y-69950000D01*
X124950000Y-64950000D02*
X124950000Y-69450000D01*
X136950000Y-69450000D02*
X136950000Y-64950000D01*
X137950000Y-69950000D02*
X137950000Y-64950000D01*
X124950000Y-57450000D02*
X124950000Y-61950000D01*
X124950000Y-69450000D02*
X136950000Y-69450000D01*
X136950000Y-61950000D02*
X136950000Y-57450000D01*
X136950000Y-57450000D02*
X124950000Y-57450000D01*
X137450000Y-56450000D02*
X124450000Y-56450000D01*
X137950000Y-61950000D02*
X137950000Y-56950000D01*
X124450000Y-70450000D02*
X137450000Y-70450000D01*
X123950000Y-56950000D02*
X123950000Y-61950000D01*
X123950000Y-64950000D02*
G75*
G02*
X124950000Y-64950000I500000J0D01*
G01*
X124950000Y-61950000D02*
G75*
G02*
X123950000Y-61950000I-500000J0D01*
G01*
X137950000Y-61950000D02*
G75*
G02*
X136950000Y-61950000I-500000J0D01*
G01*
X136950000Y-64950000D02*
G75*
G02*
X137950000Y-64950000I500000J0D01*
G01*
X137450000Y-56450000D02*
G75*
G02*
X137950000Y-56950000I0J-500000D01*
G01*
X123950000Y-56950000D02*
G75*
G02*
X124450000Y-56450000I500000J0D01*
G01*
X124450000Y-70450000D02*
G75*
G02*
X123950000Y-69950000I0J500000D01*
G01*
X137950000Y-69950000D02*
G75*
G02*
X137450000Y-70450000I-500000J0D01*
G01*
X143000000Y-43400000D02*
X143000000Y-48400000D01*
X144000000Y-43400000D02*
X144000000Y-47900000D01*
X156000000Y-47900000D02*
X156000000Y-43400000D01*
X157000000Y-48400000D02*
X157000000Y-43400000D01*
X144000000Y-35900000D02*
X144000000Y-40400000D01*
X144000000Y-47900000D02*
X156000000Y-47900000D01*
X156000000Y-40400000D02*
X156000000Y-35900000D01*
X156000000Y-35900000D02*
X144000000Y-35900000D01*
X156500000Y-34900000D02*
X143500000Y-34900000D01*
X157000000Y-40400000D02*
X157000000Y-35400000D01*
X143500000Y-48900000D02*
X156500000Y-48900000D01*
X143000000Y-35400000D02*
X143000000Y-40400000D01*
X143000000Y-43400000D02*
G75*
G02*
X144000000Y-43400000I500000J0D01*
G01*
X144000000Y-40400000D02*
G75*
G02*
X143000000Y-40400000I-500000J0D01*
G01*
X157000000Y-40400000D02*
G75*
G02*
X156000000Y-40400000I-500000J0D01*
G01*
X156000000Y-43400000D02*
G75*
G02*
X157000000Y-43400000I500000J0D01*
G01*
X156500000Y-34900000D02*
G75*
G02*
X157000000Y-35400000I0J-500000D01*
G01*
X143000000Y-35400000D02*
G75*
G02*
X143500000Y-34900000I500000J0D01*
G01*
X143500000Y-48900000D02*
G75*
G02*
X143000000Y-48400000I0J500000D01*
G01*
X157000000Y-48400000D02*
G75*
G02*
X156500000Y-48900000I-500000J0D01*
G01*
X162050000Y-94050000D02*
X162050000Y-99050000D01*
X163050000Y-94050000D02*
X163050000Y-98550000D01*
X175050000Y-98550000D02*
X175050000Y-94050000D01*
X176050000Y-99050000D02*
X176050000Y-94050000D01*
X163050000Y-86550000D02*
X163050000Y-91050000D01*
X163050000Y-98550000D02*
X175050000Y-98550000D01*
X175050000Y-91050000D02*
X175050000Y-86550000D01*
X175050000Y-86550000D02*
X163050000Y-86550000D01*
X175550000Y-85550000D02*
X162550000Y-85550000D01*
X176050000Y-91050000D02*
X176050000Y-86050000D01*
X162550000Y-99550000D02*
X175550000Y-99550000D01*
X162050000Y-86050000D02*
X162050000Y-91050000D01*
X162050000Y-94050000D02*
G75*
G02*
X163050000Y-94050000I500000J0D01*
G01*
X163050000Y-91050000D02*
G75*
G02*
X162050000Y-91050000I-500000J0D01*
G01*
X176050000Y-91050000D02*
G75*
G02*
X175050000Y-91050000I-500000J0D01*
G01*
X175050000Y-94050000D02*
G75*
G02*
X176050000Y-94050000I500000J0D01*
G01*
X175550000Y-85550000D02*
G75*
G02*
X176050000Y-86050000I0J-500000D01*
G01*
X162050000Y-86050000D02*
G75*
G02*
X162550000Y-85550000I500000J0D01*
G01*
X162550000Y-99550000D02*
G75*
G02*
X162050000Y-99050000I0J500000D01*
G01*
X176050000Y-99050000D02*
G75*
G02*
X175550000Y-99550000I-500000J0D01*
G01*
X162050000Y-55950000D02*
X162050000Y-60950000D01*
X163050000Y-55950000D02*
X163050000Y-60450000D01*
X175050000Y-60450000D02*
X175050000Y-55950000D01*
X176050000Y-60950000D02*
X176050000Y-55950000D01*
X163050000Y-48450000D02*
X163050000Y-52950000D01*
X163050000Y-60450000D02*
X175050000Y-60450000D01*
X175050000Y-52950000D02*
X175050000Y-48450000D01*
X175050000Y-48450000D02*
X163050000Y-48450000D01*
X175550000Y-47450000D02*
X162550000Y-47450000D01*
X176050000Y-52950000D02*
X176050000Y-47950000D01*
X162550000Y-61450000D02*
X175550000Y-61450000D01*
X162050000Y-47950000D02*
X162050000Y-52950000D01*
X162050000Y-55950000D02*
G75*
G02*
X163050000Y-55950000I500000J0D01*
G01*
X163050000Y-52950000D02*
G75*
G02*
X162050000Y-52950000I-500000J0D01*
G01*
X176050000Y-52950000D02*
G75*
G02*
X175050000Y-52950000I-500000J0D01*
G01*
X175050000Y-55950000D02*
G75*
G02*
X176050000Y-55950000I500000J0D01*
G01*
X175550000Y-47450000D02*
G75*
G02*
X176050000Y-47950000I0J-500000D01*
G01*
X162050000Y-47950000D02*
G75*
G02*
X162550000Y-47450000I500000J0D01*
G01*
X162550000Y-61450000D02*
G75*
G02*
X162050000Y-60950000I0J500000D01*
G01*
X176050000Y-60950000D02*
G75*
G02*
X175550000Y-61450000I-500000J0D01*
G01*
X162050000Y-36900000D02*
X162050000Y-41900000D01*
X163050000Y-36900000D02*
X163050000Y-41400000D01*
X175050000Y-41400000D02*
X175050000Y-36900000D01*
X176050000Y-41900000D02*
X176050000Y-36900000D01*
X163050000Y-29400000D02*
X163050000Y-33900000D01*
X163050000Y-41400000D02*
X175050000Y-41400000D01*
X175050000Y-33900000D02*
X175050000Y-29400000D01*
X175050000Y-29400000D02*
X163050000Y-29400000D01*
X175550000Y-28400000D02*
X162550000Y-28400000D01*
X176050000Y-33900000D02*
X176050000Y-28900000D01*
X162550000Y-42400000D02*
X175550000Y-42400000D01*
X162050000Y-28900000D02*
X162050000Y-33900000D01*
X162050000Y-36900000D02*
G75*
G02*
X163050000Y-36900000I500000J0D01*
G01*
X163050000Y-33900000D02*
G75*
G02*
X162050000Y-33900000I-500000J0D01*
G01*
X176050000Y-33900000D02*
G75*
G02*
X175050000Y-33900000I-500000J0D01*
G01*
X175050000Y-36900000D02*
G75*
G02*
X176050000Y-36900000I500000J0D01*
G01*
X175550000Y-28400000D02*
G75*
G02*
X176050000Y-28900000I0J-500000D01*
G01*
X162050000Y-28900000D02*
G75*
G02*
X162550000Y-28400000I500000J0D01*
G01*
X162550000Y-42400000D02*
G75*
G02*
X162050000Y-41900000I0J500000D01*
G01*
X176050000Y-41900000D02*
G75*
G02*
X175550000Y-42400000I-500000J0D01*
G01*
X181100000Y-100050000D02*
X181100000Y-105050000D01*
X182100000Y-100050000D02*
X182100000Y-104550000D01*
X194100000Y-104550000D02*
X194100000Y-100050000D01*
X195100000Y-105050000D02*
X195100000Y-100050000D01*
X182100000Y-92550000D02*
X182100000Y-97050000D01*
X182100000Y-104550000D02*
X194100000Y-104550000D01*
X194100000Y-97050000D02*
X194100000Y-92550000D01*
X194100000Y-92550000D02*
X182100000Y-92550000D01*
X194600000Y-91550000D02*
X181600000Y-91550000D01*
X195100000Y-97050000D02*
X195100000Y-92050000D01*
X181600000Y-105550000D02*
X194600000Y-105550000D01*
X181100000Y-92050000D02*
X181100000Y-97050000D01*
X181100000Y-100050000D02*
G75*
G02*
X182100000Y-100050000I500000J0D01*
G01*
X182100000Y-97050000D02*
G75*
G02*
X181100000Y-97050000I-500000J0D01*
G01*
X195100000Y-97050000D02*
G75*
G02*
X194100000Y-97050000I-500000J0D01*
G01*
X194100000Y-100050000D02*
G75*
G02*
X195100000Y-100050000I500000J0D01*
G01*
X194600000Y-91550000D02*
G75*
G02*
X195100000Y-92050000I0J-500000D01*
G01*
X181100000Y-92050000D02*
G75*
G02*
X181600000Y-91550000I500000J0D01*
G01*
X181600000Y-105550000D02*
G75*
G02*
X181100000Y-105050000I0J500000D01*
G01*
X195100000Y-105050000D02*
G75*
G02*
X194600000Y-105550000I-500000J0D01*
G01*
X181100000Y-61950000D02*
X181100000Y-66950000D01*
X182100000Y-61950000D02*
X182100000Y-66450000D01*
X194100000Y-66450000D02*
X194100000Y-61950000D01*
X195100000Y-66950000D02*
X195100000Y-61950000D01*
X182100000Y-54450000D02*
X182100000Y-58950000D01*
X182100000Y-66450000D02*
X194100000Y-66450000D01*
X194100000Y-58950000D02*
X194100000Y-54450000D01*
X194100000Y-54450000D02*
X182100000Y-54450000D01*
X194600000Y-53450000D02*
X181600000Y-53450000D01*
X195100000Y-58950000D02*
X195100000Y-53950000D01*
X181600000Y-67450000D02*
X194600000Y-67450000D01*
X181100000Y-53950000D02*
X181100000Y-58950000D01*
X181100000Y-61950000D02*
G75*
G02*
X182100000Y-61950000I500000J0D01*
G01*
X182100000Y-58950000D02*
G75*
G02*
X181100000Y-58950000I-500000J0D01*
G01*
X195100000Y-58950000D02*
G75*
G02*
X194100000Y-58950000I-500000J0D01*
G01*
X194100000Y-61950000D02*
G75*
G02*
X195100000Y-61950000I500000J0D01*
G01*
X194600000Y-53450000D02*
G75*
G02*
X195100000Y-53950000I0J-500000D01*
G01*
X181100000Y-53950000D02*
G75*
G02*
X181600000Y-53450000I500000J0D01*
G01*
X181600000Y-67450000D02*
G75*
G02*
X181100000Y-66950000I0J500000D01*
G01*
X195100000Y-66950000D02*
G75*
G02*
X194600000Y-67450000I-500000J0D01*
G01*
X181100000Y-42900000D02*
X181100000Y-47900000D01*
X182100000Y-42900000D02*
X182100000Y-47400000D01*
X194100000Y-47400000D02*
X194100000Y-42900000D01*
X195100000Y-47900000D02*
X195100000Y-42900000D01*
X182100000Y-35400000D02*
X182100000Y-39900000D01*
X182100000Y-47400000D02*
X194100000Y-47400000D01*
X194100000Y-39900000D02*
X194100000Y-35400000D01*
X194100000Y-35400000D02*
X182100000Y-35400000D01*
X194600000Y-34400000D02*
X181600000Y-34400000D01*
X195100000Y-39900000D02*
X195100000Y-34900000D01*
X181600000Y-48400000D02*
X194600000Y-48400000D01*
X181100000Y-34900000D02*
X181100000Y-39900000D01*
X181100000Y-42900000D02*
G75*
G02*
X182100000Y-42900000I500000J0D01*
G01*
X182100000Y-39900000D02*
G75*
G02*
X181100000Y-39900000I-500000J0D01*
G01*
X195100000Y-39900000D02*
G75*
G02*
X194100000Y-39900000I-500000J0D01*
G01*
X194100000Y-42900000D02*
G75*
G02*
X195100000Y-42900000I500000J0D01*
G01*
X194600000Y-34400000D02*
G75*
G02*
X195100000Y-34900000I0J-500000D01*
G01*
X181100000Y-34900000D02*
G75*
G02*
X181600000Y-34400000I500000J0D01*
G01*
X181600000Y-48400000D02*
G75*
G02*
X181100000Y-47900000I0J500000D01*
G01*
X195100000Y-47900000D02*
G75*
G02*
X194600000Y-48400000I-500000J0D01*
G01*
X200150000Y-112050000D02*
X200150000Y-117050000D01*
X201150000Y-112050000D02*
X201150000Y-116550000D01*
X213150000Y-116550000D02*
X213150000Y-112050000D01*
X214150000Y-117050000D02*
X214150000Y-112050000D01*
X201150000Y-104550000D02*
X201150000Y-109050000D01*
X201150000Y-116550000D02*
X213150000Y-116550000D01*
X213150000Y-109050000D02*
X213150000Y-104550000D01*
X213150000Y-104550000D02*
X201150000Y-104550000D01*
X213650000Y-103550000D02*
X200650000Y-103550000D01*
X214150000Y-109050000D02*
X214150000Y-104050000D01*
X200650000Y-117550000D02*
X213650000Y-117550000D01*
X200150000Y-104050000D02*
X200150000Y-109050000D01*
X200150000Y-112050000D02*
G75*
G02*
X201150000Y-112050000I500000J0D01*
G01*
X201150000Y-109050000D02*
G75*
G02*
X200150000Y-109050000I-500000J0D01*
G01*
X214150000Y-109050000D02*
G75*
G02*
X213150000Y-109050000I-500000J0D01*
G01*
X213150000Y-112050000D02*
G75*
G02*
X214150000Y-112050000I500000J0D01*
G01*
X213650000Y-103550000D02*
G75*
G02*
X214150000Y-104050000I0J-500000D01*
G01*
X200150000Y-104050000D02*
G75*
G02*
X200650000Y-103550000I500000J0D01*
G01*
X200650000Y-117550000D02*
G75*
G02*
X200150000Y-117050000I0J500000D01*
G01*
X214150000Y-117050000D02*
G75*
G02*
X213650000Y-117550000I-500000J0D01*
G01*
X200150000Y-54900000D02*
X200150000Y-59900000D01*
X201150000Y-54900000D02*
X201150000Y-59400000D01*
X213150000Y-59400000D02*
X213150000Y-54900000D01*
X214150000Y-59900000D02*
X214150000Y-54900000D01*
X201150000Y-47400000D02*
X201150000Y-51900000D01*
X201150000Y-59400000D02*
X213150000Y-59400000D01*
X213150000Y-51900000D02*
X213150000Y-47400000D01*
X213150000Y-47400000D02*
X201150000Y-47400000D01*
X213650000Y-46400000D02*
X200650000Y-46400000D01*
X214150000Y-51900000D02*
X214150000Y-46900000D01*
X200650000Y-60400000D02*
X213650000Y-60400000D01*
X200150000Y-46900000D02*
X200150000Y-51900000D01*
X200150000Y-54900000D02*
G75*
G02*
X201150000Y-54900000I500000J0D01*
G01*
X201150000Y-51900000D02*
G75*
G02*
X200150000Y-51900000I-500000J0D01*
G01*
X214150000Y-51900000D02*
G75*
G02*
X213150000Y-51900000I-500000J0D01*
G01*
X213150000Y-54900000D02*
G75*
G02*
X214150000Y-54900000I500000J0D01*
G01*
X213650000Y-46400000D02*
G75*
G02*
X214150000Y-46900000I0J-500000D01*
G01*
X200150000Y-46900000D02*
G75*
G02*
X200650000Y-46400000I500000J0D01*
G01*
X200650000Y-60400000D02*
G75*
G02*
X200150000Y-59900000I0J500000D01*
G01*
X214150000Y-59900000D02*
G75*
G02*
X213650000Y-60400000I-500000J0D01*
G01*
X143000000Y-100550000D02*
X143000000Y-105550000D01*
X144000000Y-100550000D02*
X144000000Y-105050000D01*
X156000000Y-105050000D02*
X156000000Y-100550000D01*
X157000000Y-105550000D02*
X157000000Y-100550000D01*
X144000000Y-93050000D02*
X144000000Y-97550000D01*
X144000000Y-105050000D02*
X156000000Y-105050000D01*
X156000000Y-97550000D02*
X156000000Y-93050000D01*
X156000000Y-93050000D02*
X144000000Y-93050000D01*
X156500000Y-92050000D02*
X143500000Y-92050000D01*
X157000000Y-97550000D02*
X157000000Y-92550000D01*
X143500000Y-106050000D02*
X156500000Y-106050000D01*
X143000000Y-92550000D02*
X143000000Y-97550000D01*
X143000000Y-100550000D02*
G75*
G02*
X144000000Y-100550000I500000J0D01*
G01*
X144000000Y-97550000D02*
G75*
G02*
X143000000Y-97550000I-500000J0D01*
G01*
X157000000Y-97550000D02*
G75*
G02*
X156000000Y-97550000I-500000J0D01*
G01*
X156000000Y-100550000D02*
G75*
G02*
X157000000Y-100550000I500000J0D01*
G01*
X156500000Y-92050000D02*
G75*
G02*
X157000000Y-92550000I0J-500000D01*
G01*
X143000000Y-92550000D02*
G75*
G02*
X143500000Y-92050000I500000J0D01*
G01*
X143500000Y-106050000D02*
G75*
G02*
X143000000Y-105550000I0J500000D01*
G01*
X157000000Y-105550000D02*
G75*
G02*
X156500000Y-106050000I-500000J0D01*
G01*
D10*
X117400000Y-67327500D02*
X106400000Y-67327500D01*
X106400000Y-67327500D02*
X106400000Y-59887500D01*
X117400000Y-30327500D02*
X117400000Y-41887500D01*
X106400000Y-30327500D02*
X117400000Y-30327500D01*
X105900000Y-29327500D02*
X117900000Y-29327500D01*
X118400000Y-44887500D02*
X118400000Y-67827500D01*
X117900000Y-68327500D02*
X105900000Y-68327500D01*
X105400000Y-67827500D02*
X105400000Y-59887500D01*
X106400000Y-56887500D02*
X106400000Y-30327500D01*
X105400000Y-56887500D02*
X105400000Y-29827500D01*
X118400000Y-29827500D02*
X118400000Y-41887500D01*
X117400000Y-44887500D02*
X117400000Y-67327500D01*
X117400000Y-44887500D02*
G75*
G02*
X118400000Y-44887500I500000J0D01*
G01*
X118400000Y-41887500D02*
G75*
G02*
X117400000Y-41887500I-500000J0D01*
G01*
X105400000Y-59887500D02*
G75*
G02*
X106400000Y-59887500I500000J0D01*
G01*
X106400000Y-56887500D02*
G75*
G02*
X105400000Y-56887500I-500000J0D01*
G01*
X117900000Y-29327500D02*
G75*
G02*
X118400000Y-29827500I0J-500000D01*
G01*
X105400000Y-29827500D02*
G75*
G02*
X105900000Y-29327500I500000J0D01*
G01*
X105900000Y-68327500D02*
G75*
G02*
X105400000Y-67827500I0J500000D01*
G01*
X118400000Y-67827500D02*
G75*
G02*
X117900000Y-68327500I-500000J0D01*
G01*
M02*
