M48
; DRILL file {KiCad 5.1.12-84ad8e8a86~92~ubuntu20.04.1} date lun. 15 nov. 2021 00:05:37
; FORMAT={-:-/ absolute / metric / decimal}
; #@! TF.CreationDate,2021-11-15T00:05:37+01:00
; #@! TF.GenerationSoftware,Kicad,Pcbnew,5.1.12-84ad8e8a86~92~ubuntu20.04.1
; #@! TF.FileFunction,NonPlated,1,2,NPTH
FMAT,2
METRIC
T1C0.600
T2C1.200
T3C2.000
T4C2.200
T5C2.500
T6C5.300
%
G90
G05
T1
X80.925Y-128.629
X103.871Y-151.575
X124.25Y-29.16
X137.65Y-29.16
X143.3Y-26.16
X143.3Y-105.75
X156.7Y-26.16
X156.7Y-105.75
X162.35Y-25.2
X162.35Y-105.77
X175.75Y-25.2
X175.75Y-105.77
X181.4Y-26.24
X194.8Y-26.24
X194.8Y-124.82
X200.45Y-29.32
X200.45Y-124.82
X213.85Y-29.32
X213.85Y-124.82
X219.5Y-44.5
X219.5Y-124.82
X232.9Y-44.5
X232.9Y-124.82
T2
X219.056Y-33.341
X223.819Y-38.103
T3
X103.756Y-30.157
X103.756Y-67.912
X103.756Y-84.581
X105.5Y-99.0
X120.044Y-30.157
X120.044Y-67.912
X120.044Y-84.581
X144.793Y-109.921
X156.924Y-108.575
X157.144Y-21.659
X175.974Y-108.595
T4
X79.616Y-125.556
X87.323Y-117.849
X93.086Y-139.027
X93.475Y-139.416
X100.794Y-131.319
X101.183Y-131.708
X101.681Y-106.832
X106.945Y-152.886
X111.12Y-101.382
X111.206Y-123.33
X111.481Y-123.806
X114.653Y-145.179
X120.645Y-117.88
X120.92Y-118.356
X121.006Y-140.304
X130.445Y-134.854
X134.142Y-112.413
X138.917Y-131.423
X149.489Y-128.767
T5
X221.438Y-35.722
T6
X98.639Y-34.932
X98.639Y-159.529
X232.22Y-37.929
X232.22Y-136.74
T0
M30
